<svg xmlns="http://www.w3.org/2000/svg" viewBox="0 0 285.22 158.25"><defs><style>.cls-1{fill:#fff;stroke:#231f20;stroke-miterlimit:10;stroke-width:2px;}.cls-2{fill:#231f20;}</style></defs><g id="Layer_2" data-name="Layer 2"><g id="Layer_1-2" data-name="Layer 1"><rect class="cls-1" x="1" y="1" width="283.22" height="156.25"/><path class="cls-2" d="M21.71,25.78l2.93,0,3.73,0q-.15,1.53-.3,4.35t-.18,4.26c-.86.16-1.58.27-2.14.34s-1.25.14-2,.19-1.5.09-2.12.09a17.52,17.52,0,0,1-3-.25A9.83,9.83,0,0,1,16,34,5.39,5.39,0,0,1,14,32.47a6.73,6.73,0,0,1-1.2-2.23,8.68,8.68,0,0,1-.42-2.68,8.32,8.32,0,0,1,1.13-4.23,8.16,8.16,0,0,1,3.27-3.1,11.56,11.56,0,0,1,5.49-1.14,27.88,27.88,0,0,1,5.45.6c0,1.09.05,2.31.15,3.65-.54-.18-1-.32-1.31-.41s-.73-.18-1.17-.26a12.74,12.74,0,0,0-1.27-.17c-.4,0-.76-.06-1.07-.06a7.74,7.74,0,0,0-2.34.35,5.07,5.07,0,0,0-1.89,1.09,4.74,4.74,0,0,0-1.19,1.76,6,6,0,0,0-.39,2.16,4.56,4.56,0,0,0,.45,2.06,3,3,0,0,0,1.43,1.37,4.85,4.85,0,0,0,2.18.48,9.1,9.1,0,0,0,2.19-.3L23.63,29l-.86,0h-1.2l.08-1.38c0-.15,0-.36,0-.64S21.71,26.26,21.71,25.78Z"/><path class="cls-2" d="M37.18,23a8.54,8.54,0,0,1,2.68.42A6.26,6.26,0,0,1,42,24.61a4.94,4.94,0,0,1,1.3,1.88,6,6,0,0,1,.43,2.31,6.9,6.9,0,0,1-.38,2.28,5.55,5.55,0,0,1-1.28,2,5.49,5.49,0,0,1-2.28,1.43,9.19,9.19,0,0,1-2.94.47,9,9,0,0,1-2.74-.42A5.73,5.73,0,0,1,32,33.38a5.11,5.11,0,0,1-1.33-1.91,6.48,6.48,0,0,1,0-4.67,5.55,5.55,0,0,1,1.37-2,6.43,6.43,0,0,1,2.32-1.37A9,9,0,0,1,37.18,23Zm-.07,3.3A2.21,2.21,0,0,0,35,27.71a4.2,4.2,0,0,0-.29,1.56,2.67,2.67,0,0,0,.62,1.89,2,2,0,0,0,1.55.66,2.26,2.26,0,0,0,1.27-.38A2.37,2.37,0,0,0,39,30.33a4.34,4.34,0,0,0,.28-1.58A3.4,3.4,0,0,0,39,27.49a1.89,1.89,0,0,0-.74-.89A2.08,2.08,0,0,0,37.11,26.26Z"/><path class="cls-2" d="M52.11,23a8.59,8.59,0,0,1,2.68.42A6.21,6.21,0,0,1,57,24.61a5,5,0,0,1,1.31,1.88,6.24,6.24,0,0,1,.42,2.31,6.9,6.9,0,0,1-.38,2.28,5.67,5.67,0,0,1-3.56,3.46,9.13,9.13,0,0,1-2.93.47,8.92,8.92,0,0,1-2.74-.42,5.78,5.78,0,0,1-2.2-1.21,5,5,0,0,1-1.32-1.91,6.17,6.17,0,0,1-.45-2.34,6.35,6.35,0,0,1,.44-2.33,5.31,5.31,0,0,1,1.37-2,6.31,6.31,0,0,1,2.31-1.37A9,9,0,0,1,52.11,23ZM52,26.26a2.24,2.24,0,0,0-1.28.37,2.32,2.32,0,0,0-.85,1.08,4.2,4.2,0,0,0-.28,1.56,2.67,2.67,0,0,0,.61,1.89,2,2,0,0,0,1.55.66,2.21,2.21,0,0,0,1.27-.38,2.25,2.25,0,0,0,.85-1.11,4.35,4.35,0,0,0,.29-1.58A3.4,3.4,0,0,0,54,27.49a1.87,1.87,0,0,0-.73-.89A2.09,2.09,0,0,0,52,26.26Z"/><path class="cls-2" d="M61.25,36.11a17.75,17.75,0,0,0,2.55.69,11.07,11.07,0,0,0,1.92.19,4.46,4.46,0,0,0,1.08-.12,3,3,0,0,0,.77-.32,1.79,1.79,0,0,0,.5-.49,2.08,2.08,0,0,0,.32-.65,3.71,3.71,0,0,0,.16-.83c0-.31.06-.75.08-1.3-.29.26-.54.47-.76.63a4.72,4.72,0,0,1-.79.45,4.79,4.79,0,0,1-1,.34,5.52,5.52,0,0,1-1.17.12,5,5,0,0,1-2.57-.67A4.08,4.08,0,0,1,60.6,32.3,6,6,0,0,1,60,29.73a7,7,0,0,1,.6-2.94,6.22,6.22,0,0,1,1.74-2.23,6.49,6.49,0,0,1,2.47-1.25A11.89,11.89,0,0,1,67.9,23c.65,0,1.39,0,2.22.11s2,.25,3.41.52l-.27,3.7L73,31.36c0,.29,0,.53,0,.72l-.09,3.65a7,7,0,0,1-.17,1.32,3.41,3.41,0,0,1-.42,1.07,3.3,3.3,0,0,1-.71.86,3.71,3.71,0,0,1-1.06.64,7.31,7.31,0,0,1-1.4.41,10.94,10.94,0,0,1-1.83.15c-.36,0-.81,0-1.33,0s-1.06-.08-1.61-.15-1-.14-1.43-.21-.9-.18-1.52-.33L61.36,38C61.36,37.68,61.32,37.06,61.25,36.11ZM69,26.39a6.64,6.64,0,0,0-1.25-.13,3.66,3.66,0,0,0-1.74.39,2.66,2.66,0,0,0-1.14,1.16,3.39,3.39,0,0,0-.4,1.6,3,3,0,0,0,.21,1.13,1.69,1.69,0,0,0,.71.81,2,2,0,0,0,1,.3,2,2,0,0,0,1.43-.59,3.08,3.08,0,0,0,.87-1.59A17.18,17.18,0,0,0,69,26.39Z"/><path class="cls-2" d="M75.49,34.72l.2-2.42.44-8.4.12-4.51,2.35,0,2.26,0-.26,3.44-.41,8.49-.09,3.4-2.17,0Z"/><path class="cls-2" d="M93.75,31.32c-.1.45-.28,1.54-.56,3.26a21.45,21.45,0,0,1-2.19.34,17.78,17.78,0,0,1-1.8.09,14.46,14.46,0,0,1-2.46-.19,5.7,5.7,0,0,1-1.93-.65A4.76,4.76,0,0,1,83.44,33a5,5,0,0,1-.83-1.66,7,7,0,0,1-.29-2,7.28,7.28,0,0,1,.57-2.81,5.62,5.62,0,0,1,1.48-2.15,5.48,5.48,0,0,1,2.08-1.1A9.35,9.35,0,0,1,88.87,23a10.25,10.25,0,0,1,2.44.29,4.61,4.61,0,0,1,2,1A4.33,4.33,0,0,1,94.43,26a5.73,5.73,0,0,1,.34,2,7.56,7.56,0,0,1-.14,1.42H86.76c0,.12,0,.23,0,.33a2,2,0,0,0,.87,1.78,3.76,3.76,0,0,0,2.11.57,9.19,9.19,0,0,0,1.69-.18A21,21,0,0,0,93.75,31.32ZM86.84,27.7h3.71c0-.13,0-.24,0-.33a2.2,2.2,0,0,0-.21-1,1.25,1.25,0,0,0-.59-.61,2,2,0,0,0-1.52-.08,2,2,0,0,0-.57.31,1.91,1.91,0,0,0-.42.48A2.44,2.44,0,0,0,87,27C87,27.16,86.9,27.4,86.84,27.7Z"/><path class="cls-2" d="M102,34.48c-.1-1.59-.21-2.87-.34-3.83a12.85,12.85,0,0,0,2.24.78,7.86,7.86,0,0,0,1.73.22,3.59,3.59,0,0,0,1.56-.29.91.91,0,0,0,.58-.84,1.15,1.15,0,0,0-.06-.37,1.51,1.51,0,0,0-.21-.39,3.22,3.22,0,0,0-.45-.48l-2.12-1.84c-.49-.42-.84-.72-1-.91a6.48,6.48,0,0,1-.93-1.07,4,4,0,0,1-.49-1,3.94,3.94,0,0,1,.09-2.43,4.08,4.08,0,0,1,.73-1.23,4.23,4.23,0,0,1,1.28-1,5.82,5.82,0,0,1,1.71-.56,10.41,10.41,0,0,1,1.87-.16,21.7,21.7,0,0,1,4.13.44c0,.52,0,1,.08,1.42s.1,1.19.22,2.27a10.22,10.22,0,0,0-1.89-.58,8,8,0,0,0-1.47-.17,2.92,2.92,0,0,0-1.46.33,1,1,0,0,0-.58.81,1.15,1.15,0,0,0,.09.44,2.21,2.21,0,0,0,.34.5,6.64,6.64,0,0,0,.65.63l1.27,1,.81.64c.24.2.5.43.78.71a8.45,8.45,0,0,1,.71.82,4.43,4.43,0,0,1,.47.74,2.9,2.9,0,0,1,.24.68,3.43,3.43,0,0,1,.08.74,4.08,4.08,0,0,1-.48,1.92A4.13,4.13,0,0,1,110.78,34a5.82,5.82,0,0,1-2,.82,10.19,10.19,0,0,1-2.24.24A25.59,25.59,0,0,1,102,34.48Z"/><path class="cls-2" d="M123.06,31.41c-.13.63-.25,1.25-.34,1.85l-.25,1.37a16.46,16.46,0,0,1-1.74.31,9.89,9.89,0,0,1-1.2.07,7.82,7.82,0,0,1-1.7-.17,2.66,2.66,0,0,1-1.24-.59,2.3,2.3,0,0,1-.67-1,3.94,3.94,0,0,1-.18-1.19c0-.08,0-.21,0-.4s0-.62.08-1.28l.25-3.88h-1.75c0-.52.07-1.2.1-2.05l0-1h1.86c.05-.35.1-1.1.17-2.26l1.92-.39c.35-.07,1.1-.24,2.25-.52,0,1-.09,2-.11,3.17h2.56C123.05,25,123,26,123,26.51h-2.59l-.13,2.8c0,.42,0,.69,0,.81a3.25,3.25,0,0,0,.11.9.88.88,0,0,0,.42.52,1.45,1.45,0,0,0,.66.15,3.6,3.6,0,0,0,.56,0A7.26,7.26,0,0,0,123.06,31.41Z"/><path class="cls-2" d="M131.18,23a8.59,8.59,0,0,1,2.68.42A6.12,6.12,0,0,1,136,24.61a4.86,4.86,0,0,1,1.31,1.88,6.24,6.24,0,0,1,.42,2.31,6.9,6.9,0,0,1-.37,2.28,5.73,5.73,0,0,1-3.56,3.46,9.24,9.24,0,0,1-2.94.47,9,9,0,0,1-2.74-.42A5.66,5.66,0,0,1,126,33.38a5.11,5.11,0,0,1-1.33-1.91,6.16,6.16,0,0,1-.44-2.34,6.34,6.34,0,0,1,.43-2.33,5.43,5.43,0,0,1,1.37-2,6.35,6.35,0,0,1,2.32-1.37A9,9,0,0,1,131.18,23Zm-.08,3.3A2.18,2.18,0,0,0,129,27.71a4.2,4.2,0,0,0-.29,1.56,2.67,2.67,0,0,0,.62,1.89,2,2,0,0,0,1.55.66,2.26,2.26,0,0,0,1.27-.38,2.29,2.29,0,0,0,.84-1.11,4.15,4.15,0,0,0,.29-1.58,3.4,3.4,0,0,0-.22-1.26,1.89,1.89,0,0,0-.74-.89A2.09,2.09,0,0,0,131.1,26.26Z"/><path class="cls-2" d="M149,31.13q-.06.45-.27,1.65l-.3,1.8A14.79,14.79,0,0,1,145,35a8.14,8.14,0,0,1-2.15-.25,4.83,4.83,0,0,1-2-1,4.53,4.53,0,0,1-1.3-1.81,7.47,7.47,0,0,1-.48-2.74,7.93,7.93,0,0,1,.47-2.69,5.18,5.18,0,0,1,1.4-2.12,4.7,4.7,0,0,1,2-1.13A10.12,10.12,0,0,1,145.5,23c.53,0,1.07,0,1.61.08a17,17,0,0,1,2,.37l0,.25c0,.27,0,.55.05.83s0,.72.07,1.33l.07,1a8.88,8.88,0,0,0-2.84-.56,3.38,3.38,0,0,0-1.56.34,2.18,2.18,0,0,0-1,1,3.25,3.25,0,0,0-.32,1.5,3.29,3.29,0,0,0,.28,1.45,1.82,1.82,0,0,0,.92.87,3.17,3.17,0,0,0,1.38.3,6.47,6.47,0,0,0,.9-.08c.35-.06.65-.11.91-.18A8.37,8.37,0,0,0,149,31.13Z"/><path class="cls-2" d="M151,34.72c.1-1,.17-1.74.22-2.34.06-.82.12-1.84.18-3.07l.12-2.66c.05-1.2.09-2.36.11-3.46,0-1.31.05-2.58.05-3.8l2.36,0,2.16,0c-.18,2-.34,4.39-.48,7.31s-.21,5.58-.21,8l-2.2,0Zm5-6.46,1.93-2.78,1.45-2.23,2.35,0,2.6,0-2.23,2.9c-.53.67-1.06,1.39-1.61,2.16.52,1,1.79,3.1,3.79,6.41l-2.37,0-2.48,0-.69-1.41c-.25-.49-.46-.9-.64-1.22-.07-.14-.58-1.06-1.54-2.76Z"/><path class="cls-2" d="M171.33,34.72l.23-2.88.29-5.61.12-4c0-.43,0-.85,0-1.28s0-.85,0-1.58l2.38,0c.58,0,1.37,0,2.37-.05s1.85-.05,2.55-.05a9.37,9.37,0,0,1,2.23.19,4.23,4.23,0,0,1,1.31.6,3.85,3.85,0,0,1,1,1,4.32,4.32,0,0,1,.57,1.25,5.55,5.55,0,0,1-.54,4.19,4.56,4.56,0,0,1-2.05,1.86,7,7,0,0,1-3,.62,8.48,8.48,0,0,1-1.4-.14c-.06-.34-.18-.85-.34-1.53s-.3-1.19-.41-1.52a5,5,0,0,0,1,.1,2.35,2.35,0,0,0,1.69-.54,1.81,1.81,0,0,0,.55-1.34,1.83,1.83,0,0,0-.12-.68,1.07,1.07,0,0,0-.39-.48,1.45,1.45,0,0,0-.6-.25,4.1,4.1,0,0,0-.74-.06l-.84,0-.95.07c-.09,1.45-.17,3.05-.22,4.82-.09,3.22-.14,5.15-.14,5.8v1.46l-2.24,0Z"/><path class="cls-2" d="M185.82,34.72l.35-5,.11-2.86c0-.52,0-1.05,0-1.59s0-1.22,0-2l2.15,0,2.15,0,0,1.27a8.77,8.77,0,0,1,.72-.74,4.49,4.49,0,0,1,.64-.44,3.32,3.32,0,0,1,.76-.29,3.62,3.62,0,0,1,.82-.09,3.66,3.66,0,0,1,.89.11c0,.82,0,1.49.06,2l.08,1.73a4.15,4.15,0,0,0-1.16-.18,3.13,3.13,0,0,0-1.16.2,2.5,2.5,0,0,0-.86.59,3,3,0,0,0-.6,1,7,7,0,0,0-.32,1.88c-.06.86-.09,1.85-.09,3,0,.39,0,.87,0,1.45l-2.19,0Z"/><path class="cls-2" d="M195.65,34.72c.1-.92.18-1.67.23-2.26s.1-1.35.15-2.27.09-1.94.13-3.05.07-2.42.09-3.89l2.34,0,2.29,0c-.13,1.41-.22,2.66-.28,3.73s-.09,2.2-.11,3.4c0,2.13,0,3.57,0,4.34l-2.3,0Zm.7-12.91c.05-.89.07-1.59.07-2.11,0-.15,0-.35,0-.61l2.28,0q1.27,0,2.22,0c0,.24,0,.43,0,.59l-.07,1.39c0,.21,0,.46,0,.74l-2.13,0Z"/><path class="cls-2" d="M212.46,31.13q-.06.45-.27,1.65l-.29,1.8a14.94,14.94,0,0,1-3.45.43,8.14,8.14,0,0,1-2.15-.25,5,5,0,0,1-2-1,4.51,4.51,0,0,1-1.29-1.81,7.47,7.47,0,0,1-.48-2.74,7.7,7.7,0,0,1,.47-2.69,5.17,5.17,0,0,1,1.39-2.12,4.7,4.7,0,0,1,2-1.13A10.15,10.15,0,0,1,209,23c.53,0,1.06,0,1.6.08a16.6,16.6,0,0,1,2,.37l0,.25c0,.27,0,.55,0,.83s0,.72.08,1.33l.06,1a8.83,8.83,0,0,0-2.84-.56,3.31,3.31,0,0,0-1.55.34,2.16,2.16,0,0,0-1,1,3.38,3.38,0,0,0-.32,1.5,3.15,3.15,0,0,0,.29,1.45,1.8,1.8,0,0,0,.91.87,3.17,3.17,0,0,0,1.38.3,6.6,6.6,0,0,0,.91-.08c.34-.06.65-.11.91-.18A9,9,0,0,0,212.46,31.13Z"/><path class="cls-2" d="M225.64,31.32c-.09.45-.28,1.54-.56,3.26a21.45,21.45,0,0,1-2.19.34,17.78,17.78,0,0,1-1.8.09,14.46,14.46,0,0,1-2.46-.19,5.7,5.7,0,0,1-1.93-.65A4.76,4.76,0,0,1,215.33,33a5,5,0,0,1-.83-1.66,7,7,0,0,1-.29-2,7.28,7.28,0,0,1,.57-2.81,5.74,5.74,0,0,1,1.48-2.15,5.48,5.48,0,0,1,2.08-1.1,9.35,9.35,0,0,1,2.42-.32,10.25,10.25,0,0,1,2.44.29,4.61,4.61,0,0,1,2,1A4.33,4.33,0,0,1,226.32,26a5.74,5.74,0,0,1,.35,2,7.63,7.63,0,0,1-.15,1.42h-7.87c0,.12,0,.23,0,.33a2,2,0,0,0,.87,1.78,3.76,3.76,0,0,0,2.11.57,9.19,9.19,0,0,0,1.69-.18A21,21,0,0,0,225.64,31.32Zm-6.9-3.62h3.7c0-.13,0-.24,0-.33a2.35,2.35,0,0,0-.2-1,1.31,1.31,0,0,0-.6-.61,2,2,0,0,0-1.52-.08,2,2,0,0,0-.57.31,1.91,1.91,0,0,0-.42.48,3,3,0,0,0-.25.52A6.42,6.42,0,0,0,218.74,27.7Z"/><path class="cls-2" d="M12.74,62.32,13,59.44l.29-5.62.12-4c0-.43,0-.85,0-1.28s0-.85,0-1.58l2.38,0c.58,0,1.37,0,2.37-.05s1.86,0,2.55,0a9.31,9.31,0,0,1,2.23.19,4.13,4.13,0,0,1,1.31.6,3.85,3.85,0,0,1,1,1,4.2,4.2,0,0,1,.57,1.25,5.55,5.55,0,0,1-.54,4.19A4.51,4.51,0,0,1,23.16,56a7,7,0,0,1-3,.62,8.58,8.58,0,0,1-1.4-.14c-.06-.34-.17-.85-.34-1.54s-.3-1.18-.4-1.51a4.93,4.93,0,0,0,1,.1A2.29,2.29,0,0,0,20.76,53a1.78,1.78,0,0,0,.56-1.33,1.83,1.83,0,0,0-.13-.68,1.07,1.07,0,0,0-.39-.48,1.45,1.45,0,0,0-.6-.25,4,4,0,0,0-.74-.06l-.84,0-.94.07c-.1,1.45-.17,3-.23,4.82-.09,3.22-.14,5.15-.14,5.8v1.46l-2.24,0Z"/><path class="cls-2" d="M27.22,62.32l.35-5,.11-2.86c0-.52,0-1,0-1.59s0-1.22,0-2l2.16,0,2.14,0,0,1.27a9,9,0,0,1,.71-.74,3.89,3.89,0,0,1,.65-.44,3.42,3.42,0,0,1,.75-.29,3.62,3.62,0,0,1,.82-.09,3.8,3.8,0,0,1,.9.11c0,.82,0,1.49.05,2l.08,1.73a4.09,4.09,0,0,0-1.15-.18,3.09,3.09,0,0,0-1.16.2,2.44,2.44,0,0,0-.87.59,3,3,0,0,0-.6,1,7.13,7.13,0,0,0-.31,1.88c-.06.86-.09,1.85-.09,3,0,.39,0,.87,0,1.45q-1.09,0-2.19,0Z"/><path class="cls-2" d="M48.23,58.92c-.09.45-.28,1.54-.56,3.26a21.45,21.45,0,0,1-2.19.34,17.73,17.73,0,0,1-1.79.09,14.46,14.46,0,0,1-2.46-.19,5.68,5.68,0,0,1-1.94-.65,4.89,4.89,0,0,1-1.37-1.18,5,5,0,0,1-.83-1.66,7,7,0,0,1-.29-2,7.28,7.28,0,0,1,.57-2.81A5.74,5.74,0,0,1,38.85,52a5.48,5.48,0,0,1,2.08-1.1,9.4,9.4,0,0,1,2.42-.32,10.19,10.19,0,0,1,2.44.29,4.56,4.56,0,0,1,2,1,4.22,4.22,0,0,1,1.15,1.68,5.74,5.74,0,0,1,.35,2A7.63,7.63,0,0,1,49.11,57H41.24c0,.12,0,.23,0,.33a2,2,0,0,0,.86,1.78,3.76,3.76,0,0,0,2.11.57,9.11,9.11,0,0,0,1.69-.18A20,20,0,0,0,48.23,58.92Zm-6.9-3.62H45c0-.13,0-.24,0-.33a2.2,2.2,0,0,0-.21-1,1.31,1.31,0,0,0-.6-.61,2,2,0,0,0-1.52-.08,2,2,0,0,0-.57.31,1.91,1.91,0,0,0-.42.48,2.37,2.37,0,0,0-.24.52A4.54,4.54,0,0,0,41.33,55.3Z"/><path class="cls-2" d="M63.38,62.32l-2,0-2.18,0,.06-1.43c-.29.28-.55.51-.76.69a4.05,4.05,0,0,1-.84.51,4.93,4.93,0,0,1-1.1.38,5.43,5.43,0,0,1-1.22.14,5,5,0,0,1-2-.4,4.43,4.43,0,0,1-1.6-1.11,4.82,4.82,0,0,1-1-1.72,6.49,6.49,0,0,1-.33-2.06,7.73,7.73,0,0,1,.6-3,6,6,0,0,1,1.56-2.28,5.69,5.69,0,0,1,2.16-1.17,9.54,9.54,0,0,1,2.62-.34,15.36,15.36,0,0,1,2.18.17c.06-.9.1-2.14.12-3.74l2.25,0,2.29,0q-.31,3.33-.57,8.14T63.38,62.32Zm-4-8.67a5,5,0,0,0-1.12-.14,3.82,3.82,0,0,0-1.86.42,2.78,2.78,0,0,0-1.18,1.32A4.21,4.21,0,0,0,54.8,57,2.8,2.8,0,0,0,55,58.18a1.75,1.75,0,0,0,.7.82,2,2,0,0,0,2.2,0,2.51,2.51,0,0,0,.83-1,5.18,5.18,0,0,0,.44-1.61C59.29,55.72,59.34,54.82,59.37,53.65Z"/><path class="cls-2" d="M65.83,62.32c.11-.92.18-1.67.24-2.26s.1-1.35.15-2.27.09-1.94.13-3,.06-2.42.09-3.89l2.33,0,2.3,0c-.13,1.41-.23,2.66-.28,3.73s-.1,2.2-.11,3.4c0,2.13-.05,3.57-.05,4.34l-2.3,0Zm.71-12.91c0-.89.07-1.59.07-2.11,0-.15,0-.35,0-.61l2.28,0q1.26,0,2.22,0c0,.24,0,.43,0,.59L71,48.67c0,.21,0,.46,0,.74l-2.13,0Z"/><path class="cls-2" d="M82.64,58.73q0,.45-.27,1.65l-.29,1.8a14.81,14.81,0,0,1-3.45.43,8.06,8.06,0,0,1-2.14-.25,4.83,4.83,0,0,1-1.95-1,4.44,4.44,0,0,1-1.3-1.81,7.47,7.47,0,0,1-.48-2.74,7.93,7.93,0,0,1,.47-2.69A5.18,5.18,0,0,1,74.63,52a4.7,4.7,0,0,1,2-1.13,10.12,10.12,0,0,1,2.48-.28,14.59,14.59,0,0,1,1.61.08,17,17,0,0,1,2,.37l0,.25c0,.27,0,.55,0,.83s0,.72.07,1.33l.07,1a8.88,8.88,0,0,0-2.84-.56,3.38,3.38,0,0,0-1.56.34,2.26,2.26,0,0,0-1,1,3.38,3.38,0,0,0-.32,1.5,3.28,3.28,0,0,0,.29,1.45,1.82,1.82,0,0,0,.92.87,3.14,3.14,0,0,0,1.38.3,6.6,6.6,0,0,0,.9-.08c.35-.06.65-.11.91-.18A7.75,7.75,0,0,0,82.64,58.73Z"/><path class="cls-2" d="M93.07,59c-.14.63-.26,1.25-.35,1.85l-.25,1.37c-.74.16-1.32.26-1.73.31s-.82.07-1.21.07a7.88,7.88,0,0,1-1.7-.17,2.62,2.62,0,0,1-1.23-.59,2.24,2.24,0,0,1-.68-1,4,4,0,0,1-.18-1.2c0-.07,0-.2,0-.39s0-.62.08-1.28l.25-3.88H84.33c0-.52.07-1.2.1-2l0-1h1.86c.05-.35.1-1.1.17-2.26l1.92-.39c.36-.07,1.11-.24,2.25-.52,0,1-.09,2-.11,3.17h2.56Q93,53.35,93,54.11H90.44l-.14,2.8c0,.42,0,.69,0,.81a2.88,2.88,0,0,0,.12.9.87.87,0,0,0,.41.52,1.45,1.45,0,0,0,.66.15,3.6,3.6,0,0,0,.56,0A7.3,7.3,0,0,0,93.07,59Z"/><path class="cls-2" d="M94.44,62.32c.1-.92.18-1.67.23-2.26s.1-1.35.15-2.27.09-1.94.13-3,.07-2.42.09-3.89l2.34,0,2.29,0c-.13,1.41-.22,2.66-.28,3.73s-.09,2.2-.11,3.4c0,2.13,0,3.57,0,4.34l-2.3,0Zm.7-12.91c0-.89.07-1.59.07-2.11,0-.15,0-.35,0-.61l2.28,0q1.27,0,2.22,0c0,.24,0,.43,0,.59l-.07,1.39c0,.21,0,.46,0,.74l-2.14,0Z"/><path class="cls-2" d="M108.36,50.56A8.59,8.59,0,0,1,111,51a6.12,6.12,0,0,1,2.17,1.23,5,5,0,0,1,1.31,1.88,6.24,6.24,0,0,1,.42,2.31,6.9,6.9,0,0,1-.37,2.28,5.78,5.78,0,0,1-1.28,2A5.55,5.55,0,0,1,111,62.14a9.24,9.24,0,0,1-2.94.47,8.92,8.92,0,0,1-2.74-.42,5.91,5.91,0,0,1-2.2-1.21,5.09,5.09,0,0,1-1.32-1.91,6.17,6.17,0,0,1-.45-2.34,6.35,6.35,0,0,1,.44-2.33,5.43,5.43,0,0,1,1.37-2A6.35,6.35,0,0,1,105.49,51,9,9,0,0,1,108.36,50.56Zm-.08,3.3a2.26,2.26,0,0,0-1.28.37,2.32,2.32,0,0,0-.85,1.08,4.2,4.2,0,0,0-.28,1.56,2.63,2.63,0,0,0,.62,1.89,2,2,0,0,0,1.55.66A2.2,2.2,0,0,0,109.3,59a2.25,2.25,0,0,0,.85-1.11,4.35,4.35,0,0,0,.29-1.58,3.4,3.4,0,0,0-.23-1.26,1.87,1.87,0,0,0-.73-.89A2.09,2.09,0,0,0,108.28,53.86Z"/><path class="cls-2" d="M116.49,62.32c.22-1.7.38-3.58.5-5.64s.18-4,.2-5.83l2.33,0,2.18,0-.11,1.53a8.37,8.37,0,0,1,.64-.66,3.73,3.73,0,0,1,.67-.47,4.32,4.32,0,0,1,.85-.38,6.42,6.42,0,0,1,1-.23,7.55,7.55,0,0,1,2.69.09,4,4,0,0,1,1.29.5,3,3,0,0,1,.87.79,2.72,2.72,0,0,1,.46,1,6,6,0,0,1,.11,1.13c0,.29,0,.9-.09,1.85l-.2,4.06c0,.8-.05,1.54-.05,2.23l-2.12,0c-.89,0-1.7,0-2.44,0,.07-.69.14-1.7.22-3s.11-2.29.11-2.84a2.52,2.52,0,0,0-.49-1.77,1.66,1.66,0,0,0-1.23-.5,2.09,2.09,0,0,0-1.23.43,2.66,2.66,0,0,0-.89,1.24,10.2,10.2,0,0,0-.45,2.68c-.08,1.24-.14,2.51-.17,3.8l-2.19,0Z"/><path class="cls-2" d="M14.42,95.18l1.25-2.35,3.17-6.2.37-.78H20.8L22,89.2l2.19,6H22.79c-.12-.43-.33-1.07-.61-1.9s-.53-1.5-.72-2H17.72l-1,2-.87,1.87H14.42Zm3.71-4.82H21.2l-1.27-3.61Z"/><path class="cls-2" d="M28.44,95.05l-.05-.5a4.75,4.75,0,0,0-.05-.52,5,5,0,0,0,1.94.46,2.08,2.08,0,0,0,.79-.13,1,1,0,0,0,.48-.36.87.87,0,0,0,.16-.5,1,1,0,0,0,0-.29,1.16,1.16,0,0,0-.14-.27,2.12,2.12,0,0,0-.26-.3l-.72-.6-.84-.69a3.94,3.94,0,0,1-.49-.52,1.85,1.85,0,0,1-.29-.53,1.4,1.4,0,0,1-.1-.54,1.43,1.43,0,0,1,.28-.84,1.63,1.63,0,0,1,.8-.62,3.52,3.52,0,0,1,1.23-.2,8.61,8.61,0,0,1,1.73.19c0,.35,0,.68.06,1A3.92,3.92,0,0,0,31.42,89a2.56,2.56,0,0,0-.75.11,1,1,0,0,0-.5.31.76.76,0,0,0-.16.47,1.06,1.06,0,0,0,0,.31,1.21,1.21,0,0,0,.2.33,2.18,2.18,0,0,0,.34.34c.13.12.39.33.78.65a9.52,9.52,0,0,1,.82.69,3.18,3.18,0,0,1,.37.47,1.85,1.85,0,0,1,.23.47,1.59,1.59,0,0,1,.07.48,1.52,1.52,0,0,1-.28.89,1.77,1.77,0,0,1-.85.64,3.31,3.31,0,0,1-1.25.22l-.69,0-.68-.09Z"/><path class="cls-2" d="M34.35,95.18l.17-3,.16-4,0-2.31H36l-.15,2.38-.06,1.42a4.61,4.61,0,0,1,.29-.47,2,2,0,0,1,.31-.35,1.85,1.85,0,0,1,.39-.3,2.45,2.45,0,0,1,.46-.21,3.43,3.43,0,0,1,.6-.16,4.56,4.56,0,0,1,.75-.06,5,5,0,0,1,1.11.13,2.4,2.4,0,0,1,.91.43,1.52,1.52,0,0,1,.52.72,2.75,2.75,0,0,1,.14.85c0,.11,0,.26,0,.45s0,.61-.05,1L41,94.18c0,.27,0,.61,0,1H39.76c.05-.49.1-1.26.17-2.32s.1-1.79.1-2.2a1.87,1.87,0,0,0-.2-.9,1.28,1.28,0,0,0-.65-.55,2.61,2.61,0,0,0-1-.19,2.76,2.76,0,0,0-1,.16,1.86,1.86,0,0,0-1.14,1,3.55,3.55,0,0,0-.26.82,14.9,14.9,0,0,0-.17,1.8c0,.46,0,1.24-.07,2.35H34.35Z"/><path class="cls-2" d="M46.27,88.1a4.41,4.41,0,0,1,1.37.21,2.8,2.8,0,0,1,1.84,1.77,4,4,0,0,1,.25,1.43,4.82,4.82,0,0,1-.26,1.56,3.75,3.75,0,0,1-.74,1.26,2.83,2.83,0,0,1-1.16.76,4.66,4.66,0,0,1-2.86,0,3,3,0,0,1-1.84-1.83,3.91,3.91,0,0,1-.25-1.41,4.36,4.36,0,0,1,.45-2,2.93,2.93,0,0,1,1.33-1.34A4.15,4.15,0,0,1,46.27,88.1Zm0,.87a2.49,2.49,0,0,0-1.28.35,2,2,0,0,0-.86,1.05,4,4,0,0,0-.28,1.53,3.38,3.38,0,0,0,.23,1.3,2,2,0,0,0,.76.93,2.27,2.27,0,0,0,1.29.36,2.65,2.65,0,0,0,1-.18,1.91,1.91,0,0,0,.79-.57,2.58,2.58,0,0,0,.51-1,4.51,4.51,0,0,0,.16-1.23,3.77,3.77,0,0,0-.16-1.13,1.94,1.94,0,0,0-.5-.84,2,2,0,0,0-.77-.45A2.8,2.8,0,0,0,46.24,89Z"/><path class="cls-2" d="M51.05,95.18c.16-2.63.25-4.72.25-6.29v-.63h1.15l0,1.13a4.79,4.79,0,0,1,.45-.64,1.66,1.66,0,0,1,.44-.35,2.18,2.18,0,0,1,.56-.22,2.67,2.67,0,0,1,.64-.08,2.22,2.22,0,0,1,.57.07c0,.3,0,.64.05,1a3.31,3.31,0,0,0-.76-.11,1.9,1.9,0,0,0-.73.13,1.69,1.69,0,0,0-.57.4,1.92,1.92,0,0,0-.42.65,2.44,2.44,0,0,0-.21.78,17.31,17.31,0,0,0-.12,1.74c0,.62,0,1.27,0,2v.45H51.05Z"/><path class="cls-2" d="M59.46,94.28c-.05.23-.11.52-.17.89a6.94,6.94,0,0,1-.74.14,4.52,4.52,0,0,1-.51,0,2.71,2.71,0,0,1-1-.15,1.24,1.24,0,0,1-.57-.49,1.85,1.85,0,0,1-.19-.92V93.5c0-.13,0-.57.07-1.33l.17-3.06h-.91c0-.19,0-.47,0-.82h.93c0-.26,0-.69.07-1.31.43-.08.79-.16,1.09-.23,0,.67,0,1.19-.06,1.54h1.9c0,.28,0,.56,0,.82H57.66L57.48,93v.29a2,2,0,0,0,.11.75.79.79,0,0,0,.34.36,1.12,1.12,0,0,0,.47.11l.37,0A6.91,6.91,0,0,0,59.46,94.28Z"/><path class="cls-2" d="M63.82,98.27c.09-1.17.18-2.77.26-4.79s.12-3.68.13-5c.75-.16,1.35-.27,1.79-.32a10.2,10.2,0,0,1,1.35-.09,4.82,4.82,0,0,1,1.86.34,2.47,2.47,0,0,1,1.22,1.19,4.18,4.18,0,0,1,.44,1.92A4.92,4.92,0,0,1,70.66,93,3.7,3.7,0,0,1,70,94.23a2.72,2.72,0,0,1-1,.83,3.19,3.19,0,0,1-1.33.27,3.33,3.33,0,0,1-.84-.1,2.62,2.62,0,0,1-.7-.28,2,2,0,0,1-.5-.38,4.88,4.88,0,0,1-.49-.64l-.08,2.71q0,.66,0,1v.67H63.82Zm1.56-8.94,0,.52,0,.71c0,.37,0,.67,0,.91s0,.4,0,.49a4.22,4.22,0,0,0,.1,1,1.81,1.81,0,0,0,.43.82,2.13,2.13,0,0,0,2.8.41,2.35,2.35,0,0,0,.82-1.06,4.1,4.1,0,0,0,.29-1.54,3.1,3.1,0,0,0-.31-1.45,1.91,1.91,0,0,0-.82-.88A2.53,2.53,0,0,0,67.38,89,5.82,5.82,0,0,0,65.38,89.33Z"/><path class="cls-2" d="M72.19,95.18c.16-2.63.24-4.72.24-6.29v-.63h1.16l0,1.13a4.06,4.06,0,0,1,.44-.64,1.83,1.83,0,0,1,.44-.35,2.33,2.33,0,0,1,.56-.22,2.75,2.75,0,0,1,.65-.08,2.1,2.1,0,0,1,.56.07c0,.3,0,.64,0,1a3.17,3.17,0,0,0-.76-.11,1.85,1.85,0,0,0-.72.13,1.73,1.73,0,0,0-.58.4,2.27,2.27,0,0,0-.42.65,3.1,3.1,0,0,0-.21.78c0,.32-.08.9-.11,1.74,0,.62,0,1.27,0,2v.45H72.19Z"/><path class="cls-2" d="M80.55,88.1a4.4,4.4,0,0,1,1.36.21A2.77,2.77,0,0,1,83,89a2.93,2.93,0,0,1,.72,1.12A4.26,4.26,0,0,1,84,91.51a4.57,4.57,0,0,1-.27,1.56A3.59,3.59,0,0,1,83,94.33a2.7,2.7,0,0,1-1.16.76,4.63,4.63,0,0,1-2.85,0,3,3,0,0,1-1.13-.69,3.17,3.17,0,0,1-.72-1.14,4.14,4.14,0,0,1-.24-1.41,4.36,4.36,0,0,1,.45-2,3,3,0,0,1,1.32-1.34A4.19,4.19,0,0,1,80.55,88.1Zm0,.87a2.43,2.43,0,0,0-1.27.35,2.07,2.07,0,0,0-.87,1.05,4,4,0,0,0-.28,1.53,3.58,3.58,0,0,0,.23,1.3,2,2,0,0,0,.77.93,2.22,2.22,0,0,0,1.28.36,2.61,2.61,0,0,0,1-.18,1.94,1.94,0,0,0,.8-.57,2.44,2.44,0,0,0,.5-1,4.51,4.51,0,0,0,.17-1.23,3.77,3.77,0,0,0-.17-1.13,1.77,1.77,0,0,0-.5-.84,2,2,0,0,0-.76-.45A2.87,2.87,0,0,0,80.51,89Z"/><path class="cls-2" d="M88.79,88.1a4.46,4.46,0,0,1,1.37.21,2.8,2.8,0,0,1,1.12.65A2.71,2.71,0,0,1,92,90.08a4,4,0,0,1,.25,1.43A4.82,4.82,0,0,1,92,93.07a3.92,3.92,0,0,1-.74,1.26,2.83,2.83,0,0,1-1.16.76,4.66,4.66,0,0,1-2.86,0,3,3,0,0,1-1.84-1.83,3.91,3.91,0,0,1-.25-1.41,4.36,4.36,0,0,1,.45-2,2.93,2.93,0,0,1,1.33-1.34A4.15,4.15,0,0,1,88.79,88.1Zm0,.87a2.49,2.49,0,0,0-1.28.35,2,2,0,0,0-.86,1.05,4,4,0,0,0-.28,1.53,3.38,3.38,0,0,0,.23,1.3,2,2,0,0,0,.76.93,2.27,2.27,0,0,0,1.29.36,2.65,2.65,0,0,0,1-.18,1.91,1.91,0,0,0,.79-.57,2.58,2.58,0,0,0,.51-1,4.51,4.51,0,0,0,.16-1.23,3.77,3.77,0,0,0-.16-1.13,1.94,1.94,0,0,0-.5-.84,2,2,0,0,0-.77-.45A2.8,2.8,0,0,0,88.76,89Z"/><path class="cls-2" d="M93.77,95.18l.08-1.25L94,89.12h-.85c0-.22,0-.51,0-.85h.89c0-.42,0-.75,0-1a3.48,3.48,0,0,1,.08-.61,1.31,1.31,0,0,1,.22-.46,1.33,1.33,0,0,1,.39-.34,1.68,1.68,0,0,1,.58-.23,3.45,3.45,0,0,1,.76-.07,5.68,5.68,0,0,1,1.32.17c0,.27,0,.56.07.87a3.72,3.72,0,0,0-1.19-.23,1.41,1.41,0,0,0-.47.07.87.87,0,0,0-.36.18.74.74,0,0,0-.21.3,1.35,1.35,0,0,0-.12.43,5.21,5.21,0,0,0,0,.6v.29h1.9c0,.2,0,.48-.06.85H95.19l-.12,3.49L95,95.18H93.77Z"/><path class="cls-2" d="M104.66,88.1a4.41,4.41,0,0,1,1.37.21,2.74,2.74,0,0,1,1.12.65,2.83,2.83,0,0,1,.73,1.12,4.25,4.25,0,0,1,.24,1.43,4.82,4.82,0,0,1-.26,1.56,3.75,3.75,0,0,1-.74,1.26,2.76,2.76,0,0,1-1.16.76,4.44,4.44,0,0,1-1.47.24,4.54,4.54,0,0,1-1.39-.21,3,3,0,0,1-1.12-.69,2.92,2.92,0,0,1-.72-1.14,3.91,3.91,0,0,1-.25-1.41,4.36,4.36,0,0,1,.45-2,3,3,0,0,1,1.33-1.34A4.15,4.15,0,0,1,104.66,88.1Zm0,.87a2.49,2.49,0,0,0-1.28.35,2.06,2.06,0,0,0-.86,1.05,4,4,0,0,0-.28,1.53,3.58,3.58,0,0,0,.23,1.3,2,2,0,0,0,.77.93,2.22,2.22,0,0,0,1.28.36,2.65,2.65,0,0,0,1-.18,2,2,0,0,0,.8-.57,2.72,2.72,0,0,0,.5-1,4.51,4.51,0,0,0,.17-1.23,3.77,3.77,0,0,0-.17-1.13,1.85,1.85,0,0,0-.5-.84,2,2,0,0,0-.76-.45A2.91,2.91,0,0,0,104.63,89Z"/><path class="cls-2" d="M109.65,95.18l.07-1.25.19-4.81h-.86c0-.22,0-.51.06-.85H110c0-.42,0-.75,0-1a2.71,2.71,0,0,1,.09-.61,1.5,1.5,0,0,1,.21-.46,1.33,1.33,0,0,1,.39-.34,1.76,1.76,0,0,1,.58-.23,3.51,3.51,0,0,1,.76-.07,5.68,5.68,0,0,1,1.32.17c0,.27,0,.56.07.87a3.66,3.66,0,0,0-1.18-.23,1.47,1.47,0,0,0-.48.07.83.83,0,0,0-.35.18.87.87,0,0,0-.22.3,1.35,1.35,0,0,0-.12.43,5.21,5.21,0,0,0,0,.6v.29H113c0,.2,0,.48-.07.85h-1.83l-.12,3.49-.06,2.57h-1.23Z"/><path class="cls-2" d="M122.18,94.15c0,.07,0,.2-.07.4s-.07.4-.1.59a6.8,6.8,0,0,1-1,.15c-.31,0-.58,0-.81,0a4.56,4.56,0,0,1-1.36-.19,2.71,2.71,0,0,1-1.09-.66,2.79,2.79,0,0,1-.69-1.12,4.78,4.78,0,0,1-.21-1.42,5.1,5.1,0,0,1,.35-1.91,3,3,0,0,1,1.12-1.42,3.74,3.74,0,0,1,2.09-.51,7.07,7.07,0,0,1,1.89.26c0,.39,0,.71.08,1a9,9,0,0,0-1.06-.28,4.29,4.29,0,0,0-.76-.07,2.51,2.51,0,0,0-1.08.22,2.15,2.15,0,0,0-.81.62,2.55,2.55,0,0,0-.48,1,4.28,4.28,0,0,0-.15,1.13,3.54,3.54,0,0,0,.24,1.35,1.75,1.75,0,0,0,.84.9,2.85,2.85,0,0,0,1.34.32A5.42,5.42,0,0,0,122.18,94.15Z"/><path class="cls-2" d="M127.15,88.1a4.35,4.35,0,0,1,1.36.21,2.77,2.77,0,0,1,1.13.65,2.71,2.71,0,0,1,.72,1.12,4.26,4.26,0,0,1,.25,1.43,4.57,4.57,0,0,1-.27,1.56,3.59,3.59,0,0,1-.74,1.26,2.7,2.7,0,0,1-1.16.76,4.63,4.63,0,0,1-2.85,0,3.05,3.05,0,0,1-1.13-.69,3.17,3.17,0,0,1-.72-1.14,4.14,4.14,0,0,1-.24-1.41,4.36,4.36,0,0,1,.45-2,3,3,0,0,1,1.32-1.34A4.19,4.19,0,0,1,127.15,88.1Zm0,.87a2.44,2.44,0,0,0-1.28.35,2.07,2.07,0,0,0-.87,1.05,4.21,4.21,0,0,0-.28,1.53,3.58,3.58,0,0,0,.23,1.3,2,2,0,0,0,.77.93,2.22,2.22,0,0,0,1.28.36,2.61,2.61,0,0,0,1-.18,1.94,1.94,0,0,0,.8-.57,2.58,2.58,0,0,0,.51-1,4.93,4.93,0,0,0,.16-1.23,4.11,4.11,0,0,0-.16-1.13,1.87,1.87,0,0,0-.51-.84,2,2,0,0,0-.76-.45A2.85,2.85,0,0,0,127.12,89Z"/><path class="cls-2" d="M131.9,95.18q.33-4.28.35-6.92h1.21l-.09,1.37c.11-.19.2-.34.27-.44a2.46,2.46,0,0,1,.27-.33,2.78,2.78,0,0,1,.41-.32,2.25,2.25,0,0,1,.54-.24,3.71,3.71,0,0,1,.64-.15,4.74,4.74,0,0,1,.65-.05,4.22,4.22,0,0,1,1.13.15,2,2,0,0,1,.9.46,1.51,1.51,0,0,1,.47.73,3,3,0,0,1,.12.87v.34c0,.17,0,.39,0,.67l-.13,2.86c0,.27,0,.61,0,1h-1.22c0-.55.08-1.08.11-1.59l.09-1.59c0-.55,0-1,0-1.24a1.9,1.9,0,0,0-.21-1,1.28,1.28,0,0,0-.65-.55,2.58,2.58,0,0,0-1-.2,2.41,2.41,0,0,0-1.36.38,2.29,2.29,0,0,0-.81,1,5,5,0,0,0-.28,1.35c-.07.72-.12,1.86-.14,3.41H131.9Z"/><path class="cls-2" d="M145.48,94.15c0,.07,0,.2-.07.4s-.07.4-.1.59a6.8,6.8,0,0,1-1,.15c-.31,0-.58,0-.81,0a4.52,4.52,0,0,1-1.36-.19,2.65,2.65,0,0,1-1.09-.66,2.79,2.79,0,0,1-.69-1.12,4.79,4.79,0,0,1-.22-1.42,5.11,5.11,0,0,1,.36-1.91,3,3,0,0,1,1.12-1.42,3.7,3.7,0,0,1,2.08-.51,7.14,7.14,0,0,1,1.9.26c0,.39.05.71.07,1a8.13,8.13,0,0,0-1.06-.28,4.13,4.13,0,0,0-.76-.07,2.44,2.44,0,0,0-1.07.22,2.15,2.15,0,0,0-.81.62,2.29,2.29,0,0,0-.48,1,4.28,4.28,0,0,0-.15,1.13,3.54,3.54,0,0,0,.24,1.35,1.75,1.75,0,0,0,.84.9,2.79,2.79,0,0,0,1.34.32A5.52,5.52,0,0,0,145.48,94.15Z"/><path class="cls-2" d="M152.67,94.1c-.06.25-.11.57-.17,1a10,10,0,0,1-1.14.23,7.72,7.72,0,0,1-1,0,5.16,5.16,0,0,1-1.53-.2,2.68,2.68,0,0,1-1.17-.72,2.92,2.92,0,0,1-.69-1.16,4.26,4.26,0,0,1-.22-1.39,4.57,4.57,0,0,1,.39-1.89,3.07,3.07,0,0,1,1.17-1.37,3.69,3.69,0,0,1,2-.5,3.9,3.9,0,0,1,1.19.18,2.37,2.37,0,0,1,.94.55,2.41,2.41,0,0,1,.58.92,3.22,3.22,0,0,1,.21,1.18,2.45,2.45,0,0,1,0,.48H148c0,.25,0,.44,0,.58a3,3,0,0,0,.3,1.32,2,2,0,0,0,.89.91,2.8,2.8,0,0,0,1.35.31A6.83,6.83,0,0,0,152.67,94.1Zm-4.61-3.26h4.07a3.81,3.81,0,0,0,0-.67,1.72,1.72,0,0,0-.18-.49,1.52,1.52,0,0,0-.35-.45A1.54,1.54,0,0,0,151,89a2,2,0,0,0-.67-.1,2.25,2.25,0,0,0-.74.11,2,2,0,0,0-.62.3,1.79,1.79,0,0,0-.46.45,1.91,1.91,0,0,0-.28.49A4.88,4.88,0,0,0,148.06,90.84Z"/><path class="cls-2" d="M154.29,98.27c.09-1.17.17-2.77.25-4.79s.13-3.68.14-5c.74-.16,1.34-.27,1.79-.32a10.2,10.2,0,0,1,1.35-.09,4.74,4.74,0,0,1,1.85.34,2.49,2.49,0,0,1,1.23,1.19,4.17,4.17,0,0,1,.43,1.92,5.27,5.27,0,0,1-.2,1.44,3.72,3.72,0,0,1-.63,1.24,2.77,2.77,0,0,1-1,.83,3.19,3.19,0,0,1-1.33.27,3.33,3.33,0,0,1-.84-.1,2.5,2.5,0,0,1-.7-.28,2,2,0,0,1-.5-.38,4.13,4.13,0,0,1-.49-.64l-.08,2.71q0,.66,0,1v.67h-1.23Zm1.56-8.94,0,.52,0,.71c0,.37,0,.67,0,.91s0,.4,0,.49a4.21,4.21,0,0,0,.11,1,1.89,1.89,0,0,0,.42.82,2.27,2.27,0,0,0,.75.57,2.16,2.16,0,0,0,.89.19,2.09,2.09,0,0,0,1.17-.35,2.33,2.33,0,0,0,.81-1.06,3.92,3.92,0,0,0,.3-1.54,3.23,3.23,0,0,0-.31-1.45,1.92,1.92,0,0,0-.83-.88,2.49,2.49,0,0,0-1.17-.27A5.78,5.78,0,0,0,155.85,89.33Z"/><path class="cls-2" d="M166.17,94.28c0,.23-.11.52-.17.89a6.94,6.94,0,0,1-.74.14,4.61,4.61,0,0,1-.52,0,2.69,2.69,0,0,1-1-.15,1.14,1.14,0,0,1-.57-.49,1.85,1.85,0,0,1-.2-.92s0-.14,0-.27,0-.57.07-1.33l.17-3.06h-.92c0-.19,0-.47.05-.82h.93c0-.26,0-.69.07-1.31.43-.08.79-.16,1.09-.23,0,.67-.05,1.19-.06,1.54h1.9c0,.28,0,.56,0,.82h-1.89L164.19,93v.29a2,2,0,0,0,.11.75.79.79,0,0,0,.34.36,1.12,1.12,0,0,0,.47.11l.37,0C165.6,94.42,165.83,94.37,166.17,94.28Z"/><path class="cls-2" d="M170.71,95.18l.06-.76c0-.14,0-.4,0-.77L171,89l.08-3.16h1.26c-.06.59-.12,1.43-.17,2.52a9.9,9.9,0,0,1,1.17-.21,7.07,7.07,0,0,1,.91-.06,4.9,4.9,0,0,1,1.51.22,2.42,2.42,0,0,1,1.09.73,3,3,0,0,1,.6,1.11,4.57,4.57,0,0,1,.18,1.29,5.11,5.11,0,0,1-.22,1.51,4,4,0,0,1-.64,1.29,2.54,2.54,0,0,1-1.06.82,3.37,3.37,0,0,1-1.36.26,3.08,3.08,0,0,1-.75-.08A2.67,2.67,0,0,1,173,95a2,2,0,0,1-.48-.34,2.15,2.15,0,0,1-.32-.38,3.13,3.13,0,0,1-.28-.53l0,1.42h-1.17Zm1.39-5.9c0,.76,0,1.26-.07,1.5s0,.54,0,.87a4.2,4.2,0,0,0,.25,1.65,1.76,1.76,0,0,0,.73.87,2.11,2.11,0,0,0,1.12.3,2,2,0,0,0,1.23-.37,2.29,2.29,0,0,0,.81-1.1,4.24,4.24,0,0,0,.28-1.54,2.73,2.73,0,0,0-.59-1.82A2.26,2.26,0,0,0,174,89a5.27,5.27,0,0,0-.87.07A8.52,8.52,0,0,0,172.1,89.28Z"/><path class="cls-2" d="M179.41,89.36c0-.2.08-.5.13-.89a11.57,11.57,0,0,1,1.42-.29,9.75,9.75,0,0,1,1.18-.08,5.2,5.2,0,0,1,1.15.12,2.3,2.3,0,0,1,.9.36,1.28,1.28,0,0,1,.47.58,2.3,2.3,0,0,1,.11.71c0,.31,0,.84-.07,1.58s-.08,1.42-.11,2,0,1.19,0,1.68h-1.23l.15-1.86.1-2.21-.36.26a1.71,1.71,0,0,1-.27.14l-.33.12-.71.2-.74.22a4.31,4.31,0,0,0-.74.3,1.88,1.88,0,0,0-.46.33,1,1,0,0,0-.26.36,1.18,1.18,0,0,0-.09.46,1,1,0,0,0,.22.64,1.12,1.12,0,0,0,.55.38,2.66,2.66,0,0,0,.79.1,4.26,4.26,0,0,0,.61,0,4.44,4.44,0,0,0,.84-.2,5.33,5.33,0,0,0-.22.81c-.33.06-.61.1-.82.12s-.4,0-.59,0a4.07,4.07,0,0,1-1.46-.21,1.59,1.59,0,0,1-.79-.67,1.93,1.93,0,0,1-.26-1,1.7,1.7,0,0,1,.09-.57,1.92,1.92,0,0,1,.25-.47,2.07,2.07,0,0,1,.45-.43,3.1,3.1,0,0,1,.61-.35c.21-.09.46-.18.74-.27L182,91l.52-.13.37-.15a1.15,1.15,0,0,0,.29-.16,1.12,1.12,0,0,0,.37-.49.66.66,0,0,0,.05-.28.8.8,0,0,0-.22-.57,1.08,1.08,0,0,0-.57-.33,2.9,2.9,0,0,0-.83-.1,5.67,5.67,0,0,0-.91.07c-.31,0-.58.11-.81.17S179.74,89.23,179.41,89.36Z"/><path class="cls-2" d="M186.09,95.05l0-.5s0-.23-.06-.52a5,5,0,0,0,1.94.46,2.08,2.08,0,0,0,.79-.13,1,1,0,0,0,.48-.36.87.87,0,0,0,.16-.5,1,1,0,0,0,0-.29,1.16,1.16,0,0,0-.14-.27,1.62,1.62,0,0,0-.26-.3l-.72-.6-.84-.69a3.29,3.29,0,0,1-.48-.52,1.67,1.67,0,0,1-.3-.53,1.4,1.4,0,0,1-.1-.54,1.43,1.43,0,0,1,.28-.84,1.63,1.63,0,0,1,.8-.62,3.52,3.52,0,0,1,1.23-.2,8.61,8.61,0,0,1,1.73.19c0,.35,0,.68.06,1a3.92,3.92,0,0,0-1.51-.31,2.56,2.56,0,0,0-.75.11,1,1,0,0,0-.5.31.76.76,0,0,0-.16.47,1.06,1.06,0,0,0,.05.31,1.21,1.21,0,0,0,.2.33,2.18,2.18,0,0,0,.34.34c.13.12.39.33.79.65s.66.54.81.69a3.18,3.18,0,0,1,.37.47,1.85,1.85,0,0,1,.23.47,1.59,1.59,0,0,1,.07.48,1.52,1.52,0,0,1-.28.89,1.77,1.77,0,0,1-.85.64,3.31,3.31,0,0,1-1.25.22l-.69,0-.68-.09Z"/><path class="cls-2" d="M197.63,94.1c0,.25-.11.57-.16,1a10,10,0,0,1-1.14.23,7.72,7.72,0,0,1-1,0,5.16,5.16,0,0,1-1.53-.2,2.63,2.63,0,0,1-1.17-.72,2.94,2.94,0,0,1-.7-1.16,4.75,4.75,0,0,1,.18-3.28,3.07,3.07,0,0,1,1.17-1.37,3.67,3.67,0,0,1,2-.5,3.94,3.94,0,0,1,1.19.18,2.37,2.37,0,0,1,.94.55,2.54,2.54,0,0,1,.58.92,3.22,3.22,0,0,1,.21,1.18,3.58,3.58,0,0,1,0,.48H193c0,.25,0,.44,0,.58a3,3,0,0,0,.3,1.32,2,2,0,0,0,.89.91,2.81,2.81,0,0,0,1.36.31A6.78,6.78,0,0,0,197.63,94.1ZM193,90.84h4.08a3.66,3.66,0,0,0-.06-.67,2,2,0,0,0-.17-.49,1.55,1.55,0,0,0-.36-.45A1.41,1.41,0,0,0,196,89a2.09,2.09,0,0,0-.67-.1,2.25,2.25,0,0,0-.74.11,2,2,0,0,0-.63.3,1.75,1.75,0,0,0-.45.45,1.91,1.91,0,0,0-.28.49A3.59,3.59,0,0,0,193,90.84Z"/><path class="cls-2" d="M205.86,95.2l-.56,0h-.59l.08-1.47a6.24,6.24,0,0,1-.38.59,2.26,2.26,0,0,1-.37.39,2,2,0,0,1-.5.33,2.48,2.48,0,0,1-.63.23,3,3,0,0,1-.74.08,3.41,3.41,0,0,1-1.24-.23,2.73,2.73,0,0,1-1-.69,2.62,2.62,0,0,1-.58-1,4.28,4.28,0,0,1-.18-1.24,4.36,4.36,0,0,1,.34-1.69,3.5,3.5,0,0,1,.94-1.38,3.57,3.57,0,0,1,1.39-.76,6.19,6.19,0,0,1,1.64-.21,9,9,0,0,1,1.42.14c0-.5,0-.91,0-1.24s0-.85,0-1.15h1.25l-.2,3.86-.14,4.43Zm-1-6.1a5.93,5.93,0,0,0-.7-.16,5.59,5.59,0,0,0-.57,0,4,4,0,0,0-1.25.19,2.55,2.55,0,0,0-1.05.62,2.67,2.67,0,0,0-.7,1.09,3.57,3.57,0,0,0-.25,1.3,3.06,3.06,0,0,0,.23,1.18,1.85,1.85,0,0,0,.72.86,2.08,2.08,0,0,0,1.14.32,2.25,2.25,0,0,0,.71-.11,1.85,1.85,0,0,0,.59-.31,2.42,2.42,0,0,0,.49-.55,3,3,0,0,0,.37-.81,5.09,5.09,0,0,0,.17-1.09q0-.33.06-1.29Z"/><path class="cls-2" d="M211.06,98.27c.09-1.17.18-2.77.26-4.79s.12-3.68.13-5c.75-.16,1.35-.27,1.79-.32a10.2,10.2,0,0,1,1.35-.09,4.82,4.82,0,0,1,1.86.34,2.47,2.47,0,0,1,1.22,1.19,4.18,4.18,0,0,1,.44,1.92A4.92,4.92,0,0,1,217.9,93a3.72,3.72,0,0,1-.63,1.24,2.69,2.69,0,0,1-1,.83,3.19,3.19,0,0,1-1.33.27,3.33,3.33,0,0,1-.84-.1,2.62,2.62,0,0,1-.7-.28,2,2,0,0,1-.5-.38,4.88,4.88,0,0,1-.49-.64l-.08,2.71q0,.66,0,1v.67h-1.23Zm1.56-8.94,0,.52,0,.71c0,.37,0,.67,0,.91s0,.4,0,.49a4.22,4.22,0,0,0,.1,1,1.81,1.81,0,0,0,.43.82,2.14,2.14,0,0,0,.74.57,2.16,2.16,0,0,0,.89.19,2.09,2.09,0,0,0,1.17-.35,2.35,2.35,0,0,0,.82-1.06,4.1,4.1,0,0,0,.29-1.54,3.1,3.1,0,0,0-.31-1.45,1.91,1.91,0,0,0-.82-.88,2.53,2.53,0,0,0-1.18-.27A5.82,5.82,0,0,0,212.62,89.33Z"/><path class="cls-2" d="M219.42,95.18c.17-2.63.25-4.72.25-6.29v-.63h1.16l-.06,1.13a4.79,4.79,0,0,1,.45-.64,1.83,1.83,0,0,1,.44-.35,2.33,2.33,0,0,1,.56-.22,2.75,2.75,0,0,1,.65-.08,2.1,2.1,0,0,1,.56.07c0,.3,0,.64.05,1a3.17,3.17,0,0,0-.76-.11,1.81,1.81,0,0,0-.72.13,1.63,1.63,0,0,0-.58.4,2.27,2.27,0,0,0-.42.65,3.1,3.1,0,0,0-.21.78c-.05.32-.08.9-.11,1.74,0,.62,0,1.27,0,2v.45h-1.22Z"/><path class="cls-2" d="M227.79,88.1a4.4,4.4,0,0,1,1.36.21,2.77,2.77,0,0,1,1.13.65,2.93,2.93,0,0,1,.72,1.12,4.25,4.25,0,0,1,.24,1.43,4.56,4.56,0,0,1-.26,1.56,3.59,3.59,0,0,1-.74,1.26,2.7,2.7,0,0,1-1.16.76,4.63,4.63,0,0,1-2.85,0,3,3,0,0,1-1.13-.69,3.17,3.17,0,0,1-.72-1.14,4.14,4.14,0,0,1-.25-1.41,4.36,4.36,0,0,1,.46-2,3,3,0,0,1,1.32-1.34A4.19,4.19,0,0,1,227.79,88.1Zm0,.87a2.49,2.49,0,0,0-1.28.35,2.11,2.11,0,0,0-.86,1.05,4,4,0,0,0-.28,1.53,3.58,3.58,0,0,0,.23,1.3,2,2,0,0,0,.77.93,2.22,2.22,0,0,0,1.28.36,2.61,2.61,0,0,0,1-.18,2,2,0,0,0,.8-.57,2.57,2.57,0,0,0,.5-1,4.51,4.51,0,0,0,.17-1.23,3.77,3.77,0,0,0-.17-1.13,1.85,1.85,0,0,0-.5-.84,2,2,0,0,0-.76-.45A2.87,2.87,0,0,0,227.75,89Z"/><path class="cls-2" d="M234.12,88.26l-.14,3-.11,3.06q-.06,1.83-.12,2.28a3.13,3.13,0,0,1-.19.8,1.59,1.59,0,0,1-.26.41,1.5,1.5,0,0,1-.4.34,2,2,0,0,1-.56.24,3.65,3.65,0,0,1-.92.1,8.45,8.45,0,0,1-1.8-.21c0-.26,0-.58-.09-1a4.29,4.29,0,0,0,1.49.3,1.78,1.78,0,0,0,.7-.14,1.25,1.25,0,0,0,.46-.29,1.37,1.37,0,0,0,.26-.45,3.72,3.72,0,0,0,.19-.89c0-.5.08-1.24.12-2.2,0-.28,0-1,.08-2.09,0-1.54.07-2.44.07-2.68v-.62h1.23Zm-1.23-1.5c0-.26,0-.58,0-1h1.32c0,.23,0,.55-.05,1h-1.31Z"/><path class="cls-2" d="M241.41,94.1c-.06.25-.11.57-.16,1a10,10,0,0,1-1.14.23,7.72,7.72,0,0,1-1,0,5.27,5.27,0,0,1-1.54-.2,2.65,2.65,0,0,1-1.16-.72,2.83,2.83,0,0,1-.7-1.16,4.75,4.75,0,0,1,.18-3.28,3.07,3.07,0,0,1,1.17-1.37,3.65,3.65,0,0,1,2-.5,3.83,3.83,0,0,1,1.18.18,2.41,2.41,0,0,1,.95.55,2.54,2.54,0,0,1,.58.92,3.21,3.21,0,0,1,.2,1.18,2.45,2.45,0,0,1,0,.48h-5.21c0,.25,0,.44,0,.58a3,3,0,0,0,.3,1.32,2,2,0,0,0,.89.91,2.8,2.8,0,0,0,1.35.31A6.78,6.78,0,0,0,241.41,94.1Zm-4.61-3.26h4.08a4.85,4.85,0,0,0-.06-.67,1.72,1.72,0,0,0-.18-.49,1.37,1.37,0,0,0-.35-.45,1.49,1.49,0,0,0-.53-.28,2.09,2.09,0,0,0-.67-.1,2.35,2.35,0,0,0-.75.11,2.1,2.1,0,0,0-.62.3,2,2,0,0,0-.46.45,2.26,2.26,0,0,0-.28.49A4.88,4.88,0,0,0,236.8,90.84Z"/><path class="cls-2" d="M248.27,94.15c0,.07,0,.2-.08.4s-.07.4-.1.59a6.8,6.8,0,0,1-1,.15,8.1,8.1,0,0,1-.81,0,4.56,4.56,0,0,1-1.36-.19,2.71,2.71,0,0,1-1.09-.66,2.67,2.67,0,0,1-.68-1.12,4.49,4.49,0,0,1-.22-1.42,5.31,5.31,0,0,1,.35-1.91,3,3,0,0,1,1.12-1.42,3.76,3.76,0,0,1,2.09-.51,7,7,0,0,1,1.89.26c0,.39.06.71.08,1a8.56,8.56,0,0,0-1.06-.28,4.21,4.21,0,0,0-.76-.07,2.51,2.51,0,0,0-1.08.22,2.31,2.31,0,0,0-.81.62,2.55,2.55,0,0,0-.48,1,4.28,4.28,0,0,0-.15,1.13,3.54,3.54,0,0,0,.24,1.35,1.75,1.75,0,0,0,.84.9,2.85,2.85,0,0,0,1.34.32A5.52,5.52,0,0,0,248.27,94.15Z"/><path class="cls-2" d="M253.28,94.28c-.05.23-.11.52-.17.89a6.94,6.94,0,0,1-.74.14,4.61,4.61,0,0,1-.52,0,2.69,2.69,0,0,1-1-.15,1.19,1.19,0,0,1-.57-.49,1.85,1.85,0,0,1-.2-.92s0-.14,0-.27,0-.57.07-1.33l.17-3.06h-.92c0-.19,0-.47,0-.82h.93c0-.26.05-.69.07-1.31.43-.08.79-.16,1.09-.23,0,.67,0,1.19-.06,1.54h1.9c0,.28,0,.56,0,.82h-1.89L251.3,93v.29a2,2,0,0,0,.11.75.79.79,0,0,0,.34.36,1.12,1.12,0,0,0,.47.11l.37,0C252.71,94.42,252.94,94.37,253.28,94.28Z"/><path class="cls-2" d="M261.27,94.28c0,.23-.1.52-.16.89a7.44,7.44,0,0,1-.74.14,4.61,4.61,0,0,1-.52,0,2.69,2.69,0,0,1-1-.15,1.14,1.14,0,0,1-.57-.49,1.85,1.85,0,0,1-.2-.92s0-.14,0-.27,0-.57.07-1.33l.17-3.06h-.92c0-.19,0-.47.05-.82h.93c0-.26,0-.69.07-1.31.43-.08.79-.16,1.09-.23,0,.67-.05,1.19-.06,1.54h1.9c0,.28,0,.56,0,.82h-1.89L259.3,93v.29a2,2,0,0,0,.11.75.79.79,0,0,0,.34.36,1.12,1.12,0,0,0,.47.11l.37,0A6.91,6.91,0,0,0,261.27,94.28Z"/><path class="cls-2" d="M265.72,88.1a4.41,4.41,0,0,1,1.37.21,2.84,2.84,0,0,1,1.13.65,2.93,2.93,0,0,1,.72,1.12,4.25,4.25,0,0,1,.24,1.43,4.56,4.56,0,0,1-.26,1.56,3.59,3.59,0,0,1-.74,1.26,2.7,2.7,0,0,1-1.16.76,4.63,4.63,0,0,1-2.85,0,3,3,0,0,1-1.13-.69,2.92,2.92,0,0,1-.72-1.14,4.14,4.14,0,0,1-.25-1.41,4.24,4.24,0,0,1,.46-2,3,3,0,0,1,1.32-1.34A4.15,4.15,0,0,1,265.72,88.1Zm0,.87a2.49,2.49,0,0,0-1.28.35,2.06,2.06,0,0,0-.86,1.05,4,4,0,0,0-.28,1.53,3.58,3.58,0,0,0,.23,1.3,2,2,0,0,0,.77.93,2.22,2.22,0,0,0,1.28.36,2.65,2.65,0,0,0,1-.18,2,2,0,0,0,.8-.57,2.57,2.57,0,0,0,.5-1,4.51,4.51,0,0,0,.17-1.23,3.77,3.77,0,0,0-.17-1.13,1.85,1.85,0,0,0-.5-.84,2,2,0,0,0-.76-.45A2.87,2.87,0,0,0,265.69,89Z"/><path class="cls-2" d="M19,111.08c-.05.23-.11.52-.17.89a6.84,6.84,0,0,1-.73.14,4.79,4.79,0,0,1-.52,0,2.62,2.62,0,0,1-1-.15,1.14,1.14,0,0,1-.57-.49,1.75,1.75,0,0,1-.2-.92v-.27c0-.13,0-.57.07-1.33l.17-3.06h-.91c0-.19,0-.47,0-.82h.94c0-.26,0-.69.07-1.31l1.08-.23c0,.67-.05,1.19-.05,1.54h1.9c0,.28,0,.56,0,.82H17.21L17,109.76v.29a1.83,1.83,0,0,0,.12.75.72.72,0,0,0,.33.36,1.12,1.12,0,0,0,.47.11l.37,0A6.91,6.91,0,0,0,19,111.08Z"/><path class="cls-2" d="M25.68,110.9c-.05.25-.11.57-.16.95a10,10,0,0,1-1.14.23c-.32,0-.64,0-1,0a5.27,5.27,0,0,1-1.54-.2,2.65,2.65,0,0,1-1.16-.72,2.83,2.83,0,0,1-.7-1.16,4.75,4.75,0,0,1,.18-3.28,3.07,3.07,0,0,1,1.17-1.37,3.65,3.65,0,0,1,2-.5,3.94,3.94,0,0,1,1.19.18,2.44,2.44,0,0,1,.94.55,2.54,2.54,0,0,1,.58.92,3.22,3.22,0,0,1,.21,1.18,2.44,2.44,0,0,1-.05.48H21q0,.38,0,.57a3,3,0,0,0,.3,1.33,2,2,0,0,0,.89.91,2.8,2.8,0,0,0,1.35.31A6.78,6.78,0,0,0,25.68,110.9Zm-4.61-3.26h4.08a3.66,3.66,0,0,0-.06-.67,2,2,0,0,0-.17-.49,1.55,1.55,0,0,0-.36-.45,1.41,1.41,0,0,0-.53-.28,2.09,2.09,0,0,0-.67-.1,2.35,2.35,0,0,0-.75.11,2.1,2.1,0,0,0-.62.3,2,2,0,0,0-.46.45,2.19,2.19,0,0,0-.27.49A3.59,3.59,0,0,0,21.07,107.64Z"/><path class="cls-2" d="M27.12,111.85l0-.5s0-.23,0-.52a5,5,0,0,0,1.94.46,2.08,2.08,0,0,0,.79-.13,1,1,0,0,0,.48-.36,1,1,0,0,0,.16-.5,1,1,0,0,0,0-.29,1.11,1.11,0,0,0-.13-.27,2.12,2.12,0,0,0-.26-.3l-.73-.6-.83-.69a3.94,3.94,0,0,1-.49-.52,1.85,1.85,0,0,1-.29-.53,1.4,1.4,0,0,1-.1-.54,1.43,1.43,0,0,1,.28-.84,1.63,1.63,0,0,1,.8-.62,3.47,3.47,0,0,1,1.22-.2,8.54,8.54,0,0,1,1.73.19c0,.35,0,.68.07,1a3.92,3.92,0,0,0-1.51-.31,2.27,2.27,0,0,0-.75.11.92.92,0,0,0-.5.31.76.76,0,0,0-.16.47.81.81,0,0,0,.05.31,1.21,1.21,0,0,0,.2.33,2.61,2.61,0,0,0,.33.34l.79.65a7.71,7.71,0,0,1,.81.69,3.26,3.26,0,0,1,.38.47,2.26,2.26,0,0,1,.23.47,1.59,1.59,0,0,1-.21,1.37,1.77,1.77,0,0,1-.85.64,3.33,3.33,0,0,1-1.26.22l-.69,0-.67-.09Z"/><path class="cls-2" d="M36.5,111.08c0,.23-.11.52-.17.89a6.94,6.94,0,0,1-.74.14,4.61,4.61,0,0,1-.52,0,2.69,2.69,0,0,1-1-.15,1.14,1.14,0,0,1-.57-.49,1.85,1.85,0,0,1-.2-.92s0-.14,0-.27,0-.57.07-1.33l.17-3.06h-.92c0-.19,0-.47.05-.82h.93c0-.26,0-.69.07-1.31.43-.08.79-.16,1.09-.23,0,.67,0,1.19-.06,1.54h1.9c0,.28,0,.56,0,.82H34.7l-.18,3.85v.29a2,2,0,0,0,.11.75.79.79,0,0,0,.34.36,1.12,1.12,0,0,0,.47.11l.37,0C35.93,111.22,36.16,111.17,36.5,111.08Z"/><path class="cls-2" d="M44.49,111.08c-.05.23-.1.52-.16.89a7.44,7.44,0,0,1-.74.14,4.61,4.61,0,0,1-.52,0,2.69,2.69,0,0,1-1-.15,1.14,1.14,0,0,1-.57-.49,1.85,1.85,0,0,1-.2-.92s0-.14,0-.27,0-.57.07-1.33l.16-3.06h-.91c0-.19,0-.47.05-.82h.93c0-.26,0-.69.07-1.31.43-.08.79-.16,1.08-.23,0,.67-.05,1.19-.05,1.54h1.9c0,.28,0,.56,0,.82H42.7l-.19,3.85v.29a2,2,0,0,0,.11.75.74.74,0,0,0,.34.36,1.08,1.08,0,0,0,.47.11l.37,0A6.91,6.91,0,0,0,44.49,111.08Z"/><path class="cls-2" d="M45.53,112l.17-3,.16-4.05,0-2.31h1.23L47,105l0,1.42a4.84,4.84,0,0,1,.28-.47,2,2,0,0,1,.31-.35,1.85,1.85,0,0,1,.39-.3,2.78,2.78,0,0,1,.46-.21A3.56,3.56,0,0,1,49,105a4.35,4.35,0,0,1,.74-.06,5,5,0,0,1,1.11.13,2.33,2.33,0,0,1,.91.43,1.46,1.46,0,0,1,.52.72,2.49,2.49,0,0,1,.14.85v.45q0,.42-.06,1L52.23,111c0,.27,0,.61,0,1H50.94c.05-.49.11-1.26.17-2.32s.1-1.79.1-2.2a1.87,1.87,0,0,0-.19-.9,1.31,1.31,0,0,0-.66-.55,2.61,2.61,0,0,0-1-.19,2.76,2.76,0,0,0-1,.16,1.86,1.86,0,0,0-.68.4,2,2,0,0,0-.46.63,3.63,3.63,0,0,0-.26.81,13.72,13.72,0,0,0-.16,1.81c0,.46,0,1.24-.08,2.35H45.53Z"/><path class="cls-2" d="M59.68,110.9c-.06.25-.11.57-.17.95a9.57,9.57,0,0,1-1.14.23c-.32,0-.64,0-1,0a5.16,5.16,0,0,1-1.53-.2,2.68,2.68,0,0,1-1.17-.72,2.92,2.92,0,0,1-.69-1.16,4.26,4.26,0,0,1-.22-1.39,4.57,4.57,0,0,1,.39-1.89,3,3,0,0,1,1.18-1.37,3.63,3.63,0,0,1,2-.5,3.9,3.9,0,0,1,1.19.18,2.37,2.37,0,0,1,.94.55,2.43,2.43,0,0,1,.59.92,3.44,3.44,0,0,1,.2,1.18,2.45,2.45,0,0,1,0,.48H55c0,.25,0,.44,0,.57a3,3,0,0,0,.3,1.33,2,2,0,0,0,.89.91,2.8,2.8,0,0,0,1.35.31A6.83,6.83,0,0,0,59.68,110.9Zm-4.61-3.26h4.07a3.81,3.81,0,0,0,0-.67,1.72,1.72,0,0,0-.18-.49,1.52,1.52,0,0,0-.35-.45,1.58,1.58,0,0,0-.53-.28,2.15,2.15,0,0,0-.68-.1,2.25,2.25,0,0,0-.74.11,2.1,2.1,0,0,0-.62.3,2,2,0,0,0-.46.45,1.91,1.91,0,0,0-.28.49A4.88,4.88,0,0,0,55.07,107.64Z"/><path class="cls-2" d="M70,111c0,.07,0,.2-.07.4s-.07.39-.1.59a6.8,6.8,0,0,1-1,.15c-.31,0-.58,0-.81,0a4.52,4.52,0,0,1-1.36-.19,2.71,2.71,0,0,1-1.09-.66,2.79,2.79,0,0,1-.69-1.12,4.79,4.79,0,0,1-.22-1.42,5.11,5.11,0,0,1,.36-1.91,3,3,0,0,1,1.12-1.42,3.74,3.74,0,0,1,2.09-.51,7.12,7.12,0,0,1,1.89.26c0,.39,0,.71.07,1a8.49,8.49,0,0,0-1.05-.28,4.29,4.29,0,0,0-.76-.07,2.51,2.51,0,0,0-1.08.22,2.15,2.15,0,0,0-.81.62,2.55,2.55,0,0,0-.48,1,4.28,4.28,0,0,0-.15,1.13,3.54,3.54,0,0,0,.24,1.35,1.75,1.75,0,0,0,.84.9,2.82,2.82,0,0,0,1.34.32A5.52,5.52,0,0,0,70,111Z"/><path class="cls-2" d="M72,106.16c0-.2.08-.5.13-.89a11.57,11.57,0,0,1,1.42-.29,9.75,9.75,0,0,1,1.18-.08,5.2,5.2,0,0,1,1.15.12,2.3,2.3,0,0,1,.9.36,1.28,1.28,0,0,1,.47.58,2.3,2.3,0,0,1,.11.71c0,.31,0,.84-.07,1.58s-.08,1.42-.11,2,0,1.19,0,1.68H75.91l.15-1.86.1-2.21-.36.26a1.71,1.71,0,0,1-.27.14l-.33.12-.71.2-.74.22a4.31,4.31,0,0,0-.74.3,1.88,1.88,0,0,0-.46.33,1,1,0,0,0-.26.36,1.18,1.18,0,0,0-.09.46,1,1,0,0,0,.22.64,1.12,1.12,0,0,0,.55.38,2.66,2.66,0,0,0,.79.1,4.26,4.26,0,0,0,.61,0,4.44,4.44,0,0,0,.84-.2A5.33,5.33,0,0,0,75,112c-.33.06-.61.1-.82.12s-.4,0-.59,0a4.07,4.07,0,0,1-1.46-.21,1.59,1.59,0,0,1-.79-.67,1.93,1.93,0,0,1-.26-1,1.7,1.7,0,0,1,.09-.57,1.76,1.76,0,0,1,.25-.47,2.07,2.07,0,0,1,.45-.43,3.1,3.1,0,0,1,.61-.35c.21-.09.46-.18.74-.27l1.36-.36c.2,0,.37-.09.52-.13l.37-.15a1.15,1.15,0,0,0,.29-.16,1.12,1.12,0,0,0,.37-.49.66.66,0,0,0,0-.28.8.8,0,0,0-.22-.57,1.08,1.08,0,0,0-.57-.33,2.9,2.9,0,0,0-.83-.1,5.75,5.75,0,0,0-.91.07c-.31,0-.58.11-.81.17S72.32,106,72,106.16Z"/><path class="cls-2" d="M78.84,115.07c.1-1.17.18-2.77.26-4.79s.13-3.68.14-5c.74-.16,1.34-.27,1.79-.32a10.2,10.2,0,0,1,1.35-.09,4.74,4.74,0,0,1,1.85.34,2.43,2.43,0,0,1,1.22,1.19,4.05,4.05,0,0,1,.44,1.92,5.27,5.27,0,0,1-.2,1.44,3.72,3.72,0,0,1-.63,1.24,2.77,2.77,0,0,1-1,.83,3.19,3.19,0,0,1-1.33.27,3.33,3.33,0,0,1-.84-.1,2.7,2.7,0,0,1-.71-.28,2.13,2.13,0,0,1-.49-.38,4.13,4.13,0,0,1-.49-.64l-.09,2.71c0,.44,0,.76,0,1v.67H78.84Zm1.57-8.94,0,.52,0,.71c0,.37,0,.67,0,.91s0,.4,0,.49a4.21,4.21,0,0,0,.11,1,1.89,1.89,0,0,0,.42.82,2.08,2.08,0,0,0,.75.57,2.13,2.13,0,0,0,.89.19,2.09,2.09,0,0,0,1.17-.35,2.33,2.33,0,0,0,.81-1.06,3.92,3.92,0,0,0,.3-1.54,3.23,3.23,0,0,0-.31-1.45,1.92,1.92,0,0,0-.83-.88,2.52,2.52,0,0,0-1.17-.27A5.78,5.78,0,0,0,80.41,106.13Z"/><path class="cls-2" d="M87.67,106.16c0-.2.08-.5.13-.89a12,12,0,0,1,1.42-.29,9.75,9.75,0,0,1,1.18-.08,5.2,5.2,0,0,1,1.15.12,2.3,2.3,0,0,1,.9.36,1.28,1.28,0,0,1,.47.58,2,2,0,0,1,.12.71c0,.31,0,.84-.08,1.58s-.08,1.42-.1,2,0,1.19,0,1.68H91.59l.15-1.86.1-2.21-.36.26a1.71,1.71,0,0,1-.27.14l-.33.12-.7.2-.75.22a4.31,4.31,0,0,0-.74.3,2.09,2.09,0,0,0-.46.33,1.16,1.16,0,0,0-.26.36,1.18,1.18,0,0,0-.09.46,1,1,0,0,0,.22.64,1.17,1.17,0,0,0,.55.38,2.69,2.69,0,0,0,.8.1,4.22,4.22,0,0,0,.6,0,4.44,4.44,0,0,0,.84-.2,6.87,6.87,0,0,0-.22.81q-.49.09-.81.12c-.21,0-.41,0-.6,0a4.07,4.07,0,0,1-1.46-.21,1.64,1.64,0,0,1-.79-.67,1.93,1.93,0,0,1-.26-1,1.48,1.48,0,0,1,.1-.57,1.73,1.73,0,0,1,.24-.47,2.07,2.07,0,0,1,.45-.43,3.42,3.42,0,0,1,.61-.35c.21-.09.46-.18.74-.27l1.36-.36c.2,0,.38-.09.52-.13l.37-.15a1.15,1.15,0,0,0,.29-.16,1.19,1.19,0,0,0,.23-.22,1.82,1.82,0,0,0,.15-.27.86.86,0,0,0,0-.28.8.8,0,0,0-.22-.57,1.08,1.08,0,0,0-.57-.33,2.9,2.9,0,0,0-.83-.1,5.75,5.75,0,0,0-.91.07c-.31,0-.58.11-.81.17Z"/><path class="cls-2" d="M94.7,112l.06-.76c0-.14,0-.4,0-.77l.19-4.64.08-3.16h1.26c-.07.59-.12,1.42-.17,2.52a9.55,9.55,0,0,1,1.17-.21,7,7,0,0,1,.9-.06,5,5,0,0,1,1.52.22,2.42,2.42,0,0,1,1.09.73,3,3,0,0,1,.6,1.11,4.52,4.52,0,0,1,.18,1.29,5.11,5.11,0,0,1-.22,1.51,3.82,3.82,0,0,1-.65,1.29,2.52,2.52,0,0,1-1.05.82,3.4,3.4,0,0,1-1.36.26,3,3,0,0,1-.75-.08,2.94,2.94,0,0,1-.63-.24,2.1,2.1,0,0,1-.47-.34,2.15,2.15,0,0,1-.32-.38,3.94,3.94,0,0,1-.29-.53l0,1.42H94.7Zm1.4-5.9c0,.76-.06,1.26-.07,1.5s0,.53,0,.87a4.2,4.2,0,0,0,.25,1.65A1.76,1.76,0,0,0,97,111a2.1,2.1,0,0,0,1.11.3,2.07,2.07,0,0,0,1.24-.37,2.28,2.28,0,0,0,.8-1.1,4.05,4.05,0,0,0,.29-1.54,2.68,2.68,0,0,0-.6-1.82,2.22,2.22,0,0,0-1.79-.69,5.27,5.27,0,0,0-.87.07A8.52,8.52,0,0,0,96.1,106.08Z"/><path class="cls-2" d="M103,112l.12-1.72.13-2.94.06-2.26h1.24c0,.71-.09,1.45-.14,2.23s-.07,1.63-.1,2.55,0,1.63,0,2.14H103Zm.32-8.41c0-.43,0-.75,0-1h1.32c0,.14,0,.46,0,1h-1.3Z"/><path class="cls-2" d="M106.13,112c.09-1.4.18-3.06.26-5,.06-1.4.1-2.84.13-4.34h1.25l-.21,4-.15,4.06,0,1.25h-1.25Z"/><path class="cls-2" d="M109.29,112l.12-1.72.13-2.94.06-2.26h1.24c0,.71-.09,1.45-.14,2.23s-.07,1.63-.1,2.55,0,1.63,0,2.14h-1.27Zm.32-8.41c0-.43,0-.75,0-1H111c0,.14,0,.46,0,1h-1.29Z"/><path class="cls-2" d="M115.9,111.08c-.05.23-.1.52-.16.89a7.44,7.44,0,0,1-.74.14,4.7,4.7,0,0,1-.52,0,2.65,2.65,0,0,1-1-.15,1.14,1.14,0,0,1-.57-.49,1.85,1.85,0,0,1-.2-.92s0-.14,0-.27,0-.57.07-1.33l.16-3.06h-.91c0-.19,0-.47,0-.82H113c0-.26,0-.69.07-1.31.43-.08.79-.16,1.08-.23,0,.67,0,1.19,0,1.54H116c0,.28,0,.56,0,.82h-1.9l-.18,3.85v.29a1.85,1.85,0,0,0,.11.75.74.74,0,0,0,.34.36,1.08,1.08,0,0,0,.47.11l.37,0A6.91,6.91,0,0,0,115.9,111.08Z"/><path class="cls-2" d="M116.94,112l.12-1.72.13-2.94.06-2.26h1.24c0,.71-.1,1.45-.14,2.23s-.07,1.63-.1,2.55,0,1.63,0,2.14h-1.27Zm.32-8.41c0-.43,0-.75,0-1h1.31c0,.14,0,.46,0,1h-1.29Z"/><path class="cls-2" d="M125.72,110.9c0,.25-.1.57-.16.95a10,10,0,0,1-1.14.23c-.32,0-.64,0-1,0a5.16,5.16,0,0,1-1.53-.2,2.68,2.68,0,0,1-1.17-.72,3.06,3.06,0,0,1-.7-1.16,4.75,4.75,0,0,1,.18-3.28,3.07,3.07,0,0,1,1.17-1.37,3.69,3.69,0,0,1,2-.5,3.9,3.9,0,0,1,1.19.18,2.37,2.37,0,0,1,.94.55,2.41,2.41,0,0,1,.58.92,3.22,3.22,0,0,1,.21,1.18,2.45,2.45,0,0,1,0,.48h-5.22c0,.25,0,.44,0,.57a3,3,0,0,0,.3,1.33,2,2,0,0,0,.88.91,2.87,2.87,0,0,0,1.36.31A6.73,6.73,0,0,0,125.72,110.9Zm-4.6-3.26h4.07a3.81,3.81,0,0,0,0-.67,2.09,2.09,0,0,0-.18-.49,1.52,1.52,0,0,0-.35-.45,1.54,1.54,0,0,0-.54-.28,2,2,0,0,0-.67-.1,2.25,2.25,0,0,0-.74.11,2,2,0,0,0-.62.3,1.79,1.79,0,0,0-.46.45,1.91,1.91,0,0,0-.28.49A4.88,4.88,0,0,0,121.12,107.64Z"/><path class="cls-2" d="M127.17,111.85l0-.5s0-.23-.06-.52a5,5,0,0,0,1.94.46,2,2,0,0,0,.79-.13,1,1,0,0,0,.48-.36.87.87,0,0,0,.16-.5,1,1,0,0,0,0-.29,1.16,1.16,0,0,0-.14-.27,1.62,1.62,0,0,0-.26-.3l-.72-.6-.84-.69a3.29,3.29,0,0,1-.48-.52,1.67,1.67,0,0,1-.3-.53,1.62,1.62,0,0,1-.1-.54,1.51,1.51,0,0,1,.28-.84,1.63,1.63,0,0,1,.8-.62,3.52,3.52,0,0,1,1.23-.2,8.61,8.61,0,0,1,1.73.19c0,.35,0,.68.07,1a4,4,0,0,0-1.52-.31,2.25,2.25,0,0,0-.74.11,1,1,0,0,0-.51.31.76.76,0,0,0-.16.47,1.06,1.06,0,0,0,0,.31,1.53,1.53,0,0,0,.2.33,2.72,2.72,0,0,0,.34.34c.13.12.39.33.79.65s.66.54.81.69a3.18,3.18,0,0,1,.37.47,1.85,1.85,0,0,1,.23.47,1.59,1.59,0,0,1,.07.48,1.52,1.52,0,0,1-.28.89,1.79,1.79,0,0,1-.84.64,3.4,3.4,0,0,1-1.26.22l-.69,0-.68-.09Z"/><path class="cls-2" d="M140,104.9a4.41,4.41,0,0,1,1.37.21,2.8,2.8,0,0,1,1.84,1.77,4,4,0,0,1,.25,1.43,4.71,4.71,0,0,1-.26,1.55,3.7,3.7,0,0,1-.74,1.27,2.83,2.83,0,0,1-1.16.76,4.46,4.46,0,0,1-1.48.24,4.52,4.52,0,0,1-1.38-.21,3,3,0,0,1-1.12-.69,2.92,2.92,0,0,1-.72-1.14,3.91,3.91,0,0,1-.25-1.41,4.36,4.36,0,0,1,.45-2,3,3,0,0,1,1.33-1.34A4.15,4.15,0,0,1,140,104.9Zm0,.87a2.49,2.49,0,0,0-1.28.35,2,2,0,0,0-.86,1,4,4,0,0,0-.28,1.53,3.38,3.38,0,0,0,.23,1.3,2,2,0,0,0,.76.93,2.27,2.27,0,0,0,1.29.36,2.65,2.65,0,0,0,1-.18,1.94,1.94,0,0,0,.8-.58,2.59,2.59,0,0,0,.5-1,4.51,4.51,0,0,0,.16-1.23,3.77,3.77,0,0,0-.16-1.13,1.94,1.94,0,0,0-.5-.84,2,2,0,0,0-.77-.45A2.8,2.8,0,0,0,140,105.77Z"/><path class="cls-2" d="M145,112l.08-1.25.18-4.81h-.85c0-.22,0-.51.05-.85h.89c0-.42,0-.75,0-1a2.71,2.71,0,0,1,.09-.61,1.14,1.14,0,0,1,.21-.46,1.33,1.33,0,0,1,.39-.34,1.68,1.68,0,0,1,.58-.23,3.45,3.45,0,0,1,.76-.07,5.68,5.68,0,0,1,1.32.17c0,.27,0,.56.07.87a3.66,3.66,0,0,0-1.18-.23,1.43,1.43,0,0,0-.48.07.77.77,0,0,0-.35.18.76.76,0,0,0-.22.3,1.35,1.35,0,0,0-.12.43,5.21,5.21,0,0,0,0,.6v.29h1.9c0,.2,0,.48-.06.85h-1.83l-.12,3.49-.06,2.57H145Z"/><path class="cls-2" d="M152.86,106.16c0-.2.08-.5.13-.89a11.57,11.57,0,0,1,1.42-.29,9.61,9.61,0,0,1,1.18-.08,5.27,5.27,0,0,1,1.15.12,2.19,2.19,0,0,1,.89.36,1.24,1.24,0,0,1,.48.58,2.3,2.3,0,0,1,.11.71c0,.31,0,.84-.07,1.58s-.08,1.42-.11,2,0,1.19,0,1.68h-1.23l.15-1.86.1-2.21-.36.26a1.71,1.71,0,0,1-.27.14l-.33.12-.71.2-.74.22a4.31,4.31,0,0,0-.74.3,1.88,1.88,0,0,0-.46.33,1,1,0,0,0-.26.36,1.18,1.18,0,0,0-.09.46,1,1,0,0,0,.22.64,1.12,1.12,0,0,0,.55.38,2.62,2.62,0,0,0,.79.1,4.26,4.26,0,0,0,.61,0,4.44,4.44,0,0,0,.84-.2,5.33,5.33,0,0,0-.22.81c-.34.06-.61.1-.82.12s-.4,0-.59,0a4.07,4.07,0,0,1-1.46-.21,1.59,1.59,0,0,1-.79-.67,1.93,1.93,0,0,1-.26-1,1.7,1.7,0,0,1,.09-.57,1.76,1.76,0,0,1,.25-.47,2.07,2.07,0,0,1,.45-.43,3.1,3.1,0,0,1,.61-.35c.21-.09.46-.18.74-.27l1.36-.36c.2,0,.37-.09.51-.13l.38-.15a1.15,1.15,0,0,0,.51-.38.91.91,0,0,0,.15-.27.87.87,0,0,0,0-.28.8.8,0,0,0-.22-.57,1.08,1.08,0,0,0-.57-.33,2.9,2.9,0,0,0-.83-.1,5.67,5.67,0,0,0-.91.07c-.31,0-.58.11-.81.17S153.19,106,152.86,106.16Z"/><path class="cls-2" d="M159.82,112c.21-2.85.33-5.16.34-6.92h1.21l-.09,1.37c.11-.19.2-.34.27-.44a2.46,2.46,0,0,1,.27-.33,2.78,2.78,0,0,1,.41-.32,1.92,1.92,0,0,1,.54-.24,3.71,3.71,0,0,1,.64-.15,4.87,4.87,0,0,1,.65,0,4.35,4.35,0,0,1,1.14.15,2,2,0,0,1,.89.46,1.61,1.61,0,0,1,.48.73,3,3,0,0,1,.12.87c0,.06,0,.17,0,.34s0,.39,0,.66l-.13,2.87c0,.27,0,.61,0,1h-1.22c.05-.55.08-1.08.11-1.59l.09-1.59c0-.55,0-1,0-1.24a1.9,1.9,0,0,0-.21-1,1.28,1.28,0,0,0-.65-.55,2.54,2.54,0,0,0-1-.2,2.41,2.41,0,0,0-1.36.38,2.29,2.29,0,0,0-.81,1,5,5,0,0,0-.28,1.35c-.07.72-.11,1.86-.14,3.41h-1.23Z"/><path class="cls-2" d="M171.94,112l.13-1.83.16-3.4.07-2.86c0-.58,0-1,0-1.24l1.36,0,1,0h.93a6.92,6.92,0,0,1,1.16.09,2.1,2.1,0,0,1,.93.4,2,2,0,0,1,.61.74,2.26,2.26,0,0,1,.2,1,2.91,2.91,0,0,1-.16,1,2.49,2.49,0,0,1-.45.79,2.35,2.35,0,0,1-.71.58,2.83,2.83,0,0,1-.78.28,7.69,7.69,0,0,1-.86.13l1.2,1.92,1.24,1.91.38.59H177l-.49-.93c-.1-.19-.2-.36-.3-.54l-.33-.58-1.55-2.52c-.06-.1-.17-.27-.31-.53a4.77,4.77,0,0,0,.93.1,3.34,3.34,0,0,0,1.24-.23,1.76,1.76,0,0,0,.86-.7,1.89,1.89,0,0,0,.3-1,1.87,1.87,0,0,0-.09-.59,1.1,1.1,0,0,0-.31-.45,1.61,1.61,0,0,0-.41-.27,2.51,2.51,0,0,0-.52-.12,4.73,4.73,0,0,0-.67,0h-1.77c-.14,3.07-.23,5.88-.26,8.45h-1.33Z"/><path class="cls-2" d="M179.87,112l.13-1.9.24-5.55,0-1.08c0-.34,0-.61,0-.8h1.64l.74,1.21,4.52,6.81.29-8h1.21l-.15,2.4-.18,4.21-.08,2.72h-1.62l-.63-1L181.38,104q0,.39-.06,1.2l-.19,4.84,0,1.9h-1.22Z"/><path class="cls-2" d="M190.43,112l.14-1.9.23-5.55,0-1.08c0-.34,0-.61,0-.8h1.64l.74,1.21,4.52,6.81.29-8h1.21l-.15,2.4-.19,4.21-.08,2.72H197.2l-.62-1L191.94,104c0,.26,0,.66-.05,1.2l-.19,4.84,0,1.9h-1.23Z"/><path class="cls-2" d="M204.8,106.16c0-.2.08-.5.13-.89a11.57,11.57,0,0,1,1.42-.29,9.61,9.61,0,0,1,1.18-.08,5.27,5.27,0,0,1,1.15.12,2.19,2.19,0,0,1,.89.36,1.24,1.24,0,0,1,.48.58,2.3,2.3,0,0,1,.11.71c0,.31,0,.84-.07,1.58s-.08,1.42-.11,2,0,1.19,0,1.68h-1.22l.15-1.86.1-2.21-.36.26a1.71,1.71,0,0,1-.27.14l-.33.12-.71.2-.74.22a4.31,4.31,0,0,0-.74.3,1.88,1.88,0,0,0-.46.33,1,1,0,0,0-.26.36,1.18,1.18,0,0,0-.09.46,1,1,0,0,0,.22.64,1.12,1.12,0,0,0,.55.38,2.62,2.62,0,0,0,.79.1,4.22,4.22,0,0,0,.6,0,4.5,4.5,0,0,0,.85-.2,5.33,5.33,0,0,0-.22.81c-.34.06-.61.1-.82.12s-.4,0-.59,0a4,4,0,0,1-1.46-.21,1.59,1.59,0,0,1-.79-.67,1.93,1.93,0,0,1-.26-1,1.7,1.7,0,0,1,.09-.57,1.76,1.76,0,0,1,.25-.47,2.07,2.07,0,0,1,.45-.43,3.1,3.1,0,0,1,.61-.35c.21-.09.46-.18.74-.27l1.36-.36c.2,0,.37-.09.51-.13l.38-.15a1.35,1.35,0,0,0,.29-.16,1.14,1.14,0,0,0,.22-.22.91.91,0,0,0,.15-.27.87.87,0,0,0,0-.28.8.8,0,0,0-.22-.57,1.12,1.12,0,0,0-.57-.33,2.9,2.9,0,0,0-.83-.1,5.67,5.67,0,0,0-.91.07,8,8,0,0,0-.81.17C205.42,105.93,205.13,106,204.8,106.16Z"/><path class="cls-2" d="M211.8,112c.09-1.4.18-3.06.27-5,.06-1.4.1-2.84.13-4.34h1.24l-.21,4-.15,4.06,0,1.25H211.8Z"/><path class="cls-2" d="M215.36,114a13.55,13.55,0,0,0,1.52.37,7.5,7.5,0,0,0,1.1.09,3.32,3.32,0,0,0,1.06-.16,2.26,2.26,0,0,0,.69-.36,1.78,1.78,0,0,0,.36-.48,3.4,3.4,0,0,0,.25-1c0-.33.07-1,.1-1.94a4.68,4.68,0,0,1-.3.5,2.13,2.13,0,0,1-.36.39,2.25,2.25,0,0,1-.53.36,2.67,2.67,0,0,1-.69.25,3.75,3.75,0,0,1-.82.09,3.68,3.68,0,0,1-1.17-.17,2.49,2.49,0,0,1-1-.56,2.67,2.67,0,0,1-.65-1,3.67,3.67,0,0,1-.22-1.28,4.74,4.74,0,0,1,.33-1.76,3.53,3.53,0,0,1,1-1.39,3.8,3.8,0,0,1,1.44-.8,6.57,6.57,0,0,1,1.76-.23,16,16,0,0,1,2.62.28l-.07.84-.21,3.84c0,.08,0,.54,0,1.39l0,1.42a5.2,5.2,0,0,1-.13.79,2.47,2.47,0,0,1-.22.53,1.84,1.84,0,0,1-.3.43,2.06,2.06,0,0,1-.42.35,2.45,2.45,0,0,1-.51.26,4.24,4.24,0,0,1-.8.19,5.84,5.84,0,0,1-.93.08,11.38,11.38,0,0,1-1.31-.07,10.43,10.43,0,0,1-1.45-.26l0-.37C215.41,114.5,215.39,114.3,215.36,114Zm5.26-8.07a7.48,7.48,0,0,0-1.43-.15,4.43,4.43,0,0,0-1.24.16,2.48,2.48,0,0,0-1,.57,2.83,2.83,0,0,0-.75,1.08,3.8,3.8,0,0,0-.26,1.38,3,3,0,0,0,.24,1.21,1.71,1.71,0,0,0,.75.82,2.42,2.42,0,0,0,1.15.28,2.35,2.35,0,0,0,1-.2,2.1,2.1,0,0,0,.77-.6,2.66,2.66,0,0,0,.52-1,5.42,5.42,0,0,0,.2-1.14C220.55,108,220.58,107.16,220.62,105.92Z"/><path class="cls-2" d="M226.82,104.9a4.41,4.41,0,0,1,1.37.21,2.8,2.8,0,0,1,1.84,1.77,4,4,0,0,1,.25,1.43,4.71,4.71,0,0,1-.26,1.55,3.7,3.7,0,0,1-.74,1.27,2.83,2.83,0,0,1-1.16.76,4.46,4.46,0,0,1-1.48.24,4.52,4.52,0,0,1-1.38-.21,3,3,0,0,1-1.12-.69,2.92,2.92,0,0,1-.72-1.14,3.91,3.91,0,0,1-.25-1.41,4.36,4.36,0,0,1,.45-2,3,3,0,0,1,1.33-1.34A4.15,4.15,0,0,1,226.82,104.9Zm0,.87a2.49,2.49,0,0,0-1.28.35,2,2,0,0,0-.86,1,4,4,0,0,0-.28,1.53,3.38,3.38,0,0,0,.23,1.3,2,2,0,0,0,.76.93,2.27,2.27,0,0,0,1.29.36,2.65,2.65,0,0,0,1-.18,1.94,1.94,0,0,0,.8-.58,2.59,2.59,0,0,0,.5-1,4.51,4.51,0,0,0,.16-1.23,3.77,3.77,0,0,0-.16-1.13,1.94,1.94,0,0,0-.5-.84,2,2,0,0,0-.77-.45A2.8,2.8,0,0,0,226.79,105.77Z"/><path class="cls-2" d="M231.6,112c.16-2.63.25-4.72.25-6.29v-.63H233l-.05,1.13a4.79,4.79,0,0,1,.45-.64,1.66,1.66,0,0,1,.44-.35,2.18,2.18,0,0,1,.56-.22,2.67,2.67,0,0,1,.64-.08,2.22,2.22,0,0,1,.57.07c0,.3,0,.64.05,1a2.84,2.84,0,0,0-.76-.11,1.9,1.9,0,0,0-.73.13,1.69,1.69,0,0,0-.57.4,2.27,2.27,0,0,0-.42.65,2.73,2.73,0,0,0-.21.78,17.31,17.31,0,0,0-.12,1.74c0,.62,0,1.27,0,2V112H231.6Z"/><path class="cls-2" d="M236.55,112l.12-1.72.13-2.94.06-2.26h1.24c0,.71-.1,1.45-.14,2.23s-.07,1.63-.1,2.55,0,1.63,0,2.14h-1.27Zm.31-8.41c0-.43,0-.75,0-1h1.32c0,.14,0,.46,0,1h-1.3Z"/><path class="cls-2" d="M243.16,111.08c0,.23-.11.52-.16.89a7.44,7.44,0,0,1-.74.14,4.79,4.79,0,0,1-.52,0,2.65,2.65,0,0,1-1-.15,1.14,1.14,0,0,1-.57-.49,1.75,1.75,0,0,1-.2-.92v-.27c0-.13,0-.57.07-1.33l.17-3.06h-.91c0-.19,0-.47.05-.82h.93c0-.26,0-.69.07-1.31l1.08-.23c0,.67,0,1.19,0,1.54h1.9a7.75,7.75,0,0,0,0,.82h-1.9l-.18,3.85v.29a1.83,1.83,0,0,0,.12.75.72.72,0,0,0,.33.36,1.12,1.12,0,0,0,.47.11l.37,0A6.91,6.91,0,0,0,243.16,111.08Z"/><path class="cls-2" d="M244.2,112l.17-3,.16-4.05,0-2.31h1.23l-.15,2.38-.06,1.42a4.61,4.61,0,0,1,.29-.47,2.33,2.33,0,0,1,.3-.35,2.2,2.2,0,0,1,.4-.3,2.45,2.45,0,0,1,.46-.21,3.43,3.43,0,0,1,.6-.16,4.56,4.56,0,0,1,.75-.06,5,5,0,0,1,1.11.13,2.4,2.4,0,0,1,.91.43,1.52,1.52,0,0,1,.52.72,2.75,2.75,0,0,1,.14.85c0,.11,0,.26,0,.45s0,.61-.05,1l-.12,2.51c0,.27,0,.61,0,1h-1.26c0-.49.1-1.26.17-2.32s.1-1.79.1-2.2a1.87,1.87,0,0,0-.2-.9A1.28,1.28,0,0,0,249,106a2.61,2.61,0,0,0-1-.19,2.76,2.76,0,0,0-1,.16,1.86,1.86,0,0,0-1.14,1,3.63,3.63,0,0,0-.26.81,15.32,15.32,0,0,0-.17,1.81c0,.46,0,1.24-.07,2.35H244.2Z"/><path class="cls-2" d="M252.66,112l.08-1c0-.21,0-.54,0-1l.16-4.16c0-.34,0-.6,0-.78h1.16l-.06,1.27a4.51,4.51,0,0,1,.42-.61,1.84,1.84,0,0,1,.49-.41,2.6,2.6,0,0,1,.7-.3,3.18,3.18,0,0,1,.82-.11,2.25,2.25,0,0,1,.58.07,2.76,2.76,0,0,1,.53.19,2.19,2.19,0,0,1,.42.28,1.74,1.74,0,0,1,.28.34,2.76,2.76,0,0,1,.21.54,2.48,2.48,0,0,1,1-1.1,3.1,3.1,0,0,1,1.4-.32,2.85,2.85,0,0,1,1,.16,1.68,1.68,0,0,1,.73.45,1.59,1.59,0,0,1,.37.61,2.35,2.35,0,0,1,.09.64c0,.22,0,.55-.05,1s-.07,1.1-.11,2-.06,1.64-.06,2.23h-1.22c0-.61.09-1.28.13-2l.09-1.69c0-.41,0-.76,0-1.06a2,2,0,0,0-.08-.62,1.05,1.05,0,0,0-.27-.4,1.23,1.23,0,0,0-.44-.28,1.91,1.91,0,0,0-.61-.09,2.1,2.1,0,0,0-.51.06,2,2,0,0,0-.42.19,1.57,1.57,0,0,0-.4.32,1.6,1.6,0,0,0-.3.42,2.51,2.51,0,0,0-.22.57,6,6,0,0,0-.14,1c0,.42-.06,1-.07,1.67l-.06,1.91h-1.22c.05-.56.09-1.14.11-1.74l.08-1.65c0-.51,0-1,0-1.31a2,2,0,0,0-.07-.59,1.05,1.05,0,0,0-.26-.44,1.1,1.1,0,0,0-.45-.31,1.59,1.59,0,0,0-.59-.11,1.78,1.78,0,0,0-.65.12,2.14,2.14,0,0,0-.57.35,2.25,2.25,0,0,0-.43.57,3.34,3.34,0,0,0-.28.89,15.85,15.85,0,0,0-.16,1.92c0,.91-.05,1.68-.05,2.3h-1.23Z"/><path class="cls-2" d="M16,135.65h1.4v9.93H16Zm.72,4.75h3.18a1.46,1.46,0,0,0,.79-.21,1.35,1.35,0,0,0,.53-.6,2.23,2.23,0,0,0,0-1.8,1.35,1.35,0,0,0-.53-.6,1.38,1.38,0,0,0-.79-.22H16.69v-1.32h3.13a3.17,3.17,0,0,1,1.57.37,2.7,2.7,0,0,1,1.05,1.07,3.64,3.64,0,0,1,0,3.2,2.61,2.61,0,0,1-1.05,1.06,3.17,3.17,0,0,1-1.57.38H16.69Z"/><path class="cls-2" d="M23.46,138.49h1.42l2.18,6.16-.77,1.52Zm6.28,0-3,8.76a2,2,0,0,1-.43.76,1.51,1.51,0,0,1-.66.41,3.28,3.28,0,0,1-.95.12H24.4V147.2h.28a1.14,1.14,0,0,0,.62-.15,1.3,1.3,0,0,0,.39-.54l2.63-8Z"/><path class="cls-2" d="M30.56,138.49h3.2v1.26h-3.2Zm1.13,6.65a2.14,2.14,0,0,1-.4-1.4v-7.32h1.4v7.33a.64.64,0,0,0,.1.4.34.34,0,0,0,.3.14h.67v1.33H33A1.56,1.56,0,0,1,31.69,145.14Z"/><path class="cls-2" d="M35.67,135.65h1.4v9.93h-1.4ZM40,141.28a1.63,1.63,0,0,0-.39-1.16,1.44,1.44,0,0,0-1.09-.41,1.46,1.46,0,0,0-1.06.36,1.31,1.31,0,0,0-.37,1l-.14-1.36a2.48,2.48,0,0,1,.85-1,2.14,2.14,0,0,1,1.18-.34,2.19,2.19,0,0,1,1.78.75,3.22,3.22,0,0,1,.64,2.14v4.3H40Z"/><path class="cls-2" d="M44.64,145.32a2.36,2.36,0,0,1-1-1,3.71,3.71,0,0,1-.35-1.67v-1.16a3.65,3.65,0,0,1,.35-1.65,2.42,2.42,0,0,1,1-1,3.32,3.32,0,0,1,1.58-.35,3.38,3.38,0,0,1,1.58.35,2.47,2.47,0,0,1,1,1,3.65,3.65,0,0,1,.34,1.65v1.18a3.67,3.67,0,0,1-.34,1.66,2.45,2.45,0,0,1-1,1,3.16,3.16,0,0,1-1.58.37A3.1,3.1,0,0,1,44.64,145.32Zm2.71-1.42a1.9,1.9,0,0,0,.4-1.28v-1.18a1.9,1.9,0,0,0-.4-1.28,1.45,1.45,0,0,0-1.13-.45,1.42,1.42,0,0,0-1.13.45,1.86,1.86,0,0,0-.41,1.28v1.18a1.86,1.86,0,0,0,.41,1.28,1.39,1.39,0,0,0,1.13.46A1.42,1.42,0,0,0,47.35,143.9Z"/><path class="cls-2" d="M51.12,138.49h1.4v7.09h-1.4Zm4.31,2.79a1.63,1.63,0,0,0-.39-1.16,1.44,1.44,0,0,0-1.09-.41,1.46,1.46,0,0,0-1.06.36,1.38,1.38,0,0,0-.37,1l-.14-1.36a2.44,2.44,0,0,1,.85-1,2.07,2.07,0,0,1,1.18-.35,2.19,2.19,0,0,1,1.78.75,3.27,3.27,0,0,1,.64,2.14v4.3h-1.4Z"/><path class="cls-2" d="M58.71,144.12h1.46v2.22l-1.46,1.51Z"/><path class="cls-2" d="M66,135.64h1.4v9.94H66Zm.61,4.41H70a1.3,1.3,0,0,0,.71-.19,1.24,1.24,0,0,0,.47-.54,1.89,1.89,0,0,0,.17-.81,1.86,1.86,0,0,0-.17-.81,1.19,1.19,0,0,0-.47-.54A1.28,1.28,0,0,0,70,137H66.62v-1.32H70a3.18,3.18,0,0,1,1.51.35,2.52,2.52,0,0,1,1,1,3.35,3.35,0,0,1,0,3,2.54,2.54,0,0,1-1,1,3.13,3.13,0,0,1-1.5.35H66.62Zm2.71,1,1.39-.31,2.54,4.82H71.6Z"/><path class="cls-2" d="M75.14,135.65H76.4l4.86,7.68-.16.18v-7.86h1.38v9.93H81.2L76.36,138l.16-.18v7.75H75.14Z"/><path class="cls-2" d="M84.94,135.65h1.27l4.86,7.68-.17.18v-7.86h1.38v9.93H91L86.16,138l.16-.18v7.75H84.94Z"/></g></g></svg>