<svg xmlns="http://www.w3.org/2000/svg" viewBox="0 0 285.22 158.25"><defs><style>.cls-1{fill:#fff;stroke:#231f20;stroke-miterlimit:10;stroke-width:2px;}.cls-2{font-size:23px;font-family:ErasITC-Bold, Eras Bold ITC;font-weight:700;}.cls-2,.cls-3{fill:#231f20;}</style></defs><g id="Layer_2" data-name="Layer 2"><g id="Layer_1-2" data-name="Layer 1"><rect class="cls-1" x="1" y="1" width="283.22" height="156.25"/><text class="cls-2" transform="translate(11.57 34.72)">Google Stock Price <tspan x="0" y="27.6">Prediction</tspan></text><path class="cls-3" d="M14.42,95.18l1.25-2.35,3.17-6.2.37-.78H20.8L22,89.2l2.19,6H22.79c-.12-.43-.33-1.07-.61-1.9s-.53-1.5-.72-2H17.72l-1,2-.87,1.87H14.42Zm3.7-4.82H21.2l-1.27-3.61Z"/><path class="cls-3" d="M28.44,95.05l-.05-.5a4.75,4.75,0,0,0-.05-.52,4.83,4.83,0,0,0,1.94.46,2.08,2.08,0,0,0,.79-.13,1,1,0,0,0,.48-.36.87.87,0,0,0,.16-.5,1,1,0,0,0,0-.29,1.16,1.16,0,0,0-.14-.27,2.12,2.12,0,0,0-.26-.3l-.73-.6-.83-.69a3.94,3.94,0,0,1-.49-.52,1.85,1.85,0,0,1-.29-.53,1.4,1.4,0,0,1-.1-.54,1.43,1.43,0,0,1,.28-.84,1.63,1.63,0,0,1,.8-.62,3.52,3.52,0,0,1,1.23-.2,8.61,8.61,0,0,1,1.73.19c0,.35,0,.68.06,1A3.92,3.92,0,0,0,31.42,89a2.56,2.56,0,0,0-.75.11,1,1,0,0,0-.5.31.74.74,0,0,0-.16.47,1.06,1.06,0,0,0,0,.31,1.21,1.21,0,0,0,.2.33,2.18,2.18,0,0,0,.34.34c.13.12.39.33.78.65a9.52,9.52,0,0,1,.82.69,3.18,3.18,0,0,1,.37.47,1.85,1.85,0,0,1,.23.47,1.61,1.61,0,0,1,.07.49,1.51,1.51,0,0,1-.28.88,1.77,1.77,0,0,1-.85.64,3.31,3.31,0,0,1-1.25.23c-.2,0-.43,0-.69,0l-.68-.09C28.94,95.18,28.71,95.12,28.44,95.05Z"/><path class="cls-3" d="M34.35,95.18l.17-3,.16-4,0-2.31H36l-.15,2.38-.06,1.42a4.61,4.61,0,0,1,.29-.47,2.33,2.33,0,0,1,.3-.35,2.2,2.2,0,0,1,.4-.3,2.45,2.45,0,0,1,.46-.21,3.43,3.43,0,0,1,.6-.16,4.56,4.56,0,0,1,.75-.06,5,5,0,0,1,1.11.13,2.4,2.4,0,0,1,.91.43,1.52,1.52,0,0,1,.52.72,2.75,2.75,0,0,1,.14.85c0,.11,0,.26,0,.45s0,.61-.05,1L41,94.18c0,.27,0,.61,0,1H39.76c.05-.49.1-1.26.17-2.32s.1-1.79.1-2.2a1.87,1.87,0,0,0-.2-.9,1.28,1.28,0,0,0-.65-.55,2.61,2.61,0,0,0-1-.19,2.76,2.76,0,0,0-1,.16,2,2,0,0,0-.69.4,1.81,1.81,0,0,0-.45.63,3.63,3.63,0,0,0-.26.81,15.32,15.32,0,0,0-.17,1.81c0,.46,0,1.24-.07,2.35H34.35Z"/><path class="cls-3" d="M46.27,88.1a4.41,4.41,0,0,1,1.37.21,2.8,2.8,0,0,1,1.84,1.77,4,4,0,0,1,.25,1.43,4.82,4.82,0,0,1-.26,1.56,3.92,3.92,0,0,1-.74,1.26,2.83,2.83,0,0,1-1.16.76,4.47,4.47,0,0,1-2.86,0,3,3,0,0,1-1.84-1.83,4,4,0,0,1-.25-1.41,4.36,4.36,0,0,1,.45-2,2.93,2.93,0,0,1,1.33-1.34A4.15,4.15,0,0,1,46.27,88.1Zm0,.87a2.49,2.49,0,0,0-1.28.35,2,2,0,0,0-.86,1.05,4,4,0,0,0-.28,1.53,3.38,3.38,0,0,0,.23,1.3,2,2,0,0,0,.76.93,2.27,2.27,0,0,0,1.29.36,2.65,2.65,0,0,0,1-.18,1.91,1.91,0,0,0,.79-.57,2.58,2.58,0,0,0,.51-1,4.51,4.51,0,0,0,.16-1.23,3.77,3.77,0,0,0-.16-1.13,1.94,1.94,0,0,0-.5-.84,2,2,0,0,0-.77-.45A2.8,2.8,0,0,0,46.24,89Z"/><path class="cls-3" d="M51.05,95.18c.16-2.63.24-4.72.24-6.29v-.63h1.15l0,1.13a4,4,0,0,1,.45-.63,1.51,1.51,0,0,1,.44-.36,2.26,2.26,0,0,1,.55-.22,2.82,2.82,0,0,1,.65-.08,2.22,2.22,0,0,1,.57.07c0,.3,0,.64.05,1a2.84,2.84,0,0,0-.76-.11,1.9,1.9,0,0,0-.73.13,1.69,1.69,0,0,0-.57.4,1.92,1.92,0,0,0-.42.65,2.44,2.44,0,0,0-.21.78,17.31,17.31,0,0,0-.12,1.74c0,.62,0,1.27,0,2v.45H51.05Z"/><path class="cls-3" d="M59.46,94.28c-.05.23-.11.52-.17.89a6.94,6.94,0,0,1-.74.14l-.51,0a2.69,2.69,0,0,1-1-.16,1.18,1.18,0,0,1-.57-.49,1.85,1.85,0,0,1-.19-.92V93.5c0-.13,0-.57.07-1.33l.17-3.06h-.91c0-.19,0-.47,0-.82h.93c0-.26,0-.69.07-1.31.43-.08.79-.16,1.09-.23,0,.67,0,1.19-.06,1.54h1.9c0,.28,0,.56,0,.82H57.66L57.48,93v.29a2,2,0,0,0,.11.75.75.75,0,0,0,.34.36,1.12,1.12,0,0,0,.47.11l.37,0C58.89,94.42,59.12,94.37,59.46,94.28Z"/><path class="cls-3" d="M63.82,98.27c.09-1.17.18-2.77.26-4.79s.12-3.68.13-5c.75-.16,1.35-.26,1.79-.32a10.2,10.2,0,0,1,1.35-.09,4.82,4.82,0,0,1,1.86.34,2.47,2.47,0,0,1,1.22,1.19,4.18,4.18,0,0,1,.44,1.92A4.92,4.92,0,0,1,70.66,93,3.7,3.7,0,0,1,70,94.23a2.8,2.8,0,0,1-1,.83,3.2,3.2,0,0,1-1.33.28,3.34,3.34,0,0,1-.84-.11,2.62,2.62,0,0,1-.7-.28,2,2,0,0,1-.5-.38,4.88,4.88,0,0,1-.49-.64l-.08,2.71q0,.66,0,1v.67H63.82Zm1.56-8.94,0,.51,0,.72c0,.37,0,.67,0,.91s0,.4,0,.49a4.22,4.22,0,0,0,.1,1,1.89,1.89,0,0,0,.43.83,2.17,2.17,0,0,0,.75.56,2.13,2.13,0,0,0,2-.16,2.35,2.35,0,0,0,.82-1.06,4.1,4.1,0,0,0,.29-1.54,3.1,3.1,0,0,0-.31-1.45,1.91,1.91,0,0,0-.82-.88A2.53,2.53,0,0,0,67.38,89,6.07,6.07,0,0,0,65.38,89.33Z"/><path class="cls-3" d="M72.19,95.18c.16-2.63.24-4.72.24-6.29v-.63h1.16l0,1.13a3.49,3.49,0,0,1,.44-.63,1.66,1.66,0,0,1,.44-.36,2.33,2.33,0,0,1,.56-.22,2.75,2.75,0,0,1,.65-.08,2.1,2.1,0,0,1,.56.07c0,.3,0,.64,0,1a2.73,2.73,0,0,0-.76-.11,1.85,1.85,0,0,0-.72.13,1.73,1.73,0,0,0-.58.4,2.27,2.27,0,0,0-.42.65,3.1,3.1,0,0,0-.21.78c0,.32-.08.9-.11,1.74,0,.62,0,1.27,0,2v.45H72.19Z"/><path class="cls-3" d="M80.55,88.1a4.4,4.4,0,0,1,1.36.21A2.77,2.77,0,0,1,83,89a2.93,2.93,0,0,1,.72,1.12A4.25,4.25,0,0,1,84,91.51a4.56,4.56,0,0,1-.26,1.56A3.59,3.59,0,0,1,83,94.33a2.7,2.7,0,0,1-1.16.76,4.44,4.44,0,0,1-2.85,0,3,3,0,0,1-1.13-.69,3.17,3.17,0,0,1-.72-1.14,4.18,4.18,0,0,1-.24-1.41,4.36,4.36,0,0,1,.45-2,3,3,0,0,1,1.32-1.34A4.19,4.19,0,0,1,80.55,88.1Zm0,.87a2.43,2.43,0,0,0-1.27.35,2.07,2.07,0,0,0-.87,1.05,4,4,0,0,0-.28,1.53,3.58,3.58,0,0,0,.23,1.3,2,2,0,0,0,.77.93,2.22,2.22,0,0,0,1.28.36,2.61,2.61,0,0,0,1-.18,1.94,1.94,0,0,0,.8-.57,2.44,2.44,0,0,0,.5-1,4.51,4.51,0,0,0,.17-1.23,3.77,3.77,0,0,0-.17-1.13,1.77,1.77,0,0,0-.5-.84,2,2,0,0,0-.76-.45A2.87,2.87,0,0,0,80.51,89Z"/><path class="cls-3" d="M88.79,88.1a4.46,4.46,0,0,1,1.37.21,2.8,2.8,0,0,1,1.12.65A2.71,2.71,0,0,1,92,90.08a4,4,0,0,1,.25,1.43A4.82,4.82,0,0,1,92,93.07a3.92,3.92,0,0,1-.74,1.26,2.83,2.83,0,0,1-1.16.76,4.47,4.47,0,0,1-2.86,0,3,3,0,0,1-1.84-1.83,4,4,0,0,1-.25-1.41,4.36,4.36,0,0,1,.45-2,2.93,2.93,0,0,1,1.33-1.34A4.12,4.12,0,0,1,88.79,88.1Zm0,.87a2.46,2.46,0,0,0-1.28.35,2,2,0,0,0-.86,1.05,4,4,0,0,0-.28,1.53,3.38,3.38,0,0,0,.23,1.3,2,2,0,0,0,.76.93,2.27,2.27,0,0,0,1.29.36,2.56,2.56,0,0,0,1-.18,1.88,1.88,0,0,0,.8-.57,2.58,2.58,0,0,0,.51-1,4.51,4.51,0,0,0,.16-1.23,3.77,3.77,0,0,0-.16-1.13,1.94,1.94,0,0,0-.5-.84,2,2,0,0,0-.77-.45A2.8,2.8,0,0,0,88.76,89Z"/><path class="cls-3" d="M93.77,95.18l.08-1.25L94,89.12h-.85c0-.22,0-.51,0-.85h.89c0-.42,0-.75,0-1a3.48,3.48,0,0,1,.08-.61,1.31,1.31,0,0,1,.22-.46,1.33,1.33,0,0,1,.39-.34,1.68,1.68,0,0,1,.58-.23,3.45,3.45,0,0,1,.76-.07,5.68,5.68,0,0,1,1.32.17c0,.27,0,.56.07.87a3.72,3.72,0,0,0-1.19-.23,1.41,1.41,0,0,0-.47.07,1,1,0,0,0-.36.18.74.74,0,0,0-.21.3,1.35,1.35,0,0,0-.12.43,5.21,5.21,0,0,0,0,.6v.29h1.9c0,.2,0,.48-.06.85H95.19l-.12,3.49L95,95.18H93.77Z"/><path class="cls-3" d="M104.66,88.1a4.41,4.41,0,0,1,1.37.21,2.74,2.74,0,0,1,1.12.65,2.83,2.83,0,0,1,.73,1.12,4.25,4.25,0,0,1,.24,1.43,4.82,4.82,0,0,1-.26,1.56,3.75,3.75,0,0,1-.74,1.26,2.76,2.76,0,0,1-1.16.76,4.45,4.45,0,0,1-1.47.25,4.55,4.55,0,0,1-1.39-.22,3,3,0,0,1-1.12-.69,2.92,2.92,0,0,1-.72-1.14,4,4,0,0,1-.25-1.41,4.36,4.36,0,0,1,.45-2,3,3,0,0,1,1.33-1.34A4.15,4.15,0,0,1,104.66,88.1Zm0,.87a2.49,2.49,0,0,0-1.28.35,2.06,2.06,0,0,0-.86,1.05,4,4,0,0,0-.28,1.53,3.58,3.58,0,0,0,.23,1.3,2,2,0,0,0,.77.93,2.22,2.22,0,0,0,1.28.36,2.65,2.65,0,0,0,1-.18,2,2,0,0,0,.8-.57,2.72,2.72,0,0,0,.5-1,4.51,4.51,0,0,0,.17-1.23,3.77,3.77,0,0,0-.17-1.13,1.85,1.85,0,0,0-.5-.84,2,2,0,0,0-.76-.45A2.91,2.91,0,0,0,104.63,89Z"/><path class="cls-3" d="M109.65,95.18l.07-1.25.19-4.81h-.86c0-.22,0-.51.06-.85H110c0-.42,0-.75,0-1a2.71,2.71,0,0,1,.09-.61,1.5,1.5,0,0,1,.21-.46,1.33,1.33,0,0,1,.39-.34,1.76,1.76,0,0,1,.58-.23,3.51,3.51,0,0,1,.76-.07,5.68,5.68,0,0,1,1.32.17c0,.27,0,.56.07.87a3.66,3.66,0,0,0-1.18-.23,1.43,1.43,0,0,0-.48.07,1,1,0,0,0-.35.18.87.87,0,0,0-.22.3,1.35,1.35,0,0,0-.12.43,5.21,5.21,0,0,0,0,.6v.29H113c0,.2,0,.48-.07.85h-1.83l-.12,3.49-.06,2.57h-1.23Z"/><path class="cls-3" d="M122.18,94.15c0,.07,0,.2-.07.4s-.07.39-.1.59a6.8,6.8,0,0,1-1,.15c-.31,0-.58,0-.81,0a4.51,4.51,0,0,1-1.36-.2,2.61,2.61,0,0,1-1.09-.66,2.79,2.79,0,0,1-.69-1.12,4.78,4.78,0,0,1-.21-1.42,5.1,5.1,0,0,1,.35-1.91,3,3,0,0,1,1.12-1.42,3.74,3.74,0,0,1,2.09-.51,7.07,7.07,0,0,1,1.89.26c0,.39,0,.71.08,1a9,9,0,0,0-1.06-.28,5.5,5.5,0,0,0-.76-.07,2.51,2.51,0,0,0-1.08.22,2.25,2.25,0,0,0-.81.62,2.55,2.55,0,0,0-.48,1,4.28,4.28,0,0,0-.15,1.13,3.54,3.54,0,0,0,.24,1.35,1.75,1.75,0,0,0,.84.9,2.82,2.82,0,0,0,1.34.32A5.42,5.42,0,0,0,122.18,94.15Z"/><path class="cls-3" d="M127.15,88.1a4.4,4.4,0,0,1,1.36.21,2.77,2.77,0,0,1,1.13.65,2.71,2.71,0,0,1,.72,1.12,4.26,4.26,0,0,1,.25,1.43,4.57,4.57,0,0,1-.27,1.56,3.59,3.59,0,0,1-.74,1.26,2.7,2.7,0,0,1-1.16.76,4.44,4.44,0,0,1-2.85,0,3.05,3.05,0,0,1-1.13-.69,3.17,3.17,0,0,1-.72-1.14,4.18,4.18,0,0,1-.24-1.41,4.36,4.36,0,0,1,.45-2,3,3,0,0,1,1.32-1.34A4.19,4.19,0,0,1,127.15,88.1Zm0,.87a2.44,2.44,0,0,0-1.28.35,2.07,2.07,0,0,0-.87,1.05,4.21,4.21,0,0,0-.28,1.53,3.58,3.58,0,0,0,.23,1.3,2,2,0,0,0,.77.93,2.22,2.22,0,0,0,1.28.36,2.61,2.61,0,0,0,1-.18,1.94,1.94,0,0,0,.8-.57,2.58,2.58,0,0,0,.51-1,4.93,4.93,0,0,0,.16-1.23,4.11,4.11,0,0,0-.16-1.13,1.87,1.87,0,0,0-.51-.84,2,2,0,0,0-.76-.45A2.85,2.85,0,0,0,127.12,89Z"/><path class="cls-3" d="M131.9,95.18q.33-4.28.35-6.92h1.21l-.09,1.37a4.77,4.77,0,0,1,.27-.44,2.46,2.46,0,0,1,.27-.33,2.78,2.78,0,0,1,.41-.32,1.92,1.92,0,0,1,.54-.24,3.71,3.71,0,0,1,.64-.15,4.74,4.74,0,0,1,.65-.05,4.22,4.22,0,0,1,1.13.15,2,2,0,0,1,.9.46,1.51,1.51,0,0,1,.47.73,3,3,0,0,1,.12.87v.34c0,.17,0,.39,0,.67l-.13,2.86c0,.27,0,.61,0,1h-1.21c0-.55.08-1.08.11-1.59l.09-1.59c0-.55,0-1,0-1.24a1.9,1.9,0,0,0-.21-1,1.28,1.28,0,0,0-.65-.55,2.58,2.58,0,0,0-1-.2,2.41,2.41,0,0,0-1.36.38,2.22,2.22,0,0,0-.81,1,5,5,0,0,0-.28,1.35c-.07.72-.12,1.86-.14,3.41H131.9Z"/><path class="cls-3" d="M145.48,94.15c0,.07,0,.2-.07.4s-.07.39-.1.59a6.8,6.8,0,0,1-1,.15c-.31,0-.58,0-.81,0a4.51,4.51,0,0,1-1.36-.2,2.64,2.64,0,0,1-1.1-.66,2.88,2.88,0,0,1-.68-1.12,4.79,4.79,0,0,1-.22-1.42,5.11,5.11,0,0,1,.36-1.91,3,3,0,0,1,1.12-1.42,3.7,3.7,0,0,1,2.08-.51,7.14,7.14,0,0,1,1.9.26c0,.39.05.71.07,1a8.13,8.13,0,0,0-1.06-.28,5.24,5.24,0,0,0-.76-.07,2.44,2.44,0,0,0-1.07.22,2.25,2.25,0,0,0-.81.62,2.29,2.29,0,0,0-.48,1,4.28,4.28,0,0,0-.15,1.13,3.54,3.54,0,0,0,.24,1.35,1.75,1.75,0,0,0,.84.9,2.79,2.79,0,0,0,1.34.32A5.52,5.52,0,0,0,145.48,94.15Z"/><path class="cls-3" d="M152.66,94.1c0,.25-.1.57-.16,1a10,10,0,0,1-1.14.23,7.73,7.73,0,0,1-1,.06,5.15,5.15,0,0,1-1.53-.21,2.66,2.66,0,0,1-1.17-.71,3.18,3.18,0,0,1-.7-1.17,4.75,4.75,0,0,1,.18-3.28,3.07,3.07,0,0,1,1.17-1.37,3.69,3.69,0,0,1,2-.5,3.9,3.9,0,0,1,1.19.18,2.37,2.37,0,0,1,.94.55,2.41,2.41,0,0,1,.58.92,3.22,3.22,0,0,1,.21,1.18,2.45,2.45,0,0,1,0,.48H148c0,.25,0,.44,0,.58a2.94,2.94,0,0,0,.3,1.32,2,2,0,0,0,.88.91,2.87,2.87,0,0,0,1.36.31A6.73,6.73,0,0,0,152.66,94.1Zm-4.6-3.26h4.07a3.81,3.81,0,0,0,0-.67,2.09,2.09,0,0,0-.18-.49,1.52,1.52,0,0,0-.35-.45A1.54,1.54,0,0,0,151,89a2,2,0,0,0-.67-.1,2.25,2.25,0,0,0-.74.11,2,2,0,0,0-.62.3,1.79,1.79,0,0,0-.46.45,1.91,1.91,0,0,0-.28.49A5.38,5.38,0,0,0,148.06,90.84Z"/><path class="cls-3" d="M154.29,98.27c.09-1.17.17-2.77.25-4.79s.13-3.68.14-5c.74-.16,1.34-.26,1.79-.32a10.2,10.2,0,0,1,1.35-.09,4.74,4.74,0,0,1,1.85.34,2.49,2.49,0,0,1,1.23,1.19,4.17,4.17,0,0,1,.43,1.92,5.27,5.27,0,0,1-.2,1.44,3.72,3.72,0,0,1-.63,1.24,2.77,2.77,0,0,1-1,.83,3.2,3.2,0,0,1-1.33.28,3.34,3.34,0,0,1-.84-.11,2.5,2.5,0,0,1-.7-.28,2,2,0,0,1-.5-.38,4.13,4.13,0,0,1-.49-.64l-.09,2.71c0,.44,0,.76,0,1v.67h-1.23Zm1.56-8.94,0,.51,0,.72c0,.37,0,.67,0,.91s0,.4,0,.49a4.21,4.21,0,0,0,.11,1,2,2,0,0,0,.42.83,2.38,2.38,0,0,0,.75.56,2.16,2.16,0,0,0,.89.19,2.09,2.09,0,0,0,1.17-.35,2.33,2.33,0,0,0,.81-1.06,3.92,3.92,0,0,0,.3-1.54,3.23,3.23,0,0,0-.31-1.45,1.92,1.92,0,0,0-.83-.88,2.49,2.49,0,0,0-1.17-.27A6,6,0,0,0,155.85,89.33Z"/><path class="cls-3" d="M166.17,94.28c0,.23-.11.52-.17.89a6.94,6.94,0,0,1-.74.14l-.52,0a2.67,2.67,0,0,1-1-.16,1.1,1.1,0,0,1-.57-.49,1.85,1.85,0,0,1-.2-.92s0-.14,0-.27,0-.57.07-1.33l.17-3.06h-.92c0-.19,0-.47.05-.82h.93c0-.26,0-.69.07-1.31.43-.08.79-.16,1.09-.23,0,.67-.05,1.19-.06,1.54h1.9c0,.28,0,.56,0,.82h-1.89L164.19,93v.29a2,2,0,0,0,.11.75.75.75,0,0,0,.34.36,1.12,1.12,0,0,0,.47.11l.37,0C165.6,94.42,165.83,94.37,166.17,94.28Z"/><path class="cls-3" d="M170.71,95.18l.06-.76c0-.14,0-.4,0-.77L171,89l.08-3.16h1.26c-.06.59-.12,1.42-.17,2.52a9.9,9.9,0,0,1,1.17-.21,7.07,7.07,0,0,1,.91-.06,4.9,4.9,0,0,1,1.51.22,2.42,2.42,0,0,1,1.09.73,3.08,3.08,0,0,1,.6,1.11,4.57,4.57,0,0,1,.18,1.29,5.11,5.11,0,0,1-.22,1.51,4,4,0,0,1-.64,1.29,2.65,2.65,0,0,1-1.06.83,3.58,3.58,0,0,1-1.36.26,3,3,0,0,1-.75-.09A2.67,2.67,0,0,1,173,95a2,2,0,0,1-.48-.34,2.15,2.15,0,0,1-.32-.38,3.13,3.13,0,0,1-.28-.53l0,1.42h-1.16Zm1.39-5.9c0,.76,0,1.26-.07,1.5s0,.54,0,.87a4.2,4.2,0,0,0,.25,1.65,1.76,1.76,0,0,0,.73.87,2.23,2.23,0,0,0,2.35-.07,2.24,2.24,0,0,0,.81-1.1,4.24,4.24,0,0,0,.28-1.54,2.73,2.73,0,0,0-.59-1.82A2.26,2.26,0,0,0,174,89a5.27,5.27,0,0,0-.87.07A10.73,10.73,0,0,0,172.1,89.28Z"/><path class="cls-3" d="M179.41,89.36c0-.2.08-.5.13-.89a11.57,11.57,0,0,1,1.42-.29,9.75,9.75,0,0,1,1.18-.08,5.2,5.2,0,0,1,1.15.12,2.3,2.3,0,0,1,.9.36,1.28,1.28,0,0,1,.47.58,2.3,2.3,0,0,1,.11.71c0,.31,0,.84-.07,1.58s-.08,1.42-.11,2,0,1.19,0,1.68h-1.23l.15-1.86.1-2.21-.36.26a1.71,1.71,0,0,1-.27.14l-.33.12-.71.21-.74.21a4.31,4.31,0,0,0-.74.3,1.88,1.88,0,0,0-.46.33,1,1,0,0,0-.26.36,1.18,1.18,0,0,0-.09.46,1,1,0,0,0,.22.64,1.12,1.12,0,0,0,.55.38,2.62,2.62,0,0,0,.79.1,4.26,4.26,0,0,0,.61,0,4.44,4.44,0,0,0,.84-.2,5.7,5.7,0,0,0-.22.81,7,7,0,0,1-.82.12l-.59,0a4,4,0,0,1-1.46-.22,1.59,1.59,0,0,1-.79-.67,1.93,1.93,0,0,1-.26-1,1.7,1.7,0,0,1,.09-.57,1.92,1.92,0,0,1,.25-.47,2.07,2.07,0,0,1,.45-.43,3.7,3.7,0,0,1,.61-.35c.21-.09.46-.18.74-.27s.74-.21,1.36-.36c.2,0,.37-.09.51-.13l.38-.14a1.17,1.17,0,0,0,.29-.17,1.12,1.12,0,0,0,.37-.49.65.65,0,0,0,.05-.27.81.81,0,0,0-.22-.58,1.08,1.08,0,0,0-.57-.33,2.9,2.9,0,0,0-.83-.1,5.67,5.67,0,0,0-.91.07c-.31,0-.58.11-.81.17S179.74,89.23,179.41,89.36Z"/><path class="cls-3" d="M186.09,95.05l-.05-.5a4.75,4.75,0,0,0,0-.52,4.83,4.83,0,0,0,1.94.46,2.08,2.08,0,0,0,.79-.13,1,1,0,0,0,.48-.36.87.87,0,0,0,.16-.5,1,1,0,0,0,0-.29,1.16,1.16,0,0,0-.14-.27,1.62,1.62,0,0,0-.26-.3l-.72-.6-.84-.69a3.94,3.94,0,0,1-.49-.52,1.85,1.85,0,0,1-.29-.53,1.4,1.4,0,0,1-.1-.54,1.43,1.43,0,0,1,.28-.84,1.63,1.63,0,0,1,.8-.62,3.52,3.52,0,0,1,1.23-.2,8.61,8.61,0,0,1,1.73.19c0,.35,0,.68.06,1a3.92,3.92,0,0,0-1.51-.31,2.56,2.56,0,0,0-.75.11,1,1,0,0,0-.5.31.74.74,0,0,0-.16.47,1.06,1.06,0,0,0,.05.31,1.21,1.21,0,0,0,.2.33,2.18,2.18,0,0,0,.34.34c.13.12.39.33.79.65s.66.54.81.69a3.18,3.18,0,0,1,.37.47,1.85,1.85,0,0,1,.23.47,1.61,1.61,0,0,1,.07.49,1.51,1.51,0,0,1-.28.88,1.77,1.77,0,0,1-.85.64,3.31,3.31,0,0,1-1.25.23c-.2,0-.43,0-.69,0l-.68-.09C186.59,95.18,186.36,95.12,186.09,95.05Z"/><path class="cls-3" d="M197.63,94.1c0,.25-.11.57-.16,1a10,10,0,0,1-1.14.23,7.73,7.73,0,0,1-1,.06,5.26,5.26,0,0,1-1.54-.21,2.63,2.63,0,0,1-1.16-.71,3,3,0,0,1-.7-1.17,4.75,4.75,0,0,1,.18-3.28,3.07,3.07,0,0,1,1.17-1.37,3.67,3.67,0,0,1,2-.5,3.94,3.94,0,0,1,1.19.18,2.44,2.44,0,0,1,.94.55,2.54,2.54,0,0,1,.58.92,3.22,3.22,0,0,1,.21,1.18,3.58,3.58,0,0,1,0,.48H193c0,.25,0,.44,0,.58a2.94,2.94,0,0,0,.3,1.32,2,2,0,0,0,.89.91,2.81,2.81,0,0,0,1.36.31A6.78,6.78,0,0,0,197.63,94.1ZM193,90.84h4.08a3.66,3.66,0,0,0-.06-.67,2,2,0,0,0-.17-.49,1.55,1.55,0,0,0-.36-.45A1.41,1.41,0,0,0,196,89a2.09,2.09,0,0,0-.67-.1,2.25,2.25,0,0,0-.74.11,2,2,0,0,0-.63.3,1.75,1.75,0,0,0-.45.45,1.91,1.91,0,0,0-.28.49A3.87,3.87,0,0,0,193,90.84Z"/><path class="cls-3" d="M205.86,95.2l-.56,0h-.59l.08-1.47a6.24,6.24,0,0,1-.38.59,2.26,2.26,0,0,1-.37.39,2,2,0,0,1-.5.33,2.48,2.48,0,0,1-.63.23,2.94,2.94,0,0,1-.74.09,3.05,3.05,0,0,1-1.24-.25,2.51,2.51,0,0,1-1-.68,2.62,2.62,0,0,1-.58-1,4.28,4.28,0,0,1-.18-1.24,4.36,4.36,0,0,1,.34-1.69,3.5,3.5,0,0,1,.94-1.38,3.57,3.57,0,0,1,1.39-.76,6.19,6.19,0,0,1,1.64-.21,9,9,0,0,1,1.42.14c0-.5,0-.91,0-1.24s0-.85,0-1.15h1.25l-.2,3.86-.14,4.43Zm-1-6.1a5.93,5.93,0,0,0-.7-.16l-.57,0a4,4,0,0,0-1.25.19,2.55,2.55,0,0,0-1.05.62,2.67,2.67,0,0,0-.7,1.09,3.57,3.57,0,0,0-.25,1.3,3.06,3.06,0,0,0,.23,1.18,1.93,1.93,0,0,0,.72.87,2.16,2.16,0,0,0,1.14.31,2.25,2.25,0,0,0,.71-.11,1.85,1.85,0,0,0,.59-.31,2.42,2.42,0,0,0,.49-.55,2.86,2.86,0,0,0,.37-.81,5.09,5.09,0,0,0,.17-1.09q0-.33.06-1.29Z"/><path class="cls-3" d="M211.06,98.27c.09-1.17.18-2.77.26-4.79s.12-3.68.13-5c.75-.16,1.34-.26,1.79-.32a10.2,10.2,0,0,1,1.35-.09,4.82,4.82,0,0,1,1.86.34,2.47,2.47,0,0,1,1.22,1.19,4.18,4.18,0,0,1,.44,1.92A4.92,4.92,0,0,1,217.9,93a3.72,3.72,0,0,1-.63,1.24,2.69,2.69,0,0,1-1,.83,3.2,3.2,0,0,1-1.33.28,3.34,3.34,0,0,1-.84-.11,2.62,2.62,0,0,1-.7-.28,2,2,0,0,1-.5-.38,4.13,4.13,0,0,1-.49-.64l-.08,2.71q0,.66,0,1v.67h-1.23Zm1.56-8.94,0,.51,0,.72c0,.37,0,.67,0,.91s0,.4,0,.49a4.22,4.22,0,0,0,.1,1,1.89,1.89,0,0,0,.43.83,2.23,2.23,0,0,0,.74.56,2.16,2.16,0,0,0,.89.19,2.09,2.09,0,0,0,1.17-.35,2.35,2.35,0,0,0,.82-1.06,4.1,4.1,0,0,0,.29-1.54,3.1,3.1,0,0,0-.31-1.45,1.87,1.87,0,0,0-.83-.88,2.46,2.46,0,0,0-1.17-.27A6.07,6.07,0,0,0,212.62,89.33Z"/><path class="cls-3" d="M219.42,95.18c.17-2.63.25-4.72.25-6.29v-.63h1.16l-.06,1.13a4,4,0,0,1,.45-.63,1.66,1.66,0,0,1,.44-.36,2.33,2.33,0,0,1,.56-.22,2.75,2.75,0,0,1,.65-.08,2.1,2.1,0,0,1,.56.07c0,.3,0,.64.05,1a2.73,2.73,0,0,0-.76-.11,1.81,1.81,0,0,0-.72.13,1.63,1.63,0,0,0-.58.4,2.27,2.27,0,0,0-.42.65,3.1,3.1,0,0,0-.21.78c-.05.32-.08.9-.11,1.74,0,.62,0,1.27,0,2v.45h-1.22Z"/><path class="cls-3" d="M227.79,88.1a4.4,4.4,0,0,1,1.36.21,2.84,2.84,0,0,1,1.13.65,2.93,2.93,0,0,1,.72,1.12,4.25,4.25,0,0,1,.24,1.43,4.56,4.56,0,0,1-.26,1.56,3.59,3.59,0,0,1-.74,1.26,2.7,2.7,0,0,1-1.16.76,4.44,4.44,0,0,1-2.85,0,3,3,0,0,1-1.13-.69,3,3,0,0,1-.72-1.14,4.19,4.19,0,0,1-.25-1.41,4.36,4.36,0,0,1,.46-2,3,3,0,0,1,1.32-1.34A4.19,4.19,0,0,1,227.79,88.1Zm0,.87a2.49,2.49,0,0,0-1.28.35,2.06,2.06,0,0,0-.86,1.05,4,4,0,0,0-.28,1.53,3.58,3.58,0,0,0,.23,1.3,2,2,0,0,0,.77.93,2.22,2.22,0,0,0,1.28.36,2.61,2.61,0,0,0,1-.18,2,2,0,0,0,.8-.57,2.57,2.57,0,0,0,.5-1,4.51,4.51,0,0,0,.17-1.23,3.77,3.77,0,0,0-.17-1.13,1.85,1.85,0,0,0-.5-.84,2,2,0,0,0-.76-.45A2.87,2.87,0,0,0,227.75,89Z"/><path class="cls-3" d="M234.12,88.26l-.14,3-.11,3.06q-.06,1.83-.12,2.28a3.13,3.13,0,0,1-.19.8,1.59,1.59,0,0,1-.26.41,1.5,1.5,0,0,1-.4.34,2,2,0,0,1-.56.24,3.65,3.65,0,0,1-.92.1,8.45,8.45,0,0,1-1.8-.21c0-.26,0-.58-.09-1a4.29,4.29,0,0,0,1.49.3,1.78,1.78,0,0,0,.7-.14,1.25,1.25,0,0,0,.46-.29,1.37,1.37,0,0,0,.26-.45,3.32,3.32,0,0,0,.18-.89c0-.5.09-1.24.13-2.2,0-.28,0-1,.08-2.09,0-1.54.07-2.44.07-2.68v-.62h1.23Zm-1.23-1.5c0-.26,0-.58,0-1h1.32c0,.23,0,.55-.05,1h-1.31Z"/><path class="cls-3" d="M241.41,94.1c-.06.25-.11.57-.16,1a10,10,0,0,1-1.14.23,7.73,7.73,0,0,1-1,.06,5.26,5.26,0,0,1-1.54-.21,2.63,2.63,0,0,1-1.16-.71,2.93,2.93,0,0,1-.7-1.17,4.75,4.75,0,0,1,.18-3.28,3.07,3.07,0,0,1,1.17-1.37,3.63,3.63,0,0,1,2-.5,3.85,3.85,0,0,1,1.19.18,2.41,2.41,0,0,1,.95.55,2.54,2.54,0,0,1,.58.92,3.21,3.21,0,0,1,.2,1.18,2.45,2.45,0,0,1,0,.48h-5.21c0,.25,0,.44,0,.58a2.94,2.94,0,0,0,.3,1.32,2,2,0,0,0,.89.91,2.8,2.8,0,0,0,1.35.31A6.78,6.78,0,0,0,241.41,94.1Zm-4.61-3.26h4.08a4.85,4.85,0,0,0-.06-.67,1.72,1.72,0,0,0-.18-.49,1.37,1.37,0,0,0-.35-.45,1.49,1.49,0,0,0-.53-.28,2.11,2.11,0,0,0-.68-.1,2.33,2.33,0,0,0-.74.11,2.1,2.1,0,0,0-.62.3,2,2,0,0,0-.46.45,2.26,2.26,0,0,0-.28.49A5.38,5.38,0,0,0,236.8,90.84Z"/><path class="cls-3" d="M248.27,94.15c0,.07,0,.2-.08.4s-.07.39-.1.59a6.8,6.8,0,0,1-1,.15c-.3,0-.57,0-.81,0a4.56,4.56,0,0,1-1.36-.2,2.61,2.61,0,0,1-1.09-.66,2.67,2.67,0,0,1-.68-1.12,4.49,4.49,0,0,1-.22-1.42,5.31,5.31,0,0,1,.35-1.91,3,3,0,0,1,1.12-1.42,3.76,3.76,0,0,1,2.09-.51,7,7,0,0,1,1.89.26c0,.39.06.71.08,1a8.56,8.56,0,0,0-1.06-.28,5.5,5.5,0,0,0-.76-.07,2.51,2.51,0,0,0-1.08.22,2.44,2.44,0,0,0-.81.62,2.55,2.55,0,0,0-.48,1,4.28,4.28,0,0,0-.15,1.13,3.54,3.54,0,0,0,.24,1.35,1.75,1.75,0,0,0,.84.9,2.85,2.85,0,0,0,1.34.32A5.52,5.52,0,0,0,248.27,94.15Z"/><path class="cls-3" d="M253.28,94.28c-.05.23-.11.52-.17.89a6.94,6.94,0,0,1-.74.14l-.52,0a2.67,2.67,0,0,1-1-.16,1.1,1.1,0,0,1-.57-.49,1.85,1.85,0,0,1-.2-.92s0-.14,0-.27,0-.57.07-1.33l.17-3.06h-.92c0-.19,0-.47,0-.82h.93c0-.26.05-.69.07-1.31.43-.08.79-.16,1.09-.23,0,.67,0,1.19-.06,1.54h1.9c0,.28,0,.56,0,.82h-1.89L251.3,93v.29a2,2,0,0,0,.11.75.75.75,0,0,0,.34.36,1.12,1.12,0,0,0,.47.11l.37,0C252.71,94.42,252.94,94.37,253.28,94.28Z"/><path class="cls-3" d="M261.27,94.28c0,.23-.1.52-.16.89a7.44,7.44,0,0,1-.74.14l-.52,0a2.67,2.67,0,0,1-1-.16,1.1,1.1,0,0,1-.57-.49,1.85,1.85,0,0,1-.2-.92s0-.14,0-.27,0-.57.07-1.33l.17-3.06h-.92c0-.19,0-.47.05-.82h.93c0-.26,0-.69.07-1.31.43-.08.79-.16,1.09-.23,0,.67-.05,1.19-.06,1.54h1.9c0,.28,0,.56,0,.82h-1.89L259.29,93v.29a2,2,0,0,0,.11.75.75.75,0,0,0,.34.36,1.12,1.12,0,0,0,.47.11l.37,0A6.91,6.91,0,0,0,261.27,94.28Z"/><path class="cls-3" d="M265.72,88.1a4.41,4.41,0,0,1,1.37.21,2.84,2.84,0,0,1,1.13.65,2.93,2.93,0,0,1,.72,1.12,4.25,4.25,0,0,1,.24,1.43,4.56,4.56,0,0,1-.26,1.56,3.59,3.59,0,0,1-.74,1.26,2.7,2.7,0,0,1-1.16.76,4.44,4.44,0,0,1-2.85,0,3,3,0,0,1-1.13-.69,2.92,2.92,0,0,1-.72-1.14,4.19,4.19,0,0,1-.25-1.41,4.24,4.24,0,0,1,.46-2,3,3,0,0,1,1.32-1.34A4.15,4.15,0,0,1,265.72,88.1Zm0,.87a2.49,2.49,0,0,0-1.28.35,2.06,2.06,0,0,0-.86,1.05,4,4,0,0,0-.28,1.53,3.58,3.58,0,0,0,.23,1.3,2,2,0,0,0,.77.93,2.22,2.22,0,0,0,1.28.36,2.65,2.65,0,0,0,1-.18,2,2,0,0,0,.8-.57,2.57,2.57,0,0,0,.5-1,4.51,4.51,0,0,0,.17-1.23,3.77,3.77,0,0,0-.17-1.13,1.85,1.85,0,0,0-.5-.84,2,2,0,0,0-.76-.45A2.87,2.87,0,0,0,265.69,89Z"/><path class="cls-3" d="M19,111.08c-.05.23-.11.52-.17.89a6.84,6.84,0,0,1-.73.14,4.79,4.79,0,0,1-.52,0,2.62,2.62,0,0,1-1-.15,1.14,1.14,0,0,1-.57-.49,1.75,1.75,0,0,1-.2-.92v-.27c0-.12,0-.57.07-1.33l.17-3.06h-.91c0-.19,0-.47,0-.82h.94c0-.26,0-.69.07-1.31l1.08-.23c0,.67-.05,1.19-.05,1.54h1.9c0,.28,0,.56,0,.82H17.21L17,109.76v.29a1.83,1.83,0,0,0,.12.75.72.72,0,0,0,.33.36,1.12,1.12,0,0,0,.47.11l.37,0A6.91,6.91,0,0,0,19,111.08Z"/><path class="cls-3" d="M25.68,110.9c-.05.25-.11.57-.16.95a10,10,0,0,1-1.14.23c-.32,0-.64,0-1,0a5.27,5.27,0,0,1-1.54-.2,2.65,2.65,0,0,1-1.16-.72,2.83,2.83,0,0,1-.7-1.16,4.75,4.75,0,0,1,.18-3.28,3.07,3.07,0,0,1,1.17-1.37,3.65,3.65,0,0,1,2-.5,3.94,3.94,0,0,1,1.19.18,2.44,2.44,0,0,1,.94.55,2.54,2.54,0,0,1,.58.92,3.22,3.22,0,0,1,.21,1.18,2.44,2.44,0,0,1-.05.48H21q0,.38,0,.57a3,3,0,0,0,.3,1.33,2,2,0,0,0,.89.91,2.81,2.81,0,0,0,1.35.32A6.83,6.83,0,0,0,25.68,110.9Zm-4.61-3.26h4.08a4.85,4.85,0,0,0-.06-.67,1.72,1.72,0,0,0-.18-.49,1.37,1.37,0,0,0-.35-.45,1.49,1.49,0,0,0-.53-.28,2.09,2.09,0,0,0-.67-.1,2.35,2.35,0,0,0-.75.11,2.1,2.1,0,0,0-.62.3,1.79,1.79,0,0,0-.46.45,2.76,2.76,0,0,0-.28.49A4.88,4.88,0,0,0,21.07,107.64Z"/><path class="cls-3" d="M27.12,111.85l0-.5s0-.23,0-.52a5,5,0,0,0,1.94.46,2,2,0,0,0,.78-.13,1,1,0,0,0,.49-.36,1,1,0,0,0,.16-.5,1,1,0,0,0,0-.29,1.11,1.11,0,0,0-.13-.27,2.12,2.12,0,0,0-.26-.3l-.73-.6-.83-.69a3.94,3.94,0,0,1-.49-.52,1.85,1.85,0,0,1-.29-.53,1.4,1.4,0,0,1-.1-.54,1.43,1.43,0,0,1,.28-.84,1.63,1.63,0,0,1,.8-.62,3.47,3.47,0,0,1,1.22-.2,8.54,8.54,0,0,1,1.73.19c0,.35,0,.68.07,1a3.92,3.92,0,0,0-1.51-.31,2.57,2.57,0,0,0-.75.1,1,1,0,0,0-.5.32.76.76,0,0,0-.16.47.81.81,0,0,0,.05.31,1.21,1.21,0,0,0,.2.33,2.61,2.61,0,0,0,.33.34c.13.12.4.33.79.64a8.81,8.81,0,0,1,.81.7,3.26,3.26,0,0,1,.38.47,2.26,2.26,0,0,1,.23.47,1.59,1.59,0,0,1-.21,1.37,1.77,1.77,0,0,1-.85.64,3.33,3.33,0,0,1-1.26.22l-.69,0-.67-.09Z"/><path class="cls-3" d="M36.5,111.08c0,.23-.11.52-.17.89a6.94,6.94,0,0,1-.74.14,4.61,4.61,0,0,1-.52,0,2.69,2.69,0,0,1-1-.15,1.14,1.14,0,0,1-.57-.49,1.85,1.85,0,0,1-.2-.92s0-.14,0-.27,0-.57.07-1.33l.17-3.06h-.92c0-.19,0-.47.05-.82h.93c0-.26,0-.69.07-1.31.43-.08.79-.16,1.09-.23,0,.67,0,1.19-.06,1.54h1.9c0,.28,0,.56,0,.82H34.7l-.18,3.85v.29a2,2,0,0,0,.11.75.79.79,0,0,0,.34.36,1.12,1.12,0,0,0,.47.11l.37,0C35.93,111.22,36.16,111.17,36.5,111.08Z"/><path class="cls-3" d="M44.49,111.08c-.05.23-.1.52-.16.89a7.44,7.44,0,0,1-.74.14,4.61,4.61,0,0,1-.52,0,2.69,2.69,0,0,1-1-.15,1.14,1.14,0,0,1-.57-.49,1.85,1.85,0,0,1-.2-.92s0-.14,0-.27,0-.57.07-1.33l.16-3.06h-.91c0-.19,0-.47.05-.82h.93c0-.26,0-.69.07-1.31.43-.08.79-.16,1.08-.23,0,.67-.05,1.19-.05,1.54h1.9c0,.28,0,.56,0,.82H42.7l-.19,3.85v.29a1.85,1.85,0,0,0,.11.75.74.74,0,0,0,.34.36,1.08,1.08,0,0,0,.47.11l.37,0A6.91,6.91,0,0,0,44.49,111.08Z"/><path class="cls-3" d="M45.53,112l.17-3,.16-4.05,0-2.31h1.23L47,105l0,1.41c.11-.19.2-.35.28-.46a2,2,0,0,1,.31-.35,2.25,2.25,0,0,1,.39-.3,2.78,2.78,0,0,1,.46-.21A4.81,4.81,0,0,1,49,105a4.35,4.35,0,0,1,.74-.06,4.44,4.44,0,0,1,1.11.13,2.33,2.33,0,0,1,.91.43,1.46,1.46,0,0,1,.52.72,2.49,2.49,0,0,1,.14.85v.45q0,.42-.06,1L52.23,111c0,.27,0,.61,0,1H50.94c.05-.49.11-1.26.17-2.32s.1-1.79.1-2.2a1.87,1.87,0,0,0-.19-.9,1.35,1.35,0,0,0-.66-.55,2.61,2.61,0,0,0-1-.19,2.76,2.76,0,0,0-1,.16,1.86,1.86,0,0,0-.68.4,2,2,0,0,0-.46.63,3.55,3.55,0,0,0-.26.82,13.38,13.38,0,0,0-.16,1.8c0,.46,0,1.24-.08,2.35H45.53Z"/><path class="cls-3" d="M59.68,110.9c-.06.25-.11.57-.17.95a9.57,9.57,0,0,1-1.14.23c-.32,0-.64,0-1,0a5.16,5.16,0,0,1-1.53-.2,2.68,2.68,0,0,1-1.17-.72,2.92,2.92,0,0,1-.69-1.16,4.26,4.26,0,0,1-.22-1.39,4.57,4.57,0,0,1,.39-1.89,3,3,0,0,1,1.18-1.37,3.63,3.63,0,0,1,2-.5,3.9,3.9,0,0,1,1.19.18,2.37,2.37,0,0,1,.94.55,2.43,2.43,0,0,1,.59.92,3.44,3.44,0,0,1,.2,1.18,2.45,2.45,0,0,1,0,.48H55c0,.25,0,.44,0,.57a3,3,0,0,0,.3,1.33,2,2,0,0,0,.89.91,2.81,2.81,0,0,0,1.35.32A6.89,6.89,0,0,0,59.68,110.9Zm-4.61-3.26h4.07a3.81,3.81,0,0,0,0-.67,1.72,1.72,0,0,0-.18-.49,1.52,1.52,0,0,0-.35-.45,1.58,1.58,0,0,0-.53-.28,2.15,2.15,0,0,0-.68-.1,2.25,2.25,0,0,0-.74.11,2,2,0,0,0-.62.3,1.79,1.79,0,0,0-.46.45,1.91,1.91,0,0,0-.28.49A4.88,4.88,0,0,0,55.07,107.64Z"/><path class="cls-3" d="M70,110.94c0,.08,0,.21-.07.41s-.07.4-.1.59a6.8,6.8,0,0,1-1,.15c-.31,0-.58,0-.81,0a4.52,4.52,0,0,1-1.36-.19,2.71,2.71,0,0,1-1.09-.66,2.79,2.79,0,0,1-.69-1.12,4.79,4.79,0,0,1-.22-1.42,5.11,5.11,0,0,1,.36-1.91,3,3,0,0,1,1.12-1.41,3.65,3.65,0,0,1,2.09-.52,7.12,7.12,0,0,1,1.89.26c0,.39,0,.71.07,1a8.49,8.49,0,0,0-1.05-.28,4.29,4.29,0,0,0-.76-.07,2.48,2.48,0,0,0-1.08.22,2.15,2.15,0,0,0-.81.62,2.55,2.55,0,0,0-.48,1,4.28,4.28,0,0,0-.15,1.13,3.54,3.54,0,0,0,.24,1.35,1.75,1.75,0,0,0,.84.9,2.82,2.82,0,0,0,1.34.32A5.28,5.28,0,0,0,70,110.94Z"/><path class="cls-3" d="M72,106.16c0-.2.08-.5.13-.89a11.57,11.57,0,0,1,1.42-.29,9.75,9.75,0,0,1,1.18-.08,5.91,5.91,0,0,1,1.15.11,2.47,2.47,0,0,1,.9.37,1.28,1.28,0,0,1,.47.58,2.35,2.35,0,0,1,.11.71c0,.31,0,.84-.07,1.58s-.08,1.42-.11,2,0,1.19,0,1.68H75.91l.15-1.86.1-2.21-.36.26a1.71,1.71,0,0,1-.27.14l-.33.12-.71.2-.74.22a4.31,4.31,0,0,0-.74.3,2.18,2.18,0,0,0-.46.33,1,1,0,0,0-.26.36,1.18,1.18,0,0,0-.09.46,1,1,0,0,0,.22.64,1.12,1.12,0,0,0,.55.38,2.66,2.66,0,0,0,.79.1,4.26,4.26,0,0,0,.61,0,4.44,4.44,0,0,0,.84-.2A5.33,5.33,0,0,0,75,112c-.33.06-.61.1-.82.12s-.4,0-.59,0a4.07,4.07,0,0,1-1.46-.21,1.59,1.59,0,0,1-.79-.67,1.94,1.94,0,0,1-.26-1,1.69,1.69,0,0,1,.09-.56,1.76,1.76,0,0,1,.25-.47,2.07,2.07,0,0,1,.45-.43,3.1,3.1,0,0,1,.61-.35c.21-.09.46-.18.74-.27s.74-.2,1.36-.35l.51-.15a2.35,2.35,0,0,0,.38-.14,1.15,1.15,0,0,0,.29-.16,1.12,1.12,0,0,0,.37-.49.66.66,0,0,0,0-.28.8.8,0,0,0-.22-.57,1.08,1.08,0,0,0-.57-.33,2.9,2.9,0,0,0-.83-.1,5.67,5.67,0,0,0-.91.07c-.31,0-.58.11-.81.17S72.32,106,72,106.16Z"/><path class="cls-3" d="M78.84,115.07c.1-1.17.18-2.77.26-4.8s.13-3.67.14-5c.74-.16,1.34-.27,1.79-.32a10.2,10.2,0,0,1,1.35-.09,4.56,4.56,0,0,1,1.85.34,2.47,2.47,0,0,1,1.22,1.19,4.05,4.05,0,0,1,.44,1.92,5.27,5.27,0,0,1-.2,1.44,3.72,3.72,0,0,1-.63,1.24,2.72,2.72,0,0,1-1,.83,3.11,3.11,0,0,1-1.32.27,3.33,3.33,0,0,1-.84-.1,2.7,2.7,0,0,1-.71-.28,2.13,2.13,0,0,1-.49-.38,4.7,4.7,0,0,1-.49-.64l-.09,2.71c0,.44,0,.76,0,1v.67H78.84Zm1.57-8.94,0,.52,0,.71c0,.37,0,.67,0,.91s0,.4,0,.49a4.21,4.21,0,0,0,.11,1,1.89,1.89,0,0,0,.42.82,2.08,2.08,0,0,0,.75.57,2.13,2.13,0,0,0,.89.19,2,2,0,0,0,1.17-.36,2.3,2.3,0,0,0,.81-1,3.92,3.92,0,0,0,.3-1.54,3.23,3.23,0,0,0-.31-1.45,1.92,1.92,0,0,0-.83-.88,2.52,2.52,0,0,0-1.17-.27A5.78,5.78,0,0,0,80.41,106.13Z"/><path class="cls-3" d="M87.67,106.16c0-.2.08-.5.13-.89a12,12,0,0,1,1.42-.29,9.75,9.75,0,0,1,1.18-.08,5.91,5.91,0,0,1,1.15.11,2.47,2.47,0,0,1,.9.37,1.28,1.28,0,0,1,.47.58,2.08,2.08,0,0,1,.12.71c0,.31,0,.84-.08,1.58s-.08,1.42-.1,2,0,1.19,0,1.68H91.59l.15-1.86.1-2.21-.36.26a1.71,1.71,0,0,1-.27.14l-.33.12-.7.2-.75.22a4.31,4.31,0,0,0-.74.3,2.48,2.48,0,0,0-.46.33,1.16,1.16,0,0,0-.26.36,1.18,1.18,0,0,0-.09.46,1,1,0,0,0,.22.64,1.17,1.17,0,0,0,.55.38,2.69,2.69,0,0,0,.8.1,4.22,4.22,0,0,0,.6,0,4.44,4.44,0,0,0,.84-.2,6.87,6.87,0,0,0-.22.81q-.49.09-.81.12c-.21,0-.41,0-.6,0a4.07,4.07,0,0,1-1.46-.21,1.64,1.64,0,0,1-.79-.67,1.94,1.94,0,0,1-.26-1,1.47,1.47,0,0,1,.1-.56,1.73,1.73,0,0,1,.24-.47,2.07,2.07,0,0,1,.45-.43,3.42,3.42,0,0,1,.61-.35c.21-.09.46-.18.74-.27s.74-.2,1.36-.35l.52-.15a2.61,2.61,0,0,0,.37-.14,1.15,1.15,0,0,0,.29-.16,1.19,1.19,0,0,0,.23-.22,1.82,1.82,0,0,0,.15-.27.86.86,0,0,0,0-.28.8.8,0,0,0-.22-.57,1.08,1.08,0,0,0-.57-.33,2.9,2.9,0,0,0-.83-.1,5.75,5.75,0,0,0-.91.07c-.31,0-.58.11-.81.17Z"/><path class="cls-3" d="M94.7,112l.06-.76c0-.14,0-.4,0-.77l.19-4.64.08-3.16h1.26c-.07.59-.12,1.43-.17,2.52a9.55,9.55,0,0,1,1.17-.21,7,7,0,0,1,.9-.06,5,5,0,0,1,1.52.22,2.49,2.49,0,0,1,1.09.72,3.12,3.12,0,0,1,.6,1.12,4.52,4.52,0,0,1,.18,1.29,5.11,5.11,0,0,1-.22,1.51,3.82,3.82,0,0,1-.65,1.29,2.52,2.52,0,0,1-1.05.82,3.4,3.4,0,0,1-1.36.26,3,3,0,0,1-.75-.08,2.94,2.94,0,0,1-.63-.24,2.1,2.1,0,0,1-.47-.34,2.15,2.15,0,0,1-.32-.38,3.94,3.94,0,0,1-.29-.53l0,1.42H94.7Zm1.4-5.89c0,.75-.06,1.25-.07,1.49s0,.53,0,.87a4.42,4.42,0,0,0,.24,1.65A1.77,1.77,0,0,0,97,111a2.1,2.1,0,0,0,1.11.3,2.07,2.07,0,0,0,1.24-.37,2.28,2.28,0,0,0,.8-1.1,4.05,4.05,0,0,0,.29-1.54,2.68,2.68,0,0,0-.6-1.82,2.22,2.22,0,0,0-1.79-.69,5.27,5.27,0,0,0-.87.07A7,7,0,0,0,96.1,106.09Z"/><path class="cls-3" d="M103,112l.12-1.72.13-2.94.06-2.26h1.24c0,.71-.09,1.45-.14,2.23s-.07,1.63-.1,2.55,0,1.63,0,2.14H103Zm.32-8.41c0-.43,0-.75,0-1h1.32c0,.14,0,.46,0,1h-1.3Z"/><path class="cls-3" d="M106.13,112c.09-1.4.18-3.06.26-5,.06-1.4.1-2.84.13-4.34h1.25l-.21,4-.15,4.06,0,1.25h-1.25Z"/><path class="cls-3" d="M109.29,112l.12-1.72.13-2.94.06-2.26h1.24c0,.71-.09,1.45-.14,2.23s-.07,1.63-.1,2.55,0,1.63,0,2.14h-1.27Zm.32-8.41c0-.43,0-.75,0-1H111c0,.14,0,.46,0,1h-1.29Z"/><path class="cls-3" d="M115.9,111.08c-.05.23-.1.52-.16.89a7.44,7.44,0,0,1-.74.14,4.7,4.7,0,0,1-.52,0,2.65,2.65,0,0,1-1-.15,1.14,1.14,0,0,1-.57-.49,1.85,1.85,0,0,1-.2-.92s0-.14,0-.27,0-.57.07-1.33l.16-3.06h-.91c0-.19,0-.47,0-.82H113c0-.26,0-.69.07-1.31.43-.08.79-.16,1.08-.23,0,.67,0,1.19,0,1.54H116c0,.28,0,.56,0,.82h-1.9l-.18,3.85v.29a1.83,1.83,0,0,0,.12.75.74.74,0,0,0,.34.36,1.08,1.08,0,0,0,.47.11l.37,0A6.91,6.91,0,0,0,115.9,111.08Z"/><path class="cls-3" d="M116.94,112l.12-1.72.13-2.94.06-2.26h1.24c0,.71-.1,1.45-.14,2.23s-.07,1.63-.1,2.55,0,1.63,0,2.14h-1.27Zm.31-8.41c0-.43,0-.75,0-1h1.31c0,.14,0,.46,0,1h-1.3Z"/><path class="cls-3" d="M125.72,110.9c0,.25-.1.57-.16.95a10,10,0,0,1-1.14.23c-.32,0-.64,0-1,0a5.16,5.16,0,0,1-1.53-.2,2.63,2.63,0,0,1-1.17-.72,3.06,3.06,0,0,1-.7-1.16,4.75,4.75,0,0,1,.18-3.28,3.07,3.07,0,0,1,1.17-1.37,3.69,3.69,0,0,1,2-.5,3.9,3.9,0,0,1,1.19.18,2.37,2.37,0,0,1,.94.55,2.41,2.41,0,0,1,.58.92,3.22,3.22,0,0,1,.21,1.18,2.45,2.45,0,0,1,0,.48h-5.22c0,.25,0,.44,0,.57a3,3,0,0,0,.3,1.33,2,2,0,0,0,.88.91,2.87,2.87,0,0,0,1.36.32A6.78,6.78,0,0,0,125.72,110.9Zm-4.6-3.26h4.07a3.81,3.81,0,0,0,0-.67,2.09,2.09,0,0,0-.18-.49,1.7,1.7,0,0,0-.35-.45,1.54,1.54,0,0,0-.54-.28,2,2,0,0,0-.67-.1,2.25,2.25,0,0,0-.74.11,2,2,0,0,0-.62.3,1.64,1.64,0,0,0-.46.45,1.91,1.91,0,0,0-.28.49A4.88,4.88,0,0,0,121.12,107.64Z"/><path class="cls-3" d="M127.17,111.85l0-.5s0-.23-.06-.52a5,5,0,0,0,1.94.46,2.08,2.08,0,0,0,.79-.13,1,1,0,0,0,.48-.36.87.87,0,0,0,.16-.5,1,1,0,0,0,0-.29,1.16,1.16,0,0,0-.14-.27,1.62,1.62,0,0,0-.26-.3l-.72-.6-.84-.69a3.29,3.29,0,0,1-.48-.52,1.67,1.67,0,0,1-.3-.53,1.62,1.62,0,0,1-.1-.54,1.51,1.51,0,0,1,.28-.84,1.63,1.63,0,0,1,.8-.62,3.52,3.52,0,0,1,1.23-.2,8.61,8.61,0,0,1,1.73.19c0,.35,0,.68.06,1a3.92,3.92,0,0,0-1.51-.31,2.55,2.55,0,0,0-.74.1,1.07,1.07,0,0,0-.51.32.76.76,0,0,0-.16.47,1.06,1.06,0,0,0,0,.31,1.53,1.53,0,0,0,.2.33,2.72,2.72,0,0,0,.34.34c.13.12.39.33.79.64s.66.55.81.7a3.18,3.18,0,0,1,.37.47,1.85,1.85,0,0,1,.23.47,1.59,1.59,0,0,1,.07.48,1.52,1.52,0,0,1-.28.89,1.79,1.79,0,0,1-.84.64,3.4,3.4,0,0,1-1.26.22l-.69,0-.68-.09Z"/><path class="cls-3" d="M140,104.9a4.41,4.41,0,0,1,1.37.21,2.8,2.8,0,0,1,1.84,1.77,4,4,0,0,1,.25,1.43,4.71,4.71,0,0,1-.26,1.55,3.7,3.7,0,0,1-.74,1.27,2.83,2.83,0,0,1-1.16.76,4.46,4.46,0,0,1-1.48.24,4.52,4.52,0,0,1-1.38-.21,3,3,0,0,1-1.84-1.83,3.88,3.88,0,0,1-.25-1.41,4.36,4.36,0,0,1,.45-2,3,3,0,0,1,1.33-1.34A4.15,4.15,0,0,1,140,104.9Zm0,.87a2.49,2.49,0,0,0-1.28.35,2,2,0,0,0-.86,1,4,4,0,0,0-.28,1.53,3.38,3.38,0,0,0,.23,1.3,2,2,0,0,0,.76.93,2.27,2.27,0,0,0,1.29.36,2.65,2.65,0,0,0,1-.18,1.85,1.85,0,0,0,.79-.58,2.47,2.47,0,0,0,.51-1,4.51,4.51,0,0,0,.16-1.23,3.77,3.77,0,0,0-.16-1.13,1.94,1.94,0,0,0-.5-.84,2,2,0,0,0-.77-.45A2.8,2.8,0,0,0,140,105.77Z"/><path class="cls-3" d="M145,112l.08-1.25.18-4.81h-.85c0-.22,0-.51.05-.85h.89c0-.42,0-.75,0-1a2.71,2.71,0,0,1,.09-.61,1.14,1.14,0,0,1,.21-.46,1.33,1.33,0,0,1,.39-.34,1.68,1.68,0,0,1,.58-.23,3.45,3.45,0,0,1,.76-.07,5.68,5.68,0,0,1,1.32.17c0,.27,0,.56.07.87a3.41,3.41,0,0,0-1.18-.23,1.43,1.43,0,0,0-.48.07.77.77,0,0,0-.35.18.69.69,0,0,0-.22.3,1.28,1.28,0,0,0-.12.43,5.21,5.21,0,0,0,0,.6v.29h1.9c0,.2,0,.48-.06.85h-1.83l-.12,3.49-.06,2.57H145Z"/><path class="cls-3" d="M152.86,106.16c0-.2.08-.5.13-.89a11.57,11.57,0,0,1,1.42-.29,9.61,9.61,0,0,1,1.18-.08,6,6,0,0,1,1.15.11,2.34,2.34,0,0,1,.89.37,1.24,1.24,0,0,1,.48.58,2.35,2.35,0,0,1,.11.71c0,.31,0,.84-.07,1.58s-.08,1.42-.11,2,0,1.19,0,1.68h-1.22l.15-1.86.1-2.21-.36.26a1.71,1.71,0,0,1-.27.14l-.33.12-.71.2-.74.22a4.31,4.31,0,0,0-.74.3,2.18,2.18,0,0,0-.46.33,1,1,0,0,0-.26.36,1.18,1.18,0,0,0-.09.46,1,1,0,0,0,.22.64,1.12,1.12,0,0,0,.55.38,2.62,2.62,0,0,0,.79.1,4.26,4.26,0,0,0,.61,0,4.44,4.44,0,0,0,.84-.2,5.33,5.33,0,0,0-.22.81c-.34.06-.61.1-.82.12s-.4,0-.59,0a4.07,4.07,0,0,1-1.46-.21,1.59,1.59,0,0,1-.79-.67,1.94,1.94,0,0,1-.26-1,1.69,1.69,0,0,1,.09-.56,1.76,1.76,0,0,1,.25-.47,2.07,2.07,0,0,1,.45-.43,3.1,3.1,0,0,1,.61-.35c.21-.09.46-.18.74-.27s.74-.2,1.36-.35l.51-.15a2.77,2.77,0,0,0,.38-.14,1.15,1.15,0,0,0,.51-.38.91.91,0,0,0,.15-.27.87.87,0,0,0,0-.28.8.8,0,0,0-.22-.57,1.08,1.08,0,0,0-.57-.33,2.9,2.9,0,0,0-.83-.1,5.67,5.67,0,0,0-.91.07c-.31,0-.58.11-.81.17S153.19,106,152.86,106.16Z"/><path class="cls-3" d="M159.82,112c.21-2.85.33-5.16.34-6.92h1.21l-.09,1.37c.11-.19.2-.34.27-.44a2,2,0,0,1,.27-.33,2.78,2.78,0,0,1,.41-.32,2.25,2.25,0,0,1,.54-.24,3.71,3.71,0,0,1,.64-.15,4.87,4.87,0,0,1,.65,0,4.35,4.35,0,0,1,1.14.15,2,2,0,0,1,.89.46,1.61,1.61,0,0,1,.48.73,3,3,0,0,1,.12.87c0,.06,0,.17,0,.34s0,.39,0,.66l-.13,2.87c0,.27,0,.61,0,1h-1.22c.05-.55.08-1.08.11-1.59l.09-1.59c0-.55,0-1,0-1.24a1.9,1.9,0,0,0-.21-1,1.28,1.28,0,0,0-.65-.55,2.54,2.54,0,0,0-1-.2,2.41,2.41,0,0,0-1.36.38,2.29,2.29,0,0,0-.81,1,4.89,4.89,0,0,0-.28,1.35c-.07.72-.11,1.86-.14,3.41h-1.23Z"/><path class="cls-3" d="M171.94,112l.13-1.83.16-3.4.07-2.86c0-.58,0-1,0-1.24l1.36,0,1,0h.93a6.92,6.92,0,0,1,1.16.09,2.1,2.1,0,0,1,.93.4,2,2,0,0,1,.61.74,2.26,2.26,0,0,1,.2,1,2.91,2.91,0,0,1-.16,1,2.49,2.49,0,0,1-.45.79,2.35,2.35,0,0,1-.71.58,3.2,3.2,0,0,1-.78.28,7.69,7.69,0,0,1-.86.13l1.2,1.92,1.24,1.91.38.59H177l-.49-.93q-.15-.28-.3-.54l-.33-.58-1.55-2.52c-.06-.1-.17-.27-.31-.53a4.77,4.77,0,0,0,.93.1,3.33,3.33,0,0,0,1.24-.22,1.93,1.93,0,0,0,1.07-2.35,1.1,1.1,0,0,0-.31-.45,1.61,1.61,0,0,0-.41-.27,2.51,2.51,0,0,0-.52-.12,4.73,4.73,0,0,0-.67,0h-1.77c-.14,3.07-.23,5.88-.26,8.45h-1.33Z"/><path class="cls-3" d="M179.87,112l.13-1.9.24-5.55,0-1.08c0-.34,0-.61,0-.8h1.64l.74,1.21,4.52,6.81.29-8h1.21l-.15,2.4-.18,4.21-.09,2.72h-1.61l-.63-1L181.38,104q0,.39-.06,1.2l-.19,4.84,0,1.9h-1.22Z"/><path class="cls-3" d="M190.43,112l.14-1.9.23-5.55,0-1.08c0-.34,0-.61,0-.8h1.64l.74,1.21,4.52,6.81.29-8h1.21l-.15,2.4-.19,4.21-.08,2.72H197.2l-.62-1L191.94,104c0,.26,0,.66-.05,1.2l-.19,4.84,0,1.9h-1.23Z"/><path class="cls-3" d="M204.8,106.16c0-.2.08-.5.13-.89a11.57,11.57,0,0,1,1.42-.29,9.61,9.61,0,0,1,1.18-.08,6,6,0,0,1,1.15.11,2.34,2.34,0,0,1,.89.37,1.24,1.24,0,0,1,.48.58,2.35,2.35,0,0,1,.11.71c0,.31,0,.84-.07,1.58s-.08,1.42-.11,2,0,1.19,0,1.68h-1.22l.15-1.86.1-2.21-.36.26a1.71,1.71,0,0,1-.27.14l-.33.12-.71.2-.74.22a4.31,4.31,0,0,0-.74.3,2.18,2.18,0,0,0-.46.33,1,1,0,0,0-.26.36,1.18,1.18,0,0,0-.09.46,1,1,0,0,0,.22.64,1.12,1.12,0,0,0,.55.38,2.62,2.62,0,0,0,.79.1,4.22,4.22,0,0,0,.6,0,4.69,4.69,0,0,0,.85-.2,5.33,5.33,0,0,0-.22.81c-.34.06-.61.1-.82.12s-.4,0-.59,0a4,4,0,0,1-1.46-.21,1.59,1.59,0,0,1-.79-.67,1.94,1.94,0,0,1-.26-1,1.69,1.69,0,0,1,.09-.56,1.76,1.76,0,0,1,.25-.47,2.07,2.07,0,0,1,.45-.43,3.1,3.1,0,0,1,.61-.35c.21-.09.46-.18.74-.27s.74-.2,1.36-.35l.51-.15a2.77,2.77,0,0,0,.38-.14,1.35,1.35,0,0,0,.29-.16,1.14,1.14,0,0,0,.22-.22.91.91,0,0,0,.15-.27.87.87,0,0,0,0-.28.8.8,0,0,0-.22-.57,1.12,1.12,0,0,0-.57-.33,2.9,2.9,0,0,0-.83-.1,5.67,5.67,0,0,0-.91.07,8,8,0,0,0-.81.17Q205.3,106,204.8,106.16Z"/><path class="cls-3" d="M211.8,112c.09-1.4.18-3.06.27-5,.06-1.4.1-2.84.13-4.34h1.24l-.21,4-.15,4.06,0,1.25H211.8Z"/><path class="cls-3" d="M215.36,114a14,14,0,0,0,1.51.37,7.74,7.74,0,0,0,1.11.09,3.32,3.32,0,0,0,1.06-.16,2.06,2.06,0,0,0,.69-.36,1.78,1.78,0,0,0,.36-.48,3.4,3.4,0,0,0,.25-1c0-.33.07-1,.1-1.94a4.68,4.68,0,0,1-.3.5,2.13,2.13,0,0,1-.36.39,2.25,2.25,0,0,1-.53.36,2.67,2.67,0,0,1-.69.25,3.75,3.75,0,0,1-.82.09,3.68,3.68,0,0,1-1.17-.17,2.49,2.49,0,0,1-1-.56,2.67,2.67,0,0,1-.65-1,3.71,3.71,0,0,1-.22-1.28,4.74,4.74,0,0,1,.33-1.76,3.53,3.53,0,0,1,1-1.39,3.8,3.8,0,0,1,1.44-.8,6.57,6.57,0,0,1,1.76-.23,16,16,0,0,1,2.62.28l-.07.84-.21,3.84c0,.07,0,.54,0,1.39l0,1.42a5.2,5.2,0,0,1-.13.79,2.27,2.27,0,0,1-.22.53,1.84,1.84,0,0,1-.3.43,2.06,2.06,0,0,1-.42.35,2.45,2.45,0,0,1-.51.26,4.24,4.24,0,0,1-.8.19,5.84,5.84,0,0,1-.93.08,11.38,11.38,0,0,1-1.31-.07,12.16,12.16,0,0,1-1.45-.26l0-.38C215.41,114.51,215.39,114.3,215.36,114Zm5.26-8.07a7.48,7.48,0,0,0-1.43-.15,4.43,4.43,0,0,0-1.24.16,2.48,2.48,0,0,0-1,.57,2.83,2.83,0,0,0-.75,1.08,3.8,3.8,0,0,0-.26,1.38,3,3,0,0,0,.24,1.21,1.71,1.71,0,0,0,.75.82,2.42,2.42,0,0,0,1.15.28,2.35,2.35,0,0,0,1-.2,2.1,2.1,0,0,0,.77-.6,2.75,2.75,0,0,0,.52-1,5.42,5.42,0,0,0,.2-1.14C220.55,108,220.58,107.16,220.62,105.92Z"/><path class="cls-3" d="M226.82,104.9a4.41,4.41,0,0,1,1.37.21,2.8,2.8,0,0,1,1.84,1.77,4,4,0,0,1,.25,1.43,4.71,4.71,0,0,1-.26,1.55,3.7,3.7,0,0,1-.74,1.27,2.83,2.83,0,0,1-1.16.76,4.46,4.46,0,0,1-1.48.24,4.52,4.52,0,0,1-1.38-.21,3,3,0,0,1-1.12-.69,2.92,2.92,0,0,1-.72-1.14,3.88,3.88,0,0,1-.25-1.41,4.36,4.36,0,0,1,.45-2,3,3,0,0,1,1.33-1.34A4.15,4.15,0,0,1,226.82,104.9Zm0,.87a2.49,2.49,0,0,0-1.28.35,2,2,0,0,0-.86,1,4,4,0,0,0-.28,1.53,3.38,3.38,0,0,0,.23,1.3,2,2,0,0,0,.76.93,2.27,2.27,0,0,0,1.29.36,2.65,2.65,0,0,0,1-.18,1.85,1.85,0,0,0,.79-.58,2.47,2.47,0,0,0,.51-1,4.51,4.51,0,0,0,.16-1.23,3.77,3.77,0,0,0-.16-1.13,1.94,1.94,0,0,0-.5-.84,2,2,0,0,0-.77-.45A2.8,2.8,0,0,0,226.79,105.77Z"/><path class="cls-3" d="M231.6,112c.16-2.63.25-4.72.25-6.29v-.63H233l-.05,1.13a4.79,4.79,0,0,1,.45-.64,1.66,1.66,0,0,1,.44-.35,2.18,2.18,0,0,1,.56-.22,2.67,2.67,0,0,1,.64-.08,2.78,2.78,0,0,1,.57.07c0,.3,0,.64.05,1a3.31,3.31,0,0,0-.76-.11,1.9,1.9,0,0,0-.73.13,1.69,1.69,0,0,0-.57.4,2.08,2.08,0,0,0-.42.65,2.44,2.44,0,0,0-.21.78,17.31,17.31,0,0,0-.12,1.74c0,.62,0,1.27,0,2V112H231.6Z"/><path class="cls-3" d="M236.55,112l.12-1.72.13-2.94.06-2.26h1.24c0,.71-.1,1.45-.14,2.23s-.07,1.63-.1,2.55,0,1.63,0,2.14h-1.27Zm.31-8.41c0-.43,0-.75,0-1h1.32c0,.14,0,.46,0,1h-1.3Z"/><path class="cls-3" d="M243.16,111.08c0,.23-.11.52-.16.89a7.44,7.44,0,0,1-.74.14,4.79,4.79,0,0,1-.52,0,2.62,2.62,0,0,1-1-.15,1.14,1.14,0,0,1-.57-.49,1.75,1.75,0,0,1-.2-.92v-.27c0-.12,0-.57.07-1.33l.17-3.06h-.91c0-.19,0-.47.05-.82h.93c0-.26,0-.69.07-1.31l1.08-.23c0,.67,0,1.19,0,1.54h1.9c0,.28,0,.56-.05.82h-1.89l-.18,3.85v.29a1.83,1.83,0,0,0,.12.75.72.72,0,0,0,.33.36,1.12,1.12,0,0,0,.47.11l.37,0A6.91,6.91,0,0,0,243.16,111.08Z"/><path class="cls-3" d="M244.2,112l.17-3,.16-4.05,0-2.31h1.23l-.15,2.38-.06,1.41c.11-.19.21-.35.29-.46a2.33,2.33,0,0,1,.3-.35,2.78,2.78,0,0,1,.4-.3,2.45,2.45,0,0,1,.46-.21,4.62,4.62,0,0,1,.6-.16,4.56,4.56,0,0,1,.75-.06,4.44,4.44,0,0,1,1.11.13,2.4,2.4,0,0,1,.91.43,1.59,1.59,0,0,1,.52.72,2.75,2.75,0,0,1,.14.85c0,.11,0,.26,0,.45s0,.61-.05,1l-.12,2.51c0,.27,0,.61,0,1h-1.26c0-.49.1-1.26.17-2.32s.1-1.79.1-2.2a1.87,1.87,0,0,0-.2-.9A1.28,1.28,0,0,0,249,106a2.61,2.61,0,0,0-1-.19,2.73,2.73,0,0,0-1,.16,1.86,1.86,0,0,0-1.14,1,3.55,3.55,0,0,0-.26.82,14.9,14.9,0,0,0-.17,1.8c0,.46,0,1.24-.07,2.35H244.2Z"/><path class="cls-3" d="M252.66,112l.08-1c0-.21,0-.54,0-1l.16-4.16c0-.34,0-.6,0-.78h1.16l-.06,1.27a4.51,4.51,0,0,1,.42-.61,1.84,1.84,0,0,1,.49-.41,2.6,2.6,0,0,1,.7-.3,3.18,3.18,0,0,1,.82-.11,2.79,2.79,0,0,1,.58.07,2.76,2.76,0,0,1,.53.19,2.19,2.19,0,0,1,.42.28,1.74,1.74,0,0,1,.28.34,3,3,0,0,1,.21.54,2.48,2.48,0,0,1,1-1.1,3.1,3.1,0,0,1,1.4-.32,2.85,2.85,0,0,1,1,.16,1.68,1.68,0,0,1,.73.45,1.59,1.59,0,0,1,.37.61,2.35,2.35,0,0,1,.09.64c0,.22,0,.55-.05,1s-.07,1.1-.11,2-.06,1.64-.06,2.23h-1.22c0-.61.09-1.28.13-2l.09-1.69c0-.41,0-.77,0-1.06a2,2,0,0,0-.08-.62,1.05,1.05,0,0,0-.27-.4,1.16,1.16,0,0,0-.44-.27,1.66,1.66,0,0,0-.61-.1,2.1,2.1,0,0,0-.51.06,2,2,0,0,0-.42.19,1.57,1.57,0,0,0-.4.32,1.9,1.9,0,0,0-.31.42,3.11,3.11,0,0,0-.21.57,6,6,0,0,0-.14,1c0,.42-.06,1-.07,1.67l-.06,1.91h-1.22c.05-.56.08-1.14.11-1.74l.08-1.65c0-.51,0-1,0-1.31a2.45,2.45,0,0,0-.07-.59,1.05,1.05,0,0,0-.26-.44,1.1,1.1,0,0,0-.45-.31,1.59,1.59,0,0,0-.59-.11,1.78,1.78,0,0,0-.65.12,2.14,2.14,0,0,0-.57.35,2.25,2.25,0,0,0-.43.57,3.34,3.34,0,0,0-.28.89,15.85,15.85,0,0,0-.16,1.92c0,.91-.05,1.68-.05,2.3h-1.23Z"/><path class="cls-3" d="M16,135.65h1.4v9.94H16Zm.72,4.75h3.18a1.46,1.46,0,0,0,.79-.21,1.35,1.35,0,0,0,.53-.6,2.23,2.23,0,0,0,0-1.8,1.35,1.35,0,0,0-.53-.6,1.38,1.38,0,0,0-.79-.22H16.69v-1.32h3.13a3.2,3.2,0,0,1,1.57.37,2.7,2.7,0,0,1,1.05,1.07,3.64,3.64,0,0,1,0,3.2,2.61,2.61,0,0,1-1.05,1.06,3.2,3.2,0,0,1-1.57.38H16.69Z"/><path class="cls-3" d="M23.46,138.49h1.42l2.18,6.17-.77,1.51Zm6.28,0-3,8.76a2,2,0,0,1-.43.76,1.51,1.51,0,0,1-.66.41,3.28,3.28,0,0,1-.95.12H24.4V147.2h.28a1.08,1.08,0,0,0,.61-.15,1.23,1.23,0,0,0,.4-.54l2.63-8Z"/><path class="cls-3" d="M30.56,138.49h3.2v1.26h-3.2Zm1.13,6.65a2.14,2.14,0,0,1-.4-1.4v-7.31h1.4v7.32a.64.64,0,0,0,.1.4.34.34,0,0,0,.3.14h.67v1.33H33A1.56,1.56,0,0,1,31.69,145.14Z"/><path class="cls-3" d="M35.67,135.65h1.4v9.94h-1.4ZM40,141.28a1.63,1.63,0,0,0-.39-1.16,1.44,1.44,0,0,0-1.09-.41,1.46,1.46,0,0,0-1.06.36,1.31,1.31,0,0,0-.37,1l-.14-1.36a2.48,2.48,0,0,1,.85-1,2.14,2.14,0,0,1,1.18-.34,2.19,2.19,0,0,1,1.78.75,3.27,3.27,0,0,1,.64,2.14v4.31H40Z"/><path class="cls-3" d="M44.64,145.33a2.44,2.44,0,0,1-1-1.06,3.71,3.71,0,0,1-.35-1.67v-1.16a3.65,3.65,0,0,1,.35-1.65,2.34,2.34,0,0,1,1-1,3.63,3.63,0,0,1,3.15,0,2.36,2.36,0,0,1,1,1,3.65,3.65,0,0,1,.34,1.65v1.18a3.7,3.7,0,0,1-.34,1.66,2.49,2.49,0,0,1-1,1.05,3.63,3.63,0,0,1-3.15,0Zm2.71-1.43a1.9,1.9,0,0,0,.4-1.28v-1.18a1.9,1.9,0,0,0-.4-1.28,1.66,1.66,0,0,0-2.27,0,1.9,1.9,0,0,0-.4,1.28v1.18a1.9,1.9,0,0,0,.4,1.28,1.63,1.63,0,0,0,2.27,0Z"/><path class="cls-3" d="M51.12,138.49h1.4v7.1h-1.4Zm4.31,2.79a1.63,1.63,0,0,0-.39-1.16,1.68,1.68,0,0,0-2.15,0,1.34,1.34,0,0,0-.37,1l-.15-1.36a2.54,2.54,0,0,1,.86-1,2.07,2.07,0,0,1,1.18-.35,2.19,2.19,0,0,1,1.78.75,3.27,3.27,0,0,1,.64,2.14v4.31h-1.4Z"/><path class="cls-3" d="M58.71,144.12h1.46v2.22l-1.46,1.51Z"/><path class="cls-3" d="M66,135.64h1.4v10H66Zm.61,4.41H70a1.3,1.3,0,0,0,.71-.19,1.24,1.24,0,0,0,.47-.54,2,2,0,0,0,0-1.62,1.19,1.19,0,0,0-.47-.54A1.28,1.28,0,0,0,70,137H66.62v-1.32H70a3.18,3.18,0,0,1,1.51.35,2.52,2.52,0,0,1,1,1,3.35,3.35,0,0,1,0,3,2.46,2.46,0,0,1-1,1,3,3,0,0,1-1.5.36H66.62Zm2.71,1,1.39-.31,2.54,4.83H71.6Z"/><path class="cls-3" d="M75.14,135.65H76.4l4.86,7.68-.16.18v-7.86h1.38v9.93H81.2L76.36,138l.16-.18v7.75H75.14Z"/><path class="cls-3" d="M84.94,135.65h1.27l4.86,7.68-.17.18v-7.86h1.38v9.93H91L86.16,138l.16-.18v7.75H84.94Z"/></g></g></svg>