<svg xmlns="http://www.w3.org/2000/svg" viewBox="0 0 67.79 70.55"><defs><style>.cls-1,.cls-2{fill:#fff;}.cls-1{stroke:#fff;stroke-miterlimit:10;}</style></defs><g id="Layer_2" data-name="Layer 2"><g id="Layer_1-2" data-name="Layer 1"><path class="cls-1" d="M67.29,9.19A8.4,8.4,0,0,0,58.59.5Q33.88.71,9.19.5A8.35,8.35,0,0,0,.5,9.19c.17,8.68.05,17.36.05,26s.12,17.36-.05,26a8.37,8.37,0,0,0,8.75,8.78c16.42-.11,32.85,0,49.27,0,5.46,0,8.73-3.28,8.73-8.73C67.26,43.91,67.19,26.55,67.29,9.19Zm-13,26.07c0,4,0,7.91,0,11.86a8.45,8.45,0,0,1-8.46,8.69q-12,.12-24,0a8.47,8.47,0,0,1-8.42-8.62q0-11.92,0-23.86A8.54,8.54,0,0,1,22,14.69q11.93-.09,23.86,0a8.49,8.49,0,0,1,8.46,8.57C54.33,27.26,54.31,31.26,54.31,35.26Z"/><path d="M54.3,23.26a8.49,8.49,0,0,0-8.46-8.57q-11.93-.09-23.86,0a8.54,8.54,0,0,0-8.54,8.64q0,11.94,0,23.86a8.47,8.47,0,0,0,8.42,8.62q12,.12,24,0a8.45,8.45,0,0,0,8.46-8.69c0-3.95,0-7.91,0-11.86S54.33,27.26,54.3,23.26ZM50.82,47a5.09,5.09,0,0,1-5.37,5.39q-11.55.07-23.1,0A5.12,5.12,0,0,1,17,46.86c0-3.87,0-7.74,0-11.61s0-7.74,0-11.61a5.09,5.09,0,0,1,5.42-5.44q11.49,0,23,0a5.11,5.11,0,0,1,5.47,5.4Q50.87,35.27,50.82,47Z"/><path class="cls-2" d="M50.82,23.6a5.11,5.11,0,0,0-5.47-5.4q-11.49,0-23,0A5.09,5.09,0,0,0,17,23.64c0,3.87,0,7.74,0,11.61S17,43,17,46.86a5.12,5.12,0,0,0,5.39,5.48q11.55.07,23.1,0A5.09,5.09,0,0,0,50.82,47Q50.88,35.28,50.82,23.6ZM33.92,46A10.68,10.68,0,1,1,44.57,35.32,10.72,10.72,0,0,1,33.92,46ZM45.31,26.49a2.47,2.47,0,0,1-2.45-2.55,2.51,2.51,0,1,1,2.45,2.55Z"/><path d="M33.91,24.6A10.68,10.68,0,1,0,44.57,35.32,10.66,10.66,0,0,0,33.91,24.6Zm0,17.86a7.18,7.18,0,1,1-.06-14.36,7.18,7.18,0,0,1,.06,14.36Z"/><path class="cls-2" d="M41,35.3a7.17,7.17,0,1,1-7.19-7.2A7.22,7.22,0,0,1,41,35.3Z"/><path d="M47.87,24.05a2.51,2.51,0,1,1-2.51-2.5A2.48,2.48,0,0,1,47.87,24.05Z"/></g></g></svg>