<svg xmlns="http://www.w3.org/2000/svg" viewBox="0 0 40.89 41.22"><defs><style>.cls-1,.cls-2{fill:#fff;}.cls-1{stroke:#fff;stroke-miterlimit:10;}</style></defs><g id="Layer_2" data-name="Layer 2"><g id="Layer_1-2" data-name="Layer 1"><path class="cls-1" d="M38.18,6.8a4.45,4.45,0,0,0-4.61-4.61q-13.11.1-26.2,0A4.44,4.44,0,0,0,2.76,6.8c.09,4.6,0,9.2,0,13.81s.06,9.2,0,13.81A4.44,4.44,0,0,0,7.4,39.07c8.71-.06,17.42,0,26.13,0a4.26,4.26,0,0,0,4.63-4.63C38.16,25.21,38.13,16,38.18,6.8ZM31.3,20.62v6.29a4.49,4.49,0,0,1-4.49,4.61q-6.36.06-12.72,0A4.5,4.5,0,0,1,9.62,27q0-6.33,0-12.65a4.54,4.54,0,0,1,4.53-4.59q6.33,0,12.65,0a4.51,4.51,0,0,1,4.49,4.55C31.31,16.38,31.3,18.5,31.3,20.62Z"/><path d="M40.88,8.61A8.5,8.5,0,0,0,32.41,0Q20.49,0,8.56,0A8.55,8.55,0,0,0,0,8.68Q0,20.62,0,32.54a8.47,8.47,0,0,0,8.43,8.62q12,.12,24,0a8.44,8.44,0,0,0,8.45-8.69c0-3.95,0-7.91,0-11.86S40.9,12.61,40.88,8.61ZM37.39,32.3A5.09,5.09,0,0,1,32,37.69q-11.55.08-23.09,0a5.12,5.12,0,0,1-5.4-5.48c0-3.87,0-7.74,0-11.61s0-7.74,0-11.61A5.09,5.09,0,0,1,9,3.55c7.67,0,15.31,0,23,0A5.1,5.1,0,0,1,37.39,9Q37.45,20.64,37.39,32.3Z"/><path class="cls-2" d="M37.39,9a5.1,5.1,0,0,0-5.46-5.4c-7.67,0-15.31,0-23,0A5.09,5.09,0,0,0,3.53,9c0,3.87,0,7.75,0,11.61s0,7.74,0,11.61a5.12,5.12,0,0,0,5.4,5.48q11.55.08,23.09,0a5.09,5.09,0,0,0,5.37-5.39Q37.46,20.63,37.39,9ZM20.5,31.3A10.68,10.68,0,1,1,31.14,20.68,10.73,10.73,0,0,1,20.5,31.3ZM31.88,11.84a2.46,2.46,0,0,1-2.44-2.55,2.5,2.5,0,1,1,2.44,2.55Z"/><path d="M20.49,10A10.68,10.68,0,1,0,31.14,20.68,10.66,10.66,0,0,0,20.49,10Zm0,17.86a7.18,7.18,0,1,1-.06-14.36,7.18,7.18,0,0,1,.06,14.36Z"/><path class="cls-2" d="M27.62,20.65a7.18,7.18,0,1,1-7.19-7.2A7.23,7.23,0,0,1,27.62,20.65Z"/><path d="M34.44,9.4a2.5,2.5,0,1,1-2.5-2.5A2.47,2.47,0,0,1,34.44,9.4Z"/></g></g></svg>