<svg xmlns="http://www.w3.org/2000/svg" viewBox="0 0 285.22 158.25"><defs><style>.cls-1{fill:#fff;stroke:#231f20;stroke-miterlimit:10;stroke-width:2px;}.cls-2{font-size:23px;font-family:ErasITC-Bold, Eras Bold ITC;font-weight:700;}.cls-2,.cls-3{fill:#231f20;}</style></defs><g id="Layer_2" data-name="Layer 2"><g id="Layer_1-2" data-name="Layer 1"><rect class="cls-1" x="1" y="1" width="283.22" height="156.25"/><text class="cls-2" transform="translate(11.57 34.72)">Predicting Life <tspan x="0" y="27.6">Expectancy</tspan></text><path class="cls-3" d="M14.42,95.18l1.25-2.35,3.17-6.2.37-.78H20.8L22,89.2l2.19,6H22.79c-.12-.43-.33-1.07-.61-1.9s-.53-1.5-.72-2H17.72l-1,2-.87,1.87H14.42Zm3.7-4.82H21.2l-1.27-3.61Z"/><path class="cls-3" d="M28.79,95.18l.17-3,.16-4,0-2.31h1.23l-.15,2.38,0,1.42a4.84,4.84,0,0,1,.28-.47,2,2,0,0,1,.31-.35,1.85,1.85,0,0,1,.39-.3,2.78,2.78,0,0,1,.46-.21,3.56,3.56,0,0,1,.61-.16A4.35,4.35,0,0,1,33,88.1a5,5,0,0,1,1.11.13,2.4,2.4,0,0,1,.91.43,1.52,1.52,0,0,1,.52.72,2.75,2.75,0,0,1,.14.85c0,.11,0,.26,0,.45s0,.61,0,1l-.12,2.51c0,.27,0,.61,0,1H34.2c0-.49.11-1.26.17-2.32s.1-1.79.1-2.2a1.76,1.76,0,0,0-.2-.9,1.28,1.28,0,0,0-.65-.55,2.61,2.61,0,0,0-1-.19,2.76,2.76,0,0,0-1,.16,1.82,1.82,0,0,0-.69.4,2,2,0,0,0-.45.63,3.55,3.55,0,0,0-.26.82,13.38,13.38,0,0,0-.16,1.8c0,.46,0,1.24-.08,2.35H28.79Z"/><path class="cls-3" d="M37.7,89.36a7.05,7.05,0,0,0,.13-.89,12.08,12.08,0,0,1,1.43-.29,9.61,9.61,0,0,1,1.18-.08,5.27,5.27,0,0,1,1.15.12,2.19,2.19,0,0,1,.89.36,1.16,1.16,0,0,1,.47.58,2,2,0,0,1,.12.71c0,.31,0,.84-.07,1.58s-.08,1.42-.11,2,0,1.19,0,1.68H41.63l.14-1.86.11-2.21-.36.26a1.71,1.71,0,0,1-.27.14l-.33.12-.71.2-.74.22a4.46,4.46,0,0,0-.75.3,2.36,2.36,0,0,0-.46.33A1,1,0,0,0,38,93a1.18,1.18,0,0,0-.09.46,1,1,0,0,0,.21.64,1.15,1.15,0,0,0,.56.38,2.62,2.62,0,0,0,.79.1,4.22,4.22,0,0,0,.6,0,4.44,4.44,0,0,0,.84-.2,7.34,7.34,0,0,0-.21.81c-.34.06-.61.1-.82.12s-.41,0-.59,0a4.09,4.09,0,0,1-1.47-.21,1.57,1.57,0,0,1-.78-.67,1.93,1.93,0,0,1-.26-1,1.7,1.7,0,0,1,.09-.57,1.92,1.92,0,0,1,.25-.47,1.7,1.7,0,0,1,.45-.43,2.84,2.84,0,0,1,.61-.35c.21-.09.46-.18.74-.27L40.29,91c.2,0,.37-.09.51-.13l.38-.15a1.08,1.08,0,0,0,.28-.16,1,1,0,0,0,.23-.22.91.91,0,0,0,.15-.27.87.87,0,0,0,0-.28.8.8,0,0,0-.22-.57,1.17,1.17,0,0,0-.57-.33,3,3,0,0,0-.83-.1,5.67,5.67,0,0,0-.91.07,7.48,7.48,0,0,0-.81.17C38.32,89.13,38,89.23,37.7,89.36Z"/><path class="cls-3" d="M44.66,95.18q.33-4.28.34-6.92h1.21l-.09,1.37.28-.44a2.46,2.46,0,0,1,.27-.33,2.78,2.78,0,0,1,.41-.32,2.25,2.25,0,0,1,.54-.24,3.71,3.71,0,0,1,.64-.15,4.74,4.74,0,0,1,.65-.05,4.22,4.22,0,0,1,1.13.15,2,2,0,0,1,.9.46,1.58,1.58,0,0,1,.47.73,3,3,0,0,1,.12.87v.34c0,.17,0,.39,0,.67l-.14,2.86c0,.27,0,.61,0,1H50.13c0-.55.08-1.08.11-1.59L50.33,92c0-.55,0-1,0-1.24a1.9,1.9,0,0,0-.21-1,1.31,1.31,0,0,0-.66-.55,2.49,2.49,0,0,0-1-.2,2.41,2.41,0,0,0-1.36.38,2.22,2.22,0,0,0-.81,1A5,5,0,0,0,46,91.77c-.07.72-.12,1.86-.14,3.41H44.66Z"/><path class="cls-3" d="M59.61,95.2l-.56,0h-.59l.08-1.47a6.24,6.24,0,0,1-.38.59,2.26,2.26,0,0,1-.37.39,2,2,0,0,1-.5.33,2.48,2.48,0,0,1-.63.23,3,3,0,0,1-.74.08,3.41,3.41,0,0,1-1.24-.23,2.73,2.73,0,0,1-1-.69,2.62,2.62,0,0,1-.58-1,4.28,4.28,0,0,1-.18-1.24,4.36,4.36,0,0,1,.34-1.69,3.48,3.48,0,0,1,2.33-2.14,6.19,6.19,0,0,1,1.64-.21,9.13,9.13,0,0,1,1.43.14c0-.5,0-.91,0-1.24s0-.85,0-1.15H60l-.2,3.86-.14,4.43Zm-1-6.1a5.93,5.93,0,0,0-.7-.16,5.59,5.59,0,0,0-.57,0,4,4,0,0,0-1.25.19,2.55,2.55,0,0,0-1,.62,2.67,2.67,0,0,0-.7,1.09,3.57,3.57,0,0,0-.25,1.3,3.06,3.06,0,0,0,.23,1.18,1.85,1.85,0,0,0,.72.86,2.08,2.08,0,0,0,1.14.32,2.25,2.25,0,0,0,.71-.11,1.85,1.85,0,0,0,.59-.31A2.42,2.42,0,0,0,58,93.5a3,3,0,0,0,.37-.81,5.09,5.09,0,0,0,.17-1.09q0-.33.06-1.29Z"/><path class="cls-3" d="M61.13,95.05l0-.5s0-.23-.05-.52a5,5,0,0,0,1.94.46,2,2,0,0,0,.78-.13.9.9,0,0,0,.48-.36.88.88,0,0,0,.17-.5,1,1,0,0,0,0-.29,1.11,1.11,0,0,0-.13-.27,1.73,1.73,0,0,0-.27-.3l-.72-.6c-.37-.3-.65-.53-.83-.69a3.37,3.37,0,0,1-.49-.52,2.17,2.17,0,0,1-.3-.53,1.61,1.61,0,0,1-.09-.54,1.49,1.49,0,0,1,.27-.84,1.72,1.72,0,0,1,.8-.62,3.52,3.52,0,0,1,1.23-.2,8.54,8.54,0,0,1,1.73.19c0,.35,0,.68.07,1A3.92,3.92,0,0,0,64.12,89a2.56,2.56,0,0,0-.75.11,1,1,0,0,0-.51.31.83.83,0,0,0-.16.47.81.81,0,0,0,.06.31,1.15,1.15,0,0,0,.19.33,3.63,3.63,0,0,0,.34.34c.13.12.4.33.79.65a9,9,0,0,1,.81.69,3.26,3.26,0,0,1,.38.47,2.26,2.26,0,0,1,.23.47,2,2,0,0,1,.07.48,1.53,1.53,0,0,1-.29.89,1.79,1.79,0,0,1-.84.64,3.33,3.33,0,0,1-1.26.22l-.69,0-.67-.09Z"/><path class="cls-3" d="M66.22,92c0-.33,0-.64,0-.91.64,0,1.2,0,1.7,0s1.06,0,1.71,0c0,.32-.05.63-.06.91q-.86,0-1.71,0Z"/><path class="cls-3" d="M73.94,88.1a4.41,4.41,0,0,1,1.37.21,2.8,2.8,0,0,1,1.84,1.77,4,4,0,0,1,.25,1.43,4.82,4.82,0,0,1-.26,1.56,3.75,3.75,0,0,1-.74,1.26,2.83,2.83,0,0,1-1.16.76,4.46,4.46,0,0,1-1.48.24,4.52,4.52,0,0,1-1.38-.21,3,3,0,0,1-1.12-.69,2.92,2.92,0,0,1-.72-1.14,3.91,3.91,0,0,1-.25-1.41,4.36,4.36,0,0,1,.45-2,3,3,0,0,1,1.33-1.34A4.15,4.15,0,0,1,73.94,88.1Zm0,.87a2.49,2.49,0,0,0-1.28.35,2,2,0,0,0-.86,1.05,4,4,0,0,0-.28,1.53,3.38,3.38,0,0,0,.23,1.3,2,2,0,0,0,.76.93,2.27,2.27,0,0,0,1.29.36,2.65,2.65,0,0,0,1-.18,2,2,0,0,0,.8-.57,2.72,2.72,0,0,0,.5-1,4.51,4.51,0,0,0,.16-1.23A3.77,3.77,0,0,0,76,90.39a1.94,1.94,0,0,0-.5-.84,2,2,0,0,0-.77-.45A2.8,2.8,0,0,0,73.91,89Z"/><path class="cls-3" d="M78.7,95.18q.33-4.28.34-6.92h1.21l-.09,1.37c.11-.19.21-.34.27-.44a2,2,0,0,1,.28-.33,2.67,2.67,0,0,1,.4-.32,2.53,2.53,0,0,1,.55-.24,3.5,3.5,0,0,1,.64-.15,4.6,4.6,0,0,1,.64-.05,4.3,4.3,0,0,1,1.14.15,2.14,2.14,0,0,1,.9.46,1.67,1.67,0,0,1,.47.73,3,3,0,0,1,.12.87c0,.06,0,.17,0,.34s0,.39,0,.67l-.14,2.86c0,.27,0,.61,0,1H84.17c0-.55.08-1.08.1-1.59L84.36,92c0-.55,0-1,0-1.24a2,2,0,0,0-.2-1,1.35,1.35,0,0,0-.66-.55,2.53,2.53,0,0,0-1-.2,2.39,2.39,0,0,0-1.36.38,2.22,2.22,0,0,0-.81,1,4.62,4.62,0,0,0-.28,1.35c-.07.72-.12,1.86-.15,3.41H78.7Z"/><path class="cls-3" d="M90.69,95.18c.09-1.4.18-3.06.27-5,.05-1.4.1-2.84.13-4.34h1.24l-.21,4L92,93.93l0,1.25H90.69Z"/><path class="cls-3" d="M99.49,94.1c-.06.25-.11.57-.17,1a9.19,9.19,0,0,1-1.14.23,7.72,7.72,0,0,1-1,0,5.2,5.2,0,0,1-1.53-.2,2.74,2.74,0,0,1-1.17-.72,2.92,2.92,0,0,1-.69-1.16A4.75,4.75,0,0,1,94,90a3,3,0,0,1,1.17-1.37,3.63,3.63,0,0,1,2-.5,3.9,3.9,0,0,1,1.19.18,2.41,2.41,0,0,1,1,.55,2.54,2.54,0,0,1,.58.92,3.44,3.44,0,0,1,.2,1.18,2.45,2.45,0,0,1,0,.48H94.83c0,.25,0,.44,0,.58a3,3,0,0,0,.3,1.32,2,2,0,0,0,.89.91,2.8,2.8,0,0,0,1.35.31A6.83,6.83,0,0,0,99.49,94.1Zm-4.61-3.26H99a3.81,3.81,0,0,0,0-.67,1.72,1.72,0,0,0-.18-.49,1.52,1.52,0,0,0-.35-.45,1.58,1.58,0,0,0-.53-.28,2.15,2.15,0,0,0-.68-.1,2.29,2.29,0,0,0-.74.11,2.1,2.1,0,0,0-.62.3,2,2,0,0,0-.46.45,2.26,2.26,0,0,0-.28.49A4.88,4.88,0,0,0,94.88,90.84Z"/><path class="cls-3" d="M101.69,89.36c0-.2.08-.5.13-.89a12,12,0,0,1,1.42-.29,9.75,9.75,0,0,1,1.18-.08,5.2,5.2,0,0,1,1.15.12,2.3,2.3,0,0,1,.9.36,1.28,1.28,0,0,1,.47.58,2,2,0,0,1,.11.71c0,.31,0,.84-.07,1.58s-.08,1.42-.1,2,0,1.19,0,1.68h-1.23l.15-1.86.1-2.21-.36.26a1.71,1.71,0,0,1-.27.14l-.33.12-.7.2-.75.22a4.31,4.31,0,0,0-.74.3,2.09,2.09,0,0,0-.46.33A1.16,1.16,0,0,0,102,93a1.18,1.18,0,0,0-.09.46,1,1,0,0,0,.22.64,1.12,1.12,0,0,0,.55.38,2.69,2.69,0,0,0,.8.1,4.22,4.22,0,0,0,.6,0,4.44,4.44,0,0,0,.84-.2,5.33,5.33,0,0,0-.22.81q-.5.09-.81.12c-.21,0-.41,0-.6,0a4.07,4.07,0,0,1-1.46-.21,1.64,1.64,0,0,1-.79-.67,1.93,1.93,0,0,1-.26-1,1.48,1.48,0,0,1,.1-.57,1.89,1.89,0,0,1,.24-.47,2.07,2.07,0,0,1,.45-.43,3.42,3.42,0,0,1,.61-.35c.21-.09.46-.18.74-.27l1.36-.36.52-.13.37-.15a1.15,1.15,0,0,0,.29-.16.92.92,0,0,0,.22-.22,1.28,1.28,0,0,0,.16-.27.86.86,0,0,0,0-.28.8.8,0,0,0-.22-.57,1.08,1.08,0,0,0-.57-.33,2.9,2.9,0,0,0-.83-.1,5.75,5.75,0,0,0-.91.07c-.31,0-.58.11-.81.17Z"/><path class="cls-3" d="M108.67,95.18c.16-2.63.24-4.72.24-6.29v-.63h1.15l0,1.13a4.79,4.79,0,0,1,.45-.64,1.66,1.66,0,0,1,.44-.35,2.26,2.26,0,0,1,.55-.22,2.82,2.82,0,0,1,.65-.08,2.22,2.22,0,0,1,.57.07c0,.3,0,.64,0,1a3.16,3.16,0,0,0-.75-.11,1.9,1.9,0,0,0-.73.13,1.83,1.83,0,0,0-.58.4,2.27,2.27,0,0,0-.42.65,2.75,2.75,0,0,0-.2.78,17.31,17.31,0,0,0-.12,1.74c0,.62,0,1.27,0,2v.45h-1.22Z"/><path class="cls-3" d="M113.54,95.18q.33-4.28.34-6.92h1.21L115,89.63c.12-.19.21-.34.28-.44a1.87,1.87,0,0,1,.27-.33,2.67,2.67,0,0,1,.4-.32,2.53,2.53,0,0,1,.55-.24,3.5,3.5,0,0,1,.64-.15,4.74,4.74,0,0,1,.65-.05,4.22,4.22,0,0,1,1.13.15,2,2,0,0,1,.9.46,1.58,1.58,0,0,1,.47.73,3,3,0,0,1,.12.87v.34c0,.17,0,.39,0,.67l-.14,2.86c0,.27,0,.61,0,1H119c0-.55.08-1.08.1-1.59L119.2,92c0-.55,0-1,0-1.24a1.9,1.9,0,0,0-.21-1,1.35,1.35,0,0,0-.66-.55,2.53,2.53,0,0,0-1-.2,2.41,2.41,0,0,0-1.36.38,2.22,2.22,0,0,0-.81,1,4.62,4.62,0,0,0-.28,1.35c-.07.72-.12,1.86-.15,3.41h-1.23Z"/><path class="cls-3" d="M122.06,95.18l.12-1.72.13-2.94.06-2.26h1.24c0,.71-.1,1.45-.14,2.23s-.07,1.63-.1,2.55,0,1.63,0,2.14h-1.27Zm.31-8.41c0-.43,0-.75,0-1h1.32c0,.14,0,.46,0,1h-1.3Z"/><path class="cls-3" d="M125.14,95.18c.21-2.85.33-5.16.34-6.92h1.21l-.09,1.37c.11-.19.2-.34.27-.44a2.46,2.46,0,0,1,.27-.33,2.78,2.78,0,0,1,.41-.32,2.25,2.25,0,0,1,.54-.24,3.71,3.71,0,0,1,.64-.15,4.87,4.87,0,0,1,.65-.05,4.35,4.35,0,0,1,1.14.15,2,2,0,0,1,.89.46,1.61,1.61,0,0,1,.48.73,3,3,0,0,1,.12.87c0,.06,0,.17,0,.34s0,.39,0,.67l-.13,2.86c0,.27,0,.61,0,1H130.6c.05-.55.08-1.08.11-1.59L130.8,92c0-.55,0-1,0-1.24a1.9,1.9,0,0,0-.21-1,1.28,1.28,0,0,0-.65-.55,2.54,2.54,0,0,0-1-.2,2.41,2.41,0,0,0-1.36.38,2.36,2.36,0,0,0-.81,1,5,5,0,0,0-.28,1.35c-.07.72-.11,1.86-.14,3.41h-1.23Z"/><path class="cls-3" d="M134.05,97.19a13.46,13.46,0,0,0,1.51.37,7.74,7.74,0,0,0,1.11.09,3.21,3.21,0,0,0,1.05-.16,2.05,2.05,0,0,0,.69-.36,1.44,1.44,0,0,0,.36-.48,3.38,3.38,0,0,0,.26-1c0-.33.07-1,.09-1.94a4.68,4.68,0,0,1-.3.5,1.6,1.6,0,0,1-.36.39,2.18,2.18,0,0,1-.52.36,2.61,2.61,0,0,1-.7.25,3.93,3.93,0,0,1-2-.08,2.42,2.42,0,0,1-1-.56,2.45,2.45,0,0,1-.65-1,3.67,3.67,0,0,1-.23-1.28,4.56,4.56,0,0,1,.34-1.76,3.53,3.53,0,0,1,1-1.39,3.66,3.66,0,0,1,1.44-.8,6.46,6.46,0,0,1,1.76-.23,16.17,16.17,0,0,1,2.62.28l-.08.84-.2,3.84c0,.08,0,.54,0,1.39l0,1.42a4.25,4.25,0,0,1-.12.79,2.81,2.81,0,0,1-.22.53,1.88,1.88,0,0,1-.31.43,2.06,2.06,0,0,1-.42.35,2.23,2.23,0,0,1-.51.26,4.14,4.14,0,0,1-.79.19,5.84,5.84,0,0,1-.93.08,11.43,11.43,0,0,1-1.32-.07,10.06,10.06,0,0,1-1.44-.26l0-.37C134.09,97.7,134.08,97.5,134.05,97.19Zm5.25-8.07a7.38,7.38,0,0,0-1.42-.15,4.43,4.43,0,0,0-1.24.16,2.58,2.58,0,0,0-1,.57,2.81,2.81,0,0,0-.74,1.08,3.61,3.61,0,0,0-.27,1.38,2.85,2.85,0,0,0,.25,1.21,1.74,1.74,0,0,0,.74.82,2.52,2.52,0,0,0,2.14.08,2.18,2.18,0,0,0,.77-.6,2.82,2.82,0,0,0,.52-1,6.16,6.16,0,0,0,.2-1.14C139.23,91.18,139.27,90.36,139.3,89.12Z"/><path class="cls-3" d="M145.42,98.27c.09-1.17.18-2.77.26-4.79s.12-3.68.13-5c.75-.16,1.35-.27,1.79-.32A10.2,10.2,0,0,1,149,88.1a4.82,4.82,0,0,1,1.86.34A2.47,2.47,0,0,1,152,89.63a4.18,4.18,0,0,1,.44,1.92,4.92,4.92,0,0,1-.21,1.44,3.55,3.55,0,0,1-.63,1.24,2.69,2.69,0,0,1-1,.83,3.19,3.19,0,0,1-1.33.27,3.33,3.33,0,0,1-.84-.1,2.62,2.62,0,0,1-.7-.28,2,2,0,0,1-.5-.38,4.88,4.88,0,0,1-.49-.64l-.08,2.71q0,.66,0,1v.67h-1.23ZM147,89.33l0,.52,0,.71c0,.37,0,.67,0,.91s0,.4,0,.49a4.22,4.22,0,0,0,.1,1,1.81,1.81,0,0,0,.43.82,2.13,2.13,0,0,0,2.8.41,2.35,2.35,0,0,0,.82-1.06,4.1,4.1,0,0,0,.29-1.54A3.1,3.1,0,0,0,151,90.1a1.91,1.91,0,0,0-.82-.88A2.53,2.53,0,0,0,149,89,5.82,5.82,0,0,0,147,89.33Z"/><path class="cls-3" d="M153.79,95.18c.16-2.63.24-4.72.24-6.29v-.63h1.16l-.05,1.13a4.06,4.06,0,0,1,.44-.64,1.83,1.83,0,0,1,.44-.35,2.33,2.33,0,0,1,.56-.22,2.75,2.75,0,0,1,.65-.08,2.1,2.1,0,0,1,.56.07c0,.3,0,.64.05,1a3.17,3.17,0,0,0-.76-.11,1.81,1.81,0,0,0-.72.13,1.63,1.63,0,0,0-.58.4,2.27,2.27,0,0,0-.42.65,3.1,3.1,0,0,0-.21.78c0,.32-.08.9-.11,1.74,0,.62,0,1.27,0,2v.45h-1.21Z"/><path class="cls-3" d="M162.15,88.1a4.4,4.4,0,0,1,1.36.21,2.77,2.77,0,0,1,1.13.65,2.93,2.93,0,0,1,.72,1.12,4.25,4.25,0,0,1,.24,1.43,4.56,4.56,0,0,1-.26,1.56,3.59,3.59,0,0,1-.74,1.26,2.7,2.7,0,0,1-1.16.76,4.63,4.63,0,0,1-2.85,0,3,3,0,0,1-1.13-.69,3.17,3.17,0,0,1-.72-1.14,4.14,4.14,0,0,1-.24-1.41,4.36,4.36,0,0,1,.45-2,3,3,0,0,1,1.32-1.34A4.19,4.19,0,0,1,162.15,88.1Zm0,.87a2.43,2.43,0,0,0-1.27.35,2.07,2.07,0,0,0-.87,1.05,4,4,0,0,0-.28,1.53,3.58,3.58,0,0,0,.23,1.3,2,2,0,0,0,.77.93,2.22,2.22,0,0,0,1.28.36,2.61,2.61,0,0,0,1-.18,1.94,1.94,0,0,0,.8-.57,2.57,2.57,0,0,0,.5-1,4.51,4.51,0,0,0,.17-1.23,3.77,3.77,0,0,0-.17-1.13,1.85,1.85,0,0,0-.5-.84,2,2,0,0,0-.76-.45A2.87,2.87,0,0,0,162.11,89Z"/><path class="cls-3" d="M168.48,88.26l-.14,3-.11,3.06q-.06,1.83-.12,2.28a2.76,2.76,0,0,1-.19.8,1.59,1.59,0,0,1-.26.41,1.5,1.5,0,0,1-.4.34,2,2,0,0,1-.56.24,3.65,3.65,0,0,1-.92.1,8.45,8.45,0,0,1-1.8-.21c0-.26,0-.58-.09-1a4.29,4.29,0,0,0,1.49.3,1.78,1.78,0,0,0,.7-.14,1.25,1.25,0,0,0,.46-.29,1.37,1.37,0,0,0,.26-.45,3.72,3.72,0,0,0,.19-.89c0-.5.08-1.24.12-2.2,0-.28,0-1,.08-2.09,0-1.54.07-2.44.07-2.68v-.62h1.23Zm-1.23-1.5c0-.26,0-.58,0-1h1.32c0,.23,0,.55-.05,1h-1.31Z"/><path class="cls-3" d="M175.77,94.1c-.06.25-.11.57-.16,1a10,10,0,0,1-1.14.23,7.72,7.72,0,0,1-1,0,5.27,5.27,0,0,1-1.54-.2,2.65,2.65,0,0,1-1.16-.72,2.83,2.83,0,0,1-.7-1.16,4.75,4.75,0,0,1,.18-3.28,3.07,3.07,0,0,1,1.17-1.37,3.65,3.65,0,0,1,2-.5,3.83,3.83,0,0,1,1.18.18,2.41,2.41,0,0,1,1,.55,2.54,2.54,0,0,1,.58.92,3.21,3.21,0,0,1,.2,1.18,2.45,2.45,0,0,1,0,.48h-5.21c0,.25,0,.44,0,.58a3,3,0,0,0,.3,1.32,2,2,0,0,0,.89.91,2.8,2.8,0,0,0,1.35.31A6.78,6.78,0,0,0,175.77,94.1Zm-4.61-3.26h4.08a4.85,4.85,0,0,0-.06-.67,1.72,1.72,0,0,0-.18-.49,1.37,1.37,0,0,0-.35-.45,1.49,1.49,0,0,0-.53-.28,2.09,2.09,0,0,0-.67-.1,2.35,2.35,0,0,0-.75.11,2.1,2.1,0,0,0-.62.3,2,2,0,0,0-.46.45,2.26,2.26,0,0,0-.28.49A4.88,4.88,0,0,0,171.16,90.84Z"/><path class="cls-3" d="M182.63,94.15c0,.07,0,.2-.08.4s-.07.4-.09.59a7.28,7.28,0,0,1-1,.15c-.31,0-.58,0-.82,0a4.56,4.56,0,0,1-1.36-.19,2.71,2.71,0,0,1-1.09-.66,2.67,2.67,0,0,1-.68-1.12,4.49,4.49,0,0,1-.22-1.42,5.31,5.31,0,0,1,.35-1.91,3,3,0,0,1,1.12-1.42,3.76,3.76,0,0,1,2.09-.51,7,7,0,0,1,1.89.26c0,.39.06.71.08,1A8.56,8.56,0,0,0,181.8,89,4.21,4.21,0,0,0,181,89a2.51,2.51,0,0,0-1.08.22,2.31,2.31,0,0,0-.81.62,2.55,2.55,0,0,0-.48,1,4.28,4.28,0,0,0-.15,1.13,3.54,3.54,0,0,0,.24,1.35,1.75,1.75,0,0,0,.84.9,2.85,2.85,0,0,0,1.34.32A5.52,5.52,0,0,0,182.63,94.15Z"/><path class="cls-3" d="M187.64,94.28c0,.23-.11.52-.17.89a6.94,6.94,0,0,1-.74.14,4.61,4.61,0,0,1-.52,0,2.69,2.69,0,0,1-1-.15,1.24,1.24,0,0,1-.57-.49,1.85,1.85,0,0,1-.2-.92s0-.14,0-.27,0-.57.07-1.33l.17-3.06h-.91c0-.19,0-.47,0-.82h.93c0-.26,0-.69.07-1.31.43-.08.79-.16,1.09-.23,0,.67-.05,1.19-.06,1.54h1.9c0,.28,0,.56,0,.82h-1.89L185.66,93v.29a2,2,0,0,0,.11.75.79.79,0,0,0,.34.36,1.12,1.12,0,0,0,.47.11l.37,0C187.07,94.42,187.3,94.37,187.64,94.28Z"/><path class="cls-3" d="M195.63,94.28c0,.23-.1.52-.16.89a6.94,6.94,0,0,1-.74.14,4.61,4.61,0,0,1-.52,0,2.69,2.69,0,0,1-1-.15,1.14,1.14,0,0,1-.57-.49,1.85,1.85,0,0,1-.2-.92s0-.14,0-.27,0-.57.07-1.33l.17-3.06h-.92c0-.19,0-.47.05-.82h.93c0-.26,0-.69.07-1.31.43-.08.79-.16,1.09-.23,0,.67-.05,1.19-.06,1.54h1.9c0,.28,0,.56,0,.82h-1.89L193.66,93v.29a2,2,0,0,0,.11.75.79.79,0,0,0,.34.36,1.12,1.12,0,0,0,.47.11l.37,0A6.91,6.91,0,0,0,195.63,94.28Z"/><path class="cls-3" d="M200.09,88.1a4.4,4.4,0,0,1,1.36.21,2.84,2.84,0,0,1,1.13.65,2.93,2.93,0,0,1,.72,1.12,4.25,4.25,0,0,1,.24,1.43,4.56,4.56,0,0,1-.26,1.56,3.59,3.59,0,0,1-.74,1.26,2.7,2.7,0,0,1-1.16.76,4.63,4.63,0,0,1-2.85,0,3,3,0,0,1-1.13-.69,3,3,0,0,1-.72-1.14,4.14,4.14,0,0,1-.25-1.41,4.36,4.36,0,0,1,.46-2,3,3,0,0,1,1.32-1.34A4.19,4.19,0,0,1,200.09,88.1Zm0,.87a2.49,2.49,0,0,0-1.28.35,2.06,2.06,0,0,0-.86,1.05,4,4,0,0,0-.28,1.53,3.58,3.58,0,0,0,.23,1.3,2,2,0,0,0,.77.93,2.22,2.22,0,0,0,1.28.36,2.61,2.61,0,0,0,1-.18,2,2,0,0,0,.8-.57,2.57,2.57,0,0,0,.5-1,4.51,4.51,0,0,0,.17-1.23,3.77,3.77,0,0,0-.17-1.13,1.85,1.85,0,0,0-.5-.84,2,2,0,0,0-.76-.45A2.87,2.87,0,0,0,200.05,89Z"/><path class="cls-3" d="M214.89,95.18h-1.15l0-1.32a4,4,0,0,1-.29.48,2.86,2.86,0,0,1-.29.33,2.33,2.33,0,0,1-.37.27,2,2,0,0,1-.44.19,3.89,3.89,0,0,1-.59.15,4.21,4.21,0,0,1-.72,0,3.62,3.62,0,0,1-1.43-.25,2,2,0,0,1-.89-.72,2.23,2.23,0,0,1-.31-1.27c0-.08,0-.22,0-.41s0-.46,0-.77l.11-2.28,0-.73c0-.17,0-.38,0-.64h1.22c-.07.8-.13,1.67-.19,2.62s-.08,1.55-.08,1.82a2,2,0,0,0,.19,1,1.28,1.28,0,0,0,.65.55,2.87,2.87,0,0,0,2,0,2,2,0,0,0,.67-.43,2.39,2.39,0,0,0,.5-.76,3.79,3.79,0,0,0,.21-.88c0-.26.07-.72.1-1.4s.06-1.65.08-2.5h1.21c-.07.82-.14,2.07-.23,3.74Q214.91,93.38,214.89,95.18Z"/><path class="cls-3" d="M216.68,95.18q.33-4.28.34-6.92h1.21l-.09,1.37.28-.44a2.46,2.46,0,0,1,.27-.33,2.67,2.67,0,0,1,.4-.32,2.53,2.53,0,0,1,.55-.24,3.5,3.5,0,0,1,.64-.15,4.74,4.74,0,0,1,.65-.05,4.22,4.22,0,0,1,1.13.15,2,2,0,0,1,.9.46,1.58,1.58,0,0,1,.47.73,3,3,0,0,1,.12.87v.34c0,.17,0,.39,0,.67l-.14,2.86c0,.27,0,.61,0,1h-1.21c0-.55.08-1.08.11-1.59l.08-1.59c0-.55,0-1,0-1.24a1.9,1.9,0,0,0-.21-1,1.31,1.31,0,0,0-.66-.55,2.53,2.53,0,0,0-1-.2,2.41,2.41,0,0,0-1.36.38,2.22,2.22,0,0,0-.81,1,5,5,0,0,0-.28,1.35c-.07.72-.12,1.86-.14,3.41h-1.24Z"/><path class="cls-3" d="M231.63,95.2l-.56,0h-.59l.08-1.47a6.24,6.24,0,0,1-.38.59,2.26,2.26,0,0,1-.37.39,2,2,0,0,1-.5.33,2.48,2.48,0,0,1-.63.23,3,3,0,0,1-.74.08,3.41,3.41,0,0,1-1.24-.23,2.73,2.73,0,0,1-1-.69,2.62,2.62,0,0,1-.58-1,4.28,4.28,0,0,1-.18-1.24,4.36,4.36,0,0,1,.34-1.69,3.48,3.48,0,0,1,2.33-2.14,6.19,6.19,0,0,1,1.64-.21,9.24,9.24,0,0,1,1.43.14c0-.5,0-.91,0-1.24s0-.85,0-1.15H232l-.2,3.86-.14,4.43Zm-1-6.1a5.93,5.93,0,0,0-.7-.16,5.59,5.59,0,0,0-.57,0,4,4,0,0,0-1.25.19,2.55,2.55,0,0,0-1,.62,2.67,2.67,0,0,0-.7,1.09,3.57,3.57,0,0,0-.25,1.3,3.06,3.06,0,0,0,.23,1.18,1.85,1.85,0,0,0,.72.86,2.08,2.08,0,0,0,1.14.32,2.25,2.25,0,0,0,.71-.11,1.85,1.85,0,0,0,.59-.31,2.42,2.42,0,0,0,.49-.55,3,3,0,0,0,.37-.81,5.09,5.09,0,0,0,.17-1.09q0-.33.06-1.29Z"/><path class="cls-3" d="M239.14,94.1c-.06.25-.11.57-.17,1a9.45,9.45,0,0,1-1.13.23,7.72,7.72,0,0,1-1,0,5.27,5.27,0,0,1-1.54-.2,2.65,2.65,0,0,1-1.16-.72,2.83,2.83,0,0,1-.7-1.16,4.75,4.75,0,0,1,.18-3.28,3.07,3.07,0,0,1,1.17-1.37,3.63,3.63,0,0,1,2-.5,3.85,3.85,0,0,1,1.19.18,2.41,2.41,0,0,1,.95.55,2.54,2.54,0,0,1,.58.92,3.21,3.21,0,0,1,.2,1.18,2.45,2.45,0,0,1,0,.48h-5.21c0,.25,0,.44,0,.58a3,3,0,0,0,.3,1.32,2,2,0,0,0,.89.91,2.8,2.8,0,0,0,1.35.31A6.78,6.78,0,0,0,239.14,94.1Zm-4.61-3.26h4.08a4.85,4.85,0,0,0-.06-.67,1.72,1.72,0,0,0-.18-.49,1.37,1.37,0,0,0-.35-.45,1.49,1.49,0,0,0-.53-.28,2.11,2.11,0,0,0-.68-.1,2.29,2.29,0,0,0-.74.11,2.1,2.1,0,0,0-.62.3,2,2,0,0,0-.46.45,2.26,2.26,0,0,0-.28.49A4.88,4.88,0,0,0,234.53,90.84Z"/><path class="cls-3" d="M240.88,95.18c.17-2.63.25-4.72.25-6.29v-.63h1.16l-.06,1.13a4.79,4.79,0,0,1,.45-.64,1.83,1.83,0,0,1,.44-.35,2.18,2.18,0,0,1,.56-.22,2.74,2.74,0,0,1,.64-.08,2.17,2.17,0,0,1,.57.07c0,.3,0,.64.05,1a3.24,3.24,0,0,0-.76-.11,1.81,1.81,0,0,0-.72.13,1.63,1.63,0,0,0-.58.4,2.27,2.27,0,0,0-.42.65,3.1,3.1,0,0,0-.21.78,15.36,15.36,0,0,0-.11,1.74c0,.62,0,1.27,0,2v.45h-1.22Z"/><path class="cls-3" d="M245,92a7.69,7.69,0,0,0,.06-.91c.63,0,1.2,0,1.7,0s1.06,0,1.7,0c0,.32-.05.63-.05.91-.57,0-1.14,0-1.72,0Z"/><path class="cls-3" d="M15.19,111.85l0-.5s0-.23-.05-.52a5,5,0,0,0,1.94.46,2.08,2.08,0,0,0,.79-.13,1,1,0,0,0,.48-.36,1,1,0,0,0,.16-.5,1,1,0,0,0,0-.29,1.11,1.11,0,0,0-.13-.27,2.12,2.12,0,0,0-.26-.3l-.73-.6-.83-.69a3.94,3.94,0,0,1-.49-.52,1.85,1.85,0,0,1-.29-.53,1.4,1.4,0,0,1-.1-.54,1.43,1.43,0,0,1,.28-.84,1.63,1.63,0,0,1,.8-.62,3.47,3.47,0,0,1,1.22-.2,8.54,8.54,0,0,1,1.73.19c0,.35,0,.68.07,1a3.92,3.92,0,0,0-1.51-.31,2.27,2.27,0,0,0-.75.11.92.92,0,0,0-.5.31.76.76,0,0,0-.16.47.81.81,0,0,0,.05.31,1.21,1.21,0,0,0,.2.33,2.61,2.61,0,0,0,.33.34l.79.65A7.71,7.71,0,0,1,19,109a3.26,3.26,0,0,1,.38.47,2.26,2.26,0,0,1,.23.47,1.59,1.59,0,0,1,.07.48,1.52,1.52,0,0,1-.28.89,1.77,1.77,0,0,1-.85.64,3.33,3.33,0,0,1-1.26.22l-.69,0-.67-.09Z"/><path class="cls-3" d="M24.57,111.08c-.05.23-.11.52-.17.89a6.94,6.94,0,0,1-.74.14,4.61,4.61,0,0,1-.52,0,2.69,2.69,0,0,1-1-.15,1.14,1.14,0,0,1-.57-.49,1.85,1.85,0,0,1-.2-.92s0-.14,0-.27,0-.57.07-1.33l.17-3.06h-.92c0-.19,0-.47.05-.82h.93c0-.26.05-.69.07-1.31.43-.08.79-.16,1.09-.23,0,.67-.05,1.19-.06,1.54h1.9c0,.28,0,.56,0,.82H22.77l-.18,3.85v.29a2,2,0,0,0,.11.75.79.79,0,0,0,.34.36,1.12,1.12,0,0,0,.47.11l.37,0C24,111.22,24.23,111.17,24.57,111.08Z"/><path class="cls-3" d="M26,106.16c0-.2.08-.5.13-.89a11.57,11.57,0,0,1,1.42-.29,9.75,9.75,0,0,1,1.18-.08,5.2,5.2,0,0,1,1.15.12,2.3,2.3,0,0,1,.9.36,1.28,1.28,0,0,1,.47.58,2,2,0,0,1,.11.71c0,.31,0,.84-.07,1.58s-.08,1.42-.11,2,0,1.19,0,1.68H29.93l.15-1.86.1-2.21-.36.26a1.71,1.71,0,0,1-.27.14l-.33.12-.71.2-.74.22a4.31,4.31,0,0,0-.74.3,1.88,1.88,0,0,0-.46.33,1.16,1.16,0,0,0-.26.36,1.18,1.18,0,0,0-.09.46,1,1,0,0,0,.22.64,1.12,1.12,0,0,0,.55.38,2.69,2.69,0,0,0,.8.1,4.22,4.22,0,0,0,.6,0,4.44,4.44,0,0,0,.84-.2A5.33,5.33,0,0,0,29,112q-.5.09-.81.12c-.21,0-.41,0-.6,0a4.07,4.07,0,0,1-1.46-.21,1.59,1.59,0,0,1-.79-.67,1.93,1.93,0,0,1-.26-1,1.7,1.7,0,0,1,.09-.57,2.09,2.09,0,0,1,.25-.47,2.07,2.07,0,0,1,.45-.43,3.42,3.42,0,0,1,.61-.35c.21-.09.46-.18.74-.27l1.36-.36c.2,0,.37-.09.52-.13l.37-.15a1.15,1.15,0,0,0,.29-.16,1.12,1.12,0,0,0,.37-.49.66.66,0,0,0,.05-.28.8.8,0,0,0-.22-.57,1.08,1.08,0,0,0-.57-.33,2.9,2.9,0,0,0-.83-.1,5.75,5.75,0,0,0-.91.07c-.31,0-.58.11-.81.17S26.34,106,26,106.16Z"/><path class="cls-3" d="M33,112c.21-2.85.33-5.16.34-6.92h1.21l-.09,1.37c.11-.19.2-.34.27-.44a2,2,0,0,1,.28-.33,2.24,2.24,0,0,1,.4-.32,2,2,0,0,1,.55-.24,3.5,3.5,0,0,1,.64-.15,4.6,4.6,0,0,1,.64,0,4.35,4.35,0,0,1,1.14.15,2.14,2.14,0,0,1,.9.46,1.67,1.67,0,0,1,.47.73,3,3,0,0,1,.12.87c0,.06,0,.17,0,.34s0,.39,0,.66L39.67,111c0,.27,0,.61,0,1H38.44c0-.55.08-1.08.1-1.59l.09-1.59c0-.55,0-1,0-1.24a1.9,1.9,0,0,0-.21-1,1.28,1.28,0,0,0-.65-.55,2.53,2.53,0,0,0-1-.2,2.45,2.45,0,0,0-1.37.38,2.27,2.27,0,0,0-.8,1,4.57,4.57,0,0,0-.29,1.35c-.06.72-.11,1.86-.14,3.41H33Z"/><path class="cls-3" d="M47.92,112l-.56,0h-.6l.08-1.47a6.49,6.49,0,0,1-.37.59,2.33,2.33,0,0,1-.38.39,2.21,2.21,0,0,1-.49.33,2.42,2.42,0,0,1-.64.23,2.87,2.87,0,0,1-.73.08A3.43,3.43,0,0,1,43,111.9a2.73,2.73,0,0,1-1-.69,2.75,2.75,0,0,1-.58-1,4.27,4.27,0,0,1-.17-1.24,4.54,4.54,0,0,1,.33-1.69,3.53,3.53,0,0,1,2.33-2.14,6.25,6.25,0,0,1,1.64-.21A9.13,9.13,0,0,1,47,105c0-.5,0-.91,0-1.24v-1.15h1.24l-.2,3.86-.13,4.43Zm-1-6.1a5.52,5.52,0,0,0-.7-.16l-.56,0a4,4,0,0,0-1.26.19,2.55,2.55,0,0,0-1,.62,2.77,2.77,0,0,0-.7,1.09,3.79,3.79,0,0,0-.25,1.3,2.9,2.9,0,0,0,.24,1.18,1.74,1.74,0,0,0,.72.86,2,2,0,0,0,1.14.32,2.3,2.3,0,0,0,.71-.11,1.8,1.8,0,0,0,.58-.31,2.45,2.45,0,0,0,.5-.55,3.76,3.76,0,0,0,.37-.81,6.79,6.79,0,0,0,.17-1.09c0-.22,0-.65.06-1.29Z"/><path class="cls-3" d="M53.69,106.16c0-.2.09-.5.13-.89a11.69,11.69,0,0,1,1.43-.29,9.61,9.61,0,0,1,1.18-.08,5.27,5.27,0,0,1,1.15.12,2.25,2.25,0,0,1,.89.36,1.16,1.16,0,0,1,.47.58,2,2,0,0,1,.12.71c0,.31,0,.84-.07,1.58s-.09,1.42-.11,2,0,1.19,0,1.68H57.62l.14-1.86.11-2.21-.36.26a1.71,1.71,0,0,1-.27.14l-.33.12-.71.2-.74.22a4.13,4.13,0,0,0-.75.3,2.36,2.36,0,0,0-.46.33,1,1,0,0,0-.34.82,1,1,0,0,0,.21.64,1.17,1.17,0,0,0,.55.38,2.73,2.73,0,0,0,.8.1,4.22,4.22,0,0,0,.6,0,4.44,4.44,0,0,0,.84-.2c-.06.17-.13.44-.22.81q-.49.09-.81.12c-.21,0-.41,0-.59,0a4.09,4.09,0,0,1-1.47-.21,1.57,1.57,0,0,1-.78-.67,1.83,1.83,0,0,1-.26-1,1.7,1.7,0,0,1,.09-.57,1.51,1.51,0,0,1,.25-.47,1.7,1.7,0,0,1,.45-.43,2.84,2.84,0,0,1,.61-.35,7.51,7.51,0,0,1,.74-.27l1.36-.36c.2,0,.37-.09.51-.13l.38-.15a1.08,1.08,0,0,0,.28-.16,1,1,0,0,0,.23-.22.91.91,0,0,0,.15-.27.87.87,0,0,0,.05-.28.85.85,0,0,0-.22-.57,1.17,1.17,0,0,0-.57-.33,3,3,0,0,0-.83-.1,5.88,5.88,0,0,0-.92.07,7.78,7.78,0,0,0-.8.17C54.31,105.93,54,106,53.69,106.16Z"/><path class="cls-3" d="M60.73,112l.06-.76c0-.14,0-.4,0-.77l.19-4.64.08-3.16h1.26c-.06.59-.12,1.42-.17,2.52a9.66,9.66,0,0,1,1.18-.21,6.8,6.8,0,0,1,.9-.06,5,5,0,0,1,1.52.22,2.39,2.39,0,0,1,1.08.73,2.86,2.86,0,0,1,.6,1.11,4.52,4.52,0,0,1,.18,1.29,5.45,5.45,0,0,1-.21,1.51,4,4,0,0,1-.65,1.29,2.48,2.48,0,0,1-1.06.82,3.37,3.37,0,0,1-1.36.26,3,3,0,0,1-.74-.08,2.58,2.58,0,0,1-.63-.24,2,2,0,0,1-.48-.34,2.69,2.69,0,0,1-.32-.38,4.07,4.07,0,0,1-.28-.53l0,1.42H60.73Zm1.39-5.9c0,.76,0,1.26-.07,1.5s0,.53,0,.87a4.39,4.39,0,0,0,.25,1.65A1.73,1.73,0,0,0,63,111a2.05,2.05,0,0,0,1.11.3,2,2,0,0,0,1.23-.37,2.29,2.29,0,0,0,.81-1.1,4.25,4.25,0,0,0,.29-1.54,2.68,2.68,0,0,0-.6-1.82,2.26,2.26,0,0,0-1.8-.69,5.15,5.15,0,0,0-.86.07A8.22,8.22,0,0,0,62.12,106.08Z"/><path class="cls-3" d="M72.44,104.9a4.35,4.35,0,0,1,1.36.21,2.77,2.77,0,0,1,1.13.65,2.71,2.71,0,0,1,.72,1.12,4.26,4.26,0,0,1,.25,1.43,4.47,4.47,0,0,1-.27,1.55,3.68,3.68,0,0,1-.73,1.27,2.8,2.8,0,0,1-1.17.76,4.63,4.63,0,0,1-2.85,0,2.93,2.93,0,0,1-1.12-.69,3.06,3.06,0,0,1-.73-1.14,4.14,4.14,0,0,1-.24-1.41,4.36,4.36,0,0,1,.45-2,3,3,0,0,1,1.32-1.34A4.19,4.19,0,0,1,72.44,104.9Zm0,.87a2.46,2.46,0,0,0-1.28.35,2.07,2.07,0,0,0-.87,1A4.21,4.21,0,0,0,70,108.7a3.38,3.38,0,0,0,.24,1.3,2,2,0,0,0,.76.93,2.24,2.24,0,0,0,1.28.36,2.61,2.61,0,0,0,1-.18,1.88,1.88,0,0,0,.8-.58,2.47,2.47,0,0,0,.51-1,4.51,4.51,0,0,0,.16-1.23,3.77,3.77,0,0,0-.16-1.13,1.87,1.87,0,0,0-.51-.84,2,2,0,0,0-.76-.45A2.8,2.8,0,0,0,72.41,105.77Z"/><path class="cls-3" d="M83.74,112H82.6l0-1.32a4.13,4.13,0,0,1-.28.48,2.24,2.24,0,0,1-.3.33,3.18,3.18,0,0,1-.37.27,2,2,0,0,1-.44.19,3.61,3.61,0,0,1-.59.15,5.55,5.55,0,0,1-.72,0,3.62,3.62,0,0,1-1.43-.25,2,2,0,0,1-.89-.72,2.31,2.31,0,0,1-.31-1.27c0-.08,0-.22,0-.41s0-.46,0-.77l.11-2.28,0-.73c0-.17,0-.38,0-.64h1.22c-.06.8-.13,1.67-.18,2.62s-.09,1.55-.09,1.82a2,2,0,0,0,.19,1,1.27,1.27,0,0,0,.66.55,2.54,2.54,0,0,0,1,.19,2.7,2.7,0,0,0,1-.17,2.2,2.2,0,0,0,.67-.43,2.38,2.38,0,0,0,.49-.76,3.74,3.74,0,0,0,.22-.88c0-.26.06-.72.09-1.4s.06-1.65.08-2.5h1.21c-.06.82-.14,2.07-.23,3.74Q83.76,110.18,83.74,112Z"/><path class="cls-3" d="M89.07,111.08c0,.23-.11.52-.16.89a7.44,7.44,0,0,1-.74.14,4.79,4.79,0,0,1-.52,0,2.65,2.65,0,0,1-1-.15,1.14,1.14,0,0,1-.57-.49,1.75,1.75,0,0,1-.2-.92v-.27c0-.13,0-.57.07-1.33l.17-3.06h-.91c0-.19,0-.47,0-.82h.93c0-.26,0-.69.07-1.31l1.08-.23c0,.67,0,1.19,0,1.54h1.9a7.75,7.75,0,0,0,0,.82h-1.9l-.18,3.85v.29a1.83,1.83,0,0,0,.12.75.72.72,0,0,0,.33.36,1.13,1.13,0,0,0,.48.11l.36,0A6.35,6.35,0,0,0,89.07,111.08Z"/><path class="cls-3" d="M93.72,112l.17-2.57.19-4.8,0-1c0-.26,0-.57,0-.91h6q0,.48-.06,1l-.61,0-.78,0H97.61l-2.24,0-.13,3.2,1.89,0,2.38,0c0,.32-.05.64-.06.94l-2.35,0-1.92,0-.13,3.38h.72c1.29,0,2.14,0,2.57,0l1.48-.06c0,.34-.06.66-.07,1h-6Z"/><path class="cls-3" d="M101.63,112l.2-2.81.2-5.53c0-.23,0-.55,0-1l1.47,0,1.18,0h1.14a8.6,8.6,0,0,1,1.91.18,3,3,0,0,1,1.08.46,3.49,3.49,0,0,1,.87.85,3.83,3.83,0,0,1,.56,1.17,5.62,5.62,0,0,1,.22,1.6,6,6,0,0,1-.4,2.19,4.42,4.42,0,0,1-1.2,1.75,4,4,0,0,1-1.78.92,10,10,0,0,1-2.21.22h-3.25Zm1.32-.91,1.55,0q.6,0,1.23-.06a5.73,5.73,0,0,0,1.12-.21,3,3,0,0,0,1-.57,3.57,3.57,0,0,0,.78-.92,4,4,0,0,0,.46-1.16,5.55,5.55,0,0,0,.15-1.29,5,5,0,0,0-.19-1.37,2.88,2.88,0,0,0-.66-1.13,2.18,2.18,0,0,0-1.09-.68,6.8,6.8,0,0,0-1.67-.17q-1.27,0-2.34,0Z"/><path class="cls-3" d="M110.72,112l1.24-2.35,3.17-6.2.37-.78h1.6l1.18,3.35,2.19,6h-1.38c-.13-.43-.33-1.07-.62-1.9s-.52-1.5-.71-2H114l-1,2-.87,1.87h-1.44Zm3.7-4.82h3.08l-1.27-3.61Z"/><path class="cls-3" d="M125.49,106.16c0-.2.09-.5.13-.89a11.69,11.69,0,0,1,1.43-.29,9.48,9.48,0,0,1,1.18-.08,5.27,5.27,0,0,1,1.15.12,2.25,2.25,0,0,1,.89.36,1.22,1.22,0,0,1,.47.58,2,2,0,0,1,.12.71c0,.31,0,.84-.07,1.58s-.09,1.42-.11,2,0,1.19,0,1.68h-1.22l.14-1.86.1-2.21a4.06,4.06,0,0,1-.36.26,1.59,1.59,0,0,1-.26.14l-.34.12c-.12,0-.35.11-.7.2l-.74.22a4.13,4.13,0,0,0-.75.3,2.09,2.09,0,0,0-.46.33,1.16,1.16,0,0,0-.26.36,1.18,1.18,0,0,0-.09.46,1,1,0,0,0,.22.64,1.17,1.17,0,0,0,.55.38,2.69,2.69,0,0,0,.8.1,4.22,4.22,0,0,0,.6,0,4.44,4.44,0,0,0,.84-.2,6.87,6.87,0,0,0-.22.81q-.5.09-.81.12c-.21,0-.41,0-.6,0a4.07,4.07,0,0,1-1.46-.21,1.57,1.57,0,0,1-.78-.67,1.83,1.83,0,0,1-.26-1,1.7,1.7,0,0,1,.09-.57,1.51,1.51,0,0,1,.25-.47,1.7,1.7,0,0,1,.45-.43,3,3,0,0,1,.6-.35c.22-.09.46-.18.74-.27l1.37-.36c.2,0,.37-.09.51-.13l.37-.15a1.15,1.15,0,0,0,.29-.16,1.19,1.19,0,0,0,.23-.22.91.91,0,0,0,.15-.27.87.87,0,0,0,.05-.28.85.85,0,0,0-.22-.57,1.17,1.17,0,0,0-.57-.33,3,3,0,0,0-.84-.1,5.84,5.84,0,0,0-.91.07,7.78,7.78,0,0,0-.8.17C126.11,105.93,125.83,106,125.49,106.16Z"/><path class="cls-3" d="M132.45,112q.33-4.28.34-6.92H134l-.09,1.37.27-.44a2,2,0,0,1,.28-.33,2.67,2.67,0,0,1,.4-.32,2.13,2.13,0,0,1,.55-.24,3.5,3.5,0,0,1,.64-.15,4.6,4.6,0,0,1,.64,0,4.3,4.3,0,0,1,1.14.15,2.14,2.14,0,0,1,.9.46,1.67,1.67,0,0,1,.47.73,3,3,0,0,1,.12.87c0,.06,0,.17,0,.34s0,.39,0,.66l-.14,2.87c0,.27,0,.61,0,1h-1.21c0-.55.08-1.08.1-1.59l.09-1.59c0-.55,0-1,0-1.24a1.9,1.9,0,0,0-.2-1,1.35,1.35,0,0,0-.66-.55,2.53,2.53,0,0,0-1-.2,2.41,2.41,0,0,0-1.36.38,2.22,2.22,0,0,0-.81,1,4.62,4.62,0,0,0-.28,1.35c-.07.72-.12,1.86-.15,3.41h-1.23Z"/><path class="cls-3" d="M147.4,112l-.56,0h-.59l.08-1.47a6.24,6.24,0,0,1-.38.59,2.26,2.26,0,0,1-.37.39,2.55,2.55,0,0,1-.5.33,2.48,2.48,0,0,1-.63.23,3,3,0,0,1-.74.08,3.37,3.37,0,0,1-1.24-.23,2.64,2.64,0,0,1-1-.69,2.51,2.51,0,0,1-.58-1,4.28,4.28,0,0,1-.18-1.24,4.54,4.54,0,0,1,.33-1.69,3.53,3.53,0,0,1,2.33-2.14,6.3,6.3,0,0,1,1.64-.21,9,9,0,0,1,1.43.14c0-.5,0-.91,0-1.24s0-.85,0-1.15h1.25l-.2,3.86-.14,4.43Zm-1-6.1a5.62,5.62,0,0,0-.71-.16l-.56,0a4,4,0,0,0-1.25.19,2.65,2.65,0,0,0-1.06.62,2.89,2.89,0,0,0-.7,1.09,3.77,3.77,0,0,0-.24,1.3,2.89,2.89,0,0,0,.23,1.18,1.8,1.8,0,0,0,.72.86,2.08,2.08,0,0,0,1.14.32,2.25,2.25,0,0,0,.71-.11,1.8,1.8,0,0,0,.58-.31,2.24,2.24,0,0,0,.5-.55,3.34,3.34,0,0,0,.37-.81,5.82,5.82,0,0,0,.17-1.09q0-.33.06-1.29Z"/><path class="cls-3" d="M160.12,110.79c-.06.33-.12.69-.17,1.07a12.65,12.65,0,0,1-2.47.27,6.22,6.22,0,0,1-1.92-.3,4.37,4.37,0,0,1-1.62-.94,3.71,3.71,0,0,1-1-1.5,5.31,5.31,0,0,1-.32-1.84,6.06,6.06,0,0,1,.35-2,4.23,4.23,0,0,1,1.06-1.66,4.59,4.59,0,0,1,1.71-1,6.32,6.32,0,0,1,2.09-.34,11,11,0,0,1,2.35.25c0,.23,0,.58.07,1.06a7.85,7.85,0,0,0-1.29-.31,7.33,7.33,0,0,0-1-.08,4.81,4.81,0,0,0-1.56.25,3.43,3.43,0,0,0-1.32.79,3.68,3.68,0,0,0-.88,1.35,4.65,4.65,0,0,0-.3,1.66,4.73,4.73,0,0,0,.24,1.51,3,3,0,0,0,.75,1.22,3.26,3.26,0,0,0,1.19.75,4.24,4.24,0,0,0,1.55.27A9,9,0,0,0,160.12,110.79Z"/><path class="cls-3" d="M161.55,112c.09-1.4.18-3.06.27-5,.06-1.4.1-2.84.13-4.34h1.24l-.21,4-.15,4.06,0,1.25h-1.25Z"/><path class="cls-3" d="M168.13,104.9a4.35,4.35,0,0,1,1.36.21,2.77,2.77,0,0,1,1.13.65,2.71,2.71,0,0,1,.72,1.12,4.26,4.26,0,0,1,.25,1.43,4.47,4.47,0,0,1-.27,1.55,3.68,3.68,0,0,1-.73,1.27,2.8,2.8,0,0,1-1.17.76,4.63,4.63,0,0,1-2.85,0,3.05,3.05,0,0,1-1.13-.69,3.17,3.17,0,0,1-.72-1.14,4.14,4.14,0,0,1-.24-1.41,4.36,4.36,0,0,1,.45-2,3,3,0,0,1,1.32-1.34A4.19,4.19,0,0,1,168.13,104.9Zm0,.87a2.46,2.46,0,0,0-1.28.35,2.07,2.07,0,0,0-.87,1,4.21,4.21,0,0,0-.28,1.53,3.38,3.38,0,0,0,.24,1.3,2,2,0,0,0,.76.93,2.22,2.22,0,0,0,1.28.36,2.61,2.61,0,0,0,1-.18,1.88,1.88,0,0,0,.8-.58,2.47,2.47,0,0,0,.51-1,4.51,4.51,0,0,0,.16-1.23,3.77,3.77,0,0,0-.16-1.13,1.87,1.87,0,0,0-.51-.84,2,2,0,0,0-.76-.45A2.85,2.85,0,0,0,168.1,105.77Z"/><path class="cls-3" d="M179.43,112h-1.14l0-1.32a4.13,4.13,0,0,1-.28.48,2.24,2.24,0,0,1-.3.33,3.18,3.18,0,0,1-.37.27,2,2,0,0,1-.44.19,3.61,3.61,0,0,1-.59.15,5.55,5.55,0,0,1-.72,0,3.62,3.62,0,0,1-1.43-.25,2,2,0,0,1-.89-.72,2.31,2.31,0,0,1-.31-1.27c0-.08,0-.22,0-.41s0-.46,0-.77l.11-2.28,0-.73c0-.17,0-.38,0-.64h1.22c-.07.8-.13,1.67-.18,2.62s-.09,1.55-.09,1.82a2,2,0,0,0,.19,1,1.28,1.28,0,0,0,.65.55,2.87,2.87,0,0,0,2,0,2.13,2.13,0,0,0,.68-.43,2.56,2.56,0,0,0,.49-.76,3.74,3.74,0,0,0,.22-.88c0-.26.06-.72.09-1.4s.06-1.65.08-2.5h1.21c-.07.82-.14,2.07-.23,3.74Q179.45,110.18,179.43,112Z"/><path class="cls-3" d="M187.73,112l-.56,0h-.59l.08-1.47a6.24,6.24,0,0,1-.38.59,2.26,2.26,0,0,1-.37.39,2.28,2.28,0,0,1-.5.33,2.48,2.48,0,0,1-.63.23,3,3,0,0,1-.74.08,3.41,3.41,0,0,1-1.24-.23,2.73,2.73,0,0,1-1-.69,2.62,2.62,0,0,1-.58-1,4.28,4.28,0,0,1-.18-1.24,4.36,4.36,0,0,1,.34-1.69,3.5,3.5,0,0,1,.94-1.38,3.57,3.57,0,0,1,1.39-.76,6.19,6.19,0,0,1,1.64-.21,9.24,9.24,0,0,1,1.43.14c0-.5,0-.91,0-1.24s0-.85,0-1.15h1.25l-.2,3.86-.14,4.43Zm-1-6.1a5.93,5.93,0,0,0-.7-.16,5.59,5.59,0,0,0-.57,0,4,4,0,0,0-1.25.19,2.55,2.55,0,0,0-1,.62,2.67,2.67,0,0,0-.7,1.09,3.57,3.57,0,0,0-.25,1.3,3.06,3.06,0,0,0,.23,1.18,1.85,1.85,0,0,0,.72.86,2.08,2.08,0,0,0,1.14.32,2.25,2.25,0,0,0,.71-.11,1.85,1.85,0,0,0,.59-.31,2.42,2.42,0,0,0,.49-.55,3,3,0,0,0,.37-.81,5.09,5.09,0,0,0,.17-1.09q0-.33.06-1.29Z"/><path class="cls-3" d="M193.21,112l.2-2.81.2-5.53c0-.23,0-.55,0-1l1.47,0,1.18,0h1.14a8.6,8.6,0,0,1,1.91.18,3,3,0,0,1,1.08.46,3.49,3.49,0,0,1,.87.85,4.1,4.1,0,0,1,.57,1.17,6.2,6.2,0,0,1-.19,3.79,4.42,4.42,0,0,1-1.2,1.75,4,4,0,0,1-1.78.92,10,10,0,0,1-2.21.22h-3.25Zm1.32-.91,1.55,0q.6,0,1.23-.06a5.73,5.73,0,0,0,1.12-.21,3,3,0,0,0,1-.57,3.57,3.57,0,0,0,.78-.92,4,4,0,0,0,.46-1.16,5.55,5.55,0,0,0,.15-1.29,4.63,4.63,0,0,0-.19-1.37,3,3,0,0,0-.65-1.13,2.25,2.25,0,0,0-1.1-.68,6.8,6.8,0,0,0-1.67-.17q-1.27,0-2.34,0Z"/><path class="cls-3" d="M209.06,110.9c-.05.25-.11.57-.16.95a10,10,0,0,1-1.14.23c-.32,0-.64,0-1,0a5.27,5.27,0,0,1-1.54-.2,2.65,2.65,0,0,1-1.16-.72,2.83,2.83,0,0,1-.7-1.16,4.75,4.75,0,0,1,.18-3.28,3.07,3.07,0,0,1,1.17-1.37,3.65,3.65,0,0,1,2-.5,3.94,3.94,0,0,1,1.19.18,2.44,2.44,0,0,1,.94.55,2.54,2.54,0,0,1,.58.92,3.22,3.22,0,0,1,.21,1.18,2.44,2.44,0,0,1,0,.48H204.4q0,.38,0,.57a3,3,0,0,0,.3,1.33,2,2,0,0,0,.89.91,2.8,2.8,0,0,0,1.35.31A6.78,6.78,0,0,0,209.06,110.9Zm-4.61-3.26h4.08a3.66,3.66,0,0,0-.06-.67,2,2,0,0,0-.17-.49,1.55,1.55,0,0,0-.36-.45,1.41,1.41,0,0,0-.53-.28,2.09,2.09,0,0,0-.67-.1,2.35,2.35,0,0,0-.75.11,2.1,2.1,0,0,0-.62.3,2,2,0,0,0-.46.45,2.76,2.76,0,0,0-.28.49A4.88,4.88,0,0,0,204.45,107.64Z"/><path class="cls-3" d="M210.68,115.07c.09-1.17.18-2.77.26-4.79s.12-3.68.13-5c.75-.16,1.35-.27,1.8-.32a10.09,10.09,0,0,1,1.35-.09,4.77,4.77,0,0,1,1.85.34,2.47,2.47,0,0,1,1.22,1.19,4.18,4.18,0,0,1,.44,1.92,4.92,4.92,0,0,1-.21,1.44,3.53,3.53,0,0,1-.62,1.24,2.72,2.72,0,0,1-1,.83,3.19,3.19,0,0,1-1.33.27,3.33,3.33,0,0,1-.84-.1,2.62,2.62,0,0,1-.7-.28,2.19,2.19,0,0,1-.5-.38,4.88,4.88,0,0,1-.49-.64l-.08,2.71q0,.66,0,1v.67h-1.23Zm1.57-8.94-.05.52,0,.71c0,.37,0,.67,0,.91s0,.4,0,.49a3.72,3.72,0,0,0,.11,1,1.89,1.89,0,0,0,.42.82,2.12,2.12,0,0,0,1.64.76,2.06,2.06,0,0,0,1.16-.35,2.35,2.35,0,0,0,.82-1.06,3.91,3.91,0,0,0,.29-1.54,3.23,3.23,0,0,0-.3-1.45,2,2,0,0,0-.83-.88,2.53,2.53,0,0,0-1.18-.27A5.72,5.72,0,0,0,212.25,106.13Z"/><path class="cls-3" d="M219.08,112c.09-1.4.18-3.06.26-5,.06-1.4.1-2.84.13-4.34h1.25l-.21,4-.16,4.06,0,1.25h-1.25Z"/><path class="cls-3" d="M225.65,104.9a4.41,4.41,0,0,1,1.37.21,2.8,2.8,0,0,1,1.84,1.77,4,4,0,0,1,.25,1.43,4.71,4.71,0,0,1-.26,1.55,3.7,3.7,0,0,1-.74,1.27,2.83,2.83,0,0,1-1.16.76,4.46,4.46,0,0,1-1.48.24,4.52,4.52,0,0,1-1.38-.21,3,3,0,0,1-1.12-.69,2.92,2.92,0,0,1-.72-1.14,3.91,3.91,0,0,1-.25-1.41,4.36,4.36,0,0,1,.45-2,3,3,0,0,1,1.33-1.34A4.15,4.15,0,0,1,225.65,104.9Zm0,.87a2.49,2.49,0,0,0-1.28.35,2,2,0,0,0-.86,1,4,4,0,0,0-.28,1.53,3.38,3.38,0,0,0,.23,1.3,2,2,0,0,0,.76.93,2.27,2.27,0,0,0,1.29.36,2.65,2.65,0,0,0,1-.18,1.94,1.94,0,0,0,.8-.58,2.59,2.59,0,0,0,.5-1,4.51,4.51,0,0,0,.16-1.23,3.77,3.77,0,0,0-.16-1.13,1.94,1.94,0,0,0-.5-.84,2,2,0,0,0-.77-.45A2.8,2.8,0,0,0,225.62,105.77Z"/><path class="cls-3" d="M229.32,115.15c0-.39-.07-.71-.12-1a2.32,2.32,0,0,0,.64.22,2.49,2.49,0,0,0,.5.06,1.58,1.58,0,0,0,.52-.09,1.31,1.31,0,0,0,.41-.26,2.63,2.63,0,0,0,.33-.44c.11-.18.24-.4.37-.65a8.19,8.19,0,0,0,.37-.83L230.88,108l-1.07-3h1.29c.07.32.13.56.18.73s.16.51.33,1l1,3.14c.11.35.23.74.34,1.15l.77-1.89,1.43-3.34.12-.31c0-.11.1-.28.19-.51h1.23c-.18.4-.61,1.35-1.29,2.83l-2.53,5.64a4.73,4.73,0,0,1-.49.86,2.08,2.08,0,0,1-.38.4,1.6,1.6,0,0,1-.37.25,2.38,2.38,0,0,1-.55.19,2.84,2.84,0,0,1-.66.07A4.83,4.83,0,0,1,229.32,115.15Z"/><path class="cls-3" d="M237.3,112l.08-1c0-.21,0-.54.05-1l.16-4.16c0-.34,0-.6,0-.78h1.16l-.07,1.27a5.56,5.56,0,0,1,.43-.61,1.84,1.84,0,0,1,.49-.41,2.6,2.6,0,0,1,.7-.3,3.18,3.18,0,0,1,.82-.11,2.3,2.3,0,0,1,.58.07,2.76,2.76,0,0,1,.53.19,2.19,2.19,0,0,1,.42.28,1.74,1.74,0,0,1,.28.34,2.76,2.76,0,0,1,.21.54,2.48,2.48,0,0,1,1-1.1,3.1,3.1,0,0,1,1.4-.32,2.85,2.85,0,0,1,1,.16,1.68,1.68,0,0,1,.73.45,1.72,1.72,0,0,1,.37.61,2.35,2.35,0,0,1,.09.64c0,.22,0,.55-.05,1s-.07,1.1-.11,2-.06,1.64-.07,2.23H246.3c0-.61.09-1.28.13-2l.08-1.69c0-.41,0-.76,0-1.06a2,2,0,0,0-.08-.62,1.18,1.18,0,0,0-.27-.4,1.33,1.33,0,0,0-.44-.28,1.91,1.91,0,0,0-.61-.09,2,2,0,0,0-.51.06,1.75,1.75,0,0,0-.42.19,1.81,1.81,0,0,0-.41.32,2.25,2.25,0,0,0-.3.42,3.11,3.11,0,0,0-.21.57,6,6,0,0,0-.14,1c0,.42-.06,1-.08,1.67L243,112h-1.22c.05-.56.08-1.14.11-1.74l.08-1.65c0-.51,0-1,0-1.31a2.45,2.45,0,0,0-.07-.59,1.05,1.05,0,0,0-.26-.44,1.1,1.1,0,0,0-.45-.31,1.63,1.63,0,0,0-.59-.11,1.78,1.78,0,0,0-.65.12,2.14,2.14,0,0,0-.57.35,2,2,0,0,0-.43.57,3,3,0,0,0-.28.89,15.85,15.85,0,0,0-.16,1.92c0,.91-.06,1.68-.06,2.3H237.3Z"/><path class="cls-3" d="M255,110.9c-.05.25-.11.57-.16.95a10,10,0,0,1-1.14.23c-.32,0-.64,0-1,0a5.27,5.27,0,0,1-1.54-.2,2.65,2.65,0,0,1-1.16-.72,2.94,2.94,0,0,1-.7-1.16,4.75,4.75,0,0,1,.18-3.28,3.07,3.07,0,0,1,1.17-1.37,3.67,3.67,0,0,1,2-.5,3.94,3.94,0,0,1,1.19.18,2.44,2.44,0,0,1,.94.55,2.54,2.54,0,0,1,.58.92,3.22,3.22,0,0,1,.21,1.18,3.58,3.58,0,0,1,0,.48h-5.22q0,.38,0,.57a3,3,0,0,0,.3,1.33,2,2,0,0,0,.89.91,2.8,2.8,0,0,0,1.35.31A6.78,6.78,0,0,0,255,110.9Zm-4.61-3.26h4.08a3.66,3.66,0,0,0-.06-.67,2,2,0,0,0-.17-.49,1.55,1.55,0,0,0-.36-.45,1.41,1.41,0,0,0-.53-.28,2.09,2.09,0,0,0-.67-.1,2.35,2.35,0,0,0-.75.11,2.1,2.1,0,0,0-.62.3,2,2,0,0,0-.46.45,2.19,2.19,0,0,0-.27.49A3.59,3.59,0,0,0,250.38,107.64Z"/><path class="cls-3" d="M256.71,112c.22-2.85.34-5.16.34-6.92h1.22l-.1,1.37.28-.44a2.46,2.46,0,0,1,.27-.33,2.78,2.78,0,0,1,.41-.32,1.92,1.92,0,0,1,.54-.24,3.71,3.71,0,0,1,.64-.15,4.74,4.74,0,0,1,.65,0,4.22,4.22,0,0,1,1.13.15,2,2,0,0,1,.9.46,1.58,1.58,0,0,1,.47.73,3,3,0,0,1,.12.87v.34q0,.26,0,.66l-.13,2.87c0,.27,0,.61,0,1h-1.21c.05-.55.08-1.08.11-1.59l.09-1.59c0-.55,0-1,0-1.24a1.9,1.9,0,0,0-.21-1,1.27,1.27,0,0,0-.66-.55,2.49,2.49,0,0,0-1-.2,2.41,2.41,0,0,0-1.36.38,2.22,2.22,0,0,0-.81,1,5,5,0,0,0-.28,1.35c-.07.72-.12,1.86-.14,3.41h-1.24Z"/><path class="cls-3" d="M268.69,111.08c-.05.23-.1.52-.16.89a7.44,7.44,0,0,1-.74.14,4.7,4.7,0,0,1-.52,0,2.65,2.65,0,0,1-1-.15,1.14,1.14,0,0,1-.57-.49,1.85,1.85,0,0,1-.2-.92s0-.14,0-.27,0-.57.06-1.33l.17-3.06h-.91c0-.19,0-.47,0-.82h.93c0-.26,0-.69.07-1.31l1.08-.23c0,.67-.05,1.19-.05,1.54h1.9a7.75,7.75,0,0,0,0,.82h-1.9l-.18,3.85v.29a1.83,1.83,0,0,0,.12.75.74.74,0,0,0,.34.36,1,1,0,0,0,.47.11l.36,0A6.35,6.35,0,0,0,268.69,111.08Z"/><path class="cls-3" d="M16,135.65h1.4v9.93H16Zm.72,4.75h3.18a1.48,1.48,0,0,0,.79-.21,1.35,1.35,0,0,0,.53-.6,2.23,2.23,0,0,0,0-1.8,1.35,1.35,0,0,0-.53-.6,1.4,1.4,0,0,0-.79-.22H16.69v-1.32h3.13a3.2,3.2,0,0,1,1.57.37,2.7,2.7,0,0,1,1.05,1.07,3.64,3.64,0,0,1,0,3.2,2.61,2.61,0,0,1-1.05,1.06,3.2,3.2,0,0,1-1.57.38H16.69Z"/><path class="cls-3" d="M24.52,145.14a2.42,2.42,0,0,1-.06-3.23,2.67,2.67,0,0,1,1.8-.52h2l.09,1.12h-2.1a1.2,1.2,0,0,0-.82.24,1,1,0,0,0-.27.74.92.92,0,0,0,.36.8,1.81,1.81,0,0,0,1.09.26,3,3,0,0,0,1.19-.17.55.55,0,0,0,.4-.53l.14,1a1.56,1.56,0,0,1-.45.47,2.11,2.11,0,0,1-.63.27,2.83,2.83,0,0,1-.8.1A2.94,2.94,0,0,1,24.52,145.14Zm3.7-4a1.5,1.5,0,0,0-.38-1.09,1.42,1.42,0,0,0-1.05-.38,2.62,2.62,0,0,0-.83.13,2.21,2.21,0,0,0-.72.36l-1-.7a2.68,2.68,0,0,1,1.06-.75,3.85,3.85,0,0,1,1.47-.27,3.36,3.36,0,0,1,1.51.31,2.07,2.07,0,0,1,.95.9,2.88,2.88,0,0,1,.33,1.43v4.55H28.22Z"/><path class="cls-3" d="M31.66,138.49h1.4v7.09h-1.4ZM36,141.28a1.63,1.63,0,0,0-.39-1.16,1.7,1.7,0,0,0-2.15-.05,1.38,1.38,0,0,0-.37,1l-.15-1.36a2.54,2.54,0,0,1,.86-1,2,2,0,0,1,1.17-.35,2.21,2.21,0,0,1,1.79.75,3.27,3.27,0,0,1,.63,2.14v4.3H36Z"/><path class="cls-3" d="M40.4,145.37a2.22,2.22,0,0,1-.84-1,3.85,3.85,0,0,1-.28-1.56v-1.56a3.9,3.9,0,0,1,.28-1.57,2.16,2.16,0,0,1,.81-1,2.43,2.43,0,0,1,1.29-.33,2.16,2.16,0,0,1,1.15.32,2.47,2.47,0,0,1,.85.93l-.15,1.45a1.73,1.73,0,0,0-.16-.78,1.15,1.15,0,0,0-.47-.48,1.5,1.5,0,0,0-.76-.17,1.34,1.34,0,0,0-1.07.43,1.79,1.79,0,0,0-.38,1.21v1.54a1.74,1.74,0,0,0,.38,1.2,1.36,1.36,0,0,0,1.07.42,1.5,1.5,0,0,0,.76-.18,1.14,1.14,0,0,0,.47-.5,1.74,1.74,0,0,0,.16-.79l.1,1.5a2,2,0,0,1-.69.88,2,2,0,0,1-1.19.36A2.55,2.55,0,0,1,40.4,145.37Zm3.11-9.72h1.4v9.93h-1.4Z"/><path class="cls-3" d="M47.34,145.14a2.42,2.42,0,0,1-.06-3.23,2.67,2.67,0,0,1,1.8-.52h2l.09,1.12h-2.1a1.2,1.2,0,0,0-.82.24,1,1,0,0,0-.27.74.92.92,0,0,0,.36.8,1.81,1.81,0,0,0,1.09.26,3,3,0,0,0,1.19-.17.56.56,0,0,0,.39-.53l.15,1a1.72,1.72,0,0,1-.46.47,1.94,1.94,0,0,1-.62.27,2.87,2.87,0,0,1-.8.1A2.94,2.94,0,0,1,47.34,145.14Zm3.69-4a1.5,1.5,0,0,0-.37-1.09,1.42,1.42,0,0,0-1-.38,2.68,2.68,0,0,0-.84.13,2.21,2.21,0,0,0-.72.36l-1-.7a2.61,2.61,0,0,1,1.06-.75,3.83,3.83,0,0,1,1.46-.27,3.38,3.38,0,0,1,1.52.31,2.18,2.18,0,0,1,1,.9,2.88,2.88,0,0,1,.33,1.43v4.55H51Z"/><path class="cls-3" d="M55.81,145.56a4.33,4.33,0,0,1-1-.36,4.12,4.12,0,0,1-.88-.62l.83-1a4.79,4.79,0,0,0,1.14.66,3.23,3.23,0,0,0,1.12.22,2.41,2.41,0,0,0,1.24-.26.84.84,0,0,0,.41-.77.59.59,0,0,0-.22-.51,1.23,1.23,0,0,0-.56-.23c-.23,0-.54-.07-1-.11h-.34a5.06,5.06,0,0,1-1.17-.2,1.56,1.56,0,0,1-.79-.55,1.77,1.77,0,0,1-.32-1.15,2.33,2.33,0,0,1,.31-1.26,1.82,1.82,0,0,1,.91-.74,4,4,0,0,1,1.53-.25,5.06,5.06,0,0,1,1.05.1,4.88,4.88,0,0,1,1,.3,5.16,5.16,0,0,1,.88.51l-.84,1a4.22,4.22,0,0,0-1.05-.51,3,3,0,0,0-1-.17,1.93,1.93,0,0,0-1.07.24.81.81,0,0,0-.36.73.49.49,0,0,0,.21.43,1.18,1.18,0,0,0,.51.19c.2,0,.49.06.87.08h.26a5.94,5.94,0,0,1,1.27.2,1.71,1.71,0,0,1,.88.6,2,2,0,0,1,.35,1.28,2.28,2.28,0,0,1-.33,1.27,1.89,1.89,0,0,1-1,.75,4.66,4.66,0,0,1-1.66.26A5,5,0,0,1,55.81,145.56Z"/><path class="cls-3" d="M61.5,144.12H63v2.22l-1.46,1.51Z"/><path class="cls-3" d="M70.2,145.58H68.81v-9.93H70.2Z"/><path class="cls-3" d="M72.66,135.65h1.39v9.93H72.66Zm.82,8.64h2.7a2.39,2.39,0,0,0,1.54-.4,1.39,1.39,0,0,0,.49-1.14v0a1.91,1.91,0,0,0-.18-.86,1.15,1.15,0,0,0-.55-.56,2.07,2.07,0,0,0-1-.2h-3v-1.25h3a1.62,1.62,0,0,0,1.16-.37,1.63,1.63,0,0,0,0-2.18,2,2,0,0,0-1.31-.37H73.48v-1.29h3.1a3.53,3.53,0,0,1,1.61.32,2.14,2.14,0,0,1,1,.93,3,3,0,0,1,.33,1.44,2.39,2.39,0,0,1-.2,1,2,2,0,0,1-.61.77,2.21,2.21,0,0,1-1,.42,2.12,2.12,0,0,1,1,.43,2.18,2.18,0,0,1,.67.84,2.56,2.56,0,0,1,.24,1.1v0a2.75,2.75,0,0,1-.36,1.42,2.4,2.4,0,0,1-1,.95,3.42,3.42,0,0,1-1.54.33H73.48Z"/><path class="cls-3" d="M88.84,135.65h1.31v9.93H88.79v-7.44l.07.44-2.45,5.62h-1L83,138.71l.07-.57v7.44H81.7v-9.93H83l2.91,6.56Z"/><path class="cls-3" d="M100.59,135.65h1l2,7.79,1.76-7.79h1.45l-2.43,9.93h-1.42l-1.83-6.94-1.92,6.94H97.77l-2.43-9.93h1.45l1.76,7.79Z"/><path class="cls-3" d="M108.05,145.14a2,2,0,0,1-.65-1.65,2,2,0,0,1,.6-1.58,2.63,2.63,0,0,1,1.8-.52h2l.1,1.12H109.8a1.19,1.19,0,0,0-.81.24,1,1,0,0,0-.27.74.92.92,0,0,0,.36.8,1.79,1.79,0,0,0,1.09.26,3,3,0,0,0,1.19-.17.56.56,0,0,0,.39-.53l.14,1a1.56,1.56,0,0,1-.45.47,2,2,0,0,1-.63.27,2.78,2.78,0,0,1-.8.1A3,3,0,0,1,108.05,145.14Zm3.7-4a1.5,1.5,0,0,0-.37-1.09,1.43,1.43,0,0,0-1.06-.38,2.62,2.62,0,0,0-.83.13,2.21,2.21,0,0,0-.72.36l-1-.7a2.72,2.72,0,0,1,1.07-.75,3.8,3.8,0,0,1,1.46-.27,3.33,3.33,0,0,1,1.51.31,2.15,2.15,0,0,1,1,.9,2.88,2.88,0,0,1,.33,1.43v4.55h-1.33Z"/><path class="cls-3" d="M114.65,138.49h3.2v1.26h-3.2Zm1.13,6.65a2.09,2.09,0,0,1-.4-1.4v-7.32h1.4v7.33a.64.64,0,0,0,.1.4.34.34,0,0,0,.3.14h.67v1.33H117A1.56,1.56,0,0,1,115.78,145.14Z"/><path class="cls-3" d="M121.09,145.56a4.49,4.49,0,0,1-1-.36,4.12,4.12,0,0,1-.88-.62l.83-1a4.79,4.79,0,0,0,1.14.66,3.23,3.23,0,0,0,1.12.22,2.39,2.39,0,0,0,1.24-.26.84.84,0,0,0,.42-.77.59.59,0,0,0-.23-.51,1.23,1.23,0,0,0-.56-.23c-.22,0-.54-.07-.94-.11h-.35a5,5,0,0,1-1.16-.2,1.59,1.59,0,0,1-.8-.55,1.83,1.83,0,0,1-.32-1.15,2.33,2.33,0,0,1,.31-1.26,1.81,1.81,0,0,1,.92-.74,3.93,3.93,0,0,1,1.52-.25,5.22,5.22,0,0,1,1.06.1,5.34,5.34,0,0,1,1,.3,5.58,5.58,0,0,1,.88.51l-.84,1a4.59,4.59,0,0,0-1-.51,3.06,3.06,0,0,0-1-.17,2,2,0,0,0-1.07.24.83.83,0,0,0-.35.73.49.49,0,0,0,.2.43,1.18,1.18,0,0,0,.51.19c.2,0,.5.06.87.08h.26a5.94,5.94,0,0,1,1.27.2,1.71,1.71,0,0,1,.88.6,2,2,0,0,1,.36,1.28,2.28,2.28,0,0,1-.33,1.27,2,2,0,0,1-1,.75,4.63,4.63,0,0,1-1.66.26A5,5,0,0,1,121.09,145.56Z"/><path class="cls-3" d="M128.16,145.32a2.42,2.42,0,0,1-1-1,3.71,3.71,0,0,1-.34-1.67v-1.16a3.65,3.65,0,0,1,.34-1.65,2.47,2.47,0,0,1,1-1,3.74,3.74,0,0,1,3.16,0,2.42,2.42,0,0,1,1,1,3.65,3.65,0,0,1,.35,1.65v1.18a3.67,3.67,0,0,1-.35,1.66,2.39,2.39,0,0,1-1,1,3.56,3.56,0,0,1-3.16,0Zm2.71-1.42a1.85,1.85,0,0,0,.4-1.28v-1.18a1.85,1.85,0,0,0-.4-1.28,1.42,1.42,0,0,0-1.13-.45,1.45,1.45,0,0,0-1.13.45,1.85,1.85,0,0,0-.4,1.28v1.18a1.85,1.85,0,0,0,.4,1.28,1.42,1.42,0,0,0,1.13.46A1.39,1.39,0,0,0,130.87,143.9Z"/><path class="cls-3" d="M134.65,138.49h1.4v7.09h-1.4Zm4.31,2.79a1.63,1.63,0,0,0-.39-1.16,1.7,1.7,0,0,0-2.15-.05,1.38,1.38,0,0,0-.37,1l-.15-1.36a2.54,2.54,0,0,1,.86-1,2,2,0,0,1,1.17-.35,2.21,2.21,0,0,1,1.79.75,3.27,3.27,0,0,1,.63,2.14v4.3H139Z"/><path class="cls-3" d="M148,145.55a5.14,5.14,0,0,1-2.25-1.09l.87-1.07a4.09,4.09,0,0,0,1.25.74,4.48,4.48,0,0,0,1.49.24A3,3,0,0,0,151,144a1.3,1.3,0,0,0,.6-1.14h0a1.18,1.18,0,0,0-.28-.83,1.66,1.66,0,0,0-.69-.45,7.23,7.23,0,0,0-1.11-.27h-.09l-.1,0a12.12,12.12,0,0,1-1.62-.39,2.17,2.17,0,0,1-1.07-.79,2.56,2.56,0,0,1-.45-1.62h0a2.83,2.83,0,0,1,.42-1.57,2.59,2.59,0,0,1,1.2-1,5,5,0,0,1,1.91-.34,4.57,4.57,0,0,1,1.05.12,5.31,5.31,0,0,1,1,.34,6.71,6.71,0,0,1,1,.58l-.8,1.11a4.41,4.41,0,0,0-1.13-.63,3.17,3.17,0,0,0-1.13-.2,2.68,2.68,0,0,0-1.58.4,1.33,1.33,0,0,0-.56,1.15h0a1.09,1.09,0,0,0,.29.81,1.73,1.73,0,0,0,.72.43,11.55,11.55,0,0,0,1.21.29h.1l.08,0h.07a8.12,8.12,0,0,1,1.51.44,2.4,2.4,0,0,1,1,.81,2.62,2.62,0,0,1,.41,1.55h0a2.77,2.77,0,0,1-.43,1.55,2.71,2.71,0,0,1-1.25,1,5.26,5.26,0,0,1-2,.34A6.53,6.53,0,0,1,148,145.55Z"/><path class="cls-3" d="M154.3,138.49h3.2v1.26h-3.2Zm1.14,6.65a2.09,2.09,0,0,1-.4-1.4v-7.32h1.39v7.33a.64.64,0,0,0,.1.4.34.34,0,0,0,.3.14h.67v1.33h-.8A1.53,1.53,0,0,1,155.44,145.14Z"/><path class="cls-3" d="M160.81,142.8a1.63,1.63,0,0,0,.38,1.15,1.37,1.37,0,0,0,1.07.41,1.46,1.46,0,0,0,1.06-.36,1.37,1.37,0,0,0,.38-1l.09,1.48a2,2,0,0,1-1.92,1.24,2.22,2.22,0,0,1-1.81-.76,3.17,3.17,0,0,1-.64-2.13v-4.31h1.39Zm2.89-4.31h1.39v7.09H163.7Z"/><path class="cls-3" d="M168.12,145.37a2.2,2.2,0,0,1-.83-1,3.68,3.68,0,0,1-.29-1.56v-1.56a3.9,3.9,0,0,1,.28-1.57,2.18,2.18,0,0,1,.82-1,2.37,2.37,0,0,1,1.28-.33,2.22,2.22,0,0,1,1.16.32,2.37,2.37,0,0,1,.84.93l-.14,1.45a1.73,1.73,0,0,0-.17-.78,1.09,1.09,0,0,0-.47-.48,1.5,1.5,0,0,0-.76-.17,1.35,1.35,0,0,0-1.07.43,1.79,1.79,0,0,0-.38,1.21v1.54a1.74,1.74,0,0,0,.38,1.2,1.38,1.38,0,0,0,1.07.42,1.5,1.5,0,0,0,.76-.18,1.09,1.09,0,0,0,.47-.5,1.74,1.74,0,0,0,.17-.79l.09,1.5a2,2,0,0,1-.69.88,1.93,1.93,0,0,1-1.19.36A2.55,2.55,0,0,1,168.12,145.37Zm3.12-9.72h1.39v9.93h-1.39Z"/><path class="cls-3" d="M174.75,135.65h1.4V137h-1.4Zm0,2.84h1.4v7.09h-1.4Z"/><path class="cls-3" d="M179.41,145.32a2.31,2.31,0,0,1-1-1,3.58,3.58,0,0,1-.35-1.67v-1.16a3.53,3.53,0,0,1,.35-1.65,2.36,2.36,0,0,1,1-1,3.72,3.72,0,0,1,3.15,0,2.44,2.44,0,0,1,1,1,3.65,3.65,0,0,1,.34,1.65v1.18a3.67,3.67,0,0,1-.34,1.66,2.41,2.41,0,0,1-1,1,3.54,3.54,0,0,1-3.15,0Zm2.71-1.42a1.9,1.9,0,0,0,.4-1.28v-1.18a1.9,1.9,0,0,0-.4-1.28,1.66,1.66,0,0,0-2.27,0,1.9,1.9,0,0,0-.4,1.28v1.18a1.9,1.9,0,0,0,.4,1.28,1.63,1.63,0,0,0,2.27,0Z"/></g></g></svg>