<svg xmlns="http://www.w3.org/2000/svg" viewBox="0 0 39.53 41.17"><defs><style>.cls-1{fill:#fff;}.cls-2{fill:#231f20;}</style></defs><g id="Layer_2" data-name="Layer 2"><g id="Layer_1-2" data-name="Layer 1"><path class="cls-1" d="M39.14,20.62V35.9a4.55,4.55,0,0,1-4.8,4.87q-14.58,0-29.15,0a4.58,4.58,0,0,1-4.8-4.89V5.31A4.63,4.63,0,0,1,5.32.39H34.25a4.6,4.6,0,0,1,4.89,4.94Zm-22-3.43V30.85H21a1.86,1.86,0,0,0,.05-.19c0-2.18,0-4.35,0-6.53a8.71,8.71,0,0,1,.15-1.69,2.26,2.26,0,0,1,2.38-1.91,2.1,2.1,0,0,1,2.22,1.86,9.4,9.4,0,0,1,.16,1.84c0,2,0,3.95,0,5.93v.68h4.12c0-2.68,0-5.3,0-7.91a13.37,13.37,0,0,0-.16-2,3.88,3.88,0,0,0-3.41-3.65c-2.06-.29-4-.25-5.63,1.68V17.19Zm-7.57,0V30.85h4.7V17.18Zm2.35-2.11a2.39,2.39,0,1,0,0-4.78,2.39,2.39,0,1,0,0,4.78Z"/><path class="cls-2" d="M19.61,41.17H5.18A5,5,0,0,1,0,35.88V5.31A5,5,0,0,1,5.32,0H34.25a5,5,0,0,1,5.28,5.33V35.9a5,5,0,0,1-5.19,5.26Zm.76-38.35H6.81A3.81,3.81,0,0,0,2.74,6.89V34.3a3.74,3.74,0,0,0,4,4c8.49,0,17.29,0,26.15,0a3.73,3.73,0,0,0,3.95-4V6.91a3.76,3.76,0,0,0-4-4.08ZM21,31.24H16.7V16.8h4.55V18c1.59-1.39,3.47-1.36,5.29-1.1a4.28,4.28,0,0,1,3.75,4,15.19,15.19,0,0,1,.16,2c0,1.91,0,3.81,0,5.73v2.58h-4.9V28.5c0-1.42,0-2.85,0-4.27a8.65,8.65,0,0,0-.15-1.76,1.71,1.71,0,0,0-1.83-1.55h0a1.87,1.87,0,0,0-2,1.6,8.5,8.5,0,0,0-.14,1.62c0,1.5,0,3,0,4.51v2a.66.66,0,0,1,0,.23l-.09.26Zm-3.48-.78h3.14V28.65c0-1.51,0-3,0-4.52a9.3,9.3,0,0,1,.16-1.77,2.66,2.66,0,0,1,2.75-2.22h0a2.49,2.49,0,0,1,2.59,2.17,9.64,9.64,0,0,1,.17,1.91c0,1.43,0,2.86,0,4.28v1.95h3.34v-1.8c0-1.92,0-3.82,0-5.72A13.71,13.71,0,0,0,29.52,21a3.48,3.48,0,0,0-3.09-3.32c-2.15-.31-3.87-.17-5.27,1.54l-.69.84V17.58h-3Zm-2.87.78H9.13V16.79h5.48Zm-4.7-.78h3.93V17.57H9.91Zm2-15h0a2.82,2.82,0,0,1-2-.82,2.73,2.73,0,0,1-.82-2,2.8,2.8,0,0,1,2.8-2.78h0a2.77,2.77,0,0,1,2.79,2.79,2.75,2.75,0,0,1-.8,2A2.81,2.81,0,0,1,11.87,15.46Zm0-.78h0a2.05,2.05,0,0,0,1.44-.58,2,2,0,0,0,.57-1.41,2,2,0,0,0-.58-1.43,2,2,0,0,0-1.43-.58h0a2,2,0,0,0-2,2,2,2,0,0,0,.59,1.41,2,2,0,0,0,1.43.59Z"/><path d="M17.09,17.19h3.77V19c1.58-1.93,3.57-2,5.63-1.68a3.88,3.88,0,0,1,3.41,3.65,13.37,13.37,0,0,1,.16,2c0,2.61,0,5.23,0,7.91H26v-.68c0-2,0-4,0-5.93a9.4,9.4,0,0,0-.16-1.84,2.1,2.1,0,0,0-2.22-1.86,2.26,2.26,0,0,0-2.38,1.91A8.71,8.71,0,0,0,21,24.13c0,2.18,0,4.35,0,6.53a1.86,1.86,0,0,1-.05.19H17.09Z"/><path d="M9.52,17.18h4.7V30.85H9.52Z"/><path d="M11.87,15.07a2.39,2.39,0,1,1,2.4-2.38A2.37,2.37,0,0,1,11.87,15.07Z"/></g></g></svg>