<svg xmlns="http://www.w3.org/2000/svg" viewBox="0 0 285.22 158.25"><defs><style>.cls-1{fill:#fff;stroke:#231f20;stroke-miterlimit:10;stroke-width:2px;}.cls-2{font-size:23px;font-family:ErasITC-Bold, Eras Bold ITC;font-weight:700;}.cls-2,.cls-3{fill:#231f20;}</style></defs><g id="Layer_2" data-name="Layer 2"><g id="Layer_1-2" data-name="Layer 1"><rect class="cls-1" x="1" y="1" width="283.22" height="156.25"/><text class="cls-2" transform="translate(11.57 34.72)">Recommendation <tspan x="0" y="27.6">System</tspan></text><path class="cls-3" d="M14.42,95.18l1.25-2.35,3.17-6.2.37-.78H20.8L22,89.2l2.19,6H22.79c-.12-.43-.33-1.07-.61-1.9s-.53-1.5-.72-2H17.72l-1,2-.87,1.87H14.42Zm3.7-4.81H21.2l-1.27-3.62Z"/><path class="cls-3" d="M28.74,95.18c.16-2.63.24-4.72.24-6.29v-.63h1.16l-.05,1.13a4.06,4.06,0,0,1,.44-.64A1.83,1.83,0,0,1,31,88.4a2.33,2.33,0,0,1,.56-.22,2.75,2.75,0,0,1,.65-.08,2.1,2.1,0,0,1,.56.07c0,.3,0,.64.05,1a3.17,3.17,0,0,0-.76-.11,1.85,1.85,0,0,0-.72.13,1.73,1.73,0,0,0-.58.4,2.27,2.27,0,0,0-.42.65,3.1,3.1,0,0,0-.21.78c0,.32-.08.9-.11,1.74,0,.62,0,1.27,0,2v.45H28.74Z"/><path class="cls-3" d="M39.32,94.1c-.06.25-.11.57-.17,1a9.19,9.19,0,0,1-1.14.23,7.72,7.72,0,0,1-1,0,5.2,5.2,0,0,1-1.53-.2,2.74,2.74,0,0,1-1.17-.72,2.92,2.92,0,0,1-.69-1.16A4.75,4.75,0,0,1,33.84,90,3,3,0,0,1,35,88.6a3.63,3.63,0,0,1,2-.5,3.9,3.9,0,0,1,1.19.18,2.41,2.41,0,0,1,1,.55,2.54,2.54,0,0,1,.58.92,3.44,3.44,0,0,1,.2,1.18,2.45,2.45,0,0,1,0,.48H34.66c0,.25,0,.44,0,.58a2.94,2.94,0,0,0,.3,1.32,2,2,0,0,0,.89.91,2.81,2.81,0,0,0,1.35.32A6.89,6.89,0,0,0,39.32,94.1Zm-4.61-3.26h4.07a3.81,3.81,0,0,0-.05-.67,1.72,1.72,0,0,0-.18-.49,1.52,1.52,0,0,0-.35-.45,1.58,1.58,0,0,0-.53-.28,2.15,2.15,0,0,0-.68-.1,2.29,2.29,0,0,0-.74.11,2.1,2.1,0,0,0-.62.3,2,2,0,0,0-.46.45,2.26,2.26,0,0,0-.28.49A5.38,5.38,0,0,0,34.71,90.84Z"/><path class="cls-3" d="M40.76,95.05l0-.5s0-.23-.06-.52a5,5,0,0,0,2,.46,2,2,0,0,0,.78-.13.9.9,0,0,0,.48-.36.87.87,0,0,0,.16-.5,1,1,0,0,0,0-.29,1.11,1.11,0,0,0-.13-.27,1.73,1.73,0,0,0-.27-.3l-.72-.6c-.37-.3-.65-.53-.83-.69a3.37,3.37,0,0,1-.49-.52,2.17,2.17,0,0,1-.3-.53,1.61,1.61,0,0,1-.09-.54,1.49,1.49,0,0,1,.27-.84,1.67,1.67,0,0,1,.8-.62,3.52,3.52,0,0,1,1.23-.2,8.61,8.61,0,0,1,1.73.19c0,.35,0,.68.07,1A4,4,0,0,0,43.75,89a2.56,2.56,0,0,0-.75.11,1,1,0,0,0-.51.31.83.83,0,0,0-.16.47.81.81,0,0,0,.06.31,1.15,1.15,0,0,0,.19.33,2.72,2.72,0,0,0,.34.34c.13.12.4.33.79.65s.66.54.81.69a3.26,3.26,0,0,1,.38.47,2.26,2.26,0,0,1,.23.47,2,2,0,0,1,.07.48,1.53,1.53,0,0,1-.29.89,1.79,1.79,0,0,1-.84.64,3.37,3.37,0,0,1-1.26.22l-.69,0-.67-.09Z"/><path class="cls-3" d="M52.31,94.1c-.06.25-.11.57-.17,1a9.57,9.57,0,0,1-1.14.23,7.72,7.72,0,0,1-1,0,5.16,5.16,0,0,1-1.53-.2,2.68,2.68,0,0,1-1.17-.72,2.92,2.92,0,0,1-.69-1.16,4.26,4.26,0,0,1-.22-1.39A4.57,4.57,0,0,1,46.82,90,3,3,0,0,1,48,88.6a3.63,3.63,0,0,1,2-.5,3.9,3.9,0,0,1,1.19.18,2.37,2.37,0,0,1,.94.55,2.43,2.43,0,0,1,.59.92,3.44,3.44,0,0,1,.2,1.18,2.45,2.45,0,0,1,0,.48H47.64c0,.25,0,.44,0,.58a2.94,2.94,0,0,0,.3,1.32,2,2,0,0,0,.89.91,2.81,2.81,0,0,0,1.35.32A6.89,6.89,0,0,0,52.31,94.1ZM47.7,90.84h4.07a3.81,3.81,0,0,0-.05-.67,1.72,1.72,0,0,0-.18-.49,1.52,1.52,0,0,0-.35-.45,1.58,1.58,0,0,0-.53-.28,2.15,2.15,0,0,0-.68-.1,2.25,2.25,0,0,0-.74.11,2.1,2.1,0,0,0-.62.3,2,2,0,0,0-.46.45,1.91,1.91,0,0,0-.28.49A5.38,5.38,0,0,0,47.7,90.84Z"/><path class="cls-3" d="M54.51,89.36c0-.2.08-.5.13-.89a11.57,11.57,0,0,1,1.42-.29,9.61,9.61,0,0,1,1.18-.08,5.2,5.2,0,0,1,1.15.12,2.3,2.3,0,0,1,.9.36,1.28,1.28,0,0,1,.47.58,2.35,2.35,0,0,1,.11.71c0,.31,0,.84-.07,1.58s-.08,1.42-.11,2,0,1.19,0,1.68H58.43l.15-1.86.1-2.21-.36.26a1.71,1.71,0,0,1-.27.14l-.33.12-.71.2-.74.22a4.31,4.31,0,0,0-.74.3,2.18,2.18,0,0,0-.46.33,1,1,0,0,0-.26.36,1.18,1.18,0,0,0-.09.46,1,1,0,0,0,.22.64,1.12,1.12,0,0,0,.55.38,2.62,2.62,0,0,0,.79.1,4.26,4.26,0,0,0,.61,0,4.44,4.44,0,0,0,.84-.2,5.7,5.7,0,0,0-.22.81c-.34.06-.61.1-.82.12s-.4,0-.59,0a4.07,4.07,0,0,1-1.46-.21,1.59,1.59,0,0,1-.79-.67,1.93,1.93,0,0,1-.26-1,1.7,1.7,0,0,1,.09-.57,1.92,1.92,0,0,1,.25-.47,2.07,2.07,0,0,1,.45-.43,3.1,3.1,0,0,1,.61-.35c.21-.09.46-.18.74-.27L57.09,91l.51-.14.38-.15a.9.9,0,0,0,.29-.16,1.14,1.14,0,0,0,.22-.22.91.91,0,0,0,.15-.27.86.86,0,0,0,0-.27.81.81,0,0,0-.22-.58,1.08,1.08,0,0,0-.57-.33,2.9,2.9,0,0,0-.83-.1,5.67,5.67,0,0,0-.91.07c-.31,0-.58.11-.81.17S54.84,89.23,54.51,89.36Z"/><path class="cls-3" d="M61.49,95.18c.16-2.63.24-4.72.24-6.29v-.63h1.15l-.05,1.13a4.87,4.87,0,0,1,.44-.64,1.83,1.83,0,0,1,.44-.35,2.33,2.33,0,0,1,.56-.22,2.75,2.75,0,0,1,.65-.08,2.22,2.22,0,0,1,.57.07c0,.3,0,.64,0,1a3.17,3.17,0,0,0-.76-.11,1.85,1.85,0,0,0-.72.13,1.73,1.73,0,0,0-.58.4,2.27,2.27,0,0,0-.42.65,3.1,3.1,0,0,0-.21.78c0,.32-.08.9-.11,1.74,0,.62,0,1.27,0,2v.45H61.49Z"/><path class="cls-3" d="M71.49,94.15a3,3,0,0,1-.07.4c0,.2-.07.4-.1.59a6.8,6.8,0,0,1-1,.15c-.31,0-.57,0-.81,0a4.56,4.56,0,0,1-1.36-.19,2.71,2.71,0,0,1-1.09-.66,2.67,2.67,0,0,1-.68-1.12,4.49,4.49,0,0,1-.22-1.42A5.1,5.1,0,0,1,66.55,90a3,3,0,0,1,1.12-1.41,3.65,3.65,0,0,1,2.09-.52,7,7,0,0,1,1.89.26c0,.39,0,.71.08,1A9,9,0,0,0,70.67,89a5.5,5.5,0,0,0-.76-.07,2.51,2.51,0,0,0-1.08.22,2.23,2.23,0,0,0-.81.62,2.55,2.55,0,0,0-.48,1,4.28,4.28,0,0,0-.15,1.13,3.54,3.54,0,0,0,.24,1.35,1.75,1.75,0,0,0,.84.9,2.85,2.85,0,0,0,1.34.32A5.42,5.42,0,0,0,71.49,94.15Z"/><path class="cls-3" d="M73.05,95.18l.17-3,.15-4,0-2.31h1.24l-.15,2.38-.06,1.42a4.84,4.84,0,0,1,.28-.47,2.43,2.43,0,0,1,.31-.35,3.4,3.4,0,0,1,.39-.3,2.78,2.78,0,0,1,.46-.21,5.31,5.31,0,0,1,.61-.16,4.56,4.56,0,0,1,.75-.06,5.11,5.11,0,0,1,1.11.13,2.47,2.47,0,0,1,.91.43,1.59,1.59,0,0,1,.52.72,2.75,2.75,0,0,1,.14.85c0,.11,0,.26,0,.45s0,.61,0,1l-.12,2.51c0,.27,0,.61,0,1H78.45c0-.49.11-1.26.18-2.32s.1-1.79.1-2.2a1.87,1.87,0,0,0-.2-.9,1.27,1.27,0,0,0-.66-.55,2.54,2.54,0,0,0-1-.19,2.67,2.67,0,0,0-.95.16,2,2,0,0,0-.69.4,1.81,1.81,0,0,0-.45.63,3.13,3.13,0,0,0-.26.82,13.09,13.09,0,0,0-.17,1.8c0,.46,0,1.24-.07,2.35H73.05Z"/><path class="cls-3" d="M84.88,98.27c.09-1.17.18-2.77.26-4.79s.12-3.68.13-5c.75-.16,1.35-.26,1.79-.32a10.2,10.2,0,0,1,1.35-.09,4.79,4.79,0,0,1,1.86.34,2.47,2.47,0,0,1,1.22,1.19,4.18,4.18,0,0,1,.44,1.92A4.92,4.92,0,0,1,91.72,93a3.53,3.53,0,0,1-.62,1.24,2.72,2.72,0,0,1-1,.83,3.19,3.19,0,0,1-1.33.27,3.33,3.33,0,0,1-.84-.1,2.62,2.62,0,0,1-.7-.28,2,2,0,0,1-.5-.38,4.88,4.88,0,0,1-.49-.64l-.08,2.71q0,.66,0,1v.67H84.88Zm1.56-8.94,0,.52,0,.71c0,.37,0,.67,0,.91s0,.4,0,.49a4.22,4.22,0,0,0,.1,1,2,2,0,0,0,.43.83,2.17,2.17,0,0,0,.75.56,2.13,2.13,0,0,0,2-.16,2.35,2.35,0,0,0,.82-1.06,4.1,4.1,0,0,0,.29-1.54,3.1,3.1,0,0,0-.31-1.45,1.91,1.91,0,0,0-.82-.88A2.53,2.53,0,0,0,88.44,89,6.07,6.07,0,0,0,86.44,89.33Z"/><path class="cls-3" d="M99.77,95.18H98.63l0-1.31a4.84,4.84,0,0,1-.28.47,2.24,2.24,0,0,1-.3.33,1.84,1.84,0,0,1-.37.27,2,2,0,0,1-.44.19,3.61,3.61,0,0,1-.59.15,4.14,4.14,0,0,1-.72,0,3.62,3.62,0,0,1-1.43-.25,2,2,0,0,1-.89-.72,2.32,2.32,0,0,1-.3-1.27c0-.08,0-.22,0-.41s0-.46,0-.77l.11-2.28,0-.73c0-.17,0-.38,0-.64h1.22c-.06.8-.13,1.67-.18,2.62s-.09,1.55-.09,1.82a2.15,2.15,0,0,0,.19,1,1.27,1.27,0,0,0,.66.55,2.54,2.54,0,0,0,1,.2,2.7,2.7,0,0,0,1-.18A2.2,2.2,0,0,0,98,93.8a2.38,2.38,0,0,0,.49-.76,3.74,3.74,0,0,0,.22-.88c0-.26.06-.72.09-1.4s.06-1.65.08-2.5h1.21c-.06.82-.14,2.07-.23,3.74Q99.79,93.38,99.77,95.18Z"/><path class="cls-3" d="M101.64,95.18l.06-.76c0-.14,0-.4,0-.77l.19-4.64.08-3.16h1.26c-.06.59-.12,1.43-.17,2.52a9.66,9.66,0,0,1,1.18-.21,7,7,0,0,1,.9-.06,5,5,0,0,1,1.52.22,2.34,2.34,0,0,1,1.08.73,2.89,2.89,0,0,1,.61,1.11,4.57,4.57,0,0,1,.18,1.29,5.46,5.46,0,0,1-.22,1.51,3.82,3.82,0,0,1-.65,1.29,2.59,2.59,0,0,1-1.06.83,3.49,3.49,0,0,1-1.35.25,3,3,0,0,1-.75-.08,2.94,2.94,0,0,1-.63-.24,1.89,1.89,0,0,1-.47-.34,2.8,2.8,0,0,1-.33-.38,5.84,5.84,0,0,1-.28-.53l0,1.42h-1.17Zm1.4-5.89c0,.75-.06,1.25-.07,1.49s0,.54,0,.87a4.42,4.42,0,0,0,.24,1.65,1.77,1.77,0,0,0,.74.87,2.1,2.1,0,0,0,1.11.3,2.07,2.07,0,0,0,1.24-.37,2.29,2.29,0,0,0,.8-1.1,4.25,4.25,0,0,0,.29-1.54,2.68,2.68,0,0,0-.6-1.82A2.26,2.26,0,0,0,105,89a5.24,5.24,0,0,0-.86.07A8,8,0,0,0,103,89.29Z"/><path class="cls-3" d="M109.91,95.18c.09-1.4.18-3.06.27-5,.06-1.4.1-2.84.13-4.34h1.24l-.21,4-.15,4.06,0,1.25h-1.25Z"/><path class="cls-3" d="M113.08,95.18l.12-1.72.13-2.94,0-2.26h1.25c0,.71-.1,1.45-.14,2.23s-.08,1.63-.1,2.55,0,1.63,0,2.14h-1.27Zm.31-8.41c0-.43,0-.75,0-1h1.32c0,.14,0,.46,0,1h-1.3Z"/><path class="cls-3" d="M121.29,94.15c0,.07,0,.2-.08.4s-.07.4-.09.59a7.28,7.28,0,0,1-1,.15c-.31,0-.58,0-.81,0a4.58,4.58,0,0,1-1.37-.19,2.71,2.71,0,0,1-1.09-.66,2.67,2.67,0,0,1-.68-1.12,4.49,4.49,0,0,1-.22-1.42,5.31,5.31,0,0,1,.35-1.91,3,3,0,0,1,1.13-1.41,3.62,3.62,0,0,1,2.08-.52,7,7,0,0,1,1.89.26c0,.39.06.71.08,1a8.56,8.56,0,0,0-1.06-.28,5.37,5.37,0,0,0-.76-.07,2.44,2.44,0,0,0-1.07.22,2.26,2.26,0,0,0-.82.62,2.55,2.55,0,0,0-.48,1,4.27,4.27,0,0,0-.14,1.13,3.74,3.74,0,0,0,.23,1.35,1.75,1.75,0,0,0,.84.9,2.86,2.86,0,0,0,1.35.32A5.52,5.52,0,0,0,121.29,94.15Z"/><path class="cls-3" d="M123.24,89.36c0-.2.09-.5.13-.89a11.69,11.69,0,0,1,1.43-.29A9.48,9.48,0,0,1,126,88.1a5.27,5.27,0,0,1,1.15.12,2.25,2.25,0,0,1,.89.36,1.16,1.16,0,0,1,.47.58,2.08,2.08,0,0,1,.12.71c0,.31,0,.84-.07,1.58s-.09,1.42-.11,2,0,1.19,0,1.68h-1.22l.14-1.86.11-2.21-.36.26a1.71,1.71,0,0,1-.27.14l-.34.12-.7.2-.74.22a4.13,4.13,0,0,0-.75.3,2.87,2.87,0,0,0-.46.33,1.16,1.16,0,0,0-.26.36,1.18,1.18,0,0,0-.09.46,1,1,0,0,0,.22.64,1.17,1.17,0,0,0,.55.38,2.69,2.69,0,0,0,.8.1,4.22,4.22,0,0,0,.6,0,4.44,4.44,0,0,0,.84-.2c-.06.17-.13.45-.22.81q-.49.09-.81.12c-.21,0-.41,0-.59,0a4.09,4.09,0,0,1-1.47-.21,1.57,1.57,0,0,1-.78-.67,1.83,1.83,0,0,1-.26-1,1.7,1.7,0,0,1,.09-.57,1.63,1.63,0,0,1,.25-.47,1.7,1.7,0,0,1,.45-.43,3,3,0,0,1,.6-.35c.22-.09.46-.18.75-.27s.73-.2,1.36-.35l.51-.14.38-.15a.85.85,0,0,0,.28-.16,1,1,0,0,0,.23-.22.91.91,0,0,0,.15-.27.84.84,0,0,0-.17-.85,1.17,1.17,0,0,0-.57-.33,3,3,0,0,0-.83-.1,5.88,5.88,0,0,0-.92.07,7.78,7.78,0,0,0-.8.17C123.86,89.13,123.58,89.23,123.24,89.36Z"/><path class="cls-3" d="M133.74,94.28c-.05.23-.11.52-.17.89a6.94,6.94,0,0,1-.74.14,4.61,4.61,0,0,1-.52,0,2.69,2.69,0,0,1-1-.15,1.14,1.14,0,0,1-.57-.49,1.85,1.85,0,0,1-.2-.92s0-.14,0-.27,0-.57.07-1.33l.17-3.06h-.92c0-.19,0-.47.05-.82h.93c0-.26,0-.69.07-1.31.43-.08.79-.16,1.09-.23,0,.67-.05,1.19-.06,1.54h1.9c0,.28,0,.56,0,.82h-1.89L131.76,93v.29a2,2,0,0,0,.11.75.79.79,0,0,0,.34.36,1.12,1.12,0,0,0,.47.11l.37,0C133.17,94.42,133.4,94.37,133.74,94.28Z"/><path class="cls-3" d="M134.77,95.18l.12-1.72.14-2.94.05-2.26h1.25c-.05.71-.1,1.45-.14,2.23s-.08,1.63-.1,2.55,0,1.63,0,2.14h-1.28Zm.32-8.41c0-.43,0-.75,0-1h1.32c0,.14,0,.46,0,1h-1.3Z"/><path class="cls-3" d="M141.34,88.1a4.35,4.35,0,0,1,1.36.21,2.77,2.77,0,0,1,1.13.65,2.71,2.71,0,0,1,.72,1.12,4.26,4.26,0,0,1,.25,1.43,4.57,4.57,0,0,1-.27,1.56,3.73,3.73,0,0,1-.73,1.26,2.8,2.8,0,0,1-1.17.76,4.63,4.63,0,0,1-2.85,0,3.05,3.05,0,0,1-1.13-.69,3.17,3.17,0,0,1-.72-1.14,4.14,4.14,0,0,1-.24-1.41,4.36,4.36,0,0,1,.45-2,3,3,0,0,1,1.32-1.34A4.19,4.19,0,0,1,141.34,88.1Zm0,.87a2.46,2.46,0,0,0-1.28.35,2.07,2.07,0,0,0-.87,1.05,4.21,4.21,0,0,0-.28,1.53,3.38,3.38,0,0,0,.24,1.3,2,2,0,0,0,.76.93,2.22,2.22,0,0,0,1.28.36,2.61,2.61,0,0,0,1-.18,1.94,1.94,0,0,0,.8-.57,2.58,2.58,0,0,0,.51-1,4.51,4.51,0,0,0,.16-1.23,3.77,3.77,0,0,0-.16-1.13,1.87,1.87,0,0,0-.51-.84,2,2,0,0,0-.76-.45A2.85,2.85,0,0,0,141.31,89Z"/><path class="cls-3" d="M146.09,95.18q.33-4.28.35-6.92h1.21l-.09,1.37c.11-.19.2-.34.27-.44a2.46,2.46,0,0,1,.27-.33,2.78,2.78,0,0,1,.41-.32,2.25,2.25,0,0,1,.54-.24,3.71,3.71,0,0,1,.64-.15,4.87,4.87,0,0,1,.65-.05,4.22,4.22,0,0,1,1.13.15,2,2,0,0,1,.9.46,1.51,1.51,0,0,1,.47.73,3,3,0,0,1,.12.87v.34c0,.17,0,.39,0,.67l-.13,2.86c0,.27,0,.61,0,1h-1.22c.05-.55.08-1.08.11-1.59l.09-1.59c0-.55,0-1,0-1.24a1.9,1.9,0,0,0-.21-1,1.28,1.28,0,0,0-.65-.55,2.58,2.58,0,0,0-1-.2,2.41,2.41,0,0,0-1.36.38,2.29,2.29,0,0,0-.81,1,5,5,0,0,0-.28,1.35c-.07.72-.12,1.86-.14,3.41h-1.24Z"/><path class="cls-3" d="M161.57,94.28c0,.23-.1.52-.16.89a7.44,7.44,0,0,1-.74.14,4.7,4.7,0,0,1-.52,0,2.65,2.65,0,0,1-1-.15,1.14,1.14,0,0,1-.57-.49,1.85,1.85,0,0,1-.2-.92s0-.14,0-.27,0-.57.07-1.33l.16-3.06h-.91c0-.19,0-.47.05-.82h.93c0-.26,0-.69.07-1.31.43-.08.79-.16,1.08-.23,0,.67-.05,1.19-.05,1.54h1.9c0,.28,0,.56,0,.82h-1.9L159.59,93v.29a1.85,1.85,0,0,0,.11.75.74.74,0,0,0,.34.36,1.08,1.08,0,0,0,.47.11l.37,0A6.91,6.91,0,0,0,161.57,94.28Z"/><path class="cls-3" d="M162.61,95.18l.17-3,.16-4,0-2.31h1.23l-.15,2.38L164,89.65a4.84,4.84,0,0,1,.28-.47,2,2,0,0,1,.31-.35,2.25,2.25,0,0,1,.39-.3,2.78,2.78,0,0,1,.46-.21,4.81,4.81,0,0,1,.61-.16,4.35,4.35,0,0,1,.74-.06,5,5,0,0,1,1.11.13,2.4,2.4,0,0,1,.91.43,1.52,1.52,0,0,1,.52.72,2.75,2.75,0,0,1,.14.85c0,.11,0,.26,0,.45s0,.61-.05,1l-.12,2.51c0,.27,0,.61,0,1H168c0-.49.11-1.26.17-2.32s.1-1.79.1-2.2a1.76,1.76,0,0,0-.2-.9,1.28,1.28,0,0,0-.65-.55,2.61,2.61,0,0,0-1-.19,2.76,2.76,0,0,0-1,.16,1.86,1.86,0,0,0-1.14,1,3.55,3.55,0,0,0-.26.82,13.38,13.38,0,0,0-.16,1.8c0,.46-.05,1.24-.08,2.35h-1.21Z"/><path class="cls-3" d="M171.52,89.36a7.05,7.05,0,0,0,.13-.89,12.08,12.08,0,0,1,1.43-.29,9.61,9.61,0,0,1,1.18-.08,5.27,5.27,0,0,1,1.15.12,2.19,2.19,0,0,1,.89.36,1.16,1.16,0,0,1,.47.58,2.08,2.08,0,0,1,.12.71c0,.31,0,.84-.07,1.58s-.08,1.42-.11,2,0,1.19,0,1.68h-1.22l.14-1.86.11-2.21-.36.26a1.71,1.71,0,0,1-.27.14l-.33.12-.71.2-.74.22a4.46,4.46,0,0,0-.75.3,2.38,2.38,0,0,0-.45.33,1,1,0,0,0-.26.36,1.18,1.18,0,0,0-.09.46,1,1,0,0,0,.22.64,1.08,1.08,0,0,0,.55.38,2.62,2.62,0,0,0,.79.1,4.22,4.22,0,0,0,.6,0,4.44,4.44,0,0,0,.84-.2,8,8,0,0,0-.21.81c-.34.06-.61.1-.82.12s-.41,0-.59,0a4.13,4.13,0,0,1-1.47-.21,1.57,1.57,0,0,1-.78-.67,1.93,1.93,0,0,1-.26-1,1.7,1.7,0,0,1,.09-.57,1.92,1.92,0,0,1,.25-.47,1.7,1.7,0,0,1,.45-.43,3.1,3.1,0,0,1,.61-.35c.21-.09.46-.18.74-.27s.73-.2,1.36-.35l.51-.14.38-.15a1,1,0,0,0,.29-.16,1.14,1.14,0,0,0,.22-.22.91.91,0,0,0,.15-.27.86.86,0,0,0,.05-.27.81.81,0,0,0-.22-.58,1.17,1.17,0,0,0-.57-.33,3,3,0,0,0-.83-.1,5.67,5.67,0,0,0-.91.07,7.48,7.48,0,0,0-.81.17C172.14,89.13,171.86,89.23,171.52,89.36Z"/><path class="cls-3" d="M182,94.28c-.05.23-.11.52-.17.89a7.34,7.34,0,0,1-.73.14,4.79,4.79,0,0,1-.52,0,2.62,2.62,0,0,1-1-.15,1.21,1.21,0,0,1-.58-.49,1.85,1.85,0,0,1-.19-.92V93.5c0-.13,0-.57.07-1.33l.17-3.06h-.91c0-.19,0-.47,0-.82h.94c0-.26,0-.69.06-1.31.43-.08.79-.16,1.09-.23,0,.67-.05,1.19-.05,1.54h1.89c0,.28,0,.56,0,.82h-1.89L180,93v.29a2,2,0,0,0,.11.75.79.79,0,0,0,.34.36,1.12,1.12,0,0,0,.47.11l.37,0A6.91,6.91,0,0,0,182,94.28Z"/><path class="cls-3" d="M186.38,98.27c.09-1.17.18-2.77.26-4.79s.12-3.68.13-5c.75-.16,1.35-.26,1.79-.32a10.2,10.2,0,0,1,1.35-.09,4.79,4.79,0,0,1,1.86.34A2.47,2.47,0,0,1,193,89.63a4.18,4.18,0,0,1,.44,1.92,4.92,4.92,0,0,1-.21,1.44,3.53,3.53,0,0,1-.62,1.24,2.72,2.72,0,0,1-1,.83,3.19,3.19,0,0,1-1.33.27,3.33,3.33,0,0,1-.84-.1,2.62,2.62,0,0,1-.7-.28,2,2,0,0,1-.5-.38,4.88,4.88,0,0,1-.49-.64l-.08,2.71q0,.66,0,1v.67h-1.23Zm1.56-8.94,0,.52,0,.71c0,.37,0,.67,0,.91s0,.4,0,.49a4.22,4.22,0,0,0,.1,1,2,2,0,0,0,.43.83,2.17,2.17,0,0,0,.75.56,2.13,2.13,0,0,0,2-.16,2.35,2.35,0,0,0,.82-1.06,4.1,4.1,0,0,0,.29-1.54,3.1,3.1,0,0,0-.31-1.45,1.91,1.91,0,0,0-.82-.88,2.53,2.53,0,0,0-1.18-.27A6.07,6.07,0,0,0,187.94,89.33Z"/><path class="cls-3" d="M194.75,95.18c.16-2.63.24-4.72.24-6.29v-.63h1.15l0,1.13a4.87,4.87,0,0,1,.44-.64,1.83,1.83,0,0,1,.44-.35,2.33,2.33,0,0,1,.56-.22,2.75,2.75,0,0,1,.65-.08,2.22,2.22,0,0,1,.57.07c0,.3,0,.64,0,1a3.17,3.17,0,0,0-.76-.11,1.85,1.85,0,0,0-.72.13,1.73,1.73,0,0,0-.58.4,2.27,2.27,0,0,0-.42.65,3.1,3.1,0,0,0-.21.78c0,.32-.08.9-.11,1.74,0,.62,0,1.27,0,2v.45h-1.21Z"/><path class="cls-3" d="M203.11,88.1a4.35,4.35,0,0,1,1.36.21,2.77,2.77,0,0,1,1.13.65,2.71,2.71,0,0,1,.72,1.12,4.26,4.26,0,0,1,.25,1.43,4.57,4.57,0,0,1-.27,1.56,3.59,3.59,0,0,1-.74,1.26,2.7,2.7,0,0,1-1.16.76,4.63,4.63,0,0,1-2.85,0,3.05,3.05,0,0,1-1.13-.69,3.17,3.17,0,0,1-.72-1.14,4.14,4.14,0,0,1-.24-1.41,4.36,4.36,0,0,1,.45-2,3,3,0,0,1,1.32-1.34A4.19,4.19,0,0,1,203.11,88.1Zm0,.87a2.44,2.44,0,0,0-1.28.35,2.07,2.07,0,0,0-.87,1.05,4.21,4.21,0,0,0-.28,1.53,3.58,3.58,0,0,0,.23,1.3,2,2,0,0,0,.77.93,2.22,2.22,0,0,0,1.28.36,2.61,2.61,0,0,0,1-.18,1.94,1.94,0,0,0,.8-.57,2.58,2.58,0,0,0,.51-1,4.93,4.93,0,0,0,.16-1.23,4.11,4.11,0,0,0-.16-1.13,1.87,1.87,0,0,0-.51-.84,2,2,0,0,0-.76-.45A2.85,2.85,0,0,0,203.08,89Z"/><path class="cls-3" d="M207.76,98.27c.09-1.17.18-2.77.26-4.79s.12-3.68.13-5c.75-.16,1.35-.26,1.8-.32a10.2,10.2,0,0,1,1.35-.09,4.74,4.74,0,0,1,1.85.34,2.47,2.47,0,0,1,1.22,1.19,4.18,4.18,0,0,1,.44,1.92A4.92,4.92,0,0,1,214.6,93a3.53,3.53,0,0,1-.62,1.24,2.72,2.72,0,0,1-1,.83,3.15,3.15,0,0,1-1.32.27,3.36,3.36,0,0,1-.85-.1,2.77,2.77,0,0,1-.7-.28,2.19,2.19,0,0,1-.5-.38,6,6,0,0,1-.49-.64L209,96.64q0,.66,0,1v.67h-1.23Zm1.57-8.94-.05.52,0,.71c0,.37,0,.67-.05.91s0,.4,0,.49a4.21,4.21,0,0,0,.11,1,2,2,0,0,0,.42.83,2.17,2.17,0,0,0,.75.56,2.13,2.13,0,0,0,.89.19,2.06,2.06,0,0,0,1.16-.35,2.35,2.35,0,0,0,.82-1.06,3.91,3.91,0,0,0,.29-1.54,3.23,3.23,0,0,0-.3-1.45,1.92,1.92,0,0,0-.83-.88,2.53,2.53,0,0,0-1.18-.27A6,6,0,0,0,209.33,89.33Z"/><path class="cls-3" d="M219.59,88.1a4.41,4.41,0,0,1,1.37.21,2.84,2.84,0,0,1,1.13.65,2.93,2.93,0,0,1,.72,1.12,4.25,4.25,0,0,1,.24,1.43,4.56,4.56,0,0,1-.26,1.56,3.59,3.59,0,0,1-.74,1.26,2.7,2.7,0,0,1-1.16.76,4.63,4.63,0,0,1-2.85,0,3,3,0,0,1-1.13-.69,2.92,2.92,0,0,1-.72-1.14,4.14,4.14,0,0,1-.25-1.41,4.24,4.24,0,0,1,.46-2,3,3,0,0,1,1.32-1.34A4.15,4.15,0,0,1,219.59,88.1Zm0,.87a2.49,2.49,0,0,0-1.28.35,2.06,2.06,0,0,0-.86,1.05,4,4,0,0,0-.28,1.53,3.58,3.58,0,0,0,.23,1.3,2,2,0,0,0,.77.93,2.22,2.22,0,0,0,1.28.36,2.61,2.61,0,0,0,1-.18,2,2,0,0,0,.8-.57,2.57,2.57,0,0,0,.5-1,4.51,4.51,0,0,0,.17-1.23,3.77,3.77,0,0,0-.17-1.13,1.85,1.85,0,0,0-.5-.84,2,2,0,0,0-.76-.45A2.87,2.87,0,0,0,219.56,89Z"/><path class="cls-3" d="M224.07,95.05l0-.5s0-.23-.05-.52a5,5,0,0,0,1.94.46,2,2,0,0,0,.78-.13,1,1,0,0,0,.49-.36,1,1,0,0,0,.16-.5,1,1,0,0,0,0-.29,1.11,1.11,0,0,0-.13-.27,2.12,2.12,0,0,0-.26-.3l-.73-.6-.83-.69a3.94,3.94,0,0,1-.49-.52,2.17,2.17,0,0,1-.3-.53,1.61,1.61,0,0,1-.09-.54,1.43,1.43,0,0,1,.28-.84,1.63,1.63,0,0,1,.8-.62,3.43,3.43,0,0,1,1.22-.2,8.54,8.54,0,0,1,1.73.19c0,.35,0,.68.07,1a3.92,3.92,0,0,0-1.51-.31,2.56,2.56,0,0,0-.75.11,1,1,0,0,0-.51.31.83.83,0,0,0-.16.47.81.81,0,0,0,.06.31,1.45,1.45,0,0,0,.19.33,3.63,3.63,0,0,0,.34.34c.13.12.4.33.79.65a7.71,7.71,0,0,1,.81.69,3.26,3.26,0,0,1,.38.47,2.26,2.26,0,0,1,.23.47,2,2,0,0,1,.07.48,1.53,1.53,0,0,1-.29.89,1.69,1.69,0,0,1-.84.64,3.33,3.33,0,0,1-1.26.22l-.69,0-.67-.09Z"/><path class="cls-3" d="M235.62,94.1c-.06.25-.11.57-.17,1a9.45,9.45,0,0,1-1.13.23,7.82,7.82,0,0,1-1,0,5.23,5.23,0,0,1-1.54-.2,2.65,2.65,0,0,1-1.16-.72,2.83,2.83,0,0,1-.7-1.16,4.75,4.75,0,0,1,.18-3.28,3.07,3.07,0,0,1,1.17-1.37,3.63,3.63,0,0,1,2-.5,3.85,3.85,0,0,1,1.19.18,2.41,2.41,0,0,1,1,.55,2.54,2.54,0,0,1,.58.92,3.44,3.44,0,0,1,.2,1.18,2.45,2.45,0,0,1,0,.48H231c0,.25,0,.44,0,.58a2.94,2.94,0,0,0,.3,1.32,2,2,0,0,0,.89.91,2.81,2.81,0,0,0,1.35.32A6.83,6.83,0,0,0,235.62,94.1ZM231,90.84h4.08a4.85,4.85,0,0,0-.06-.67,1.72,1.72,0,0,0-.18-.49,1.37,1.37,0,0,0-.35-.45A1.58,1.58,0,0,0,234,89a2.11,2.11,0,0,0-.68-.1,2.29,2.29,0,0,0-.74.11,2.1,2.1,0,0,0-.62.3,2,2,0,0,0-.46.45,2.26,2.26,0,0,0-.28.49A5.38,5.38,0,0,0,231,90.84Z"/><path class="cls-3" d="M237.06,95.05l0-.5s0-.23-.06-.52a5,5,0,0,0,1.95.46,2,2,0,0,0,.78-.13.9.9,0,0,0,.48-.36.88.88,0,0,0,.17-.5,1,1,0,0,0-.05-.29,1.11,1.11,0,0,0-.13-.27,1.73,1.73,0,0,0-.27-.3l-.72-.6c-.37-.3-.65-.53-.83-.69a3.37,3.37,0,0,1-.49-.52,2.17,2.17,0,0,1-.3-.53,1.61,1.61,0,0,1-.09-.54,1.49,1.49,0,0,1,.27-.84,1.72,1.72,0,0,1,.8-.62,3.52,3.52,0,0,1,1.23-.2,8.54,8.54,0,0,1,1.73.19c0,.35,0,.68.07,1a3.92,3.92,0,0,0-1.51-.31,2.56,2.56,0,0,0-.75.11,1,1,0,0,0-.51.31.83.83,0,0,0-.16.47.81.81,0,0,0,.06.31,1.15,1.15,0,0,0,.19.33,3.63,3.63,0,0,0,.34.34c.13.12.4.33.79.65s.66.54.81.69a3.26,3.26,0,0,1,.38.47,2.26,2.26,0,0,1,.23.47,2,2,0,0,1,.07.48,1.53,1.53,0,0,1-.29.89,1.79,1.79,0,0,1-.84.64,3.33,3.33,0,0,1-1.26.22l-.69,0-.67-.09Z"/><path class="cls-3" d="M246.88,89.36c0-.2.08-.5.13-.89a11.57,11.57,0,0,1,1.42-.29,9.75,9.75,0,0,1,1.18-.08,5.2,5.2,0,0,1,1.15.12,2.3,2.3,0,0,1,.9.36,1.28,1.28,0,0,1,.47.58,2.35,2.35,0,0,1,.11.71c0,.31,0,.84-.07,1.58s-.08,1.42-.11,2,0,1.19,0,1.68H250.8l.15-1.86.1-2.21-.36.26a1.71,1.71,0,0,1-.27.14l-.33.12-.71.2-.74.22a4.31,4.31,0,0,0-.74.3,2.18,2.18,0,0,0-.46.33,1,1,0,0,0-.26.36,1.18,1.18,0,0,0-.09.46,1,1,0,0,0,.22.64,1.12,1.12,0,0,0,.55.38,2.62,2.62,0,0,0,.79.1,4.26,4.26,0,0,0,.61,0,4.44,4.44,0,0,0,.84-.2,5.7,5.7,0,0,0-.22.81c-.33.06-.61.1-.82.12s-.4,0-.59,0a4.07,4.07,0,0,1-1.46-.21,1.59,1.59,0,0,1-.79-.67,1.93,1.93,0,0,1-.26-1,1.7,1.7,0,0,1,.09-.57,1.92,1.92,0,0,1,.25-.47,2.07,2.07,0,0,1,.45-.43,3.1,3.1,0,0,1,.61-.35c.21-.09.46-.18.74-.27l1.36-.35.51-.14.38-.15a.9.9,0,0,0,.29-.16,1.12,1.12,0,0,0,.37-.49.65.65,0,0,0,.05-.27.81.81,0,0,0-.22-.58,1.08,1.08,0,0,0-.57-.33,2.9,2.9,0,0,0-.83-.1,5.67,5.67,0,0,0-.91.07c-.31,0-.58.11-.81.17S247.21,89.23,246.88,89.36Z"/><path class="cls-3" d="M15.5,112l.08-1c0-.21,0-.54.05-1l.16-4.16c0-.34,0-.6,0-.78H17l-.06,1.27a4.51,4.51,0,0,1,.42-.61,1.84,1.84,0,0,1,.49-.41,2.6,2.6,0,0,1,.7-.3,3.18,3.18,0,0,1,.82-.11,2.25,2.25,0,0,1,.58.07,2.76,2.76,0,0,1,.53.19,2.19,2.19,0,0,1,.42.28,1.74,1.74,0,0,1,.28.34,2.76,2.76,0,0,1,.21.54,2.48,2.48,0,0,1,1-1.1,3.11,3.11,0,0,1,2.36-.16,1.68,1.68,0,0,1,.73.45,1.59,1.59,0,0,1,.37.61,2.35,2.35,0,0,1,.09.64c0,.22,0,.55-.05,1s-.07,1.1-.11,2-.06,1.64-.06,2.23H24.5c.05-.61.09-1.28.13-2l.09-1.69c0-.41,0-.76,0-1.06a2,2,0,0,0-.08-.62,1.05,1.05,0,0,0-.27-.4,1.33,1.33,0,0,0-.44-.28,1.91,1.91,0,0,0-.61-.09,2.1,2.1,0,0,0-.51.06,2,2,0,0,0-.42.19,1.57,1.57,0,0,0-.4.32,1.9,1.9,0,0,0-.31.42,3.11,3.11,0,0,0-.21.57,6,6,0,0,0-.14,1c0,.42-.06,1-.07,1.67L21.23,112H20c0-.56.08-1.14.11-1.74l.08-1.65c0-.51,0-1,0-1.31a2.45,2.45,0,0,0-.07-.59,1.05,1.05,0,0,0-.26-.44,1.1,1.1,0,0,0-.45-.31,1.59,1.59,0,0,0-.59-.11,1.78,1.78,0,0,0-.65.12,2.14,2.14,0,0,0-.57.35,2.25,2.25,0,0,0-.43.57,3.34,3.34,0,0,0-.28.89,15.85,15.85,0,0,0-.16,1.92c0,.91-.05,1.68-.05,2.3H15.5Z"/><path class="cls-3" d="M33.19,110.9c0,.25-.11.57-.16.95a10,10,0,0,1-1.14.23,7.72,7.72,0,0,1-1,0,5.16,5.16,0,0,1-1.53-.2,2.63,2.63,0,0,1-1.17-.72,2.94,2.94,0,0,1-.7-1.16,4.75,4.75,0,0,1,.18-3.28,3.07,3.07,0,0,1,1.17-1.37,3.67,3.67,0,0,1,2-.5,3.94,3.94,0,0,1,1.19.18,2.37,2.37,0,0,1,.94.55,2.41,2.41,0,0,1,.58.92,3.22,3.22,0,0,1,.21,1.18,3.58,3.58,0,0,1,0,.48H28.53c0,.25,0,.44,0,.58a2.94,2.94,0,0,0,.3,1.32,2,2,0,0,0,.89.91,2.84,2.84,0,0,0,1.36.31A6.78,6.78,0,0,0,33.19,110.9Zm-4.6-3.26h4.07a3.66,3.66,0,0,0-.06-.67,2,2,0,0,0-.17-.49,1.7,1.7,0,0,0-.35-.45,1.54,1.54,0,0,0-.54-.28,2.09,2.09,0,0,0-.67-.1,2.25,2.25,0,0,0-.74.11,1.88,1.88,0,0,0-.62.3,1.65,1.65,0,0,0-.46.45,1.91,1.91,0,0,0-.28.49A3,3,0,0,0,28.59,107.64Z"/><path class="cls-3" d="M38.45,111.08c-.05.23-.11.52-.16.89a7.44,7.44,0,0,1-.74.14,4.79,4.79,0,0,1-.52,0,2.65,2.65,0,0,1-1-.15,1.14,1.14,0,0,1-.57-.49,1.75,1.75,0,0,1-.2-.92v-.27c0-.13,0-.57.07-1.33l.17-3.06h-.91c0-.19,0-.47,0-.82h.93c0-.26,0-.69.07-1.31l1.08-.23c0,.67-.05,1.19-.05,1.54h1.9a7.75,7.75,0,0,0,0,.82h-1.9l-.18,3.85v.29a1.83,1.83,0,0,0,.12.75.72.72,0,0,0,.33.36,1.12,1.12,0,0,0,.47.11l.37,0A6.91,6.91,0,0,0,38.45,111.08Z"/><path class="cls-3" d="M39.49,112l.17-3,.16-4.05,0-2.31h1.23L40.94,105l-.06,1.42a4.61,4.61,0,0,1,.29-.47,2.33,2.33,0,0,1,.3-.35,2.2,2.2,0,0,1,.4-.3,2.45,2.45,0,0,1,.46-.21,3.43,3.43,0,0,1,.6-.16,4.56,4.56,0,0,1,.75-.06,5,5,0,0,1,1.11.13,2.4,2.4,0,0,1,.91.43,1.52,1.52,0,0,1,.52.72,2.75,2.75,0,0,1,.14.85c0,.11,0,.26,0,.45s0,.61-.05,1L46.18,111c0,.27,0,.61,0,1H44.9c.05-.49.1-1.26.17-2.32s.1-1.79.1-2.2a1.87,1.87,0,0,0-.2-.9,1.28,1.28,0,0,0-.65-.55,2.61,2.61,0,0,0-1-.19,2.76,2.76,0,0,0-1,.16,2,2,0,0,0-.69.4,1.81,1.81,0,0,0-.45.63,3.55,3.55,0,0,0-.26.82,14.9,14.9,0,0,0-.17,1.8c0,.46,0,1.24-.07,2.35H39.49Z"/><path class="cls-3" d="M51.41,104.9a4.46,4.46,0,0,1,1.37.21,2.8,2.8,0,0,1,1.84,1.77,4,4,0,0,1,.25,1.43,4.82,4.82,0,0,1-.26,1.56,3.92,3.92,0,0,1-.74,1.26,2.83,2.83,0,0,1-1.16.76,4.66,4.66,0,0,1-2.86,0A3,3,0,0,1,48,110.09a3.91,3.91,0,0,1-.25-1.41,4.36,4.36,0,0,1,.45-2,2.93,2.93,0,0,1,1.33-1.34A4.15,4.15,0,0,1,51.41,104.9Zm0,.87a2.49,2.49,0,0,0-1.28.35,2,2,0,0,0-.86,1A4,4,0,0,0,49,108.7a3.38,3.38,0,0,0,.23,1.3,2,2,0,0,0,.76.93,2.27,2.27,0,0,0,1.29.36,2.65,2.65,0,0,0,1-.18,1.91,1.91,0,0,0,.79-.57,2.58,2.58,0,0,0,.51-1,4.51,4.51,0,0,0,.16-1.23,3.77,3.77,0,0,0-.16-1.13,1.94,1.94,0,0,0-.5-.84,2,2,0,0,0-.77-.45A2.8,2.8,0,0,0,51.38,105.77Z"/><path class="cls-3" d="M62.68,112l-.56,0h-.6l.08-1.47a6.49,6.49,0,0,1-.37.59,2.33,2.33,0,0,1-.38.39,2,2,0,0,1-.5.33,2.23,2.23,0,0,1-.63.23,3,3,0,0,1-.74.08,3.41,3.41,0,0,1-1.24-.23,2.73,2.73,0,0,1-1-.69,2.62,2.62,0,0,1-.58-1,4.28,4.28,0,0,1-.18-1.24,4.55,4.55,0,0,1,.34-1.69,3.51,3.51,0,0,1,.95-1.38,3.47,3.47,0,0,1,1.38-.76,6.19,6.19,0,0,1,1.64-.21,9.13,9.13,0,0,1,1.43.14c0-.5,0-.91,0-1.24v-1.15H63l-.2,3.86-.13,4.43Zm-1-6.1a5.52,5.52,0,0,0-.7-.16l-.56,0a4,4,0,0,0-1.26.19,2.55,2.55,0,0,0-1.05.62,2.77,2.77,0,0,0-.7,1.09,3.79,3.79,0,0,0-.25,1.3,2.9,2.9,0,0,0,.24,1.18,1.81,1.81,0,0,0,.72.87,2.1,2.1,0,0,0,1.13.31,2.36,2.36,0,0,0,.72-.11,1.91,1.91,0,0,0,.58-.31,2.21,2.21,0,0,0,.49-.55,3,3,0,0,0,.37-.81,5.09,5.09,0,0,0,.17-1.09c0-.22,0-.65.07-1.29Z"/><path class="cls-3" d="M68,104.9a4.46,4.46,0,0,1,1.37.21,2.8,2.8,0,0,1,1.12.65,2.71,2.71,0,0,1,.72,1.12,4,4,0,0,1,.25,1.43,4.82,4.82,0,0,1-.26,1.56,3.92,3.92,0,0,1-.74,1.26,2.83,2.83,0,0,1-1.16.76,4.66,4.66,0,0,1-2.86,0,3,3,0,0,1-1.84-1.83,3.91,3.91,0,0,1-.25-1.41,4.36,4.36,0,0,1,.45-2,2.93,2.93,0,0,1,1.33-1.34A4.15,4.15,0,0,1,68,104.9Zm0,.87a2.46,2.46,0,0,0-1.28.35,2,2,0,0,0-.86,1,4,4,0,0,0-.28,1.53,3.38,3.38,0,0,0,.23,1.3,2,2,0,0,0,.76.93,2.27,2.27,0,0,0,1.29.36,2.65,2.65,0,0,0,1-.18,1.91,1.91,0,0,0,.79-.57,2.58,2.58,0,0,0,.51-1,4.51,4.51,0,0,0,.16-1.23,3.77,3.77,0,0,0-.16-1.13,1.94,1.94,0,0,0-.5-.84,2,2,0,0,0-.77-.45A2.8,2.8,0,0,0,67.93,105.77Z"/><path class="cls-3" d="M72.77,112c.09-1.4.18-3.06.26-5,.06-1.4.1-2.84.13-4.34h1.25l-.21,4-.15,4.06L74,112H72.77Z"/><path class="cls-3" d="M79.34,104.9a4.41,4.41,0,0,1,1.37.21,2.8,2.8,0,0,1,1.84,1.77,4,4,0,0,1,.25,1.43,4.82,4.82,0,0,1-.26,1.56,3.75,3.75,0,0,1-.74,1.26,2.83,2.83,0,0,1-1.16.76,4.46,4.46,0,0,1-1.48.24,4.52,4.52,0,0,1-1.38-.21,3,3,0,0,1-1.12-.69,2.92,2.92,0,0,1-.72-1.14,3.91,3.91,0,0,1-.25-1.41,4.36,4.36,0,0,1,.45-2,3,3,0,0,1,1.33-1.34A4.15,4.15,0,0,1,79.34,104.9Zm0,.87a2.49,2.49,0,0,0-1.28.35,2,2,0,0,0-.86,1,4,4,0,0,0-.28,1.53,3.38,3.38,0,0,0,.23,1.3,2,2,0,0,0,.76.93,2.27,2.27,0,0,0,1.29.36,2.65,2.65,0,0,0,1-.18,2,2,0,0,0,.8-.57,2.72,2.72,0,0,0,.5-1,4.51,4.51,0,0,0,.16-1.23,3.77,3.77,0,0,0-.16-1.13,1.94,1.94,0,0,0-.5-.84,2,2,0,0,0-.77-.45A2.8,2.8,0,0,0,79.31,105.77Z"/><path class="cls-3" d="M84.57,114a13.46,13.46,0,0,0,1.51.37,7.74,7.74,0,0,0,1.11.09,3.21,3.21,0,0,0,1-.16,2.05,2.05,0,0,0,.69-.36,1.62,1.62,0,0,0,.37-.48,3.75,3.75,0,0,0,.25-1c0-.33.07-1,.09-1.94-.11.21-.21.37-.29.5a2.13,2.13,0,0,1-.36.39,2.25,2.25,0,0,1-.53.36,2.61,2.61,0,0,1-.7.25,3.62,3.62,0,0,1-.82.09,3.66,3.66,0,0,1-1.16-.17,2.49,2.49,0,0,1-1-.56,2.56,2.56,0,0,1-.65-1,3.67,3.67,0,0,1-.22-1.28,4.74,4.74,0,0,1,.33-1.76,3.53,3.53,0,0,1,1-1.39,3.66,3.66,0,0,1,1.44-.8,6.52,6.52,0,0,1,1.76-.23,16.17,16.17,0,0,1,2.62.28L91,106l-.2,3.84c0,.08,0,.54,0,1.39l0,1.42a4.25,4.25,0,0,1-.12.79,2.81,2.81,0,0,1-.22.53,1.62,1.62,0,0,1-.31.43,2,2,0,0,1-.41.35,2.3,2.3,0,0,1-.52.26,4.14,4.14,0,0,1-.79.19,5.84,5.84,0,0,1-.93.08,11.26,11.26,0,0,1-1.31-.07,9.94,9.94,0,0,1-1.45-.26l0-.37C84.61,114.5,84.6,114.3,84.57,114Zm5.26-8.07a7.48,7.48,0,0,0-1.43-.15,4.43,4.43,0,0,0-1.24.16,2.58,2.58,0,0,0-1,.57,2.92,2.92,0,0,0-.74,1.08A3.61,3.61,0,0,0,85.1,109a3,3,0,0,0,.25,1.21,1.74,1.74,0,0,0,.74.82,2.52,2.52,0,0,0,2.14.08,2.1,2.1,0,0,0,.77-.6,2.82,2.82,0,0,0,.52-1,6.16,6.16,0,0,0,.2-1.14C89.75,108,89.79,107.16,89.83,105.92Z"/><path class="cls-3" d="M91.45,115.15a9.37,9.37,0,0,0-.12-1,2.32,2.32,0,0,0,.64.22,2.49,2.49,0,0,0,.5.06,1.54,1.54,0,0,0,.52-.09,1.2,1.2,0,0,0,.41-.26,2.63,2.63,0,0,0,.33-.44,7.16,7.16,0,0,0,.37-.65,6.45,6.45,0,0,0,.37-.83L93,108l-1.07-3h1.28c.07.32.14.56.19.73s.16.51.33,1l1,3.14c.11.35.23.74.34,1.15l.78-1.89,1.43-3.34.12-.31.18-.51h1.24c-.18.4-.61,1.35-1.3,2.83L95,113.53a4.73,4.73,0,0,1-.49.86,1.82,1.82,0,0,1-.38.4,1.6,1.6,0,0,1-.37.25,2.47,2.47,0,0,1-.54.19,3,3,0,0,1-.66.07A4.91,4.91,0,0,1,91.45,115.15Z"/><path class="cls-3" d="M106.44,111.08c0,.23-.1.52-.16.89a7.44,7.44,0,0,1-.74.14,4.79,4.79,0,0,1-.52,0,2.65,2.65,0,0,1-1-.15,1.14,1.14,0,0,1-.57-.49,1.75,1.75,0,0,1-.2-.92v-.27c0-.13,0-.57.07-1.33l.17-3.06h-.91c0-.19,0-.47.05-.82h.93c0-.26,0-.69.07-1.31l1.08-.23c0,.67,0,1.19,0,1.54h1.9a7.75,7.75,0,0,0,0,.82h-1.9l-.18,3.85v.29a1.83,1.83,0,0,0,.12.75.72.72,0,0,0,.33.36,1.13,1.13,0,0,0,.48.11l.36,0A6.35,6.35,0,0,0,106.44,111.08Z"/><path class="cls-3" d="M110.89,104.9a4.46,4.46,0,0,1,1.37.21,2.8,2.8,0,0,1,1.12.65,2.71,2.71,0,0,1,.72,1.12,4,4,0,0,1,.25,1.43,4.82,4.82,0,0,1-.26,1.56,3.92,3.92,0,0,1-.74,1.26,2.83,2.83,0,0,1-1.16.76,4.66,4.66,0,0,1-2.86,0,3,3,0,0,1-1.84-1.83,3.91,3.91,0,0,1-.25-1.41,4.36,4.36,0,0,1,.45-2,2.93,2.93,0,0,1,1.33-1.34A4.12,4.12,0,0,1,110.89,104.9Zm0,.87a2.46,2.46,0,0,0-1.28.35,2,2,0,0,0-.86,1,4,4,0,0,0-.28,1.53,3.38,3.38,0,0,0,.23,1.3,2,2,0,0,0,.76.93,2.25,2.25,0,0,0,1.29.36,2.56,2.56,0,0,0,1-.18,1.88,1.88,0,0,0,.8-.57,2.58,2.58,0,0,0,.51-1,4.51,4.51,0,0,0,.16-1.23,3.77,3.77,0,0,0-.16-1.13,1.94,1.94,0,0,0-.5-.84,2,2,0,0,0-.77-.45A2.8,2.8,0,0,0,110.86,105.77Z"/><path class="cls-3" d="M119.17,112c.16-2.63.24-4.72.24-6.29v-.63h1.15l0,1.13a4.79,4.79,0,0,1,.45-.64,1.66,1.66,0,0,1,.44-.35A2.26,2.26,0,0,1,122,105a2.82,2.82,0,0,1,.65-.08,2.22,2.22,0,0,1,.57.07c0,.3,0,.64,0,1a3.16,3.16,0,0,0-.75-.11,1.9,1.9,0,0,0-.73.13,1.83,1.83,0,0,0-.58.4,2.27,2.27,0,0,0-.42.65,2.75,2.75,0,0,0-.2.78,17.31,17.31,0,0,0-.12,1.74c0,.62,0,1.27,0,2V112h-1.22Z"/><path class="cls-3" d="M124.52,106.16c0-.2.08-.5.13-.89a11.69,11.69,0,0,1,1.43-.29,9.48,9.48,0,0,1,1.18-.08,5.27,5.27,0,0,1,1.15.12,2.31,2.31,0,0,1,.89.36,1.22,1.22,0,0,1,.47.58,2,2,0,0,1,.12.71c0,.31,0,.84-.07,1.58s-.09,1.42-.11,2,0,1.19,0,1.68h-1.23l.15-1.86.1-2.21-.36.26a1.36,1.36,0,0,1-.27.14l-.33.12c-.12,0-.35.11-.7.2l-.74.22a4.13,4.13,0,0,0-.75.3,2.09,2.09,0,0,0-.46.33,1.16,1.16,0,0,0-.26.36,1.18,1.18,0,0,0-.09.46,1,1,0,0,0,.22.64,1.17,1.17,0,0,0,.55.38,2.69,2.69,0,0,0,.8.1,4.22,4.22,0,0,0,.6,0,4.44,4.44,0,0,0,.84-.2,6.87,6.87,0,0,0-.22.81q-.49.09-.81.12c-.21,0-.41,0-.6,0a4.07,4.07,0,0,1-1.46-.21,1.64,1.64,0,0,1-.79-.67,1.93,1.93,0,0,1-.26-1,1.48,1.48,0,0,1,.1-.57,1.63,1.63,0,0,1,.25-.47,1.81,1.81,0,0,1,.44-.43,3.42,3.42,0,0,1,.61-.35c.21-.09.46-.18.74-.27l1.37-.36c.2,0,.37-.09.51-.13l.37-.15a.9.9,0,0,0,.29-.16,1.19,1.19,0,0,0,.23-.22.91.91,0,0,0,.15-.27.87.87,0,0,0,.05-.28.85.85,0,0,0-.22-.57,1.17,1.17,0,0,0-.57-.33,3,3,0,0,0-.84-.1,5.75,5.75,0,0,0-.91.07,7.78,7.78,0,0,0-.8.17C125.14,105.93,124.86,106,124.52,106.16Z"/><path class="cls-3" d="M131.48,112q.33-4.28.34-6.92H133l-.09,1.37c.11-.19.21-.34.27-.44a2,2,0,0,1,.28-.33,2.67,2.67,0,0,1,.4-.32,2.53,2.53,0,0,1,.55-.24,3.5,3.5,0,0,1,.64-.15,4.6,4.6,0,0,1,.64,0,4.3,4.3,0,0,1,1.14.15,2.14,2.14,0,0,1,.9.46,1.67,1.67,0,0,1,.47.73,3,3,0,0,1,.12.87c0,.06,0,.17,0,.34s0,.39,0,.67l-.14,2.86c0,.27,0,.61,0,1H137c0-.55.08-1.08.1-1.59l.09-1.59c0-.55,0-1,0-1.24a2,2,0,0,0-.2-1,1.35,1.35,0,0,0-.66-.55,2.53,2.53,0,0,0-1-.2,2.39,2.39,0,0,0-1.36.38,2.22,2.22,0,0,0-.81,1,4.62,4.62,0,0,0-.28,1.35c-.07.72-.12,1.86-.15,3.41h-1.23Z"/><path class="cls-3" d="M140,112l.11-1.85.15-3.55.07-3c0-.43,0-.75,0-1h1.23c-.06.74-.13,2.16-.22,4.28s-.13,3.8-.14,5H140Zm1.4-3.86,1.4-1.49c.49-.52.95-1,1.38-1.57h1.42l-3,3.06c.55.73,1.62,2,3.2,3.86h-1.38l-1-1.33c-.09-.12-.31-.38-.64-.78l-1.06-1.29Z"/><path class="cls-3" d="M150.14,112l.15-1.26.43-5.09.2-3h1.76l.16.6c0,.16.1.34.17.56l.36,1.07.84,2.43,1,3.25,1.36-3.25,1.55-3.56a3.7,3.7,0,0,0,.16-.4c.05-.15.14-.38.25-.7h1.8l-.09,3.26,0,2.14c0,.2,0,.41,0,.61v2.44c0,.1,0,.4,0,.88H159l0-.86.1-4.93c0-.55,0-1.16,0-1.83v-.57l-3,7.2-.39,1h-1.28l-.81-2.57-.84-2.54-.83-2.45c0-.11-.1-.3-.19-.58l-.08.8-.42,5.87c0,.2,0,.4,0,.59s0,.49,0,.88h-1.16Z"/><path class="cls-3" d="M165.57,104.9a4.41,4.41,0,0,1,1.37.21,2.8,2.8,0,0,1,1.84,1.77,4,4,0,0,1,.25,1.43,4.82,4.82,0,0,1-.26,1.56,3.92,3.92,0,0,1-.74,1.26,2.83,2.83,0,0,1-1.16.76,4.66,4.66,0,0,1-2.86,0,3,3,0,0,1-1.84-1.83,3.91,3.91,0,0,1-.25-1.41,4.36,4.36,0,0,1,.45-2,2.93,2.93,0,0,1,1.33-1.34A4.15,4.15,0,0,1,165.57,104.9Zm0,.87a2.49,2.49,0,0,0-1.28.35,2,2,0,0,0-.86,1,4,4,0,0,0-.28,1.53,3.38,3.38,0,0,0,.23,1.3,2,2,0,0,0,.76.93,2.27,2.27,0,0,0,1.29.36,2.65,2.65,0,0,0,1-.18,1.91,1.91,0,0,0,.79-.57,2.58,2.58,0,0,0,.51-1,4.51,4.51,0,0,0,.16-1.23,3.77,3.77,0,0,0-.16-1.13,1.94,1.94,0,0,0-.5-.84,2,2,0,0,0-.77-.45A2.8,2.8,0,0,0,165.54,105.77Z"/><path class="cls-3" d="M172.22,112l-.23-.69c-.08-.22-.27-.73-.55-1.52l-1.72-4.71H171l.14.48c.05.13.12.35.22.65L173,111l2.16-5.22.26-.68h1.29l-.89,1.91L174,111l-.44,1h-1.34Z"/><path class="cls-3" d="M177.29,112l.12-1.72.14-2.94,0-2.26h1.25c0,.71-.1,1.45-.14,2.23s-.08,1.63-.1,2.55,0,1.63,0,2.14h-1.28Zm.32-8.41c0-.43,0-.75,0-1H179c0,.14,0,.46,0,1h-1.3Z"/><path class="cls-3" d="M186.08,110.9c-.06.25-.11.57-.17.95a9.45,9.45,0,0,1-1.13.23,7.82,7.82,0,0,1-1,0,5.23,5.23,0,0,1-1.54-.2,2.65,2.65,0,0,1-1.16-.72,2.83,2.83,0,0,1-.7-1.16,4.75,4.75,0,0,1,.18-3.28,3.07,3.07,0,0,1,1.17-1.37,3.63,3.63,0,0,1,2-.5,3.85,3.85,0,0,1,1.19.18,2.41,2.41,0,0,1,.95.55,2.54,2.54,0,0,1,.58.92,3.44,3.44,0,0,1,.2,1.18,2.45,2.45,0,0,1,0,.48h-5.21c0,.25,0,.44,0,.58a2.94,2.94,0,0,0,.3,1.32,2,2,0,0,0,.89.91,2.8,2.8,0,0,0,1.35.31A6.78,6.78,0,0,0,186.08,110.9Zm-4.61-3.26h4.08a4.85,4.85,0,0,0-.06-.67,1.72,1.72,0,0,0-.18-.49A1.37,1.37,0,0,0,185,106a1.58,1.58,0,0,0-.53-.28,2.11,2.11,0,0,0-.68-.1,2.29,2.29,0,0,0-.74.11,2.1,2.1,0,0,0-.62.3,2,2,0,0,0-.46.45,2.26,2.26,0,0,0-.28.49A4.88,4.88,0,0,0,181.47,107.64Z"/><path class="cls-3" d="M187.52,111.85l0-.5s0-.23-.06-.52a5,5,0,0,0,2,.46,2,2,0,0,0,.78-.13.9.9,0,0,0,.48-.36.88.88,0,0,0,.17-.5,1,1,0,0,0-.05-.29,1.11,1.11,0,0,0-.13-.27,1.73,1.73,0,0,0-.27-.3l-.72-.6c-.37-.3-.65-.53-.83-.69a3.37,3.37,0,0,1-.49-.52,2.17,2.17,0,0,1-.3-.53,1.61,1.61,0,0,1-.09-.54,1.49,1.49,0,0,1,.27-.84,1.72,1.72,0,0,1,.8-.62,3.52,3.52,0,0,1,1.23-.2,8.54,8.54,0,0,1,1.73.19c0,.35,0,.68.07,1a3.92,3.92,0,0,0-1.51-.31,2.56,2.56,0,0,0-.75.11,1,1,0,0,0-.51.31.83.83,0,0,0-.16.47.81.81,0,0,0,.06.31,1.15,1.15,0,0,0,.19.33,3.63,3.63,0,0,0,.34.34c.13.12.4.33.79.65s.66.54.81.69a3.26,3.26,0,0,1,.38.47,2.26,2.26,0,0,1,.23.47,2,2,0,0,1,.07.48,1.53,1.53,0,0,1-.29.89,1.79,1.79,0,0,1-.84.64,3.33,3.33,0,0,1-1.26.22l-.69,0-.67-.09Z"/><path class="cls-3" d="M196.93,112l.07-.76c0-.14,0-.4,0-.77l.19-4.64.08-3.16h1.26c-.07.59-.12,1.43-.17,2.52a9.9,9.9,0,0,1,1.17-.21,7,7,0,0,1,.9-.06,5,5,0,0,1,1.52.22,2.42,2.42,0,0,1,1.09.73,3,3,0,0,1,.6,1.11,4.57,4.57,0,0,1,.18,1.29,5.11,5.11,0,0,1-.22,1.51,3.82,3.82,0,0,1-.65,1.29,2.52,2.52,0,0,1-1.05.82,3.4,3.4,0,0,1-1.36.26,3,3,0,0,1-.75-.08,2.94,2.94,0,0,1-.63-.24,2.1,2.1,0,0,1-.47-.34,2.15,2.15,0,0,1-.32-.38,3.94,3.94,0,0,1-.29-.53l0,1.42h-1.17Zm1.4-5.9c0,.76-.06,1.26-.07,1.5s0,.54,0,.87a4.2,4.2,0,0,0,.25,1.65,1.76,1.76,0,0,0,.73.87,2.11,2.11,0,0,0,1.12.3,2.06,2.06,0,0,0,1.23-.37,2.35,2.35,0,0,0,.81-1.1,4.24,4.24,0,0,0,.28-1.54,2.68,2.68,0,0,0-.6-1.82,2.22,2.22,0,0,0-1.79-.69,5.27,5.27,0,0,0-.87.07A10.73,10.73,0,0,0,198.33,106.08Z"/><path class="cls-3" d="M205.64,106.16c0-.2.08-.5.13-.89a11.57,11.57,0,0,1,1.42-.29,9.61,9.61,0,0,1,1.18-.08,5.27,5.27,0,0,1,1.15.12,2.19,2.19,0,0,1,.89.36,1.24,1.24,0,0,1,.48.58,2.3,2.3,0,0,1,.11.71c0,.31,0,.84-.07,1.58s-.08,1.42-.11,2,0,1.19,0,1.68h-1.22l.15-1.86.1-2.21-.36.26a1.71,1.71,0,0,1-.27.14l-.33.12-.71.2-.74.22a4.31,4.31,0,0,0-.74.3,1.88,1.88,0,0,0-.46.33,1,1,0,0,0-.26.36,1.18,1.18,0,0,0-.09.46,1,1,0,0,0,.22.64,1.12,1.12,0,0,0,.55.38,2.62,2.62,0,0,0,.79.1,4.22,4.22,0,0,0,.6,0,4.5,4.5,0,0,0,.85-.2,5.33,5.33,0,0,0-.22.81c-.34.06-.61.1-.82.12s-.4,0-.59,0a4,4,0,0,1-1.46-.21,1.59,1.59,0,0,1-.79-.67,1.93,1.93,0,0,1-.26-1,1.7,1.7,0,0,1,.09-.57,1.92,1.92,0,0,1,.25-.47,2.07,2.07,0,0,1,.45-.43,3.1,3.1,0,0,1,.61-.35c.21-.09.46-.18.74-.27l1.36-.36c.2,0,.37-.09.51-.13l.38-.15a1,1,0,0,0,.29-.16,1.14,1.14,0,0,0,.22-.22.91.91,0,0,0,.15-.27.87.87,0,0,0,0-.28.8.8,0,0,0-.22-.57,1.12,1.12,0,0,0-.57-.33,2.9,2.9,0,0,0-.83-.1,5.67,5.67,0,0,0-.91.07,8,8,0,0,0-.81.17C206.26,105.93,206,106,205.64,106.16Z"/><path class="cls-3" d="M212.31,111.85l0-.5a4.75,4.75,0,0,0-.05-.52,5,5,0,0,0,1.94.46,2.08,2.08,0,0,0,.79-.13,1,1,0,0,0,.48-.36.87.87,0,0,0,.16-.5,1.45,1.45,0,0,0,0-.29,1.74,1.74,0,0,0-.14-.27,2.12,2.12,0,0,0-.26-.3l-.73-.6-.83-.69a3.94,3.94,0,0,1-.49-.52,1.85,1.85,0,0,1-.29-.53,1.4,1.4,0,0,1-.1-.54,1.43,1.43,0,0,1,.28-.84,1.63,1.63,0,0,1,.8-.62,3.51,3.51,0,0,1,1.22-.2,8.46,8.46,0,0,1,1.73.19c0,.35,0,.68.07,1a3.92,3.92,0,0,0-1.51-.31,2.56,2.56,0,0,0-.75.11.92.92,0,0,0-.5.31.76.76,0,0,0-.16.47,1.06,1.06,0,0,0,.05.31,1.21,1.21,0,0,0,.2.33,2.61,2.61,0,0,0,.33.34l.79.65a7.71,7.71,0,0,1,.81.69,2.7,2.7,0,0,1,.38.47,2.26,2.26,0,0,1,.23.47,1.59,1.59,0,0,1,.07.48,1.52,1.52,0,0,1-.28.89,1.77,1.77,0,0,1-.85.64,3.31,3.31,0,0,1-1.25.22l-.7,0L213,112Z"/><path class="cls-3" d="M223.86,110.9c-.05.25-.11.57-.16.95a10,10,0,0,1-1.14.23,7.72,7.72,0,0,1-1,0,5.27,5.27,0,0,1-1.54-.2,2.65,2.65,0,0,1-1.16-.72,2.83,2.83,0,0,1-.7-1.16,4.75,4.75,0,0,1,.18-3.28,3.07,3.07,0,0,1,1.17-1.37,3.65,3.65,0,0,1,2-.5,3.94,3.94,0,0,1,1.19.18,2.44,2.44,0,0,1,.94.55,2.54,2.54,0,0,1,.58.92,3.22,3.22,0,0,1,.21,1.18,2.44,2.44,0,0,1-.05.48H219.2c0,.25,0,.44,0,.58a2.94,2.94,0,0,0,.3,1.32,2,2,0,0,0,.89.91,2.8,2.8,0,0,0,1.35.31A6.78,6.78,0,0,0,223.86,110.9Zm-4.61-3.26h4.08a4.85,4.85,0,0,0-.06-.67,1.72,1.72,0,0,0-.18-.49,1.37,1.37,0,0,0-.35-.45,1.49,1.49,0,0,0-.53-.28,2.09,2.09,0,0,0-.67-.1,2.35,2.35,0,0,0-.75.11,2.1,2.1,0,0,0-.62.3,2,2,0,0,0-.46.45,2.76,2.76,0,0,0-.28.49A4.88,4.88,0,0,0,219.25,107.64Z"/><path class="cls-3" d="M232.09,112l-.56,0h-.59l.08-1.47a6.24,6.24,0,0,1-.38.59,2.26,2.26,0,0,1-.37.39,2,2,0,0,1-.5.33,2.48,2.48,0,0,1-.63.23,3,3,0,0,1-.74.08,3.37,3.37,0,0,1-1.24-.23,2.64,2.64,0,0,1-1-.69,2.51,2.51,0,0,1-.58-1,4.28,4.28,0,0,1-.18-1.24,4.54,4.54,0,0,1,.33-1.69,3.62,3.62,0,0,1,.95-1.38,3.57,3.57,0,0,1,1.39-.76,6.17,6.17,0,0,1,1.63-.21,9,9,0,0,1,1.43.14c0-.5,0-.91,0-1.24s0-.85,0-1.15h1.25l-.2,3.86-.14,4.43Zm-1-6.1a5.93,5.93,0,0,0-.7-.16l-.57,0a4,4,0,0,0-1.25.19,2.65,2.65,0,0,0-1.06.62,2.89,2.89,0,0,0-.7,1.09,3.77,3.77,0,0,0-.24,1.3,3.06,3.06,0,0,0,.23,1.18,1.87,1.87,0,0,0,.72.87,2.16,2.16,0,0,0,1.14.31,2.25,2.25,0,0,0,.71-.11,1.8,1.8,0,0,0,.58-.31,2.24,2.24,0,0,0,.5-.55,3,3,0,0,0,.37-.81,5.82,5.82,0,0,0,.17-1.09q0-.33.06-1.29Z"/><path class="cls-3" d="M240.88,104.9a4.4,4.4,0,0,1,1.36.21,2.84,2.84,0,0,1,1.13.65,2.93,2.93,0,0,1,.72,1.12,4.25,4.25,0,0,1,.24,1.43,4.56,4.56,0,0,1-.26,1.56,3.59,3.59,0,0,1-.74,1.26,2.7,2.7,0,0,1-1.16.76,4.63,4.63,0,0,1-2.85,0,3,3,0,0,1-1.13-.69,3,3,0,0,1-.72-1.14,4.14,4.14,0,0,1-.25-1.41,4.36,4.36,0,0,1,.46-2,3,3,0,0,1,1.32-1.34A4.19,4.19,0,0,1,240.88,104.9Zm0,.87a2.49,2.49,0,0,0-1.28.35,2.06,2.06,0,0,0-.86,1,4,4,0,0,0-.28,1.53,3.58,3.58,0,0,0,.23,1.3,2,2,0,0,0,.77.93,2.22,2.22,0,0,0,1.28.36,2.61,2.61,0,0,0,1-.18,2,2,0,0,0,.8-.57,2.57,2.57,0,0,0,.5-1,4.51,4.51,0,0,0,.17-1.23,3.77,3.77,0,0,0-.17-1.13,1.85,1.85,0,0,0-.5-.84,2,2,0,0,0-.76-.45A2.87,2.87,0,0,0,240.84,105.77Z"/><path class="cls-3" d="M245.63,112q.33-4.28.34-6.92h1.21l-.09,1.37.28-.44a2.46,2.46,0,0,1,.27-.33,2.78,2.78,0,0,1,.41-.32,2.25,2.25,0,0,1,.54-.24,3.5,3.5,0,0,1,.64-.15,4.74,4.74,0,0,1,.65,0,4.22,4.22,0,0,1,1.13.15,2,2,0,0,1,.9.46,1.58,1.58,0,0,1,.47.73,3,3,0,0,1,.12.87v.34c0,.17,0,.39,0,.67l-.14,2.86c0,.27,0,.61,0,1H251.1c.05-.55.08-1.08.11-1.59l.09-1.59c0-.55,0-1,0-1.24a1.9,1.9,0,0,0-.21-1,1.31,1.31,0,0,0-.66-.55,2.49,2.49,0,0,0-1-.2,2.41,2.41,0,0,0-1.36.38,2.22,2.22,0,0,0-.81,1,5,5,0,0,0-.28,1.35c-.07.72-.12,1.86-.14,3.41h-1.24Z"/><path class="cls-3" d="M15.5,128.78l.08-1c0-.21,0-.54.05-1l.16-4.16c0-.34,0-.6,0-.78H17l-.06,1.27a4.51,4.51,0,0,1,.42-.61,1.84,1.84,0,0,1,.49-.41,2.6,2.6,0,0,1,.7-.3,3.18,3.18,0,0,1,.82-.11,2.25,2.25,0,0,1,.58.07,2.76,2.76,0,0,1,.53.19,2.19,2.19,0,0,1,.42.28,1.74,1.74,0,0,1,.28.34,2.76,2.76,0,0,1,.21.54,2.48,2.48,0,0,1,1-1.1,3.1,3.1,0,0,1,1.4-.32,2.85,2.85,0,0,1,1,.16,1.68,1.68,0,0,1,.73.45,1.59,1.59,0,0,1,.37.61,2.35,2.35,0,0,1,.09.64c0,.22,0,.55-.05,1s-.07,1.1-.11,2-.06,1.64-.06,2.23H24.5c.05-.61.09-1.28.13-2l.09-1.69c0-.41,0-.76,0-1.06a2,2,0,0,0-.08-.62,1.05,1.05,0,0,0-.27-.4,1.33,1.33,0,0,0-.44-.28,1.91,1.91,0,0,0-.61-.09,2.1,2.1,0,0,0-.51.06,2,2,0,0,0-.42.19,1.57,1.57,0,0,0-.4.32,1.9,1.9,0,0,0-.31.42,3.11,3.11,0,0,0-.21.57,6,6,0,0,0-.14,1c0,.42-.06,1-.07,1.67l-.06,1.91H20c0-.56.08-1.14.11-1.74l.08-1.65c0-.51,0-1,0-1.31a2.45,2.45,0,0,0-.07-.59,1.05,1.05,0,0,0-.26-.44,1.1,1.1,0,0,0-.45-.31,1.59,1.59,0,0,0-.59-.11,1.78,1.78,0,0,0-.65.12,2.14,2.14,0,0,0-.57.35,2.25,2.25,0,0,0-.43.57,3.34,3.34,0,0,0-.28.89,15.85,15.85,0,0,0-.16,1.92c0,.91-.05,1.68-.05,2.3H15.5Z"/><path class="cls-3" d="M34,128.78H32.88l0-1.32a4,4,0,0,1-.29.48,1.71,1.71,0,0,1-.29.33,3.18,3.18,0,0,1-.37.27,2,2,0,0,1-.44.19,3.61,3.61,0,0,1-.59.15,5.55,5.55,0,0,1-.72.05,3.62,3.62,0,0,1-1.43-.25,2,2,0,0,1-.89-.72,2.31,2.31,0,0,1-.31-1.27c0-.08,0-.22,0-.41s0-.46,0-.77l.11-2.28,0-.73c0-.17,0-.38,0-.64H29c-.07.8-.13,1.67-.18,2.62s-.09,1.55-.09,1.82a2,2,0,0,0,.19,1,1.28,1.28,0,0,0,.65.55,2.87,2.87,0,0,0,2,0,2.13,2.13,0,0,0,.68-.43,2.56,2.56,0,0,0,.49-.76,3.74,3.74,0,0,0,.22-.88c0-.26.06-.72.09-1.4s.06-1.65.08-2.5h1.21c-.07.82-.14,2.07-.23,3.74Q34,127,34,128.78Z"/><path class="cls-3" d="M35.87,128.78c.09-1.4.18-3.06.27-5,.06-1.4.1-2.84.13-4.34h1.24l-.21,4-.15,4.06,0,1.25H35.87Z"/><path class="cls-3" d="M42.5,127.88c0,.23-.11.52-.17.89a6.94,6.94,0,0,1-.74.14,4.61,4.61,0,0,1-.52,0,2.69,2.69,0,0,1-1-.15,1.14,1.14,0,0,1-.57-.49,1.85,1.85,0,0,1-.2-.92c0-.05,0-.14,0-.27s0-.57.07-1.33l.17-3.06h-.92c0-.19,0-.47.05-.82h.93c0-.26,0-.69.07-1.31.43-.08.79-.16,1.09-.23,0,.67,0,1.19-.06,1.54h1.9c0,.28,0,.56,0,.82H40.7l-.18,3.85v.29a2,2,0,0,0,.11.75A.79.79,0,0,0,41,128a1.12,1.12,0,0,0,.47.11l.37,0C41.93,128,42.16,128,42.5,127.88Z"/><path class="cls-3" d="M43.54,128.78l.11-1.72.14-2.94.05-2.26h1.25c-.05.71-.1,1.45-.14,2.23s-.08,1.63-.1,2.55,0,1.63,0,2.14H43.54Zm.31-8.41c0-.43,0-.75,0-1h1.32c0,.14,0,.46,0,1h-1.3Z"/><path class="cls-3" d="M46.51,131.87c.09-1.17.18-2.77.26-4.79s.12-3.68.13-5c.75-.16,1.35-.27,1.79-.32A10.2,10.2,0,0,1,50,121.7a4.79,4.79,0,0,1,1.86.34,2.47,2.47,0,0,1,1.22,1.19,4.18,4.18,0,0,1,.44,1.92,4.92,4.92,0,0,1-.21,1.44,3.7,3.7,0,0,1-.62,1.24,2.72,2.72,0,0,1-1,.83,3.19,3.19,0,0,1-1.33.27,3.33,3.33,0,0,1-.84-.1,2.62,2.62,0,0,1-.7-.28,2,2,0,0,1-.5-.38,4.88,4.88,0,0,1-.49-.64l-.08,2.71q0,.66,0,1v.67H46.51Zm1.56-8.94,0,.52,0,.71c0,.37,0,.67,0,.91s0,.4,0,.49a4.22,4.22,0,0,0,.1,1,1.91,1.91,0,0,0,.43.82,2.13,2.13,0,0,0,2.8.41,2.35,2.35,0,0,0,.82-1.06,4.1,4.1,0,0,0,.29-1.54,3.1,3.1,0,0,0-.31-1.45,1.91,1.91,0,0,0-.82-.88,2.53,2.53,0,0,0-1.18-.27A5.82,5.82,0,0,0,48.07,122.93Z"/><path class="cls-3" d="M54.9,128.78c.09-1.4.18-3.06.27-5,.06-1.4.1-2.84.13-4.34h1.24l-.21,4-.15,4.06,0,1.25H54.9Z"/><path class="cls-3" d="M63.7,127.7c-.05.25-.11.57-.16,1a10,10,0,0,1-1.14.23c-.32,0-.64.05-1,.05a5.27,5.27,0,0,1-1.54-.2,2.65,2.65,0,0,1-1.16-.72,2.94,2.94,0,0,1-.7-1.16,4.75,4.75,0,0,1,.18-3.28,3.07,3.07,0,0,1,1.17-1.37,3.67,3.67,0,0,1,2-.5,3.94,3.94,0,0,1,1.19.18,2.44,2.44,0,0,1,.94.55,2.54,2.54,0,0,1,.58.92,3.22,3.22,0,0,1,.21,1.18,3.58,3.58,0,0,1,0,.48H59q0,.38,0,.57a3,3,0,0,0,.3,1.33,2,2,0,0,0,.89.91,2.8,2.8,0,0,0,1.35.31A6.78,6.78,0,0,0,63.7,127.7Zm-4.61-3.26h4.08a3.66,3.66,0,0,0-.06-.67,2,2,0,0,0-.17-.49,1.55,1.55,0,0,0-.36-.45,1.41,1.41,0,0,0-.53-.28,2.09,2.09,0,0,0-.67-.1,2.35,2.35,0,0,0-.75.11,2.1,2.1,0,0,0-.62.3,2,2,0,0,0-.46.45,2.19,2.19,0,0,0-.27.49A3.59,3.59,0,0,0,59.09,124.44Z"/><path class="cls-3" d="M75.43,128.8l-.56,0h-.59l.08-1.47a6.24,6.24,0,0,1-.38.59,2.26,2.26,0,0,1-.37.39,2.28,2.28,0,0,1-.5.33,2.48,2.48,0,0,1-.63.23,3,3,0,0,1-.74.08,3.37,3.37,0,0,1-1.24-.23A2.7,2.7,0,0,1,68.94,127a4.28,4.28,0,0,1-.18-1.24,4.54,4.54,0,0,1,.33-1.69,3.62,3.62,0,0,1,1-1.38,3.57,3.57,0,0,1,1.39-.76,6.19,6.19,0,0,1,1.64-.21,9,9,0,0,1,1.42.14c0-.5,0-.91,0-1.24s0-.85,0-1.15h1.25l-.2,3.86-.14,4.43Zm-1-6.1a5.93,5.93,0,0,0-.7-.16l-.57,0a4,4,0,0,0-1.25.19,2.55,2.55,0,0,0-1.05.62,2.79,2.79,0,0,0-.71,1.09,3.77,3.77,0,0,0-.24,1.3,3.06,3.06,0,0,0,.23,1.18,1.85,1.85,0,0,0,.72.86,2.08,2.08,0,0,0,1.14.32,2.25,2.25,0,0,0,.71-.11,1.85,1.85,0,0,0,.59-.31,2.42,2.42,0,0,0,.49-.55,3,3,0,0,0,.37-.81,5.82,5.82,0,0,0,.17-1.09q0-.33.06-1.29Z"/><path class="cls-3" d="M77.3,128.78l.12-1.72.14-2.94,0-2.26h1.25c0,.71-.1,1.45-.14,2.23s-.08,1.63-.1,2.55,0,1.63,0,2.14H77.3Zm.32-8.41c0-.43,0-.75,0-1H79c0,.14,0,.46,0,1h-1.3Z"/><path class="cls-3" d="M80.41,128.78l.07-1c0-.21,0-.54.06-1l.16-4.16c0-.34,0-.6,0-.78h1.15l-.06,1.27c.16-.25.3-.46.42-.61a1.89,1.89,0,0,1,.5-.41,2.47,2.47,0,0,1,.7-.3,3.12,3.12,0,0,1,.82-.11,2.3,2.3,0,0,1,.58.07,2.76,2.76,0,0,1,.53.19,1.84,1.84,0,0,1,.41.28,1.44,1.44,0,0,1,.28.34,2.21,2.21,0,0,1,.22.54,2.48,2.48,0,0,1,1-1.1,3.1,3.1,0,0,1,1.4-.32,2.75,2.75,0,0,1,1,.16,1.66,1.66,0,0,1,.74.45,1.72,1.72,0,0,1,.37.61,2.35,2.35,0,0,1,.09.64c0,.22,0,.55,0,1s-.07,1.1-.11,2-.06,1.64-.07,2.23H89.4c0-.61.1-1.28.13-2l.09-1.69c0-.41,0-.76,0-1.06a2,2,0,0,0-.08-.62,1.18,1.18,0,0,0-.27-.4,1.28,1.28,0,0,0-.45-.28,1.85,1.85,0,0,0-.6-.09,2,2,0,0,0-.51.06,1.59,1.59,0,0,0-.42.19,1.81,1.81,0,0,0-.41.32,1.6,1.6,0,0,0-.3.42,2.52,2.52,0,0,0-.21.57,5.12,5.12,0,0,0-.14,1c0,.42-.06,1-.08,1.67l0,1.91H84.92c0-.56.08-1.14.11-1.74l.08-1.65c0-.51,0-1,0-1.31a2.49,2.49,0,0,0-.06-.59,1.05,1.05,0,0,0-.26-.44,1.17,1.17,0,0,0-.45-.31,1.63,1.63,0,0,0-.59-.11,1.75,1.75,0,0,0-.65.12,1.87,1.87,0,0,0-.57.35,2.28,2.28,0,0,0-.44.57,3.36,3.36,0,0,0-.27.89,15.85,15.85,0,0,0-.16,1.92c0,.91-.06,1.68-.06,2.3H80.41Z"/><path class="cls-3" d="M98.1,127.7c0,.25-.11.57-.16,1a10,10,0,0,1-1.14.23c-.32,0-.64.05-1,.05a5.27,5.27,0,0,1-1.54-.2,2.65,2.65,0,0,1-1.16-.72,2.83,2.83,0,0,1-.7-1.16,4.75,4.75,0,0,1,.18-3.28,3.07,3.07,0,0,1,1.17-1.37,3.65,3.65,0,0,1,2-.5,3.83,3.83,0,0,1,1.18.18,2.41,2.41,0,0,1,1,.55,2.54,2.54,0,0,1,.58.92,3.21,3.21,0,0,1,.2,1.18,2.45,2.45,0,0,1,0,.48H93.44q0,.38,0,.57a3,3,0,0,0,.3,1.33,2,2,0,0,0,.89.91,2.8,2.8,0,0,0,1.35.31A6.78,6.78,0,0,0,98.1,127.7Zm-4.61-3.26h4.08a4.85,4.85,0,0,0-.06-.67,1.72,1.72,0,0,0-.18-.49,1.37,1.37,0,0,0-.35-.45,1.49,1.49,0,0,0-.53-.28,2.09,2.09,0,0,0-.67-.1,2.35,2.35,0,0,0-.75.11,2.1,2.1,0,0,0-.62.3,2,2,0,0,0-.46.45,2.26,2.26,0,0,0-.28.49A4.88,4.88,0,0,0,93.49,124.44Z"/><path class="cls-3" d="M99.82,128.78q.33-4.27.34-6.92h1.21l-.09,1.37c.12-.19.21-.34.28-.44a2.46,2.46,0,0,1,.27-.33,2.67,2.67,0,0,1,.4-.32,2.13,2.13,0,0,1,.55-.24,3.5,3.5,0,0,1,.64-.15,4.74,4.74,0,0,1,.65,0,4.22,4.22,0,0,1,1.13.15,2,2,0,0,1,.9.46,1.58,1.58,0,0,1,.47.73,3,3,0,0,1,.12.87v.34q0,.25,0,.66l-.14,2.87c0,.27,0,.61,0,1h-1.21c0-.55.08-1.08.1-1.59l.09-1.59c0-.55,0-1,0-1.24a1.9,1.9,0,0,0-.21-1,1.35,1.35,0,0,0-.66-.55,2.53,2.53,0,0,0-1-.2,2.41,2.41,0,0,0-1.36.38,2.22,2.22,0,0,0-.81,1,5,5,0,0,0-.28,1.35c-.07.72-.12,1.86-.15,3.41H99.82Z"/><path class="cls-3" d="M108,128.65l0-.5c0-.05,0-.23,0-.52a5,5,0,0,0,1.94.46,2.08,2.08,0,0,0,.79-.13,1,1,0,0,0,.48-.36.87.87,0,0,0,.16-.5,1,1,0,0,0-.05-.29,1.11,1.11,0,0,0-.13-.27,2.12,2.12,0,0,0-.26-.3l-.73-.6-.83-.69a3.94,3.94,0,0,1-.49-.52,1.85,1.85,0,0,1-.29-.53,1.4,1.4,0,0,1-.1-.54,1.43,1.43,0,0,1,.28-.84,1.63,1.63,0,0,1,.8-.62,3.47,3.47,0,0,1,1.22-.2,8.46,8.46,0,0,1,1.73.19c0,.35,0,.68.07,1a3.92,3.92,0,0,0-1.51-.31,2.27,2.27,0,0,0-.75.11.92.92,0,0,0-.5.31.76.76,0,0,0-.16.47,1.06,1.06,0,0,0,0,.31,1.21,1.21,0,0,0,.2.33,2.61,2.61,0,0,0,.33.34l.79.65a7.71,7.71,0,0,1,.81.69,2.7,2.7,0,0,1,.38.47,2.26,2.26,0,0,1,.23.47,1.59,1.59,0,0,1,.07.48,1.52,1.52,0,0,1-.28.89,1.77,1.77,0,0,1-.85.64,3.31,3.31,0,0,1-1.25.22l-.7,0-.67-.09Z"/><path class="cls-3" d="M113.9,128.78l.12-1.72.13-2.94,0-2.26h1.25c0,.71-.1,1.45-.14,2.23s-.08,1.63-.1,2.55,0,1.63,0,2.14H113.9Zm.31-8.41c0-.43,0-.75,0-1h1.32c0,.14,0,.46,0,1h-1.3Z"/><path class="cls-3" d="M120.46,121.7a4.46,4.46,0,0,1,1.37.21,2.8,2.8,0,0,1,1.12.65,2.71,2.71,0,0,1,.72,1.12,4,4,0,0,1,.25,1.43,4.71,4.71,0,0,1-.26,1.55,3.87,3.87,0,0,1-.74,1.27,2.83,2.83,0,0,1-1.16.76,4.66,4.66,0,0,1-2.86,0,3,3,0,0,1-1.84-1.83,3.91,3.91,0,0,1-.25-1.41,4.36,4.36,0,0,1,.45-2,2.93,2.93,0,0,1,1.33-1.34A4.15,4.15,0,0,1,120.46,121.7Zm0,.87a2.46,2.46,0,0,0-1.28.35,2,2,0,0,0-.86,1,4,4,0,0,0-.28,1.53,3.38,3.38,0,0,0,.23,1.3,2,2,0,0,0,.76.93,2.27,2.27,0,0,0,1.29.36,2.65,2.65,0,0,0,1-.18,1.85,1.85,0,0,0,.79-.58,2.47,2.47,0,0,0,.51-1,4.51,4.51,0,0,0,.16-1.23,3.77,3.77,0,0,0-.16-1.13,1.94,1.94,0,0,0-.5-.84,2,2,0,0,0-.77-.45A2.8,2.8,0,0,0,120.43,122.57Z"/><path class="cls-3" d="M125.22,128.78q.33-4.27.34-6.92h1.21l-.09,1.37c.11-.19.2-.34.27-.44a2,2,0,0,1,.28-.33,2.24,2.24,0,0,1,.4-.32,2,2,0,0,1,.55-.24,3.5,3.5,0,0,1,.64-.15,4.6,4.6,0,0,1,.64,0,4.35,4.35,0,0,1,1.14.15,2.14,2.14,0,0,1,.9.46,1.67,1.67,0,0,1,.47.73,3,3,0,0,1,.12.87c0,.06,0,.17,0,.34s0,.39,0,.66l-.13,2.87c0,.27,0,.61,0,1h-1.21c0-.55.08-1.08.1-1.59l.09-1.59c0-.55,0-1,0-1.24a2,2,0,0,0-.2-1,1.35,1.35,0,0,0-.66-.55,2.53,2.53,0,0,0-1-.2,2.45,2.45,0,0,0-1.37.38,2.27,2.27,0,0,0-.8,1,4.31,4.31,0,0,0-.28,1.35c-.07.72-.12,1.86-.15,3.41h-1.23Z"/><path class="cls-3" d="M133.38,128.65l0-.5c0-.05,0-.23-.06-.52a5,5,0,0,0,1.95.46A2,2,0,0,0,136,128a.9.9,0,0,0,.48-.36.87.87,0,0,0,.16-.5,1,1,0,0,0,0-.29,1.11,1.11,0,0,0-.13-.27,1.73,1.73,0,0,0-.27-.3l-.72-.6c-.37-.3-.65-.53-.83-.69a3.37,3.37,0,0,1-.49-.52,2.17,2.17,0,0,1-.3-.53,1.61,1.61,0,0,1-.09-.54,1.49,1.49,0,0,1,.27-.84,1.72,1.72,0,0,1,.8-.62,3.52,3.52,0,0,1,1.23-.2,8.61,8.61,0,0,1,1.73.19c0,.35,0,.68.07,1a4,4,0,0,0-1.51-.31,2.27,2.27,0,0,0-.75.11,1,1,0,0,0-.51.31.83.83,0,0,0-.16.47.81.81,0,0,0,.06.31,1.15,1.15,0,0,0,.19.33,3.63,3.63,0,0,0,.34.34c.13.12.4.33.79.65s.66.54.81.69a3.26,3.26,0,0,1,.38.47,2.26,2.26,0,0,1,.23.47,2,2,0,0,1,.07.48,1.53,1.53,0,0,1-.29.89,1.79,1.79,0,0,1-.84.64,3.37,3.37,0,0,1-1.26.22l-.69,0-.67-.09Z"/><path class="cls-3" d="M17.41,145.23a3.17,3.17,0,0,1-1.21-1.3,4.18,4.18,0,0,1-.43-2v-2.73a4.17,4.17,0,0,1,.43-1.94A3.19,3.19,0,0,1,17.41,136a3.59,3.59,0,0,1,1.82-.46,3.37,3.37,0,0,1,2.77,1.4,3.89,3.89,0,0,1,.65,1.56H21.22a2.24,2.24,0,0,0-.43-.84,2.07,2.07,0,0,0-.72-.56,1.93,1.93,0,0,0-2.62.92,2.82,2.82,0,0,0-.25,1.23V142a2.79,2.79,0,0,0,.25,1.23,1.93,1.93,0,0,0,.71.83,2,2,0,0,0,1.07.29,2.06,2.06,0,0,0,1.56-.73,2.16,2.16,0,0,0,.43-.87h1.43a3.89,3.89,0,0,1-.65,1.56,3.42,3.42,0,0,1-1.21,1,3.32,3.32,0,0,1-1.56.37A3.49,3.49,0,0,1,17.41,145.23Z"/><path class="cls-3" d="M25.64,145.33a2.44,2.44,0,0,1-1-1.06,3.71,3.71,0,0,1-.35-1.67v-1.16a3.65,3.65,0,0,1,.35-1.65,2.34,2.34,0,0,1,1-1,3.65,3.65,0,0,1,3.16,0,2.39,2.39,0,0,1,1,1,3.65,3.65,0,0,1,.34,1.65v1.18a3.67,3.67,0,0,1-.34,1.66,2.53,2.53,0,0,1-1,1.05,3.65,3.65,0,0,1-3.16,0Zm2.71-1.43a1.85,1.85,0,0,0,.4-1.28v-1.18a1.85,1.85,0,0,0-.4-1.28,1.64,1.64,0,0,0-2.26,0,1.85,1.85,0,0,0-.4,1.28v1.18a1.85,1.85,0,0,0,.4,1.28,1.62,1.62,0,0,0,2.26,0Z"/><path class="cls-3" d="M32.13,138.49h1.39v7.09H32.13Zm4.23,2.8a1.72,1.72,0,0,0-.36-1.17,1.36,1.36,0,0,0-1-.41,1.43,1.43,0,0,0-1.06.37,1.34,1.34,0,0,0-.37,1l-.14-1.36a2.46,2.46,0,0,1,.86-1,2,2,0,0,1,1.17-.35,2.27,2.27,0,0,1,1.27.34,2.06,2.06,0,0,1,.8,1,3.93,3.93,0,0,1,.28,1.57v4.3h-1.4Zm4.24,0a1.64,1.64,0,0,0-.39-1.17,1.44,1.44,0,0,0-1.09-.41,1.28,1.28,0,0,0-1,.4,1.65,1.65,0,0,0-.35,1.12l-.28-1.37a2.76,2.76,0,0,1,.88-1.09,2.12,2.12,0,0,1,1.22-.38,2.41,2.41,0,0,1,1.31.34,2.1,2.1,0,0,1,.82,1,3.93,3.93,0,0,1,.29,1.57v4.3H40.6Z"/><path class="cls-3" d="M44.12,138.49h1.39v10H44.12Zm2,6.88a1.8,1.8,0,0,1-.72-.9l.09-1.48a1.87,1.87,0,0,0,.16.78,1.19,1.19,0,0,0,.48.49,1.61,1.61,0,0,0,.76.17A1.38,1.38,0,0,0,48,144a1.73,1.73,0,0,0,.37-1.19v-1.53a1.77,1.77,0,0,0-.37-1.21,1.36,1.36,0,0,0-1.07-.44,1.61,1.61,0,0,0-.76.17,1.11,1.11,0,0,0-.48.48,1.77,1.77,0,0,0-.16.76l-.14-1.36a2.33,2.33,0,0,1,.84-1,2,2,0,0,1,1.15-.34,2.34,2.34,0,0,1,1.29.34,2.1,2.1,0,0,1,.82,1,3.93,3.93,0,0,1,.28,1.57v1.54a3.83,3.83,0,0,1-.29,1.55,2.13,2.13,0,0,1-.84,1,2.45,2.45,0,0,1-1.32.34A2.1,2.1,0,0,1,46.14,145.37Z"/><path class="cls-3" d="M53,142.8a1.62,1.62,0,0,0,.37,1.15,1.37,1.37,0,0,0,1.07.41,1.46,1.46,0,0,0,1.06-.36,1.37,1.37,0,0,0,.38-1l.1,1.48a2.1,2.1,0,0,1-.72.88,2,2,0,0,1-1.21.36,2.23,2.23,0,0,1-1.81-.76,3.17,3.17,0,0,1-.64-2.13v-4.31H53Zm2.88-4.31h1.39v7.09H55.84Z"/><path class="cls-3" d="M58.8,138.49H62v1.26H58.8Zm1.13,6.65a2.14,2.14,0,0,1-.4-1.4v-7.32h1.4v7.33a.64.64,0,0,0,.1.4.34.34,0,0,0,.3.14H62v1.33h-.81A1.56,1.56,0,0,1,59.93,145.14Z"/><path class="cls-3" d="M65.14,145.32a2.53,2.53,0,0,1-1.07-1.08,3.84,3.84,0,0,1-.36-1.73v-.8a4.28,4.28,0,0,1,.35-1.8,2.55,2.55,0,0,1,1-1.13,3.19,3.19,0,0,1,1.62-.39,2.59,2.59,0,0,1,1.51.44,2.79,2.79,0,0,1,1,1.29,5.49,5.49,0,0,1,.34,2v.47H64.72v-1.12h3.46a2.36,2.36,0,0,0-.45-1.35,1.27,1.27,0,0,0-1-.49,1.53,1.53,0,0,0-1.23.52,2.24,2.24,0,0,0-.44,1.47v.91a1.85,1.85,0,0,0,.47,1.35,1.79,1.79,0,0,0,1.32.47,2.29,2.29,0,0,0,.84-.17,2.15,2.15,0,0,0,.74-.48l.92.92a3.85,3.85,0,0,1-1.18.78,3.48,3.48,0,0,1-1.32.28A3.59,3.59,0,0,1,65.14,145.32Z"/><path class="cls-3" d="M71.42,138.49h1.39v7.09H71.42Zm3.44,1.34a1.67,1.67,0,0,0-.65-.12,1.28,1.28,0,0,0-1.4,1.38l-.14-1.36a2.52,2.52,0,0,1,.85-1,2,2,0,0,1,1.15-.35,2.41,2.41,0,0,1,.87.14,1.84,1.84,0,0,1,.69.41l-.91,1.23A1.2,1.2,0,0,0,74.86,139.83Z"/><path class="cls-3" d="M80.26,135.65h1.52l2.39,7.79,2.38-7.79h1.52l-3.24,9.93H83.51Z"/><path class="cls-3" d="M89.37,135.65h1.39V137H89.37Zm0,2.84h1.39v7.09H89.37Z"/><path class="cls-3" d="M94.21,145.56a4.49,4.49,0,0,1-1-.36,4.38,4.38,0,0,1-.88-.62l.83-1a4.79,4.79,0,0,0,1.14.66,3.23,3.23,0,0,0,1.12.22,2.39,2.39,0,0,0,1.24-.26.84.84,0,0,0,.42-.77.59.59,0,0,0-.23-.51,1.23,1.23,0,0,0-.56-.23c-.22,0-.54-.07-.94-.11H95a5.06,5.06,0,0,1-1.17-.2,1.59,1.59,0,0,1-.8-.55,1.83,1.83,0,0,1-.32-1.15,2.42,2.42,0,0,1,.31-1.26,1.85,1.85,0,0,1,.92-.74,3.93,3.93,0,0,1,1.52-.25,5.22,5.22,0,0,1,1.06.1,5.34,5.34,0,0,1,1,.3,5.58,5.58,0,0,1,.88.51l-.84,1a4.59,4.59,0,0,0-1-.51,3.06,3.06,0,0,0-1-.17,2,2,0,0,0-1.07.24.84.84,0,0,0-.35.73.51.51,0,0,0,.2.43,1.18,1.18,0,0,0,.51.19c.2,0,.5.06.87.08h.26a6.64,6.64,0,0,1,1.27.2,1.71,1.71,0,0,1,.88.6,2,2,0,0,1,.36,1.28,2.28,2.28,0,0,1-.33,1.27,2,2,0,0,1-1,.75,4.63,4.63,0,0,1-1.66.26A5,5,0,0,1,94.21,145.56Z"/><path class="cls-3" d="M100.14,135.65h1.4V137h-1.4Zm0,2.84h1.4v7.09h-1.4Z"/><path class="cls-3" d="M104.8,145.33a2.44,2.44,0,0,1-1-1.06,3.71,3.71,0,0,1-.35-1.67v-1.16a3.65,3.65,0,0,1,.35-1.65,2.34,2.34,0,0,1,1-1,3.65,3.65,0,0,1,3.16,0,2.39,2.39,0,0,1,1,1,3.65,3.65,0,0,1,.34,1.65v1.18a3.67,3.67,0,0,1-.34,1.66,2.53,2.53,0,0,1-1,1.05,3.65,3.65,0,0,1-3.16,0Zm2.71-1.43a1.85,1.85,0,0,0,.4-1.28v-1.18a1.85,1.85,0,0,0-.4-1.28,1.64,1.64,0,0,0-2.26,0,1.85,1.85,0,0,0-.4,1.28v1.18a1.85,1.85,0,0,0,.4,1.28,1.62,1.62,0,0,0,2.26,0Z"/><path class="cls-3" d="M111.29,138.49h1.39v7.09h-1.39Zm4.3,2.8a1.64,1.64,0,0,0-.39-1.17,1.68,1.68,0,0,0-2.15,0,1.34,1.34,0,0,0-.37,1l-.14-1.36a2.46,2.46,0,0,1,.86-1,2,2,0,0,1,1.17-.35,2.19,2.19,0,0,1,1.78.75,3.22,3.22,0,0,1,.64,2.14v4.3h-1.4Z"/><path class="cls-3" d="M118.87,144.12h1.46v2.22l-1.46,1.51Z"/><path class="cls-3" d="M126.17,135.65h1.27l4.86,7.68-.16.18v-7.86h1.38v9.93h-1.28L127.39,138l.17-.18v7.75h-1.39Z"/><path class="cls-3" d="M136,135.65h1.39v9.93H136Zm.69,8.61h5.69v1.32h-5.69Z"/><path class="cls-3" d="M144,135.65h1.4v9.93H144Zm.72,4.75h3.18a1.48,1.48,0,0,0,.79-.21,1.35,1.35,0,0,0,.53-.6,2.23,2.23,0,0,0,0-1.8,1.35,1.35,0,0,0-.53-.6,1.4,1.4,0,0,0-.79-.22h-3.18v-1.32h3.13a3.2,3.2,0,0,1,1.57.37,2.7,2.7,0,0,1,1.05,1.07,3.64,3.64,0,0,1,0,3.2,2.61,2.61,0,0,1-1.05,1.06,3.2,3.2,0,0,1-1.57.38h-3.13Z"/></g></g></svg>