<svg xmlns="http://www.w3.org/2000/svg" viewBox="0 0 285.22 158.25"><defs><style>.cls-1{fill:#fff;stroke:#231f20;stroke-miterlimit:10;stroke-width:2px;}.cls-2{fill:#231f20;}</style></defs><g id="Layer_2" data-name="Layer 2"><g id="Layer_1-2" data-name="Layer 1"><rect class="cls-1" x="1" y="1" width="283.22" height="156.25"/><path class="cls-2" d="M12.67,34.72c.14-1.32.25-2.51.34-3.56s.15-2.28.21-3.68.11-2.86.13-4.4.05-2.78.05-3.69l2.27,0c.6,0,1.33,0,2.19-.05s1.7-.05,2.51-.05,1.81,0,2.56.11a5.91,5.91,0,0,1,1.54.33,4.21,4.21,0,0,1,1.16.6,3.65,3.65,0,0,1,.78.79,3.17,3.17,0,0,1,.49,1,4.26,4.26,0,0,1,.18,1.26,5.34,5.34,0,0,1-.19,1.41,4.13,4.13,0,0,1-.6,1.23,4,4,0,0,1-1,1,8.5,8.5,0,0,1-1.74.86l.58,1.43c.16.4.34.8.53,1.21l1.5,3.29c.07.15.19.43.36.85l-2.49,0-2.65,0c-.12-.39-.34-1.12-.65-2.17q-.2-.66-.33-1c-.18-.53-.44-1.28-.8-2.24l-1.15-3.18a6.08,6.08,0,0,0,1.19.12A4.43,4.43,0,0,0,21.09,26a2,2,0,0,0,1-.77,2,2,0,0,0,.34-1.08,1.43,1.43,0,0,0-.26-.85,1.49,1.49,0,0,0-.81-.55,6,6,0,0,0-1.72-.18l-.81,0-1,0c-.1,1.53-.18,3.4-.26,5.61s-.12,4.38-.14,6.51l-2.44,0Z"/><path class="cls-2" d="M39.79,31.32c-.1.45-.28,1.54-.56,3.26a21.45,21.45,0,0,1-2.19.34,17.78,17.78,0,0,1-1.8.09,14.46,14.46,0,0,1-2.46-.19,5.76,5.76,0,0,1-1.94-.65,4.75,4.75,0,0,1-2.2-2.84,7,7,0,0,1-.28-2,7.28,7.28,0,0,1,.57-2.81,5.59,5.59,0,0,1,1.48-2.15,5.41,5.41,0,0,1,2.08-1.1A9.33,9.33,0,0,1,34.9,23a10.28,10.28,0,0,1,2.45.29,4.61,4.61,0,0,1,2,1A4.33,4.33,0,0,1,40.47,26a5.73,5.73,0,0,1,.34,2,8.5,8.5,0,0,1-.14,1.42H32.79c0,.12,0,.23,0,.33a2,2,0,0,0,.87,1.78,3.74,3.74,0,0,0,2.11.57,9.28,9.28,0,0,0,1.69-.18A21,21,0,0,0,39.79,31.32ZM32.88,27.7h3.71c0-.13,0-.24,0-.33a2.2,2.2,0,0,0-.21-1,1.3,1.3,0,0,0-.59-.61,2.06,2.06,0,0,0-.87-.19,2.08,2.08,0,0,0-.66.11,1.85,1.85,0,0,0-.56.32,1.71,1.71,0,0,0-.42.47A2.29,2.29,0,0,0,33,27,5.4,5.4,0,0,0,32.88,27.7Z"/><path class="cls-2" d="M51.85,31.13q-.06.45-.27,1.65l-.29,1.8a14.42,14.42,0,0,1-3.45.43,8.06,8.06,0,0,1-2.14-.25,4.94,4.94,0,0,1-2-1,4.51,4.51,0,0,1-1.29-1.81A7.47,7.47,0,0,1,42,29.18a7.83,7.83,0,0,1,.47-2.68,5.14,5.14,0,0,1,1.39-2.13,4.79,4.79,0,0,1,2.05-1.13A10.06,10.06,0,0,1,48.36,23c.53,0,1.07,0,1.6.08a16.6,16.6,0,0,1,2,.37l0,.25c0,.27,0,.55,0,.83s0,.72.07,1.33l.07,1a8.88,8.88,0,0,0-2.84-.56,3.32,3.32,0,0,0-1.56.34,2.21,2.21,0,0,0-1,1,3.38,3.38,0,0,0-.32,1.5,3.28,3.28,0,0,0,.29,1.45,1.8,1.8,0,0,0,.91.87,3.17,3.17,0,0,0,1.38.3,6.6,6.6,0,0,0,.91-.08,7.71,7.71,0,0,0,.91-.18A8.31,8.31,0,0,0,51.85,31.13Z"/><path class="cls-2" d="M60.6,23a8.59,8.59,0,0,1,2.68.42,6.12,6.12,0,0,1,2.17,1.23,5,5,0,0,1,1.31,1.88,6.24,6.24,0,0,1,.42,2.31,6.66,6.66,0,0,1-.38,2.28,5.6,5.6,0,0,1-3.56,3.46,9.13,9.13,0,0,1-2.93.47,8.92,8.92,0,0,1-2.74-.42,5.78,5.78,0,0,1-2.2-1.21,5,5,0,0,1-1.32-1.91,6.17,6.17,0,0,1-.45-2.34A6.35,6.35,0,0,1,54,26.8a5.31,5.31,0,0,1,1.37-2,6.31,6.31,0,0,1,2.31-1.37A9,9,0,0,1,60.6,23Zm-.08,3.3a2.24,2.24,0,0,0-1.28.37,2.32,2.32,0,0,0-.85,1.08,4.2,4.2,0,0,0-.28,1.56,2.67,2.67,0,0,0,.61,1.89,2,2,0,0,0,1.55.66,2.21,2.21,0,0,0,1.27-.38,2.25,2.25,0,0,0,.85-1.11,4.35,4.35,0,0,0,.29-1.58,3.31,3.31,0,0,0-.23-1.25,1.85,1.85,0,0,0-.73-.9A2.09,2.09,0,0,0,60.52,26.26Z"/><path class="cls-2" d="M68.88,34.72l.31-5.42.18-4.23,0-1.82,2.18,0,2.08,0-.08,1.49a7.16,7.16,0,0,1,.59-.69,3.66,3.66,0,0,1,.59-.46,4,4,0,0,1,.72-.35,5.62,5.62,0,0,1,.83-.2,5.08,5.08,0,0,1,1-.08,5.71,5.71,0,0,1,1,.09,5.61,5.61,0,0,1,.83.24,2.7,2.7,0,0,1,.61.34,2.63,2.63,0,0,1,.45.43,4.17,4.17,0,0,1,.46.71,4,4,0,0,1,1-1.09A4,4,0,0,1,83,23.13,6.17,6.17,0,0,1,84.41,23a5.86,5.86,0,0,1,1.84.28,3,3,0,0,1,1.42,1A2.78,2.78,0,0,1,88.23,26c0,.35,0,.87-.08,1.56S88,29.45,88,31.15s-.14,2.88-.14,3.57l-2,0-2.47,0c.08-1,.15-2.15.23-3.58s.12-2.43.12-3a2.55,2.55,0,0,0-.17-1.09,1,1,0,0,0-.43-.49,1.27,1.27,0,0,0-.58-.13,1.18,1.18,0,0,0-.58.13,1.23,1.23,0,0,0-.48.41,3.42,3.42,0,0,0-.44.94,7.1,7.1,0,0,0-.21,1.35q-.08.91-.12,2.43l-.09,3-2.17,0-2.32,0q.11-1,.24-3.36c.09-1.57.13-2.63.13-3.16a2.9,2.9,0,0,0-.13-1,1.43,1.43,0,0,0-.38-.54,1,1,0,0,0-.64-.2,1.21,1.21,0,0,0-.77.26,2.08,2.08,0,0,0-.55.74,4,4,0,0,0-.33,1.33c-.06.57-.12,1.43-.17,2.59s-.09,2.28-.1,3.35l-2.21,0Z"/><path class="cls-2" d="M90.32,34.72l.31-5.42.18-4.23,0-1.82,2.18,0,2.08,0L95,24.74a7.16,7.16,0,0,1,.59-.69,3.66,3.66,0,0,1,.59-.46,4,4,0,0,1,.72-.35,5.62,5.62,0,0,1,.83-.2,5.08,5.08,0,0,1,1-.08,5.71,5.71,0,0,1,1.05.09,5.61,5.61,0,0,1,.83.24,2.94,2.94,0,0,1,.61.34,2.63,2.63,0,0,1,.45.43,4.9,4.9,0,0,1,.46.71,3.67,3.67,0,0,1,2.29-1.64,6.32,6.32,0,0,1,1.45-.17,5.86,5.86,0,0,1,1.84.28,3,3,0,0,1,1.42,1,2.78,2.78,0,0,1,.56,1.79c0,.35,0,.87-.08,1.56s-.12,1.89-.2,3.59-.14,2.88-.14,3.57l-2,0-2.47,0c.08-1,.15-2.15.23-3.58s.12-2.43.12-3a2.55,2.55,0,0,0-.17-1.09,1,1,0,0,0-.43-.49,1.27,1.27,0,0,0-.58-.13,1.22,1.22,0,0,0-.59.13,1.21,1.21,0,0,0-.47.41,3.42,3.42,0,0,0-.44.94,7.1,7.1,0,0,0-.21,1.35q-.08.91-.12,2.43l-.09,3-2.17,0-2.32,0c.07-.67.14-1.79.24-3.36s.13-2.63.13-3.16a2.9,2.9,0,0,0-.13-1,1.43,1.43,0,0,0-.38-.54,1,1,0,0,0-.64-.2,1.21,1.21,0,0,0-.77.26,2.08,2.08,0,0,0-.55.74,4,4,0,0,0-.33,1.33c-.06.57-.12,1.43-.17,2.59s-.09,2.28-.1,3.35l-2.21,0Z"/><path class="cls-2" d="M122.84,31.32c-.1.45-.28,1.54-.56,3.26a21.45,21.45,0,0,1-2.19.34,17.78,17.78,0,0,1-1.8.09,14.46,14.46,0,0,1-2.46-.19,5.76,5.76,0,0,1-1.94-.65A4.85,4.85,0,0,1,112.53,33a5,5,0,0,1-.84-1.66,7,7,0,0,1-.28-2,7.28,7.28,0,0,1,.57-2.81,5.59,5.59,0,0,1,1.48-2.15,5.41,5.41,0,0,1,2.08-1.1A9.33,9.33,0,0,1,118,23a10.28,10.28,0,0,1,2.45.29,4.61,4.61,0,0,1,2,1A4.33,4.33,0,0,1,123.52,26a5.73,5.73,0,0,1,.34,2,8.5,8.5,0,0,1-.14,1.42h-7.88c0,.12,0,.23,0,.33a2,2,0,0,0,.87,1.78,3.74,3.74,0,0,0,2.11.57,9.19,9.19,0,0,0,1.69-.18A21,21,0,0,0,122.84,31.32Zm-6.91-3.62h3.71c0-.13,0-.24,0-.33a2.2,2.2,0,0,0-.21-1,1.3,1.3,0,0,0-.59-.61,2.06,2.06,0,0,0-.87-.19,2,2,0,0,0-.65.11,1.78,1.78,0,0,0-.57.32,1.71,1.71,0,0,0-.42.47,2.29,2.29,0,0,0-.25.53C116,27.16,116,27.4,115.93,27.7Z"/><path class="cls-2" d="M125.22,34.72c.22-1.7.38-3.58.5-5.64s.18-4,.2-5.83l2.33,0,2.18,0-.11,1.53a8.37,8.37,0,0,1,.64-.66,3.73,3.73,0,0,1,.67-.47,4.67,4.67,0,0,1,.85-.38,6.42,6.42,0,0,1,1-.23,8,8,0,0,1,1.12-.08,7.4,7.4,0,0,1,1.57.17,4,4,0,0,1,1.29.5,3,3,0,0,1,.86.79,2.45,2.45,0,0,1,.46,1,5.35,5.35,0,0,1,.12,1.13c0,.29,0,.9-.09,1.85l-.2,4.06c0,.8-.05,1.54-.05,2.23l-2.12,0c-.89,0-1.71,0-2.44,0,.07-.69.14-1.7.22-3s.11-2.29.11-2.84a2.52,2.52,0,0,0-.49-1.77,1.67,1.67,0,0,0-1.23-.5,2,2,0,0,0-1.23.43,2.72,2.72,0,0,0-.9,1.24,10.29,10.29,0,0,0-.44,2.68c-.09,1.24-.14,2.51-.17,3.8l-2.19,0Z"/><path class="cls-2" d="M153.61,34.72l-2,0-2.18,0,.07-1.43c-.29.28-.55.51-.77.69a3.71,3.71,0,0,1-.83.51,4.93,4.93,0,0,1-1.1.38,5.43,5.43,0,0,1-1.22.14,5.06,5.06,0,0,1-2-.4A4.48,4.48,0,0,1,142,33.5a4.54,4.54,0,0,1-1-1.72,6.49,6.49,0,0,1-.33-2.06,7.73,7.73,0,0,1,.6-3,5.94,5.94,0,0,1,1.55-2.28A5.73,5.73,0,0,1,145,23.3a9.54,9.54,0,0,1,2.62-.34,15.47,15.47,0,0,1,2.18.17c.06-.89.1-2.14.12-3.74l2.25,0,2.29,0c-.21,2.22-.41,4.93-.57,8.14S153.61,33.13,153.61,34.72Zm-4-8.67a5.12,5.12,0,0,0-1.12-.14,3.82,3.82,0,0,0-1.86.42,2.78,2.78,0,0,0-1.18,1.32A4.21,4.21,0,0,0,145,29.4a3,3,0,0,0,.23,1.18,1.83,1.83,0,0,0,.71.82,2,2,0,0,0,2.2,0,2.44,2.44,0,0,0,.83-1,5.49,5.49,0,0,0,.44-1.6C149.53,28.12,149.58,27.22,149.61,26.05Z"/><path class="cls-2" d="M157.19,26.52c.15-.74.24-1.25.27-1.54s.1-.72.18-1.32a26.69,26.69,0,0,1,5.56-.7,9.69,9.69,0,0,1,2.43.29,3.53,3.53,0,0,1,1.72,1,2.67,2.67,0,0,1,.62,1.89c0,.42-.06,1.37-.17,2.83s-.2,3.39-.26,5.78l-2.19,0-2.25,0c.1-.83.22-2.53.34-5.1l-.67.29-.84.27-1,.3a2.08,2.08,0,0,0-.59.32,1.09,1.09,0,0,0-.36.39.94.94,0,0,0-.11.45.83.83,0,0,0,.31.65,1.41,1.41,0,0,0,1,.27,3.08,3.08,0,0,0,.51,0,4.71,4.71,0,0,0,.74-.2c-.22.58-.48,1.42-.78,2.53a10.79,10.79,0,0,1-1.83.16,6,6,0,0,1-2.32-.39,2.93,2.93,0,0,1-1.42-1.25,3.39,3.39,0,0,1-.5-1.73,3,3,0,0,1,.18-1,3.61,3.61,0,0,1,.58-1,3.83,3.83,0,0,1,.92-.83,6.18,6.18,0,0,1,1.44-.64,17.72,17.72,0,0,1,2.32-.58c.39-.07.75-.15,1.07-.24a4.57,4.57,0,0,0,.7-.22,1.26,1.26,0,0,0,.34-.23.8.8,0,0,0,.18-.27.72.72,0,0,0,.06-.29.73.73,0,0,0-.36-.66,1.92,1.92,0,0,0-1.06-.23A13.83,13.83,0,0,0,157.19,26.52Z"/><path class="cls-2" d="M178.42,31.41c-.14.63-.25,1.25-.35,1.85l-.25,1.37a16.82,16.82,0,0,1-1.73.31,10.17,10.17,0,0,1-1.21.07,7.79,7.79,0,0,1-1.69-.17,2.61,2.61,0,0,1-1.24-.59,2.22,2.22,0,0,1-.67-1,3.94,3.94,0,0,1-.18-1.19c0-.08,0-.21,0-.4s0-.62.08-1.28l.24-3.88h-1.75c0-.52.07-1.2.1-2.05l0-1h1.86c0-.35.1-1.1.17-2.26l1.92-.39c.35-.07,1.1-.24,2.25-.52-.06,1-.09,2-.12,3.17h2.56c-.06,1.56-.09,2.58-.09,3.09h-2.58l-.13,2.8q0,.63,0,.81a2.88,2.88,0,0,0,.12.9.88.88,0,0,0,.42.52,1.38,1.38,0,0,0,.65.15l.57,0A9.85,9.85,0,0,0,178.42,31.41Z"/><path class="cls-2" d="M179.79,34.72c.1-.92.18-1.67.23-2.26s.11-1.35.16-2.27.09-1.94.12-3.05.07-2.42.09-3.89l2.34,0,2.29,0c-.13,1.41-.22,2.66-.28,3.73s-.09,2.2-.1,3.4c0,2.13,0,3.57,0,4.34l-2.3,0Zm.71-12.91c0-.89.06-1.59.06-2.11,0-.15,0-.35,0-.61l2.28,0c.85,0,1.59,0,2.23,0,0,.24,0,.43-.05.59l-.07,1.39c0,.21,0,.46,0,.74l-2.13,0Z"/><path class="cls-2" d="M193.71,23a8.54,8.54,0,0,1,2.68.42,6.26,6.26,0,0,1,2.18,1.23,4.94,4.94,0,0,1,1.3,1.88,6,6,0,0,1,.43,2.31,6.9,6.9,0,0,1-.38,2.28,5.67,5.67,0,0,1-1.28,2,5.57,5.57,0,0,1-2.28,1.42,9.19,9.19,0,0,1-2.94.47,9,9,0,0,1-2.74-.42,5.73,5.73,0,0,1-2.19-1.21,5.11,5.11,0,0,1-1.33-1.91,6.48,6.48,0,0,1,0-4.67,5.55,5.55,0,0,1,1.37-2,6.43,6.43,0,0,1,2.32-1.37A9,9,0,0,1,193.71,23Zm-.07,3.3a2.21,2.21,0,0,0-2.13,1.45,4.2,4.2,0,0,0-.29,1.56,2.67,2.67,0,0,0,.62,1.89,2,2,0,0,0,1.55.66,2.26,2.26,0,0,0,1.27-.38,2.37,2.37,0,0,0,.85-1.11,4.34,4.34,0,0,0,.28-1.58,3.31,3.31,0,0,0-.22-1.25,1.87,1.87,0,0,0-.74-.9A2.08,2.08,0,0,0,193.64,26.26Z"/><path class="cls-2" d="M201.85,34.72c.21-1.7.38-3.58.49-5.64s.19-4,.21-5.83l2.33,0,2.18,0-.12,1.53a8.24,8.24,0,0,1,.65-.66,3.62,3.62,0,0,1,.66-.47,5,5,0,0,1,.85-.38,6.71,6.71,0,0,1,1-.23A8.09,8.09,0,0,1,211.2,23a7.5,7.5,0,0,1,1.58.17,4.07,4.07,0,0,1,1.28.5,2.87,2.87,0,0,1,.87.79,2.72,2.72,0,0,1,.46,1,5.35,5.35,0,0,1,.11,1.13c0,.29,0,.9-.09,1.85l-.19,4.06c0,.8-.06,1.54-.06,2.23l-2.12,0q-1.33,0-2.43,0c.06-.69.14-1.7.21-3s.11-2.29.11-2.84a2.52,2.52,0,0,0-.49-1.77,1.64,1.64,0,0,0-1.23-.5A2.09,2.09,0,0,0,208,27a2.78,2.78,0,0,0-.89,1.24,10.2,10.2,0,0,0-.45,2.68c-.08,1.24-.14,2.51-.17,3.8l-2.19,0Z"/><path class="cls-2" d="M12.56,62.08c-.1-1.59-.21-2.87-.34-3.83a12.85,12.85,0,0,0,2.24.78,7.93,7.93,0,0,0,1.73.22A3.59,3.59,0,0,0,17.75,59a.9.9,0,0,0,.58-.84,1.15,1.15,0,0,0-.06-.37,1.51,1.51,0,0,0-.21-.39,3.22,3.22,0,0,0-.45-.48L15.49,55c-.49-.42-.84-.72-1-.91a6.48,6.48,0,0,1-.93-1.07,4,4,0,0,1-.49-1,3.94,3.94,0,0,1,.09-2.43,4.3,4.3,0,0,1,.73-1.23,4.23,4.23,0,0,1,1.28-1,5.82,5.82,0,0,1,1.71-.56,10.41,10.41,0,0,1,1.87-.16,21.7,21.7,0,0,1,4.13.44c0,.52,0,1,.08,1.42s.1,1.19.22,2.27a10.22,10.22,0,0,0-1.89-.58,8,8,0,0,0-1.47-.17,2.92,2.92,0,0,0-1.46.33,1,1,0,0,0-.57.81,1.15,1.15,0,0,0,.09.44,2.12,2.12,0,0,0,.33.5,6.64,6.64,0,0,0,.65.63l1.27,1,.81.64c.24.2.5.43.78.71a10.31,10.31,0,0,1,.72.82,5,5,0,0,1,.46.74,3.17,3.17,0,0,1,.32,1.42A4.08,4.08,0,0,1,22.71,60a4.13,4.13,0,0,1-1.37,1.51,5.82,5.82,0,0,1-1.95.82,10.19,10.19,0,0,1-2.24.24A25.69,25.69,0,0,1,12.56,62.08Z"/><path class="cls-2" d="M24.34,67.45c-.24-1.79-.39-2.9-.48-3.34a6,6,0,0,0,1.26.46,3.9,3.9,0,0,0,.94.13,2.54,2.54,0,0,0,.78-.12,1.84,1.84,0,0,0,.58-.27,2.91,2.91,0,0,0,.46-.5,4.29,4.29,0,0,0,.38-.58,4.61,4.61,0,0,0,.25-.69l-2.12-6.39-1.81-5.3,2.35,0,2.15,0c.14.58.41,1.57.79,3s.67,2.52.84,3.32c.1.44.19,1,.28,1.68l.24-.89c.07-.24.16-.52.25-.82s.23-.68.37-1.1L32.58,54l1.22-3.13,2.12,0,2.24,0L36,55.75l-3.92,9.08A8,8,0,0,1,31.35,66a4.33,4.33,0,0,1-.71.71,3.61,3.61,0,0,1-.77.47,5.82,5.82,0,0,1-1.24.41,7.58,7.58,0,0,1-1.51.15,8.77,8.77,0,0,1-.92,0c-.38,0-.69-.06-.93-.1S24.73,67.54,24.34,67.45Z"/><path class="cls-2" d="M38.78,62.1c0-.33-.06-.67-.09-1s-.08-.86-.15-1.5l-.09-.81a17.48,17.48,0,0,0,1.87.64,5.7,5.7,0,0,0,1.45.21,3.52,3.52,0,0,0,.89-.1,1,1,0,0,0,.5-.3.61.61,0,0,0,.16-.39.59.59,0,0,0-.12-.35,2.41,2.41,0,0,0-.53-.48c-.62-.45-1.16-.86-1.62-1.22a6.93,6.93,0,0,1-1-1,3,3,0,0,1-.54-.92,2.75,2.75,0,0,1-.19-1,3,3,0,0,1,.54-1.74,3,3,0,0,1,1.57-1.18,7.78,7.78,0,0,1,2.53-.36,25.14,25.14,0,0,1,4,.4l.18,3.15a7.1,7.1,0,0,0-2.62-.54,3.3,3.3,0,0,0-1.28.18.61.61,0,0,0-.36.79.84.84,0,0,0,.16.24,2,2,0,0,0,.3.25c.11.09.4.29.84.6s.81.58,1.06.78a5.72,5.72,0,0,1,1,.91,3.08,3.08,0,0,1,.5.9,2.93,2.93,0,0,1-.21,2.47,3.08,3.08,0,0,1-1.17,1.12,5.2,5.2,0,0,1-1.69.62,9.56,9.56,0,0,1-1.87.18,16.18,16.18,0,0,1-1.64-.11C40.41,62.42,39.65,62.29,38.78,62.1Z"/><path class="cls-2" d="M58.33,59c-.13.63-.25,1.25-.35,1.85l-.24,1.37a16.46,16.46,0,0,1-1.74.31c-.41,0-.82.07-1.21.07a7.79,7.79,0,0,1-1.69-.17,2.61,2.61,0,0,1-1.24-.59,2.22,2.22,0,0,1-.67-1,4,4,0,0,1-.18-1.2c0-.07,0-.2,0-.39s0-.62.08-1.28l.24-3.88H49.59c0-.52.08-1.2.1-2l0-1h1.86c0-.35.1-1.1.17-2.26l1.92-.39c.35-.07,1.1-.24,2.25-.52,0,1-.09,2-.11,3.17h2.56c-.06,1.56-.09,2.58-.09,3.09H55.7l-.13,2.8c0,.42,0,.69,0,.81a2.91,2.91,0,0,0,.11.9.88.88,0,0,0,.42.52,1.45,1.45,0,0,0,.66.15,3.69,3.69,0,0,0,.56,0A7.26,7.26,0,0,0,58.33,59Z"/><path class="cls-2" d="M70.89,58.92c-.1.45-.29,1.54-.56,3.26a21.45,21.45,0,0,1-2.19.34q-.9.09-1.8.09a14.46,14.46,0,0,1-2.46-.19,5.68,5.68,0,0,1-1.94-.65,4.72,4.72,0,0,1-1.36-1.18,4.81,4.81,0,0,1-.84-1.66,7,7,0,0,1-.29-2A7.29,7.29,0,0,1,60,54.13,5.61,5.61,0,0,1,61.5,52a5.52,5.52,0,0,1,2.09-1.1A9.27,9.27,0,0,1,66,50.56a10.19,10.19,0,0,1,2.44.29,4.59,4.59,0,0,1,2,1,4.44,4.44,0,0,1,1.15,1.68,5.73,5.73,0,0,1,.34,2A7.63,7.63,0,0,1,71.76,57H63.89c0,.12,0,.23,0,.33a2,2,0,0,0,.86,1.78,3.76,3.76,0,0,0,2.11.57,9.29,9.29,0,0,0,1.7-.18A21,21,0,0,0,70.89,58.92ZM64,55.3h3.71c0-.13,0-.24,0-.33a2.2,2.2,0,0,0-.21-1,1.31,1.31,0,0,0-.6-.61,2,2,0,0,0-.87-.19,2.06,2.06,0,0,0-.65.11,1.79,1.79,0,0,0-.56.31,2.18,2.18,0,0,0-.43.48,2.37,2.37,0,0,0-.24.52A6.08,6.08,0,0,0,64,55.3Z"/><path class="cls-2" d="M73.41,62.32l.32-5.42.18-4.23,0-1.82,2.18,0,2.08,0-.08,1.49a7.16,7.16,0,0,1,.59-.69,3.66,3.66,0,0,1,.59-.46,4,4,0,0,1,.72-.35,5.33,5.33,0,0,1,.83-.2,5,5,0,0,1,1-.08,5.82,5.82,0,0,1,1.06.09,5.61,5.61,0,0,1,.83.24,3.22,3.22,0,0,1,.61.34,2.63,2.63,0,0,1,.45.43,5.92,5.92,0,0,1,.46.71,3.67,3.67,0,0,1,2.29-1.64A6.32,6.32,0,0,1,89,50.56a5.86,5.86,0,0,1,1.84.28,3,3,0,0,1,1.42,1,2.77,2.77,0,0,1,.55,1.79c0,.35,0,.87-.07,1.56s-.12,1.89-.2,3.59-.14,2.88-.15,3.57l-2,0-2.47,0c.07-1,.15-2.15.23-3.58s.12-2.43.12-3a2.72,2.72,0,0,0-.17-1.09,1,1,0,0,0-.43-.49,1.27,1.27,0,0,0-.58-.13,1.35,1.35,0,0,0-.59.12,1.32,1.32,0,0,0-.47.42,3.15,3.15,0,0,0-.44.94,7.1,7.1,0,0,0-.21,1.35c-.06.61-.1,1.42-.13,2.43l-.09,3-2.16,0-2.32,0c.06-.67.14-1.79.23-3.36S81,56.33,81,55.8a2.9,2.9,0,0,0-.13-1,1.43,1.43,0,0,0-.38-.54,1,1,0,0,0-.65-.2,1.21,1.21,0,0,0-.76.26,2.09,2.09,0,0,0-.56.74,4.24,4.24,0,0,0-.32,1.33c-.07.57-.12,1.43-.18,2.59s-.08,2.28-.1,3.35l-2.2,0Z"/><path class="cls-2" d="M14.42,95.18l1.25-2.35,3.17-6.2.37-.78H20.8L22,89.2l2.19,6H22.79c-.12-.43-.33-1.07-.61-1.9s-.53-1.5-.72-2H17.72l-1,2-.87,1.87H14.42Zm3.7-4.82H21.2l-1.27-3.61Z"/><path class="cls-2" d="M28.74,95.18c.16-2.63.24-4.72.24-6.29v-.63h1.16l-.05,1.13a4.06,4.06,0,0,1,.44-.64A1.83,1.83,0,0,1,31,88.4a2.33,2.33,0,0,1,.56-.22,2.75,2.75,0,0,1,.65-.08,2.1,2.1,0,0,1,.56.07c0,.3,0,.64.05,1a2.73,2.73,0,0,0-.76-.11,1.85,1.85,0,0,0-.72.13,1.73,1.73,0,0,0-.58.4,2.27,2.27,0,0,0-.42.65,3.1,3.1,0,0,0-.21.78c0,.32-.08.9-.11,1.74,0,.62,0,1.27,0,2v.45H28.74Z"/><path class="cls-2" d="M39.32,94.1c-.06.25-.11.57-.17,1a9.19,9.19,0,0,1-1.14.23c-.32,0-.64,0-.95,0a5.23,5.23,0,0,1-1.54-.2,2.74,2.74,0,0,1-1.17-.72,2.92,2.92,0,0,1-.69-1.16A4.75,4.75,0,0,1,33.84,90,3.07,3.07,0,0,1,35,88.6a3.63,3.63,0,0,1,2-.5,3.85,3.85,0,0,1,1.19.18,2.41,2.41,0,0,1,1,.55,2.54,2.54,0,0,1,.58.92,3.44,3.44,0,0,1,.2,1.18,2.45,2.45,0,0,1,0,.48H34.66q0,.38,0,.57a3,3,0,0,0,.3,1.33,2,2,0,0,0,.89.91,2.8,2.8,0,0,0,1.35.31A6.83,6.83,0,0,0,39.32,94.1Zm-4.61-3.26h4.07a3.81,3.81,0,0,0-.05-.67,1.72,1.72,0,0,0-.18-.49,1.37,1.37,0,0,0-.35-.45,1.58,1.58,0,0,0-.53-.28,2.15,2.15,0,0,0-.68-.1,2.29,2.29,0,0,0-.74.11,2.1,2.1,0,0,0-.62.3,2,2,0,0,0-.46.45,2.26,2.26,0,0,0-.28.49A4.88,4.88,0,0,0,34.71,90.84Z"/><path class="cls-2" d="M40.76,95.05l0-.5s0-.23-.06-.52a5,5,0,0,0,2,.46,2,2,0,0,0,.78-.13.9.9,0,0,0,.48-.36.87.87,0,0,0,.16-.5,1,1,0,0,0,0-.29,1.11,1.11,0,0,0-.13-.27,1.73,1.73,0,0,0-.27-.3l-.72-.6c-.37-.3-.65-.53-.83-.69a3.37,3.37,0,0,1-.49-.52,2.17,2.17,0,0,1-.3-.53,1.61,1.61,0,0,1-.09-.54,1.49,1.49,0,0,1,.27-.84,1.72,1.72,0,0,1,.8-.62,3.52,3.52,0,0,1,1.23-.2,8.61,8.61,0,0,1,1.73.19c0,.35,0,.68.07,1A4,4,0,0,0,43.75,89a2.27,2.27,0,0,0-.75.11,1,1,0,0,0-.51.31.83.83,0,0,0-.16.47.81.81,0,0,0,.06.31,1.15,1.15,0,0,0,.19.33,3.63,3.63,0,0,0,.34.34c.13.12.4.33.79.65s.66.54.81.69a3.26,3.26,0,0,1,.38.47,2.26,2.26,0,0,1,.23.47,2,2,0,0,1,.07.48,1.53,1.53,0,0,1-.29.89,1.79,1.79,0,0,1-.84.64,3.37,3.37,0,0,1-1.26.22l-.69,0-.67-.09Z"/><path class="cls-2" d="M52.31,94.1c-.06.25-.11.57-.17,1a9.57,9.57,0,0,1-1.14.23c-.32,0-.64,0-1,0a5.16,5.16,0,0,1-1.53-.2,2.74,2.74,0,0,1-1.17-.72,2.92,2.92,0,0,1-.69-1.16,4.26,4.26,0,0,1-.22-1.39A4.57,4.57,0,0,1,46.82,90,3,3,0,0,1,48,88.6a3.63,3.63,0,0,1,2-.5,3.9,3.9,0,0,1,1.19.18,2.37,2.37,0,0,1,.94.55,2.43,2.43,0,0,1,.59.92,3.44,3.44,0,0,1,.2,1.18,2.45,2.45,0,0,1,0,.48H47.64c0,.25,0,.44,0,.57a3,3,0,0,0,.3,1.33,2,2,0,0,0,.89.91,2.8,2.8,0,0,0,1.35.31A6.83,6.83,0,0,0,52.31,94.1ZM47.7,90.84h4.07a3.81,3.81,0,0,0-.05-.67,1.72,1.72,0,0,0-.18-.49,1.52,1.52,0,0,0-.35-.45,1.58,1.58,0,0,0-.53-.28,2.15,2.15,0,0,0-.68-.1,2.25,2.25,0,0,0-.74.11,2.1,2.1,0,0,0-.62.3,2,2,0,0,0-.46.45,1.91,1.91,0,0,0-.28.49A4.88,4.88,0,0,0,47.7,90.84Z"/><path class="cls-2" d="M54.51,89.36c0-.2.08-.5.13-.89a11.57,11.57,0,0,1,1.42-.29,9.75,9.75,0,0,1,1.18-.08,5.2,5.2,0,0,1,1.15.12,2.3,2.3,0,0,1,.9.36,1.28,1.28,0,0,1,.47.58,2.3,2.3,0,0,1,.11.71c0,.31,0,.84-.07,1.58s-.08,1.42-.11,2,0,1.19,0,1.68H58.43l.15-1.86.1-2.21-.36.26a1.71,1.71,0,0,1-.27.14l-.33.12-.71.2-.74.22a4.31,4.31,0,0,0-.74.3,1.88,1.88,0,0,0-.46.33,1,1,0,0,0-.26.36,1.18,1.18,0,0,0-.09.46,1,1,0,0,0,.22.64,1.12,1.12,0,0,0,.55.38,2.62,2.62,0,0,0,.79.1,4.26,4.26,0,0,0,.61,0,4.44,4.44,0,0,0,.84-.2,5.33,5.33,0,0,0-.22.81c-.33.06-.61.1-.82.12s-.4,0-.59,0a4.07,4.07,0,0,1-1.46-.21,1.59,1.59,0,0,1-.79-.67,1.93,1.93,0,0,1-.26-1,1.7,1.7,0,0,1,.09-.57,1.76,1.76,0,0,1,.25-.47,2.07,2.07,0,0,1,.45-.43,3.1,3.1,0,0,1,.61-.35c.21-.09.46-.18.74-.27L57.09,91a3.63,3.63,0,0,0,.51-.14,2.35,2.35,0,0,0,.38-.14,1.15,1.15,0,0,0,.29-.16,1.12,1.12,0,0,0,.37-.49.66.66,0,0,0,0-.28.8.8,0,0,0-.22-.57,1.08,1.08,0,0,0-.57-.33,2.9,2.9,0,0,0-.83-.1,5.67,5.67,0,0,0-.91.07c-.31,0-.58.11-.81.17S54.84,89.23,54.51,89.36Z"/><path class="cls-2" d="M61.49,95.18c.16-2.63.24-4.72.24-6.29v-.63h1.15l-.05,1.13a4.87,4.87,0,0,1,.44-.64,1.7,1.7,0,0,1,.45-.35,2.11,2.11,0,0,1,.55-.22,2.75,2.75,0,0,1,.65-.08,2.22,2.22,0,0,1,.57.07c0,.3,0,.64,0,1a2.73,2.73,0,0,0-.76-.11,1.85,1.85,0,0,0-.72.13,1.73,1.73,0,0,0-.58.4,2.27,2.27,0,0,0-.42.65,3.1,3.1,0,0,0-.21.78c0,.32-.08.9-.11,1.74,0,.62,0,1.27,0,2v.45H61.49Z"/><path class="cls-2" d="M71.49,94.14a2.85,2.85,0,0,1-.07.41c0,.2-.07.39-.1.59a6.8,6.8,0,0,1-1,.15,8.1,8.1,0,0,1-.81,0,4.56,4.56,0,0,1-1.36-.19,2.71,2.71,0,0,1-1.09-.66,2.67,2.67,0,0,1-.68-1.12,4.49,4.49,0,0,1-.22-1.42A5.1,5.1,0,0,1,66.55,90a3,3,0,0,1,1.12-1.42,3.74,3.74,0,0,1,2.09-.51,7,7,0,0,1,1.89.26c0,.39,0,.71.08,1A9,9,0,0,0,70.67,89a4.29,4.29,0,0,0-.76-.07,2.51,2.51,0,0,0-1.08.22,2.23,2.23,0,0,0-.81.62,2.55,2.55,0,0,0-.48,1,4.28,4.28,0,0,0-.15,1.13,3.54,3.54,0,0,0,.24,1.35,1.75,1.75,0,0,0,.84.9,2.85,2.85,0,0,0,1.34.32A5.18,5.18,0,0,0,71.49,94.14Z"/><path class="cls-2" d="M73.05,95.18l.17-3,.15-4,0-2.31h1.24l-.15,2.38-.06,1.41c.11-.19.2-.35.28-.46a3.25,3.25,0,0,1,.31-.35,2.2,2.2,0,0,1,.4-.3,2.67,2.67,0,0,1,.45-.21,3.83,3.83,0,0,1,.61-.16,4.77,4.77,0,0,1,1.86.07,2.47,2.47,0,0,1,.91.43,1.59,1.59,0,0,1,.52.72,2.75,2.75,0,0,1,.14.85c0,.11,0,.26,0,.45s0,.61,0,1l-.12,2.51c0,.27,0,.61,0,1H78.45c0-.49.11-1.26.18-2.32s.1-1.79.1-2.2a1.87,1.87,0,0,0-.2-.9,1.27,1.27,0,0,0-.66-.55,2.54,2.54,0,0,0-1-.19,2.67,2.67,0,0,0-.95.16,1.86,1.86,0,0,0-1.14,1,3.18,3.18,0,0,0-.26.81,13.43,13.43,0,0,0-.17,1.81c0,.46,0,1.24-.07,2.35H73.05Z"/><path class="cls-2" d="M84.88,98.27c.09-1.17.18-2.77.26-4.79s.12-3.68.13-5c.75-.16,1.35-.27,1.79-.32a10.2,10.2,0,0,1,1.35-.09,4.79,4.79,0,0,1,1.86.34,2.47,2.47,0,0,1,1.22,1.19,4.18,4.18,0,0,1,.44,1.92A4.92,4.92,0,0,1,91.72,93a3.53,3.53,0,0,1-.62,1.24,2.72,2.72,0,0,1-1,.83,3.19,3.19,0,0,1-1.33.27,3.33,3.33,0,0,1-.84-.1,2.62,2.62,0,0,1-.7-.28,2.19,2.19,0,0,1-.5-.38,4.88,4.88,0,0,1-.49-.64l-.08,2.71q0,.66,0,1v.67H84.88Zm1.56-8.94,0,.52,0,.71c0,.37,0,.67,0,.91s0,.4,0,.49a4.22,4.22,0,0,0,.1,1,1.91,1.91,0,0,0,.43.82,2.12,2.12,0,0,0,1.63.76,2,2,0,0,0,1.17-.36,2.27,2.27,0,0,0,.82-1,4.1,4.1,0,0,0,.29-1.54,3.1,3.1,0,0,0-.31-1.45,1.91,1.91,0,0,0-.82-.88A2.53,2.53,0,0,0,88.44,89,5.82,5.82,0,0,0,86.44,89.33Z"/><path class="cls-2" d="M99.77,95.18H98.63l0-1.32a4.13,4.13,0,0,1-.28.48,2.24,2.24,0,0,1-.3.33,3.18,3.18,0,0,1-.37.27,2,2,0,0,1-.44.19,3.61,3.61,0,0,1-.59.15,5.31,5.31,0,0,1-.72,0,3.62,3.62,0,0,1-1.43-.25,2,2,0,0,1-.89-.72,2.32,2.32,0,0,1-.3-1.27c0-.08,0-.22,0-.41s0-.46,0-.77l.11-2.28,0-.73c0-.17,0-.38,0-.64h1.22c-.06.8-.13,1.67-.18,2.62s-.09,1.55-.09,1.82a2,2,0,0,0,.2,1,1.29,1.29,0,0,0,.65.55,2.54,2.54,0,0,0,1,.19,2.7,2.7,0,0,0,1-.17A2.2,2.2,0,0,0,98,93.8a2.38,2.38,0,0,0,.49-.76,3.74,3.74,0,0,0,.22-.88c0-.26.06-.72.09-1.4s.06-1.65.08-2.5h1.21c-.06.82-.14,2.07-.23,3.74Q99.79,93.38,99.77,95.18Z"/><path class="cls-2" d="M101.64,95.18l.06-.76c0-.14,0-.4,0-.77l.19-4.64.08-3.16h1.26c-.06.59-.12,1.42-.17,2.52a9.66,9.66,0,0,1,1.18-.21,7,7,0,0,1,.9-.06,5,5,0,0,1,1.52.22,2.34,2.34,0,0,1,1.08.73,2.89,2.89,0,0,1,.61,1.11,4.52,4.52,0,0,1,.18,1.29,5.46,5.46,0,0,1-.22,1.51,3.82,3.82,0,0,1-.65,1.29,2.48,2.48,0,0,1-1.06.82,3.32,3.32,0,0,1-1.35.26,3,3,0,0,1-.75-.08,2.94,2.94,0,0,1-.63-.24,1.89,1.89,0,0,1-.47-.34,2.8,2.8,0,0,1-.33-.38,5.84,5.84,0,0,1-.28-.53l0,1.42h-1.17Zm1.4-5.9c0,.76-.06,1.26-.07,1.5s0,.53,0,.87a4.42,4.42,0,0,0,.24,1.65,1.77,1.77,0,0,0,.74.87,2.1,2.1,0,0,0,1.11.3,2.07,2.07,0,0,0,1.24-.37,2.34,2.34,0,0,0,.8-1.1,4.25,4.25,0,0,0,.29-1.54,2.68,2.68,0,0,0-.6-1.82A2.26,2.26,0,0,0,105,89a5.24,5.24,0,0,0-.86.07A7.76,7.76,0,0,0,103,89.28Z"/><path class="cls-2" d="M109.91,95.18c.09-1.4.18-3.06.27-5,.06-1.4.1-2.84.13-4.34h1.24l-.21,4-.15,4.06,0,1.25h-1.25Z"/><path class="cls-2" d="M113.08,95.18l.12-1.72.13-2.94,0-2.26h1.25c0,.71-.1,1.45-.14,2.23s-.08,1.63-.1,2.55,0,1.63,0,2.14h-1.27Zm.31-8.41c0-.43,0-.75,0-1h1.32c0,.14,0,.46,0,1h-1.3Z"/><path class="cls-2" d="M121.29,94.14c0,.08,0,.21-.07.41s-.08.39-.1.59a7.28,7.28,0,0,1-1,.15c-.31,0-.58,0-.81,0a4.58,4.58,0,0,1-1.37-.19,2.71,2.71,0,0,1-1.09-.66,2.67,2.67,0,0,1-.68-1.12,4.49,4.49,0,0,1-.22-1.42,5.11,5.11,0,0,1,.36-1.91,3,3,0,0,1,1.12-1.42,3.7,3.7,0,0,1,2.08-.51,7,7,0,0,1,1.89.26c0,.39.06.71.08,1a8.56,8.56,0,0,0-1.06-.28,4.21,4.21,0,0,0-.76-.07,2.44,2.44,0,0,0-1.07.22,2.26,2.26,0,0,0-.82.62,2.55,2.55,0,0,0-.48,1,4.27,4.27,0,0,0-.14,1.13,3.54,3.54,0,0,0,.24,1.35,1.69,1.69,0,0,0,.83.9,2.86,2.86,0,0,0,1.35.32A5.28,5.28,0,0,0,121.29,94.14Z"/><path class="cls-2" d="M123.24,89.36c0-.2.09-.5.13-.89a11.69,11.69,0,0,1,1.43-.29A9.48,9.48,0,0,1,126,88.1a5.27,5.27,0,0,1,1.15.12,2.25,2.25,0,0,1,.89.36,1.16,1.16,0,0,1,.47.58,2,2,0,0,1,.12.71c0,.31,0,.84-.07,1.58s-.09,1.42-.11,2,0,1.19,0,1.68h-1.22l.14-1.86.11-2.21-.36.26a1.71,1.71,0,0,1-.27.14l-.34.12-.7.2-.74.22a4.13,4.13,0,0,0-.75.3,2.36,2.36,0,0,0-.46.33,1.16,1.16,0,0,0-.26.36,1.18,1.18,0,0,0-.09.46,1,1,0,0,0,.22.64,1.17,1.17,0,0,0,.55.38,2.69,2.69,0,0,0,.8.1,4.22,4.22,0,0,0,.6,0,4.44,4.44,0,0,0,.84-.2c-.06.17-.13.44-.22.81q-.49.09-.81.12c-.21,0-.41,0-.59,0a4.09,4.09,0,0,1-1.47-.21,1.57,1.57,0,0,1-.78-.67,1.83,1.83,0,0,1-.26-1,1.7,1.7,0,0,1,.09-.57,1.51,1.51,0,0,1,.25-.47,1.7,1.7,0,0,1,.45-.43,3,3,0,0,1,.6-.35c.22-.09.46-.18.75-.27l1.36-.36a3.63,3.63,0,0,0,.51-.14,2.77,2.77,0,0,0,.38-.14,1.08,1.08,0,0,0,.28-.16,1,1,0,0,0,.23-.22.91.91,0,0,0,.15-.27.87.87,0,0,0,.05-.28.85.85,0,0,0-.22-.57,1.17,1.17,0,0,0-.57-.33,3,3,0,0,0-.83-.1,5.88,5.88,0,0,0-.92.07,7.78,7.78,0,0,0-.8.17C123.86,89.13,123.58,89.23,123.24,89.36Z"/><path class="cls-2" d="M133.74,94.28c-.05.23-.11.52-.17.89a6.94,6.94,0,0,1-.74.14,4.61,4.61,0,0,1-.52,0,2.69,2.69,0,0,1-1-.15,1.14,1.14,0,0,1-.57-.49,1.85,1.85,0,0,1-.2-.92s0-.14,0-.27,0-.57.07-1.33l.17-3.06h-.92c0-.19,0-.47.05-.82h.93c0-.26,0-.69.07-1.31.43-.08.79-.16,1.09-.23,0,.67-.05,1.19-.06,1.54h1.9c0,.28,0,.56,0,.82h-1.89L131.76,93v.29a2,2,0,0,0,.11.75.79.79,0,0,0,.34.36,1.12,1.12,0,0,0,.47.11l.37,0C133.17,94.42,133.4,94.37,133.74,94.28Z"/><path class="cls-2" d="M134.77,95.18l.12-1.72.14-2.94.05-2.26h1.25c-.05.71-.1,1.45-.14,2.23s-.08,1.63-.1,2.55,0,1.63,0,2.14h-1.28Zm.32-8.41c0-.43,0-.75,0-1h1.32c0,.14,0,.46,0,1h-1.3Z"/><path class="cls-2" d="M141.34,88.1a4.35,4.35,0,0,1,1.36.21,2.77,2.77,0,0,1,1.13.65,2.71,2.71,0,0,1,.72,1.12,4.26,4.26,0,0,1,.25,1.43,4.47,4.47,0,0,1-.27,1.55,3.68,3.68,0,0,1-.73,1.27,2.8,2.8,0,0,1-1.17.76,4.63,4.63,0,0,1-2.85,0,3.05,3.05,0,0,1-1.13-.69,3.17,3.17,0,0,1-.72-1.14,4.14,4.14,0,0,1-.24-1.41,4.36,4.36,0,0,1,.45-2,3,3,0,0,1,1.32-1.34A4.19,4.19,0,0,1,141.34,88.1Zm0,.87a2.46,2.46,0,0,0-1.28.35,2.07,2.07,0,0,0-.87,1.05,4.21,4.21,0,0,0-.28,1.53,3.38,3.38,0,0,0,.24,1.3,2,2,0,0,0,.76.93,2.22,2.22,0,0,0,1.28.36,2.61,2.61,0,0,0,1-.18,1.88,1.88,0,0,0,.8-.58,2.47,2.47,0,0,0,.51-1,4.51,4.51,0,0,0,.16-1.23,3.77,3.77,0,0,0-.16-1.13,1.87,1.87,0,0,0-.51-.84,2,2,0,0,0-.76-.45A2.8,2.8,0,0,0,141.31,89Z"/><path class="cls-2" d="M146.1,95.18c.21-2.85.33-5.16.34-6.92h1.21l-.09,1.37c.11-.19.2-.34.27-.44a2.46,2.46,0,0,1,.27-.33,2.78,2.78,0,0,1,.41-.32,1.92,1.92,0,0,1,.54-.24,3.71,3.71,0,0,1,.64-.15,4.87,4.87,0,0,1,.65-.05,4.22,4.22,0,0,1,1.13.15,2,2,0,0,1,.9.46,1.61,1.61,0,0,1,.48.73,3,3,0,0,1,.12.87c0,.06,0,.17,0,.34s0,.39,0,.66l-.13,2.87c0,.27,0,.61,0,1h-1.22c.05-.55.08-1.08.11-1.59l.09-1.59c0-.55,0-1,0-1.24a1.9,1.9,0,0,0-.21-1,1.28,1.28,0,0,0-.65-.55,2.54,2.54,0,0,0-1-.2,2.41,2.41,0,0,0-1.36.38,2.29,2.29,0,0,0-.81,1,5,5,0,0,0-.28,1.35c-.07.72-.12,1.86-.14,3.41H146.1Z"/><path class="cls-2" d="M161.57,94.28c0,.23-.1.52-.16.89a7.44,7.44,0,0,1-.74.14,4.7,4.7,0,0,1-.52,0,2.65,2.65,0,0,1-1-.15,1.14,1.14,0,0,1-.57-.49,1.85,1.85,0,0,1-.2-.92s0-.14,0-.27,0-.57.07-1.33l.16-3.06h-.91c0-.19,0-.47.05-.82h.93c0-.26,0-.69.07-1.31.43-.08.79-.16,1.08-.23,0,.67-.05,1.19-.05,1.54h1.9c0,.28,0,.56,0,.82h-1.9L159.59,93v.29a1.85,1.85,0,0,0,.11.75.74.74,0,0,0,.34.36,1.08,1.08,0,0,0,.47.11l.37,0A6.91,6.91,0,0,0,161.57,94.28Z"/><path class="cls-2" d="M162.61,95.18l.17-3,.16-4,0-2.31h1.23l-.15,2.38L164,89.64c.11-.19.2-.35.28-.46a2,2,0,0,1,.31-.35,1.85,1.85,0,0,1,.39-.3,2.78,2.78,0,0,1,.46-.21,3.56,3.56,0,0,1,.61-.16,4.35,4.35,0,0,1,.74-.06,4.44,4.44,0,0,1,1.11.13,2.4,2.4,0,0,1,.91.43,1.52,1.52,0,0,1,.52.72,2.75,2.75,0,0,1,.14.85c0,.11,0,.26,0,.45s0,.61-.05,1l-.11,2.51c0,.27,0,.61,0,1H168c0-.49.11-1.26.17-2.32s.1-1.79.1-2.2a1.87,1.87,0,0,0-.19-.9,1.35,1.35,0,0,0-.66-.55,2.61,2.61,0,0,0-1-.19,2.76,2.76,0,0,0-1,.16,1.82,1.82,0,0,0-.69.4,2,2,0,0,0-.45.63,3.63,3.63,0,0,0-.26.81,13.72,13.72,0,0,0-.16,1.81c0,.46-.05,1.24-.08,2.35h-1.21Z"/><path class="cls-2" d="M171.52,89.36a7.05,7.05,0,0,0,.13-.89,12.08,12.08,0,0,1,1.43-.29,9.61,9.61,0,0,1,1.18-.08,5.27,5.27,0,0,1,1.15.12,2.19,2.19,0,0,1,.89.36,1.16,1.16,0,0,1,.47.58,2,2,0,0,1,.12.71c0,.31,0,.84-.07,1.58s-.08,1.42-.11,2,0,1.19,0,1.68h-1.22l.14-1.86.11-2.21-.36.26a1.71,1.71,0,0,1-.27.14l-.33.12-.71.2-.74.22a4.46,4.46,0,0,0-.75.3,2,2,0,0,0-.45.33,1,1,0,0,0-.26.36,1.18,1.18,0,0,0-.09.46,1,1,0,0,0,.22.64,1.08,1.08,0,0,0,.55.38,2.62,2.62,0,0,0,.79.1,4.22,4.22,0,0,0,.6,0,4.44,4.44,0,0,0,.84-.2,7.34,7.34,0,0,0-.21.81c-.34.06-.61.1-.82.12s-.41,0-.59,0a4.13,4.13,0,0,1-1.47-.21,1.57,1.57,0,0,1-.78-.67,1.93,1.93,0,0,1-.26-1,1.7,1.7,0,0,1,.09-.57,1.76,1.76,0,0,1,.25-.47,1.86,1.86,0,0,1,.45-.43,3.1,3.1,0,0,1,.61-.35c.21-.09.46-.18.74-.27l1.36-.36a3.63,3.63,0,0,0,.51-.14,2.77,2.77,0,0,0,.38-.14,1.35,1.35,0,0,0,.29-.16,1.14,1.14,0,0,0,.22-.22.91.91,0,0,0,.15-.27.87.87,0,0,0,.05-.28.8.8,0,0,0-.22-.57,1.17,1.17,0,0,0-.57-.33,3,3,0,0,0-.83-.1,5.67,5.67,0,0,0-.91.07,8,8,0,0,0-.81.17C172.14,89.13,171.86,89.23,171.52,89.36Z"/><path class="cls-2" d="M182,94.28c-.05.23-.11.52-.17.89a7.34,7.34,0,0,1-.73.14,4.79,4.79,0,0,1-.52,0,2.62,2.62,0,0,1-1-.15,1.21,1.21,0,0,1-.58-.49,1.85,1.85,0,0,1-.19-.92V93.5c0-.13,0-.57.07-1.33l.17-3.06h-.91c0-.19,0-.47,0-.82h.94c0-.26,0-.69.06-1.31.43-.08.79-.16,1.09-.23,0,.67-.05,1.19-.05,1.54h1.89c0,.28,0,.56,0,.82h-1.89L180,93v.29a2,2,0,0,0,.11.75.79.79,0,0,0,.34.36,1.12,1.12,0,0,0,.47.11l.37,0A6.91,6.91,0,0,0,182,94.28Z"/><path class="cls-2" d="M186.38,98.27c.09-1.17.18-2.77.26-4.79s.12-3.68.13-5c.75-.16,1.35-.27,1.79-.32a10.2,10.2,0,0,1,1.35-.09,4.79,4.79,0,0,1,1.86.34A2.47,2.47,0,0,1,193,89.63a4.18,4.18,0,0,1,.44,1.92,4.92,4.92,0,0,1-.21,1.44,3.53,3.53,0,0,1-.62,1.24,2.72,2.72,0,0,1-1,.83,3.19,3.19,0,0,1-1.33.27,3.33,3.33,0,0,1-.84-.1,2.62,2.62,0,0,1-.7-.28,2.19,2.19,0,0,1-.5-.38,4.88,4.88,0,0,1-.49-.64l-.08,2.71q0,.66,0,1v.67h-1.23Zm1.56-8.94,0,.52,0,.71c0,.37,0,.67,0,.91s0,.4,0,.49a4.22,4.22,0,0,0,.1,1,1.91,1.91,0,0,0,.43.82,2.12,2.12,0,0,0,1.63.76,2,2,0,0,0,1.17-.36,2.27,2.27,0,0,0,.82-1,4.1,4.1,0,0,0,.29-1.54,3.1,3.1,0,0,0-.31-1.45,1.91,1.91,0,0,0-.82-.88,2.53,2.53,0,0,0-1.18-.27A5.82,5.82,0,0,0,187.94,89.33Z"/><path class="cls-2" d="M194.75,95.18c.16-2.63.24-4.72.24-6.29v-.63h1.15l0,1.13a4.87,4.87,0,0,1,.44-.64,1.83,1.83,0,0,1,.44-.35,2.33,2.33,0,0,1,.56-.22,2.75,2.75,0,0,1,.65-.08,2.22,2.22,0,0,1,.57.07c0,.3,0,.64,0,1a2.73,2.73,0,0,0-.76-.11,1.85,1.85,0,0,0-.72.13,1.73,1.73,0,0,0-.58.4,2.27,2.27,0,0,0-.42.65,3.1,3.1,0,0,0-.21.78c0,.32-.08.9-.11,1.74,0,.62,0,1.27,0,2v.45h-1.21Z"/><path class="cls-2" d="M203.11,88.1a4.35,4.35,0,0,1,1.36.21,2.77,2.77,0,0,1,1.13.65,2.71,2.71,0,0,1,.72,1.12,4.26,4.26,0,0,1,.25,1.43,4.47,4.47,0,0,1-.27,1.55,3.55,3.55,0,0,1-.74,1.27,2.7,2.7,0,0,1-1.16.76,4.63,4.63,0,0,1-2.85,0,3.05,3.05,0,0,1-1.13-.69,3.17,3.17,0,0,1-.72-1.14,4.14,4.14,0,0,1-.24-1.41,4.36,4.36,0,0,1,.45-2,3,3,0,0,1,1.32-1.34A4.19,4.19,0,0,1,203.11,88.1Zm0,.87a2.44,2.44,0,0,0-1.28.35,2.07,2.07,0,0,0-.87,1.05,4.21,4.21,0,0,0-.28,1.53,3.38,3.38,0,0,0,.24,1.3,2,2,0,0,0,.76.93,2.22,2.22,0,0,0,1.28.36,2.61,2.61,0,0,0,1-.18,1.88,1.88,0,0,0,.8-.58,2.47,2.47,0,0,0,.51-1,4.93,4.93,0,0,0,.16-1.23,4.11,4.11,0,0,0-.16-1.13,1.87,1.87,0,0,0-.51-.84,2,2,0,0,0-.76-.45A2.85,2.85,0,0,0,203.08,89Z"/><path class="cls-2" d="M207.76,98.27c.09-1.17.18-2.77.26-4.79s.12-3.68.13-5c.75-.16,1.35-.27,1.8-.32a10.2,10.2,0,0,1,1.35-.09,4.74,4.74,0,0,1,1.85.34,2.47,2.47,0,0,1,1.22,1.19,4.18,4.18,0,0,1,.44,1.92A4.92,4.92,0,0,1,214.6,93a3.53,3.53,0,0,1-.62,1.24,2.72,2.72,0,0,1-1,.83,3.15,3.15,0,0,1-1.32.27,3.36,3.36,0,0,1-.85-.1,2.77,2.77,0,0,1-.7-.28,2.19,2.19,0,0,1-.5-.38,6,6,0,0,1-.49-.64L209,96.64q0,.66,0,1v.67h-1.23Zm1.57-8.94-.05.52,0,.71c0,.37,0,.67-.05.91s0,.4,0,.49a4.21,4.21,0,0,0,.11,1,1.89,1.89,0,0,0,.42.82,2.08,2.08,0,0,0,.75.57,2.13,2.13,0,0,0,.89.19,2,2,0,0,0,1.16-.36,2.27,2.27,0,0,0,.82-1,3.91,3.91,0,0,0,.29-1.54,3.23,3.23,0,0,0-.3-1.45,1.92,1.92,0,0,0-.83-.88,2.53,2.53,0,0,0-1.18-.27A5.72,5.72,0,0,0,209.33,89.33Z"/><path class="cls-2" d="M219.6,88.1a4.4,4.4,0,0,1,1.36.21,2.84,2.84,0,0,1,1.13.65,2.93,2.93,0,0,1,.72,1.12,4.25,4.25,0,0,1,.24,1.43,4.47,4.47,0,0,1-.26,1.55,3.55,3.55,0,0,1-.74,1.27,2.7,2.7,0,0,1-1.16.76,4.63,4.63,0,0,1-2.85,0,3,3,0,0,1-1.13-.69,3,3,0,0,1-.72-1.14,4.14,4.14,0,0,1-.25-1.41,4.36,4.36,0,0,1,.46-2,3,3,0,0,1,1.32-1.34A4.19,4.19,0,0,1,219.6,88.1Zm0,.87a2.49,2.49,0,0,0-1.28.35,2.06,2.06,0,0,0-.86,1.05,4,4,0,0,0-.28,1.53,3.58,3.58,0,0,0,.23,1.3,2,2,0,0,0,.77.93,2.22,2.22,0,0,0,1.28.36,2.61,2.61,0,0,0,1-.18,1.94,1.94,0,0,0,.8-.58,2.46,2.46,0,0,0,.5-1,4.51,4.51,0,0,0,.17-1.23,3.77,3.77,0,0,0-.17-1.13,1.85,1.85,0,0,0-.5-.84,2,2,0,0,0-.76-.45A2.87,2.87,0,0,0,219.56,89Z"/><path class="cls-2" d="M224.07,95.05l0-.5s0-.23-.05-.52a5,5,0,0,0,1.94.46,2,2,0,0,0,.78-.13,1,1,0,0,0,.49-.36,1,1,0,0,0,.16-.5,1,1,0,0,0,0-.29,1.11,1.11,0,0,0-.13-.27,2.12,2.12,0,0,0-.26-.3l-.73-.6-.83-.69a3.94,3.94,0,0,1-.49-.52,2.17,2.17,0,0,1-.3-.53,1.61,1.61,0,0,1-.09-.54,1.43,1.43,0,0,1,.28-.84,1.63,1.63,0,0,1,.8-.62,3.43,3.43,0,0,1,1.22-.2,8.54,8.54,0,0,1,1.73.19c0,.35,0,.68.07,1a3.92,3.92,0,0,0-1.51-.31,2.27,2.27,0,0,0-.75.11.92.92,0,0,0-.5.31.78.78,0,0,0-.17.47.81.81,0,0,0,.06.31,1.45,1.45,0,0,0,.19.33,3.63,3.63,0,0,0,.34.34c.13.12.4.33.79.65a7.71,7.71,0,0,1,.81.69,3.26,3.26,0,0,1,.38.47,2.26,2.26,0,0,1,.23.47,2,2,0,0,1,.07.48,1.53,1.53,0,0,1-.29.89,1.69,1.69,0,0,1-.84.64,3.33,3.33,0,0,1-1.26.22l-.69,0-.67-.09Z"/><path class="cls-2" d="M235.62,94.1c-.06.25-.11.57-.17,1a9.45,9.45,0,0,1-1.13.23c-.32,0-.64,0-1,0a5.23,5.23,0,0,1-1.54-.2,2.65,2.65,0,0,1-1.16-.72,2.83,2.83,0,0,1-.7-1.16,4.75,4.75,0,0,1,.18-3.28,3.07,3.07,0,0,1,1.17-1.37,3.63,3.63,0,0,1,2-.5,3.85,3.85,0,0,1,1.19.18,2.41,2.41,0,0,1,1,.55,2.54,2.54,0,0,1,.58.92,3.44,3.44,0,0,1,.2,1.18,2.45,2.45,0,0,1,0,.48H231q0,.38,0,.57a3,3,0,0,0,.3,1.33,2,2,0,0,0,.89.91,2.8,2.8,0,0,0,1.35.31A6.78,6.78,0,0,0,235.62,94.1ZM231,90.84h4.08a4.85,4.85,0,0,0-.06-.67,1.72,1.72,0,0,0-.18-.49,1.37,1.37,0,0,0-.35-.45A1.49,1.49,0,0,0,234,89a2.11,2.11,0,0,0-.68-.1,2.29,2.29,0,0,0-.74.11,2.1,2.1,0,0,0-.62.3,2,2,0,0,0-.46.45,2.26,2.26,0,0,0-.28.49A4.88,4.88,0,0,0,231,90.84Z"/><path class="cls-2" d="M237.06,95.05l0-.5s0-.23-.05-.52a5,5,0,0,0,1.94.46,2,2,0,0,0,.78-.13.9.9,0,0,0,.48-.36.88.88,0,0,0,.17-.5,1,1,0,0,0-.05-.29,1.11,1.11,0,0,0-.13-.27,1.73,1.73,0,0,0-.27-.3l-.72-.6c-.37-.3-.65-.53-.83-.69a3.37,3.37,0,0,1-.49-.52,2.17,2.17,0,0,1-.3-.53,1.61,1.61,0,0,1-.09-.54,1.49,1.49,0,0,1,.27-.84,1.72,1.72,0,0,1,.8-.62,3.52,3.52,0,0,1,1.23-.2,8.54,8.54,0,0,1,1.73.19c0,.35,0,.68.07,1a3.92,3.92,0,0,0-1.51-.31,2.27,2.27,0,0,0-.75.11,1,1,0,0,0-.51.31.83.83,0,0,0-.16.47.81.81,0,0,0,.06.31,1.15,1.15,0,0,0,.19.33,3.63,3.63,0,0,0,.34.34c.13.12.4.33.79.65a9,9,0,0,1,.81.69,3.26,3.26,0,0,1,.38.47,2.26,2.26,0,0,1,.23.47,2,2,0,0,1,.07.48,1.53,1.53,0,0,1-.29.89,1.79,1.79,0,0,1-.84.64,3.33,3.33,0,0,1-1.26.22l-.69,0-.67-.09Z"/><path class="cls-2" d="M246.88,89.36c0-.2.08-.5.13-.89a11.57,11.57,0,0,1,1.42-.29,9.75,9.75,0,0,1,1.18-.08,5.2,5.2,0,0,1,1.15.12,2.3,2.3,0,0,1,.9.36,1.28,1.28,0,0,1,.47.58,2.3,2.3,0,0,1,.11.71c0,.31,0,.84-.07,1.58s-.08,1.42-.11,2,0,1.19,0,1.68H250.8l.15-1.86.1-2.21-.36.26a1.71,1.71,0,0,1-.27.14l-.33.12-.71.2-.74.22a4.31,4.31,0,0,0-.74.3,1.88,1.88,0,0,0-.46.33,1,1,0,0,0-.26.36,1.18,1.18,0,0,0-.09.46,1,1,0,0,0,.22.64,1.12,1.12,0,0,0,.55.38,2.66,2.66,0,0,0,.79.1,4.26,4.26,0,0,0,.61,0,4.44,4.44,0,0,0,.84-.2,5.33,5.33,0,0,0-.22.81c-.33.06-.61.1-.82.12s-.4,0-.59,0a4.07,4.07,0,0,1-1.46-.21,1.59,1.59,0,0,1-.79-.67,1.93,1.93,0,0,1-.26-1,1.7,1.7,0,0,1,.09-.57,1.76,1.76,0,0,1,.25-.47,2.07,2.07,0,0,1,.45-.43,3.1,3.1,0,0,1,.61-.35c.21-.09.46-.18.74-.27l1.36-.36a3.63,3.63,0,0,0,.51-.14,2.35,2.35,0,0,0,.38-.14,1.15,1.15,0,0,0,.29-.16,1.12,1.12,0,0,0,.37-.49.66.66,0,0,0,.05-.28.8.8,0,0,0-.22-.57,1.08,1.08,0,0,0-.57-.33,2.9,2.9,0,0,0-.83-.1,5.67,5.67,0,0,0-.91.07c-.31,0-.58.11-.81.17S247.21,89.23,246.88,89.36Z"/><path class="cls-2" d="M15.5,112l.08-1c0-.21,0-.54.05-1l.16-4.16c0-.34,0-.6,0-.78H17l-.06,1.27a4.51,4.51,0,0,1,.42-.61,1.84,1.84,0,0,1,.49-.41,2.6,2.6,0,0,1,.7-.3,3.18,3.18,0,0,1,.82-.11,2.25,2.25,0,0,1,.58.07,2.76,2.76,0,0,1,.53.19,2.19,2.19,0,0,1,.42.28,1.74,1.74,0,0,1,.28.34,2.76,2.76,0,0,1,.21.54,2.48,2.48,0,0,1,1-1.1,3.1,3.1,0,0,1,1.4-.32,2.85,2.85,0,0,1,1,.16,1.62,1.62,0,0,1,.73.45,1.59,1.59,0,0,1,.37.61,2.35,2.35,0,0,1,.09.64c0,.22,0,.55-.05,1s-.07,1.1-.11,2-.06,1.64-.06,2.23H24.5c.05-.61.09-1.28.13-2l.09-1.69c0-.41,0-.76,0-1.06a2,2,0,0,0-.08-.62,1,1,0,0,0-.27-.4,1.23,1.23,0,0,0-.44-.28,1.91,1.91,0,0,0-.61-.09,2.1,2.1,0,0,0-.51.06,2,2,0,0,0-.42.19,1.57,1.57,0,0,0-.4.32,1.6,1.6,0,0,0-.3.42,2.51,2.51,0,0,0-.22.57,6,6,0,0,0-.14,1c0,.43-.06,1-.07,1.68L21.23,112H20c0-.56.09-1.14.11-1.74l.08-1.65c0-.51,0-1,0-1.31a2,2,0,0,0-.07-.59,1.05,1.05,0,0,0-.26-.44,1.1,1.1,0,0,0-.45-.31,1.59,1.59,0,0,0-.59-.11,1.78,1.78,0,0,0-.65.12,2.14,2.14,0,0,0-.57.35,2.25,2.25,0,0,0-.43.57,3.34,3.34,0,0,0-.28.89,15.85,15.85,0,0,0-.16,1.92c0,.91-.05,1.68-.05,2.3H15.5Z"/><path class="cls-2" d="M33.19,110.9c0,.25-.11.57-.16.95a10,10,0,0,1-1.14.23c-.32,0-.64,0-1,0a5.16,5.16,0,0,1-1.53-.2,2.63,2.63,0,0,1-1.17-.72,2.94,2.94,0,0,1-.7-1.16,4.75,4.75,0,0,1,.18-3.28,3.07,3.07,0,0,1,1.17-1.37,3.67,3.67,0,0,1,2-.5,3.94,3.94,0,0,1,1.19.18,2.37,2.37,0,0,1,.94.55,2.41,2.41,0,0,1,.58.92,3.22,3.22,0,0,1,.21,1.18,3.58,3.58,0,0,1,0,.48H28.53q0,.38,0,.57a3,3,0,0,0,.3,1.33,2,2,0,0,0,.89.91,2.84,2.84,0,0,0,1.36.31A6.78,6.78,0,0,0,33.19,110.9Zm-4.6-3.26h4.07a3.66,3.66,0,0,0-.06-.67,2,2,0,0,0-.17-.49,1.7,1.7,0,0,0-.35-.45,1.54,1.54,0,0,0-.54-.28,2.09,2.09,0,0,0-.67-.1,2.25,2.25,0,0,0-.74.11,1.88,1.88,0,0,0-.62.3,1.65,1.65,0,0,0-.46.45,1.91,1.91,0,0,0-.28.49A3,3,0,0,0,28.59,107.64Z"/><path class="cls-2" d="M38.45,111.08c-.05.23-.1.52-.16.89a7.44,7.44,0,0,1-.74.14,4.79,4.79,0,0,1-.52,0,2.65,2.65,0,0,1-1-.15,1.14,1.14,0,0,1-.57-.49,1.75,1.75,0,0,1-.2-.92v-.27c0-.13,0-.57.07-1.33l.17-3.06h-.91c0-.19,0-.47,0-.82h.93c0-.26,0-.69.07-1.31l1.08-.23c0,.67-.05,1.19-.05,1.54h1.9a7.75,7.75,0,0,0,0,.82h-1.9l-.18,3.85v.29a1.83,1.83,0,0,0,.12.75.72.72,0,0,0,.33.36,1.13,1.13,0,0,0,.48.11l.36,0A6.35,6.35,0,0,0,38.45,111.08Z"/><path class="cls-2" d="M39.49,112l.17-3,.16-4.05,0-2.31h1.23L40.94,105l-.06,1.41c.11-.19.21-.35.29-.46a2.33,2.33,0,0,1,.3-.35,2.2,2.2,0,0,1,.4-.3,2.45,2.45,0,0,1,.46-.21,3.43,3.43,0,0,1,.6-.16,4.56,4.56,0,0,1,.75-.06,4.44,4.44,0,0,1,1.11.13,2.4,2.4,0,0,1,.91.43,1.52,1.52,0,0,1,.52.72,2.75,2.75,0,0,1,.14.85c0,.11,0,.26,0,.45s0,.61-.05,1L46.18,111c0,.27,0,.61,0,1H44.9c.05-.49.1-1.26.17-2.32s.1-1.79.1-2.2a1.87,1.87,0,0,0-.2-.9,1.28,1.28,0,0,0-.65-.55,2.61,2.61,0,0,0-1-.19,2.76,2.76,0,0,0-1,.16,1.86,1.86,0,0,0-1.14,1,3.63,3.63,0,0,0-.26.81,15.32,15.32,0,0,0-.17,1.81c0,.46,0,1.24-.07,2.35H39.49Z"/><path class="cls-2" d="M51.41,104.9a4.41,4.41,0,0,1,1.37.21,2.8,2.8,0,0,1,1.84,1.77,4,4,0,0,1,.25,1.43,4.71,4.71,0,0,1-.26,1.55,3.87,3.87,0,0,1-.74,1.27,2.83,2.83,0,0,1-1.16.76,4.66,4.66,0,0,1-2.86,0A3,3,0,0,1,48,110.09a4,4,0,0,1-.25-1.41,4.36,4.36,0,0,1,.45-2,2.93,2.93,0,0,1,1.33-1.34A4.15,4.15,0,0,1,51.41,104.9Zm0,.87a2.49,2.49,0,0,0-1.28.35,2,2,0,0,0-.86,1A4,4,0,0,0,49,108.7a3.38,3.38,0,0,0,.23,1.3,2,2,0,0,0,.76.93,2.27,2.27,0,0,0,1.29.36,2.65,2.65,0,0,0,1-.18,1.85,1.85,0,0,0,.79-.58,2.47,2.47,0,0,0,.51-1,4.51,4.51,0,0,0,.16-1.23,3.77,3.77,0,0,0-.16-1.13,1.94,1.94,0,0,0-.5-.84,2,2,0,0,0-.77-.45A2.8,2.8,0,0,0,51.38,105.77Z"/><path class="cls-2" d="M62.68,112l-.56,0h-.6l.08-1.47a6.49,6.49,0,0,1-.37.59,2.33,2.33,0,0,1-.38.39,2.28,2.28,0,0,1-.5.33,2.23,2.23,0,0,1-.63.23,3,3,0,0,1-.74.08,3.22,3.22,0,0,1-1.24-.24,2.59,2.59,0,0,1-1-.68,2.62,2.62,0,0,1-.58-1,4.28,4.28,0,0,1-.18-1.24,4.55,4.55,0,0,1,.34-1.69,3.51,3.51,0,0,1,.95-1.38,3.47,3.47,0,0,1,1.38-.76,6.19,6.19,0,0,1,1.64-.21,9.13,9.13,0,0,1,1.43.14c0-.5,0-.91,0-1.24v-1.15H63l-.2,3.86-.13,4.43Zm-1-6.1a5.52,5.52,0,0,0-.7-.16l-.56,0a4,4,0,0,0-1.26.19,2.55,2.55,0,0,0-1.05.62,2.77,2.77,0,0,0-.7,1.09,3.79,3.79,0,0,0-.25,1.3,2.9,2.9,0,0,0,.24,1.18,1.74,1.74,0,0,0,.72.86,2,2,0,0,0,1.13.32,2.36,2.36,0,0,0,.72-.11,1.91,1.91,0,0,0,.58-.31,2.45,2.45,0,0,0,.5-.55,3.32,3.32,0,0,0,.36-.81,5.7,5.7,0,0,0,.18-1.09l.06-1.29Z"/><path class="cls-2" d="M68,104.9a4.46,4.46,0,0,1,1.37.21,2.8,2.8,0,0,1,1.84,1.77,4,4,0,0,1,.25,1.43,4.71,4.71,0,0,1-.26,1.55,3.87,3.87,0,0,1-.74,1.27,2.83,2.83,0,0,1-1.16.76,4.66,4.66,0,0,1-2.86,0,3,3,0,0,1-1.84-1.83,4,4,0,0,1-.25-1.41,4.36,4.36,0,0,1,.45-2,2.93,2.93,0,0,1,1.33-1.34A4.15,4.15,0,0,1,68,104.9Zm0,.87a2.49,2.49,0,0,0-1.28.35,2,2,0,0,0-.86,1,4,4,0,0,0-.28,1.53,3.38,3.38,0,0,0,.23,1.3,2,2,0,0,0,.76.93,2.27,2.27,0,0,0,1.29.36,2.65,2.65,0,0,0,1-.18,1.85,1.85,0,0,0,.79-.58,2.47,2.47,0,0,0,.51-1,4.51,4.51,0,0,0,.16-1.23,3.77,3.77,0,0,0-.16-1.13,1.94,1.94,0,0,0-.5-.84,2,2,0,0,0-.77-.45A2.8,2.8,0,0,0,67.93,105.77Z"/><path class="cls-2" d="M72.77,112c.09-1.4.18-3.06.26-5,.06-1.4.1-2.84.13-4.34h1.25l-.21,4-.15,4.06L74,112H72.77Z"/><path class="cls-2" d="M79.34,104.9a4.41,4.41,0,0,1,1.37.21,2.74,2.74,0,0,1,1.12.65,2.83,2.83,0,0,1,.73,1.12,4.25,4.25,0,0,1,.24,1.43,4.71,4.71,0,0,1-.26,1.55,3.7,3.7,0,0,1-.74,1.27,2.76,2.76,0,0,1-1.16.76,4.46,4.46,0,0,1-1.48.24,4.52,4.52,0,0,1-1.38-.21,3,3,0,0,1-1.12-.69,2.92,2.92,0,0,1-.72-1.14,4,4,0,0,1-.25-1.41,4.36,4.36,0,0,1,.45-2,3,3,0,0,1,1.33-1.34A4.15,4.15,0,0,1,79.34,104.9Zm0,.87a2.49,2.49,0,0,0-1.28.35,2,2,0,0,0-.86,1,4,4,0,0,0-.28,1.53,3.58,3.58,0,0,0,.23,1.3,2,2,0,0,0,.76.93,2.27,2.27,0,0,0,1.29.36,2.65,2.65,0,0,0,1-.18,1.94,1.94,0,0,0,.8-.58,2.59,2.59,0,0,0,.5-1,4.51,4.51,0,0,0,.16-1.23,3.77,3.77,0,0,0-.16-1.13,1.94,1.94,0,0,0-.5-.84,2,2,0,0,0-.76-.45A2.91,2.91,0,0,0,79.31,105.77Z"/><path class="cls-2" d="M84.57,114a13.46,13.46,0,0,0,1.51.37,7.74,7.74,0,0,0,1.11.09,3.21,3.21,0,0,0,1-.16,2.05,2.05,0,0,0,.69-.36,1.62,1.62,0,0,0,.37-.48,3.75,3.75,0,0,0,.25-1c0-.33.07-1,.09-1.94-.11.21-.21.37-.29.5a2.13,2.13,0,0,1-.36.39,2.25,2.25,0,0,1-.53.36,2.61,2.61,0,0,1-.7.25,3.62,3.62,0,0,1-.82.09,3.66,3.66,0,0,1-1.16-.17,2.49,2.49,0,0,1-1-.56,2.56,2.56,0,0,1-.65-1,3.71,3.71,0,0,1-.22-1.28,4.74,4.74,0,0,1,.33-1.76,3.53,3.53,0,0,1,1-1.39,3.66,3.66,0,0,1,1.44-.8,6.52,6.52,0,0,1,1.76-.23,16.17,16.17,0,0,1,2.62.28L91,106l-.2,3.84c0,.08,0,.54,0,1.39l0,1.42a4.25,4.25,0,0,1-.12.79,3.11,3.11,0,0,1-.22.53,1.62,1.62,0,0,1-.31.43,2,2,0,0,1-.41.35,2.3,2.3,0,0,1-.52.26,4.14,4.14,0,0,1-.79.19,5.84,5.84,0,0,1-.93.08,11.26,11.26,0,0,1-1.31-.07,9.94,9.94,0,0,1-1.45-.26l0-.37C84.61,114.5,84.6,114.3,84.57,114Zm5.26-8.07a7.48,7.48,0,0,0-1.43-.15,4.43,4.43,0,0,0-1.24.16,2.58,2.58,0,0,0-1,.57,2.92,2.92,0,0,0-.74,1.08A3.61,3.61,0,0,0,85.1,109a3,3,0,0,0,.25,1.21,1.71,1.71,0,0,0,.75.82,2.35,2.35,0,0,0,1.14.28,2.4,2.4,0,0,0,1-.2,2.1,2.1,0,0,0,.77-.6,2.92,2.92,0,0,0,.52-1,6.16,6.16,0,0,0,.2-1.14C89.75,108,89.79,107.16,89.83,105.92Z"/><path class="cls-2" d="M91.45,115.15a9.37,9.37,0,0,0-.12-1,2.71,2.71,0,0,0,.64.22,2.49,2.49,0,0,0,.5.06,1.54,1.54,0,0,0,.52-.09,1.2,1.2,0,0,0,.41-.26,2.63,2.63,0,0,0,.33-.44,8.44,8.44,0,0,0,.74-1.48L93,108l-1.07-3h1.28c.08.32.14.56.19.73s.16.51.33,1l1,3.14c.11.35.23.73.34,1.14l.78-1.88,1.43-3.34.12-.31.18-.51h1.24c-.18.4-.61,1.35-1.3,2.83L95,113.53a6,6,0,0,1-.48.86,2.12,2.12,0,0,1-.39.4,1.6,1.6,0,0,1-.37.25,2.47,2.47,0,0,1-.54.19,3,3,0,0,1-.66.07A4.91,4.91,0,0,1,91.45,115.15Z"/><path class="cls-2" d="M106.44,111.08c0,.23-.1.52-.16.89a7.44,7.44,0,0,1-.74.14,4.79,4.79,0,0,1-.52,0,2.65,2.65,0,0,1-1-.15,1.14,1.14,0,0,1-.57-.49,1.75,1.75,0,0,1-.2-.92v-.27c0-.13,0-.57.07-1.33l.17-3.06h-.91c0-.19,0-.47.05-.82h.93c0-.26,0-.69.07-1.31l1.08-.23c0,.67,0,1.19,0,1.54h1.9a7.75,7.75,0,0,0,0,.82h-1.9l-.18,3.85v.29a1.83,1.83,0,0,0,.12.75.72.72,0,0,0,.33.36,1.13,1.13,0,0,0,.48.11l.36,0A6.35,6.35,0,0,0,106.44,111.08Z"/><path class="cls-2" d="M110.89,104.9a4.46,4.46,0,0,1,1.37.21,2.8,2.8,0,0,1,1.12.65,2.71,2.71,0,0,1,.72,1.12,4,4,0,0,1,.25,1.43,4.71,4.71,0,0,1-.26,1.55,3.87,3.87,0,0,1-.74,1.27,2.83,2.83,0,0,1-1.16.76,4.66,4.66,0,0,1-2.86,0,3,3,0,0,1-1.84-1.83,4,4,0,0,1-.25-1.41,4.36,4.36,0,0,1,.45-2,2.93,2.93,0,0,1,1.33-1.34A4.12,4.12,0,0,1,110.89,104.9Zm0,.87a2.46,2.46,0,0,0-1.28.35,2,2,0,0,0-.86,1,4,4,0,0,0-.28,1.53,3.38,3.38,0,0,0,.23,1.3,2,2,0,0,0,.76.93,2.27,2.27,0,0,0,1.29.36,2.56,2.56,0,0,0,1-.18,1.82,1.82,0,0,0,.8-.58,2.47,2.47,0,0,0,.51-1,4.51,4.51,0,0,0,.16-1.23,3.77,3.77,0,0,0-.16-1.13,1.94,1.94,0,0,0-.5-.84,2,2,0,0,0-.77-.45A2.8,2.8,0,0,0,110.86,105.77Z"/><path class="cls-2" d="M119.17,112c.16-2.63.24-4.72.24-6.29v-.63h1.15l0,1.13a4.79,4.79,0,0,1,.45-.64,1.66,1.66,0,0,1,.44-.35A2.26,2.26,0,0,1,122,105a2.82,2.82,0,0,1,.65-.08,2.22,2.22,0,0,1,.57.07c0,.3,0,.64,0,1a2.84,2.84,0,0,0-.76-.11,1.9,1.9,0,0,0-.73.13,1.83,1.83,0,0,0-.58.4,2.27,2.27,0,0,0-.42.65,2.75,2.75,0,0,0-.2.78,17.31,17.31,0,0,0-.12,1.74c0,.62,0,1.27,0,2V112h-1.22Z"/><path class="cls-2" d="M124.52,106.16c0-.2.08-.5.13-.89a11.69,11.69,0,0,1,1.43-.29,9.48,9.48,0,0,1,1.18-.08,5.27,5.27,0,0,1,1.15.12,2.31,2.31,0,0,1,.89.36,1.22,1.22,0,0,1,.47.58,2,2,0,0,1,.12.71c0,.31,0,.84-.07,1.58s-.09,1.42-.11,2,0,1.19,0,1.68h-1.23l.15-1.86.1-2.21-.36.26a1.36,1.36,0,0,1-.27.14l-.33.12c-.12,0-.35.11-.7.2l-.74.22a4.13,4.13,0,0,0-.75.3,2.09,2.09,0,0,0-.46.33,1.16,1.16,0,0,0-.26.36,1.18,1.18,0,0,0-.09.46,1,1,0,0,0,.22.64,1.17,1.17,0,0,0,.55.38,2.69,2.69,0,0,0,.8.1,4.22,4.22,0,0,0,.6,0,4.44,4.44,0,0,0,.84-.2,6.87,6.87,0,0,0-.22.81q-.49.09-.81.12c-.21,0-.41,0-.6,0a4.07,4.07,0,0,1-1.46-.21,1.64,1.64,0,0,1-.79-.67,1.94,1.94,0,0,1-.26-1,1.69,1.69,0,0,1,.1-.56,1.51,1.51,0,0,1,.25-.47,1.81,1.81,0,0,1,.44-.43,3.42,3.42,0,0,1,.61-.35c.22-.09.46-.18.74-.27s.74-.21,1.37-.36a3.63,3.63,0,0,0,.51-.14,2.21,2.21,0,0,0,.37-.14,1.15,1.15,0,0,0,.29-.16,1.19,1.19,0,0,0,.23-.22.91.91,0,0,0,.15-.27.87.87,0,0,0,.05-.28.85.85,0,0,0-.22-.57,1.17,1.17,0,0,0-.57-.33,3,3,0,0,0-.84-.1,5.75,5.75,0,0,0-.91.07,7.78,7.78,0,0,0-.8.17C125.14,105.93,124.86,106,124.52,106.16Z"/><path class="cls-2" d="M131.48,112q.33-4.28.34-6.92H133l-.09,1.37.27-.44a1.64,1.64,0,0,1,.28-.33,2.67,2.67,0,0,1,.4-.32,2.13,2.13,0,0,1,.55-.24,3.5,3.5,0,0,1,.64-.15,4.6,4.6,0,0,1,.64,0,4.3,4.3,0,0,1,1.14.15,2.14,2.14,0,0,1,.9.46,1.67,1.67,0,0,1,.47.73,3,3,0,0,1,.12.87c0,.06,0,.17,0,.34s0,.39,0,.66l-.14,2.87c0,.27,0,.61,0,1H137c0-.55.08-1.08.1-1.59l.09-1.59c0-.55,0-1,0-1.24a2,2,0,0,0-.2-1,1.35,1.35,0,0,0-.66-.55,2.53,2.53,0,0,0-1-.2,2.39,2.39,0,0,0-1.36.38,2.22,2.22,0,0,0-.81,1,4.55,4.55,0,0,0-.28,1.35c-.07.72-.12,1.86-.15,3.41h-1.23Z"/><path class="cls-2" d="M140,112l.11-1.85.15-3.55.07-3c0-.43,0-.75,0-1h1.23c-.06.74-.13,2.16-.22,4.28s-.13,3.8-.14,5H140Zm1.41-3.86,1.39-1.49c.49-.52.95-1,1.38-1.57h1.42l-3,3.06c.55.73,1.62,2,3.2,3.86h-1.38l-1-1.33c-.09-.12-.31-.38-.64-.78l-1.06-1.29Z"/><path class="cls-2" d="M150.14,112l.15-1.26.43-5.09.2-3h1.76l.16.6c0,.16.1.34.17.56l.36,1.07.84,2.43,1,3.25,1.36-3.25,1.55-3.56a3.7,3.7,0,0,0,.16-.4c.05-.15.14-.38.25-.7h1.8l-.09,3.26,0,2.14c0,.2,0,.4,0,.6v2.45c0,.1,0,.4,0,.88H159l0-.86.1-4.93c0-.55,0-1.16,0-1.84v-.56l-3,7.2-.39,1h-1.28l-.81-2.57-.84-2.54-.83-2.45c0-.11-.1-.3-.19-.58l-.08.8-.42,5.87c0,.2,0,.4,0,.59s0,.49,0,.88h-1.16Z"/><path class="cls-2" d="M165.57,104.9a4.41,4.41,0,0,1,1.37.21,2.8,2.8,0,0,1,1.84,1.77,4,4,0,0,1,.25,1.43,4.71,4.71,0,0,1-.26,1.55,3.7,3.7,0,0,1-.74,1.27,2.83,2.83,0,0,1-1.16.76,4.66,4.66,0,0,1-2.86,0,3,3,0,0,1-1.84-1.83,4,4,0,0,1-.25-1.41,4.36,4.36,0,0,1,.45-2,2.93,2.93,0,0,1,1.33-1.34A4.15,4.15,0,0,1,165.57,104.9Zm0,.87a2.49,2.49,0,0,0-1.28.35,2,2,0,0,0-.86,1,4,4,0,0,0-.28,1.53,3.38,3.38,0,0,0,.23,1.3,2,2,0,0,0,.76.93,2.27,2.27,0,0,0,1.29.36,2.65,2.65,0,0,0,1-.18,1.85,1.85,0,0,0,.79-.58,2.47,2.47,0,0,0,.51-1,4.51,4.51,0,0,0,.16-1.23,3.77,3.77,0,0,0-.16-1.13,1.94,1.94,0,0,0-.5-.84,2,2,0,0,0-.77-.45A2.8,2.8,0,0,0,165.54,105.77Z"/><path class="cls-2" d="M172.22,112l-.23-.69c-.08-.22-.27-.73-.55-1.52l-1.72-4.71H171l.15.48.21.65L173,111l2.16-5.22.26-.68h1.29l-.89,1.91-1.78,4-.44,1h-1.34Z"/><path class="cls-2" d="M177.29,112l.12-1.72.14-2.94,0-2.26h1.25c0,.71-.1,1.45-.14,2.23s-.08,1.63-.1,2.55,0,1.63,0,2.14h-1.28Zm.32-8.41c0-.43,0-.75,0-1H179c0,.14,0,.46,0,1h-1.3Z"/><path class="cls-2" d="M186.08,110.9c-.06.25-.11.57-.17.95a9.45,9.45,0,0,1-1.13.23c-.32,0-.64,0-1,0a5.23,5.23,0,0,1-1.54-.2,2.65,2.65,0,0,1-1.16-.72,2.83,2.83,0,0,1-.7-1.16,4.75,4.75,0,0,1,.18-3.28,3.07,3.07,0,0,1,1.17-1.37,3.63,3.63,0,0,1,2-.5,3.85,3.85,0,0,1,1.19.18,2.41,2.41,0,0,1,.95.55,2.54,2.54,0,0,1,.58.92,3.44,3.44,0,0,1,.2,1.18,2.45,2.45,0,0,1,0,.48h-5.21q0,.38,0,.57a3,3,0,0,0,.3,1.33,2,2,0,0,0,.89.91,2.8,2.8,0,0,0,1.35.31A6.78,6.78,0,0,0,186.08,110.9Zm-4.61-3.26h4.08a4.85,4.85,0,0,0-.06-.67,1.72,1.72,0,0,0-.18-.49A1.37,1.37,0,0,0,185,106a1.49,1.49,0,0,0-.53-.28,2.11,2.11,0,0,0-.68-.1,2.29,2.29,0,0,0-.74.11,2.1,2.1,0,0,0-.62.3,2,2,0,0,0-.46.45,2.26,2.26,0,0,0-.28.49A4.88,4.88,0,0,0,181.47,107.64Z"/><path class="cls-2" d="M187.52,111.85l0-.5s0-.23,0-.52a5,5,0,0,0,1.94.46,2,2,0,0,0,.78-.13.9.9,0,0,0,.48-.36.88.88,0,0,0,.17-.5,1,1,0,0,0-.05-.29,1.11,1.11,0,0,0-.13-.27,1.73,1.73,0,0,0-.27-.3l-.72-.6c-.37-.3-.65-.53-.83-.69a3.37,3.37,0,0,1-.49-.52,2.17,2.17,0,0,1-.3-.53,1.61,1.61,0,0,1-.09-.54,1.49,1.49,0,0,1,.27-.84,1.72,1.72,0,0,1,.8-.62,3.52,3.52,0,0,1,1.23-.2,8.54,8.54,0,0,1,1.73.19c0,.35,0,.68.07,1a3.92,3.92,0,0,0-1.51-.31,2.57,2.57,0,0,0-.75.1,1.07,1.07,0,0,0-.51.32.79.79,0,0,0-.1.78,1.15,1.15,0,0,0,.19.33,3.63,3.63,0,0,0,.34.34c.13.12.4.33.79.65a9,9,0,0,1,.81.69,3.26,3.26,0,0,1,.38.47,2.26,2.26,0,0,1,.23.47,2,2,0,0,1,.07.48,1.53,1.53,0,0,1-.29.89,1.79,1.79,0,0,1-.84.64,3.33,3.33,0,0,1-1.26.22l-.69,0-.67-.09Z"/><path class="cls-2" d="M196.93,112l.07-.76c0-.14,0-.4,0-.77l.19-4.64.08-3.16h1.26c-.07.59-.12,1.42-.17,2.52a9.9,9.9,0,0,1,1.17-.21,7,7,0,0,1,.9-.06,4.92,4.92,0,0,1,1.52.22,2.42,2.42,0,0,1,1.09.73,3,3,0,0,1,.6,1.11,4.52,4.52,0,0,1,.18,1.29,5.11,5.11,0,0,1-.22,1.51,3.82,3.82,0,0,1-.65,1.29,2.52,2.52,0,0,1-1.05.82,3.4,3.4,0,0,1-1.36.26,3,3,0,0,1-.75-.08,2.94,2.94,0,0,1-.63-.24,2.1,2.1,0,0,1-.47-.34,2.15,2.15,0,0,1-.32-.38,3.94,3.94,0,0,1-.29-.53l0,1.42h-1.17Zm1.4-5.9c0,.76-.06,1.26-.07,1.5s0,.53,0,.87a4.2,4.2,0,0,0,.25,1.65,1.76,1.76,0,0,0,.73.87,2.23,2.23,0,0,0,2.35-.07,2.35,2.35,0,0,0,.81-1.1,4.24,4.24,0,0,0,.28-1.54,2.68,2.68,0,0,0-.6-1.82,2.22,2.22,0,0,0-1.79-.69,5.27,5.27,0,0,0-.87.07A8.52,8.52,0,0,0,198.33,106.08Z"/><path class="cls-2" d="M205.64,106.16c0-.2.08-.5.13-.89a11.57,11.57,0,0,1,1.42-.29,9.61,9.61,0,0,1,1.18-.08,5.27,5.27,0,0,1,1.15.12,2.19,2.19,0,0,1,.89.36,1.24,1.24,0,0,1,.48.58,2.3,2.3,0,0,1,.11.71c0,.31,0,.84-.07,1.58s-.08,1.42-.11,2,0,1.19,0,1.68h-1.22l.15-1.86.1-2.21-.36.26a1.71,1.71,0,0,1-.27.14l-.33.12-.71.2-.74.22a4.31,4.31,0,0,0-.74.3,1.88,1.88,0,0,0-.46.33,1,1,0,0,0-.26.36,1.18,1.18,0,0,0-.09.46,1,1,0,0,0,.22.64,1.12,1.12,0,0,0,.55.38,2.62,2.62,0,0,0,.79.1,4.12,4.12,0,0,0,.6,0,4.5,4.5,0,0,0,.85-.2,5.33,5.33,0,0,0-.22.81c-.34.06-.61.1-.82.12s-.4,0-.59,0a4,4,0,0,1-1.46-.21,1.59,1.59,0,0,1-.79-.67,1.94,1.94,0,0,1-.26-1,1.69,1.69,0,0,1,.09-.56,1.76,1.76,0,0,1,.25-.47,2.07,2.07,0,0,1,.45-.43,3.1,3.1,0,0,1,.61-.35c.21-.09.46-.18.74-.27s.74-.21,1.36-.36a3.63,3.63,0,0,0,.51-.14,2.77,2.77,0,0,0,.38-.14,1.35,1.35,0,0,0,.29-.16,1.14,1.14,0,0,0,.22-.22.91.91,0,0,0,.15-.27.87.87,0,0,0,0-.28.8.8,0,0,0-.22-.57,1.12,1.12,0,0,0-.57-.33,2.9,2.9,0,0,0-.83-.1,5.67,5.67,0,0,0-.91.07,8,8,0,0,0-.81.17C206.26,105.93,206,106,205.64,106.16Z"/><path class="cls-2" d="M212.31,111.85l0-.5a4.75,4.75,0,0,0-.05-.52,5,5,0,0,0,1.94.46,2.08,2.08,0,0,0,.79-.13,1,1,0,0,0,.48-.36.87.87,0,0,0,.16-.5,1.45,1.45,0,0,0,0-.29,1.74,1.74,0,0,0-.14-.27,2.12,2.12,0,0,0-.26-.3l-.73-.6-.83-.69a3.94,3.94,0,0,1-.49-.52,1.85,1.85,0,0,1-.29-.53,1.4,1.4,0,0,1-.1-.54,1.43,1.43,0,0,1,.28-.84,1.63,1.63,0,0,1,.8-.62,3.51,3.51,0,0,1,1.22-.2,8.46,8.46,0,0,1,1.73.19c0,.35,0,.68.07,1a3.92,3.92,0,0,0-1.51-.31,2.57,2.57,0,0,0-.75.1,1,1,0,0,0-.5.32.74.74,0,0,0-.16.47,1.06,1.06,0,0,0,.05.31,1.21,1.21,0,0,0,.2.33,2.61,2.61,0,0,0,.33.34l.79.65a7.71,7.71,0,0,1,.81.69,2.7,2.7,0,0,1,.38.47,1.85,1.85,0,0,1,.23.47,1.59,1.59,0,0,1,.07.48,1.52,1.52,0,0,1-.28.89,1.77,1.77,0,0,1-.85.64,3.31,3.31,0,0,1-1.25.22l-.69,0L213,112Z"/><path class="cls-2" d="M223.86,110.9c-.05.25-.11.57-.16.95a10,10,0,0,1-1.14.23c-.32,0-.64,0-1,0a5.27,5.27,0,0,1-1.54-.2,2.65,2.65,0,0,1-1.16-.72,2.83,2.83,0,0,1-.7-1.16,4.75,4.75,0,0,1,.18-3.28,3.07,3.07,0,0,1,1.17-1.37,3.65,3.65,0,0,1,2-.5,3.94,3.94,0,0,1,1.19.18,2.44,2.44,0,0,1,.94.55,2.54,2.54,0,0,1,.58.92,3.22,3.22,0,0,1,.21,1.18,2.44,2.44,0,0,1-.05.48H219.2q0,.38,0,.57a3,3,0,0,0,.3,1.33,2,2,0,0,0,.89.91,2.8,2.8,0,0,0,1.35.31A6.78,6.78,0,0,0,223.86,110.9Zm-4.61-3.26h4.08a3.66,3.66,0,0,0-.06-.67,2,2,0,0,0-.17-.49,1.55,1.55,0,0,0-.36-.45,1.41,1.41,0,0,0-.53-.28,2.09,2.09,0,0,0-.67-.1,2.35,2.35,0,0,0-.75.11,2.1,2.1,0,0,0-.62.3,2,2,0,0,0-.46.45,2.76,2.76,0,0,0-.28.49A4.88,4.88,0,0,0,219.25,107.64Z"/><path class="cls-2" d="M232.09,112l-.56,0h-.59l.08-1.47a6.24,6.24,0,0,1-.38.59,2.26,2.26,0,0,1-.37.39,2.28,2.28,0,0,1-.5.33,2.48,2.48,0,0,1-.63.23,3,3,0,0,1-.74.08,3.19,3.19,0,0,1-1.24-.24,2.51,2.51,0,0,1-1-.68,2.62,2.62,0,0,1-.58-1,4.28,4.28,0,0,1-.18-1.24,4.54,4.54,0,0,1,.33-1.69,3.62,3.62,0,0,1,.95-1.38,3.57,3.57,0,0,1,1.39-.76,6.17,6.17,0,0,1,1.63-.21,9,9,0,0,1,1.43.14c0-.5,0-.91,0-1.24s0-.86,0-1.15h1.25l-.2,3.86-.14,4.43Zm-1-6.1a5.93,5.93,0,0,0-.7-.16l-.57,0a4,4,0,0,0-1.25.19,2.65,2.65,0,0,0-1.06.62,2.89,2.89,0,0,0-.7,1.09,3.77,3.77,0,0,0-.24,1.3,3.06,3.06,0,0,0,.23,1.18,1.8,1.8,0,0,0,.72.86,2.08,2.08,0,0,0,1.14.32,2.25,2.25,0,0,0,.71-.11,1.8,1.8,0,0,0,.58-.31,2.24,2.24,0,0,0,.5-.55,3,3,0,0,0,.37-.81,5.82,5.82,0,0,0,.17-1.09q0-.33.06-1.29Z"/><path class="cls-2" d="M240.88,104.9a4.4,4.4,0,0,1,1.36.21,2.77,2.77,0,0,1,1.13.65,2.93,2.93,0,0,1,.72,1.12,4.25,4.25,0,0,1,.24,1.43,4.47,4.47,0,0,1-.26,1.55,3.55,3.55,0,0,1-.74,1.27,2.7,2.7,0,0,1-1.16.76,4.63,4.63,0,0,1-2.85,0,3,3,0,0,1-1.13-.69,3.17,3.17,0,0,1-.72-1.14,4.19,4.19,0,0,1-.25-1.41,4.36,4.36,0,0,1,.46-2,3,3,0,0,1,1.32-1.34A4.19,4.19,0,0,1,240.88,104.9Zm0,.87a2.49,2.49,0,0,0-1.28.35,2.11,2.11,0,0,0-.86,1,4,4,0,0,0-.28,1.53,3.58,3.58,0,0,0,.23,1.3,2,2,0,0,0,.77.93,2.22,2.22,0,0,0,1.28.36,2.61,2.61,0,0,0,1-.18,1.94,1.94,0,0,0,.8-.58,2.46,2.46,0,0,0,.5-1,4.51,4.51,0,0,0,.17-1.23,3.77,3.77,0,0,0-.17-1.13,1.85,1.85,0,0,0-.5-.84,2,2,0,0,0-.76-.45A2.87,2.87,0,0,0,240.84,105.77Z"/><path class="cls-2" d="M245.63,112q.33-4.28.34-6.92h1.21l-.09,1.37c.12-.2.21-.34.28-.44a2,2,0,0,1,.27-.33,2.78,2.78,0,0,1,.41-.32,1.92,1.92,0,0,1,.54-.24,3.5,3.5,0,0,1,.64-.15,4.74,4.74,0,0,1,.65,0,4.22,4.22,0,0,1,1.13.15,2,2,0,0,1,.9.46,1.58,1.58,0,0,1,.47.73,3,3,0,0,1,.12.87v.34q0,.26,0,.66l-.14,2.87c0,.27,0,.61,0,1H251.1c.05-.55.08-1.08.11-1.59l.09-1.59c0-.55,0-1,0-1.24a1.9,1.9,0,0,0-.21-1,1.31,1.31,0,0,0-.66-.55,2.49,2.49,0,0,0-1-.2,2.41,2.41,0,0,0-1.36.38,2.22,2.22,0,0,0-.81,1,4.89,4.89,0,0,0-.28,1.35c-.07.72-.12,1.86-.14,3.41h-1.24Z"/><path class="cls-2" d="M15.5,128.78l.08-1c0-.21,0-.54.05-1l.16-4.16c0-.34,0-.6,0-.78H17l-.06,1.27a4.51,4.51,0,0,1,.42-.61,2.07,2.07,0,0,1,.49-.42,2.94,2.94,0,0,1,.7-.29,3.18,3.18,0,0,1,.82-.11,2.25,2.25,0,0,1,.58.07,2.76,2.76,0,0,1,.53.19,2.19,2.19,0,0,1,.42.28,1.74,1.74,0,0,1,.28.34,2.76,2.76,0,0,1,.21.54,2.48,2.48,0,0,1,1-1.1,3.1,3.1,0,0,1,1.4-.32,2.85,2.85,0,0,1,1,.16,1.62,1.62,0,0,1,.73.45,1.59,1.59,0,0,1,.37.61,2.35,2.35,0,0,1,.09.64c0,.22,0,.55-.05,1s-.07,1.1-.11,2-.06,1.64-.06,2.23H24.5c.05-.61.09-1.28.13-2l.09-1.69c0-.41,0-.77,0-1.06a2,2,0,0,0-.08-.62,1,1,0,0,0-.27-.4,1.23,1.23,0,0,0-.44-.28,1.91,1.91,0,0,0-.61-.09,2.1,2.1,0,0,0-.51.06,2,2,0,0,0-.42.19,1.57,1.57,0,0,0-.4.32,1.6,1.6,0,0,0-.3.42,2.51,2.51,0,0,0-.22.57,6,6,0,0,0-.14,1c0,.43-.06,1-.07,1.68l-.06,1.91H20c0-.56.09-1.14.11-1.74l.08-1.65c0-.51,0-1,0-1.31a2,2,0,0,0-.07-.59,1.05,1.05,0,0,0-.26-.44,1.1,1.1,0,0,0-.45-.31,1.59,1.59,0,0,0-.59-.11,1.78,1.78,0,0,0-.65.12,2.14,2.14,0,0,0-.57.35,2.25,2.25,0,0,0-.43.57,3.34,3.34,0,0,0-.28.89,15.85,15.85,0,0,0-.16,1.92c0,.91-.05,1.68-.05,2.3H15.5Z"/><path class="cls-2" d="M34,128.78H32.89l0-1.32a4.13,4.13,0,0,1-.28.48,2.24,2.24,0,0,1-.3.33,3.18,3.18,0,0,1-.37.27,2,2,0,0,1-.44.19,3.61,3.61,0,0,1-.59.15,5.55,5.55,0,0,1-.72.05,3.62,3.62,0,0,1-1.43-.25,2,2,0,0,1-.89-.72,2.31,2.31,0,0,1-.31-1.27c0-.08,0-.22,0-.42s0-.45,0-.76l.11-2.28,0-.73c0-.17,0-.38,0-.64H29c-.07.8-.13,1.67-.18,2.62s-.09,1.55-.09,1.82a2,2,0,0,0,.19,1,1.33,1.33,0,0,0,.65.55,2.63,2.63,0,0,0,1,.19,2.87,2.87,0,0,0,1-.17,2.13,2.13,0,0,0,.68-.43,2.56,2.56,0,0,0,.49-.76,3.74,3.74,0,0,0,.22-.88c0-.26.06-.72.09-1.4s.06-1.65.08-2.5h1.21c-.07.82-.14,2.07-.23,3.74Q34,127,34,128.78Z"/><path class="cls-2" d="M35.87,128.78c.09-1.4.18-3.06.27-5,.06-1.4.1-2.84.13-4.34h1.24l-.21,4-.15,4.06,0,1.25H35.87Z"/><path class="cls-2" d="M42.5,127.88c0,.22-.11.52-.17.89a6.94,6.94,0,0,1-.74.14,4.61,4.61,0,0,1-.52,0,2.69,2.69,0,0,1-1-.15,1.19,1.19,0,0,1-.57-.49,1.85,1.85,0,0,1-.2-.92c0-.05,0-.14,0-.27s0-.57.07-1.33l.17-3.06h-.92c0-.19,0-.47.05-.82h.93c0-.26,0-.69.07-1.31.43-.08.79-.16,1.09-.23,0,.67,0,1.19-.06,1.54h1.9c0,.28,0,.56,0,.82H40.7l-.18,3.85v.29a2,2,0,0,0,.11.75A.79.79,0,0,0,41,128a1.12,1.12,0,0,0,.47.11l.37,0C41.93,128,42.16,128,42.5,127.88Z"/><path class="cls-2" d="M43.54,128.78l.11-1.72.14-2.94.05-2.26h1.25c-.05.71-.1,1.45-.14,2.23s-.08,1.63-.1,2.55,0,1.63,0,2.14H43.54Zm.31-8.41c0-.43,0-.75,0-1h1.32c0,.14,0,.46,0,1h-1.3Z"/><path class="cls-2" d="M46.51,131.87c.09-1.17.18-2.77.26-4.8s.12-3.67.13-5c.75-.16,1.35-.27,1.79-.32A10.2,10.2,0,0,1,50,121.7a4.61,4.61,0,0,1,1.86.34,2.47,2.47,0,0,1,1.22,1.19,4.18,4.18,0,0,1,.44,1.92,4.92,4.92,0,0,1-.21,1.44,3.53,3.53,0,0,1-.62,1.24,2.72,2.72,0,0,1-1,.83,3.19,3.19,0,0,1-1.33.27,3.33,3.33,0,0,1-.84-.1,2.62,2.62,0,0,1-.7-.28,2,2,0,0,1-.5-.38,5.68,5.68,0,0,1-.49-.64l-.08,2.71q0,.66,0,1v.67H46.51Zm1.56-8.94,0,.51,0,.72c0,.37,0,.67,0,.91s0,.4,0,.49a4.22,4.22,0,0,0,.1,1,1.91,1.91,0,0,0,.43.82,2.12,2.12,0,0,0,1.63.76,2,2,0,0,0,1.17-.36,2.32,2.32,0,0,0,.82-1,4.1,4.1,0,0,0,.29-1.54,3.1,3.1,0,0,0-.31-1.45,1.91,1.91,0,0,0-.82-.88,2.53,2.53,0,0,0-1.18-.27A5.82,5.82,0,0,0,48.07,122.93Z"/><path class="cls-2" d="M54.9,128.78c.09-1.4.18-3.06.27-5,.06-1.4.1-2.84.13-4.34h1.24l-.21,4-.15,4.06,0,1.25H54.9Z"/><path class="cls-2" d="M63.7,127.7c-.05.25-.11.57-.16,1a10,10,0,0,1-1.14.23c-.32,0-.64.05-1,.05a5.27,5.27,0,0,1-1.54-.2,2.65,2.65,0,0,1-1.16-.72,2.94,2.94,0,0,1-.7-1.16,4.75,4.75,0,0,1,.18-3.28,3.07,3.07,0,0,1,1.17-1.37,3.67,3.67,0,0,1,2-.5,3.94,3.94,0,0,1,1.19.18,2.44,2.44,0,0,1,.94.55,2.54,2.54,0,0,1,.58.92,3.22,3.22,0,0,1,.21,1.18,3.73,3.73,0,0,1,0,.48H59q0,.38,0,.57a3,3,0,0,0,.3,1.33,2,2,0,0,0,.89.91,2.81,2.81,0,0,0,1.36.31A6.78,6.78,0,0,0,63.7,127.7Zm-4.61-3.26h4.08a3.66,3.66,0,0,0-.06-.67,2,2,0,0,0-.17-.49,1.55,1.55,0,0,0-.36-.45,1.41,1.41,0,0,0-.53-.28,2.09,2.09,0,0,0-.67-.1,2.25,2.25,0,0,0-.74.11,2,2,0,0,0-.63.3,1.61,1.61,0,0,0-.45.45,1.91,1.91,0,0,0-.28.49A3.59,3.59,0,0,0,59.09,124.44Z"/><path class="cls-2" d="M75.43,128.8l-.56,0h-.59l.08-1.47a6.24,6.24,0,0,1-.38.59,2.26,2.26,0,0,1-.37.39,2.71,2.71,0,0,1-.5.33,2.48,2.48,0,0,1-.63.23,3,3,0,0,1-.74.08,3.22,3.22,0,0,1-1.24-.24,2.51,2.51,0,0,1-1-.68,2.62,2.62,0,0,1-.58-1,4.28,4.28,0,0,1-.18-1.24,4.36,4.36,0,0,1,.34-1.69,3.5,3.5,0,0,1,.94-1.38,3.57,3.57,0,0,1,1.39-.76,6.19,6.19,0,0,1,1.64-.21,9,9,0,0,1,1.42.14c0-.5,0-.91,0-1.24s0-.86,0-1.15h1.25l-.2,3.86-.14,4.43Zm-1-6.1a4.43,4.43,0,0,0-.7-.16l-.57,0a4,4,0,0,0-1.25.19,2.64,2.64,0,0,0-1.05.61,2.77,2.77,0,0,0-.7,1.1,3.57,3.57,0,0,0-.25,1.3,3.06,3.06,0,0,0,.23,1.18,1.85,1.85,0,0,0,.72.86,2.08,2.08,0,0,0,1.14.32,2.25,2.25,0,0,0,.71-.11,1.85,1.85,0,0,0,.59-.31,2.42,2.42,0,0,0,.49-.55,3,3,0,0,0,.37-.81,5.82,5.82,0,0,0,.17-1.09q0-.33.06-1.29Z"/><path class="cls-2" d="M77.31,128.78l.11-1.72.14-2.94,0-2.26h1.25c0,.71-.1,1.45-.14,2.23s-.08,1.63-.1,2.55,0,1.63,0,2.14H77.31Zm.31-8.41c0-.43,0-.75,0-1H79c0,.14,0,.46,0,1h-1.3Z"/><path class="cls-2" d="M80.41,128.78l.07-1c0-.21,0-.54.06-1l.16-4.16c0-.34,0-.6,0-.78h1.15l-.06,1.27c.16-.25.3-.46.42-.61a2.13,2.13,0,0,1,.5-.42,2.78,2.78,0,0,1,.7-.29,3.12,3.12,0,0,1,.82-.11,2.3,2.3,0,0,1,.58.07,2.76,2.76,0,0,1,.53.19,1.84,1.84,0,0,1,.41.28,1.44,1.44,0,0,1,.28.34,2.21,2.21,0,0,1,.22.54,2.48,2.48,0,0,1,1-1.1,3.1,3.1,0,0,1,1.4-.32,2.75,2.75,0,0,1,1,.16,1.66,1.66,0,0,1,.74.45,1.72,1.72,0,0,1,.37.61,2.35,2.35,0,0,1,.09.64c0,.22,0,.55,0,1s-.07,1.1-.11,2-.06,1.64-.07,2.23H89.4c0-.61.1-1.28.13-2l.09-1.69c0-.41,0-.77,0-1.06a2,2,0,0,0-.08-.62,1.09,1.09,0,0,0-.27-.4,1.28,1.28,0,0,0-.45-.28,1.85,1.85,0,0,0-.6-.09,2,2,0,0,0-.51.06,1.59,1.59,0,0,0-.42.19,1.81,1.81,0,0,0-.41.32,1.6,1.6,0,0,0-.3.42,3.11,3.11,0,0,0-.21.57,5.11,5.11,0,0,0-.14,1c0,.43-.06,1-.08,1.68l0,1.91H84.92c0-.56.08-1.14.11-1.74l.08-1.65c0-.51,0-1,0-1.31a2.49,2.49,0,0,0-.06-.59,1.05,1.05,0,0,0-.26-.44,1.17,1.17,0,0,0-.45-.31,1.63,1.63,0,0,0-.59-.11,1.75,1.75,0,0,0-.65.12,1.87,1.87,0,0,0-.57.35,2.28,2.28,0,0,0-.44.57,3.36,3.36,0,0,0-.27.89,15.85,15.85,0,0,0-.16,1.92c0,.91-.06,1.68-.06,2.3H80.41Z"/><path class="cls-2" d="M98.1,127.7c0,.25-.11.57-.16,1a10,10,0,0,1-1.14.23c-.32,0-.64.05-1,.05a5.27,5.27,0,0,1-1.54-.2,2.65,2.65,0,0,1-1.16-.72,2.83,2.83,0,0,1-.7-1.16,4.75,4.75,0,0,1,.18-3.28,3.07,3.07,0,0,1,1.17-1.37,3.65,3.65,0,0,1,2-.5,3.94,3.94,0,0,1,1.19.18,2.44,2.44,0,0,1,.94.55,2.54,2.54,0,0,1,.58.92,3.21,3.21,0,0,1,.2,1.18,2.52,2.52,0,0,1,0,.48H93.44q0,.38,0,.57a3,3,0,0,0,.3,1.33,2,2,0,0,0,.89.91,2.8,2.8,0,0,0,1.35.31A6.78,6.78,0,0,0,98.1,127.7Zm-4.61-3.26h4.08a4.85,4.85,0,0,0-.06-.67,1.72,1.72,0,0,0-.18-.49,1.37,1.37,0,0,0-.35-.45,1.49,1.49,0,0,0-.53-.28,2.09,2.09,0,0,0-.67-.1,2.35,2.35,0,0,0-.75.11,2.1,2.1,0,0,0-.62.3,1.79,1.79,0,0,0-.46.45,2.26,2.26,0,0,0-.28.49A4.88,4.88,0,0,0,93.49,124.44Z"/><path class="cls-2" d="M99.82,128.78q.33-4.27.34-6.92h1.21l-.09,1.37c.12-.2.21-.34.28-.44a2,2,0,0,1,.27-.33,2.67,2.67,0,0,1,.4-.32,2.13,2.13,0,0,1,.55-.24,3.5,3.5,0,0,1,.64-.15,4.74,4.74,0,0,1,.65,0,4.22,4.22,0,0,1,1.13.15,2,2,0,0,1,.9.46,1.58,1.58,0,0,1,.47.73,3,3,0,0,1,.12.87v.34q0,.25,0,.66l-.14,2.87c0,.27,0,.61,0,1h-1.21c0-.55.08-1.08.1-1.59l.09-1.59c0-.55,0-1,0-1.24a1.9,1.9,0,0,0-.21-1,1.31,1.31,0,0,0-.66-.55,2.53,2.53,0,0,0-1-.2,2.41,2.41,0,0,0-1.36.38,2.22,2.22,0,0,0-.81,1,4.89,4.89,0,0,0-.28,1.35c-.07.72-.12,1.86-.14,3.41H99.82Z"/><path class="cls-2" d="M108,128.65l0-.5a4.75,4.75,0,0,0,0-.52,5,5,0,0,0,1.94.46,2.08,2.08,0,0,0,.79-.13,1,1,0,0,0,.48-.36.87.87,0,0,0,.16-.5,1.45,1.45,0,0,0,0-.29,1.74,1.74,0,0,0-.14-.27,2.12,2.12,0,0,0-.26-.3l-.73-.6-.83-.69a3.94,3.94,0,0,1-.49-.52,1.85,1.85,0,0,1-.29-.53,1.4,1.4,0,0,1-.1-.54,1.43,1.43,0,0,1,.28-.84,1.63,1.63,0,0,1,.8-.62,3.51,3.51,0,0,1,1.22-.2,8.46,8.46,0,0,1,1.73.19c0,.35,0,.68.07,1a3.92,3.92,0,0,0-1.51-.31,2.57,2.57,0,0,0-.75.1,1,1,0,0,0-.5.32.74.74,0,0,0-.16.47,1.06,1.06,0,0,0,0,.31,1.21,1.21,0,0,0,.2.33,2.61,2.61,0,0,0,.33.34l.79.64a8.81,8.81,0,0,1,.81.7,2.7,2.7,0,0,1,.38.47,2.26,2.26,0,0,1,.23.47,1.59,1.59,0,0,1,.07.48,1.52,1.52,0,0,1-.28.89,1.77,1.77,0,0,1-.85.64,3.31,3.31,0,0,1-1.25.22l-.69,0-.68-.09Z"/><path class="cls-2" d="M113.9,128.78l.12-1.72.13-2.94,0-2.26h1.25c0,.71-.1,1.45-.14,2.23s-.08,1.63-.1,2.55,0,1.63,0,2.14H113.9Zm.31-8.41c0-.43,0-.75,0-1h1.32c0,.14,0,.46,0,1h-1.3Z"/><path class="cls-2" d="M120.46,121.7a4.46,4.46,0,0,1,1.37.21,2.8,2.8,0,0,1,1.84,1.77,4,4,0,0,1,.25,1.43,4.71,4.71,0,0,1-.26,1.55,3.87,3.87,0,0,1-.74,1.27,2.83,2.83,0,0,1-1.16.76,4.66,4.66,0,0,1-2.86,0,3,3,0,0,1-1.84-1.83,4,4,0,0,1-.25-1.41,4.36,4.36,0,0,1,.45-2,2.93,2.93,0,0,1,1.33-1.34A4.15,4.15,0,0,1,120.46,121.7Zm0,.87a2.49,2.49,0,0,0-1.28.35,2,2,0,0,0-.86,1,4,4,0,0,0-.28,1.53,3.38,3.38,0,0,0,.23,1.3,2,2,0,0,0,.76.93,2.27,2.27,0,0,0,1.29.36,2.65,2.65,0,0,0,1-.18,1.85,1.85,0,0,0,.79-.58,2.47,2.47,0,0,0,.51-1,4.51,4.51,0,0,0,.16-1.23,3.77,3.77,0,0,0-.16-1.13,1.94,1.94,0,0,0-.5-.84,2,2,0,0,0-.77-.45A2.8,2.8,0,0,0,120.43,122.57Z"/><path class="cls-2" d="M125.22,128.78q.33-4.27.34-6.92h1.21l-.09,1.37a4.77,4.77,0,0,1,.27-.44,1.64,1.64,0,0,1,.28-.33,2.24,2.24,0,0,1,.4-.32,2,2,0,0,1,.55-.24,3.5,3.5,0,0,1,.64-.15,4.6,4.6,0,0,1,.64,0,4.35,4.35,0,0,1,1.14.15,2.14,2.14,0,0,1,.9.46,1.67,1.67,0,0,1,.47.73,3,3,0,0,1,.12.87c0,.06,0,.17,0,.34s0,.39,0,.66l-.13,2.87c0,.27,0,.61,0,1h-1.21c0-.55.08-1.08.1-1.59l.09-1.59c0-.55,0-1,0-1.24a2,2,0,0,0-.2-1,1.35,1.35,0,0,0-.66-.55,2.53,2.53,0,0,0-1-.2,2.45,2.45,0,0,0-1.37.38,2.27,2.27,0,0,0-.8,1,4.25,4.25,0,0,0-.28,1.35c-.07.72-.12,1.86-.15,3.41h-1.23Z"/><path class="cls-2" d="M133.38,128.65l0-.5c0-.05,0-.23-.06-.52a5,5,0,0,0,1.95.46A2,2,0,0,0,136,128a.9.9,0,0,0,.48-.36.87.87,0,0,0,.16-.5,1,1,0,0,0,0-.29,1.11,1.11,0,0,0-.13-.27,1.73,1.73,0,0,0-.27-.3l-.72-.6c-.37-.3-.65-.53-.83-.69a3.37,3.37,0,0,1-.49-.52,2.17,2.17,0,0,1-.3-.53,1.61,1.61,0,0,1-.09-.54,1.49,1.49,0,0,1,.27-.84,1.72,1.72,0,0,1,.8-.62,3.52,3.52,0,0,1,1.23-.2,8.61,8.61,0,0,1,1.73.19c0,.35,0,.68.07,1a4,4,0,0,0-1.51-.31,2.57,2.57,0,0,0-.75.1,1.07,1.07,0,0,0-.51.32.79.79,0,0,0-.1.78,1.15,1.15,0,0,0,.19.33,3.63,3.63,0,0,0,.34.34c.13.12.4.33.79.64s.66.55.81.7a3.26,3.26,0,0,1,.38.47,2.26,2.26,0,0,1,.23.47,2,2,0,0,1,.07.48,1.53,1.53,0,0,1-.29.89,1.79,1.79,0,0,1-.84.64,3.37,3.37,0,0,1-1.26.22l-.69,0-.67-.09Z"/><path class="cls-2" d="M17.41,145.23a3.17,3.17,0,0,1-1.21-1.3,4.18,4.18,0,0,1-.43-2v-2.73a4.17,4.17,0,0,1,.43-1.94A3.19,3.19,0,0,1,17.41,136a3.59,3.59,0,0,1,1.82-.46,3.37,3.37,0,0,1,2.77,1.4,3.89,3.89,0,0,1,.65,1.56H21.22a2.24,2.24,0,0,0-.43-.84,2.07,2.07,0,0,0-.72-.56,1.93,1.93,0,0,0-2.62.92,2.79,2.79,0,0,0-.25,1.23V142a2.79,2.79,0,0,0,.25,1.23,1.93,1.93,0,0,0,.71.83,2,2,0,0,0,1.07.29,2.06,2.06,0,0,0,1.56-.73,2.16,2.16,0,0,0,.43-.87h1.43a3.89,3.89,0,0,1-.65,1.56,3.41,3.41,0,0,1-2.77,1.4A3.59,3.59,0,0,1,17.41,145.23Z"/><path class="cls-2" d="M25.64,145.32a2.36,2.36,0,0,1-1-1,3.71,3.71,0,0,1-.35-1.67v-1.16a3.65,3.65,0,0,1,.35-1.65,2.36,2.36,0,0,1,1-1,3.74,3.74,0,0,1,3.16,0,2.42,2.42,0,0,1,1,1,3.65,3.65,0,0,1,.34,1.65v1.18a3.67,3.67,0,0,1-.34,1.66,2.45,2.45,0,0,1-1,1,3.56,3.56,0,0,1-3.16,0Zm2.71-1.42a1.85,1.85,0,0,0,.4-1.28v-1.18a1.85,1.85,0,0,0-.4-1.28,1.64,1.64,0,0,0-2.26,0,1.85,1.85,0,0,0-.4,1.28v1.18a1.85,1.85,0,0,0,.4,1.28,1.62,1.62,0,0,0,2.26,0Z"/><path class="cls-2" d="M32.13,138.49h1.39v7.09H32.13Zm4.23,2.79a1.71,1.71,0,0,0-.36-1.16,1.36,1.36,0,0,0-1-.41,1.46,1.46,0,0,0-1.06.36,1.38,1.38,0,0,0-.37,1l-.14-1.36a2.56,2.56,0,0,1,.86-1,2.08,2.08,0,0,1,1.17-.34,2.27,2.27,0,0,1,1.27.34,2.06,2.06,0,0,1,.8,1,3.9,3.9,0,0,1,.28,1.57v4.3h-1.4Zm4.24,0a1.63,1.63,0,0,0-.39-1.16,1.44,1.44,0,0,0-1.09-.41,1.28,1.28,0,0,0-1,.4,1.65,1.65,0,0,0-.35,1.12l-.28-1.37a2.76,2.76,0,0,1,.88-1.09,2.15,2.15,0,0,1,1.22-.38,2.41,2.41,0,0,1,1.31.34,2.1,2.1,0,0,1,.82,1,3.89,3.89,0,0,1,.29,1.57v4.3H40.6Z"/><path class="cls-2" d="M44.12,138.49h1.39v10H44.12Zm2,6.88a1.8,1.8,0,0,1-.72-.9l.09-1.48a1.73,1.73,0,0,0,.17.78,1.11,1.11,0,0,0,.47.49,1.61,1.61,0,0,0,.76.17A1.38,1.38,0,0,0,48,144a1.73,1.73,0,0,0,.37-1.19v-1.54a1.8,1.8,0,0,0-.37-1.21,1.38,1.38,0,0,0-1.07-.43,1.61,1.61,0,0,0-.76.17,1,1,0,0,0-.47.48,1.64,1.64,0,0,0-.17.76l-.14-1.36a2.33,2.33,0,0,1,.84-1,2,2,0,0,1,1.15-.34,2.34,2.34,0,0,1,1.29.34,2.1,2.1,0,0,1,.82,1,3.9,3.9,0,0,1,.28,1.57v1.54a3.83,3.83,0,0,1-.29,1.55,2.13,2.13,0,0,1-.84,1,2.54,2.54,0,0,1-1.32.34A2.1,2.1,0,0,1,46.14,145.37Z"/><path class="cls-2" d="M53,142.8a1.62,1.62,0,0,0,.37,1.15,1.37,1.37,0,0,0,1.07.41,1.46,1.46,0,0,0,1.06-.36,1.34,1.34,0,0,0,.38-1l.1,1.48a2.1,2.1,0,0,1-.72.88,2,2,0,0,1-1.21.36,2.23,2.23,0,0,1-1.81-.76,3.17,3.17,0,0,1-.64-2.13v-4.31H53Zm2.88-4.31h1.39v7.09H55.84Z"/><path class="cls-2" d="M58.8,138.49H62v1.26H58.8Zm1.13,6.65a2.14,2.14,0,0,1-.4-1.4v-7.32h1.4v7.33a.64.64,0,0,0,.1.4.34.34,0,0,0,.3.14H62v1.33h-.81A1.56,1.56,0,0,1,59.93,145.14Z"/><path class="cls-2" d="M65.14,145.32a2.5,2.5,0,0,1-1.07-1.09,3.77,3.77,0,0,1-.36-1.72v-.8a4.28,4.28,0,0,1,.35-1.8,2.55,2.55,0,0,1,1-1.13,3.19,3.19,0,0,1,1.62-.39,2.52,2.52,0,0,1,1.51.44,2.79,2.79,0,0,1,1,1.29,5.49,5.49,0,0,1,.34,2v.47H64.72v-1.12h3.46a2.36,2.36,0,0,0-.45-1.35,1.27,1.27,0,0,0-1-.49,1.53,1.53,0,0,0-1.23.52,2.24,2.24,0,0,0-.44,1.47v.91a1.86,1.86,0,0,0,.47,1.35,1.79,1.79,0,0,0,1.32.47,2.29,2.29,0,0,0,.84-.17,2.15,2.15,0,0,0,.74-.48l.92.92a3.85,3.85,0,0,1-1.18.78,3.48,3.48,0,0,1-1.32.28A3.59,3.59,0,0,1,65.14,145.32Z"/><path class="cls-2" d="M71.42,138.49h1.39v7.09H71.42Zm3.44,1.34a1.67,1.67,0,0,0-.65-.12,1.28,1.28,0,0,0-1.4,1.38l-.14-1.36a2.52,2.52,0,0,1,.85-1,2,2,0,0,1,1.15-.35,2.41,2.41,0,0,1,.87.14,1.84,1.84,0,0,1,.69.41l-.91,1.23A1.2,1.2,0,0,0,74.86,139.83Z"/><path class="cls-2" d="M80.26,135.64h1.52l2.39,7.8,2.38-7.8h1.52l-3.24,9.94H83.51Z"/><path class="cls-2" d="M89.37,135.64h1.39V137H89.37Zm0,2.85h1.39v7.09H89.37Z"/><path class="cls-2" d="M94.21,145.56a4.08,4.08,0,0,1-1-.37,4,4,0,0,1-.88-.61l.83-1a4.79,4.79,0,0,0,1.14.66,3.23,3.23,0,0,0,1.12.22,2.39,2.39,0,0,0,1.24-.26.84.84,0,0,0,.42-.77.59.59,0,0,0-.23-.51,1.23,1.23,0,0,0-.56-.23c-.22,0-.54-.07-.94-.11H95a5.06,5.06,0,0,1-1.17-.2,1.59,1.59,0,0,1-.8-.55,1.83,1.83,0,0,1-.32-1.15,2.42,2.42,0,0,1,.31-1.26,1.85,1.85,0,0,1,.92-.74,3.93,3.93,0,0,1,1.52-.25,5.22,5.22,0,0,1,1.06.1,5.34,5.34,0,0,1,1,.3,5.58,5.58,0,0,1,.88.51l-.84,1a4.59,4.59,0,0,0-1-.51,3.06,3.06,0,0,0-1-.17,2,2,0,0,0-1.07.24.83.83,0,0,0-.35.73.51.51,0,0,0,.2.43,1.18,1.18,0,0,0,.51.19c.2,0,.5.06.87.08h.26a5.94,5.94,0,0,1,1.27.2,1.71,1.71,0,0,1,.88.6,2,2,0,0,1,.36,1.28,2.28,2.28,0,0,1-.33,1.27,2,2,0,0,1-1,.75,4.63,4.63,0,0,1-1.66.26A5,5,0,0,1,94.21,145.56Z"/><path class="cls-2" d="M100.14,135.64h1.4V137h-1.4Zm0,2.85h1.4v7.09h-1.4Z"/><path class="cls-2" d="M104.8,145.32a2.36,2.36,0,0,1-1-1,3.71,3.71,0,0,1-.35-1.67v-1.16a3.65,3.65,0,0,1,.35-1.65,2.36,2.36,0,0,1,1-1,3.74,3.74,0,0,1,3.16,0,2.42,2.42,0,0,1,1,1,3.65,3.65,0,0,1,.34,1.65v1.18a3.67,3.67,0,0,1-.34,1.66,2.45,2.45,0,0,1-1,1,3.56,3.56,0,0,1-3.16,0Zm2.71-1.42a1.85,1.85,0,0,0,.4-1.28v-1.18a1.85,1.85,0,0,0-.4-1.28,1.64,1.64,0,0,0-2.26,0,1.85,1.85,0,0,0-.4,1.28v1.18a1.85,1.85,0,0,0,.4,1.28,1.62,1.62,0,0,0,2.26,0Z"/><path class="cls-2" d="M111.29,138.49h1.39v7.09h-1.39Zm4.3,2.79a1.63,1.63,0,0,0-.39-1.16,1.44,1.44,0,0,0-1.09-.41,1.46,1.46,0,0,0-1.06.36,1.42,1.42,0,0,0-.37,1l-.14-1.36a2.56,2.56,0,0,1,.86-1,2.08,2.08,0,0,1,1.17-.34,2.19,2.19,0,0,1,1.78.75,3.2,3.2,0,0,1,.64,2.14v4.3h-1.4Z"/><path class="cls-2" d="M118.87,144.12h1.46v2.22l-1.46,1.51Z"/><path class="cls-2" d="M126.18,135.64h1.26l4.86,7.69-.16.18v-7.87h1.38v9.94h-1.28L127.39,138l.17-.18v7.75h-1.38Z"/><path class="cls-2" d="M136,135.64h1.39v9.94H136Zm.7,8.62h5.68v1.32h-5.68Z"/><path class="cls-2" d="M144,135.64h1.4v9.94H144Zm.72,4.76h3.18a1.46,1.46,0,0,0,.79-.21,1.35,1.35,0,0,0,.53-.6,2.23,2.23,0,0,0,0-1.8,1.35,1.35,0,0,0-.53-.6,1.38,1.38,0,0,0-.79-.22h-3.18v-1.33h3.13a3.2,3.2,0,0,1,1.57.38,2.7,2.7,0,0,1,1.05,1.07,3.64,3.64,0,0,1,0,3.2,2.61,2.61,0,0,1-1.05,1.06,3.2,3.2,0,0,1-1.57.38h-3.13Z"/></g></g></svg>