<svg xmlns="http://www.w3.org/2000/svg" viewBox="0 0 285.22 158.25"><defs><style>.cls-1{fill:#fff;stroke:#231f20;stroke-miterlimit:10;stroke-width:2px;}.cls-2{fill:#231f20;}</style></defs><g id="Layer_2" data-name="Layer 2"><g id="Layer_1-2" data-name="Layer 1"><rect class="cls-1" x="1" y="1" width="283.22" height="156.25"/><path class="cls-2" d="M31.32,30.86c-.14.6-.26,1.15-.35,1.68l-.32,1.82c-1.22.19-2.64.35-4.27.47S23.29,35,22,35a18.26,18.26,0,0,1-3.21-.28,9.07,9.07,0,0,1-2.78-1A7.38,7.38,0,0,1,13.92,32a6.16,6.16,0,0,1-1.18-2.19,8.64,8.64,0,0,1-.34-2.48A8.12,8.12,0,0,1,13,24a7.22,7.22,0,0,1,1.88-2.58,9.07,9.07,0,0,1,3-1.72A12.24,12.24,0,0,1,22,19.09a11.86,11.86,0,0,1,3.43.5,7.8,7.8,0,0,1,2.85,1.52,7,7,0,0,1,1.84,2.41,6.53,6.53,0,0,1,.64,2.76,6.7,6.7,0,0,1-.18,1.55,6.46,6.46,0,0,1-.51,1.42,6.2,6.2,0,0,1-.72,1.14c-.25.32-.57.67-.93,1.05.69-.1,1.2-.18,1.53-.26S30.76,31,31.32,30.86ZM21.78,22.5a4.68,4.68,0,0,0-2.42.64,4.18,4.18,0,0,0-1.69,1.77,5.12,5.12,0,0,0-.58,2.33,4.47,4.47,0,0,0,.56,2.27A3.92,3.92,0,0,0,19.23,31a4.75,4.75,0,0,0,4.51-.06,3.88,3.88,0,0,0,1.63-1.7,5.31,5.31,0,0,0,.56-2.41,4.9,4.9,0,0,0-.49-2.2A3.65,3.65,0,0,0,24,23.06,4.35,4.35,0,0,0,21.78,22.5Z"/><path class="cls-2" d="M45.42,34.72l-2.14,0-2.12,0V33.18a7.16,7.16,0,0,1-.69.76,4.51,4.51,0,0,1-.61.44,3.85,3.85,0,0,1-.74.33,5.43,5.43,0,0,1-.94.22,7.88,7.88,0,0,1-1.09.08,6.55,6.55,0,0,1-1.68-.21A3.65,3.65,0,0,1,34,34.1,2.62,2.62,0,0,1,33.19,33,4.64,4.64,0,0,1,33,31.51a6.14,6.14,0,0,1,0-.62l.18-2.55c.05-.94.1-2,.14-3.11,0-.7.05-1.36.05-2l2.37,0,2.17,0-.34,4.28c-.06.65-.08,1.09-.09,1.33v.48A2.11,2.11,0,0,0,38,30.93a1.7,1.7,0,0,0,1.15.42,2,2,0,0,0,.54-.08,2.17,2.17,0,0,0,.52-.23,2,2,0,0,0,.39-.33,2.46,2.46,0,0,0,.34-.52,3.42,3.42,0,0,0,.27-.8,13.44,13.44,0,0,0,.19-1.5c0-.44.07-1.21.12-2.29l.09-2.35,2.38,0,2.09,0c-.17,1.9-.3,3.71-.4,5.42S45.47,32.4,45.42,34.72Z"/><path class="cls-2" d="M49,26.52c.14-.74.23-1.25.27-1.54s.1-.72.18-1.31A26.12,26.12,0,0,1,55,23a9.16,9.16,0,0,1,2.42.3,3.4,3.4,0,0,1,1.72,1,2.63,2.63,0,0,1,.62,1.89c0,.42-.06,1.37-.17,2.83s-.19,3.4-.25,5.78l-2.2,0-2.24,0c.1-.83.21-2.53.34-5.1l-.67.29c-.16.06-.44.15-.85.27l-.94.3a2.14,2.14,0,0,0-.6.32,1.31,1.31,0,0,0-.36.39.93.93,0,0,0-.1.45.85.85,0,0,0,.3.65,1.44,1.44,0,0,0,1,.27,3,3,0,0,0,.5,0,4.77,4.77,0,0,0,.75-.2c-.22.58-.48,1.42-.78,2.53a10.79,10.79,0,0,1-1.83.16,6,6,0,0,1-2.32-.39,3,3,0,0,1-1.43-1.25,3.49,3.49,0,0,1-.5-1.73,3,3,0,0,1,.19-1,3.37,3.37,0,0,1,.58-1,4,4,0,0,1,.92-.83,6.18,6.18,0,0,1,1.44-.64,17.32,17.32,0,0,1,2.32-.58c.39-.07.74-.15,1.07-.24a4.57,4.57,0,0,0,.7-.22,1.07,1.07,0,0,0,.33-.23.71.71,0,0,0,.24-.56.72.72,0,0,0-.35-.66,2,2,0,0,0-1.06-.23A13.74,13.74,0,0,0,49,26.52Z"/><path class="cls-2" d="M74.53,34.72l-2,0-2.18,0,.06-1.43c-.29.28-.54.51-.76.69a4.05,4.05,0,0,1-.84.51,4.93,4.93,0,0,1-1.1.38,5.43,5.43,0,0,1-1.22.14,5,5,0,0,1-2-.4,4.43,4.43,0,0,1-1.6-1.11,4.82,4.82,0,0,1-1-1.72,6.48,6.48,0,0,1-.32-2.06,7.71,7.71,0,0,1,.59-3,6.06,6.06,0,0,1,1.56-2.28,5.66,5.66,0,0,1,2.17-1.17A9.42,9.42,0,0,1,68.5,23a15.36,15.36,0,0,1,2.18.17c.06-.89.1-2.14.12-3.74l2.26,0,2.28,0q-.32,3.33-.57,8.14T74.53,34.72Zm-4-8.67a5.2,5.2,0,0,0-1.13-.14,3.82,3.82,0,0,0-1.86.42,2.72,2.72,0,0,0-1.17,1.32A4.06,4.06,0,0,0,66,29.4a2.79,2.79,0,0,0,.23,1.18,1.77,1.77,0,0,0,.71.82,1.94,1.94,0,0,0,1.06.31,2,2,0,0,0,1.13-.35,2.44,2.44,0,0,0,.83-1,5.19,5.19,0,0,0,.44-1.6C70.44,28.12,70.5,27.22,70.53,26.05Z"/><path class="cls-2" d="M86.62,31.13q-.06.45-.27,1.65l-.29,1.8a14.42,14.42,0,0,1-3.45.43,8.06,8.06,0,0,1-2.14-.25,4.94,4.94,0,0,1-2-1,4.51,4.51,0,0,1-1.29-1.81,7.47,7.47,0,0,1-.48-2.74,7.6,7.6,0,0,1,.47-2.68,5.14,5.14,0,0,1,1.39-2.13,4.79,4.79,0,0,1,2.05-1.13A10,10,0,0,1,83.13,23c.53,0,1.06,0,1.6.08a16.6,16.6,0,0,1,2,.37l0,.26c0,.26,0,.54,0,.82s0,.72.07,1.33l.07,1a8.88,8.88,0,0,0-2.85-.56,3.31,3.31,0,0,0-1.55.34,2.16,2.16,0,0,0-1,1,3.38,3.38,0,0,0-.32,1.5,3.28,3.28,0,0,0,.29,1.45,1.8,1.8,0,0,0,.91.87,3.17,3.17,0,0,0,1.38.3,6.6,6.6,0,0,0,.91-.08,7.71,7.71,0,0,0,.91-.18A8.31,8.31,0,0,0,86.62,31.13Z"/><path class="cls-2" d="M95.37,23a8.59,8.59,0,0,1,2.68.42,6.21,6.21,0,0,1,2.17,1.23,5,5,0,0,1,1.31,1.88A6.24,6.24,0,0,1,102,28.8a6.9,6.9,0,0,1-.38,2.28A5.6,5.6,0,0,1,98,34.54a9.13,9.13,0,0,1-2.93.47,8.92,8.92,0,0,1-2.74-.42,5.78,5.78,0,0,1-2.2-1.21,5,5,0,0,1-1.32-1.91,6.17,6.17,0,0,1-.45-2.34,6.55,6.55,0,0,1,.43-2.33,5.55,5.55,0,0,1,1.37-2,6.43,6.43,0,0,1,2.32-1.37A9,9,0,0,1,95.37,23Zm-.08,3.3a2.24,2.24,0,0,0-1.28.37,2.32,2.32,0,0,0-.85,1.08,4.2,4.2,0,0,0-.28,1.56,2.67,2.67,0,0,0,.61,1.89,2,2,0,0,0,1.55.66,2.21,2.21,0,0,0,2.12-1.49,4.35,4.35,0,0,0,.29-1.58,3.31,3.31,0,0,0-.23-1.25,1.85,1.85,0,0,0-.73-.9A2.09,2.09,0,0,0,95.29,26.26Z"/><path class="cls-2" d="M103.28,40c.14-1.53.26-3.06.35-4.59.18-2.61.29-4.81.36-6.58s.09-3.52.09-5.26c1.52-.23,2.71-.39,3.57-.46s1.73-.12,2.59-.12a12.5,12.5,0,0,1,3,.33,4.49,4.49,0,0,1,2.19,1.2,5.45,5.45,0,0,1,1.24,2,7.28,7.28,0,0,1,.42,2.47,7.92,7.92,0,0,1-.34,2.28,6.23,6.23,0,0,1-1,2,4.48,4.48,0,0,1-1.6,1.31,4.6,4.6,0,0,1-2,.43,6.65,6.65,0,0,1-1.14-.11,5.68,5.68,0,0,1-1.11-.31,5.24,5.24,0,0,1-.88-.41,10.05,10.05,0,0,1-.88-.6l-.13,3.13c-.05,1.44-.08,2.53-.08,3.26l-2.24,0Zm5.17-13.56c-.06.33-.1.61-.12.82s0,.5-.07.87,0,.65,0,.87a3.72,3.72,0,0,0,.28,1.54,2.27,2.27,0,0,0,.8,1,2,2,0,0,0,1.1.34,1.92,1.92,0,0,0,1.13-.36,2.31,2.31,0,0,0,.82-1.06,4,4,0,0,0,.3-1.59,2.84,2.84,0,0,0-.63-1.93,2.3,2.3,0,0,0-1.85-.73A6.49,6.49,0,0,0,108.45,26.41Z"/><path class="cls-2" d="M127.07,31.41c-.13.63-.25,1.25-.34,1.85l-.25,1.37a16.46,16.46,0,0,1-1.74.31,10,10,0,0,1-1.2.07,7.82,7.82,0,0,1-1.7-.17,2.66,2.66,0,0,1-1.24-.59,2.3,2.3,0,0,1-.67-1,3.94,3.94,0,0,1-.18-1.19c0-.08,0-.21,0-.4s0-.62.08-1.28l.25-3.88h-1.75c0-.52.07-1.2.1-2.05l0-1h1.86c0-.35.1-1.1.17-2.26l1.92-.39c.35-.07,1.1-.24,2.25-.52,0,1-.09,2-.11,3.17h2.56q-.09,2.34-.09,3.09h-2.59l-.13,2.8c0,.42,0,.69,0,.81a3.25,3.25,0,0,0,.11.9.88.88,0,0,0,.42.52,1.45,1.45,0,0,0,.66.15l.56,0A9.85,9.85,0,0,0,127.07,31.41Z"/><path class="cls-2" d="M139.63,31.32c-.1.45-.29,1.54-.56,3.26a21.45,21.45,0,0,1-2.19.34,17.78,17.78,0,0,1-1.8.09,14.46,14.46,0,0,1-2.46-.19,5.76,5.76,0,0,1-1.94-.65,4.75,4.75,0,0,1-2.2-2.84,7,7,0,0,1-.28-2,7.28,7.28,0,0,1,.57-2.81,5.59,5.59,0,0,1,1.48-2.15,5.41,5.41,0,0,1,2.08-1.1,9.33,9.33,0,0,1,2.41-.32,9.79,9.79,0,0,1,2.45.3,4.49,4.49,0,0,1,2,1A4.33,4.33,0,0,1,140.31,26a5.73,5.73,0,0,1,.34,2,8.5,8.5,0,0,1-.14,1.42l-7.88,0c0,.11,0,.22,0,.32a2,2,0,0,0,.87,1.78,3.74,3.74,0,0,0,2.11.57,9.28,9.28,0,0,0,1.69-.18A21,21,0,0,0,139.63,31.32Zm-6.91-3.62h3.71c0-.13,0-.24,0-.33a2.2,2.2,0,0,0-.21-1,1.34,1.34,0,0,0-.59-.61,2.06,2.06,0,0,0-.87-.19,2.08,2.08,0,0,0-.66.11,1.85,1.85,0,0,0-.56.32,1.71,1.71,0,0,0-.42.47,1.94,1.94,0,0,0-.25.53A5.4,5.4,0,0,0,132.72,27.7Z"/><path class="cls-2" d="M142.11,34.72l.35-5,.11-2.86c0-.52,0-1.05,0-1.59s0-1.22,0-2l2.16,0,2.14,0-.05,1.27c.3-.33.54-.58.72-.74a4.49,4.49,0,0,1,.64-.44,3.5,3.5,0,0,1,.76-.29,3.62,3.62,0,0,1,.82-.09,4.4,4.4,0,0,1,.9.11c0,.82,0,1.49,0,2l.08,1.73a4.14,4.14,0,0,0-1.15-.18,3.18,3.18,0,0,0-1.17.2,2.5,2.5,0,0,0-.86.59,3,3,0,0,0-.6,1,7.48,7.48,0,0,0-.32,1.88c-.05.86-.08,1.85-.08,3,0,.39,0,.87,0,1.45l-2.19,0Z"/><path class="cls-2" d="M157.93,34.72q.66-9,.65-13.88V19.39l2.63,0,2.42,0c-.14,1.68-.25,3.28-.33,4.78-.11,2.1-.18,4.06-.23,5.88s-.06,3.38-.06,4.67l-2.3,0Z"/><path class="cls-2" d="M165.5,34.72c.22-1.7.38-3.58.5-5.64s.18-4,.21-5.83l2.32,0,2.18,0-.11,1.53a8.37,8.37,0,0,1,.64-.66,4.12,4.12,0,0,1,.67-.47,5,5,0,0,1,.85-.38,6.71,6.71,0,0,1,1-.23,8.09,8.09,0,0,1,1.12-.08,7.57,7.57,0,0,1,1.58.17,4.07,4.07,0,0,1,1.28.5,2.87,2.87,0,0,1,.87.79,2.72,2.72,0,0,1,.46,1,6.12,6.12,0,0,1,.11,1.14c0,.28,0,.89-.09,1.84l-.19,4.06c0,.8-.06,1.54-.06,2.23l-2.12,0c-.89,0-1.7,0-2.44,0,.07-.69.14-1.7.22-3s.11-2.29.11-2.84a2.52,2.52,0,0,0-.49-1.77,1.64,1.64,0,0,0-1.23-.5,2.09,2.09,0,0,0-1.23.43,2.78,2.78,0,0,0-.89,1.24,10.2,10.2,0,0,0-.45,2.68c-.08,1.24-.14,2.51-.17,3.8l-2.19,0Z"/><path class="cls-2" d="M189.6,31.41c-.13.63-.25,1.25-.34,1.85L189,34.63a16.46,16.46,0,0,1-1.74.31,9.89,9.89,0,0,1-1.2.07,7.88,7.88,0,0,1-1.7-.17,2.58,2.58,0,0,1-1.23-.59,2.24,2.24,0,0,1-.68-1,3.94,3.94,0,0,1-.18-1.19c0-.08,0-.21,0-.4s0-.62.08-1.28l.25-3.88h-1.75c0-.52.07-1.2.1-2.05l0-1h1.86c0-.35.1-1.1.17-2.26l1.92-.39c.35-.07,1.1-.24,2.25-.52,0,1-.09,2-.11,3.17h2.56q-.09,2.34-.09,3.09H187l-.14,2.8c0,.42,0,.69,0,.81a2.88,2.88,0,0,0,.12.9.83.83,0,0,0,.41.52,1.45,1.45,0,0,0,.66.15l.56,0A9.27,9.27,0,0,0,189.6,31.41Z"/><path class="cls-2" d="M202.16,31.32c-.1.45-.28,1.54-.56,3.26a21.45,21.45,0,0,1-2.19.34,17.78,17.78,0,0,1-1.8.09,14.46,14.46,0,0,1-2.46-.19,5.76,5.76,0,0,1-1.94-.65A4.85,4.85,0,0,1,191.85,33a5,5,0,0,1-.84-1.66,7,7,0,0,1-.28-2,7.28,7.28,0,0,1,.57-2.81,5.59,5.59,0,0,1,1.48-2.15,5.41,5.41,0,0,1,2.08-1.1,9.33,9.33,0,0,1,2.41-.32,9.79,9.79,0,0,1,2.45.3,4.49,4.49,0,0,1,2,1A4.33,4.33,0,0,1,202.84,26a5.73,5.73,0,0,1,.34,2A8.5,8.5,0,0,1,203,29.4l-7.88,0c0,.11,0,.22,0,.32a2,2,0,0,0,.87,1.78,3.74,3.74,0,0,0,2.11.57,9.19,9.19,0,0,0,1.69-.18A21,21,0,0,0,202.16,31.32Zm-6.91-3.62H199c0-.13,0-.24,0-.33a2.2,2.2,0,0,0-.21-1,1.3,1.3,0,0,0-.59-.61,2.06,2.06,0,0,0-.87-.19,2,2,0,0,0-.65.11,1.78,1.78,0,0,0-.57.32,1.71,1.71,0,0,0-.42.47,2.29,2.29,0,0,0-.25.53C195.36,27.16,195.31,27.4,195.25,27.7Z"/><path class="cls-2" d="M205.55,36.11a17.75,17.75,0,0,0,2.55.69A11.28,11.28,0,0,0,210,37a4.44,4.44,0,0,0,1.08-.13,3,3,0,0,0,.77-.32,1.67,1.67,0,0,0,.5-.49,2.08,2.08,0,0,0,.32-.65,3.71,3.71,0,0,0,.16-.83c0-.31.06-.75.08-1.3-.29.26-.54.47-.76.63a4.72,4.72,0,0,1-.79.45,4.61,4.61,0,0,1-1,.34,5.52,5.52,0,0,1-1.17.12,5,5,0,0,1-2.57-.67,4.08,4.08,0,0,1-1.71-1.85,6,6,0,0,1-.56-2.57,7,7,0,0,1,.6-2.94,6.22,6.22,0,0,1,1.74-2.23,6.57,6.57,0,0,1,2.47-1.25,11.92,11.92,0,0,1,3.06-.35c.65,0,1.38,0,2.21.12s2,.24,3.41.51l-.27,3.7-.23,4.07c0,.29,0,.53,0,.72l-.09,3.65a7,7,0,0,1-.17,1.32,3.41,3.41,0,0,1-.42,1.07,3.3,3.3,0,0,1-.71.86,3.71,3.71,0,0,1-1.06.64,7.31,7.31,0,0,1-1.4.41,10.94,10.94,0,0,1-1.83.15c-.36,0-.8,0-1.33,0s-1.06-.08-1.61-.15-1-.14-1.43-.21-.9-.18-1.52-.33L205.66,38C205.66,37.68,205.62,37.06,205.55,36.11Zm7.71-9.72a6.64,6.64,0,0,0-1.25-.13,3.66,3.66,0,0,0-1.74.39,2.66,2.66,0,0,0-1.14,1.16,3.39,3.39,0,0,0-.4,1.6,3,3,0,0,0,.21,1.13,1.74,1.74,0,0,0,.71.81,2,2,0,0,0,1,.3,2,2,0,0,0,1.43-.59,3.08,3.08,0,0,0,.87-1.59A17.18,17.18,0,0,0,213.26,26.39Z"/><path class="cls-2" d="M219.8,34.72l.35-5,.11-2.86c0-.52,0-1.05,0-1.59s0-1.22,0-2l2.16,0,2.14,0,0,1.27a7.44,7.44,0,0,1,.72-.74,4,4,0,0,1,.64-.44,3.42,3.42,0,0,1,.75-.29,3.68,3.68,0,0,1,.82-.09,4.4,4.4,0,0,1,.9.11c0,.82,0,1.49,0,2l.08,1.73a4.09,4.09,0,0,0-1.15-.18,3.09,3.09,0,0,0-1.16.2,2.44,2.44,0,0,0-.87.59,3,3,0,0,0-.6,1,7.13,7.13,0,0,0-.31,1.88c-.06.86-.09,1.85-.09,3,0,.39,0,.87,0,1.45q-1.08,0-2.19,0Z"/><path class="cls-2" d="M230.75,26.52c.15-.74.24-1.25.27-1.54s.1-.72.18-1.31a26.12,26.12,0,0,1,5.56-.71,9.24,9.24,0,0,1,2.43.3,3.44,3.44,0,0,1,1.72,1,2.67,2.67,0,0,1,.61,1.89c0,.42-.05,1.37-.16,2.83s-.2,3.4-.26,5.78l-2.19,0-2.25,0c.1-.83.22-2.53.34-5.1l-.67.29-.84.27-1,.3a2.08,2.08,0,0,0-.59.32,1.09,1.09,0,0,0-.36.39.94.94,0,0,0-.11.45.83.83,0,0,0,.31.65,1.41,1.41,0,0,0,1,.27,3.08,3.08,0,0,0,.51,0,4.71,4.71,0,0,0,.74-.2c-.22.58-.48,1.42-.78,2.53a10.79,10.79,0,0,1-1.83.16,6,6,0,0,1-2.32-.39,2.93,2.93,0,0,1-1.42-1.25,3.39,3.39,0,0,1-.5-1.73,3,3,0,0,1,.18-1,3.61,3.61,0,0,1,.58-1,4,4,0,0,1,.92-.83,6.18,6.18,0,0,1,1.44-.64,17.72,17.72,0,0,1,2.32-.58c.39-.07.75-.15,1.07-.24a4.57,4.57,0,0,0,.7-.22,1.26,1.26,0,0,0,.34-.23.8.8,0,0,0,.18-.27.72.72,0,0,0,.06-.29.73.73,0,0,0-.36-.66,2,2,0,0,0-1.06-.23A13.83,13.83,0,0,0,230.75,26.52Z"/><path class="cls-2" d="M242.6,30.31c.09-1.09.15-2.13.17-3.12,1.06,0,2.07,0,3,0s2,0,3,0c-.09,1-.15,2-.17,3.12l-3,0Z"/><path class="cls-2" d="M20.91,59c-.13.63-.25,1.25-.35,1.85l-.24,1.37a16.46,16.46,0,0,1-1.74.31,10,10,0,0,1-1.21.07,7.79,7.79,0,0,1-1.69-.17,2.61,2.61,0,0,1-1.24-.59,2.22,2.22,0,0,1-.67-1,3.94,3.94,0,0,1-.18-1.19c0-.08,0-.21,0-.4s0-.62.08-1.28l.24-3.88H12.17c0-.52.08-1.2.1-2l0-1h1.86c0-.35.1-1.1.17-2.26l1.92-.39c.35-.07,1.1-.24,2.25-.52-.05,1-.09,2-.11,3.17H21c-.06,1.56-.09,2.58-.09,3.09H18.28l-.13,2.8c0,.42,0,.69,0,.81a2.91,2.91,0,0,0,.11.9.88.88,0,0,0,.42.52,1.45,1.45,0,0,0,.66.15l.56,0A9.85,9.85,0,0,0,20.91,59Z"/><path class="cls-2" d="M22.28,62.32c.11-.92.18-1.67.24-2.26s.1-1.35.15-2.27.09-1.94.13-3,.06-2.42.08-3.89l2.34,0,2.29,0c-.12,1.41-.22,2.66-.27,3.73s-.1,2.2-.11,3.4c0,2.13-.05,3.57-.05,4.34l-2.3,0ZM23,49.41c0-.89.07-1.59.07-2.11,0-.15,0-.35,0-.61l2.28,0q1.26,0,2.22,0c0,.24,0,.43-.05.59l-.06,1.39c0,.21,0,.46,0,.74l-2.13,0Z"/><path class="cls-2" d="M36.21,50.56a8.52,8.52,0,0,1,2.67.42,6.17,6.17,0,0,1,2.18,1.23,5,5,0,0,1,1.31,1.88,6.24,6.24,0,0,1,.42,2.31,6.9,6.9,0,0,1-.38,2.28,5.67,5.67,0,0,1-3.56,3.46,9.13,9.13,0,0,1-2.93.47,9,9,0,0,1-2.75-.42A5.81,5.81,0,0,1,31,61a5.11,5.11,0,0,1-1.33-1.91,6.48,6.48,0,0,1,0-4.67,5.55,5.55,0,0,1,1.37-2A6.43,6.43,0,0,1,33.33,51,9,9,0,0,1,36.21,50.56Zm-.08,3.3A2.21,2.21,0,0,0,34,55.31a4.2,4.2,0,0,0-.29,1.56,2.67,2.67,0,0,0,.62,1.89,2,2,0,0,0,1.55.66A2.23,2.23,0,0,0,37.15,59,2.31,2.31,0,0,0,38,57.93a4.34,4.34,0,0,0,.28-1.58,3.4,3.4,0,0,0-.22-1.26,1.84,1.84,0,0,0-.74-.89A2.05,2.05,0,0,0,36.13,53.86Z"/><path class="cls-2" d="M44.34,62.32c.21-1.7.38-3.58.49-5.64s.19-4,.21-5.83l2.33,0,2.18,0-.11,1.53a6.89,6.89,0,0,1,.64-.66,3.73,3.73,0,0,1,.67-.47,4,4,0,0,1,.84-.38,6.55,6.55,0,0,1,1-.23,7.83,7.83,0,0,1,1.11-.08,7.5,7.5,0,0,1,1.58.17,4.24,4.24,0,0,1,1.29.5,3,3,0,0,1,.86.79,2.58,2.58,0,0,1,.46,1A5.35,5.35,0,0,1,58,54.18c0,.29,0,.9-.09,1.85l-.19,4.06c0,.8-.06,1.54-.06,2.23l-2.12,0q-1.34,0-2.43,0c.07-.69.14-1.7.21-3s.12-2.29.12-2.84a2.57,2.57,0,0,0-.49-1.77,1.67,1.67,0,0,0-1.23-.5,2.1,2.1,0,0,0-1.24.43,2.73,2.73,0,0,0-.89,1.24,9.87,9.87,0,0,0-.44,2.68C49.05,59.76,49,61,49,62.32l-2.19,0Z"/><path class="cls-2" d="M78.4,62.32l-2.13,0-2.13,0V60.78a8.61,8.61,0,0,1-.68.76,4.61,4.61,0,0,1-.62.44,3.6,3.6,0,0,1-.74.33,5.22,5.22,0,0,1-.94.22,7.85,7.85,0,0,1-1.08.08,6.5,6.5,0,0,1-1.68-.21A3.58,3.58,0,0,1,67,61.7a2.47,2.47,0,0,1-.82-1.12A4.37,4.37,0,0,1,66,59.11c0-.13,0-.34,0-.62l.18-2.55c0-.94.1-2,.15-3.11,0-.7,0-1.36,0-2l2.37,0,2.18,0-.35,4.28c0,.65-.08,1.09-.08,1.33s0,.39,0,.48A2.07,2.07,0,0,0,71,58.53a1.67,1.67,0,0,0,1.14.42,2.08,2.08,0,0,0,1.06-.31,1.81,1.81,0,0,0,.73-.85,3.42,3.42,0,0,0,.27-.8,9.94,9.94,0,0,0,.19-1.5c0-.44.07-1.21.12-2.29l.09-2.35,2.38,0,2.1,0c-.17,1.9-.31,3.71-.4,5.42S78.46,60,78.4,62.32Z"/><path class="cls-2" d="M80.85,62.1c0-.33-.06-.67-.09-1s-.08-.86-.15-1.5l-.09-.8a19.62,19.62,0,0,0,1.87.63,5.7,5.7,0,0,0,1.45.21,3.52,3.52,0,0,0,.89-.1,1,1,0,0,0,.5-.3.61.61,0,0,0,.16-.39.59.59,0,0,0-.12-.35,2.41,2.41,0,0,0-.53-.48c-.62-.45-1.15-.86-1.62-1.22a6.93,6.93,0,0,1-1.05-1,3,3,0,0,1-.54-.92,2.75,2.75,0,0,1-.19-1,3.08,3.08,0,0,1,2.11-2.92A7.78,7.78,0,0,1,86,50.56a25.14,25.14,0,0,1,4,.4l.18,3.15a7.1,7.1,0,0,0-2.62-.54,3.3,3.3,0,0,0-1.28.18.61.61,0,0,0-.36.79.84.84,0,0,0,.16.24,2,2,0,0,0,.3.25c.11.09.4.29.84.6s.81.58,1.06.78a5.72,5.72,0,0,1,1,.91,3.08,3.08,0,0,1,.5.9,2.87,2.87,0,0,1,.18,1,2.83,2.83,0,0,1-.39,1.46,3.08,3.08,0,0,1-1.17,1.12,5.2,5.2,0,0,1-1.69.62,9.56,9.56,0,0,1-1.87.18,16.18,16.18,0,0,1-1.64-.11C82.48,62.42,81.72,62.29,80.85,62.1Z"/><path class="cls-2" d="M92,62.32c.1-.92.18-1.67.23-2.26s.11-1.35.15-2.27.1-1.94.13-3,.07-2.42.09-3.89l2.34,0,2.29,0c-.13,1.41-.22,2.66-.28,3.73s-.09,2.2-.1,3.4c0,2.13,0,3.57,0,4.34l-2.3,0Zm.71-12.91c0-.89.06-1.59.06-2.11,0-.15,0-.35,0-.61l2.28,0c.85,0,1.59,0,2.23,0,0,.24,0,.43,0,.59l-.07,1.39c0,.21,0,.46,0,.74l-2.13,0Z"/><path class="cls-2" d="M99.11,62.32q.31-2.55.5-5.64c.11-2,.18-4,.2-5.83l2.33,0,2.18,0-.11,1.53a8.37,8.37,0,0,1,.64-.66,3.73,3.73,0,0,1,.67-.47,4.24,4.24,0,0,1,.84-.38,6.55,6.55,0,0,1,1-.23,7.94,7.94,0,0,1,1.11-.08,7.5,7.5,0,0,1,1.58.17,4.24,4.24,0,0,1,1.29.5,3,3,0,0,1,.86.79,2.58,2.58,0,0,1,.46,1,5.35,5.35,0,0,1,.12,1.13c0,.29,0,.9-.1,1.85l-.19,4.06c0,.8-.06,1.54-.06,2.23l-2.12,0q-1.33,0-2.43,0c.07-.69.14-1.7.21-3s.12-2.29.12-2.84a2.57,2.57,0,0,0-.49-1.77,1.67,1.67,0,0,0-1.23-.5,2,2,0,0,0-1.23.43,2.67,2.67,0,0,0-.9,1.24,10.29,10.29,0,0,0-.44,2.68c-.09,1.24-.15,2.51-.18,3.8l-2.18,0Z"/><path class="cls-2" d="M115.75,63.71a17.75,17.75,0,0,0,2.55.69,11.26,11.26,0,0,0,1.92.19,4.46,4.46,0,0,0,1.08-.12,3.22,3.22,0,0,0,.78-.32,1.94,1.94,0,0,0,.5-.49,2.62,2.62,0,0,0,.32-.65,4.42,4.42,0,0,0,.15-.83c0-.31.06-.75.08-1.3-.29.26-.54.47-.76.63a4.35,4.35,0,0,1-.79.45,4.61,4.61,0,0,1-1,.34,5.52,5.52,0,0,1-1.17.12,5,5,0,0,1-2.57-.67,4.19,4.19,0,0,1-1.71-1.85,6,6,0,0,1-.56-2.57,6.81,6.81,0,0,1,.61-2.94,6.09,6.09,0,0,1,1.73-2.23,6.57,6.57,0,0,1,2.47-1.25,11.92,11.92,0,0,1,3.06-.35c.65,0,1.39,0,2.21.11s2,.25,3.41.52l-.27,3.7L127.53,59c0,.29,0,.53,0,.72l-.09,3.65a7,7,0,0,1-.17,1.32,3.65,3.65,0,0,1-.41,1.07,3.54,3.54,0,0,1-.72.86,3.71,3.71,0,0,1-1.06.64,7.1,7.1,0,0,1-1.4.41,10.94,10.94,0,0,1-1.83.15c-.36,0-.8,0-1.33,0s-1.06-.08-1.61-.15-1-.14-1.43-.21-.9-.18-1.52-.33l-.07-1.48C115.86,65.28,115.82,64.66,115.75,63.71ZM123.46,54a6.64,6.64,0,0,0-1.25-.13,3.66,3.66,0,0,0-1.74.39,2.66,2.66,0,0,0-1.14,1.16,3.51,3.51,0,0,0-.4,1.6,3,3,0,0,0,.21,1.13,1.74,1.74,0,0,0,.71.81,2,2,0,0,0,1,.3,2.06,2.06,0,0,0,1.44-.59,3.14,3.14,0,0,0,.86-1.59A17.18,17.18,0,0,0,123.46,54Z"/><path class="cls-2" d="M136,62.32c.15-1.65.26-3,.31-3.89.07-1.29.15-3,.22-5.3s.11-3.83.11-4.75c0-.33,0-.79,0-1.39l2.37,0c.82,0,1.77,0,2.86-.05s2,0,2.79,0a15.73,15.73,0,0,1,2,.08,4.57,4.57,0,0,1,1.38.36,2.86,2.86,0,0,1,1.66,1.72,4.08,4.08,0,0,1,.29,1.53,4.51,4.51,0,0,1-.17,1.23,3.78,3.78,0,0,1-.46,1,3.48,3.48,0,0,1-.66.75,3.65,3.65,0,0,1-.73.48,6.35,6.35,0,0,1-1,.33,6.83,6.83,0,0,1,1,.23,3.44,3.44,0,0,1,.76.42,3,3,0,0,1,.74.73,3.27,3.27,0,0,1,.49,1,4.08,4.08,0,0,1,.16,1.17,4.51,4.51,0,0,1-.28,1.61A4,4,0,0,1,149,60.9a3.67,3.67,0,0,1-1.12.79,5.86,5.86,0,0,1-1.4.45,20.93,20.93,0,0,1-2.13.13c-1,0-2.12,0-3.27,0l-3,0Zm4.74-3.08h2.16a6.2,6.2,0,0,0,1.26-.1,2,2,0,0,0,.75-.33,1.37,1.37,0,0,0,.41-.55,1.92,1.92,0,0,0,.15-.77,1.6,1.6,0,0,0-.12-.65,1.24,1.24,0,0,0-.37-.48,1.62,1.62,0,0,0-.61-.27A5,5,0,0,0,143.2,56h-2.37ZM141,53h1.6a9.68,9.68,0,0,0,1.11,0,3.58,3.58,0,0,0,.65-.14,1.37,1.37,0,0,0,.55-.34,1.29,1.29,0,0,0,.32-.52,1.74,1.74,0,0,0,.1-.59,1.41,1.41,0,0,0-.2-.74,1.12,1.12,0,0,0-.63-.48,4.12,4.12,0,0,0-1.34-.16h-2Z"/><path class="cls-2" d="M165.49,58.58c-.09.44-.2,1.05-.32,1.84s-.22,1.4-.26,1.83a29.24,29.24,0,0,1-4.29.36,11.92,11.92,0,0,1-3.39-.46,8.29,8.29,0,0,1-2.87-1.49,5.9,5.9,0,0,1-1.87-2.44,8.34,8.34,0,0,1-.56-3.15,8.6,8.6,0,0,1,.75-3.65,7.22,7.22,0,0,1,2.18-2.71A9.13,9.13,0,0,1,158,47.16a13.19,13.19,0,0,1,3.5-.47,25.16,25.16,0,0,1,4.11.43l0,.94c0,.42,0,.87.06,1.36l.08,1.28a20.55,20.55,0,0,0-2.13-.42,10.31,10.31,0,0,0-1.51-.12,6.09,6.09,0,0,0-2.73.61,4.54,4.54,0,0,0-1.9,1.76,4.83,4.83,0,0,0-.7,2.56A3.84,3.84,0,0,0,159,58.71a5.46,5.46,0,0,0,2.45.49,13.76,13.76,0,0,0,1.74-.12A23.75,23.75,0,0,0,165.49,58.58Z"/><path class="cls-2" d="M167.68,62.32c.43-6,.65-10.64.65-13.89V47L171,47l2.42,0c-.14,1.68-.25,3.27-.33,4.78-.11,2.1-.18,4.06-.23,5.88s-.06,3.38-.06,4.67l-2.31,0Z"/><path class="cls-2" d="M192.34,54.17c.77,0,1.43,0,2,0s1.2,0,1.9,0c0,.44,0,.82,0,1.14a9.62,9.62,0,0,1-.17,1.06,8.18,8.18,0,0,1-.32,1.13,8,8,0,0,1-.37.92c-.12.26-.28.57-.49.93.48.6.94,1.14,1.37,1.62s.81.93,1.14,1.35l-2.56,0c-.86,0-1.67,0-2.45,0l-.88-1.12c-.37.24-.68.43-.94.58a6.42,6.42,0,0,1-1,.41,6.6,6.6,0,0,1-1.22.31,8.42,8.42,0,0,1-1.33.11,8.22,8.22,0,0,1-3.15-.58,4.39,4.39,0,0,1-2.15-1.76,4.82,4.82,0,0,1-.72-2.54,4.54,4.54,0,0,1,.89-2.74A8.25,8.25,0,0,1,185,52.67a6.32,6.32,0,0,1-.59-1.28,3.48,3.48,0,0,1-.16-1,3.22,3.22,0,0,1,.39-1.53,3.47,3.47,0,0,1,1.15-1.27,4.14,4.14,0,0,1,1.55-.7,8.24,8.24,0,0,1,1.82-.18,18.08,18.08,0,0,1,3.76.43l.07,3v.47a8.34,8.34,0,0,0-1.31-.44,4.35,4.35,0,0,0-1-.12,2.91,2.91,0,0,0-1,.15,1.23,1.23,0,0,0-.63.47,1.13,1.13,0,0,0-.21.64,1.64,1.64,0,0,0,.06.42,3.62,3.62,0,0,0,.26.61,7.62,7.62,0,0,0,.58,1c.26.37.48.66.65.88l.79.91.89,1c.05-.18.08-.32.1-.43s0-.31.06-.58S192.34,54.53,192.34,54.17Zm-3,4.42c-.28-.36-.65-.8-1.09-1.31s-.9-1.06-1.38-1.66l-.58.38a3.93,3.93,0,0,0-.38.31,1.82,1.82,0,0,0-.3.4,1.62,1.62,0,0,0-.21.47,1.51,1.51,0,0,0-.07.48,1.55,1.55,0,0,0,.28.91,1.7,1.7,0,0,0,.75.62,2.59,2.59,0,0,0,1,.21,2.47,2.47,0,0,0,.75-.11,2.21,2.21,0,0,0,.58-.25A5.78,5.78,0,0,0,189.38,58.59Z"/><path class="cls-2" d="M204.63,62.32c.19-1.94.33-3.55.41-4.86s.17-3,.26-5.19.13-3.59.13-4.3V47l6.41,0L218,47l0,.37c0,.08,0,.41-.06,1l-.07,1.22c0,.26,0,.53,0,.79-1.44-.06-2.66-.09-3.64-.09H212c-.38,0-1,0-1.77.05l-.14,2.58c.89,0,1.92,0,3.09,0,.42,0,1.54,0,3.35-.08-.07,1-.15,2.1-.21,3.42l-3,0c-1,0-2.19,0-3.47.08l-.13,2.73H211l2.37,0,2.32-.05,1.73-.09c-.09,1.11-.17,2.25-.23,3.44-1.82,0-3.83,0-6,0h-4.94Z"/><path class="cls-2" d="M223.22,62.32q.56-5.46.67-12l-4.78.12,0-1.24c0-.67.05-1.4.07-2.19l7.43,0h6.93l-.07,1.1c0,.59-.05,1.07-.06,1.46s0,.68,0,.87q-2.4-.12-4-.12h-.78c-.12,1.32-.2,2.54-.26,3.66-.09,1.61-.15,3.17-.19,4.68s-.07,2.74-.07,3.68l-2.38,0Z"/><path class="cls-2" d="M14.42,95.18l1.25-2.35,3.17-6.2.37-.78H20.8L22,89.2l2.19,6H22.79c-.12-.43-.33-1.07-.61-1.9s-.53-1.5-.72-2H17.72l-1,2-.87,1.87H14.42Zm3.71-4.82H21.2l-1.27-3.61Z"/><path class="cls-2" d="M28.74,95.18c.16-2.63.24-4.72.24-6.29v-.63h1.15l-.05,1.13a4.87,4.87,0,0,1,.44-.64A1.83,1.83,0,0,1,31,88.4a2.33,2.33,0,0,1,.56-.22,2.75,2.75,0,0,1,.65-.08,2.22,2.22,0,0,1,.57.07c0,.3,0,.64,0,1a3.17,3.17,0,0,0-.76-.11,1.85,1.85,0,0,0-.72.13,1.73,1.73,0,0,0-.58.4,2.27,2.27,0,0,0-.42.65,3.1,3.1,0,0,0-.21.78c0,.32-.08.9-.11,1.74,0,.62,0,1.27,0,2v.45H28.74Z"/><path class="cls-2" d="M39.32,94.1c-.06.25-.11.57-.17,1a9.45,9.45,0,0,1-1.13.23,7.72,7.72,0,0,1-1,0,5.23,5.23,0,0,1-1.54-.2,2.65,2.65,0,0,1-1.16-.72,2.83,2.83,0,0,1-.7-1.16A4.75,4.75,0,0,1,33.84,90,3.07,3.07,0,0,1,35,88.6a3.63,3.63,0,0,1,2-.5,3.85,3.85,0,0,1,1.19.18,2.41,2.41,0,0,1,1,.55,2.54,2.54,0,0,1,.58.92,3.44,3.44,0,0,1,.2,1.18,2.45,2.45,0,0,1,0,.48H34.66q0,.38,0,.57a3,3,0,0,0,.3,1.33,2,2,0,0,0,.89.91,2.8,2.8,0,0,0,1.35.31A6.78,6.78,0,0,0,39.32,94.1Zm-4.61-3.26h4.08a4.85,4.85,0,0,0-.06-.67,1.72,1.72,0,0,0-.18-.49,1.37,1.37,0,0,0-.35-.45,1.49,1.49,0,0,0-.53-.28,2.11,2.11,0,0,0-.68-.1,2.29,2.29,0,0,0-.74.11,2.1,2.1,0,0,0-.62.3,2,2,0,0,0-.46.45,2.26,2.26,0,0,0-.28.49A4.88,4.88,0,0,0,34.71,90.84Z"/><path class="cls-2" d="M40.94,98.27c.09-1.17.18-2.77.26-4.79s.12-3.68.13-5c.75-.16,1.35-.27,1.79-.32a10.2,10.2,0,0,1,1.35-.09,4.82,4.82,0,0,1,1.86.34,2.47,2.47,0,0,1,1.22,1.19A4.18,4.18,0,0,1,48,91.55,4.92,4.92,0,0,1,47.78,93a3.7,3.7,0,0,1-.62,1.24,2.72,2.72,0,0,1-1,.83,3.19,3.19,0,0,1-1.33.27,3.33,3.33,0,0,1-.84-.1,2.62,2.62,0,0,1-.7-.28,2,2,0,0,1-.5-.38,4.88,4.88,0,0,1-.49-.64l-.08,2.71q0,.66,0,1v.67H40.94Zm1.56-8.94,0,.52,0,.71c0,.37,0,.67,0,.91s0,.4,0,.49a4.22,4.22,0,0,0,.1,1,1.81,1.81,0,0,0,.43.82,2.13,2.13,0,0,0,2.8.41,2.35,2.35,0,0,0,.82-1.06,4.1,4.1,0,0,0,.29-1.54,3.1,3.1,0,0,0-.31-1.45,1.91,1.91,0,0,0-.82-.88A2.53,2.53,0,0,0,44.5,89,5.82,5.82,0,0,0,42.5,89.33Z"/><path class="cls-2" d="M52.77,88.1a4.41,4.41,0,0,1,1.37.21A2.8,2.8,0,0,1,56,90.08a4,4,0,0,1,.25,1.43A4.82,4.82,0,0,1,56,93.07a3.75,3.75,0,0,1-.74,1.26,2.83,2.83,0,0,1-1.16.76,4.46,4.46,0,0,1-1.48.24,4.52,4.52,0,0,1-1.38-.21,3,3,0,0,1-1.12-.69,2.92,2.92,0,0,1-.72-1.14,3.91,3.91,0,0,1-.25-1.41,4.36,4.36,0,0,1,.45-2,3,3,0,0,1,1.33-1.34A4.15,4.15,0,0,1,52.77,88.1Zm0,.87a2.49,2.49,0,0,0-1.28.35,2,2,0,0,0-.86,1.05,4,4,0,0,0-.28,1.53,3.38,3.38,0,0,0,.23,1.3,2,2,0,0,0,.76.93,2.27,2.27,0,0,0,1.29.36,2.65,2.65,0,0,0,1-.18,1.94,1.94,0,0,0,.8-.58,2.59,2.59,0,0,0,.5-1A4.51,4.51,0,0,0,55,91.52a3.77,3.77,0,0,0-.16-1.13,1.94,1.94,0,0,0-.5-.84,2,2,0,0,0-.77-.45A2.8,2.8,0,0,0,52.74,89Z"/><path class="cls-2" d="M57.55,95.18c.16-2.63.25-4.72.25-6.29v-.63h1.15l0,1.13a4.79,4.79,0,0,1,.45-.64,1.66,1.66,0,0,1,.44-.35,2.18,2.18,0,0,1,.56-.22A2.67,2.67,0,0,1,61,88.1a2.22,2.22,0,0,1,.57.07c0,.3,0,.64.05,1a3.31,3.31,0,0,0-.76-.11,1.9,1.9,0,0,0-.73.13,1.69,1.69,0,0,0-.57.4,2.27,2.27,0,0,0-.42.65,2.73,2.73,0,0,0-.21.78,15.36,15.36,0,0,0-.11,1.74c0,.62,0,1.27,0,2v.45H57.55Z"/><path class="cls-2" d="M66,94.28c0,.23-.11.52-.17.89a7.34,7.34,0,0,1-.73.14,4.79,4.79,0,0,1-.52,0,2.62,2.62,0,0,1-1-.15,1.21,1.21,0,0,1-.58-.49,1.85,1.85,0,0,1-.19-.92V93.5c0-.13,0-.57.07-1.33L63,89.11h-.91c0-.19,0-.47,0-.82h.94c0-.26,0-.69.07-1.31l1.08-.23c0,.67,0,1.19,0,1.54h1.89c0,.28,0,.56,0,.82H64.16L64,93v.29a1.83,1.83,0,0,0,.12.75.72.72,0,0,0,.33.36,1.12,1.12,0,0,0,.47.11l.37,0A6.91,6.91,0,0,0,66,94.28Z"/><path class="cls-2" d="M73.91,88.1a4.46,4.46,0,0,1,1.37.21A2.8,2.8,0,0,1,76.4,89a2.71,2.71,0,0,1,.72,1.12,4,4,0,0,1,.25,1.43,4.57,4.57,0,0,1-.27,1.56,3.73,3.73,0,0,1-.73,1.26,2.8,2.8,0,0,1-1.17.76,4.36,4.36,0,0,1-1.47.24,4.43,4.43,0,0,1-1.38-.21,2.93,2.93,0,0,1-1.12-.69,3.06,3.06,0,0,1-.73-1.14,4.14,4.14,0,0,1-.24-1.41,4.36,4.36,0,0,1,.45-2A2.93,2.93,0,0,1,72,88.54,4.12,4.12,0,0,1,73.91,88.1Zm0,.87a2.46,2.46,0,0,0-1.28.35,2.07,2.07,0,0,0-.87,1.05,4.21,4.21,0,0,0-.28,1.53,3.38,3.38,0,0,0,.24,1.3,2,2,0,0,0,.76.93,2.24,2.24,0,0,0,1.28.36,2.58,2.58,0,0,0,1-.18,1.88,1.88,0,0,0,.8-.58,2.47,2.47,0,0,0,.51-1,4.51,4.51,0,0,0,.16-1.23A3.77,3.77,0,0,0,76,90.39a1.94,1.94,0,0,0-.5-.84,2,2,0,0,0-.77-.45A2.8,2.8,0,0,0,73.88,89Z"/><path class="cls-2" d="M78.67,95.18c.21-2.85.33-5.16.34-6.92h1.21l-.09,1.37c.11-.19.2-.34.27-.44a2.46,2.46,0,0,1,.27-.33,2.78,2.78,0,0,1,.41-.32,2,2,0,0,1,.55-.24,3.6,3.6,0,0,1,.63-.15,4.87,4.87,0,0,1,.65-.05,4.35,4.35,0,0,1,1.14.15,2,2,0,0,1,.89.46,1.61,1.61,0,0,1,.48.73,3,3,0,0,1,.12.87c0,.06,0,.17,0,.34s0,.39,0,.67l-.13,2.86c0,.27,0,.61,0,1H84.13c.05-.55.08-1.08.11-1.59L84.33,92c0-.55,0-1,0-1.24a1.9,1.9,0,0,0-.21-1,1.28,1.28,0,0,0-.65-.55,2.54,2.54,0,0,0-1-.2,2.41,2.41,0,0,0-1.36.38,2.36,2.36,0,0,0-.81,1A5,5,0,0,0,80,91.77c-.07.72-.11,1.86-.14,3.41H78.67Z"/><path class="cls-2" d="M90.68,95.18l.12-1.72.13-2.94L91,88.26h1.25c-.06.71-.1,1.45-.14,2.23S92,92.12,92,93s0,1.63,0,2.14H90.68ZM91,86.77c0-.43,0-.75,0-1h1.32c0,.14,0,.46,0,1H91Z"/><path class="cls-2" d="M93.76,95.18q.33-4.28.34-6.92h1.21l-.09,1.37.27-.44a2,2,0,0,1,.28-.33,2.67,2.67,0,0,1,.4-.32,2.13,2.13,0,0,1,.55-.24,3.5,3.5,0,0,1,.64-.15A4.6,4.6,0,0,1,98,88.1a4.3,4.3,0,0,1,1.14.15,2.14,2.14,0,0,1,.9.46,1.67,1.67,0,0,1,.47.73,3,3,0,0,1,.12.87c0,.06,0,.17,0,.34s0,.39,0,.67l-.14,2.86c0,.27,0,.61,0,1H99.23c0-.55.08-1.08.1-1.59L99.42,92c0-.55,0-1,0-1.24a2,2,0,0,0-.2-1,1.35,1.35,0,0,0-.66-.55,2.53,2.53,0,0,0-1-.2,2.39,2.39,0,0,0-1.36.38,2.22,2.22,0,0,0-.81,1,4.62,4.62,0,0,0-.28,1.35c-.07.72-.12,1.86-.15,3.41H93.76Z"/><path class="cls-2" d="M105.74,94.28c0,.23-.11.52-.17.89a6.94,6.94,0,0,1-.74.14,4.61,4.61,0,0,1-.52,0,2.69,2.69,0,0,1-1-.15,1.19,1.19,0,0,1-.57-.49,1.85,1.85,0,0,1-.2-.92s0-.14,0-.27,0-.57.07-1.33l.17-3.06h-.92c0-.19,0-.47,0-.82h.93c0-.26,0-.69.07-1.31.43-.08.79-.16,1.09-.23,0,.67,0,1.19-.06,1.54h1.9c0,.28,0,.56,0,.82h-1.89L103.76,93v.29a2,2,0,0,0,.11.75.79.79,0,0,0,.34.36,1.12,1.12,0,0,0,.47.11l.37,0C105.17,94.42,105.4,94.37,105.74,94.28Z"/><path class="cls-2" d="M112.41,94.1c-.06.25-.11.57-.17,1a9.45,9.45,0,0,1-1.13.23,7.82,7.82,0,0,1-1,0,5.23,5.23,0,0,1-1.54-.2,2.65,2.65,0,0,1-1.16-.72,2.83,2.83,0,0,1-.7-1.16,4.75,4.75,0,0,1,.18-3.28,3.07,3.07,0,0,1,1.17-1.37,3.63,3.63,0,0,1,2-.5,3.85,3.85,0,0,1,1.19.18,2.41,2.41,0,0,1,1,.55,2.54,2.54,0,0,1,.58.92,3.44,3.44,0,0,1,.2,1.18,2.45,2.45,0,0,1,0,.48h-5.21q0,.38,0,.57a3,3,0,0,0,.3,1.33,2,2,0,0,0,.89.91,2.8,2.8,0,0,0,1.35.31A6.78,6.78,0,0,0,112.41,94.1Zm-4.61-3.26h4.08a4.85,4.85,0,0,0-.06-.67,1.72,1.72,0,0,0-.18-.49,1.37,1.37,0,0,0-.35-.45,1.58,1.58,0,0,0-.53-.28,2.11,2.11,0,0,0-.68-.1,2.29,2.29,0,0,0-.74.11,2.1,2.1,0,0,0-.62.3,2,2,0,0,0-.46.45,2.26,2.26,0,0,0-.28.49A4.88,4.88,0,0,0,107.8,90.84Z"/><path class="cls-2" d="M114.6,97.19a13.46,13.46,0,0,0,1.51.37,7.74,7.74,0,0,0,1.11.09,3.21,3.21,0,0,0,1-.16,2.05,2.05,0,0,0,.69-.36,1.62,1.62,0,0,0,.37-.48,3.75,3.75,0,0,0,.25-1c0-.33.07-1,.09-1.94a4.83,4.83,0,0,1-.29.5,2.13,2.13,0,0,1-.36.39,2.25,2.25,0,0,1-.53.36,2.61,2.61,0,0,1-.7.25,3.62,3.62,0,0,1-.82.09,3.66,3.66,0,0,1-1.16-.17,2.49,2.49,0,0,1-1-.56,2.56,2.56,0,0,1-.65-1,3.67,3.67,0,0,1-.22-1.28,4.74,4.74,0,0,1,.33-1.76,3.53,3.53,0,0,1,1-1.39,3.8,3.8,0,0,1,1.44-.8,6.52,6.52,0,0,1,1.76-.23,16.06,16.06,0,0,1,2.62.28l-.08.84-.2,3.84c0,.08,0,.54,0,1.39l0,1.42a4.25,4.25,0,0,1-.12.79,2.27,2.27,0,0,1-.22.53,1.62,1.62,0,0,1-.31.43,1.76,1.76,0,0,1-.41.35,2.3,2.3,0,0,1-.52.26,4.14,4.14,0,0,1-.79.19,5.84,5.84,0,0,1-.93.08,11.38,11.38,0,0,1-1.31-.07,10.18,10.18,0,0,1-1.45-.26l0-.37C114.65,97.7,114.63,97.5,114.6,97.19Zm5.26-8.07a7.48,7.48,0,0,0-1.43-.15,4.43,4.43,0,0,0-1.24.16,2.58,2.58,0,0,0-1,.57,2.92,2.92,0,0,0-.74,1.08,3.6,3.6,0,0,0-.26,1.38,3,3,0,0,0,.24,1.21,1.71,1.71,0,0,0,.75.82,2.5,2.5,0,0,0,2.13.08,2.1,2.1,0,0,0,.77-.6,2.66,2.66,0,0,0,.52-1,5.42,5.42,0,0,0,.2-1.14C119.78,91.18,119.82,90.36,119.86,89.12Z"/><path class="cls-2" d="M122.59,95.18c.17-2.63.25-4.72.25-6.29v-.63H124l-.06,1.13a4.79,4.79,0,0,1,.45-.64,1.83,1.83,0,0,1,.44-.35,2.33,2.33,0,0,1,.56-.22,2.75,2.75,0,0,1,.65-.08,2.1,2.1,0,0,1,.56.07c0,.3,0,.64,0,1a3.17,3.17,0,0,0-.76-.11,1.81,1.81,0,0,0-.72.13,1.63,1.63,0,0,0-.58.4,2.27,2.27,0,0,0-.42.65A3.1,3.1,0,0,0,124,91c0,.32-.08.9-.11,1.74,0,.62,0,1.27,0,2v.45h-1.22Z"/><path class="cls-2" d="M128,89.36c0-.2.08-.5.13-.89a11.57,11.57,0,0,1,1.42-.29,9.61,9.61,0,0,1,1.18-.08,5.27,5.27,0,0,1,1.15.12,2.19,2.19,0,0,1,.89.36,1.24,1.24,0,0,1,.48.58,2.3,2.3,0,0,1,.11.71c0,.31,0,.84-.07,1.58s-.08,1.42-.11,2,0,1.19,0,1.68h-1.22l.15-1.86.1-2.21-.36.26a1.71,1.71,0,0,1-.27.14l-.33.12-.71.2-.74.22a4.31,4.31,0,0,0-.74.3,1.88,1.88,0,0,0-.46.33,1,1,0,0,0-.26.36,1.18,1.18,0,0,0-.09.46,1,1,0,0,0,.22.64,1.12,1.12,0,0,0,.55.38,2.62,2.62,0,0,0,.79.1,4.26,4.26,0,0,0,.61,0,4.44,4.44,0,0,0,.84-.2,5.33,5.33,0,0,0-.22.81c-.34.06-.61.1-.82.12s-.4,0-.59,0a4.07,4.07,0,0,1-1.46-.21,1.59,1.59,0,0,1-.79-.67,1.93,1.93,0,0,1-.26-1,1.7,1.7,0,0,1,.09-.57,1.76,1.76,0,0,1,.25-.47,2.07,2.07,0,0,1,.45-.43,3.1,3.1,0,0,1,.61-.35c.21-.09.46-.18.74-.27l1.36-.36c.2,0,.37-.09.51-.13l.38-.15a1.15,1.15,0,0,0,.51-.38.91.91,0,0,0,.15-.27.87.87,0,0,0,0-.28.8.8,0,0,0-.22-.57,1.08,1.08,0,0,0-.57-.33,2.9,2.9,0,0,0-.83-.1,5.67,5.67,0,0,0-.91.07c-.31,0-.58.11-.81.17S128.28,89.23,128,89.36Z"/><path class="cls-2" d="M138.44,94.28c-.05.23-.1.52-.16.89a7.44,7.44,0,0,1-.74.14,4.79,4.79,0,0,1-.52,0,2.65,2.65,0,0,1-1-.15,1.14,1.14,0,0,1-.57-.49,1.75,1.75,0,0,1-.2-.92V93.5c0-.13,0-.57.07-1.33l.17-3.06h-.91c0-.19,0-.47.05-.82h.93c0-.26,0-.69.07-1.31l1.08-.23c0,.67,0,1.19,0,1.54h1.9a7.75,7.75,0,0,0,0,.82h-1.9L136.46,93v.29a1.83,1.83,0,0,0,.12.75.72.72,0,0,0,.33.36,1.13,1.13,0,0,0,.48.11l.36,0A6.35,6.35,0,0,0,138.44,94.28Z"/><path class="cls-2" d="M139.48,95.18l.12-1.72.13-2.94.06-2.26H141c-.05.71-.1,1.45-.14,2.23s-.07,1.63-.1,2.55,0,1.63,0,2.14h-1.27Zm.31-8.41c0-.43,0-.75,0-1h1.32c0,.14,0,.46,0,1h-1.3Z"/><path class="cls-2" d="M142.55,95.18q.33-4.28.35-6.92h1.21L144,89.63c.11-.19.2-.34.27-.44a2.46,2.46,0,0,1,.27-.33,2.78,2.78,0,0,1,.41-.32,1.92,1.92,0,0,1,.54-.24,3.71,3.71,0,0,1,.64-.15,4.87,4.87,0,0,1,.65-.05,4.22,4.22,0,0,1,1.13.15,2,2,0,0,1,.9.46,1.51,1.51,0,0,1,.47.73,3,3,0,0,1,.12.87v.34c0,.17,0,.39,0,.67l-.13,2.86c0,.27,0,.61,0,1H148c0-.55.08-1.08.11-1.59l.09-1.59c0-.55,0-1,0-1.24a1.9,1.9,0,0,0-.21-1,1.28,1.28,0,0,0-.65-.55,2.58,2.58,0,0,0-1-.2,2.41,2.41,0,0,0-1.36.38,2.29,2.29,0,0,0-.81,1,5,5,0,0,0-.28,1.35c-.07.72-.12,1.86-.14,3.41h-1.24Z"/><path class="cls-2" d="M151.47,97.19a13,13,0,0,0,1.51.37,7.52,7.52,0,0,0,1.11.09,3.25,3.25,0,0,0,1-.16,2.05,2.05,0,0,0,.69-.36,1.44,1.44,0,0,0,.36-.48,3.38,3.38,0,0,0,.26-1c0-.33.07-1,.09-1.94a4.68,4.68,0,0,1-.3.5,2.13,2.13,0,0,1-.36.39,2.18,2.18,0,0,1-.52.36,2.75,2.75,0,0,1-.7.25,3.68,3.68,0,0,1-.82.09,3.76,3.76,0,0,1-1.17-.17,2.57,2.57,0,0,1-1-.56,2.67,2.67,0,0,1-.65-1,3.91,3.91,0,0,1-.22-1.28,4.74,4.74,0,0,1,.33-1.76,3.7,3.7,0,0,1,2.42-2.19,6.46,6.46,0,0,1,1.76-.23,16.17,16.17,0,0,1,2.62.28l-.08.84-.21,3.84c0,.08,0,.54,0,1.39l0,1.42a4.25,4.25,0,0,1-.12.79,2.81,2.81,0,0,1-.22.53,1.88,1.88,0,0,1-.31.43,2.06,2.06,0,0,1-.42.35,2.45,2.45,0,0,1-.51.26,4.14,4.14,0,0,1-.79.19,5.84,5.84,0,0,1-.93.08,11.43,11.43,0,0,1-1.32-.07,10.06,10.06,0,0,1-1.44-.26l0-.37C151.51,97.7,151.5,97.5,151.47,97.19Zm5.25-8.07A7.38,7.38,0,0,0,155.3,89a4.55,4.55,0,0,0-1.25.16,2.55,2.55,0,0,0-1,.57,2.81,2.81,0,0,0-.74,1.08,3.61,3.61,0,0,0-.27,1.38,3,3,0,0,0,.24,1.21,1.81,1.81,0,0,0,.75.82,2.52,2.52,0,0,0,2.14.08,2.18,2.18,0,0,0,.77-.6,2.82,2.82,0,0,0,.52-1,5.53,5.53,0,0,0,.19-1.14C156.65,91.18,156.69,90.36,156.72,89.12Z"/><path class="cls-2" d="M166.47,94.28c-.05.23-.1.52-.16.89a7.44,7.44,0,0,1-.74.14,4.61,4.61,0,0,1-.52,0,2.69,2.69,0,0,1-1-.15,1.14,1.14,0,0,1-.57-.49,1.85,1.85,0,0,1-.2-.92s0-.14,0-.27,0-.57.07-1.33l.17-3.06h-.92c0-.19,0-.47.05-.82h.93c0-.26,0-.69.07-1.31.43-.08.79-.16,1.08-.23,0,.67,0,1.19,0,1.54h1.9c0,.28,0,.56,0,.82h-1.89L164.49,93v.29a2,2,0,0,0,.11.75.74.74,0,0,0,.34.36,1.12,1.12,0,0,0,.47.11l.37,0A6.91,6.91,0,0,0,166.47,94.28Z"/><path class="cls-2" d="M167.51,95.18l.17-3,.16-4,0-2.31h1.23L169,88.23l-.05,1.42a4.84,4.84,0,0,1,.28-.47,2,2,0,0,1,.31-.35,2.14,2.14,0,0,1,.39-.3,2.78,2.78,0,0,1,.46-.21,3.56,3.56,0,0,1,.61-.16,4.44,4.44,0,0,1,.74-.06,5,5,0,0,1,1.11.13,2.33,2.33,0,0,1,.91.43,1.46,1.46,0,0,1,.52.72,2.49,2.49,0,0,1,.14.85v.45q0,.42-.06,1l-.11,2.51c0,.27,0,.61,0,1h-1.26c.05-.49.11-1.26.17-2.32s.11-1.79.11-2.2a1.87,1.87,0,0,0-.2-.9,1.31,1.31,0,0,0-.66-.55,2.54,2.54,0,0,0-1-.19,2.76,2.76,0,0,0-1,.16,1.86,1.86,0,0,0-.68.4,2,2,0,0,0-.46.63A3.55,3.55,0,0,0,169,91a13.38,13.38,0,0,0-.16,1.8c0,.46,0,1.24-.08,2.35h-1.21Z"/><path class="cls-2" d="M181.66,94.1c-.06.25-.11.57-.17,1a9.57,9.57,0,0,1-1.14.23,7.72,7.72,0,0,1-1,0,5.16,5.16,0,0,1-1.53-.2,2.74,2.74,0,0,1-1.17-.72,2.92,2.92,0,0,1-.69-1.16,4.26,4.26,0,0,1-.22-1.39,4.57,4.57,0,0,1,.39-1.89,3,3,0,0,1,1.18-1.37,3.63,3.63,0,0,1,2-.5,3.9,3.9,0,0,1,1.19.18,2.37,2.37,0,0,1,.94.55,2.43,2.43,0,0,1,.59.92,3.44,3.44,0,0,1,.2,1.18,2.45,2.45,0,0,1,0,.48H177c0,.25,0,.44,0,.57a3,3,0,0,0,.3,1.33,2,2,0,0,0,.89.91,2.8,2.8,0,0,0,1.35.31A6.83,6.83,0,0,0,181.66,94.1Zm-4.61-3.26h4.07a3.81,3.81,0,0,0-.05-.67,1.72,1.72,0,0,0-.18-.49,1.52,1.52,0,0,0-.35-.45A1.58,1.58,0,0,0,180,89a2.15,2.15,0,0,0-.68-.1,2.29,2.29,0,0,0-.74.11,2.1,2.1,0,0,0-.62.3,2,2,0,0,0-.46.45,1.91,1.91,0,0,0-.28.49A4.88,4.88,0,0,0,177.05,90.84Z"/><path class="cls-2" d="M192.59,94.1c-.06.25-.11.57-.17,1a9.19,9.19,0,0,1-1.14.23,7.72,7.72,0,0,1-1,0,5.2,5.2,0,0,1-1.53-.2,2.74,2.74,0,0,1-1.17-.72,2.92,2.92,0,0,1-.69-1.16A4.66,4.66,0,0,1,187.1,90a3.09,3.09,0,0,1,1.18-1.37,3.63,3.63,0,0,1,2-.5,3.9,3.9,0,0,1,1.19.18,2.48,2.48,0,0,1,1,.55,2.54,2.54,0,0,1,.58.92,3.44,3.44,0,0,1,.2,1.18,2.45,2.45,0,0,1,0,.48h-5.22c0,.25,0,.44,0,.57a3,3,0,0,0,.3,1.33,2,2,0,0,0,.89.91,2.8,2.8,0,0,0,1.35.31A6.83,6.83,0,0,0,192.59,94.1ZM188,90.84h4.07a3.81,3.81,0,0,0-.05-.67,1.72,1.72,0,0,0-.18-.49,1.52,1.52,0,0,0-.35-.45,1.58,1.58,0,0,0-.53-.28,2.15,2.15,0,0,0-.68-.1,2.29,2.29,0,0,0-.74.11,2.1,2.1,0,0,0-.62.3,2,2,0,0,0-.46.45,2.26,2.26,0,0,0-.28.49A4.88,4.88,0,0,0,188,90.84Z"/><path class="cls-2" d="M193.22,98.35c0-.39-.07-.71-.12-1a2.32,2.32,0,0,0,.64.22,2.49,2.49,0,0,0,.5.06,1.58,1.58,0,0,0,.52-.09,1.31,1.31,0,0,0,.41-.26,2.63,2.63,0,0,0,.33-.44c.11-.18.24-.4.37-.65a8.19,8.19,0,0,0,.37-.83l-1.46-4.15-1.07-3H195c.07.32.13.56.18.73s.16.51.33,1l1,3.14c.11.35.23.74.34,1.15l.77-1.89,1.43-3.34.12-.31c0-.11.1-.28.19-.51h1.23c-.17.4-.61,1.35-1.29,2.83l-2.53,5.64a4.73,4.73,0,0,1-.49.86,2.08,2.08,0,0,1-.38.4,1.6,1.6,0,0,1-.37.25,2.38,2.38,0,0,1-.55.19,2.81,2.81,0,0,1-.65.07A4.85,4.85,0,0,1,193.22,98.35Z"/><path class="cls-2" d="M206.88,94.1c0,.25-.11.57-.16,1a10,10,0,0,1-1.14.23,7.72,7.72,0,0,1-1,0,5.27,5.27,0,0,1-1.54-.2,2.65,2.65,0,0,1-1.16-.72,2.83,2.83,0,0,1-.7-1.16A4.75,4.75,0,0,1,201.4,90a3.07,3.07,0,0,1,1.17-1.37,3.67,3.67,0,0,1,2-.5,3.94,3.94,0,0,1,1.19.18,2.44,2.44,0,0,1,.94.55,2.54,2.54,0,0,1,.58.92,3.22,3.22,0,0,1,.21,1.18,2.44,2.44,0,0,1,0,.48h-5.21q0,.38,0,.57a3,3,0,0,0,.3,1.33,2,2,0,0,0,.89.91,2.8,2.8,0,0,0,1.35.31A6.78,6.78,0,0,0,206.88,94.1Zm-4.61-3.26h4.08a3.66,3.66,0,0,0-.06-.67,2,2,0,0,0-.17-.49,1.55,1.55,0,0,0-.36-.45,1.41,1.41,0,0,0-.53-.28,2.09,2.09,0,0,0-.67-.1,2.35,2.35,0,0,0-.75.11,2.1,2.1,0,0,0-.62.3,2,2,0,0,0-.46.45,2.19,2.19,0,0,0-.27.49A3.59,3.59,0,0,0,202.27,90.84Z"/><path class="cls-2" d="M212.13,95.18l.08-1c0-.21,0-.54,0-1l.16-4.16c0-.34,0-.6,0-.78h1.16l-.06,1.27a4.51,4.51,0,0,1,.42-.61,1.84,1.84,0,0,1,.49-.41,2.6,2.6,0,0,1,.7-.3,3.18,3.18,0,0,1,.82-.11,2.25,2.25,0,0,1,.58.07,2.76,2.76,0,0,1,.53.19,2.19,2.19,0,0,1,.42.28,1.74,1.74,0,0,1,.28.34,2.76,2.76,0,0,1,.21.54,2.48,2.48,0,0,1,1-1.1,3.1,3.1,0,0,1,1.4-.32,2.85,2.85,0,0,1,1,.16,1.68,1.68,0,0,1,.73.45,1.59,1.59,0,0,1,.37.61,2.35,2.35,0,0,1,.09.64c0,.22,0,.55,0,1s-.07,1.1-.11,2-.06,1.64-.06,2.23h-1.22c.05-.61.09-1.28.13-2l.09-1.69c0-.41,0-.76,0-1.06a2,2,0,0,0-.08-.62,1.05,1.05,0,0,0-.27-.4,1.33,1.33,0,0,0-.44-.28A1.91,1.91,0,0,0,220,89a2.1,2.1,0,0,0-.51.06,2,2,0,0,0-.42.19,1.57,1.57,0,0,0-.4.32,1.9,1.9,0,0,0-.31.42,3.11,3.11,0,0,0-.21.57,6,6,0,0,0-.14,1c0,.42-.06,1-.07,1.67l-.06,1.91h-1.22c.05-.56.08-1.14.11-1.74l.08-1.65c0-.51,0-1,0-1.31a2.45,2.45,0,0,0-.07-.59,1.05,1.05,0,0,0-.26-.44,1.1,1.1,0,0,0-.45-.31,1.63,1.63,0,0,0-.59-.11,1.78,1.78,0,0,0-.65.12,2.14,2.14,0,0,0-.57.35,2,2,0,0,0-.43.57,3.34,3.34,0,0,0-.28.89,15.85,15.85,0,0,0-.16,1.92c0,.91,0,1.68,0,2.3h-1.23Z"/><path class="cls-2" d="M227.6,88.1a4.41,4.41,0,0,1,1.37.21,2.8,2.8,0,0,1,1.84,1.77,4,4,0,0,1,.25,1.43,4.82,4.82,0,0,1-.26,1.56,3.75,3.75,0,0,1-.74,1.26,2.83,2.83,0,0,1-1.16.76,4.66,4.66,0,0,1-2.86,0,3,3,0,0,1-1.84-1.83,3.91,3.91,0,0,1-.25-1.41,4.36,4.36,0,0,1,.45-2,2.93,2.93,0,0,1,1.33-1.34A4.15,4.15,0,0,1,227.6,88.1Zm0,.87a2.49,2.49,0,0,0-1.28.35,2,2,0,0,0-.86,1.05,4,4,0,0,0-.28,1.53,3.38,3.38,0,0,0,.23,1.3,2,2,0,0,0,.76.93,2.27,2.27,0,0,0,1.29.36,2.65,2.65,0,0,0,1-.18,1.85,1.85,0,0,0,.79-.58,2.47,2.47,0,0,0,.51-1,4.51,4.51,0,0,0,.16-1.23,3.77,3.77,0,0,0-.16-1.13,1.94,1.94,0,0,0-.5-.84,2,2,0,0,0-.77-.45A2.8,2.8,0,0,0,227.57,89Z"/><path class="cls-2" d="M234.25,95.18l-.23-.69c-.08-.22-.26-.73-.55-1.52l-1.72-4.71H233l.15.48.21.65L235,94.16l2.16-5.22.26-.68h1.29l-.89,1.91-1.78,4-.44,1h-1.34Z"/><path class="cls-2" d="M245,94.1c-.06.25-.11.57-.17,1a9.19,9.19,0,0,1-1.14.23,7.72,7.72,0,0,1-1,0,5.2,5.2,0,0,1-1.53-.2,2.74,2.74,0,0,1-1.17-.72,2.92,2.92,0,0,1-.69-1.16,4.81,4.81,0,0,1,.17-3.28,3.09,3.09,0,0,1,1.18-1.37,3.63,3.63,0,0,1,2-.5,3.9,3.9,0,0,1,1.19.18,2.48,2.48,0,0,1,1,.55,2.54,2.54,0,0,1,.58.92,3.44,3.44,0,0,1,.2,1.18,2.45,2.45,0,0,1,0,.48H240.3q0,.38,0,.57a3,3,0,0,0,.3,1.33,2,2,0,0,0,.89.91,2.8,2.8,0,0,0,1.35.31A6.83,6.83,0,0,0,245,94.1Zm-4.61-3.26h4.07a3.81,3.81,0,0,0,0-.67,1.72,1.72,0,0,0-.18-.49,1.52,1.52,0,0,0-.35-.45,1.58,1.58,0,0,0-.53-.28,2.15,2.15,0,0,0-.68-.1,2.29,2.29,0,0,0-.74.11,2.1,2.1,0,0,0-.62.3,2,2,0,0,0-.46.45,2.26,2.26,0,0,0-.28.49A4.88,4.88,0,0,0,240.35,90.84Z"/><path class="cls-2" d="M245.93,92c0-.33,0-.64,0-.91.64,0,1.2,0,1.7,0s1.06,0,1.71,0c0,.32,0,.63-.06.91q-.86,0-1.71,0Z"/><path class="cls-2" d="M15.5,112l.08-1c0-.21,0-.54.05-1l.17-4.16v-.78H17l-.06,1.27a4.51,4.51,0,0,1,.42-.61,1.84,1.84,0,0,1,.49-.41,2.6,2.6,0,0,1,.7-.3,3.24,3.24,0,0,1,.82-.11,2.25,2.25,0,0,1,.58.07,2.76,2.76,0,0,1,.53.19,2.19,2.19,0,0,1,.42.28,1.74,1.74,0,0,1,.28.34,2.76,2.76,0,0,1,.21.54,2.44,2.44,0,0,1,1-1.1,3,3,0,0,1,1.39-.32,2.85,2.85,0,0,1,1,.16,1.62,1.62,0,0,1,.73.45,1.47,1.47,0,0,1,.37.61,2.35,2.35,0,0,1,.09.64c0,.22,0,.55-.05,1s-.06,1.1-.11,2-.06,1.64-.06,2.23H24.5c.05-.61.09-1.28.13-2l.09-1.69c0-.41,0-.76,0-1.06a2,2,0,0,0-.08-.62,1.15,1.15,0,0,0-.26-.4,1.28,1.28,0,0,0-.45-.28,1.91,1.91,0,0,0-.61-.09,2.1,2.1,0,0,0-.51.06,2,2,0,0,0-.42.19,1.57,1.57,0,0,0-.4.32,1.6,1.6,0,0,0-.3.42,2.51,2.51,0,0,0-.22.57,7.23,7.23,0,0,0-.14,1c0,.42-.06,1-.07,1.67L21.23,112H20c0-.56.09-1.14.11-1.74l.09-1.65c0-.51,0-1,0-1.31a2,2,0,0,0-.07-.59,1,1,0,0,0-.26-.44,1.1,1.1,0,0,0-.45-.31,1.59,1.59,0,0,0-.59-.11,1.78,1.78,0,0,0-.65.12,2,2,0,0,0-.56.35,2.07,2.07,0,0,0-.44.57,3.34,3.34,0,0,0-.28.89,18.28,18.28,0,0,0-.16,1.92c0,.91-.05,1.68-.05,2.3H15.5Z"/><path class="cls-2" d="M33.19,110.9c0,.25-.11.57-.16.95a10,10,0,0,1-1.14.23c-.32,0-.64,0-1,0a5.16,5.16,0,0,1-1.53-.2,2.63,2.63,0,0,1-1.17-.72,2.94,2.94,0,0,1-.7-1.16,4.75,4.75,0,0,1,.18-3.28,3.07,3.07,0,0,1,1.17-1.37,3.69,3.69,0,0,1,2-.5,3.94,3.94,0,0,1,1.19.18,2.37,2.37,0,0,1,.94.55,2.41,2.41,0,0,1,.58.92,3.22,3.22,0,0,1,.21,1.18,3.58,3.58,0,0,1,0,.48H28.53q0,.38,0,.57a3,3,0,0,0,.3,1.33,2.06,2.06,0,0,0,.89.91,2.87,2.87,0,0,0,1.36.31A6.78,6.78,0,0,0,33.19,110.9Zm-4.6-3.26h4.07a3.81,3.81,0,0,0,0-.67,2.67,2.67,0,0,0-.18-.49,1.7,1.7,0,0,0-.35-.45,1.54,1.54,0,0,0-.54-.28,2,2,0,0,0-.67-.1,2.25,2.25,0,0,0-.74.11,2,2,0,0,0-.62.3,1.79,1.79,0,0,0-.46.45,1.91,1.91,0,0,0-.28.49A4.88,4.88,0,0,0,28.59,107.64Z"/><path class="cls-2" d="M34.92,112c.21-2.85.33-5.16.34-6.92h1.21l-.09,1.37a4.77,4.77,0,0,1,.27-.44,2.46,2.46,0,0,1,.27-.33,2.78,2.78,0,0,1,.41-.32,2,2,0,0,1,.55-.24,3.6,3.6,0,0,1,.63-.15,4.87,4.87,0,0,1,.65,0,4.35,4.35,0,0,1,1.14.15,2,2,0,0,1,.89.46,1.61,1.61,0,0,1,.48.73,3,3,0,0,1,.12.87c0,.06,0,.17,0,.34s0,.39,0,.66L41.62,111c0,.27,0,.61,0,1H40.38c0-.55.08-1.08.11-1.59l.09-1.59c0-.55,0-1,0-1.24a1.9,1.9,0,0,0-.21-1,1.28,1.28,0,0,0-.65-.55,2.54,2.54,0,0,0-1-.2,2.41,2.41,0,0,0-1.36.38,2.36,2.36,0,0,0-.81,1,5,5,0,0,0-.28,1.35c-.07.72-.11,1.86-.14,3.41H34.92Z"/><path class="cls-2" d="M46.89,111.08c0,.23-.1.52-.16.89a7.44,7.44,0,0,1-.74.14,4.7,4.7,0,0,1-.52,0,2.69,2.69,0,0,1-1-.15,1.14,1.14,0,0,1-.57-.49,1.85,1.85,0,0,1-.2-.92s0-.14,0-.27,0-.57.07-1.33l.16-3.06h-.91c0-.19,0-.47.05-.82H44c0-.26,0-.69.07-1.31.43-.08.79-.16,1.08-.23,0,.67,0,1.19,0,1.54H47c0,.28,0,.56,0,.82H45.1l-.19,3.85v.29a1.85,1.85,0,0,0,.11.75.74.74,0,0,0,.34.36,1.08,1.08,0,0,0,.47.11l.37,0A6.91,6.91,0,0,0,46.89,111.08Z"/><path class="cls-2" d="M51.84,106.16c0-.2.08-.5.12-.89a12.08,12.08,0,0,1,1.43-.29,9.61,9.61,0,0,1,1.18-.08,5.27,5.27,0,0,1,1.15.12,2.19,2.19,0,0,1,.89.36,1.24,1.24,0,0,1,.48.58,2.3,2.3,0,0,1,.11.71c0,.31,0,.84-.07,1.58s-.08,1.42-.11,2,0,1.19,0,1.68H55.76l.14-1.86.11-2.21-.36.26a1.71,1.71,0,0,1-.27.14l-.33.12-.71.2-.74.22a4.84,4.84,0,0,0-.75.3,2,2,0,0,0-.45.33,1,1,0,0,0-.26.36,1.18,1.18,0,0,0-.09.46,1,1,0,0,0,.22.64,1.08,1.08,0,0,0,.55.38,2.62,2.62,0,0,0,.79.1,4.22,4.22,0,0,0,.6,0,4.44,4.44,0,0,0,.84-.2,7.34,7.34,0,0,0-.21.81c-.34.06-.61.1-.82.12s-.41,0-.59,0a4.13,4.13,0,0,1-1.47-.21,1.57,1.57,0,0,1-.78-.67,1.93,1.93,0,0,1-.26-1,1.7,1.7,0,0,1,.09-.57,1.76,1.76,0,0,1,.25-.47,1.86,1.86,0,0,1,.45-.43,3.1,3.1,0,0,1,.61-.35c.21-.09.46-.18.74-.27s.74-.21,1.36-.36a3.63,3.63,0,0,0,.51-.14,2.77,2.77,0,0,0,.38-.14,1.35,1.35,0,0,0,.29-.16,1.14,1.14,0,0,0,.22-.22.91.91,0,0,0,.15-.27.87.87,0,0,0,.05-.28.8.8,0,0,0-.22-.57,1.17,1.17,0,0,0-.57-.33,2.9,2.9,0,0,0-.83-.1,5.67,5.67,0,0,0-.91.07,8,8,0,0,0-.81.17Q52.34,106,51.84,106.16Z"/><path class="cls-2" d="M58.79,112c.22-2.85.34-5.16.34-6.92h1.22l-.09,1.37a4.77,4.77,0,0,1,.27-.44,2.46,2.46,0,0,1,.27-.33,2.78,2.78,0,0,1,.41-.32,1.92,1.92,0,0,1,.54-.24,3.71,3.71,0,0,1,.64-.15,4.74,4.74,0,0,1,.65,0,4.22,4.22,0,0,1,1.13.15,2,2,0,0,1,.9.46,1.58,1.58,0,0,1,.47.73,3,3,0,0,1,.12.87v.34q0,.26,0,.66L65.5,111c0,.27,0,.61,0,1H64.26c0-.55.08-1.08.11-1.59l.09-1.59c0-.55,0-1,0-1.24a1.9,1.9,0,0,0-.21-1,1.27,1.27,0,0,0-.66-.55,2.49,2.49,0,0,0-1-.2,2.41,2.41,0,0,0-1.36.38,2.22,2.22,0,0,0-.81,1,5,5,0,0,0-.28,1.35c-.07.72-.12,1.86-.14,3.41H58.79Z"/><path class="cls-2" d="M73.74,112l-.56,0h-.59l.08-1.47c-.15.25-.27.45-.37.59a2.33,2.33,0,0,1-.38.39,2.28,2.28,0,0,1-.5.33,2.48,2.48,0,0,1-.63.23,3,3,0,0,1-.74.08,3.41,3.41,0,0,1-1.24-.23,2.73,2.73,0,0,1-1-.69,2.62,2.62,0,0,1-.58-1,4.28,4.28,0,0,1-.18-1.24,4.36,4.36,0,0,1,.34-1.69,3.48,3.48,0,0,1,2.33-2.14,6.19,6.19,0,0,1,1.64-.21,9.13,9.13,0,0,1,1.43.14c0-.5,0-.91,0-1.24s0-.86,0-1.15h1.25l-.2,3.86-.14,4.43Zm-1-6.1a5.52,5.52,0,0,0-.7-.16l-.56,0a4,4,0,0,0-1.26.19,2.55,2.55,0,0,0-1,.62,2.67,2.67,0,0,0-.7,1.09,3.57,3.57,0,0,0-.25,1.3,3.06,3.06,0,0,0,.23,1.18,1.85,1.85,0,0,0,.72.86,2.08,2.08,0,0,0,1.14.32,2.25,2.25,0,0,0,.71-.11,1.85,1.85,0,0,0,.59-.31,2.42,2.42,0,0,0,.49-.55,3,3,0,0,0,.37-.81,5.09,5.09,0,0,0,.17-1.09q0-.33.06-1.29Z"/><path class="cls-2" d="M82.58,111.08c0,.23-.11.52-.17.89a6.94,6.94,0,0,1-.74.14,4.61,4.61,0,0,1-.52,0,2.69,2.69,0,0,1-1-.15,1.14,1.14,0,0,1-.57-.49,1.85,1.85,0,0,1-.2-.92s0-.14,0-.27,0-.57.07-1.33l.17-3.06h-.92c0-.19,0-.47,0-.82h.93c0-.26.05-.69.07-1.31.43-.08.79-.16,1.09-.23,0,.67-.05,1.19-.06,1.54h1.9c0,.28,0,.56,0,.82H80.78l-.18,3.85v.29a2,2,0,0,0,.11.75.79.79,0,0,0,.34.36,1.12,1.12,0,0,0,.47.11l.37,0C82,111.22,82.24,111.17,82.58,111.08Z"/><path class="cls-2" d="M83.62,112l.17-3,.15-4.05,0-2.31h1.23L85.06,105l0,1.41c.11-.19.2-.35.28-.46a2.43,2.43,0,0,1,.31-.35,2.55,2.55,0,0,1,.39-.3,2.78,2.78,0,0,1,.46-.21,3.56,3.56,0,0,1,.61-.16,4.77,4.77,0,0,1,1.86.07,2.47,2.47,0,0,1,.91.43,1.59,1.59,0,0,1,.52.72,2.75,2.75,0,0,1,.14.85c0,.11,0,.26,0,.45s0,.61-.06,1L90.31,111c0,.27,0,.61,0,1H89c0-.49.11-1.26.18-2.32s.1-1.79.1-2.2a1.87,1.87,0,0,0-.2-.9,1.27,1.27,0,0,0-.66-.55,2.54,2.54,0,0,0-1-.19,2.67,2.67,0,0,0-1,.16,1.86,1.86,0,0,0-1.14,1,3.18,3.18,0,0,0-.26.81,13.43,13.43,0,0,0-.17,1.81c0,.46,0,1.24-.07,2.35H83.62Z"/><path class="cls-2" d="M95.54,104.9a4.35,4.35,0,0,1,1.36.21,2.77,2.77,0,0,1,1.13.65,2.71,2.71,0,0,1,.72,1.12,4.26,4.26,0,0,1,.25,1.43,4.47,4.47,0,0,1-.27,1.55,3.68,3.68,0,0,1-.73,1.27,2.8,2.8,0,0,1-1.17.76,4.63,4.63,0,0,1-2.85,0,3.05,3.05,0,0,1-1.13-.69,3.17,3.17,0,0,1-.72-1.14,4.14,4.14,0,0,1-.24-1.41,4.36,4.36,0,0,1,.45-2,3,3,0,0,1,1.32-1.34A4.19,4.19,0,0,1,95.54,104.9Zm0,.87a2.46,2.46,0,0,0-1.28.35,2.07,2.07,0,0,0-.87,1,4.21,4.21,0,0,0-.28,1.53,3.38,3.38,0,0,0,.24,1.3,2,2,0,0,0,.76.93,2.22,2.22,0,0,0,1.28.36,2.61,2.61,0,0,0,1-.18,1.88,1.88,0,0,0,.8-.58,2.47,2.47,0,0,0,.51-1,4.51,4.51,0,0,0,.16-1.23,3.77,3.77,0,0,0-.16-1.13,1.87,1.87,0,0,0-.51-.84,2,2,0,0,0-.76-.45A2.8,2.8,0,0,0,95.51,105.77Z"/><path class="cls-2" d="M106.84,112H105.7l0-1.32a4.13,4.13,0,0,1-.28.48,2.24,2.24,0,0,1-.3.33,3.18,3.18,0,0,1-.37.27,2,2,0,0,1-.44.19,3.61,3.61,0,0,1-.59.15,5.55,5.55,0,0,1-.72,0,3.62,3.62,0,0,1-1.43-.25,2,2,0,0,1-.89-.72,2.31,2.31,0,0,1-.31-1.27c0-.08,0-.22,0-.41s0-.46,0-.77l.11-2.28,0-.73c0-.17,0-.38,0-.64h1.22c-.06.8-.13,1.67-.18,2.62s-.09,1.55-.09,1.82a2,2,0,0,0,.19,1,1.33,1.33,0,0,0,.65.55,2.87,2.87,0,0,0,2,0,2.13,2.13,0,0,0,.68-.43,2.56,2.56,0,0,0,.49-.76,3.74,3.74,0,0,0,.22-.88c0-.26.06-.72.09-1.4s.06-1.65.08-2.5h1.21c-.07.82-.14,2.07-.23,3.74Q106.85,110.18,106.84,112Z"/><path class="cls-2" d="M109.11,114a13,13,0,0,0,1.51.37,7.5,7.5,0,0,0,1.1.09,3.32,3.32,0,0,0,1.06-.16,2.05,2.05,0,0,0,.69-.36,1.78,1.78,0,0,0,.36-.48,3.4,3.4,0,0,0,.25-1c0-.33.08-1,.1-1.94a4.68,4.68,0,0,1-.3.5,2.13,2.13,0,0,1-.36.39,2.18,2.18,0,0,1-.52.36,2.75,2.75,0,0,1-.7.25,3.75,3.75,0,0,1-.82.09,3.68,3.68,0,0,1-1.17-.17,2.57,2.57,0,0,1-1-.56,2.67,2.67,0,0,1-.65-1,3.91,3.91,0,0,1-.22-1.28,4.74,4.74,0,0,1,.33-1.76,3.64,3.64,0,0,1,1-1.39,3.77,3.77,0,0,1,1.45-.8,6.46,6.46,0,0,1,1.76-.23,16,16,0,0,1,2.61.28l-.07.84-.21,3.84c0,.08,0,.54,0,1.39l0,1.42a5.2,5.2,0,0,1-.13.79,2.44,2.44,0,0,1-.21.53,2.24,2.24,0,0,1-.31.43,2.06,2.06,0,0,1-.42.35,2.45,2.45,0,0,1-.51.26,4.33,4.33,0,0,1-.79.19,5.84,5.84,0,0,1-.93.08,11.43,11.43,0,0,1-1.32-.07,10.43,10.43,0,0,1-1.45-.26l0-.37C109.15,114.5,109.13,114.3,109.11,114Zm5.25-8.07a7.4,7.4,0,0,0-1.43-.15,4.48,4.48,0,0,0-1.24.16,2.48,2.48,0,0,0-1,.57,2.71,2.71,0,0,0-.74,1.08,3.61,3.61,0,0,0-.27,1.38,3,3,0,0,0,.24,1.21,1.71,1.71,0,0,0,.75.82,2.52,2.52,0,0,0,2.14.08,2.15,2.15,0,0,0,.76-.6,2.59,2.59,0,0,0,.52-1,4.83,4.83,0,0,0,.2-1.14C114.29,108,114.32,107.16,114.36,105.92Z"/><path class="cls-2" d="M117.15,112l.17-3,.16-4.05,0-2.31h1.23L118.6,105l0,1.41c.11-.19.2-.35.28-.46a2,2,0,0,1,.31-.35,1.85,1.85,0,0,1,.39-.3,2.78,2.78,0,0,1,.46-.21,3.56,3.56,0,0,1,.61-.16,4.72,4.72,0,0,1,1.85.07,2.33,2.33,0,0,1,.91.43,1.46,1.46,0,0,1,.52.72,2.49,2.49,0,0,1,.14.85v.45q0,.42-.06,1l-.11,2.51c0,.27,0,.61,0,1h-1.26c0-.49.11-1.26.17-2.32s.11-1.79.11-2.2a1.87,1.87,0,0,0-.2-.9A1.31,1.31,0,0,0,122,106a2.58,2.58,0,0,0-1-.19,2.76,2.76,0,0,0-1,.16,1.86,1.86,0,0,0-.68.4,2,2,0,0,0-.46.63,3.63,3.63,0,0,0-.26.81,13.72,13.72,0,0,0-.16,1.81c0,.46,0,1.24-.08,2.35h-1.21Z"/><path class="cls-2" d="M129.12,111.08c-.05.23-.1.52-.16.89a7.44,7.44,0,0,1-.74.14,4.7,4.7,0,0,1-.52,0,2.69,2.69,0,0,1-1-.15,1.14,1.14,0,0,1-.57-.49,1.85,1.85,0,0,1-.2-.92s0-.14,0-.27,0-.57.07-1.33l.16-3.06h-.91c0-.19,0-.47,0-.82h.93c0-.26,0-.69.07-1.31.43-.08.79-.16,1.08-.23,0,.67,0,1.19,0,1.54h1.9c0,.28,0,.56,0,.82h-1.89l-.19,3.85v.29a1.85,1.85,0,0,0,.11.75.74.74,0,0,0,.34.36,1.08,1.08,0,0,0,.47.11l.37,0A6.91,6.91,0,0,0,129.12,111.08Z"/><path class="cls-2" d="M133.48,115.07c.1-1.17.18-2.77.26-4.79s.13-3.68.14-5c.74-.16,1.34-.27,1.79-.32a10.2,10.2,0,0,1,1.35-.09,4.74,4.74,0,0,1,1.85.34,2.47,2.47,0,0,1,1.22,1.19,4.05,4.05,0,0,1,.44,1.92,5.27,5.27,0,0,1-.2,1.44,3.72,3.72,0,0,1-.63,1.24,2.72,2.72,0,0,1-1,.83,3.15,3.15,0,0,1-1.32.27,3.33,3.33,0,0,1-.84-.1,2.7,2.7,0,0,1-.71-.28,2.13,2.13,0,0,1-.49-.38,4.13,4.13,0,0,1-.49-.64l-.09,2.71q0,.66,0,1v.67h-1.23Zm1.57-8.94-.05.52,0,.71c0,.37,0,.67,0,.91s0,.4,0,.49a4.21,4.21,0,0,0,.11,1,1.89,1.89,0,0,0,.42.82,2.08,2.08,0,0,0,.75.57,2.13,2.13,0,0,0,.89.19,2,2,0,0,0,1.17-.36,2.25,2.25,0,0,0,.81-1,3.92,3.92,0,0,0,.3-1.54,3.23,3.23,0,0,0-.31-1.45,1.92,1.92,0,0,0-.83-.88,2.52,2.52,0,0,0-1.17-.27A5.78,5.78,0,0,0,135.05,106.13Z"/><path class="cls-2" d="M141.85,112c.16-2.63.25-4.72.25-6.29v-.63h1.16l-.06,1.13a4.79,4.79,0,0,1,.45-.64,1.83,1.83,0,0,1,.44-.35,2.18,2.18,0,0,1,.56-.22,2.67,2.67,0,0,1,.64-.08,2.22,2.22,0,0,1,.57.07c0,.3,0,.64.05,1a2.79,2.79,0,0,0-.76-.11,1.9,1.9,0,0,0-.73.13,1.69,1.69,0,0,0-.57.4,2.27,2.27,0,0,0-.42.65,3.1,3.1,0,0,0-.21.78,15.36,15.36,0,0,0-.11,1.74c0,.62,0,1.27,0,2V112h-1.22Z"/><path class="cls-2" d="M150.21,104.9a4.41,4.41,0,0,1,1.37.21,2.8,2.8,0,0,1,1.84,1.77,4,4,0,0,1,.25,1.43,4.71,4.71,0,0,1-.26,1.55,3.7,3.7,0,0,1-.74,1.27,2.83,2.83,0,0,1-1.16.76,4.46,4.46,0,0,1-1.48.24,4.52,4.52,0,0,1-1.38-.21,3,3,0,0,1-1.84-1.83,3.91,3.91,0,0,1-.25-1.41,4.36,4.36,0,0,1,.45-2,3,3,0,0,1,1.33-1.34A4.15,4.15,0,0,1,150.21,104.9Zm0,.87a2.49,2.49,0,0,0-1.28.35,2,2,0,0,0-.86,1,4,4,0,0,0-.28,1.53A3.38,3.38,0,0,0,148,110a2,2,0,0,0,.76.93,2.27,2.27,0,0,0,1.29.36,2.65,2.65,0,0,0,1-.18,1.85,1.85,0,0,0,.79-.58,2.47,2.47,0,0,0,.51-1,4.51,4.51,0,0,0,.16-1.23,3.77,3.77,0,0,0-.16-1.13,1.94,1.94,0,0,0-.5-.84,2,2,0,0,0-.77-.45A2.8,2.8,0,0,0,150.18,105.77Z"/><path class="cls-2" d="M160.1,110.94c0,.08,0,.21-.07.41s-.07.39-.1.59a6.8,6.8,0,0,1-1,.15c-.31,0-.58,0-.81,0a4.52,4.52,0,0,1-1.36-.19,2.71,2.71,0,0,1-1.09-.66,2.79,2.79,0,0,1-.69-1.12,4.79,4.79,0,0,1-.22-1.42,5.11,5.11,0,0,1,.36-1.91,3,3,0,0,1,1.12-1.42,3.74,3.74,0,0,1,2.09-.51,7.12,7.12,0,0,1,1.89.26c0,.39.05.71.08,1a9,9,0,0,0-1.06-.28,4.29,4.29,0,0,0-.76-.07,2.51,2.51,0,0,0-1.08.22,2.15,2.15,0,0,0-.81.62,2.55,2.55,0,0,0-.48,1,4.28,4.28,0,0,0-.15,1.13,3.54,3.54,0,0,0,.24,1.35,1.75,1.75,0,0,0,.84.9,2.82,2.82,0,0,0,1.34.32A5.28,5.28,0,0,0,160.1,110.94Z"/><path class="cls-2" d="M167.29,110.9c-.06.25-.11.57-.17.95a9.19,9.19,0,0,1-1.14.23c-.32,0-.64,0-1,0a5.2,5.2,0,0,1-1.53-.2,2.74,2.74,0,0,1-1.17-.72,2.92,2.92,0,0,1-.69-1.16,4.54,4.54,0,0,1-.21-1.39,4.73,4.73,0,0,1,.38-1.89A3.09,3.09,0,0,1,163,105.4a3.63,3.63,0,0,1,2-.5,3.9,3.9,0,0,1,1.19.18,2.48,2.48,0,0,1,.95.55,2.54,2.54,0,0,1,.58.92,3.44,3.44,0,0,1,.2,1.18,2.45,2.45,0,0,1,0,.48h-5.21q0,.38,0,.57a3,3,0,0,0,.3,1.33,2,2,0,0,0,.89.91,2.8,2.8,0,0,0,1.35.31A6.83,6.83,0,0,0,167.29,110.9Zm-4.61-3.26h4.07a3.81,3.81,0,0,0-.05-.67,1.72,1.72,0,0,0-.18-.49,1.52,1.52,0,0,0-.35-.45,1.58,1.58,0,0,0-.53-.28,2.15,2.15,0,0,0-.68-.1,2.29,2.29,0,0,0-.74.11,2.1,2.1,0,0,0-.62.3,2,2,0,0,0-.46.45,2.26,2.26,0,0,0-.28.49A4.88,4.88,0,0,0,162.68,107.64Z"/><path class="cls-2" d="M168.73,111.85l0-.5s0-.23-.06-.52a5,5,0,0,0,2,.46,2,2,0,0,0,.78-.13.9.9,0,0,0,.48-.36.87.87,0,0,0,.16-.5,1,1,0,0,0,0-.29,1.11,1.11,0,0,0-.13-.27,1.73,1.73,0,0,0-.27-.3l-.72-.6c-.37-.3-.65-.53-.83-.69a3.37,3.37,0,0,1-.49-.52,1.89,1.89,0,0,1-.3-.53,1.61,1.61,0,0,1-.09-.54,1.49,1.49,0,0,1,.27-.84,1.67,1.67,0,0,1,.8-.62,3.52,3.52,0,0,1,1.23-.2,8.61,8.61,0,0,1,1.73.19c0,.35,0,.68.07,1a4,4,0,0,0-1.51-.31,2.27,2.27,0,0,0-.75.11,1,1,0,0,0-.51.31.83.83,0,0,0-.16.47.81.81,0,0,0,.06.31,1.15,1.15,0,0,0,.19.33,2.72,2.72,0,0,0,.34.34c.13.12.4.33.79.65s.66.54.81.69a4.12,4.12,0,0,1,.38.47,1.8,1.8,0,0,1,.22.47,1.61,1.61,0,0,1,.08.48,1.53,1.53,0,0,1-.29.89,1.79,1.79,0,0,1-.84.64,3.37,3.37,0,0,1-1.26.22l-.69,0-.67-.09Z"/><path class="cls-2" d="M174.29,111.85l0-.5s0-.23-.06-.52a5,5,0,0,0,1.94.46,2,2,0,0,0,.79-.13,1,1,0,0,0,.48-.36.87.87,0,0,0,.16-.5,1,1,0,0,0,0-.29,1.16,1.16,0,0,0-.14-.27,1.62,1.62,0,0,0-.26-.3l-.72-.6-.84-.69a3.29,3.29,0,0,1-.48-.52,1.67,1.67,0,0,1-.3-.53,1.62,1.62,0,0,1-.1-.54,1.51,1.51,0,0,1,.28-.84,1.63,1.63,0,0,1,.8-.62,3.52,3.52,0,0,1,1.23-.2,8.61,8.61,0,0,1,1.73.19c0,.35,0,.68.07,1a4,4,0,0,0-1.52-.31,2.25,2.25,0,0,0-.74.11,1,1,0,0,0-.51.31.76.76,0,0,0-.16.47,1.06,1.06,0,0,0,0,.31,1.53,1.53,0,0,0,.2.33,2.72,2.72,0,0,0,.34.34c.13.12.39.33.79.65s.66.54.81.69a3.18,3.18,0,0,1,.37.47,1.85,1.85,0,0,1,.23.47,1.59,1.59,0,0,1,.07.48,1.52,1.52,0,0,1-.28.89,1.79,1.79,0,0,1-.84.64,3.4,3.4,0,0,1-1.26.22l-.69,0L175,112Z"/><path class="cls-2" d="M187.11,104.9a4.41,4.41,0,0,1,1.37.21,2.8,2.8,0,0,1,1.84,1.77,4,4,0,0,1,.25,1.43,4.71,4.71,0,0,1-.26,1.55,3.7,3.7,0,0,1-.74,1.27,2.83,2.83,0,0,1-1.16.76,4.46,4.46,0,0,1-1.48.24,4.52,4.52,0,0,1-1.38-.21,3,3,0,0,1-1.12-.69,2.92,2.92,0,0,1-.72-1.14,3.91,3.91,0,0,1-.25-1.41,4.36,4.36,0,0,1,.45-2,3,3,0,0,1,1.33-1.34A4.15,4.15,0,0,1,187.11,104.9Zm0,.87a2.49,2.49,0,0,0-1.28.35,2,2,0,0,0-.86,1,4,4,0,0,0-.28,1.53,3.38,3.38,0,0,0,.23,1.3,2,2,0,0,0,.76.93,2.27,2.27,0,0,0,1.29.36,2.65,2.65,0,0,0,1-.18,1.94,1.94,0,0,0,.8-.58,2.59,2.59,0,0,0,.5-1,4.51,4.51,0,0,0,.16-1.23,3.77,3.77,0,0,0-.16-1.13,1.94,1.94,0,0,0-.5-.84,2,2,0,0,0-.77-.45A2.8,2.8,0,0,0,187.08,105.77Z"/><path class="cls-2" d="M192.09,112l.08-1.25.18-4.81h-.85c0-.22,0-.51.05-.85h.89c0-.42,0-.75,0-1a2.71,2.71,0,0,1,.09-.61,1.14,1.14,0,0,1,.21-.46,1.33,1.33,0,0,1,.39-.34,1.68,1.68,0,0,1,.58-.23,3.45,3.45,0,0,1,.76-.07,5.68,5.68,0,0,1,1.32.17c0,.27,0,.56.07.87a3.66,3.66,0,0,0-1.18-.23,1.43,1.43,0,0,0-.48.07.77.77,0,0,0-.35.18.76.76,0,0,0-.22.3,1.35,1.35,0,0,0-.12.43,5.21,5.21,0,0,0,0,.6v.29h1.9c0,.2,0,.48-.06.85h-1.83l-.12,3.49-.06,2.57h-1.24Z"/><path class="cls-2" d="M200,106.16c0-.2.08-.5.13-.89a11.57,11.57,0,0,1,1.42-.29,9.61,9.61,0,0,1,1.18-.08,5.2,5.2,0,0,1,1.15.12,2.3,2.3,0,0,1,.9.36,1.28,1.28,0,0,1,.47.58,2.3,2.3,0,0,1,.11.71c0,.31,0,.84-.07,1.58s-.08,1.42-.11,2,0,1.19,0,1.68H203.9l.15-1.86.1-2.21-.36.26a1.71,1.71,0,0,1-.27.14l-.33.12-.71.2-.74.22a4.31,4.31,0,0,0-.74.3,1.88,1.88,0,0,0-.46.33,1,1,0,0,0-.26.36,1.18,1.18,0,0,0-.09.46,1,1,0,0,0,.22.64,1.12,1.12,0,0,0,.55.38,2.62,2.62,0,0,0,.79.1,4.26,4.26,0,0,0,.61,0,4.44,4.44,0,0,0,.84-.2,5.33,5.33,0,0,0-.22.81c-.34.06-.61.1-.82.12s-.4,0-.59,0a4.07,4.07,0,0,1-1.46-.21,1.59,1.59,0,0,1-.79-.67,1.93,1.93,0,0,1-.26-1,1.7,1.7,0,0,1,.09-.57,1.76,1.76,0,0,1,.25-.47,2.07,2.07,0,0,1,.45-.43,3.1,3.1,0,0,1,.61-.35c.21-.09.46-.18.74-.27s.74-.21,1.36-.36a3.63,3.63,0,0,0,.51-.14,2.77,2.77,0,0,0,.38-.14,1.15,1.15,0,0,0,.51-.38.91.91,0,0,0,.15-.27.87.87,0,0,0,0-.28.8.8,0,0,0-.22-.57,1.08,1.08,0,0,0-.57-.33,2.9,2.9,0,0,0-.83-.1,5.67,5.67,0,0,0-.91.07c-.31,0-.58.11-.81.17S200.31,106,200,106.16Z"/><path class="cls-2" d="M210.33,115.07c.09-1.17.18-2.77.26-4.79s.13-3.68.13-5c.75-.16,1.35-.27,1.8-.32a10.2,10.2,0,0,1,1.35-.09,4.74,4.74,0,0,1,1.85.34,2.47,2.47,0,0,1,1.22,1.19,4.05,4.05,0,0,1,.44,1.92,5.27,5.27,0,0,1-.2,1.44,3.72,3.72,0,0,1-.63,1.24,2.72,2.72,0,0,1-1,.83,3.15,3.15,0,0,1-1.32.27,3.28,3.28,0,0,1-.84-.1,2.7,2.7,0,0,1-.71-.28,2.13,2.13,0,0,1-.49-.38,4.13,4.13,0,0,1-.49-.64l-.09,2.71q0,.66,0,1v.67h-1.23Zm1.57-8.94-.05.52,0,.71c0,.37,0,.67,0,.91s0,.4,0,.49a4.21,4.21,0,0,0,.11,1,1.89,1.89,0,0,0,.42.82,2.08,2.08,0,0,0,.75.57,2.13,2.13,0,0,0,.89.19,2,2,0,0,0,1.16-.36,2.27,2.27,0,0,0,.82-1,3.92,3.92,0,0,0,.3-1.54,3.23,3.23,0,0,0-.31-1.45,1.92,1.92,0,0,0-.83-.88,2.53,2.53,0,0,0-1.18-.27A5.72,5.72,0,0,0,211.9,106.13Z"/><path class="cls-2" d="M224.39,110.9c-.06.25-.11.57-.17.95a9.45,9.45,0,0,1-1.13.23c-.33,0-.65,0-1,0a5.23,5.23,0,0,1-1.54-.2,2.74,2.74,0,0,1-1.17-.72,2.92,2.92,0,0,1-.69-1.16,4.75,4.75,0,0,1,.18-3.28,3.07,3.07,0,0,1,1.17-1.37,3.63,3.63,0,0,1,2-.5,3.85,3.85,0,0,1,1.19.18,2.41,2.41,0,0,1,.95.55,2.54,2.54,0,0,1,.58.92,3.44,3.44,0,0,1,.2,1.18,2.45,2.45,0,0,1,0,.48h-5.21q0,.38,0,.57a3,3,0,0,0,.3,1.33,2,2,0,0,0,.89.91,2.8,2.8,0,0,0,1.35.31A6.78,6.78,0,0,0,224.39,110.9Zm-4.61-3.26h4.07a3.81,3.81,0,0,0,0-.67,1.72,1.72,0,0,0-.18-.49,1.37,1.37,0,0,0-.35-.45,1.58,1.58,0,0,0-.53-.28,2.15,2.15,0,0,0-.68-.1,2.29,2.29,0,0,0-.74.11,2.1,2.1,0,0,0-.62.3,2,2,0,0,0-.46.45,2.26,2.26,0,0,0-.28.49A4.88,4.88,0,0,0,219.78,107.64Z"/><path class="cls-2" d="M226.13,112c.17-2.63.25-4.72.25-6.29v-.63h1.16l-.06,1.13a4.79,4.79,0,0,1,.45-.64,1.83,1.83,0,0,1,.44-.35,2.18,2.18,0,0,1,.56-.22,2.67,2.67,0,0,1,.64-.08,2.22,2.22,0,0,1,.57.07c0,.3,0,.64.05,1a2.79,2.79,0,0,0-.76-.11,1.9,1.9,0,0,0-.73.13,1.69,1.69,0,0,0-.57.4,2.27,2.27,0,0,0-.42.65,3.1,3.1,0,0,0-.21.78,15.36,15.36,0,0,0-.11,1.74c0,.62,0,1.27,0,2V112h-1.22Z"/><path class="cls-2" d="M230.72,111.85l0-.5a4.75,4.75,0,0,0-.05-.52,5,5,0,0,0,1.94.46,2.08,2.08,0,0,0,.79-.13,1,1,0,0,0,.48-.36.87.87,0,0,0,.16-.5,1.45,1.45,0,0,0,0-.29,1.74,1.74,0,0,0-.14-.27,2.12,2.12,0,0,0-.26-.3l-.73-.6-.83-.69a3.94,3.94,0,0,1-.49-.52,1.85,1.85,0,0,1-.29-.53,1.4,1.4,0,0,1-.1-.54,1.43,1.43,0,0,1,.28-.84,1.63,1.63,0,0,1,.8-.62,3.51,3.51,0,0,1,1.22-.2,8.46,8.46,0,0,1,1.73.19c0,.35,0,.68.07,1a3.92,3.92,0,0,0-1.51-.31,2.27,2.27,0,0,0-.75.11.92.92,0,0,0-.5.31.76.76,0,0,0-.16.47,1.06,1.06,0,0,0,0,.31,1.21,1.21,0,0,0,.2.33,2.61,2.61,0,0,0,.33.34l.79.65a7.71,7.71,0,0,1,.81.69,2.7,2.7,0,0,1,.38.47,2.26,2.26,0,0,1,.23.47,1.59,1.59,0,0,1,.07.48,1.52,1.52,0,0,1-.28.89,1.77,1.77,0,0,1-.85.64,3.31,3.31,0,0,1-1.25.22l-.69,0-.68-.09Z"/><path class="cls-2" d="M240.05,104.9a4.46,4.46,0,0,1,1.37.21,2.8,2.8,0,0,1,1.12.65,2.71,2.71,0,0,1,.72,1.12,4,4,0,0,1,.25,1.43,4.71,4.71,0,0,1-.26,1.55,3.87,3.87,0,0,1-.74,1.27,2.8,2.8,0,0,1-1.17.76,4.36,4.36,0,0,1-1.47.24,4.43,4.43,0,0,1-1.38-.21,2.93,2.93,0,0,1-1.12-.69,3.06,3.06,0,0,1-.73-1.14,4.14,4.14,0,0,1-.24-1.41,4.36,4.36,0,0,1,.45-2,2.93,2.93,0,0,1,1.33-1.34A4.12,4.12,0,0,1,240.05,104.9Zm0,.87a2.46,2.46,0,0,0-1.28.35,2,2,0,0,0-.86,1,4,4,0,0,0-.29,1.53,3.38,3.38,0,0,0,.24,1.3,2,2,0,0,0,.76.93,2.25,2.25,0,0,0,1.29.36,2.56,2.56,0,0,0,1-.18,1.82,1.82,0,0,0,.8-.58,2.47,2.47,0,0,0,.51-1,4.51,4.51,0,0,0,.16-1.23,3.77,3.77,0,0,0-.16-1.13,1.94,1.94,0,0,0-.5-.84,2,2,0,0,0-.77-.45A2.8,2.8,0,0,0,240,105.77Z"/><path class="cls-2" d="M244.81,112c.21-2.85.33-5.16.34-6.92h1.21l-.09,1.37a4.77,4.77,0,0,1,.27-.44,2,2,0,0,1,.28-.33,2.24,2.24,0,0,1,.4-.32,2,2,0,0,1,.55-.24,3.5,3.5,0,0,1,.64-.15,4.6,4.6,0,0,1,.64,0,4.35,4.35,0,0,1,1.14.15,2.14,2.14,0,0,1,.9.46,1.67,1.67,0,0,1,.47.73,3,3,0,0,1,.12.87c0,.06,0,.17,0,.34s0,.39,0,.66l-.13,2.87c0,.27,0,.61,0,1h-1.21c0-.55.08-1.08.1-1.59l.09-1.59c0-.55,0-1,0-1.24a1.9,1.9,0,0,0-.21-1,1.28,1.28,0,0,0-.65-.55,2.54,2.54,0,0,0-1-.2,2.44,2.44,0,0,0-1.36.38,2.36,2.36,0,0,0-.81,1,5,5,0,0,0-.28,1.35c-.06.72-.11,1.86-.14,3.41h-1.23Z"/><path class="cls-2" d="M260.28,111.08c0,.23-.1.52-.16.89a7.44,7.44,0,0,1-.74.14,4.61,4.61,0,0,1-.52,0,2.69,2.69,0,0,1-1-.15,1.14,1.14,0,0,1-.57-.49,1.85,1.85,0,0,1-.2-.92s0-.14,0-.27,0-.57.07-1.33l.16-3.06h-.91c0-.19,0-.47.05-.82h.93c0-.26.05-.69.07-1.31.43-.08.79-.16,1.08-.23,0,.67-.05,1.19-.05,1.54h1.9c0,.28,0,.56,0,.82h-1.89l-.19,3.85v.29a2,2,0,0,0,.11.75.74.74,0,0,0,.34.36,1.08,1.08,0,0,0,.47.11l.37,0A6.91,6.91,0,0,0,260.28,111.08Z"/><path class="cls-2" d="M264.73,104.9a4.41,4.41,0,0,1,1.37.21,2.74,2.74,0,0,1,1.12.65,2.83,2.83,0,0,1,.73,1.12,4.25,4.25,0,0,1,.24,1.43,4.71,4.71,0,0,1-.26,1.55,3.7,3.7,0,0,1-.74,1.27,2.76,2.76,0,0,1-1.16.76,4.44,4.44,0,0,1-1.47.24,4.54,4.54,0,0,1-1.39-.21,3,3,0,0,1-1.12-.69,2.92,2.92,0,0,1-.72-1.14,4.14,4.14,0,0,1-.25-1.41,4.36,4.36,0,0,1,.45-2,3,3,0,0,1,1.33-1.34A4.15,4.15,0,0,1,264.73,104.9Zm0,.87a2.49,2.49,0,0,0-1.28.35,2.06,2.06,0,0,0-.86,1,4,4,0,0,0-.28,1.53,3.58,3.58,0,0,0,.23,1.3,2,2,0,0,0,.77.93,2.22,2.22,0,0,0,1.28.36,2.65,2.65,0,0,0,1-.18,1.94,1.94,0,0,0,.8-.58,2.59,2.59,0,0,0,.5-1,4.51,4.51,0,0,0,.17-1.23,3.77,3.77,0,0,0-.17-1.13,1.85,1.85,0,0,0-.5-.84,2,2,0,0,0-.76-.45A2.91,2.91,0,0,0,264.7,105.77Z"/><path class="cls-2" d="M15.5,128.78l.08-1c0-.21,0-.54.05-1l.17-4.16v-.78H17l-.06,1.27a4.51,4.51,0,0,1,.42-.61,1.84,1.84,0,0,1,.49-.41,2.6,2.6,0,0,1,.7-.3,3.24,3.24,0,0,1,.82-.11,2.25,2.25,0,0,1,.58.07,2.76,2.76,0,0,1,.53.19,2.19,2.19,0,0,1,.42.28,1.74,1.74,0,0,1,.28.34,2.76,2.76,0,0,1,.21.54,2.44,2.44,0,0,1,1-1.1,3,3,0,0,1,1.39-.32,2.85,2.85,0,0,1,1,.16,1.62,1.62,0,0,1,.73.45,1.47,1.47,0,0,1,.37.61,2.35,2.35,0,0,1,.09.64c0,.22,0,.55-.05,1s-.06,1.1-.11,2-.06,1.64-.06,2.23H24.5c.05-.61.09-1.28.13-2l.09-1.69c0-.41,0-.76,0-1.06a2,2,0,0,0-.08-.62,1.07,1.07,0,0,0-.26-.4,1.28,1.28,0,0,0-.45-.28,1.91,1.91,0,0,0-.61-.09,2.1,2.1,0,0,0-.51.06,2,2,0,0,0-.42.19,1.57,1.57,0,0,0-.4.32,1.6,1.6,0,0,0-.3.42,2.51,2.51,0,0,0-.22.57,7.29,7.29,0,0,0-.14,1c0,.43-.06,1-.07,1.68l-.06,1.91H20c0-.56.09-1.14.11-1.74l.09-1.65c0-.51,0-1,0-1.31a2,2,0,0,0-.07-.59,1,1,0,0,0-.26-.44,1.1,1.1,0,0,0-.45-.31,1.59,1.59,0,0,0-.59-.11,1.78,1.78,0,0,0-.65.12,2,2,0,0,0-.56.35,2.07,2.07,0,0,0-.44.57,3.34,3.34,0,0,0-.28.89,18.28,18.28,0,0,0-.16,1.92c0,.91-.05,1.68-.05,2.3H15.5Z"/><path class="cls-2" d="M31,121.7a4.41,4.41,0,0,1,1.37.21,2.8,2.8,0,0,1,1.84,1.77,4,4,0,0,1,.25,1.43,4.71,4.71,0,0,1-.26,1.55,3.7,3.7,0,0,1-.74,1.27,2.83,2.83,0,0,1-1.16.76,4.46,4.46,0,0,1-1.48.24,4.52,4.52,0,0,1-1.38-.21,3,3,0,0,1-1.12-.69,2.92,2.92,0,0,1-.72-1.14,4,4,0,0,1-.25-1.41,4.36,4.36,0,0,1,.45-2,3,3,0,0,1,1.33-1.34A4.15,4.15,0,0,1,31,121.7Zm0,.87a2.49,2.49,0,0,0-1.28.35,2,2,0,0,0-.86,1,4,4,0,0,0-.28,1.53,3.38,3.38,0,0,0,.23,1.3,2,2,0,0,0,.76.93,2.27,2.27,0,0,0,1.29.36,2.65,2.65,0,0,0,1-.18,1.94,1.94,0,0,0,.8-.58,2.59,2.59,0,0,0,.5-1,4.51,4.51,0,0,0,.16-1.23,3.77,3.77,0,0,0-.16-1.13,1.94,1.94,0,0,0-.5-.84,2,2,0,0,0-.77-.45A2.8,2.8,0,0,0,30.94,122.57Z"/><path class="cls-2" d="M37.62,128.78l-.23-.69c-.08-.22-.26-.73-.55-1.52l-1.72-4.71h1.27l.15.48.21.65,1.61,4.77,2.17-5.22.25-.68h1.29l-.88,1.91-1.79,4-.43,1H37.62Z"/><path class="cls-2" d="M48.33,127.7c-.06.25-.11.57-.17,1a9.45,9.45,0,0,1-1.13.23c-.32,0-.65.05-1,.05a5.23,5.23,0,0,1-1.54-.2,2.65,2.65,0,0,1-1.16-.72,2.83,2.83,0,0,1-.7-1.16,4.75,4.75,0,0,1,.18-3.28A3.07,3.07,0,0,1,44,122.2a3.63,3.63,0,0,1,2-.5,3.85,3.85,0,0,1,1.19.18,2.41,2.41,0,0,1,1,.55,2.54,2.54,0,0,1,.58.92,3.44,3.44,0,0,1,.2,1.18,2.45,2.45,0,0,1,0,.48H43.67q0,.38,0,.57a3,3,0,0,0,.3,1.33,2,2,0,0,0,.89.91,2.8,2.8,0,0,0,1.35.31A6.78,6.78,0,0,0,48.33,127.7Zm-4.61-3.26H47.8a4.85,4.85,0,0,0-.06-.67,1.72,1.72,0,0,0-.18-.49,1.37,1.37,0,0,0-.35-.45,1.58,1.58,0,0,0-.53-.28,2.11,2.11,0,0,0-.68-.1,2.29,2.29,0,0,0-.74.11,2.1,2.1,0,0,0-.62.3,1.79,1.79,0,0,0-.46.45,2.26,2.26,0,0,0-.28.49A4.88,4.88,0,0,0,43.72,124.44Z"/><path class="cls-2" d="M54,123c0-.2.08-.5.13-.89a11.69,11.69,0,0,1,1.43-.29,9.46,9.46,0,0,1,1.17-.08,5.36,5.36,0,0,1,1.16.12,2.31,2.31,0,0,1,.89.36,1.22,1.22,0,0,1,.47.58,2,2,0,0,1,.12.71c0,.31,0,.84-.08,1.58s-.08,1.42-.1,2,0,1.19,0,1.68H58l.15-1.86.1-2.21-.36.26a1.71,1.71,0,0,1-.27.14l-.33.12-.7.2-.75.22a4.31,4.31,0,0,0-.74.3,2.09,2.09,0,0,0-.46.33,1.16,1.16,0,0,0-.26.36,1.18,1.18,0,0,0-.09.46,1,1,0,0,0,.22.64,1.17,1.17,0,0,0,.55.38,2.69,2.69,0,0,0,.8.1,4.22,4.22,0,0,0,.6,0,4.44,4.44,0,0,0,.84-.2,6.87,6.87,0,0,0-.22.81q-.49.09-.81.12c-.21,0-.41,0-.6,0a4.07,4.07,0,0,1-1.46-.21,1.64,1.64,0,0,1-.79-.67,1.94,1.94,0,0,1-.26-1,1.47,1.47,0,0,1,.1-.56,1.51,1.51,0,0,1,.25-.47,1.81,1.81,0,0,1,.44-.43,3.42,3.42,0,0,1,.61-.35c.21-.09.46-.18.74-.27s.74-.21,1.36-.36a3.81,3.81,0,0,0,.52-.14,2.61,2.61,0,0,0,.37-.14,1.15,1.15,0,0,0,.29-.16A1.19,1.19,0,0,0,58,124a1.82,1.82,0,0,0,.15-.27.86.86,0,0,0,0-.28.84.84,0,0,0-.21-.57,1.15,1.15,0,0,0-.58-.33,2.9,2.9,0,0,0-.83-.1,5.75,5.75,0,0,0-.91.07c-.31.05-.58.11-.81.17Z"/><path class="cls-2" d="M69.61,131.87l.1-1.63c0-.4,0-.73,0-1l.08-1.86a5.84,5.84,0,0,1-.49.69,2.78,2.78,0,0,1-.54.44,3.32,3.32,0,0,1-.74.33,3.28,3.28,0,0,1-.84.11,2.91,2.91,0,0,1-1.17-.23,2.62,2.62,0,0,1-1-.66,2.71,2.71,0,0,1-.58-1,4,4,0,0,1-.2-1.24,4.43,4.43,0,0,1,.36-1.76,3.43,3.43,0,0,1,1-1.38,3.48,3.48,0,0,1,1.43-.73,6.94,6.94,0,0,1,1.75-.21c.25,0,.53,0,.84,0s.83.09,1.54.21l-.11,1.48L71,126.09l-.11,3.75,0,2H69.61Zm.33-9.13a5.17,5.17,0,0,0-.75-.14l-.5,0A3.58,3.58,0,0,0,67,123a2.52,2.52,0,0,0-1.12,1.16,3.85,3.85,0,0,0-.38,1.7,3,3,0,0,0,.22,1.13,1.88,1.88,0,0,0,.7.83,2,2,0,0,0,1.07.31,2.14,2.14,0,0,0,1.72-.86,3.15,3.15,0,0,0,.51-1,4.78,4.78,0,0,0,.13-.86C69.88,124.89,69.92,124,69.94,122.74Z"/><path class="cls-2" d="M79.23,128.78H78.09l0-1.32a4,4,0,0,1-.29.48,2.86,2.86,0,0,1-.29.33,4.33,4.33,0,0,1-.37.27,2.24,2.24,0,0,1-.44.19,3.89,3.89,0,0,1-.59.15,5.55,5.55,0,0,1-.72.05,3.59,3.59,0,0,1-1.43-.25,2,2,0,0,1-.9-.72,2.32,2.32,0,0,1-.3-1.27c0-.08,0-.22,0-.41s0-.46,0-.77l.12-2.28,0-.73c0-.17,0-.38,0-.64h1.22c-.07.8-.13,1.67-.19,2.62S74,126,74,126.3a2,2,0,0,0,.19,1,1.33,1.33,0,0,0,.65.55,2.59,2.59,0,0,0,1,.19,2.87,2.87,0,0,0,1-.17,2,2,0,0,0,.67-.43,2.22,2.22,0,0,0,.49-.76,3.31,3.31,0,0,0,.22-.88c0-.26.07-.72.1-1.4s.06-1.65.07-2.5h1.21c-.06.82-.13,2.07-.22,3.74C79.28,126.52,79.25,127.58,79.23,128.78Z"/><path class="cls-2" d="M81.51,123c0-.2.08-.5.13-.89a11.69,11.69,0,0,1,1.43-.29,9.46,9.46,0,0,1,1.17-.08,5.36,5.36,0,0,1,1.16.12,2.31,2.31,0,0,1,.89.36,1.22,1.22,0,0,1,.47.58,2,2,0,0,1,.12.71c0,.31,0,.84-.08,1.58s-.08,1.42-.1,2,0,1.19,0,1.68H85.43l.15-1.86.1-2.21-.36.26a1.71,1.71,0,0,1-.27.14l-.33.12c-.12,0-.35.11-.7.2l-.75.22a4.31,4.31,0,0,0-.74.3,2.09,2.09,0,0,0-.46.33,1.16,1.16,0,0,0-.26.36,1.18,1.18,0,0,0-.09.46,1,1,0,0,0,.22.64,1.17,1.17,0,0,0,.55.38,2.69,2.69,0,0,0,.8.1,4.22,4.22,0,0,0,.6,0,4.44,4.44,0,0,0,.84-.2,6.87,6.87,0,0,0-.22.81q-.49.09-.81.12c-.21,0-.41,0-.6,0a4.07,4.07,0,0,1-1.46-.21,1.64,1.64,0,0,1-.79-.67,1.94,1.94,0,0,1-.26-1,1.47,1.47,0,0,1,.1-.56,1.51,1.51,0,0,1,.25-.47,1.81,1.81,0,0,1,.44-.43,3.42,3.42,0,0,1,.61-.35c.21-.09.46-.18.74-.27s.74-.21,1.36-.36a3.45,3.45,0,0,0,.52-.14,2.61,2.61,0,0,0,.37-.14,1.15,1.15,0,0,0,.29-.16,1.19,1.19,0,0,0,.23-.22,1.82,1.82,0,0,0,.15-.27.86.86,0,0,0,0-.28.84.84,0,0,0-.21-.57,1.15,1.15,0,0,0-.58-.33,2.9,2.9,0,0,0-.83-.1,5.75,5.75,0,0,0-.91.07c-.31.05-.58.11-.81.17Z"/><path class="cls-2" d="M95,128.8l-.56,0h-.6l.08-1.47a6.49,6.49,0,0,1-.37.59,2.33,2.33,0,0,1-.38.39,2.47,2.47,0,0,1-.49.33,2.42,2.42,0,0,1-.64.23,2.87,2.87,0,0,1-.73.08,3.24,3.24,0,0,1-1.25-.24,2.59,2.59,0,0,1-1-.68,2.75,2.75,0,0,1-.58-1,4.28,4.28,0,0,1-.18-1.24,4.55,4.55,0,0,1,.34-1.69A3.53,3.53,0,0,1,91,121.91a6.25,6.25,0,0,1,1.64-.21,9.13,9.13,0,0,1,1.43.14c0-.5,0-.91,0-1.24v-1.15h1.24l-.2,3.86L95,127.74Zm-1-6.1a5.52,5.52,0,0,0-.7-.16l-.56,0a4,4,0,0,0-1.26.19,2.55,2.55,0,0,0-1,.62,2.77,2.77,0,0,0-.7,1.09,3.79,3.79,0,0,0-.25,1.3,2.9,2.9,0,0,0,.24,1.18,1.74,1.74,0,0,0,.72.86,2,2,0,0,0,1.14.32,2.3,2.3,0,0,0,.71-.11,1.91,1.91,0,0,0,.58-.31,2.45,2.45,0,0,0,.5-.55,3.32,3.32,0,0,0,.36-.81,5.7,5.7,0,0,0,.18-1.09l.06-1.29Z"/><path class="cls-2" d="M101.91,127.74c0,.08,0,.21-.07.41s-.08.39-.1.59a7.28,7.28,0,0,1-1,.15c-.31,0-.58,0-.81,0a4.58,4.58,0,0,1-1.37-.19,2.78,2.78,0,0,1-1.09-.66,2.67,2.67,0,0,1-.68-1.12,4.49,4.49,0,0,1-.22-1.42,5.11,5.11,0,0,1,.36-1.91,3,3,0,0,1,1.12-1.42,3.7,3.7,0,0,1,2.08-.51,7.14,7.14,0,0,1,1.9.26c0,.39.05.71.07,1a8.56,8.56,0,0,0-1.06-.28,4.21,4.21,0,0,0-.76-.07,2.44,2.44,0,0,0-1.07.22,2.15,2.15,0,0,0-.81.62,2.43,2.43,0,0,0-.49,1,4.73,4.73,0,0,0-.14,1.13,3.54,3.54,0,0,0,.24,1.35,1.73,1.73,0,0,0,.83.9,2.86,2.86,0,0,0,1.35.32A5.28,5.28,0,0,0,101.91,127.74Z"/><path class="cls-2" d="M106.87,121.7a4.41,4.41,0,0,1,1.37.21,2.8,2.8,0,0,1,1.84,1.77,4,4,0,0,1,.25,1.43,4.71,4.71,0,0,1-.26,1.55,3.7,3.7,0,0,1-.74,1.27,2.83,2.83,0,0,1-1.16.76,4.46,4.46,0,0,1-1.48.24,4.52,4.52,0,0,1-1.38-.21,3,3,0,0,1-1.12-.69,2.92,2.92,0,0,1-.72-1.14,4,4,0,0,1-.25-1.41,4.36,4.36,0,0,1,.45-2,3,3,0,0,1,1.33-1.34A4.15,4.15,0,0,1,106.87,121.7Zm0,.87a2.49,2.49,0,0,0-1.28.35,2,2,0,0,0-.86,1,4,4,0,0,0-.28,1.53,3.38,3.38,0,0,0,.23,1.3,2,2,0,0,0,.76.93,2.27,2.27,0,0,0,1.29.36,2.65,2.65,0,0,0,1-.18,1.85,1.85,0,0,0,.79-.58,2.47,2.47,0,0,0,.51-1,4.51,4.51,0,0,0,.16-1.23A3.77,3.77,0,0,0,109,124a1.94,1.94,0,0,0-.5-.84,2,2,0,0,0-.77-.45A2.8,2.8,0,0,0,106.84,122.57Z"/><path class="cls-2" d="M111.53,131.87c.09-1.17.17-2.77.25-4.8s.13-3.67.14-5c.75-.16,1.34-.27,1.79-.32a10.2,10.2,0,0,1,1.35-.09,4.74,4.74,0,0,1,1.85.34,2.45,2.45,0,0,1,1.23,1.19,4.17,4.17,0,0,1,.43,1.92,4.91,4.91,0,0,1-.2,1.44,3.72,3.72,0,0,1-.63,1.24,2.77,2.77,0,0,1-1,.83,3.19,3.19,0,0,1-1.33.27,3.33,3.33,0,0,1-.84-.1,2.62,2.62,0,0,1-.7-.28,2,2,0,0,1-.5-.38,4.13,4.13,0,0,1-.49-.64l-.08,2.71q0,.66,0,1v.67h-1.23Zm1.56-8.94,0,.51,0,.72c0,.37,0,.67,0,.91s0,.4,0,.49a4.22,4.22,0,0,0,.1,1,1.81,1.81,0,0,0,.43.82,2.14,2.14,0,0,0,.74.57,2.16,2.16,0,0,0,.89.19,2,2,0,0,0,1.17-.36,2.24,2.24,0,0,0,.81-1,3.92,3.92,0,0,0,.3-1.54,3.1,3.1,0,0,0-.31-1.45,1.87,1.87,0,0,0-.83-.88,2.46,2.46,0,0,0-1.17-.27A5.78,5.78,0,0,0,113.09,122.93Z"/><path class="cls-2" d="M123.41,127.88c0,.23-.11.52-.17.89a7.34,7.34,0,0,1-.73.14,4.79,4.79,0,0,1-.52,0,2.62,2.62,0,0,1-1-.15,1.21,1.21,0,0,1-.58-.49,1.85,1.85,0,0,1-.19-.92v-.27c0-.13,0-.57.07-1.33l.17-3.06h-.91c0-.19,0-.47,0-.82h.94c0-.26,0-.69.06-1.31.43-.08.79-.16,1.09-.23,0,.67,0,1.19-.06,1.54h1.9c0,.28,0,.56,0,.82h-1.89l-.18,3.85v.29a2,2,0,0,0,.11.75.79.79,0,0,0,.34.36,1.12,1.12,0,0,0,.47.11l.37,0A6.91,6.91,0,0,0,123.41,127.88Z"/><path class="cls-2" d="M130.08,127.7c-.06.25-.11.57-.16,1a10,10,0,0,1-1.14.23c-.32,0-.64.05-1,.05a5.27,5.27,0,0,1-1.54-.2,2.65,2.65,0,0,1-1.16-.72,2.83,2.83,0,0,1-.7-1.16,4.75,4.75,0,0,1,.18-3.28,3.07,3.07,0,0,1,1.17-1.37,3.65,3.65,0,0,1,2-.5,3.83,3.83,0,0,1,1.18.18,2.41,2.41,0,0,1,.95.55,2.54,2.54,0,0,1,.58.92,3.21,3.21,0,0,1,.2,1.18,2.45,2.45,0,0,1,0,.48h-5.21q0,.38,0,.57a3,3,0,0,0,.3,1.33,2,2,0,0,0,.89.91,2.8,2.8,0,0,0,1.35.31A6.78,6.78,0,0,0,130.08,127.7Zm-4.61-3.26h4.08a4.85,4.85,0,0,0-.06-.67,1.72,1.72,0,0,0-.18-.49,1.37,1.37,0,0,0-.35-.45,1.49,1.49,0,0,0-.53-.28,2.09,2.09,0,0,0-.67-.1,2.35,2.35,0,0,0-.75.11,2.1,2.1,0,0,0-.62.3,1.79,1.79,0,0,0-.46.45,2.26,2.26,0,0,0-.28.49A4.88,4.88,0,0,0,125.47,124.44Z"/><path class="cls-2" d="M131.82,128.78c.17-2.63.25-4.72.25-6.29v-.63h1.16l-.06,1.13a4.79,4.79,0,0,1,.45-.64,1.83,1.83,0,0,1,.44-.35,2.18,2.18,0,0,1,.56-.22,2.74,2.74,0,0,1,.64-.08,2.17,2.17,0,0,1,.57.07c0,.3,0,.64.05,1a2.79,2.79,0,0,0-.76-.11,1.81,1.81,0,0,0-.72.13,1.63,1.63,0,0,0-.58.4,2.27,2.27,0,0,0-.42.65,3.1,3.1,0,0,0-.21.78,15.36,15.36,0,0,0-.11,1.74c0,.62,0,1.27,0,2v.45h-1.22Z"/><path class="cls-2" d="M16,145.37a2.9,2.9,0,0,1-1.08-.91l1.14-.82a1.26,1.26,0,0,0,.55.52,1.76,1.76,0,0,0,.84.19,1.6,1.6,0,0,0,1.27-.51,2.12,2.12,0,0,0,.44-1.42v-6.77h1.4v6.78a4,4,0,0,1-.36,1.76,2.53,2.53,0,0,1-1.06,1.11,3.43,3.43,0,0,1-1.69.39A3.35,3.35,0,0,1,16,145.37Z"/><path class="cls-2" d="M23.22,145.14a2,2,0,0,1-.65-1.65,2,2,0,0,1,.6-1.58,2.62,2.62,0,0,1,1.79-.52h2l.1,1.12H25a1.22,1.22,0,0,0-.82.24,1,1,0,0,0-.27.74.92.92,0,0,0,.36.8,1.81,1.81,0,0,0,1.09.26,3.08,3.08,0,0,0,1.2-.17.56.56,0,0,0,.39-.53l.14,1a1.68,1.68,0,0,1-.45.47,2,2,0,0,1-.63.27,2.83,2.83,0,0,1-.8.1A3,3,0,0,1,23.22,145.14Zm3.7-4a1.54,1.54,0,0,0-.37-1.09,1.43,1.43,0,0,0-1.06-.38,2.62,2.62,0,0,0-.83.13,2.21,2.21,0,0,0-.72.36l-1-.7a2.68,2.68,0,0,1,1.06-.75,3.85,3.85,0,0,1,1.47-.27,3.33,3.33,0,0,1,1.51.31,2.15,2.15,0,0,1,1,.9,3,3,0,0,1,.32,1.43v4.55H26.92Z"/><path class="cls-2" d="M34.34,138.49h1.45l-2.66,7.09H32.07l-2.66-7.09h1.45l1.74,5.06Z"/><path class="cls-2" d="M37.47,145.14a2.42,2.42,0,0,1-.06-3.23,2.67,2.67,0,0,1,1.8-.52h2l.09,1.12h-2.1a1.2,1.2,0,0,0-.82.24,1,1,0,0,0-.27.74.92.92,0,0,0,.36.8,1.81,1.81,0,0,0,1.09.26,3,3,0,0,0,1.19-.17.56.56,0,0,0,.39-.53l.15,1a1.87,1.87,0,0,1-.46.47,2,2,0,0,1-.62.27,2.87,2.87,0,0,1-.8.1A2.94,2.94,0,0,1,37.47,145.14Zm3.69-4a1.5,1.5,0,0,0-.37-1.09,1.42,1.42,0,0,0-1-.38,2.68,2.68,0,0,0-.84.13,2.21,2.21,0,0,0-.72.36l-1-.7a2.61,2.61,0,0,1,1.06-.75,3.83,3.83,0,0,1,1.46-.27,3.38,3.38,0,0,1,1.52.31,2.18,2.18,0,0,1,.95.9,2.88,2.88,0,0,1,.33,1.43v4.55H41.16Z"/><path class="cls-2" d="M46.37,145.55a5.31,5.31,0,0,1-1.2-.41,5,5,0,0,1-1-.68l.87-1.07a4,4,0,0,0,1.25.74,4.46,4.46,0,0,0,1.48.24,3.07,3.07,0,0,0,1.68-.39,1.31,1.31,0,0,0,.59-1.14h0a1.22,1.22,0,0,0-.27-.83,1.66,1.66,0,0,0-.69-.45,7.53,7.53,0,0,0-1.11-.27h-.09l-.1,0a11.75,11.75,0,0,1-1.62-.39,2.17,2.17,0,0,1-1.07-.79,2.56,2.56,0,0,1-.45-1.62h0a2.83,2.83,0,0,1,.42-1.57,2.54,2.54,0,0,1,1.2-1,5,5,0,0,1,1.91-.34,4.57,4.57,0,0,1,1,.12,5.81,5.81,0,0,1,1,.34,7.27,7.27,0,0,1,1,.58l-.8,1.11a4.58,4.58,0,0,0-1.13-.63,3.21,3.21,0,0,0-1.13-.2,2.66,2.66,0,0,0-1.58.4,1.34,1.34,0,0,0-.57,1.15h0a1.13,1.13,0,0,0,.29.81,1.84,1.84,0,0,0,.73.43,11.55,11.55,0,0,0,1.21.29h.1l.07,0h.08a7.77,7.77,0,0,1,1.5.44,2.37,2.37,0,0,1,1,.81,2.62,2.62,0,0,1,.4,1.55h0a2.69,2.69,0,0,1-.43,1.55,2.63,2.63,0,0,1-1.24,1,5.32,5.32,0,0,1-2,.34A6.67,6.67,0,0,1,46.37,145.55Z"/><path class="cls-2" d="M54.44,145.32a2.42,2.42,0,0,1-1-1A3.55,3.55,0,0,1,53,142.6v-1.16a3.47,3.47,0,0,1,.37-1.65,2.42,2.42,0,0,1,1-1,3.62,3.62,0,0,1,1.65-.35,4,4,0,0,1,1,.13,3,3,0,0,1,.87.39,2.23,2.23,0,0,1,.65.61l-1,.9a2.21,2.21,0,0,0-.7-.52,1.92,1.92,0,0,0-.85-.19,1.69,1.69,0,0,0-1.25.45,1.77,1.77,0,0,0-.44,1.28v1.16a1.81,1.81,0,0,0,.44,1.3,1.63,1.63,0,0,0,1.25.46,1.93,1.93,0,0,0,.85-.2,2.09,2.09,0,0,0,.7-.56l1,1a2.37,2.37,0,0,1-.65.61,3.34,3.34,0,0,1-.88.38,4.36,4.36,0,0,1-1,.13A3.38,3.38,0,0,1,54.44,145.32Z"/><path class="cls-2" d="M60.2,138.49h1.4v7.09H60.2Zm3.44,1.34a1.64,1.64,0,0,0-.65-.12,1.27,1.27,0,0,0-1.39,1.38l-.15-1.36a2.52,2.52,0,0,1,.85-1,2,2,0,0,1,1.15-.35,2.46,2.46,0,0,1,.88.14,1.88,1.88,0,0,1,.68.41l-.9,1.23A1.24,1.24,0,0,0,63.64,139.83Z"/><path class="cls-2" d="M66.18,135.65h1.39V137H66.18Zm0,2.84h1.39v7.09H66.18Z"/><path class="cls-2" d="M69.69,138.49h1.4v10h-1.4Zm2,6.88a1.85,1.85,0,0,1-.72-.9l.1-1.48a1.73,1.73,0,0,0,.16.78,1.23,1.23,0,0,0,.47.49,1.61,1.61,0,0,0,.76.17,1.36,1.36,0,0,0,1.07-.42,1.73,1.73,0,0,0,.38-1.19v-1.54a1.81,1.81,0,0,0-.38-1.21,1.37,1.37,0,0,0-1.07-.43,1.61,1.61,0,0,0-.76.17,1.15,1.15,0,0,0-.47.48,1.64,1.64,0,0,0-.16.76l-.15-1.36a2.48,2.48,0,0,1,.84-1,2,2,0,0,1,1.16-.34,2.34,2.34,0,0,1,1.29.34,2.08,2.08,0,0,1,.81,1,3.93,3.93,0,0,1,.28,1.57v1.54a3.83,3.83,0,0,1-.28,1.55,2.25,2.25,0,0,1-.84,1,2.58,2.58,0,0,1-1.33.34A2.12,2.12,0,0,1,71.71,145.37Z"/><path class="cls-2" d="M76.76,138.49H80v1.26h-3.2Zm1.13,6.65a2.09,2.09,0,0,1-.4-1.4v-7.32h1.39v7.33a.64.64,0,0,0,.11.4.34.34,0,0,0,.3.14H80v1.33h-.81A1.56,1.56,0,0,1,77.89,145.14Z"/><path class="cls-2" d="M81.63,144.12H83.1v2.22l-1.47,1.51Z"/><path class="cls-2" d="M88.94,135.65h1.4v9.93h-1.4Zm.87,4.38h5.52v1.32H89.81Zm4.78-4.38H96v9.93H94.59Z"/><path class="cls-2" d="M97.62,135.65h7V137h-7Zm2.81.81h1.4v9.12h-1.4Z"/><path class="cls-2" d="M113.15,135.65h1.3v9.93h-1.36v-7.44l.07.44-2.45,5.62h-1l-2.44-5.49.06-.57v7.44H106v-9.93h1.31l2.92,6.56Z"/><path class="cls-2" d="M116.91,135.65h1.4v9.93h-1.4Zm.7,8.61h5.69v1.32h-5.69Z"/><path class="cls-2" d="M124.56,144.12H126v2.22l-1.47,1.51Z"/><path class="cls-2" d="M133.31,145.23a3.1,3.1,0,0,1-1.21-1.3,4.18,4.18,0,0,1-.43-2v-2.73a4.17,4.17,0,0,1,.43-1.94,3.13,3.13,0,0,1,1.21-1.31,3.58,3.58,0,0,1,1.81-.46,3.37,3.37,0,0,1,2.78,1.4,4,4,0,0,1,.65,1.56h-1.43a2.39,2.39,0,0,0-.43-.84,2.16,2.16,0,0,0-.72-.56,1.93,1.93,0,0,0-.85-.2,1.88,1.88,0,0,0-1.06.3,1.9,1.9,0,0,0-.71.82,2.79,2.79,0,0,0-.26,1.23V142a2.79,2.79,0,0,0,.26,1.23,1.93,1.93,0,0,0,.71.83,2,2,0,0,0,1.06.29,2,2,0,0,0,.86-.19,2,2,0,0,0,.71-.54,2.29,2.29,0,0,0,.43-.87h1.43a3.9,3.9,0,0,1-.66,1.56,3.37,3.37,0,0,1-2.77,1.4A3.58,3.58,0,0,1,133.31,145.23Z"/><path class="cls-2" d="M141.88,145.55a5.23,5.23,0,0,1-1.19-.41,5.1,5.1,0,0,1-1.05-.68l.87-1.07a4.09,4.09,0,0,0,1.25.74,4.48,4.48,0,0,0,1.49.24,3.06,3.06,0,0,0,1.67-.39,1.29,1.29,0,0,0,.59-1.14h0a1.22,1.22,0,0,0-.27-.83,1.66,1.66,0,0,0-.69-.45,7.53,7.53,0,0,0-1.11-.27h-.09l-.1,0a12.12,12.12,0,0,1-1.62-.39,2.17,2.17,0,0,1-1.07-.79,2.56,2.56,0,0,1-.45-1.62h0a2.83,2.83,0,0,1,.42-1.57,2.59,2.59,0,0,1,1.2-1,5,5,0,0,1,1.91-.34,4.57,4.57,0,0,1,1.05.12,5.31,5.31,0,0,1,1,.34,6.71,6.71,0,0,1,1,.58l-.8,1.11a4.41,4.41,0,0,0-1.13-.63,3.17,3.17,0,0,0-1.13-.2,2.68,2.68,0,0,0-1.58.4,1.33,1.33,0,0,0-.56,1.15h0a1.09,1.09,0,0,0,.29.81,1.73,1.73,0,0,0,.72.43,11.55,11.55,0,0,0,1.21.29h.1l.07,0H144a8.12,8.12,0,0,1,1.51.44,2.4,2.4,0,0,1,1,.81,2.62,2.62,0,0,1,.41,1.55h0a2.69,2.69,0,0,1-.44,1.55,2.63,2.63,0,0,1-1.24,1,5.26,5.26,0,0,1-2,.34A6.7,6.7,0,0,1,141.88,145.55Z"/><path class="cls-2" d="M150.23,145.55a5.14,5.14,0,0,1-1.2-.41,5,5,0,0,1-1-.68l.87-1.07a4,4,0,0,0,1.25.74,4.42,4.42,0,0,0,1.48.24,3.07,3.07,0,0,0,1.68-.39,1.31,1.31,0,0,0,.59-1.14h0a1.22,1.22,0,0,0-.27-.83,1.63,1.63,0,0,0-.7-.45,7.06,7.06,0,0,0-1.1-.27h-.09l-.1,0a11.4,11.4,0,0,1-1.62-.39,2.17,2.17,0,0,1-1.07-.79,2.56,2.56,0,0,1-.45-1.62h0a2.91,2.91,0,0,1,.41-1.57,2.62,2.62,0,0,1,1.21-1,5,5,0,0,1,1.91-.34,4.7,4.7,0,0,1,1,.12,5.81,5.81,0,0,1,1,.34,6.63,6.63,0,0,1,1,.58l-.79,1.11a4.58,4.58,0,0,0-1.13-.63,3.21,3.21,0,0,0-1.13-.2,2.66,2.66,0,0,0-1.58.4,1.34,1.34,0,0,0-.57,1.15h0a1.13,1.13,0,0,0,.29.81,1.84,1.84,0,0,0,.73.43,11.91,11.91,0,0,0,1.2.29h.11l.07,0h.08a7.77,7.77,0,0,1,1.5.44,2.43,2.43,0,0,1,1,.81,2.62,2.62,0,0,1,.4,1.55h0a2.69,2.69,0,0,1-.43,1.55,2.66,2.66,0,0,1-1.25,1,5.23,5.23,0,0,1-2,.34A6.6,6.6,0,0,1,150.23,145.55Z"/><path class="cls-2" d="M156.44,144.12h1.46v2.22l-1.46,1.51Z"/><path class="cls-2" d="M163.75,135.64h1.39v9.94h-1.39Zm.6,4.41h3.4a1.24,1.24,0,0,0,1.17-.73,1.75,1.75,0,0,0,.17-.81,1.73,1.73,0,0,0-.17-.81,1.14,1.14,0,0,0-.47-.54,1.27,1.27,0,0,0-.7-.2h-3.4v-1.32h3.34a3.24,3.24,0,0,1,1.52.35,2.58,2.58,0,0,1,1,1,3.31,3.31,0,0,1,0,3,2.58,2.58,0,0,1-1,1,3.2,3.2,0,0,1-1.51.35h-3.34Zm2.71,1,1.39-.31,2.54,4.82h-1.65Z"/><path class="cls-2" d="M174.05,145.23a3.14,3.14,0,0,1-1.22-1.28,4.13,4.13,0,0,1-.44-1.93v-2.81a4.13,4.13,0,0,1,.44-1.93,3.14,3.14,0,0,1,1.22-1.28,3.89,3.89,0,0,1,3.67,0,3.1,3.1,0,0,1,1.23,1.28,4.13,4.13,0,0,1,.43,1.93V142A4.13,4.13,0,0,1,179,144a3.1,3.1,0,0,1-1.23,1.28,3.89,3.89,0,0,1-3.67,0ZM177,144a1.9,1.9,0,0,0,.72-.79,2.47,2.47,0,0,0,.26-1.18v-2.91a2.47,2.47,0,0,0-.26-1.18,1.9,1.9,0,0,0-.72-.79,2.11,2.11,0,0,0-1.08-.27,2.18,2.18,0,0,0-1.09.27,1.9,1.9,0,0,0-.72.79,2.6,2.6,0,0,0-.26,1.18v2.91a2.6,2.6,0,0,0,.26,1.18,1.9,1.9,0,0,0,.72.79,2.18,2.18,0,0,0,1.09.27A2.11,2.11,0,0,0,177,144Z"/><path class="cls-2" d="M183,145.55a5.14,5.14,0,0,1-1.2-.41,5,5,0,0,1-1-.68l.87-1.07a3.87,3.87,0,0,0,1.25.74,4.42,4.42,0,0,0,1.48.24A3,3,0,0,0,186,144a1.3,1.3,0,0,0,.6-1.14h0a1.22,1.22,0,0,0-.27-.83,1.63,1.63,0,0,0-.7-.45,7.06,7.06,0,0,0-1.1-.27h-.09l-.1,0a11.94,11.94,0,0,1-1.63-.39,2.26,2.26,0,0,1-1.07-.79,2.62,2.62,0,0,1-.44-1.62h0a2.91,2.91,0,0,1,.41-1.57,2.62,2.62,0,0,1,1.21-1,4.94,4.94,0,0,1,1.91-.34,4.7,4.7,0,0,1,1.05.12,5.46,5.46,0,0,1,1,.34,6.24,6.24,0,0,1,1,.58l-.79,1.11a4.76,4.76,0,0,0-1.13-.63,3.25,3.25,0,0,0-1.13-.2,2.71,2.71,0,0,0-1.59.4,1.35,1.35,0,0,0-.56,1.15h0a1.13,1.13,0,0,0,.29.81,1.8,1.8,0,0,0,.72.43,12.22,12.22,0,0,0,1.21.29h.1l.08,0h.07a7.68,7.68,0,0,1,1.51.44,2.34,2.34,0,0,1,1,.81,2.62,2.62,0,0,1,.41,1.55h0a2.69,2.69,0,0,1-.43,1.55,2.66,2.66,0,0,1-1.25,1,5.23,5.23,0,0,1-2,.34A6.6,6.6,0,0,1,183,145.55Z"/></g></g></svg>