<svg xmlns="http://www.w3.org/2000/svg" viewBox="0 0 285.22 158.25"><defs><style>.cls-1{fill:#fff;stroke:#231f20;stroke-miterlimit:10;stroke-width:2px;}.cls-2{fill:#231f20;}</style></defs><g id="Layer_2" data-name="Layer 2"><g id="Layer_1-2" data-name="Layer 1"><rect class="cls-1" x="1" y="1" width="283.22" height="156.25"/><path class="cls-2" d="M16.1,34.72q.57-5.46.67-12L12,22.82l.06-1.24c0-.67,0-1.4.07-2.19l7.43,0h6.93l-.07,1.1c0,.59-.05,1.07-.06,1.46s0,.68,0,.87q-2.4-.12-4-.12h-.78c-.12,1.32-.2,2.54-.26,3.66-.09,1.61-.15,3.17-.2,4.68s-.06,2.74-.06,3.68l-2.38,0Z"/><path class="cls-2" d="M38.27,31.32c-.09.45-.28,1.54-.56,3.26a21.45,21.45,0,0,1-2.19.34,17.73,17.73,0,0,1-1.79.09,14.29,14.29,0,0,1-2.46-.19,5.68,5.68,0,0,1-1.94-.65A4.89,4.89,0,0,1,28,33a5,5,0,0,1-.83-1.66,7,7,0,0,1-.29-2,7.28,7.28,0,0,1,.57-2.81,5.74,5.74,0,0,1,1.48-2.15A5.48,5.48,0,0,1,31,23.28,9.35,9.35,0,0,1,33.39,23a10.19,10.19,0,0,1,2.44.29,4.56,4.56,0,0,1,2,1A4.33,4.33,0,0,1,39,26a5.74,5.74,0,0,1,.35,2,7.63,7.63,0,0,1-.15,1.42H31.28c0,.12,0,.23,0,.33a2,2,0,0,0,.86,1.78,3.76,3.76,0,0,0,2.11.57,9.11,9.11,0,0,0,1.69-.18A20.47,20.47,0,0,0,38.27,31.32Zm-6.9-3.62h3.7c0-.13,0-.24,0-.33a2.35,2.35,0,0,0-.2-1,1.31,1.31,0,0,0-.6-.61,2,2,0,0,0-1.52-.08,2,2,0,0,0-.57.31,1.91,1.91,0,0,0-.42.48,3,3,0,0,0-.25.52A6.42,6.42,0,0,0,31.37,27.7Z"/><path class="cls-2" d="M40.74,34.72,41,32.3l.43-8.4.12-4.51,2.35,0,2.26,0-.25,3.44-.42,8.49-.09,3.4-2.17,0Z"/><path class="cls-2" d="M59,31.32c-.1.45-.29,1.54-.57,3.26a20.64,20.64,0,0,1-2.19.34,17.73,17.73,0,0,1-1.79.09A14.46,14.46,0,0,1,52,34.82a5.68,5.68,0,0,1-1.94-.65A4.72,4.72,0,0,1,48.7,33a4.81,4.81,0,0,1-.84-1.66,7,7,0,0,1-.29-2,7.28,7.28,0,0,1,.57-2.81,5.74,5.74,0,0,1,1.48-2.15,5.45,5.45,0,0,1,2.09-1.1A9.27,9.27,0,0,1,54.12,23a10.19,10.19,0,0,1,2.44.29,4.56,4.56,0,0,1,2,1A4.22,4.22,0,0,1,59.68,26,5.74,5.74,0,0,1,60,28a7.63,7.63,0,0,1-.15,1.42H52c0,.12,0,.23,0,.33a2,2,0,0,0,.86,1.78,3.76,3.76,0,0,0,2.11.57,9.11,9.11,0,0,0,1.69-.18A20.57,20.57,0,0,0,59,31.32ZM52.1,27.7h3.71c0-.13,0-.24,0-.33a2.2,2.2,0,0,0-.21-1,1.31,1.31,0,0,0-.6-.61,2,2,0,0,0-1.52-.08,2,2,0,0,0-.57.31,2.41,2.41,0,0,0-.42.48,2.37,2.37,0,0,0-.24.52A4.54,4.54,0,0,0,52.1,27.7Z"/><path class="cls-2" d="M71.07,31.13q-.06.45-.27,1.65l-.29,1.8a14.94,14.94,0,0,1-3.45.43,8.14,8.14,0,0,1-2.15-.25,4.9,4.9,0,0,1-1.95-1,4.51,4.51,0,0,1-1.29-1.81,7.47,7.47,0,0,1-.49-2.74,7.71,7.71,0,0,1,.48-2.69,5.07,5.07,0,0,1,1.39-2.12,4.7,4.7,0,0,1,2-1.13A10.12,10.12,0,0,1,67.57,23c.54,0,1.07,0,1.61.08a16.6,16.6,0,0,1,2,.37l0,.25c0,.27,0,.55,0,.83s0,.72.07,1.33l.07,1a8.88,8.88,0,0,0-2.84-.56A3.31,3.31,0,0,0,67,26.6a2.16,2.16,0,0,0-1,1,3.25,3.25,0,0,0-.32,1.5A3.29,3.29,0,0,0,66,30.54a1.82,1.82,0,0,0,.92.87,3.17,3.17,0,0,0,1.38.3,6.47,6.47,0,0,0,.9-.08c.35-.06.66-.11.91-.18A8.37,8.37,0,0,0,71.07,31.13Z"/><path class="cls-2" d="M79.81,23a8.54,8.54,0,0,1,2.68.42,6.17,6.17,0,0,1,2.18,1.23A4.94,4.94,0,0,1,86,26.49a6,6,0,0,1,.43,2.31A6.9,6.9,0,0,1,86,31.08a5.66,5.66,0,0,1-1.27,2,5.52,5.52,0,0,1-2.29,1.43,9.15,9.15,0,0,1-2.94.47,9,9,0,0,1-2.74-.42,5.81,5.81,0,0,1-2.19-1.21,5.11,5.11,0,0,1-1.33-1.91,6.48,6.48,0,0,1,0-4.67,5.55,5.55,0,0,1,1.37-2,6.43,6.43,0,0,1,2.32-1.37A9,9,0,0,1,79.81,23Zm-.07,3.3a2.21,2.21,0,0,0-2.13,1.45,4.2,4.2,0,0,0-.29,1.56,2.67,2.67,0,0,0,.62,1.89,2,2,0,0,0,1.55.66,2.26,2.26,0,0,0,1.27-.38,2.31,2.31,0,0,0,.85-1.11,4.34,4.34,0,0,0,.28-1.58,3.4,3.4,0,0,0-.22-1.26,1.89,1.89,0,0,0-.74-.89A2.08,2.08,0,0,0,79.74,26.26Z"/><path class="cls-2" d="M88.09,34.72l.32-5.42.17-4.23,0-1.82,2.18,0,2.07,0-.07,1.49a7.16,7.16,0,0,1,.59-.69,3.27,3.27,0,0,1,.59-.46,4.25,4.25,0,0,1,.71-.35,5.94,5.94,0,0,1,.83-.2,5.08,5.08,0,0,1,1-.08,5.82,5.82,0,0,1,1.06.09,5.61,5.61,0,0,1,.83.24,2.85,2.85,0,0,1,.6.34,2.37,2.37,0,0,1,.46.43,5,5,0,0,1,.45.71,3.72,3.72,0,0,1,2.3-1.64,6.3,6.3,0,0,1,1.44-.17,5.92,5.92,0,0,1,1.85.28,3,3,0,0,1,1.42,1,2.77,2.77,0,0,1,.55,1.79c0,.35,0,.87-.07,1.56s-.12,1.89-.21,3.59S107,34,107,34.72l-2,0-2.46,0c.07-1,.15-2.15.23-3.58s.12-2.43.12-3a2.72,2.72,0,0,0-.17-1.09,1,1,0,0,0-.43-.49,1.27,1.27,0,0,0-.58-.13,1.35,1.35,0,0,0-.59.12,1.25,1.25,0,0,0-.47.42,3.15,3.15,0,0,0-.44.94,7.82,7.82,0,0,0-.22,1.35q-.08.91-.12,2.43l-.09,3-2.16,0-2.33,0q.1-1,.24-3.36c.09-1.57.14-2.63.14-3.16a2.86,2.86,0,0,0-.14-1,1.41,1.41,0,0,0-.37-.54,1,1,0,0,0-.65-.2,1.19,1.19,0,0,0-.76.26,2.09,2.09,0,0,0-.56.74,4.24,4.24,0,0,0-.32,1.33c-.07.57-.13,1.43-.18,2.59s-.08,2.28-.1,3.35l-2.2,0Z"/><path class="cls-2" d="M128.66,31c-.09.44-.2,1.05-.33,1.84s-.21,1.4-.26,1.83a29.24,29.24,0,0,1-4.29.36,11.8,11.8,0,0,1-3.38-.46,8.25,8.25,0,0,1-2.88-1.49,6,6,0,0,1-1.87-2.44,9.14,9.14,0,0,1,.2-6.8A7,7,0,0,1,118,21.11a9,9,0,0,1,3.11-1.55,13.21,13.21,0,0,1,3.51-.47,25.16,25.16,0,0,1,4.11.43l0,.94c0,.42,0,.87.07,1.36l.08,1.28a21.62,21.62,0,0,0-2.13-.42,10.41,10.41,0,0,0-1.51-.12,6.09,6.09,0,0,0-2.73.61,4.51,4.51,0,0,0-1.91,1.76,4.83,4.83,0,0,0-.7,2.56,3.88,3.88,0,0,0,2.16,3.62,5.53,5.53,0,0,0,2.46.49,13.61,13.61,0,0,0,1.73-.12A23.86,23.86,0,0,0,128.66,31Z"/><path class="cls-2" d="M130.6,34.72c.12-1.12.21-2,.26-2.76.1-1.5.21-3.25.33-5.24.06-1.32.11-2.58.15-3.8s0-2.39,0-3.53l2.32,0,2.29,0-.23,2.71q-.06.67-.18,2.73a7.56,7.56,0,0,1,.61-.7,3.66,3.66,0,0,1,1.79-1,6.44,6.44,0,0,1,.85-.16,7.83,7.83,0,0,1,2.81.16,3.67,3.67,0,0,1,1.52.74,2.78,2.78,0,0,1,.85,1.19,4.45,4.45,0,0,1,.23,1.45c0,.2,0,.47,0,.8s0,.75-.07,1.26l-.25,3.79c0,.47,0,.86,0,1.17s0,.7,0,1.18l-2.23,0-2.44,0q.19-1.5.33-3.45c.1-1.3.15-2.26.15-2.9a2,2,0,0,0-.44-1.48,1.62,1.62,0,0,0-1.18-.43,2.45,2.45,0,0,0-1.16.27,2.16,2.16,0,0,0-.78.73,3.58,3.58,0,0,0-.49,1.2,19.71,19.71,0,0,0-.35,2.82c0,.69-.08,1.77-.13,3.24l-2.12,0Z"/><path class="cls-2" d="M158.89,34.72l-2.13,0-2.13,0V33.18a8.61,8.61,0,0,1-.68.76,4.61,4.61,0,0,1-.62.44,3.6,3.6,0,0,1-.74.33,5.43,5.43,0,0,1-.94.22,7.85,7.85,0,0,1-1.08.08,6.44,6.44,0,0,1-1.68-.21,3.69,3.69,0,0,1-1.4-.7,2.52,2.52,0,0,1-.81-1.12,4.37,4.37,0,0,1-.22-1.47c0-.13,0-.34,0-.62l.18-2.55c.05-.94.1-2,.15-3.11,0-.7,0-1.36,0-2l2.37,0,2.18,0-.35,4.28c-.05.65-.08,1.09-.08,1.33s0,.39,0,.48a2.07,2.07,0,0,0,.48,1.59,1.67,1.67,0,0,0,1.14.42,2,2,0,0,0,.54-.08,2.17,2.17,0,0,0,.52-.23,2,2,0,0,0,.39-.33,2.46,2.46,0,0,0,.34-.52,3.42,3.42,0,0,0,.27-.8,11.43,11.43,0,0,0,.19-1.5c0-.44.07-1.21.12-2.29l.09-2.35,2.38,0,2.1,0c-.17,1.9-.31,3.71-.4,5.42S158.94,32.4,158.89,34.72Z"/><path class="cls-2" d="M161.42,34.72l.34-5,.12-2.86c0-.52,0-1.05,0-1.59s0-1.22,0-2l2.16,0,2.15,0,0,1.27a7.44,7.44,0,0,1,.72-.74,4.49,4.49,0,0,1,.64-.44,3.42,3.42,0,0,1,.75-.29,3.68,3.68,0,0,1,.82-.09,3.8,3.8,0,0,1,.9.11c0,.82,0,1.49.06,2l.08,1.73a4.21,4.21,0,0,0-1.16-.18,3.09,3.09,0,0,0-1.16.2,2.53,2.53,0,0,0-.87.59,3,3,0,0,0-.6,1,7.13,7.13,0,0,0-.31,1.88c-.06.86-.09,1.85-.09,3,0,.39,0,.87,0,1.45-.73,0-1.46,0-2.2,0Z"/><path class="cls-2" d="M171.2,34.72c.21-1.7.38-3.58.49-5.64s.19-4,.21-5.83l2.33,0,2.18,0-.11,1.53a6.89,6.89,0,0,1,.64-.66,4,4,0,0,1,.66-.47,4.32,4.32,0,0,1,.85-.38,6.71,6.71,0,0,1,1-.23,8.09,8.09,0,0,1,1.12-.08,7.5,7.5,0,0,1,1.58.17,4.24,4.24,0,0,1,1.29.5,3,3,0,0,1,.86.79,2.58,2.58,0,0,1,.46,1,5.35,5.35,0,0,1,.11,1.13c0,.29,0,.9-.09,1.85l-.19,4.06c0,.8-.06,1.54-.06,2.23l-2.12,0q-1.33,0-2.43,0c.07-.69.14-1.7.21-3s.12-2.29.12-2.84a2.57,2.57,0,0,0-.49-1.77,1.67,1.67,0,0,0-1.23-.5,2.1,2.1,0,0,0-1.24.43,2.73,2.73,0,0,0-.89,1.24,9.87,9.87,0,0,0-.44,2.68c-.09,1.24-.15,2.51-.18,3.8l-2.19,0Z"/><path class="cls-2" d="M12.74,62.32,13,59.44l.29-5.62.12-4c0-.43,0-.85,0-1.28s0-.85,0-1.58l2.38,0c.58,0,1.37,0,2.37-.05s1.86,0,2.55,0a9.31,9.31,0,0,1,2.23.19,4.13,4.13,0,0,1,1.31.6,3.85,3.85,0,0,1,1,1,4.2,4.2,0,0,1,.57,1.25,5.55,5.55,0,0,1-.54,4.19A4.51,4.51,0,0,1,23.16,56a7,7,0,0,1-3,.62,8.58,8.58,0,0,1-1.4-.14c-.06-.34-.17-.85-.34-1.54s-.3-1.18-.4-1.51a4.93,4.93,0,0,0,1,.1A2.29,2.29,0,0,0,20.76,53a1.78,1.78,0,0,0,.56-1.33,1.83,1.83,0,0,0-.13-.68,1.07,1.07,0,0,0-.39-.48,1.45,1.45,0,0,0-.6-.25,4,4,0,0,0-.74-.06l-.84,0-.94.07c-.1,1.45-.17,3-.23,4.82-.09,3.22-.14,5.15-.14,5.8v1.46l-2.24,0Z"/><path class="cls-2" d="M27.22,62.32l.35-5,.11-2.86c0-.52,0-1,0-1.59s0-1.22,0-2l2.16,0,2.14,0,0,1.27a9,9,0,0,1,.71-.74,3.89,3.89,0,0,1,.65-.44,3.42,3.42,0,0,1,.75-.29,3.62,3.62,0,0,1,.82-.09,3.8,3.8,0,0,1,.9.11c0,.82,0,1.49.05,2l.08,1.73a4.09,4.09,0,0,0-1.15-.18,3.09,3.09,0,0,0-1.16.2,2.44,2.44,0,0,0-.87.59,3,3,0,0,0-.6,1,7.13,7.13,0,0,0-.31,1.88c-.06.86-.09,1.85-.09,3,0,.39,0,.87,0,1.45q-1.09,0-2.19,0Z"/><path class="cls-2" d="M48.23,58.92c-.09.45-.28,1.54-.56,3.26a21,21,0,0,1-2.19.34,17.73,17.73,0,0,1-1.79.09,14.46,14.46,0,0,1-2.46-.19,5.68,5.68,0,0,1-1.94-.65,4.72,4.72,0,0,1-1.36-1.18,4.81,4.81,0,0,1-.84-1.66,7,7,0,0,1-.29-2,7.28,7.28,0,0,1,.57-2.81A5.74,5.74,0,0,1,38.85,52a5.48,5.48,0,0,1,2.08-1.1,9.4,9.4,0,0,1,2.42-.32,10.19,10.19,0,0,1,2.44.29,4.56,4.56,0,0,1,2,1,4.22,4.22,0,0,1,1.15,1.68,5.74,5.74,0,0,1,.35,2A7.63,7.63,0,0,1,49.11,57H41.24c0,.12,0,.23,0,.33a2,2,0,0,0,.86,1.78,3.76,3.76,0,0,0,2.11.57,9.11,9.11,0,0,0,1.69-.18A20,20,0,0,0,48.23,58.92Zm-6.9-3.62H45c0-.13,0-.24,0-.33a2.2,2.2,0,0,0-.21-1,1.31,1.31,0,0,0-.6-.61,2,2,0,0,0-1.52-.08,2,2,0,0,0-.57.31,2.13,2.13,0,0,0-.42.48,2.37,2.37,0,0,0-.24.52A4.54,4.54,0,0,0,41.33,55.3Z"/><path class="cls-2" d="M63.38,62.32l-2,0-2.18,0,.06-1.43c-.29.28-.55.51-.76.69a4.05,4.05,0,0,1-.84.51,4.93,4.93,0,0,1-1.1.38,5.43,5.43,0,0,1-1.22.14,5,5,0,0,1-2-.4,4.43,4.43,0,0,1-1.6-1.11,4.82,4.82,0,0,1-1-1.72,6.49,6.49,0,0,1-.33-2.06,7.73,7.73,0,0,1,.6-3,6.06,6.06,0,0,1,1.56-2.28,5.69,5.69,0,0,1,2.16-1.17,9.54,9.54,0,0,1,2.62-.34,15.36,15.36,0,0,1,2.18.17c.06-.9.1-2.14.12-3.74l2.25,0,2.29,0q-.31,3.33-.57,8.14T63.38,62.32Zm-4-8.67a5,5,0,0,0-1.12-.14,3.82,3.82,0,0,0-1.86.42,2.72,2.72,0,0,0-1.17,1.32A4.08,4.08,0,0,0,54.8,57,2.8,2.8,0,0,0,55,58.18a1.81,1.81,0,0,0,.7.82,2,2,0,0,0,2.2,0,2.51,2.51,0,0,0,.83-1,5.18,5.18,0,0,0,.44-1.61C59.29,55.72,59.34,54.82,59.37,53.65Z"/><path class="cls-2" d="M65.83,62.32c.11-.92.18-1.67.24-2.26s.1-1.35.15-2.27.09-1.94.13-3,.06-2.42.09-3.89l2.33,0,2.3,0c-.13,1.41-.23,2.66-.28,3.73s-.1,2.2-.11,3.4c0,2.13-.05,3.57-.05,4.34l-2.3,0Zm.71-12.91c0-.89.07-1.59.07-2.11,0-.15,0-.35,0-.61l2.28,0q1.26,0,2.22,0c0,.24,0,.43,0,.59L71,48.67c0,.21,0,.46,0,.74l-2.13,0Z"/><path class="cls-2" d="M82.64,58.73q0,.45-.27,1.65l-.29,1.8a14.81,14.81,0,0,1-3.45.43,8.06,8.06,0,0,1-2.14-.25,4.83,4.83,0,0,1-1.95-1,4.44,4.44,0,0,1-1.3-1.81,7.47,7.47,0,0,1-.48-2.74,7.93,7.93,0,0,1,.47-2.69A5.18,5.18,0,0,1,74.63,52a4.7,4.7,0,0,1,2-1.13,10.12,10.12,0,0,1,2.48-.28,14.59,14.59,0,0,1,1.61.08,17,17,0,0,1,2,.37l0,.25c0,.27,0,.55,0,.83s0,.72.07,1.33l.07,1a8.88,8.88,0,0,0-2.84-.56,3.38,3.38,0,0,0-1.56.34,2.26,2.26,0,0,0-1,1,3.38,3.38,0,0,0-.32,1.5,3.28,3.28,0,0,0,.29,1.45,1.82,1.82,0,0,0,.92.87,3.17,3.17,0,0,0,1.38.3,6.6,6.6,0,0,0,.9-.08c.35-.06.65-.11.91-.18A7.75,7.75,0,0,0,82.64,58.73Z"/><path class="cls-2" d="M93.07,59c-.14.63-.26,1.25-.35,1.85l-.25,1.37c-.74.16-1.32.26-1.73.31s-.82.07-1.21.07a7.88,7.88,0,0,1-1.7-.17,2.62,2.62,0,0,1-1.23-.59,2.24,2.24,0,0,1-.68-1,4,4,0,0,1-.18-1.2c0-.07,0-.2,0-.39s0-.62.08-1.28l.25-3.88H84.33c0-.52.07-1.2.1-2l0-1h1.86c.05-.35.1-1.1.17-2.26l1.92-.39c.36-.07,1.11-.24,2.25-.52,0,1-.09,2-.11,3.17h2.56Q93,53.35,93,54.11H90.44l-.14,2.8c0,.42,0,.69,0,.81a2.88,2.88,0,0,0,.12.9.87.87,0,0,0,.41.52,1.45,1.45,0,0,0,.66.15,3.6,3.6,0,0,0,.56,0A7.3,7.3,0,0,0,93.07,59Z"/><path class="cls-2" d="M94.44,62.32c.1-.92.18-1.67.23-2.26s.1-1.35.15-2.27.09-1.94.13-3,.07-2.42.09-3.89l2.34,0,2.29,0c-.13,1.41-.22,2.66-.28,3.73s-.09,2.2-.11,3.4c0,2.13,0,3.57,0,4.34l-2.3,0Zm.7-12.91c0-.89.07-1.59.07-2.11,0-.15,0-.35,0-.61l2.28,0q1.27,0,2.22,0c0,.24,0,.43,0,.59l-.07,1.39c0,.21,0,.46,0,.74l-2.14,0Z"/><path class="cls-2" d="M108.36,50.56A8.59,8.59,0,0,1,111,51a6.12,6.12,0,0,1,2.17,1.23,5,5,0,0,1,1.31,1.88,6.24,6.24,0,0,1,.42,2.31,6.9,6.9,0,0,1-.37,2.28,5.69,5.69,0,0,1-1.28,2A5.55,5.55,0,0,1,111,62.14a9.24,9.24,0,0,1-2.94.47,8.92,8.92,0,0,1-2.74-.42,5.91,5.91,0,0,1-2.2-1.21,5.09,5.09,0,0,1-1.32-1.91,6.17,6.17,0,0,1-.45-2.34,6.35,6.35,0,0,1,.44-2.33,5.43,5.43,0,0,1,1.37-2A6.35,6.35,0,0,1,105.49,51,9,9,0,0,1,108.36,50.56Zm-.08,3.3a2.26,2.26,0,0,0-1.28.37,2.38,2.38,0,0,0-.85,1.08,4.2,4.2,0,0,0-.28,1.56,2.63,2.63,0,0,0,.62,1.89,2,2,0,0,0,1.55.66A2.2,2.2,0,0,0,109.3,59a2.25,2.25,0,0,0,.85-1.11,4.35,4.35,0,0,0,.29-1.58,3.4,3.4,0,0,0-.23-1.26,1.87,1.87,0,0,0-.73-.89A2.09,2.09,0,0,0,108.28,53.86Z"/><path class="cls-2" d="M116.49,62.32c.22-1.7.38-3.58.5-5.64s.18-4,.2-5.83l2.33,0,2.18,0-.11,1.53a8.37,8.37,0,0,1,.64-.66,3.73,3.73,0,0,1,.67-.47,4.32,4.32,0,0,1,.85-.38,6.42,6.42,0,0,1,1-.23,6.79,6.79,0,0,1,1.12-.08,7,7,0,0,1,1.58.17,4.07,4.07,0,0,1,1.28.5,3,3,0,0,1,.87.79,2.72,2.72,0,0,1,.46,1,6,6,0,0,1,.11,1.13c0,.29,0,.9-.09,1.85l-.2,4.06c0,.8-.05,1.54-.05,2.23l-2.12,0c-.89,0-1.7,0-2.44,0,.07-.69.14-1.7.22-3s.11-2.29.11-2.84a2.52,2.52,0,0,0-.49-1.77,1.66,1.66,0,0,0-1.23-.5,2.09,2.09,0,0,0-1.23.43,2.66,2.66,0,0,0-.89,1.24,10.2,10.2,0,0,0-.45,2.68c-.08,1.24-.14,2.51-.17,3.8l-2.19,0Z"/><path class="cls-2" d="M14.42,95.18l1.25-2.35,3.17-6.2.37-.78H20.8L22,89.2l2.19,6H22.79c-.12-.43-.33-1.07-.61-1.9s-.53-1.5-.72-2H17.72l-1,2-.87,1.87H14.42Zm3.7-4.82H21.2l-1.27-3.61Z"/><path class="cls-2" d="M25.22,95.18c.21-2.85.33-5.16.34-6.92h1.21l-.09,1.37c.11-.19.2-.34.27-.44a2.46,2.46,0,0,1,.27-.33,2.78,2.78,0,0,1,.41-.32,2.25,2.25,0,0,1,.54-.24,3.71,3.71,0,0,1,.64-.15,4.87,4.87,0,0,1,.65-.05,4.35,4.35,0,0,1,1.14.15,2,2,0,0,1,.89.46,1.61,1.61,0,0,1,.48.73,3,3,0,0,1,.12.87c0,.06,0,.17,0,.34s0,.39,0,.67l-.13,2.86c0,.27,0,.61,0,1H30.68c.05-.55.08-1.08.11-1.59L30.88,92c0-.55,0-1,0-1.24a1.9,1.9,0,0,0-.21-1,1.28,1.28,0,0,0-.65-.55,2.54,2.54,0,0,0-1-.2,2.41,2.41,0,0,0-1.36.38,2.29,2.29,0,0,0-.81,1,5,5,0,0,0-.28,1.35c-.07.72-.12,1.86-.14,3.41H25.22Z"/><path class="cls-2" d="M42.87,94.1c-.06.25-.11.57-.17,1a9.57,9.57,0,0,1-1.14.23,7.72,7.72,0,0,1-1,0,5.16,5.16,0,0,1-1.53-.2,2.68,2.68,0,0,1-1.17-.72,2.92,2.92,0,0,1-.69-1.16A4.26,4.26,0,0,1,37,91.86,4.57,4.57,0,0,1,37.38,90a3,3,0,0,1,1.18-1.37,3.63,3.63,0,0,1,2-.5,3.9,3.9,0,0,1,1.19.18,2.37,2.37,0,0,1,.94.55,2.43,2.43,0,0,1,.59.92,3.44,3.44,0,0,1,.2,1.18,2.45,2.45,0,0,1,0,.48H38.2c0,.25,0,.44,0,.58a2.94,2.94,0,0,0,.3,1.32,2,2,0,0,0,.89.91,2.8,2.8,0,0,0,1.35.31A6.83,6.83,0,0,0,42.87,94.1Zm-4.61-3.26h4.07a3.81,3.81,0,0,0,0-.67,1.72,1.72,0,0,0-.18-.49,1.52,1.52,0,0,0-.35-.45,1.58,1.58,0,0,0-.53-.28,2.15,2.15,0,0,0-.68-.1,2.25,2.25,0,0,0-.74.11,2,2,0,0,0-.62.3,2,2,0,0,0-.46.45,1.91,1.91,0,0,0-.28.49A4.88,4.88,0,0,0,38.26,90.84Z"/><path class="cls-2" d="M44.59,95.18q.33-4.28.34-6.92h1.21l-.09,1.37c.11-.19.2-.34.27-.44a2,2,0,0,1,.28-.33,2.67,2.67,0,0,1,.4-.32,2.33,2.33,0,0,1,.55-.24,3.5,3.5,0,0,1,.64-.15,4.6,4.6,0,0,1,.64-.05,4.35,4.35,0,0,1,1.14.15,2.14,2.14,0,0,1,.9.46,1.67,1.67,0,0,1,.47.73,3,3,0,0,1,.12.87c0,.06,0,.17,0,.34s0,.39,0,.67l-.13,2.86c0,.27,0,.61,0,1H50.06c0-.55.08-1.08.1-1.59L50.25,92c0-.55,0-1,0-1.24a2,2,0,0,0-.2-1,1.35,1.35,0,0,0-.66-.55,2.53,2.53,0,0,0-1-.2,2.45,2.45,0,0,0-1.37.38,2.27,2.27,0,0,0-.8,1A4.31,4.31,0,0,0,46,91.77c-.07.72-.12,1.86-.15,3.41H44.59Z"/><path class="cls-2" d="M59.54,95.2l-.56,0h-.6l.09-1.47c-.15.25-.28.45-.38.59a2.72,2.72,0,0,1-.37.39,2.17,2.17,0,0,1-.5.33,2.48,2.48,0,0,1-.63.23,3,3,0,0,1-.74.08,3.34,3.34,0,0,1-1.24-.23,2.56,2.56,0,0,1-1-.69,2.64,2.64,0,0,1-.59-1,4.64,4.64,0,0,1-.17-1.24,4.54,4.54,0,0,1,.33-1.69,3.51,3.51,0,0,1,.95-1.38,3.61,3.61,0,0,1,1.38-.76,6.25,6.25,0,0,1,1.64-.21,9.13,9.13,0,0,1,1.43.14c0-.5,0-.91,0-1.24s0-.85,0-1.15h1.24l-.19,3.86-.14,4.43Zm-1-6.1a5.16,5.16,0,0,0-.7-.16l-.56,0A4,4,0,0,0,56,89.1a2.68,2.68,0,0,0-1.05.62,2.89,2.89,0,0,0-.7,1.09,3.77,3.77,0,0,0-.24,1.3,2.89,2.89,0,0,0,.23,1.18,1.81,1.81,0,0,0,.72.87,2.11,2.11,0,0,0,1.14.31,2.3,2.3,0,0,0,.71-.11,1.8,1.8,0,0,0,.58-.31,2.45,2.45,0,0,0,.5-.55,3.34,3.34,0,0,0,.37-.81,6.79,6.79,0,0,0,.17-1.09q0-.33.06-1.29Z"/><path class="cls-2" d="M60.58,92a7.69,7.69,0,0,0,.06-.91c.63,0,1.2,0,1.7,0s1.06,0,1.7,0c0,.32-.05.63-.05.91-.57,0-1.14,0-1.72,0Z"/><path class="cls-2" d="M68.36,94.28c0,.23-.11.52-.17.89a6.94,6.94,0,0,1-.74.14,4.61,4.61,0,0,1-.52,0,2.69,2.69,0,0,1-1-.15,1.19,1.19,0,0,1-.57-.49,1.85,1.85,0,0,1-.2-.92s0-.14,0-.27,0-.57.07-1.33l.17-3.06h-.92c0-.19,0-.47,0-.82h.93c0-.26.05-.69.07-1.31.43-.08.79-.16,1.09-.23,0,.67-.05,1.19-.06,1.54h1.9c0,.28,0,.56,0,.82H66.56L66.38,93v.29a2,2,0,0,0,.11.75.79.79,0,0,0,.34.36,1.12,1.12,0,0,0,.47.11l.37,0C67.79,94.42,68,94.37,68.36,94.28Z"/><path class="cls-2" d="M72.81,88.1a4.35,4.35,0,0,1,1.36.21A2.77,2.77,0,0,1,75.3,89,2.71,2.71,0,0,1,76,90.08a4.26,4.26,0,0,1,.25,1.43A4.57,4.57,0,0,1,76,93.07a3.59,3.59,0,0,1-.74,1.26,2.7,2.7,0,0,1-1.16.76,4.63,4.63,0,0,1-2.85,0,3.05,3.05,0,0,1-1.13-.69,3.17,3.17,0,0,1-.72-1.14,4.14,4.14,0,0,1-.24-1.41,4.36,4.36,0,0,1,.45-2,3,3,0,0,1,1.32-1.34A4.19,4.19,0,0,1,72.81,88.1Zm0,.87a2.46,2.46,0,0,0-1.28.35,2.07,2.07,0,0,0-.87,1.05,4.21,4.21,0,0,0-.28,1.53,3.38,3.38,0,0,0,.24,1.3,2,2,0,0,0,.76.93,2.22,2.22,0,0,0,1.28.36,2.61,2.61,0,0,0,1-.18,1.94,1.94,0,0,0,.8-.57,2.58,2.58,0,0,0,.51-1,4.93,4.93,0,0,0,.16-1.23,4.11,4.11,0,0,0-.16-1.13,1.87,1.87,0,0,0-.51-.84,2,2,0,0,0-.76-.45A2.85,2.85,0,0,0,72.78,89Z"/><path class="cls-2" d="M76.81,92a7.69,7.69,0,0,0,.06-.91c.63,0,1.2,0,1.7,0s1.05,0,1.7,0c0,.32,0,.63,0,.91-.57,0-1.14,0-1.72,0Z"/><path class="cls-2" d="M86.76,94.1c-.06.25-.11.57-.16,1a10,10,0,0,1-1.14.23,7.72,7.72,0,0,1-1,0,5.27,5.27,0,0,1-1.54-.2,2.65,2.65,0,0,1-1.16-.72,2.83,2.83,0,0,1-.7-1.16A4.75,4.75,0,0,1,81.28,90a3.07,3.07,0,0,1,1.17-1.37,3.63,3.63,0,0,1,2-.5,3.85,3.85,0,0,1,1.19.18,2.41,2.41,0,0,1,.95.55,2.54,2.54,0,0,1,.58.92,3.21,3.21,0,0,1,.2,1.18,2.45,2.45,0,0,1,0,.48H82.1c0,.25,0,.44,0,.58a2.94,2.94,0,0,0,.3,1.32,2,2,0,0,0,.89.91,2.8,2.8,0,0,0,1.35.31A6.78,6.78,0,0,0,86.76,94.1Zm-4.61-3.26h4.08a4.85,4.85,0,0,0-.06-.67,1.72,1.72,0,0,0-.18-.49,1.37,1.37,0,0,0-.35-.45,1.49,1.49,0,0,0-.53-.28,2.11,2.11,0,0,0-.68-.1,2.33,2.33,0,0,0-.74.11,2.1,2.1,0,0,0-.62.3,2,2,0,0,0-.46.45,2.26,2.26,0,0,0-.28.49A4.88,4.88,0,0,0,82.15,90.84Z"/><path class="cls-2" d="M88.48,95.18q.33-4.28.34-6.92H90l-.09,1.37.28-.44a1.87,1.87,0,0,1,.27-.33,2.67,2.67,0,0,1,.4-.32,2.53,2.53,0,0,1,.55-.24,3.5,3.5,0,0,1,.64-.15,4.74,4.74,0,0,1,.65-.05,4.22,4.22,0,0,1,1.13.15,2,2,0,0,1,.9.46,1.58,1.58,0,0,1,.47.73,3,3,0,0,1,.12.87v.34c0,.17,0,.39,0,.67l-.14,2.86c0,.27,0,.61,0,1H94c0-.55.08-1.08.1-1.59L94.14,92c0-.55,0-1,0-1.24a1.9,1.9,0,0,0-.2-1,1.35,1.35,0,0,0-.66-.55,2.53,2.53,0,0,0-1-.2,2.41,2.41,0,0,0-1.36.38,2.22,2.22,0,0,0-.81,1,4.62,4.62,0,0,0-.28,1.35c-.07.72-.12,1.86-.15,3.41H88.48Z"/><path class="cls-2" d="M100.43,95.18l.15-1.26.43-5.09.2-3H103l.16.6c0,.16.1.34.17.56s.19.57.35,1.07l.85,2.43,1,3.25,1.36-3.25L108.45,87a3.7,3.7,0,0,0,.16-.4c0-.15.14-.38.25-.7h1.8l-.09,3.26,0,2.14v3c0,.1,0,.4,0,.88h-1.23l.05-.86.1-4.93c0-.55,0-1.16,0-1.83V87l-3,7.2-.39,1h-1.28L104,92.61l-.83-2.54-.84-2.45c0-.11-.09-.3-.18-.58l-.08.8-.42,5.87,0,.59c0,.2,0,.49,0,.88h-1.16Z"/><path class="cls-2" d="M112.53,95.18c.11-1.17.19-2.61.27-4.31s.12-3.37.14-5h1.35l-.21,4.33-.17,4.09h1.3l2,0c.39,0,.78,0,1.15,0,0,.29-.05.61-.07,1h-5.8Z"/><path class="cls-2" d="M127.9,94.15c0,.07,0,.2-.07.4s-.08.4-.1.59a7.28,7.28,0,0,1-1,.15c-.31,0-.58,0-.81,0a4.58,4.58,0,0,1-1.37-.19,2.78,2.78,0,0,1-1.09-.66,2.67,2.67,0,0,1-.68-1.12,4.49,4.49,0,0,1-.22-1.42A5.11,5.11,0,0,1,123,90a3,3,0,0,1,1.12-1.42,3.7,3.7,0,0,1,2.08-.51,7.14,7.14,0,0,1,1.9.26c0,.39.05.71.07,1a8.56,8.56,0,0,0-1.06-.28,4.21,4.21,0,0,0-.76-.07,2.44,2.44,0,0,0-1.07.22,2.15,2.15,0,0,0-.81.62,2.43,2.43,0,0,0-.49,1,4.73,4.73,0,0,0-.14,1.13,3.54,3.54,0,0,0,.24,1.35,1.69,1.69,0,0,0,.83.9,2.86,2.86,0,0,0,1.35.32A5.52,5.52,0,0,0,127.9,94.15Z"/><path class="cls-2" d="M129.85,89.36c0-.2.09-.5.13-.89a11.69,11.69,0,0,1,1.43-.29,9.48,9.48,0,0,1,1.18-.08,5.27,5.27,0,0,1,1.15.12,2.25,2.25,0,0,1,.89.36,1.16,1.16,0,0,1,.47.58,2,2,0,0,1,.12.71c0,.31,0,.84-.07,1.58s-.09,1.42-.11,2,0,1.19,0,1.68h-1.22l.14-1.86.11-2.21-.36.26a1.71,1.71,0,0,1-.27.14l-.34.12c-.12,0-.35.11-.7.2l-.74.22a4.13,4.13,0,0,0-.75.3,2.36,2.36,0,0,0-.46.33,1.16,1.16,0,0,0-.26.36,1.18,1.18,0,0,0-.09.46,1,1,0,0,0,.22.64,1.17,1.17,0,0,0,.55.38,2.73,2.73,0,0,0,.8.1,4.22,4.22,0,0,0,.6,0,4.44,4.44,0,0,0,.84-.2c-.06.17-.13.44-.22.81q-.49.09-.81.12c-.21,0-.41,0-.59,0a4.09,4.09,0,0,1-1.47-.21,1.57,1.57,0,0,1-.78-.67,1.83,1.83,0,0,1-.26-1,1.7,1.7,0,0,1,.09-.57,1.63,1.63,0,0,1,.25-.47,1.7,1.7,0,0,1,.45-.43,2.84,2.84,0,0,1,.61-.35,7.51,7.51,0,0,1,.74-.27l1.36-.36c.2,0,.37-.09.51-.13l.38-.15a.85.85,0,0,0,.28-.16,1,1,0,0,0,.23-.22.91.91,0,0,0,.15-.27.87.87,0,0,0,0-.28.85.85,0,0,0-.22-.57,1.17,1.17,0,0,0-.57-.33,3,3,0,0,0-.83-.1,5.88,5.88,0,0,0-.92.07,7.78,7.78,0,0,0-.8.17C130.47,89.13,130.19,89.23,129.85,89.36Z"/><path class="cls-2" d="M136.53,95.05l0-.5s0-.23-.05-.52a5,5,0,0,0,1.94.46,2,2,0,0,0,.78-.13.9.9,0,0,0,.48-.36.88.88,0,0,0,.17-.5,1,1,0,0,0-.05-.29,1.11,1.11,0,0,0-.13-.27,2.12,2.12,0,0,0-.26-.3l-.73-.6-.83-.69a3.94,3.94,0,0,1-.49-.52,2.17,2.17,0,0,1-.3-.53,1.61,1.61,0,0,1-.09-.54,1.43,1.43,0,0,1,.28-.84,1.65,1.65,0,0,1,.79-.62,3.52,3.52,0,0,1,1.23-.2,8.54,8.54,0,0,1,1.73.19c0,.35,0,.68.07,1a3.92,3.92,0,0,0-1.51-.31,2.56,2.56,0,0,0-.75.11,1,1,0,0,0-.51.31.83.83,0,0,0-.16.47.81.81,0,0,0,.06.31,1.15,1.15,0,0,0,.19.33,3.63,3.63,0,0,0,.34.34c.13.12.4.33.79.65a7.71,7.71,0,0,1,.81.69,3.26,3.26,0,0,1,.38.47,2.26,2.26,0,0,1,.23.47,2,2,0,0,1,.07.48,1.53,1.53,0,0,1-.29.89,1.74,1.74,0,0,1-.84.64,3.33,3.33,0,0,1-1.26.22l-.69,0-.67-.09Z"/><path class="cls-2" d="M148.08,94.1c-.06.25-.11.57-.17,1a9.19,9.19,0,0,1-1.14.23,7.72,7.72,0,0,1-1,0,5.2,5.2,0,0,1-1.53-.2,2.74,2.74,0,0,1-1.17-.72,2.92,2.92,0,0,1-.69-1.16A4.75,4.75,0,0,1,142.6,90a3,3,0,0,1,1.17-1.37,3.63,3.63,0,0,1,2-.5,3.9,3.9,0,0,1,1.19.18,2.41,2.41,0,0,1,.95.55,2.54,2.54,0,0,1,.58.92,3.44,3.44,0,0,1,.2,1.18,2.45,2.45,0,0,1,0,.48h-5.21c0,.25,0,.44,0,.58a2.94,2.94,0,0,0,.3,1.32,2,2,0,0,0,.89.91,2.8,2.8,0,0,0,1.35.31A6.83,6.83,0,0,0,148.08,94.1Zm-4.61-3.26h4.07a3.81,3.81,0,0,0,0-.67,1.72,1.72,0,0,0-.18-.49,1.52,1.52,0,0,0-.35-.45,1.58,1.58,0,0,0-.53-.28,2.15,2.15,0,0,0-.68-.1A2.29,2.29,0,0,0,145,89a2.1,2.1,0,0,0-.62.3,2,2,0,0,0-.46.45,2.26,2.26,0,0,0-.28.49A4.88,4.88,0,0,0,143.47,90.84Z"/><path class="cls-2" d="M153,95.05l0-.5s0-.23-.06-.52a5,5,0,0,0,2,.46,2,2,0,0,0,.78-.13.9.9,0,0,0,.48-.36.87.87,0,0,0,.16-.5,1,1,0,0,0,0-.29,1.11,1.11,0,0,0-.13-.27,1.73,1.73,0,0,0-.27-.3l-.72-.6c-.37-.3-.65-.53-.83-.69a3.37,3.37,0,0,1-.49-.52,2.17,2.17,0,0,1-.3-.53,1.61,1.61,0,0,1-.09-.54,1.49,1.49,0,0,1,.27-.84,1.67,1.67,0,0,1,.8-.62,3.52,3.52,0,0,1,1.23-.2,8.61,8.61,0,0,1,1.73.19c0,.35,0,.68.07,1A4,4,0,0,0,156,89a2.56,2.56,0,0,0-.75.11,1,1,0,0,0-.51.31.83.83,0,0,0-.16.47.81.81,0,0,0,.06.31,1.15,1.15,0,0,0,.19.33,2.72,2.72,0,0,0,.34.34c.13.12.4.33.79.65s.66.54.81.69a3.26,3.26,0,0,1,.38.47,2.26,2.26,0,0,1,.23.47,2,2,0,0,1,.07.48,1.53,1.53,0,0,1-.29.89,1.79,1.79,0,0,1-.84.64,3.37,3.37,0,0,1-1.26.22l-.69,0-.67-.09Z"/><path class="cls-2" d="M162.39,94.28c0,.23-.1.52-.16.89a7.44,7.44,0,0,1-.74.14,4.7,4.7,0,0,1-.52,0,2.65,2.65,0,0,1-1-.15,1.14,1.14,0,0,1-.57-.49,1.85,1.85,0,0,1-.2-.92s0-.14,0-.27,0-.57.07-1.33l.16-3.06h-.91c0-.19,0-.47,0-.82h.93c0-.26.05-.69.07-1.31.43-.08.79-.16,1.08-.23,0,.67-.05,1.19-.05,1.54h1.9c0,.28,0,.56,0,.82H160.6L160.41,93v.29a1.85,1.85,0,0,0,.11.75.74.74,0,0,0,.34.36,1.08,1.08,0,0,0,.47.11l.37,0A6.91,6.91,0,0,0,162.39,94.28Z"/><path class="cls-2" d="M169.9,95.18h-1.14l0-1.32a4.13,4.13,0,0,1-.28.48,2.24,2.24,0,0,1-.3.33,2.33,2.33,0,0,1-.37.27,2,2,0,0,1-.44.19,3.61,3.61,0,0,1-.59.15,4.07,4.07,0,0,1-.72,0,3.62,3.62,0,0,1-1.43-.25,2,2,0,0,1-.89-.72,2.32,2.32,0,0,1-.3-1.27c0-.08,0-.22,0-.41s0-.46,0-.77l.11-2.28,0-.73c0-.17,0-.38,0-.64h1.22c-.06.8-.13,1.67-.18,2.62s-.09,1.55-.09,1.82a2,2,0,0,0,.2,1,1.2,1.2,0,0,0,.65.55,2.54,2.54,0,0,0,1,.2,2.7,2.7,0,0,0,1-.18,2.2,2.2,0,0,0,.67-.43,2.38,2.38,0,0,0,.49-.76,3.74,3.74,0,0,0,.22-.88c0-.26.06-.72.09-1.4s.06-1.65.08-2.5h1.21c-.06.82-.14,2.07-.23,3.74Q169.92,93.38,169.9,95.18Z"/><path class="cls-2" d="M178.2,95.2l-.56,0h-.59l.08-1.47a6.24,6.24,0,0,1-.38.59,2.26,2.26,0,0,1-.37.39,2,2,0,0,1-.5.33,2.48,2.48,0,0,1-.63.23,3,3,0,0,1-.74.08,3.41,3.41,0,0,1-1.24-.23,2.73,2.73,0,0,1-1-.69,2.62,2.62,0,0,1-.58-1,4.28,4.28,0,0,1-.18-1.24,4.36,4.36,0,0,1,.34-1.69,3.48,3.48,0,0,1,2.33-2.14,6.19,6.19,0,0,1,1.64-.21,9.13,9.13,0,0,1,1.43.14c0-.5,0-.91,0-1.24s0-.85,0-1.15h1.25l-.2,3.86-.14,4.43Zm-1-6.1a5.93,5.93,0,0,0-.7-.16,5.59,5.59,0,0,0-.57,0,4,4,0,0,0-1.25.19,2.55,2.55,0,0,0-1,.62,2.67,2.67,0,0,0-.7,1.09,3.57,3.57,0,0,0-.25,1.3,3.06,3.06,0,0,0,.23,1.18,1.93,1.93,0,0,0,.72.87,2.16,2.16,0,0,0,1.14.31,2.25,2.25,0,0,0,.71-.11,1.85,1.85,0,0,0,.59-.31,2.42,2.42,0,0,0,.49-.55,3,3,0,0,0,.37-.81,5.09,5.09,0,0,0,.17-1.09q0-.33.06-1.29Z"/><path class="cls-2" d="M178.91,98.35a9.37,9.37,0,0,0-.12-1,2.32,2.32,0,0,0,.64.22,2.49,2.49,0,0,0,.5.06,1.58,1.58,0,0,0,.52-.09,1.2,1.2,0,0,0,.41-.26,2.63,2.63,0,0,0,.33-.44,7.16,7.16,0,0,0,.37-.65,8.19,8.19,0,0,0,.37-.83l-1.46-4.15-1.06-3h1.28c.07.32.14.56.19.73l.32,1,1,3.14c.11.35.23.74.34,1.15l.77-1.89,1.44-3.34.12-.31c0-.11.1-.28.18-.51h1.23c-.17.4-.6,1.35-1.29,2.83l-2.53,5.64a4.73,4.73,0,0,1-.49.86,2.08,2.08,0,0,1-.38.4,1.6,1.6,0,0,1-.37.25,2.38,2.38,0,0,1-.55.19,2.81,2.81,0,0,1-.65.07A4.91,4.91,0,0,1,178.91,98.35Z"/><path class="cls-2" d="M192.2,95.18l-.32-1-2.12-5.93h1.16l.61,1.84,1.39,4,2.16-5.86h1.24l1.58,5.86,1.91-4.53.53-1.33h1.16l-2.3,5.15-.76,1.77h-1.31l-1.26-4.79c-.08-.32-.17-.63-.26-.94l-.14.35-.28.76-1.44,3.94-.24.68H192.2Z"/><path class="cls-2" d="M202.13,95.18l.12-1.72.13-2.94.06-2.26h1.24c-.05.71-.1,1.45-.14,2.23s-.07,1.63-.1,2.55,0,1.63,0,2.14h-1.27Zm.31-8.41c0-.43,0-.75,0-1h1.32c0,.14,0,.46,0,1h-1.3Z"/><path class="cls-2" d="M208.74,94.28c-.05.23-.1.52-.16.89a7.44,7.44,0,0,1-.74.14,4.79,4.79,0,0,1-.52,0,2.65,2.65,0,0,1-1-.15,1.14,1.14,0,0,1-.57-.49,1.75,1.75,0,0,1-.2-.92V93.5c0-.13,0-.57.07-1.33l.17-3.06h-.91c0-.19,0-.47,0-.82h.93c0-.26,0-.69.07-1.31l1.08-.23c0,.67-.05,1.19-.05,1.54h1.9a7.75,7.75,0,0,0,0,.82h-1.9L206.76,93v.29a1.83,1.83,0,0,0,.12.75.72.72,0,0,0,.33.36,1.13,1.13,0,0,0,.48.11l.36,0A6.35,6.35,0,0,0,208.74,94.28Z"/><path class="cls-2" d="M209.78,95.18l.17-3,.16-4,0-2.31h1.23l-.15,2.38-.06,1.42a4.61,4.61,0,0,1,.29-.47,2.33,2.33,0,0,1,.3-.35,2.2,2.2,0,0,1,.4-.3,2.45,2.45,0,0,1,.46-.21,3.43,3.43,0,0,1,.6-.16,4.56,4.56,0,0,1,.75-.06,5,5,0,0,1,1.11.13,2.4,2.4,0,0,1,.91.43,1.52,1.52,0,0,1,.52.72,2.75,2.75,0,0,1,.14.85c0,.11,0,.26,0,.45s0,.61,0,1l-.12,2.51c0,.27,0,.61,0,1h-1.26c.05-.49.1-1.26.17-2.32s.1-1.79.1-2.2a1.87,1.87,0,0,0-.2-.9,1.28,1.28,0,0,0-.65-.55,2.61,2.61,0,0,0-1-.19,2.76,2.76,0,0,0-1,.16,2,2,0,0,0-.69.4,1.81,1.81,0,0,0-.45.63,3.55,3.55,0,0,0-.26.82,14.9,14.9,0,0,0-.17,1.8c0,.46,0,1.24-.07,2.35h-1.21Z"/><path class="cls-2" d="M222.19,89.36c0-.2.09-.5.13-.89a11.69,11.69,0,0,1,1.43-.29,9.48,9.48,0,0,1,1.18-.08,5.27,5.27,0,0,1,1.15.12,2.25,2.25,0,0,1,.89.36,1.16,1.16,0,0,1,.47.58,2,2,0,0,1,.12.71c0,.31,0,.84-.07,1.58s-.09,1.42-.11,2,0,1.19,0,1.68h-1.22l.14-1.86.11-2.21-.36.26a1.71,1.71,0,0,1-.27.14l-.34.12c-.12,0-.35.11-.7.2l-.74.22a4.13,4.13,0,0,0-.75.3,2.36,2.36,0,0,0-.46.33,1.16,1.16,0,0,0-.26.36,1.18,1.18,0,0,0-.09.46,1,1,0,0,0,.22.64,1.17,1.17,0,0,0,.55.38,2.69,2.69,0,0,0,.8.1,4.22,4.22,0,0,0,.6,0,4.44,4.44,0,0,0,.84-.2c-.06.17-.13.44-.22.81q-.49.09-.81.12c-.21,0-.41,0-.59,0a4.09,4.09,0,0,1-1.47-.21,1.57,1.57,0,0,1-.78-.67,1.83,1.83,0,0,1-.26-1,1.7,1.7,0,0,1,.09-.57,1.63,1.63,0,0,1,.25-.47,1.7,1.7,0,0,1,.45-.43,2.84,2.84,0,0,1,.61-.35,7.51,7.51,0,0,1,.74-.27l1.36-.36c.2,0,.37-.09.51-.13l.38-.15a.85.85,0,0,0,.28-.16,1,1,0,0,0,.23-.22.91.91,0,0,0,.15-.27.87.87,0,0,0,0-.28.85.85,0,0,0-.22-.57,1.17,1.17,0,0,0-.57-.33,3,3,0,0,0-.83-.1,5.88,5.88,0,0,0-.92.07,7.78,7.78,0,0,0-.8.17C222.81,89.13,222.53,89.23,222.19,89.36Z"/><path class="cls-2" d="M15.19,111.85l0-.5s0-.23-.05-.52a5,5,0,0,0,1.94.46,2.08,2.08,0,0,0,.79-.13,1,1,0,0,0,.48-.36,1,1,0,0,0,.16-.5,1,1,0,0,0,0-.29,1.11,1.11,0,0,0-.13-.27,2.12,2.12,0,0,0-.26-.3l-.73-.6-.83-.69a3.94,3.94,0,0,1-.49-.52,1.85,1.85,0,0,1-.29-.53,1.4,1.4,0,0,1-.1-.54,1.43,1.43,0,0,1,.28-.84,1.63,1.63,0,0,1,.8-.62,3.47,3.47,0,0,1,1.22-.2,8.54,8.54,0,0,1,1.73.19c0,.35,0,.68.07,1a3.92,3.92,0,0,0-1.51-.31,2.27,2.27,0,0,0-.75.11.92.92,0,0,0-.5.31.76.76,0,0,0-.16.47.81.81,0,0,0,.05.31,1.21,1.21,0,0,0,.2.33,2.61,2.61,0,0,0,.33.34l.79.65A7.71,7.71,0,0,1,19,109a3.26,3.26,0,0,1,.38.47,2.26,2.26,0,0,1,.23.47,1.59,1.59,0,0,1,.07.48,1.52,1.52,0,0,1-.28.89,1.77,1.77,0,0,1-.85.64,3.33,3.33,0,0,1-1.26.22l-.69,0-.67-.09Z"/><path class="cls-2" d="M21.51,106.16c0-.2.08-.5.13-.89a11.69,11.69,0,0,1,1.43-.29,9.46,9.46,0,0,1,1.17-.08,5.36,5.36,0,0,1,1.16.12,2.31,2.31,0,0,1,.89.36,1.22,1.22,0,0,1,.47.58,2,2,0,0,1,.12.71c0,.31,0,.84-.07,1.58s-.09,1.42-.11,2,0,1.19,0,1.68H25.43l.15-1.86.1-2.21-.36.26a1.71,1.71,0,0,1-.27.14l-.33.12c-.12,0-.35.11-.7.2l-.75.22a4.31,4.31,0,0,0-.74.3,2.09,2.09,0,0,0-.46.33,1.16,1.16,0,0,0-.26.36,1.18,1.18,0,0,0-.09.46,1,1,0,0,0,.22.64,1.17,1.17,0,0,0,.55.38,2.69,2.69,0,0,0,.8.1,4.22,4.22,0,0,0,.6,0,4.44,4.44,0,0,0,.84-.2,6.87,6.87,0,0,0-.22.81q-.5.09-.81.12c-.21,0-.41,0-.6,0a4.07,4.07,0,0,1-1.46-.21,1.64,1.64,0,0,1-.79-.67,1.93,1.93,0,0,1-.26-1,1.48,1.48,0,0,1,.1-.57,1.51,1.51,0,0,1,.25-.47,1.81,1.81,0,0,1,.44-.43,3.42,3.42,0,0,1,.61-.35c.21-.09.46-.18.74-.27l1.37-.36c.2,0,.37-.09.51-.13l.37-.15a1.15,1.15,0,0,0,.29-.16,1.19,1.19,0,0,0,.23-.22,1.82,1.82,0,0,0,.15-.27.86.86,0,0,0,0-.28.84.84,0,0,0-.21-.57,1.15,1.15,0,0,0-.58-.33,2.9,2.9,0,0,0-.83-.1,5.75,5.75,0,0,0-.91.07c-.31,0-.58.11-.81.17Z"/><path class="cls-2" d="M28.5,112l.07-1c0-.21,0-.54.06-1l.16-4.16c0-.34,0-.6,0-.78H30l-.06,1.27c.16-.25.3-.46.42-.61a1.89,1.89,0,0,1,.5-.41,2.47,2.47,0,0,1,.7-.3,3.1,3.1,0,0,1,.81-.11,2.38,2.38,0,0,1,.59.07,2.66,2.66,0,0,1,.52.19,1.71,1.71,0,0,1,.42.28,1.44,1.44,0,0,1,.28.34,3.46,3.46,0,0,1,.22.54,2.43,2.43,0,0,1,1-1.1,3.07,3.07,0,0,1,1.4-.32,2.79,2.79,0,0,1,1,.16,1.72,1.72,0,0,1,.74.45,1.56,1.56,0,0,1,.36.61,2.35,2.35,0,0,1,.09.64c0,.22,0,.55,0,1s-.07,1.1-.11,2-.06,1.64-.07,2.23H37.49c0-.61.1-1.28.13-2l.09-1.69c0-.41,0-.76,0-1.06a1.69,1.69,0,0,0-.09-.62,1,1,0,0,0-.26-.4,1.28,1.28,0,0,0-.45-.28,1.91,1.91,0,0,0-.61-.09,2,2,0,0,0-.5.06,1.82,1.82,0,0,0-.43.19,1.76,1.76,0,0,0-.4.32,1.6,1.6,0,0,0-.3.42,2.12,2.12,0,0,0-.21.57,5.89,5.89,0,0,0-.15,1c0,.42-.05,1-.07,1.67L34.23,112H33c0-.56.08-1.14.11-1.74l.08-1.65c0-.51,0-1,0-1.31a2,2,0,0,0-.07-.59,1,1,0,0,0-.25-.44,1.21,1.21,0,0,0-.46-.31,1.54,1.54,0,0,0-.58-.11,1.75,1.75,0,0,0-.65.12,1.87,1.87,0,0,0-.57.35,2.28,2.28,0,0,0-.44.57,3.34,3.34,0,0,0-.28.89,19.08,19.08,0,0,0-.15,1.92c0,.91-.06,1.68-.06,2.3H28.5Z"/><path class="cls-2" d="M40.38,115.07c.09-1.17.18-2.77.26-4.79s.12-3.68.13-5c.75-.16,1.34-.27,1.79-.32a10.2,10.2,0,0,1,1.35-.09,4.74,4.74,0,0,1,1.85.34A2.45,2.45,0,0,1,47,106.43a4.18,4.18,0,0,1,.44,1.92,4.92,4.92,0,0,1-.21,1.44,3.72,3.72,0,0,1-.63,1.24,2.77,2.77,0,0,1-1,.83,3.19,3.19,0,0,1-1.33.27,3.33,3.33,0,0,1-.84-.1,2.62,2.62,0,0,1-.7-.28,2,2,0,0,1-.5-.38,4.13,4.13,0,0,1-.49-.64l-.08,2.71q0,.66,0,1v.67H40.38Zm1.56-8.94,0,.52,0,.71c0,.37,0,.67,0,.91s0,.4,0,.49a4.22,4.22,0,0,0,.1,1,1.81,1.81,0,0,0,.43.82,2.14,2.14,0,0,0,.74.57,2.16,2.16,0,0,0,.89.19,2.09,2.09,0,0,0,1.17-.35,2.35,2.35,0,0,0,.82-1.06,4.1,4.1,0,0,0,.29-1.54,3.1,3.1,0,0,0-.31-1.45,1.87,1.87,0,0,0-.83-.88,2.46,2.46,0,0,0-1.17-.27A5.78,5.78,0,0,0,41.94,106.13Z"/><path class="cls-2" d="M48.77,112c.09-1.4.18-3.06.27-5,.06-1.4.1-2.84.13-4.34h1.24l-.21,4-.15,4.06L50,112H48.77Z"/><path class="cls-2" d="M57.57,110.9c-.06.25-.11.57-.16.95a10,10,0,0,1-1.14.23c-.32,0-.64,0-1,0a5.27,5.27,0,0,1-1.54-.2,2.65,2.65,0,0,1-1.16-.72,2.83,2.83,0,0,1-.7-1.16,4.75,4.75,0,0,1,.18-3.28,3.07,3.07,0,0,1,1.17-1.37,3.65,3.65,0,0,1,2-.5,3.83,3.83,0,0,1,1.18.18,2.41,2.41,0,0,1,1,.55,2.54,2.54,0,0,1,.58.92,3.21,3.21,0,0,1,.2,1.18,2.45,2.45,0,0,1,0,.48H52.91q0,.38,0,.57a3,3,0,0,0,.3,1.33,2,2,0,0,0,.89.91,2.8,2.8,0,0,0,1.35.31A6.78,6.78,0,0,0,57.57,110.9ZM53,107.64H57A4.85,4.85,0,0,0,57,107a1.72,1.72,0,0,0-.18-.49,1.37,1.37,0,0,0-.35-.45,1.49,1.49,0,0,0-.53-.28,2.09,2.09,0,0,0-.67-.1,2.35,2.35,0,0,0-.75.11,2.1,2.1,0,0,0-.62.3,2,2,0,0,0-.46.45,2.26,2.26,0,0,0-.28.49A4.88,4.88,0,0,0,53,107.64Z"/><path class="cls-2" d="M69.3,112l-.56,0h-.6l.09-1.47a6.24,6.24,0,0,1-.38.59,2.26,2.26,0,0,1-.37.39,2.55,2.55,0,0,1-.5.33,2.48,2.48,0,0,1-.63.23,3,3,0,0,1-.74.08,3.37,3.37,0,0,1-1.24-.23,2.64,2.64,0,0,1-1-.69,2.51,2.51,0,0,1-.58-1,4.28,4.28,0,0,1-.18-1.24,4.54,4.54,0,0,1,.33-1.69,3.53,3.53,0,0,1,2.33-2.14,6.3,6.3,0,0,1,1.64-.21,9,9,0,0,1,1.43.14c0-.5,0-.91,0-1.24s0-.85,0-1.15h1.25l-.2,3.86-.14,4.43Zm-1-6.1a5.16,5.16,0,0,0-.7-.16l-.56,0a3.94,3.94,0,0,0-1.25.19,2.65,2.65,0,0,0-1.06.62,2.89,2.89,0,0,0-.7,1.09,3.77,3.77,0,0,0-.24,1.3,2.89,2.89,0,0,0,.23,1.18,1.8,1.8,0,0,0,.72.86,2.08,2.08,0,0,0,1.14.32,2.25,2.25,0,0,0,.71-.11,1.8,1.8,0,0,0,.58-.31,2.45,2.45,0,0,0,.5-.55,3.34,3.34,0,0,0,.37-.81,5.82,5.82,0,0,0,.17-1.09q0-.33.06-1.29Z"/><path class="cls-2" d="M76.81,110.9c-.06.25-.11.57-.17.95a9.57,9.57,0,0,1-1.14.23c-.32,0-.64,0-1,0a5.16,5.16,0,0,1-1.53-.2,2.74,2.74,0,0,1-1.17-.72,2.92,2.92,0,0,1-.69-1.16,4.26,4.26,0,0,1-.22-1.39,4.57,4.57,0,0,1,.39-1.89,3,3,0,0,1,1.18-1.37,3.63,3.63,0,0,1,2-.5,3.9,3.9,0,0,1,1.19.18,2.37,2.37,0,0,1,.94.55,2.43,2.43,0,0,1,.59.92,3.44,3.44,0,0,1,.2,1.18,2.45,2.45,0,0,1,0,.48H72.14c0,.25,0,.44,0,.57a3,3,0,0,0,.3,1.33,2,2,0,0,0,.89.91,2.8,2.8,0,0,0,1.35.31A6.83,6.83,0,0,0,76.81,110.9Zm-4.61-3.26h4.07a3.81,3.81,0,0,0,0-.67,1.72,1.72,0,0,0-.18-.49,1.52,1.52,0,0,0-.35-.45,1.58,1.58,0,0,0-.53-.28,2.15,2.15,0,0,0-.68-.1,2.25,2.25,0,0,0-.74.11,2.1,2.1,0,0,0-.62.3,2,2,0,0,0-.46.45,1.91,1.91,0,0,0-.28.49A4.88,4.88,0,0,0,72.2,107.64Z"/><path class="cls-2" d="M78.43,115.07c.09-1.17.17-2.77.25-4.79s.13-3.68.14-5c.74-.16,1.34-.27,1.79-.32A10.2,10.2,0,0,1,82,104.9a4.74,4.74,0,0,1,1.85.34A2.45,2.45,0,0,1,85,106.43a4.17,4.17,0,0,1,.43,1.92,4.91,4.91,0,0,1-.2,1.44,3.72,3.72,0,0,1-.63,1.24,2.77,2.77,0,0,1-1,.83,3.19,3.19,0,0,1-1.33.27,3.33,3.33,0,0,1-.84-.1,2.62,2.62,0,0,1-.7-.28,2,2,0,0,1-.5-.38,4.13,4.13,0,0,1-.49-.64l-.08,2.71q0,.66,0,1v.67H78.43ZM80,106.13l0,.52,0,.71c0,.37,0,.67,0,.91s0,.4,0,.49a4.21,4.21,0,0,0,.11,1,1.81,1.81,0,0,0,.43.82,2.14,2.14,0,0,0,.74.57,2.16,2.16,0,0,0,.89.19,2.09,2.09,0,0,0,1.17-.35,2.27,2.27,0,0,0,.81-1.06,3.92,3.92,0,0,0,.3-1.54A3.1,3.1,0,0,0,84,106.9a1.87,1.87,0,0,0-.83-.88,2.46,2.46,0,0,0-1.17-.27A5.78,5.78,0,0,0,80,106.13Z"/><path class="cls-2" d="M86.82,112c.09-1.4.18-3.06.27-5,.06-1.4.1-2.84.13-4.34h1.24l-.21,4-.15,4.06,0,1.25H86.82Z"/><path class="cls-2" d="M93.4,104.9a4.35,4.35,0,0,1,1.36.21,2.77,2.77,0,0,1,1.13.65,2.71,2.71,0,0,1,.72,1.12,4.26,4.26,0,0,1,.25,1.43,4.47,4.47,0,0,1-.27,1.55,3.55,3.55,0,0,1-.74,1.27,2.7,2.7,0,0,1-1.16.76,4.63,4.63,0,0,1-2.85,0,3.05,3.05,0,0,1-1.13-.69,3.17,3.17,0,0,1-.72-1.14,4.14,4.14,0,0,1-.24-1.41,4.36,4.36,0,0,1,.45-2,3,3,0,0,1,1.32-1.34A4.19,4.19,0,0,1,93.4,104.9Zm0,.87a2.44,2.44,0,0,0-1.28.35,2.07,2.07,0,0,0-.87,1,4.21,4.21,0,0,0-.28,1.53,3.38,3.38,0,0,0,.24,1.3,2,2,0,0,0,.76.93,2.22,2.22,0,0,0,1.28.36,2.61,2.61,0,0,0,1-.18,1.88,1.88,0,0,0,.8-.58,2.47,2.47,0,0,0,.51-1,4.93,4.93,0,0,0,.16-1.23,4.11,4.11,0,0,0-.16-1.13,1.87,1.87,0,0,0-.51-.84,2,2,0,0,0-.76-.45A2.85,2.85,0,0,0,93.37,105.77Z"/><path class="cls-2" d="M97.06,115.15a9.37,9.37,0,0,0-.12-1,2.44,2.44,0,0,0,.64.22,2.58,2.58,0,0,0,.5.06,1.54,1.54,0,0,0,.52-.09,1.11,1.11,0,0,0,.41-.26,1.86,1.86,0,0,0,.33-.44,7.16,7.16,0,0,0,.37-.65,8.15,8.15,0,0,0,.38-.83L98.63,108l-1.07-3h1.28c.08.32.14.56.19.73s.16.51.33,1l1,3.14c.12.35.23.74.35,1.15l.77-1.89,1.43-3.34.12-.31.18-.51h1.24c-.18.4-.61,1.35-1.29,2.83l-2.54,5.64a5.51,5.51,0,0,1-.48.86,2.12,2.12,0,0,1-.39.4,1.6,1.6,0,0,1-.37.25,2.3,2.3,0,0,1-.54.19,3,3,0,0,1-.66.07A5,5,0,0,1,97.06,115.15Z"/><path class="cls-2" d="M105.05,112l.07-1q0-.31.06-1l.16-4.16c0-.34,0-.6,0-.78h1.15l-.06,1.27a5.66,5.66,0,0,1,.42-.61,1.89,1.89,0,0,1,.5-.41,2.35,2.35,0,0,1,.7-.3,3.1,3.1,0,0,1,.81-.11,2.25,2.25,0,0,1,.58.07,2.54,2.54,0,0,1,.53.19,1.92,1.92,0,0,1,.42.28,1.44,1.44,0,0,1,.28.34,3.46,3.46,0,0,1,.22.54,2.43,2.43,0,0,1,1-1.1,3.07,3.07,0,0,1,1.4-.32,2.79,2.79,0,0,1,1,.16,1.72,1.72,0,0,1,.74.45,1.56,1.56,0,0,1,.36.61,2.35,2.35,0,0,1,.09.64c0,.22,0,.55,0,1s-.07,1.1-.11,2-.07,1.64-.07,2.23H114c0-.61.09-1.28.13-2l.09-1.69c0-.41,0-.76,0-1.06a1.72,1.72,0,0,0-.08-.62,1,1,0,0,0-.26-.4,1.28,1.28,0,0,0-.45-.28,1.91,1.91,0,0,0-.61-.09,2,2,0,0,0-.5.06,1.82,1.82,0,0,0-.43.19,1.76,1.76,0,0,0-.4.32,1.6,1.6,0,0,0-.3.42,2.12,2.12,0,0,0-.21.57,5.89,5.89,0,0,0-.15,1c0,.42-.05,1-.07,1.67l-.06,1.91h-1.21c0-.56.08-1.14.11-1.74l.08-1.65c0-.51,0-1,0-1.31a2,2,0,0,0-.07-.59,1,1,0,0,0-.25-.44,1.21,1.21,0,0,0-.46-.31,1.54,1.54,0,0,0-.58-.11,1.75,1.75,0,0,0-.65.12,1.87,1.87,0,0,0-.57.35,2.07,2.07,0,0,0-.44.57,3.34,3.34,0,0,0-.28.89,19.08,19.08,0,0,0-.15,1.92c0,.91-.06,1.68-.06,2.3h-1.22Z"/><path class="cls-2" d="M122.74,110.9c-.06.25-.11.57-.17.95a9.19,9.19,0,0,1-1.14.23c-.32,0-.64,0-1,0a5.16,5.16,0,0,1-1.53-.2,2.74,2.74,0,0,1-1.17-.72,2.92,2.92,0,0,1-.69-1.16,4.26,4.26,0,0,1-.22-1.39,4.57,4.57,0,0,1,.39-1.89,3,3,0,0,1,1.18-1.37,3.63,3.63,0,0,1,2-.5,3.9,3.9,0,0,1,1.19.18,2.48,2.48,0,0,1,1,.55,2.54,2.54,0,0,1,.58.92,3.44,3.44,0,0,1,.2,1.18,2.45,2.45,0,0,1,0,.48h-5.22c0,.25,0,.44,0,.57a3,3,0,0,0,.3,1.33,2,2,0,0,0,.89.91,2.8,2.8,0,0,0,1.35.31A6.83,6.83,0,0,0,122.74,110.9Zm-4.61-3.26h4.07a3.81,3.81,0,0,0,0-.67,1.72,1.72,0,0,0-.18-.49,1.52,1.52,0,0,0-.35-.45,1.58,1.58,0,0,0-.53-.28,2.15,2.15,0,0,0-.68-.1,2.29,2.29,0,0,0-.74.11,2.1,2.1,0,0,0-.62.3,2,2,0,0,0-.46.45,2.26,2.26,0,0,0-.28.49A4.88,4.88,0,0,0,118.13,107.64Z"/><path class="cls-2" d="M124.46,112q.33-4.28.34-6.92H126l-.09,1.37c.11-.19.21-.34.27-.44a2,2,0,0,1,.28-.33,2.67,2.67,0,0,1,.4-.32,2.13,2.13,0,0,1,.55-.24,3.5,3.5,0,0,1,.64-.15,4.6,4.6,0,0,1,.64,0,4.3,4.3,0,0,1,1.14.15,2.14,2.14,0,0,1,.9.46,1.67,1.67,0,0,1,.47.73,3,3,0,0,1,.12.87c0,.06,0,.17,0,.34s0,.39,0,.66l-.14,2.87c0,.27,0,.61,0,1h-1.21c0-.55.08-1.08.1-1.59l.09-1.59c0-.55,0-1,0-1.24a2,2,0,0,0-.2-1,1.35,1.35,0,0,0-.66-.55,2.53,2.53,0,0,0-1-.2,2.39,2.39,0,0,0-1.36.38,2.22,2.22,0,0,0-.81,1,4.62,4.62,0,0,0-.28,1.35c-.07.72-.12,1.86-.15,3.41h-1.23Z"/><path class="cls-2" d="M136.44,111.08c-.05.23-.11.52-.17.89a6.94,6.94,0,0,1-.74.14,4.61,4.61,0,0,1-.52,0,2.69,2.69,0,0,1-1-.15,1.14,1.14,0,0,1-.57-.49,1.85,1.85,0,0,1-.2-.92s0-.14,0-.27,0-.57.07-1.33l.17-3.06h-.92c0-.19,0-.47,0-.82h.93c0-.26.05-.69.07-1.31.43-.08.79-.16,1.09-.23,0,.67,0,1.19-.06,1.54h1.9c0,.28,0,.56,0,.82h-1.89l-.18,3.85v.29a2,2,0,0,0,.11.75.79.79,0,0,0,.34.36,1.12,1.12,0,0,0,.47.11l.37,0C135.87,111.22,136.1,111.17,136.44,111.08Z"/><path class="cls-2" d="M144.43,111.08c-.05.23-.1.52-.16.89a7.44,7.44,0,0,1-.74.14,4.61,4.61,0,0,1-.52,0,2.69,2.69,0,0,1-1-.15,1.14,1.14,0,0,1-.57-.49,1.85,1.85,0,0,1-.2-.92s0-.14,0-.27,0-.57.07-1.33l.17-3.06h-.92c0-.19,0-.47,0-.82h.93c0-.26.05-.69.07-1.31.43-.08.79-.16,1.08-.23,0,.67,0,1.19-.05,1.54h1.9c0,.28,0,.56,0,.82h-1.89l-.19,3.85v.29a2,2,0,0,0,.11.75.79.79,0,0,0,.34.36,1.12,1.12,0,0,0,.47.11l.37,0A6.91,6.91,0,0,0,144.43,111.08Z"/><path class="cls-2" d="M148.88,104.9a4.41,4.41,0,0,1,1.37.21,2.84,2.84,0,0,1,1.13.65,2.93,2.93,0,0,1,.72,1.12,4.25,4.25,0,0,1,.24,1.43,4.47,4.47,0,0,1-.26,1.55,3.7,3.7,0,0,1-.74,1.27,2.76,2.76,0,0,1-1.16.76,4.63,4.63,0,0,1-2.85,0,3,3,0,0,1-1.13-.69,2.92,2.92,0,0,1-.72-1.14,4.14,4.14,0,0,1-.25-1.41,4.36,4.36,0,0,1,.45-2,3,3,0,0,1,1.33-1.34A4.15,4.15,0,0,1,148.88,104.9Zm0,.87a2.49,2.49,0,0,0-1.28.35,2.06,2.06,0,0,0-.86,1,4,4,0,0,0-.28,1.53,3.58,3.58,0,0,0,.23,1.3,2,2,0,0,0,.77.93,2.22,2.22,0,0,0,1.28.36,2.65,2.65,0,0,0,1-.18,1.94,1.94,0,0,0,.8-.58,2.46,2.46,0,0,0,.5-1,4.51,4.51,0,0,0,.17-1.23,3.77,3.77,0,0,0-.17-1.13,1.85,1.85,0,0,0-.5-.84,2,2,0,0,0-.76-.45A2.91,2.91,0,0,0,148.85,105.77Z"/><path class="cls-2" d="M156.86,111.85l0-.5s0-.23,0-.52a5,5,0,0,0,1.94.46,2,2,0,0,0,.78-.13.9.9,0,0,0,.48-.36.88.88,0,0,0,.17-.5,1,1,0,0,0,0-.29,1.11,1.11,0,0,0-.13-.27,2.12,2.12,0,0,0-.26-.3l-.73-.6-.83-.69a3.94,3.94,0,0,1-.49-.52,2.17,2.17,0,0,1-.3-.53,1.61,1.61,0,0,1-.09-.54,1.43,1.43,0,0,1,.28-.84,1.65,1.65,0,0,1,.79-.62,3.52,3.52,0,0,1,1.23-.2,8.54,8.54,0,0,1,1.73.19c0,.35,0,.68.07,1a3.92,3.92,0,0,0-1.51-.31,2.27,2.27,0,0,0-.75.11,1,1,0,0,0-.51.31.83.83,0,0,0-.16.47.81.81,0,0,0,.06.31,1.15,1.15,0,0,0,.19.33,3.63,3.63,0,0,0,.34.34c.13.12.4.33.79.65a7.71,7.71,0,0,1,.81.69,3.26,3.26,0,0,1,.38.47,2.26,2.26,0,0,1,.23.47,2,2,0,0,1,.07.48,1.53,1.53,0,0,1-.29.89,1.74,1.74,0,0,1-.84.64,3.33,3.33,0,0,1-1.26.22l-.69,0-.67-.09Z"/><path class="cls-2" d="M162.77,112l.17-3,.16-4.05,0-2.31h1.23l-.15,2.38-.05,1.42a4.84,4.84,0,0,1,.28-.47,2.43,2.43,0,0,1,.31-.35,2.55,2.55,0,0,1,.39-.3,2.78,2.78,0,0,1,.46-.21,3.56,3.56,0,0,1,.61-.16,4.56,4.56,0,0,1,.75-.06,5.11,5.11,0,0,1,1.11.13,2.47,2.47,0,0,1,.91.43,1.59,1.59,0,0,1,.52.72,2.74,2.74,0,0,1,.13.85v.45c0,.28,0,.61-.06,1l-.11,2.51c0,.27,0,.61,0,1h-1.26c0-.49.11-1.26.18-2.32s.1-1.79.1-2.2a1.87,1.87,0,0,0-.2-.9,1.27,1.27,0,0,0-.66-.55,2.54,2.54,0,0,0-1-.19,2.67,2.67,0,0,0-1,.16,1.82,1.82,0,0,0-.69.4,2,2,0,0,0-.46.63,3.63,3.63,0,0,0-.26.81,15.7,15.7,0,0,0-.16,1.81c0,.46,0,1.24-.07,2.35h-1.22Z"/><path class="cls-2" d="M174.7,104.9a4.35,4.35,0,0,1,1.36.21,2.77,2.77,0,0,1,1.13.65,2.71,2.71,0,0,1,.72,1.12,4.26,4.26,0,0,1,.25,1.43,4.47,4.47,0,0,1-.27,1.55,3.55,3.55,0,0,1-.74,1.27,2.7,2.7,0,0,1-1.16.76,4.63,4.63,0,0,1-2.85,0,3.05,3.05,0,0,1-1.13-.69,3.17,3.17,0,0,1-.72-1.14,4.14,4.14,0,0,1-.24-1.41,4.36,4.36,0,0,1,.45-2,3,3,0,0,1,1.32-1.34A4.19,4.19,0,0,1,174.7,104.9Zm0,.87a2.44,2.44,0,0,0-1.28.35,2.07,2.07,0,0,0-.87,1,4.21,4.21,0,0,0-.28,1.53,3.58,3.58,0,0,0,.23,1.3,2,2,0,0,0,.77.93,2.22,2.22,0,0,0,1.28.36,2.61,2.61,0,0,0,1-.18,1.88,1.88,0,0,0,.8-.58,2.47,2.47,0,0,0,.51-1,4.93,4.93,0,0,0,.16-1.23,4.11,4.11,0,0,0-.16-1.13,1.87,1.87,0,0,0-.51-.84,2,2,0,0,0-.76-.45A2.85,2.85,0,0,0,174.67,105.77Z"/><path class="cls-2" d="M181.29,112l-.32-1-2.12-5.93H180l.61,1.84,1.39,4,2.16-5.86h1.24l1.58,5.86,1.91-4.53.53-1.33h1.16l-2.3,5.15-.76,1.77h-1.31L185,107.19c-.08-.32-.17-.63-.26-.94l-.14.35-.28.76-1.44,3.94-.24.68h-1.31Z"/><path class="cls-2" d="M196.28,111c0,.07,0,.2-.07.4s-.08.39-.1.59a7.28,7.28,0,0,1-1,.15c-.31,0-.58,0-.81,0a4.58,4.58,0,0,1-1.37-.19,2.78,2.78,0,0,1-1.09-.66,2.67,2.67,0,0,1-.68-1.12,4.49,4.49,0,0,1-.22-1.42,5.11,5.11,0,0,1,.36-1.91,3,3,0,0,1,1.12-1.42,3.7,3.7,0,0,1,2.08-.51,7,7,0,0,1,1.89.26c0,.39.06.71.08,1a8.56,8.56,0,0,0-1.06-.28,4.21,4.21,0,0,0-.76-.07,2.44,2.44,0,0,0-1.07.22,2.15,2.15,0,0,0-.81.62,2.43,2.43,0,0,0-.49,1,4.27,4.27,0,0,0-.14,1.13,3.54,3.54,0,0,0,.24,1.35,1.69,1.69,0,0,0,.83.9,2.86,2.86,0,0,0,1.35.32A5.52,5.52,0,0,0,196.28,111Z"/><path class="cls-2" d="M198.23,106.16c0-.2.09-.5.13-.89a11.69,11.69,0,0,1,1.43-.29,9.48,9.48,0,0,1,1.18-.08,5.27,5.27,0,0,1,1.15.12,2.25,2.25,0,0,1,.89.36,1.16,1.16,0,0,1,.47.58,2,2,0,0,1,.12.71c0,.31,0,.84-.07,1.58s-.09,1.42-.11,2,0,1.19,0,1.68h-1.22l.14-1.86.11-2.21-.36.26a1.71,1.71,0,0,1-.27.14l-.34.12c-.12,0-.35.11-.7.2l-.74.22a4.13,4.13,0,0,0-.75.3,2.36,2.36,0,0,0-.46.33,1.16,1.16,0,0,0-.26.36,1.18,1.18,0,0,0-.09.46,1,1,0,0,0,.22.64,1.17,1.17,0,0,0,.55.38,2.69,2.69,0,0,0,.8.1,4.22,4.22,0,0,0,.6,0,4.44,4.44,0,0,0,.84-.2c-.06.17-.13.44-.22.81q-.49.09-.81.12c-.21,0-.41,0-.59,0a4.09,4.09,0,0,1-1.47-.21,1.57,1.57,0,0,1-.78-.67,1.83,1.83,0,0,1-.26-1,1.7,1.7,0,0,1,.09-.57,1.51,1.51,0,0,1,.25-.47,1.7,1.7,0,0,1,.45-.43,2.84,2.84,0,0,1,.61-.35,7.51,7.51,0,0,1,.74-.27l1.36-.36c.2,0,.37-.09.51-.13l.38-.15a1.08,1.08,0,0,0,.28-.16,1,1,0,0,0,.23-.22.91.91,0,0,0,.15-.27.87.87,0,0,0,0-.28.85.85,0,0,0-.22-.57,1.17,1.17,0,0,0-.57-.33,3,3,0,0,0-.83-.1,5.88,5.88,0,0,0-.92.07,7.78,7.78,0,0,0-.8.17C198.85,105.93,198.57,106,198.23,106.16Z"/><path class="cls-2" d="M204.91,111.85l0-.5s0-.23-.05-.52a5,5,0,0,0,1.94.46,2,2,0,0,0,.78-.13.9.9,0,0,0,.48-.36.88.88,0,0,0,.17-.5,1,1,0,0,0-.05-.29,1.11,1.11,0,0,0-.13-.27,2.12,2.12,0,0,0-.26-.3l-.73-.6-.83-.69a3.94,3.94,0,0,1-.49-.52,2.17,2.17,0,0,1-.3-.53,1.61,1.61,0,0,1-.09-.54,1.43,1.43,0,0,1,.28-.84,1.65,1.65,0,0,1,.79-.62,3.52,3.52,0,0,1,1.23-.2,8.54,8.54,0,0,1,1.73.19c0,.35,0,.68.07,1a3.92,3.92,0,0,0-1.51-.31,2.27,2.27,0,0,0-.75.11,1,1,0,0,0-.51.31.83.83,0,0,0-.16.47.81.81,0,0,0,.06.31,1.15,1.15,0,0,0,.19.33,3.63,3.63,0,0,0,.34.34c.13.12.4.33.79.65a7.71,7.71,0,0,1,.81.69,3.26,3.26,0,0,1,.38.47,2.26,2.26,0,0,1,.23.47,2,2,0,0,1,.07.48,1.53,1.53,0,0,1-.29.89,1.74,1.74,0,0,1-.84.64,3.33,3.33,0,0,1-1.26.22l-.69,0-.67-.09Z"/><path class="cls-2" d="M216.46,110.9c-.06.25-.11.57-.17.95a9.19,9.19,0,0,1-1.14.23c-.32,0-.64,0-1,0a5.2,5.2,0,0,1-1.53-.2,2.74,2.74,0,0,1-1.17-.72,2.92,2.92,0,0,1-.69-1.16,4.54,4.54,0,0,1-.21-1.39,4.73,4.73,0,0,1,.38-1.89,3.09,3.09,0,0,1,1.18-1.37,3.63,3.63,0,0,1,2-.5,3.9,3.9,0,0,1,1.19.18,2.48,2.48,0,0,1,1,.55,2.54,2.54,0,0,1,.58.92,3.44,3.44,0,0,1,.2,1.18,2.45,2.45,0,0,1,0,.48H211.8q0,.38,0,.57a3,3,0,0,0,.3,1.33,2,2,0,0,0,.89.91,2.8,2.8,0,0,0,1.35.31A6.83,6.83,0,0,0,216.46,110.9Zm-4.61-3.26h4.07a3.81,3.81,0,0,0,0-.67,1.72,1.72,0,0,0-.18-.49,1.52,1.52,0,0,0-.35-.45,1.58,1.58,0,0,0-.53-.28,2.15,2.15,0,0,0-.68-.1,2.29,2.29,0,0,0-.74.11,2.1,2.1,0,0,0-.62.3,2,2,0,0,0-.46.45,2.26,2.26,0,0,0-.28.49A4.88,4.88,0,0,0,211.85,107.64Z"/><path class="cls-2" d="M221.71,112l.07-1c0-.21,0-.54.06-1l.16-4.16c0-.34,0-.6,0-.78h1.15l-.06,1.27c.16-.25.3-.46.42-.61a1.89,1.89,0,0,1,.5-.41,2.47,2.47,0,0,1,.7-.3,3.12,3.12,0,0,1,.82-.11,2.3,2.3,0,0,1,.58.07,3,3,0,0,1,.53.19,1.84,1.84,0,0,1,.41.28,1.44,1.44,0,0,1,.28.34,2.69,2.69,0,0,1,.22.54,2.43,2.43,0,0,1,1-1.1,3.07,3.07,0,0,1,1.4-.32,2.75,2.75,0,0,1,.95.16,1.66,1.66,0,0,1,.74.45,1.56,1.56,0,0,1,.36.61,2.37,2.37,0,0,1,.1.64c0,.22,0,.55-.05,1s-.07,1.1-.11,2-.06,1.64-.07,2.23H230.7c.05-.61.1-1.28.13-2l.09-1.69c0-.41,0-.76,0-1.06a1.69,1.69,0,0,0-.09-.62,1,1,0,0,0-.26-.4,1.28,1.28,0,0,0-.45-.28,1.85,1.85,0,0,0-.6-.09,2,2,0,0,0-.51.06,1.59,1.59,0,0,0-.42.19,1.81,1.81,0,0,0-.71.74,2.12,2.12,0,0,0-.21.57,5.12,5.12,0,0,0-.14,1c0,.42-.06,1-.08,1.67l-.05,1.91h-1.22c0-.56.08-1.14.11-1.74l.08-1.65c0-.51,0-1,0-1.31a2.49,2.49,0,0,0-.06-.59,1.17,1.17,0,0,0-.26-.44,1.25,1.25,0,0,0-.45-.31,1.63,1.63,0,0,0-.59-.11,1.75,1.75,0,0,0-.65.12,1.87,1.87,0,0,0-.57.35,2.28,2.28,0,0,0-.44.57,3.36,3.36,0,0,0-.27.89,15.85,15.85,0,0,0-.16,1.92c0,.91-.06,1.68-.06,2.3h-1.22Z"/><path class="cls-2" d="M232.6,115.15c0-.39-.07-.71-.12-1a2.32,2.32,0,0,0,.64.22,2.49,2.49,0,0,0,.5.06,1.58,1.58,0,0,0,.52-.09,1.2,1.2,0,0,0,.41-.26,2.63,2.63,0,0,0,.33-.44,7.16,7.16,0,0,0,.37-.65,8.19,8.19,0,0,0,.37-.83L234.16,108l-1.06-3h1.28c.07.32.13.56.18.73s.16.51.33,1l1,3.14c.11.35.23.74.34,1.15l.77-1.89,1.43-3.34a2.88,2.88,0,0,0,.13-.31q0-.16.18-.51H240c-.17.4-.6,1.35-1.29,2.83l-2.53,5.64a4.73,4.73,0,0,1-.49.86,2.08,2.08,0,0,1-.38.4,1.6,1.6,0,0,1-.37.25,2.38,2.38,0,0,1-.55.19,2.81,2.81,0,0,1-.65.07A4.85,4.85,0,0,1,232.6,115.15Z"/><path class="cls-2" d="M15.19,128.65l0-.5c0-.05,0-.23-.05-.52a5,5,0,0,0,1.94.46,2.08,2.08,0,0,0,.79-.13,1,1,0,0,0,.48-.36,1,1,0,0,0,.16-.5,1,1,0,0,0,0-.29,1.11,1.11,0,0,0-.13-.27,2.12,2.12,0,0,0-.26-.3l-.73-.6-.83-.69a3.94,3.94,0,0,1-.49-.52,1.85,1.85,0,0,1-.29-.53,1.4,1.4,0,0,1-.1-.54,1.43,1.43,0,0,1,.28-.84,1.63,1.63,0,0,1,.8-.62,3.47,3.47,0,0,1,1.22-.2,8.54,8.54,0,0,1,1.73.19c0,.35,0,.68.07,1a3.92,3.92,0,0,0-1.51-.31,2.27,2.27,0,0,0-.75.11.92.92,0,0,0-.5.31.74.74,0,0,0-.16.47.81.81,0,0,0,.05.31,1.21,1.21,0,0,0,.2.33,2.61,2.61,0,0,0,.33.34l.79.65a7.71,7.71,0,0,1,.81.69,3.26,3.26,0,0,1,.38.47,2.26,2.26,0,0,1,.23.47,1.59,1.59,0,0,1,.07.48,1.52,1.52,0,0,1-.28.89,1.77,1.77,0,0,1-.85.64,3.33,3.33,0,0,1-1.26.22l-.69,0-.67-.09Z"/><path class="cls-2" d="M21.09,128.78l.11-1.85.15-3.55.07-3c0-.43,0-.75,0-1h1.23c-.06.74-.13,2.16-.22,4.28s-.13,3.8-.14,5H21.09Zm1.4-3.86,1.4-1.49c.49-.52.95-1,1.38-1.57h1.41l-2.95,3.06c.55.73,1.62,2,3.2,3.86H25.55l-1-1.33-.64-.78-1.06-1.29Z"/><path class="cls-2" d="M27.82,128.78l.12-1.72.13-2.94.06-2.26h1.24c-.05.71-.1,1.45-.14,2.23s-.07,1.63-.1,2.55,0,1.63,0,2.14H27.82Zm.31-8.41c0-.43,0-.75,0-1h1.32c0,.14,0,.46,0,1h-1.3Z"/><path class="cls-2" d="M30.94,128.78c.09-1.4.18-3.06.27-5,.06-1.4.1-2.84.13-4.34h1.24l-.21,4-.15,4.06,0,1.25H30.94Z"/><path class="cls-2" d="M34.08,128.78c.09-1.4.18-3.06.27-5,.06-1.4.1-2.84.13-4.34h1.24l-.21,4-.15,4.06,0,1.25H34.08Z"/><path class="cls-2" d="M36.89,128.65l0-.5c0-.05,0-.23-.05-.52a5,5,0,0,0,1.94.46,2,2,0,0,0,.78-.13.9.9,0,0,0,.48-.36.88.88,0,0,0,.17-.5,1,1,0,0,0-.05-.29,1.11,1.11,0,0,0-.13-.27,1.73,1.73,0,0,0-.27-.3l-.72-.6c-.37-.3-.65-.53-.83-.69a3.37,3.37,0,0,1-.49-.52,2.17,2.17,0,0,1-.3-.53,1.61,1.61,0,0,1-.09-.54,1.49,1.49,0,0,1,.27-.84,1.72,1.72,0,0,1,.8-.62,3.52,3.52,0,0,1,1.23-.2,8.54,8.54,0,0,1,1.73.19c0,.35,0,.68.07,1a3.92,3.92,0,0,0-1.51-.31,2.27,2.27,0,0,0-.75.11,1,1,0,0,0-.51.31.79.79,0,0,0-.1.78,1.15,1.15,0,0,0,.19.33,3.63,3.63,0,0,0,.34.34c.13.12.4.33.79.65a9,9,0,0,1,.81.69,3.26,3.26,0,0,1,.38.47,2.26,2.26,0,0,1,.23.47,2,2,0,0,1,.07.48,1.53,1.53,0,0,1-.29.89,1.79,1.79,0,0,1-.84.64,3.33,3.33,0,0,1-1.26.22l-.69,0-.67-.09Z"/><path class="cls-2" d="M16,135.65h1.4v9.93H16Zm.72,4.75h3.18a1.48,1.48,0,0,0,.79-.21,1.35,1.35,0,0,0,.53-.6,2.23,2.23,0,0,0,0-1.8,1.35,1.35,0,0,0-.53-.6,1.4,1.4,0,0,0-.79-.22H16.69v-1.32h3.13a3.2,3.2,0,0,1,1.57.37,2.7,2.7,0,0,1,1.05,1.07,3.64,3.64,0,0,1,0,3.2,2.61,2.61,0,0,1-1.05,1.06,3.2,3.2,0,0,1-1.57.38H16.69Z"/><path class="cls-2" d="M23.46,138.49h1.42l2.18,6.17-.77,1.51Zm6.28,0-3,8.76a2,2,0,0,1-.43.76,1.51,1.51,0,0,1-.66.41,3.28,3.28,0,0,1-.95.12h-.29V147.2h.29a1.1,1.1,0,0,0,.61-.15,1.23,1.23,0,0,0,.4-.54l2.63-8Z"/><path class="cls-2" d="M30.56,138.49h3.2v1.26h-3.2Zm1.13,6.65a2.14,2.14,0,0,1-.4-1.4v-7.32h1.4v7.33a.64.64,0,0,0,.1.4.34.34,0,0,0,.3.14h.67v1.33H33A1.56,1.56,0,0,1,31.69,145.14Z"/><path class="cls-2" d="M35.67,135.65h1.4v9.93h-1.4ZM40,141.28a1.63,1.63,0,0,0-.39-1.16,1.44,1.44,0,0,0-1.09-.41,1.46,1.46,0,0,0-1.06.36,1.31,1.31,0,0,0-.37,1l-.14-1.36a2.48,2.48,0,0,1,.85-1,2.14,2.14,0,0,1,1.18-.34,2.19,2.19,0,0,1,1.78.75,3.27,3.27,0,0,1,.64,2.14v4.3H40Z"/><path class="cls-2" d="M44.64,145.32a2.31,2.31,0,0,1-1-1,3.58,3.58,0,0,1-.35-1.67v-1.16a3.53,3.53,0,0,1,.35-1.65,2.36,2.36,0,0,1,1-1,3.72,3.72,0,0,1,3.15,0,2.44,2.44,0,0,1,1,1,3.65,3.65,0,0,1,.34,1.65v1.18a3.67,3.67,0,0,1-.34,1.66,2.41,2.41,0,0,1-1,1,3.54,3.54,0,0,1-3.15,0Zm2.71-1.42a1.9,1.9,0,0,0,.4-1.28v-1.18a1.9,1.9,0,0,0-.4-1.28,1.66,1.66,0,0,0-2.27,0,1.9,1.9,0,0,0-.4,1.28v1.18a1.9,1.9,0,0,0,.4,1.28,1.63,1.63,0,0,0,2.27,0Z"/><path class="cls-2" d="M51.12,138.49h1.4v7.09h-1.4Zm4.31,2.79a1.63,1.63,0,0,0-.39-1.16,1.44,1.44,0,0,0-1.09-.41,1.46,1.46,0,0,0-1.06.36,1.38,1.38,0,0,0-.37,1l-.15-1.36a2.54,2.54,0,0,1,.86-1,2.06,2.06,0,0,1,1.17-.35,2.2,2.2,0,0,1,1.79.75,3.27,3.27,0,0,1,.63,2.14v4.3H55.43Z"/><path class="cls-2" d="M58.7,144.12h1.47v2.22l-1.47,1.51Z"/><path class="cls-2" d="M67.64,145.55a5.14,5.14,0,0,1-1.2-.41,5,5,0,0,1-1-.68l.86-1.07a4,4,0,0,0,1.26.74,4.42,4.42,0,0,0,1.48.24,3,3,0,0,0,1.67-.39,1.3,1.3,0,0,0,.6-1.14h0A1.22,1.22,0,0,0,71,142a1.63,1.63,0,0,0-.7-.45,7.06,7.06,0,0,0-1.1-.27h-.09l-.1,0a11.94,11.94,0,0,1-1.63-.39,2.26,2.26,0,0,1-1.07-.79,2.62,2.62,0,0,1-.44-1.62h0a2.91,2.91,0,0,1,.41-1.57,2.62,2.62,0,0,1,1.21-1,4.94,4.94,0,0,1,1.91-.34,4.7,4.7,0,0,1,1,.12,5.46,5.46,0,0,1,1,.34,6.24,6.24,0,0,1,1,.58l-.79,1.11a4.76,4.76,0,0,0-1.13-.63,3.25,3.25,0,0,0-1.13-.2,2.71,2.71,0,0,0-1.59.4,1.35,1.35,0,0,0-.56,1.15h0a1.13,1.13,0,0,0,.29.81,1.73,1.73,0,0,0,.72.43,12.22,12.22,0,0,0,1.21.29h.1l.08,0h.07a7.68,7.68,0,0,1,1.51.44,2.34,2.34,0,0,1,1,.81,2.62,2.62,0,0,1,.41,1.55h0a2.69,2.69,0,0,1-.43,1.55,2.66,2.66,0,0,1-1.25,1,5.23,5.23,0,0,1-2,.34A6.6,6.6,0,0,1,67.64,145.55Z"/><path class="cls-2" d="M74,138.49h3.2v1.26H74Zm1.13,6.65a2.09,2.09,0,0,1-.4-1.4v-7.32h1.39v7.33a.64.64,0,0,0,.11.4.34.34,0,0,0,.3.14h.67v1.33h-.81A1.56,1.56,0,0,1,75.08,145.14Z"/><path class="cls-2" d="M79.06,138.49h1.4v7.09h-1.4Zm3.44,1.34a1.64,1.64,0,0,0-.65-.12,1.27,1.27,0,0,0-1.39,1.38l-.15-1.36a2.52,2.52,0,0,1,.85-1,2,2,0,0,1,1.15-.35,2.46,2.46,0,0,1,.88.14,1.88,1.88,0,0,1,.68.41l-.9,1.23A1.24,1.24,0,0,0,82.5,139.83Z"/><path class="cls-2" d="M86.12,145.32a2.51,2.51,0,0,1-1.06-1.08,3.84,3.84,0,0,1-.37-1.73v-.8a4.13,4.13,0,0,1,.36-1.8,2.44,2.44,0,0,1,1-1.13,3.12,3.12,0,0,1,1.61-.39,2.55,2.55,0,0,1,1.52.44,2.79,2.79,0,0,1,1,1.29,5.5,5.5,0,0,1,.33,2v.47H85.71v-1.12h3.46a2.51,2.51,0,0,0-.45-1.35,1.28,1.28,0,0,0-1-.49,1.53,1.53,0,0,0-1.23.52,2.3,2.3,0,0,0-.43,1.47v.91a1.86,1.86,0,0,0,.47,1.35,1.79,1.79,0,0,0,1.32.47,2.29,2.29,0,0,0,.84-.17,2.35,2.35,0,0,0,.74-.48l.92.92a3.89,3.89,0,0,1-1.19.78,3.39,3.39,0,0,1-1.31.28A3.67,3.67,0,0,1,86.12,145.32Z"/><path class="cls-2" d="M92.71,145.14a2,2,0,0,1-.65-1.65,2,2,0,0,1,.6-1.58,2.65,2.65,0,0,1,1.8-.52h2l.1,1.12H94.46a1.19,1.19,0,0,0-.81.24,1,1,0,0,0-.27.74.92.92,0,0,0,.36.8,1.79,1.79,0,0,0,1.09.26,3,3,0,0,0,1.19-.17.56.56,0,0,0,.39-.53l.15,1a1.72,1.72,0,0,1-.46.47,2,2,0,0,1-.63.27,2.75,2.75,0,0,1-.79.1A3,3,0,0,1,92.71,145.14Zm3.7-4A1.5,1.5,0,0,0,96,140a1.43,1.43,0,0,0-1.06-.38,2.62,2.62,0,0,0-.83.13,2.21,2.21,0,0,0-.72.36l-1-.7a2.72,2.72,0,0,1,1.07-.75,3.8,3.8,0,0,1,1.46-.27,3.33,3.33,0,0,1,1.51.31,2.2,2.2,0,0,1,1,.9,2.88,2.88,0,0,1,.33,1.43v4.55H96.41Z"/><path class="cls-2" d="M99.86,138.49h1.39v7.09H99.86Zm4.24,2.79a1.72,1.72,0,0,0-.37-1.16,1.36,1.36,0,0,0-1-.41,1.46,1.46,0,0,0-1.06.36,1.42,1.42,0,0,0-.37,1l-.14-1.36a2.46,2.46,0,0,1,.86-1,2,2,0,0,1,1.17-.35,2.25,2.25,0,0,1,1.27.34,2.06,2.06,0,0,1,.8,1,3.93,3.93,0,0,1,.28,1.57v4.3H104.1Zm4.23,0a1.63,1.63,0,0,0-.39-1.16,1.44,1.44,0,0,0-1.09-.41,1.25,1.25,0,0,0-1,.4,1.6,1.6,0,0,0-.36,1.12l-.28-1.37a2.69,2.69,0,0,1,.89-1.09,2.09,2.09,0,0,1,1.21-.38,2.39,2.39,0,0,1,1.31.34,2,2,0,0,1,.82,1,3.93,3.93,0,0,1,.29,1.57v4.3h-1.4Z"/><path class="cls-2" d="M113.24,143.75a.64.64,0,0,0,.11.4.39.39,0,0,0,.32.14h.66v1.33h-.82a1.58,1.58,0,0,1-1.23-.49,2,2,0,0,1-.43-1.39v-8.09h1.39Z"/><path class="cls-2" d="M115.9,135.65h1.4V137h-1.4Zm0,2.84h1.4v7.09h-1.4Z"/><path class="cls-2" d="M118.87,138.49h3.2v1.26h-3.2Zm1.13,6.65a2.09,2.09,0,0,1-.4-1.4v-7.32H121v7.33a.64.64,0,0,0,.11.4.32.32,0,0,0,.3.14h.67v1.33h-.81A1.56,1.56,0,0,1,120,145.14Z"/><path class="cls-2" d="M123.74,144.12h1.46v2.22l-1.46,1.51Z"/><path class="cls-2" d="M133.76,135.65H135l3.66,9.93h-1.5l-2.76-8-2.75,8h-1.51Zm-2,6.43H137v1.32h-5.23Z"/><path class="cls-2" d="M141.37,142.8a1.63,1.63,0,0,0,.38,1.15,1.36,1.36,0,0,0,1.07.41,1.46,1.46,0,0,0,1.06-.36,1.37,1.37,0,0,0,.38-1l.09,1.48a2,2,0,0,1-1.92,1.24,2.22,2.22,0,0,1-1.81-.76,3.17,3.17,0,0,1-.64-2.13v-4.31h1.39Zm2.89-4.31h1.38v7.09h-1.38Z"/><path class="cls-2" d="M147.22,138.49h3.2v1.26h-3.2Zm1.13,6.65a2.09,2.09,0,0,1-.4-1.4v-7.32h1.39v7.33a.71.71,0,0,0,.1.4.34.34,0,0,0,.31.14h.67v1.33h-.81A1.53,1.53,0,0,1,148.35,145.14Z"/><path class="cls-2" d="M153.47,145.32a2.36,2.36,0,0,1-1-1,3.71,3.71,0,0,1-.35-1.67v-1.16a3.65,3.65,0,0,1,.35-1.65,2.42,2.42,0,0,1,1-1,3.74,3.74,0,0,1,3.16,0,2.42,2.42,0,0,1,1,1,3.65,3.65,0,0,1,.35,1.65v1.18a3.67,3.67,0,0,1-.35,1.66,2.39,2.39,0,0,1-1,1,3.56,3.56,0,0,1-3.16,0Zm2.71-1.42a1.85,1.85,0,0,0,.4-1.28v-1.18a1.85,1.85,0,0,0-.4-1.28,1.64,1.64,0,0,0-2.26,0,1.85,1.85,0,0,0-.4,1.28v1.18a1.85,1.85,0,0,0,.4,1.28,1.62,1.62,0,0,0,2.26,0Z"/><path class="cls-2" d="M167.24,135.65h1.3v9.93h-1.36v-7.44l.07.44-2.44,5.62h-1l-2.44-5.49.07-.57v7.44H160.1v-9.93h1.3l2.92,6.56Z"/><path class="cls-2" d="M171,135.65h1.39v9.93H171Zm.69,8.61h5.69v1.32H171.7Z"/></g></g></svg>