<svg xmlns="http://www.w3.org/2000/svg" viewBox="0 0 285.22 158.25"><defs><style>.cls-1{fill:#fff;stroke:#231f20;stroke-miterlimit:10;stroke-width:2px;}.cls-2{font-size:23px;font-family:ErasITC-Bold, Eras Bold ITC;font-weight:700;}.cls-2,.cls-3{fill:#231f20;}</style></defs><g id="Layer_2" data-name="Layer 2"><g id="Layer_1-2" data-name="Layer 1"><rect class="cls-1" x="1" y="1" width="283.22" height="156.25"/><text class="cls-2" transform="translate(11.57 34.72)">Telecom Churn <tspan x="0" y="27.6">Prediction</tspan></text><path class="cls-3" d="M14.42,95.18l1.25-2.35,3.17-6.2.37-.78H20.8L22,89.2l2.19,6H22.79c-.12-.43-.33-1.07-.61-1.9s-.53-1.5-.72-2H17.72l-1,2-.87,1.87H14.42Zm3.7-4.82H21.2l-1.27-3.61Z"/><path class="cls-3" d="M25.21,95.18q.33-4.28.35-6.92h1.21l-.09,1.37c.11-.19.2-.34.27-.44a2.46,2.46,0,0,1,.27-.33,2.78,2.78,0,0,1,.41-.32,2.25,2.25,0,0,1,.54-.24,3.71,3.71,0,0,1,.64-.15,4.87,4.87,0,0,1,.65-.05,4.22,4.22,0,0,1,1.13.15,2,2,0,0,1,.9.46,1.51,1.51,0,0,1,.47.73,2.73,2.73,0,0,1,.13.87c0,.06,0,.17,0,.34s0,.39,0,.67l-.13,2.86c0,.27,0,.61,0,1H30.68c.05-.55.08-1.08.11-1.59L30.88,92c0-.55,0-1,0-1.24a1.9,1.9,0,0,0-.21-1,1.28,1.28,0,0,0-.65-.55,2.54,2.54,0,0,0-1-.2,2.41,2.41,0,0,0-1.36.38,2.29,2.29,0,0,0-.81,1,5,5,0,0,0-.28,1.35c-.07.72-.12,1.86-.14,3.41H25.21Z"/><path class="cls-3" d="M42.87,94.1c-.06.25-.11.57-.17,1a10,10,0,0,1-1.14.23,7.72,7.72,0,0,1-1,0,5.16,5.16,0,0,1-1.53-.2,2.68,2.68,0,0,1-1.17-.72,2.92,2.92,0,0,1-.69-1.16A4.26,4.26,0,0,1,37,91.86,4.57,4.57,0,0,1,37.38,90a3.07,3.07,0,0,1,1.17-1.37,3.69,3.69,0,0,1,2-.5,3.9,3.9,0,0,1,1.19.18,2.37,2.37,0,0,1,.94.55,2.56,2.56,0,0,1,.59.92,3.44,3.44,0,0,1,.2,1.18,2.45,2.45,0,0,1,0,.48H38.2c0,.25,0,.44,0,.58a3,3,0,0,0,.3,1.32,2,2,0,0,0,.89.91,2.8,2.8,0,0,0,1.35.31A6.83,6.83,0,0,0,42.87,94.1Zm-4.61-3.26h4.07a3.81,3.81,0,0,0,0-.67,1.72,1.72,0,0,0-.18-.49,1.52,1.52,0,0,0-.35-.45,1.54,1.54,0,0,0-.54-.28,2,2,0,0,0-.67-.1,2.25,2.25,0,0,0-.74.11,2,2,0,0,0-.62.3,1.79,1.79,0,0,0-.46.45,1.91,1.91,0,0,0-.28.49A4.88,4.88,0,0,0,38.26,90.84Z"/><path class="cls-3" d="M44.59,95.18q.33-4.28.34-6.92h1.21l-.09,1.37c.11-.19.2-.34.27-.44a2,2,0,0,1,.28-.33,2.24,2.24,0,0,1,.4-.32,2.33,2.33,0,0,1,.55-.24,3.5,3.5,0,0,1,.64-.15,4.6,4.6,0,0,1,.64-.05,4.35,4.35,0,0,1,1.14.15,2.14,2.14,0,0,1,.9.46,1.67,1.67,0,0,1,.47.73,3,3,0,0,1,.12.87c0,.06,0,.17,0,.34s0,.39,0,.67l-.13,2.86c0,.27,0,.61,0,1H50.06c0-.55.08-1.08.1-1.59L50.25,92c0-.55,0-1,0-1.24a2,2,0,0,0-.2-1,1.35,1.35,0,0,0-.66-.55,2.53,2.53,0,0,0-1-.2,2.45,2.45,0,0,0-1.37.38,2.27,2.27,0,0,0-.8,1A4.31,4.31,0,0,0,46,91.77c-.07.72-.12,1.86-.15,3.41H44.59Z"/><path class="cls-3" d="M59.54,95.2l-.56,0h-.6l.08-1.47a6.49,6.49,0,0,1-.37.59,2.72,2.72,0,0,1-.37.39,2.17,2.17,0,0,1-.5.33,2.48,2.48,0,0,1-.63.23,3,3,0,0,1-.74.08,3.34,3.34,0,0,1-1.24-.23,2.56,2.56,0,0,1-1-.69,2.64,2.64,0,0,1-.59-1,4.64,4.64,0,0,1-.17-1.24,4.54,4.54,0,0,1,.33-1.69,3.51,3.51,0,0,1,.95-1.38,3.61,3.61,0,0,1,1.38-.76,6.25,6.25,0,0,1,1.64-.21,9.13,9.13,0,0,1,1.43.14c0-.5,0-.91,0-1.24V85.85h1.24l-.2,3.86-.13,4.43Zm-1-6.1a5.16,5.16,0,0,0-.7-.16l-.56,0A4,4,0,0,0,56,89.1a2.68,2.68,0,0,0-1.05.62,2.89,2.89,0,0,0-.7,1.09,3.77,3.77,0,0,0-.24,1.3,2.89,2.89,0,0,0,.23,1.18,1.74,1.74,0,0,0,.72.86,2,2,0,0,0,1.14.32,2.3,2.3,0,0,0,.71-.11,1.8,1.8,0,0,0,.58-.31,2.45,2.45,0,0,0,.5-.55,3.34,3.34,0,0,0,.37-.81,6.79,6.79,0,0,0,.17-1.09q0-.33.06-1.29Z"/><path class="cls-3" d="M60.58,92a7.69,7.69,0,0,0,.06-.91c.63,0,1.2,0,1.7,0s1.06,0,1.7,0c0,.32-.05.63-.05.91-.57,0-1.14,0-1.72,0Z"/><path class="cls-3" d="M68.36,94.28c0,.23-.11.52-.17.89a6.94,6.94,0,0,1-.74.14,4.61,4.61,0,0,1-.52,0,2.69,2.69,0,0,1-1-.15,1.19,1.19,0,0,1-.57-.49,1.85,1.85,0,0,1-.2-.92s0-.14,0-.27,0-.57.07-1.33l.17-3.06h-.92c0-.19,0-.47,0-.82h.93c0-.26.05-.69.07-1.31.43-.08.79-.16,1.09-.23,0,.67-.05,1.19-.06,1.54h1.9c0,.28,0,.56,0,.82H66.56L66.38,93v.29a2,2,0,0,0,.11.75.79.79,0,0,0,.34.36,1.12,1.12,0,0,0,.47.11l.37,0C67.79,94.42,68,94.37,68.36,94.28Z"/><path class="cls-3" d="M72.81,88.1a4.35,4.35,0,0,1,1.36.21A2.77,2.77,0,0,1,75.3,89,2.71,2.71,0,0,1,76,90.08a4.26,4.26,0,0,1,.25,1.43A4.57,4.57,0,0,1,76,93.07a3.59,3.59,0,0,1-.74,1.26,2.7,2.7,0,0,1-1.16.76,4.63,4.63,0,0,1-2.85,0,3.05,3.05,0,0,1-1.13-.69,3.17,3.17,0,0,1-.72-1.14,4.14,4.14,0,0,1-.24-1.41,4.36,4.36,0,0,1,.45-2,3,3,0,0,1,1.32-1.34A4.19,4.19,0,0,1,72.81,88.1Zm0,.87a2.44,2.44,0,0,0-1.28.35,2.07,2.07,0,0,0-.87,1.05,4.21,4.21,0,0,0-.28,1.53,3.38,3.38,0,0,0,.24,1.3,2,2,0,0,0,.76.93,2.22,2.22,0,0,0,1.28.36,2.61,2.61,0,0,0,1-.18,1.94,1.94,0,0,0,.8-.57,2.58,2.58,0,0,0,.51-1,4.93,4.93,0,0,0,.16-1.23,4.11,4.11,0,0,0-.16-1.13,1.87,1.87,0,0,0-.51-.84,2,2,0,0,0-.76-.45A2.85,2.85,0,0,0,72.78,89Z"/><path class="cls-3" d="M76.81,92a7.69,7.69,0,0,0,.06-.91c.63,0,1.2,0,1.7,0s1.05,0,1.7,0c0,.32,0,.63,0,.91-.57,0-1.14,0-1.72,0Z"/><path class="cls-3" d="M86.76,94.1c-.06.25-.11.57-.17,1a9.45,9.45,0,0,1-1.13.23,7.72,7.72,0,0,1-1,0,5.27,5.27,0,0,1-1.54-.2,2.65,2.65,0,0,1-1.16-.72,2.83,2.83,0,0,1-.7-1.16A4.75,4.75,0,0,1,81.28,90a3.07,3.07,0,0,1,1.17-1.37,3.63,3.63,0,0,1,2-.5,3.85,3.85,0,0,1,1.19.18,2.41,2.41,0,0,1,.95.55,2.54,2.54,0,0,1,.58.92,3.21,3.21,0,0,1,.2,1.18,2.45,2.45,0,0,1,0,.48H82.1c0,.25,0,.44,0,.58a3,3,0,0,0,.3,1.32,2,2,0,0,0,.89.91,2.8,2.8,0,0,0,1.35.31A6.78,6.78,0,0,0,86.76,94.1Zm-4.61-3.26h4.08a4.85,4.85,0,0,0-.06-.67,1.72,1.72,0,0,0-.18-.49,1.37,1.37,0,0,0-.35-.45,1.49,1.49,0,0,0-.53-.28,2.11,2.11,0,0,0-.68-.1,2.29,2.29,0,0,0-.74.11,2.1,2.1,0,0,0-.62.3,2,2,0,0,0-.46.45,2.26,2.26,0,0,0-.28.49A4.88,4.88,0,0,0,82.15,90.84Z"/><path class="cls-3" d="M88.48,95.18q.33-4.28.34-6.92H90l-.09,1.37.28-.44a1.87,1.87,0,0,1,.27-.33,2.67,2.67,0,0,1,.4-.32,2.53,2.53,0,0,1,.55-.24,3.5,3.5,0,0,1,.64-.15,4.74,4.74,0,0,1,.65-.05,4.22,4.22,0,0,1,1.13.15,2,2,0,0,1,.9.46,1.58,1.58,0,0,1,.47.73,3,3,0,0,1,.12.87c0,.06,0,.17,0,.34s0,.39,0,.67l-.14,2.86c0,.27,0,.61,0,1H94c0-.55.08-1.08.1-1.59L94.14,92c0-.55,0-1,0-1.24a1.9,1.9,0,0,0-.2-1,1.35,1.35,0,0,0-.66-.55,2.53,2.53,0,0,0-1-.2,2.41,2.41,0,0,0-1.36.38,2.22,2.22,0,0,0-.81,1,4.62,4.62,0,0,0-.28,1.35c-.07.72-.12,1.86-.15,3.41H88.48Z"/><path class="cls-3" d="M100.43,95.18l.15-1.26.43-5.09.2-3H103l.16.6c0,.16.1.34.17.56s.19.57.35,1.07l.85,2.43,1,3.25,1.36-3.25L108.45,87a3.7,3.7,0,0,0,.16-.4c0-.15.14-.38.25-.7h1.8l-.09,3.26,0,2.14v3c0,.1,0,.4,0,.88h-1.23l.05-.86.1-4.93c0-.55,0-1.16,0-1.83V87l-3,7.2-.39,1h-1.28L104,92.61l-.83-2.54-.84-2.45c0-.11-.09-.3-.18-.58l-.08.8-.42,5.87,0,.59c0,.2,0,.49,0,.88h-1.16Z"/><path class="cls-3" d="M112.53,95.18c.1-1.17.19-2.61.27-4.31s.12-3.37.14-5h1.35l-.21,4.33-.17,4.09h1.3l2,0c.39,0,.78,0,1.15,0,0,.29-.05.61-.07,1h-5.8Z"/><path class="cls-3" d="M122.66,98.27c.09-1.17.18-2.77.26-4.79s.12-3.68.13-5c.75-.16,1.35-.27,1.8-.32a10.2,10.2,0,0,1,1.35-.09,4.77,4.77,0,0,1,1.85.34,2.47,2.47,0,0,1,1.22,1.19,4.18,4.18,0,0,1,.44,1.92A4.92,4.92,0,0,1,129.5,93a3.53,3.53,0,0,1-.62,1.24,2.72,2.72,0,0,1-1,.83,3.18,3.18,0,0,1-1.32.27,3.36,3.36,0,0,1-.85-.1A2.62,2.62,0,0,1,125,95a2.19,2.19,0,0,1-.5-.38,6,6,0,0,1-.49-.64l-.08,2.71q0,.66,0,1v.67h-1.23Zm1.57-8.94,0,.52,0,.71c0,.37,0,.67,0,.91s0,.4,0,.49a4.21,4.21,0,0,0,.11,1,1.89,1.89,0,0,0,.42.82,2.08,2.08,0,0,0,.75.57,2.13,2.13,0,0,0,.89.19,2.06,2.06,0,0,0,1.16-.35,2.35,2.35,0,0,0,.82-1.06,3.91,3.91,0,0,0,.29-1.54,3.23,3.23,0,0,0-.3-1.45,1.92,1.92,0,0,0-.83-.88,2.53,2.53,0,0,0-1.18-.27A5.72,5.72,0,0,0,124.23,89.33Z"/><path class="cls-3" d="M131,95.18c.16-2.63.24-4.72.24-6.29v-.63h1.15l0,1.13a4.79,4.79,0,0,1,.45-.64,1.66,1.66,0,0,1,.44-.35,2.26,2.26,0,0,1,.55-.22,2.82,2.82,0,0,1,.65-.08,2.22,2.22,0,0,1,.57.07c0,.3,0,.64.05,1a3.31,3.31,0,0,0-.76-.11,1.9,1.9,0,0,0-.73.13,1.83,1.83,0,0,0-.58.4,2.27,2.27,0,0,0-.42.65,2.75,2.75,0,0,0-.2.78,17.31,17.31,0,0,0-.12,1.74c0,.62,0,1.27,0,2v.45H131Z"/><path class="cls-3" d="M139.39,88.1a4.46,4.46,0,0,1,1.37.21,2.8,2.8,0,0,1,1.12.65,2.71,2.71,0,0,1,.72,1.12,4,4,0,0,1,.25,1.43,4.82,4.82,0,0,1-.26,1.56,3.92,3.92,0,0,1-.74,1.26,2.8,2.8,0,0,1-1.17.76,4.36,4.36,0,0,1-1.47.24,4.43,4.43,0,0,1-1.38-.21,2.93,2.93,0,0,1-1.12-.69,3.06,3.06,0,0,1-.73-1.14,4.14,4.14,0,0,1-.24-1.41,4.36,4.36,0,0,1,.45-2,2.93,2.93,0,0,1,1.33-1.34A4.12,4.12,0,0,1,139.39,88.1Zm0,.87a2.46,2.46,0,0,0-1.28.35,2.07,2.07,0,0,0-.87,1.05,4.21,4.21,0,0,0-.28,1.53,3.38,3.38,0,0,0,.24,1.3,2,2,0,0,0,.76.93,2.24,2.24,0,0,0,1.28.36,2.58,2.58,0,0,0,1-.18,1.88,1.88,0,0,0,.8-.57,2.58,2.58,0,0,0,.51-1,4.51,4.51,0,0,0,.16-1.23,3.77,3.77,0,0,0-.16-1.13,1.94,1.94,0,0,0-.5-.84,2,2,0,0,0-.77-.45A2.8,2.8,0,0,0,139.36,89Z"/><path class="cls-3" d="M145.72,88.26l-.14,3-.11,3.06q-.06,1.83-.12,2.28a3.18,3.18,0,0,1-.18.8,1.91,1.91,0,0,1-.26.41,1.55,1.55,0,0,1-.41.34,1.86,1.86,0,0,1-.56.24,3.6,3.6,0,0,1-.92.1,8.45,8.45,0,0,1-1.8-.21c0-.26,0-.58-.09-1a4.34,4.34,0,0,0,1.49.3,1.83,1.83,0,0,0,.71-.14,1.29,1.29,0,0,0,.45-.29,1.37,1.37,0,0,0,.26-.45,3.29,3.29,0,0,0,.19-.89c0-.5.08-1.24.13-2.2,0-.28,0-1,.07-2.09,0-1.54.07-2.44.07-2.68v-.62h1.23Zm-1.22-1.5q0-.39,0-1h1.32c0,.23,0,.55,0,1H144.5Z"/><path class="cls-3" d="M153,94.1c0,.25-.11.57-.16,1a10,10,0,0,1-1.14.23,7.72,7.72,0,0,1-1,0,5.16,5.16,0,0,1-1.53-.2,2.63,2.63,0,0,1-1.17-.72,2.94,2.94,0,0,1-.7-1.16,4.75,4.75,0,0,1,.18-3.28,3.07,3.07,0,0,1,1.17-1.37,3.67,3.67,0,0,1,2-.5,3.94,3.94,0,0,1,1.19.18,2.37,2.37,0,0,1,.94.55,2.41,2.41,0,0,1,.58.92,3.22,3.22,0,0,1,.21,1.18,3.58,3.58,0,0,1,0,.48h-5.22c0,.25,0,.44,0,.58a3,3,0,0,0,.3,1.32,2,2,0,0,0,.89.91,2.84,2.84,0,0,0,1.36.31A6.78,6.78,0,0,0,153,94.1Zm-4.6-3.26h4.07a3.66,3.66,0,0,0-.06-.67,2,2,0,0,0-.17-.49,1.7,1.7,0,0,0-.35-.45,1.54,1.54,0,0,0-.54-.28,2.09,2.09,0,0,0-.67-.1A2.25,2.25,0,0,0,150,89a2,2,0,0,0-.62.3,1.65,1.65,0,0,0-.46.45,1.91,1.91,0,0,0-.28.49A3,3,0,0,0,148.41,90.84Z"/><path class="cls-3" d="M159.87,94.15c0,.07,0,.2-.07.4s-.07.4-.1.59a6.8,6.8,0,0,1-1,.15c-.31,0-.58,0-.81,0a4.63,4.63,0,0,1-1.37-.19,2.71,2.71,0,0,1-1.77-1.78,4.49,4.49,0,0,1-.22-1.42,5.11,5.11,0,0,1,.36-1.91,3,3,0,0,1,1.12-1.42,3.7,3.7,0,0,1,2.08-.51,7.14,7.14,0,0,1,1.9.26c0,.39.05.71.07,1A8.13,8.13,0,0,0,159,89a4.13,4.13,0,0,0-.76-.07,2.44,2.44,0,0,0-1.07.22,2.15,2.15,0,0,0-.81.62,2.43,2.43,0,0,0-.49,1,4.73,4.73,0,0,0-.14,1.13,3.54,3.54,0,0,0,.24,1.35,1.77,1.77,0,0,0,.83.9,2.86,2.86,0,0,0,1.35.32A5.52,5.52,0,0,0,159.87,94.15Z"/><path class="cls-3" d="M164.88,94.28c0,.23-.1.52-.16.89a7.44,7.44,0,0,1-.74.14,4.7,4.7,0,0,1-.52,0,2.65,2.65,0,0,1-1-.15,1.14,1.14,0,0,1-.57-.49,1.75,1.75,0,0,1-.2-.92V93.5c0-.13,0-.57.07-1.33l.17-3.06H161c0-.19,0-.47.05-.82H162c0-.26,0-.69.07-1.31l1.08-.23c0,.67,0,1.19,0,1.54H165a7.75,7.75,0,0,0,0,.82h-1.9L162.9,93v.29A1.83,1.83,0,0,0,163,94a.72.72,0,0,0,.33.36,1.13,1.13,0,0,0,.48.11l.36,0A6.35,6.35,0,0,0,164.88,94.28Z"/><path class="cls-3" d="M171.18,95.18l-.32-1-2.12-5.93h1.16l.61,1.84,1.39,4,2.16-5.86h1.24l1.58,5.86,1.91-4.53.53-1.33h1.16l-2.3,5.15-.76,1.77h-1.31l-1.26-4.79c-.08-.32-.17-.63-.26-.94l-.14.35-.28.76-1.44,3.94-.24.68h-1.31Z"/><path class="cls-3" d="M181.11,95.18l.12-1.72.13-2.94.06-2.26h1.24c0,.71-.1,1.45-.14,2.23s-.07,1.63-.1,2.55,0,1.63,0,2.14h-1.27Zm.31-8.41c0-.43,0-.75,0-1h1.32c0,.14,0,.46,0,1h-1.3Z"/><path class="cls-3" d="M187.72,94.28c-.05.23-.11.52-.17.89a6.84,6.84,0,0,1-.73.14,4.79,4.79,0,0,1-.52,0,2.62,2.62,0,0,1-1-.15,1.14,1.14,0,0,1-.57-.49,1.75,1.75,0,0,1-.2-.92V93.5c0-.13,0-.57.07-1.33l.17-3.06h-.91c0-.19,0-.47,0-.82h.94c0-.26,0-.69.07-1.31l1.08-.23c0,.67,0,1.19,0,1.54h1.9c0,.28,0,.56-.05.82h-1.89L185.74,93v.29a1.83,1.83,0,0,0,.12.75.72.72,0,0,0,.33.36,1.12,1.12,0,0,0,.47.11l.37,0A6.91,6.91,0,0,0,187.72,94.28Z"/><path class="cls-3" d="M188.76,95.18l.17-3,.16-4,0-2.31h1.23l-.15,2.38-.06,1.42a4.61,4.61,0,0,1,.29-.47,2.33,2.33,0,0,1,.3-.35,2.2,2.2,0,0,1,.4-.3,2.67,2.67,0,0,1,.45-.21,3.83,3.83,0,0,1,.61-.16,4.56,4.56,0,0,1,.75-.06,5,5,0,0,1,1.11.13,2.47,2.47,0,0,1,.91.43,1.59,1.59,0,0,1,.52.72,2.75,2.75,0,0,1,.14.85c0,.11,0,.26,0,.45s0,.61-.05,1l-.12,2.51c0,.27,0,.61,0,1h-1.25c.05-.49.1-1.26.17-2.32s.1-1.79.1-2.2a1.87,1.87,0,0,0-.2-.9,1.28,1.28,0,0,0-.65-.55,2.61,2.61,0,0,0-1-.19,2.73,2.73,0,0,0-1,.16,1.86,1.86,0,0,0-1.14,1,3.13,3.13,0,0,0-.26.82,14.9,14.9,0,0,0-.17,1.8c0,.46,0,1.24-.07,2.35h-1.21Z"/><path class="cls-3" d="M201.17,89.36c0-.2.09-.5.13-.89a11.69,11.69,0,0,1,1.43-.29,9.48,9.48,0,0,1,1.18-.08,5.27,5.27,0,0,1,1.15.12,2.25,2.25,0,0,1,.89.36,1.22,1.22,0,0,1,.47.58,2,2,0,0,1,.12.71c0,.31,0,.84-.07,1.58s-.09,1.42-.11,2,0,1.19,0,1.68H205.1l.14-1.86.1-2.21-.35.26a1.71,1.71,0,0,1-.27.14l-.34.12c-.12,0-.35.11-.7.2l-.74.22a4.13,4.13,0,0,0-.75.3,2.36,2.36,0,0,0-.46.33,1.16,1.16,0,0,0-.26.36,1.18,1.18,0,0,0-.09.46,1,1,0,0,0,.22.64,1.17,1.17,0,0,0,.55.38,2.69,2.69,0,0,0,.8.1,4.22,4.22,0,0,0,.6,0,4.44,4.44,0,0,0,.84-.2c-.06.17-.13.44-.22.81q-.49.09-.81.12c-.21,0-.41,0-.6,0a4.07,4.07,0,0,1-1.46-.21,1.57,1.57,0,0,1-.78-.67,1.83,1.83,0,0,1-.26-1,1.7,1.7,0,0,1,.09-.57,1.63,1.63,0,0,1,.25-.47,1.7,1.7,0,0,1,.45-.43,3,3,0,0,1,.6-.35c.22-.09.46-.18.75-.27l1.36-.36c.2,0,.37-.09.51-.13l.38-.15a1.08,1.08,0,0,0,.28-.16,1.19,1.19,0,0,0,.23-.22.91.91,0,0,0,.15-.27.87.87,0,0,0,.05-.28.85.85,0,0,0-.22-.57,1.17,1.17,0,0,0-.57-.33,3,3,0,0,0-.83-.1,5.88,5.88,0,0,0-.92.07,7.78,7.78,0,0,0-.8.17C201.79,89.13,201.51,89.23,201.17,89.36Z"/><path class="cls-3" d="M211.35,95.05l0-.5s0-.23-.05-.52a5,5,0,0,0,1.94.46,2,2,0,0,0,.78-.13.9.9,0,0,0,.48-.36.88.88,0,0,0,.17-.5,1,1,0,0,0,0-.29,1.11,1.11,0,0,0-.13-.27,1.73,1.73,0,0,0-.27-.3l-.72-.6c-.37-.3-.65-.53-.83-.69a3.37,3.37,0,0,1-.49-.52,2.17,2.17,0,0,1-.3-.53,1.61,1.61,0,0,1-.09-.54,1.49,1.49,0,0,1,.27-.84,1.72,1.72,0,0,1,.8-.62,3.52,3.52,0,0,1,1.23-.2,8.54,8.54,0,0,1,1.73.19c0,.35,0,.68.07,1a3.92,3.92,0,0,0-1.51-.31,2.56,2.56,0,0,0-.75.11,1,1,0,0,0-.51.31.83.83,0,0,0-.16.47.81.81,0,0,0,.06.31,1.15,1.15,0,0,0,.19.33,3.63,3.63,0,0,0,.34.34c.13.12.4.33.79.65s.66.54.81.69a3.26,3.26,0,0,1,.38.47,2.26,2.26,0,0,1,.23.47,2,2,0,0,1,.07.48,1.53,1.53,0,0,1-.29.89,1.79,1.79,0,0,1-.84.64,3.33,3.33,0,0,1-1.26.22l-.69,0-.67-.09Z"/><path class="cls-3" d="M217.67,89.36c0-.2.08-.5.13-.89a11.57,11.57,0,0,1,1.42-.29,9.75,9.75,0,0,1,1.18-.08,5.2,5.2,0,0,1,1.15.12,2.3,2.3,0,0,1,.9.36,1.28,1.28,0,0,1,.47.58,2.3,2.3,0,0,1,.11.71c0,.31,0,.84-.07,1.58s-.08,1.42-.11,2,0,1.19,0,1.68h-1.23l.15-1.86.1-2.21-.36.26a1.71,1.71,0,0,1-.27.14l-.33.12-.71.2-.74.22a4.31,4.31,0,0,0-.74.3,1.88,1.88,0,0,0-.46.33A1,1,0,0,0,218,93a1.18,1.18,0,0,0-.09.46,1,1,0,0,0,.22.64,1.12,1.12,0,0,0,.55.38,2.62,2.62,0,0,0,.79.1,4.26,4.26,0,0,0,.61,0,4.44,4.44,0,0,0,.84-.2,5.33,5.33,0,0,0-.22.81c-.33.06-.61.1-.82.12s-.4,0-.59,0a4.07,4.07,0,0,1-1.46-.21,1.59,1.59,0,0,1-.79-.67,1.93,1.93,0,0,1-.26-1,1.7,1.7,0,0,1,.09-.57,1.92,1.92,0,0,1,.25-.47,2.07,2.07,0,0,1,.45-.43,3.1,3.1,0,0,1,.61-.35c.21-.09.46-.18.74-.27l1.36-.36c.2,0,.37-.09.51-.13l.38-.15a1.15,1.15,0,0,0,.29-.16,1.12,1.12,0,0,0,.37-.49.66.66,0,0,0,0-.28.8.8,0,0,0-.22-.57,1.08,1.08,0,0,0-.57-.33,2.9,2.9,0,0,0-.83-.1,5.67,5.67,0,0,0-.91.07c-.31,0-.58.11-.81.17S218,89.23,217.67,89.36Z"/><path class="cls-3" d="M224.65,95.18l.08-1c0-.21,0-.54.05-1L225,89v-.78h1.16l-.06,1.27a4.51,4.51,0,0,1,.42-.61,1.84,1.84,0,0,1,.49-.41,2.53,2.53,0,0,1,.71-.3,3.1,3.1,0,0,1,.81-.11,2.25,2.25,0,0,1,.58.07,2.76,2.76,0,0,1,.53.19,2.19,2.19,0,0,1,.42.28,1.44,1.44,0,0,1,.28.34,3.46,3.46,0,0,1,.22.54,2.38,2.38,0,0,1,1-1.1,3,3,0,0,1,1.4-.32,2.83,2.83,0,0,1,1,.16,1.62,1.62,0,0,1,.73.45,1.47,1.47,0,0,1,.37.61,2.35,2.35,0,0,1,.09.64c0,.22,0,.55-.05,1s-.06,1.1-.1,2-.07,1.64-.07,2.23h-1.22c0-.61.09-1.28.13-2l.09-1.69c0-.41,0-.76,0-1.06a1.72,1.72,0,0,0-.08-.62,1,1,0,0,0-.26-.4,1.28,1.28,0,0,0-.45-.28,1.91,1.91,0,0,0-.61-.09,2,2,0,0,0-.5.06,1.82,1.82,0,0,0-.43.19,1.76,1.76,0,0,0-.4.32,1.6,1.6,0,0,0-.3.42,2.12,2.12,0,0,0-.21.57,5.89,5.89,0,0,0-.15,1c0,.42,0,1-.07,1.67l-.06,1.91h-1.21c0-.56.08-1.14.1-1.74l.09-1.65c0-.51,0-1,0-1.31a2,2,0,0,0-.07-.59,1,1,0,0,0-.25-.44,1.21,1.21,0,0,0-.46-.31A1.59,1.59,0,0,0,228,89a1.82,1.82,0,0,0-.65.12,2,2,0,0,0-.56.35,2.07,2.07,0,0,0-.44.57,3.34,3.34,0,0,0-.28.89,16.44,16.44,0,0,0-.15,1.92c0,.91-.06,1.68-.06,2.3h-1.23Z"/><path class="cls-3" d="M236.53,98.27c.1-1.17.18-2.77.26-4.79s.13-3.68.14-5c.74-.16,1.34-.27,1.79-.32a10.2,10.2,0,0,1,1.35-.09,4.74,4.74,0,0,1,1.85.34,2.43,2.43,0,0,1,1.22,1.19,4.05,4.05,0,0,1,.44,1.92,5.27,5.27,0,0,1-.2,1.44,3.72,3.72,0,0,1-.63,1.24,2.77,2.77,0,0,1-1,.83,3.19,3.19,0,0,1-1.33.27,3.33,3.33,0,0,1-.84-.1,2.5,2.5,0,0,1-.7-.28,2,2,0,0,1-.5-.38,4.13,4.13,0,0,1-.49-.64l-.09,2.71c0,.44,0,.76,0,1v.67h-1.24Zm1.57-8.94,0,.52,0,.71c0,.37,0,.67,0,.91s0,.4,0,.49a4.21,4.21,0,0,0,.11,1,1.89,1.89,0,0,0,.42.82,2.08,2.08,0,0,0,.75.57,2.13,2.13,0,0,0,.89.19,2.09,2.09,0,0,0,1.17-.35,2.33,2.33,0,0,0,.81-1.06,3.92,3.92,0,0,0,.3-1.54,3.23,3.23,0,0,0-.31-1.45,1.92,1.92,0,0,0-.83-.88A2.52,2.52,0,0,0,240.1,89,5.78,5.78,0,0,0,238.1,89.33Z"/><path class="cls-3" d="M244.93,95.18c.09-1.4.18-3.06.26-5,.06-1.4.11-2.84.13-4.34h1.25l-.21,4-.15,4.06,0,1.25h-1.25Z"/><path class="cls-3" d="M253.73,94.1c-.06.25-.11.57-.17,1a9.19,9.19,0,0,1-1.14.23,7.72,7.72,0,0,1-1,0,5.16,5.16,0,0,1-1.53-.2,2.74,2.74,0,0,1-1.17-.72,2.92,2.92,0,0,1-.69-1.16,4.26,4.26,0,0,1-.22-1.39,4.57,4.57,0,0,1,.39-1.89,3,3,0,0,1,1.18-1.37,3.63,3.63,0,0,1,2-.5,3.9,3.9,0,0,1,1.19.18,2.48,2.48,0,0,1,.95.55,2.54,2.54,0,0,1,.58.92,3.44,3.44,0,0,1,.2,1.18,2.45,2.45,0,0,1,0,.48h-5.22c0,.25,0,.44,0,.58a3,3,0,0,0,.3,1.32,2,2,0,0,0,.89.91,2.8,2.8,0,0,0,1.35.31A6.83,6.83,0,0,0,253.73,94.1Zm-4.61-3.26h4.07a3.81,3.81,0,0,0-.05-.67,1.72,1.72,0,0,0-.18-.49,1.52,1.52,0,0,0-.35-.45,1.58,1.58,0,0,0-.53-.28,2.15,2.15,0,0,0-.68-.1,2.29,2.29,0,0,0-.74.11,2.1,2.1,0,0,0-.62.3,2,2,0,0,0-.46.45,2.26,2.26,0,0,0-.28.49A4.88,4.88,0,0,0,249.12,90.84Z"/><path class="cls-3" d="M22,112l-.56,0h-.59l.08-1.47a6.24,6.24,0,0,1-.38.59,2.26,2.26,0,0,1-.37.39,2.28,2.28,0,0,1-.5.33,2.48,2.48,0,0,1-.63.23,3,3,0,0,1-.74.08,3.37,3.37,0,0,1-1.24-.23,2.7,2.7,0,0,1-1.56-1.72,4.28,4.28,0,0,1-.18-1.24,4.54,4.54,0,0,1,.33-1.69,3.62,3.62,0,0,1,.95-1.38,3.57,3.57,0,0,1,1.39-.76,6.19,6.19,0,0,1,1.64-.21A9,9,0,0,1,21,105c0-.5,0-.91,0-1.24s0-.85,0-1.15h1.25l-.2,3.86L22,110.94Zm-1-6.1a5.93,5.93,0,0,0-.7-.16l-.57,0a4,4,0,0,0-1.25.19,2.65,2.65,0,0,0-1.06.62,2.89,2.89,0,0,0-.7,1.09,3.77,3.77,0,0,0-.24,1.3,3.06,3.06,0,0,0,.23,1.18,1.85,1.85,0,0,0,.72.86,2.08,2.08,0,0,0,1.14.32,2.25,2.25,0,0,0,.71-.11,1.85,1.85,0,0,0,.59-.31,2.42,2.42,0,0,0,.49-.55,3,3,0,0,0,.37-.81,5.82,5.82,0,0,0,.17-1.09q0-.33.06-1.29Z"/><path class="cls-3" d="M29.49,110.9c-.06.25-.11.57-.17.95a9.19,9.19,0,0,1-1.14.23c-.32,0-.64,0-1,0a5.2,5.2,0,0,1-1.53-.2,2.74,2.74,0,0,1-1.17-.72,2.92,2.92,0,0,1-.69-1.16,4.75,4.75,0,0,1,.18-3.28,3,3,0,0,1,1.17-1.37,3.63,3.63,0,0,1,2-.5,3.9,3.9,0,0,1,1.19.18,2.41,2.41,0,0,1,.95.55,2.54,2.54,0,0,1,.58.92,3.44,3.44,0,0,1,.2,1.18,2.45,2.45,0,0,1,0,.48H24.83q0,.38,0,.57a3,3,0,0,0,.3,1.33A2,2,0,0,0,26,111a2.8,2.8,0,0,0,1.35.31A6.83,6.83,0,0,0,29.49,110.9Zm-4.61-3.26H29a3.81,3.81,0,0,0-.05-.67,1.72,1.72,0,0,0-.18-.49,1.52,1.52,0,0,0-.35-.45,1.58,1.58,0,0,0-.53-.28,2.15,2.15,0,0,0-.68-.1,2.29,2.29,0,0,0-.74.11,2.1,2.1,0,0,0-.62.3,2,2,0,0,0-.46.45,2.26,2.26,0,0,0-.28.49A4.88,4.88,0,0,0,24.88,107.64Z"/><path class="cls-3" d="M31.11,115.07c.09-1.17.18-2.77.26-4.79s.12-3.68.13-5c.75-.16,1.34-.27,1.79-.32a10.2,10.2,0,0,1,1.35-.09,4.82,4.82,0,0,1,1.86.34,2.47,2.47,0,0,1,1.22,1.19,4.18,4.18,0,0,1,.44,1.92,4.92,4.92,0,0,1-.21,1.44,3.72,3.72,0,0,1-.63,1.24,2.69,2.69,0,0,1-1,.83,3.19,3.19,0,0,1-1.33.27,3.33,3.33,0,0,1-.84-.1,2.62,2.62,0,0,1-.7-.28,2,2,0,0,1-.5-.38,4.13,4.13,0,0,1-.49-.64l-.08,2.71q0,.66,0,1v.67H31.11Zm1.56-8.94,0,.52,0,.71c0,.37,0,.67,0,.91s0,.4,0,.49a4.22,4.22,0,0,0,.1,1,1.81,1.81,0,0,0,.43.82,2.14,2.14,0,0,0,.74.57,2.16,2.16,0,0,0,.89.19,2.09,2.09,0,0,0,1.17-.35,2.35,2.35,0,0,0,.82-1.06,4.1,4.1,0,0,0,.29-1.54,3.1,3.1,0,0,0-.31-1.45,1.87,1.87,0,0,0-.83-.88,2.46,2.46,0,0,0-1.17-.27A5.82,5.82,0,0,0,32.67,106.13Z"/><path class="cls-3" d="M39.5,112c.09-1.4.18-3.06.27-5,.06-1.4.1-2.84.13-4.34h1.24l-.21,4-.15,4.06,0,1.25H39.5Z"/><path class="cls-3" d="M46.08,104.9a4.46,4.46,0,0,1,1.37.21,2.8,2.8,0,0,1,1.12.65,2.71,2.71,0,0,1,.72,1.12,4,4,0,0,1,.25,1.43,4.47,4.47,0,0,1-.27,1.55,3.68,3.68,0,0,1-.73,1.27,2.8,2.8,0,0,1-1.17.76,4.63,4.63,0,0,1-2.85,0,2.93,2.93,0,0,1-1.12-.69,3.06,3.06,0,0,1-.73-1.14,4.14,4.14,0,0,1-.24-1.41,4.36,4.36,0,0,1,.45-2,2.93,2.93,0,0,1,1.33-1.34A4.12,4.12,0,0,1,46.08,104.9Zm0,.87a2.46,2.46,0,0,0-1.28.35,2.07,2.07,0,0,0-.87,1,4.21,4.21,0,0,0-.28,1.53,3.38,3.38,0,0,0,.24,1.3,2,2,0,0,0,.76.93,2.24,2.24,0,0,0,1.28.36,2.58,2.58,0,0,0,1-.18,1.88,1.88,0,0,0,.8-.58,2.47,2.47,0,0,0,.51-1,4.51,4.51,0,0,0,.16-1.23,3.77,3.77,0,0,0-.16-1.13,1.87,1.87,0,0,0-.51-.84,1.9,1.9,0,0,0-.76-.45A2.8,2.8,0,0,0,46.05,105.77Z"/><path class="cls-3" d="M49.74,115.15c0-.39-.07-.71-.11-1a2.27,2.27,0,0,0,.63.22,2.67,2.67,0,0,0,.5.06,1.54,1.54,0,0,0,.52-.09,1.11,1.11,0,0,0,.41-.26,1.86,1.86,0,0,0,.33-.44,7.16,7.16,0,0,0,.37-.65,8.15,8.15,0,0,0,.38-.83L51.31,108l-1.07-3h1.29c.07.32.13.56.18.73s.16.51.33,1l1,3.14c.12.35.23.74.35,1.15l.77-1.89,1.43-3.34.12-.31.18-.51h1.24c-.18.4-.61,1.35-1.29,2.83l-2.54,5.64a4.79,4.79,0,0,1-.48.86,2.44,2.44,0,0,1-.38.4,1.85,1.85,0,0,1-.37.25,2.38,2.38,0,0,1-.55.19,2.9,2.9,0,0,1-.66.07A5,5,0,0,1,49.74,115.15Z"/><path class="cls-3" d="M57.73,112l.07-1c0-.21,0-.54.06-1l.16-4.16c0-.34,0-.6,0-.78h1.15l-.06,1.27c.16-.25.3-.46.42-.61a1.89,1.89,0,0,1,.5-.41,2.47,2.47,0,0,1,.7-.3,3.1,3.1,0,0,1,.81-.11,2.38,2.38,0,0,1,.59.07,3,3,0,0,1,.53.19,1.84,1.84,0,0,1,.41.28,1.44,1.44,0,0,1,.28.34,2.69,2.69,0,0,1,.22.54,2.43,2.43,0,0,1,1-1.1,3.07,3.07,0,0,1,1.4-.32,2.75,2.75,0,0,1,1,.16,1.72,1.72,0,0,1,.74.45,1.56,1.56,0,0,1,.36.61,2.37,2.37,0,0,1,.1.64c0,.22,0,.55,0,1s-.07,1.1-.11,2-.06,1.64-.07,2.23H66.72c0-.61.1-1.28.13-2l.09-1.69c0-.41,0-.76,0-1.06a1.69,1.69,0,0,0-.09-.62,1,1,0,0,0-.26-.4,1.28,1.28,0,0,0-.45-.28,1.87,1.87,0,0,0-.61-.09,2,2,0,0,0-.5.06,1.82,1.82,0,0,0-.43.19,1.76,1.76,0,0,0-.4.32,1.6,1.6,0,0,0-.3.42,2.12,2.12,0,0,0-.21.57,5.12,5.12,0,0,0-.14,1c0,.42-.06,1-.08,1.67l0,1.91H62.24c0-.56.08-1.14.11-1.74l.08-1.65c0-.51,0-1,0-1.31a2,2,0,0,0-.07-.59,1,1,0,0,0-.25-.44,1.21,1.21,0,0,0-.46-.31,1.54,1.54,0,0,0-.58-.11,1.75,1.75,0,0,0-.65.12,1.87,1.87,0,0,0-.57.35,2.28,2.28,0,0,0-.44.57,3,3,0,0,0-.27.89,15.85,15.85,0,0,0-.16,1.92c0,.91-.06,1.68-.06,2.3H57.73Z"/><path class="cls-3" d="M75.42,110.9c-.06.25-.11.57-.17.95a9.45,9.45,0,0,1-1.13.23c-.32,0-.65,0-1,0a5.23,5.23,0,0,1-1.54-.2,2.65,2.65,0,0,1-1.16-.72,2.83,2.83,0,0,1-.7-1.16,4.75,4.75,0,0,1,.18-3.28,3.07,3.07,0,0,1,1.17-1.37,3.63,3.63,0,0,1,2-.5,3.85,3.85,0,0,1,1.19.18,2.41,2.41,0,0,1,1,.55,2.54,2.54,0,0,1,.58.92,3.44,3.44,0,0,1,.2,1.18,2.45,2.45,0,0,1,0,.48H70.76q0,.38,0,.57a3,3,0,0,0,.3,1.33,2,2,0,0,0,.89.91,2.8,2.8,0,0,0,1.35.31A6.78,6.78,0,0,0,75.42,110.9Zm-4.61-3.26h4.07a3.81,3.81,0,0,0,0-.67,1.72,1.72,0,0,0-.18-.49,1.37,1.37,0,0,0-.35-.45,1.58,1.58,0,0,0-.53-.28,2.11,2.11,0,0,0-.68-.1,2.29,2.29,0,0,0-.74.11,2.1,2.1,0,0,0-.62.3,2,2,0,0,0-.46.45A2.26,2.26,0,0,0,71,107,4.88,4.88,0,0,0,70.81,107.64Z"/><path class="cls-3" d="M77.14,112q.33-4.28.34-6.92h1.21l-.09,1.37.28-.44a1.87,1.87,0,0,1,.27-.33,2.67,2.67,0,0,1,.4-.32,2.13,2.13,0,0,1,.55-.24,3.5,3.5,0,0,1,.64-.15,4.72,4.72,0,0,1,.64,0,4.24,4.24,0,0,1,1.14.15,2.14,2.14,0,0,1,.9.46,1.67,1.67,0,0,1,.47.73,3,3,0,0,1,.12.87c0,.06,0,.17,0,.34s0,.39,0,.66L83.84,111c0,.27,0,.61,0,1H82.61c0-.55.08-1.08.1-1.59l.09-1.59c0-.55,0-1,0-1.24a1.9,1.9,0,0,0-.2-1,1.35,1.35,0,0,0-.66-.55,2.53,2.53,0,0,0-1-.2,2.41,2.41,0,0,0-1.36.38,2.22,2.22,0,0,0-.81,1,4.62,4.62,0,0,0-.28,1.35c-.07.72-.12,1.86-.15,3.41H77.14Z"/><path class="cls-3" d="M89.12,111.08c-.05.23-.11.52-.17.89a6.94,6.94,0,0,1-.74.14,4.52,4.52,0,0,1-.51,0,2.71,2.71,0,0,1-1-.15,1.24,1.24,0,0,1-.57-.49,1.85,1.85,0,0,1-.19-.92v-.27c0-.13,0-.57.07-1.33l.17-3.06h-.91c0-.19,0-.47,0-.82h.94c0-.26,0-.69.06-1.31.43-.08.79-.16,1.09-.23,0,.67,0,1.19-.06,1.54h1.9c0,.28,0,.56,0,.82H87.32l-.18,3.85v.29a2,2,0,0,0,.11.75.79.79,0,0,0,.34.36,1.12,1.12,0,0,0,.47.11l.37,0A6.91,6.91,0,0,0,89.12,111.08Z"/><path class="cls-3" d="M97.12,111.08c-.05.23-.11.52-.17.89a6.94,6.94,0,0,1-.74.14,4.61,4.61,0,0,1-.52,0,2.69,2.69,0,0,1-1-.15,1.14,1.14,0,0,1-.57-.49,1.85,1.85,0,0,1-.2-.92s0-.14,0-.27,0-.57.07-1.33l.17-3.06h-.92c0-.19,0-.47,0-.82h.93c0-.26,0-.69.07-1.31.43-.08.79-.16,1.09-.23,0,.67,0,1.19-.06,1.54h1.9c0,.28,0,.56,0,.82H95.32l-.18,3.85v.29a2,2,0,0,0,.11.75.79.79,0,0,0,.34.36,1.12,1.12,0,0,0,.47.11l.37,0C96.55,111.22,96.78,111.17,97.12,111.08Z"/><path class="cls-3" d="M101.57,104.9a4.4,4.4,0,0,1,1.36.21,2.77,2.77,0,0,1,1.13.65,2.93,2.93,0,0,1,.72,1.12,4.25,4.25,0,0,1,.24,1.43,4.47,4.47,0,0,1-.26,1.55,3.55,3.55,0,0,1-.74,1.27,2.7,2.7,0,0,1-1.16.76,4.63,4.63,0,0,1-2.85,0,3,3,0,0,1-1.13-.69,3.17,3.17,0,0,1-.72-1.14,4.14,4.14,0,0,1-.24-1.41,4.36,4.36,0,0,1,.45-2,3,3,0,0,1,1.32-1.34A4.19,4.19,0,0,1,101.57,104.9Zm0,.87a2.43,2.43,0,0,0-1.27.35,2.07,2.07,0,0,0-.87,1,4,4,0,0,0-.28,1.53,3.58,3.58,0,0,0,.23,1.3,2,2,0,0,0,.77.93,2.22,2.22,0,0,0,1.28.36,2.61,2.61,0,0,0,1-.18,1.88,1.88,0,0,0,.8-.58,2.46,2.46,0,0,0,.5-1,4.51,4.51,0,0,0,.17-1.23,3.77,3.77,0,0,0-.17-1.13,1.85,1.85,0,0,0-.5-.84,2,2,0,0,0-.76-.45A2.87,2.87,0,0,0,101.53,105.77Z"/><path class="cls-3" d="M109.54,111.85l0-.5s0-.23,0-.52a5,5,0,0,0,1.94.46,2,2,0,0,0,.78-.13,1,1,0,0,0,.49-.36,1,1,0,0,0,.16-.5,1,1,0,0,0,0-.29,1.11,1.11,0,0,0-.13-.27,2.12,2.12,0,0,0-.26-.3l-.73-.6-.83-.69a3.94,3.94,0,0,1-.49-.52,1.85,1.85,0,0,1-.29-.53,1.4,1.4,0,0,1-.1-.54,1.43,1.43,0,0,1,.28-.84,1.63,1.63,0,0,1,.8-.62,3.47,3.47,0,0,1,1.22-.2,8.54,8.54,0,0,1,1.73.19c0,.35,0,.68.07,1a3.92,3.92,0,0,0-1.51-.31,2.27,2.27,0,0,0-.75.11.92.92,0,0,0-.5.31.76.76,0,0,0-.16.47.81.81,0,0,0,0,.31,1.21,1.21,0,0,0,.2.33,2.61,2.61,0,0,0,.33.34l.79.65a7.71,7.71,0,0,1,.81.69,3.26,3.26,0,0,1,.38.47,2.26,2.26,0,0,1,.23.47,1.59,1.59,0,0,1-.21,1.37,1.77,1.77,0,0,1-.85.64,3.33,3.33,0,0,1-1.26.22l-.69,0-.67-.09Z"/><path class="cls-3" d="M115.46,112l.17-3,.15-4.05,0-2.31h1.24l-.15,2.38-.06,1.42a4.84,4.84,0,0,1,.28-.47,2.43,2.43,0,0,1,.31-.35,2.2,2.2,0,0,1,.4-.3,2.67,2.67,0,0,1,.45-.21,3.83,3.83,0,0,1,.61-.16,4.56,4.56,0,0,1,.75-.06,5.11,5.11,0,0,1,1.11.13,2.47,2.47,0,0,1,.91.43,1.59,1.59,0,0,1,.52.72,2.75,2.75,0,0,1,.14.85c0,.11,0,.26,0,.45s0,.61,0,1l-.12,2.51c0,.27,0,.61,0,1h-1.26c0-.49.11-1.26.18-2.32s.1-1.79.1-2.2a1.87,1.87,0,0,0-.2-.9,1.27,1.27,0,0,0-.66-.55,2.54,2.54,0,0,0-1-.19,2.67,2.67,0,0,0-1,.16,1.86,1.86,0,0,0-1.14,1,3.18,3.18,0,0,0-.26.81,13.43,13.43,0,0,0-.17,1.81c0,.46,0,1.24-.07,2.35h-1.21Z"/><path class="cls-3" d="M127.38,104.9a4.46,4.46,0,0,1,1.37.21,2.8,2.8,0,0,1,1.12.65,2.71,2.71,0,0,1,.72,1.12,4,4,0,0,1,.25,1.43,4.47,4.47,0,0,1-.27,1.55,3.68,3.68,0,0,1-.73,1.27,2.8,2.8,0,0,1-1.17.76,4.63,4.63,0,0,1-2.85,0,2.93,2.93,0,0,1-1.12-.69,3.06,3.06,0,0,1-.73-1.14,4.14,4.14,0,0,1-.24-1.41,4.36,4.36,0,0,1,.45-2,2.93,2.93,0,0,1,1.33-1.34A4.12,4.12,0,0,1,127.38,104.9Zm0,.87a2.46,2.46,0,0,0-1.28.35,2.07,2.07,0,0,0-.87,1,4.21,4.21,0,0,0-.28,1.53,3.38,3.38,0,0,0,.24,1.3,2,2,0,0,0,.76.93,2.24,2.24,0,0,0,1.28.36,2.58,2.58,0,0,0,1-.18,1.88,1.88,0,0,0,.8-.58,2.47,2.47,0,0,0,.51-1,4.51,4.51,0,0,0,.16-1.23,3.77,3.77,0,0,0-.16-1.13,1.87,1.87,0,0,0-.51-.84,1.9,1.9,0,0,0-.76-.45A2.8,2.8,0,0,0,127.35,105.77Z"/><path class="cls-3" d="M134,112l-.32-1-2.12-5.93h1.16l.61,1.84,1.39,4,2.16-5.86h1.24l1.58,5.86,1.91-4.53.53-1.33h1.16l-2.3,5.15-.75,1.77H138.9l-1.26-4.79c-.08-.32-.17-.63-.26-.94l-.13.35c-.05.1-.14.36-.29.76l-1.44,3.94-.24.68H134Z"/><path class="cls-3" d="M149,111c0,.07,0,.2-.07.4s-.07.39-.1.59a7,7,0,0,1-1,.15c-.31,0-.58,0-.81,0a4.63,4.63,0,0,1-1.37-.19,2.71,2.71,0,0,1-1.77-1.78,4.49,4.49,0,0,1-.22-1.42,5.11,5.11,0,0,1,.36-1.91,3,3,0,0,1,1.12-1.42,3.7,3.7,0,0,1,2.08-.51,7.14,7.14,0,0,1,1.9.26c0,.39,0,.71.07,1a8.13,8.13,0,0,0-1.06-.28,4.13,4.13,0,0,0-.76-.07,2.44,2.44,0,0,0-1.07.22,2.15,2.15,0,0,0-.81.62,2.43,2.43,0,0,0-.49,1,4.73,4.73,0,0,0-.14,1.13,3.54,3.54,0,0,0,.24,1.35,1.77,1.77,0,0,0,.83.9,2.86,2.86,0,0,0,1.35.32A5.52,5.52,0,0,0,149,111Z"/><path class="cls-3" d="M150.91,106.16a7.05,7.05,0,0,0,.13-.89,12.08,12.08,0,0,1,1.43-.29,9.61,9.61,0,0,1,1.18-.08,5.27,5.27,0,0,1,1.15.12,2.19,2.19,0,0,1,.89.36,1.16,1.16,0,0,1,.47.58,2,2,0,0,1,.12.71c0,.31,0,.84-.07,1.58s-.08,1.42-.11,2,0,1.19,0,1.68h-1.22l.14-1.86.11-2.21-.36.26a1.71,1.71,0,0,1-.27.14l-.33.12-.71.2-.74.22a4.46,4.46,0,0,0-.75.3,2.36,2.36,0,0,0-.46.33,1.16,1.16,0,0,0-.26.36,1.39,1.39,0,0,0-.08.46,1,1,0,0,0,.21.64,1.15,1.15,0,0,0,.56.38,2.62,2.62,0,0,0,.79.1,4.22,4.22,0,0,0,.6,0,4.44,4.44,0,0,0,.84-.2,7.34,7.34,0,0,0-.21.81c-.34.06-.61.1-.82.12s-.41,0-.59,0a4.09,4.09,0,0,1-1.47-.21,1.57,1.57,0,0,1-.78-.67,1.93,1.93,0,0,1-.26-1,1.7,1.7,0,0,1,.09-.57,1.76,1.76,0,0,1,.25-.47,1.7,1.7,0,0,1,.45-.43,2.84,2.84,0,0,1,.61-.35c.21-.09.46-.18.74-.27l1.36-.36c.2,0,.37-.09.51-.13l.38-.15a1.08,1.08,0,0,0,.28-.16,1,1,0,0,0,.23-.22.91.91,0,0,0,.15-.27.87.87,0,0,0,0-.28.8.8,0,0,0-.22-.57,1.17,1.17,0,0,0-.57-.33,3,3,0,0,0-.83-.1,5.67,5.67,0,0,0-.91.07,7.48,7.48,0,0,0-.81.17C151.53,105.93,151.25,106,150.91,106.16Z"/><path class="cls-3" d="M157.59,111.85l0-.5s0-.23-.05-.52a5,5,0,0,0,1.94.46,2,2,0,0,0,.78-.13,1,1,0,0,0,.49-.36,1,1,0,0,0,.16-.5,1,1,0,0,0-.05-.29,1.11,1.11,0,0,0-.13-.27,2.12,2.12,0,0,0-.26-.3l-.73-.6-.83-.69a3.94,3.94,0,0,1-.49-.52,1.85,1.85,0,0,1-.29-.53,1.4,1.4,0,0,1-.1-.54,1.43,1.43,0,0,1,.28-.84,1.63,1.63,0,0,1,.8-.62,3.47,3.47,0,0,1,1.22-.2,8.54,8.54,0,0,1,1.73.19c0,.35,0,.68.07,1a3.92,3.92,0,0,0-1.51-.31,2.27,2.27,0,0,0-.75.11.92.92,0,0,0-.5.31.76.76,0,0,0-.16.47.81.81,0,0,0,.05.31,1.21,1.21,0,0,0,.2.33,2.61,2.61,0,0,0,.33.34c.13.12.4.33.79.65a7.71,7.71,0,0,1,.81.69,3.26,3.26,0,0,1,.38.47,2.26,2.26,0,0,1,.23.47,1.59,1.59,0,0,1-.21,1.37,1.77,1.77,0,0,1-.85.64,3.33,3.33,0,0,1-1.26.22l-.69,0-.67-.09Z"/><path class="cls-3" d="M169.14,110.9c-.06.25-.11.57-.17.95a9.45,9.45,0,0,1-1.13.23c-.32,0-.64,0-1,0a5.27,5.27,0,0,1-1.54-.2,2.65,2.65,0,0,1-1.16-.72,2.83,2.83,0,0,1-.7-1.16,4.75,4.75,0,0,1,.18-3.28,3.07,3.07,0,0,1,1.17-1.37,3.63,3.63,0,0,1,2-.5,3.85,3.85,0,0,1,1.19.18,2.41,2.41,0,0,1,.95.55,2.54,2.54,0,0,1,.58.92,3.21,3.21,0,0,1,.2,1.18,2.45,2.45,0,0,1,0,.48h-5.21q0,.38,0,.57a3,3,0,0,0,.3,1.33,2,2,0,0,0,.89.91,2.8,2.8,0,0,0,1.35.31A6.78,6.78,0,0,0,169.14,110.9Zm-4.61-3.26h4.08a4.85,4.85,0,0,0-.06-.67,1.72,1.72,0,0,0-.18-.49A1.37,1.37,0,0,0,168,106a1.49,1.49,0,0,0-.53-.28,2.11,2.11,0,0,0-.68-.1,2.29,2.29,0,0,0-.74.11,2.1,2.1,0,0,0-.62.3,2,2,0,0,0-.46.45,2.26,2.26,0,0,0-.28.49A4.88,4.88,0,0,0,164.53,107.64Z"/><path class="cls-3" d="M174.39,112l.07-1q0-.31.06-1l.16-4.16c0-.34,0-.6,0-.78h1.15l-.06,1.27c.16-.25.3-.46.42-.61a1.89,1.89,0,0,1,.5-.41,2.47,2.47,0,0,1,.7-.3,3.12,3.12,0,0,1,.82-.11,2.3,2.3,0,0,1,.58.07,2.76,2.76,0,0,1,.53.19,2.19,2.19,0,0,1,.42.28,1.68,1.68,0,0,1,.27.34,2.21,2.21,0,0,1,.22.54,2.48,2.48,0,0,1,1-1.1,3.1,3.1,0,0,1,1.4-.32,2.75,2.75,0,0,1,.95.16,1.66,1.66,0,0,1,.74.45,1.72,1.72,0,0,1,.37.61,2.35,2.35,0,0,1,.09.64c0,.22,0,.55-.05,1s-.07,1.1-.11,2-.06,1.64-.07,2.23h-1.22c.05-.61.1-1.28.13-2l.09-1.69c0-.41,0-.76,0-1.06a2,2,0,0,0-.08-.62,1.18,1.18,0,0,0-.27-.4,1.28,1.28,0,0,0-.45-.28,1.85,1.85,0,0,0-.6-.09,2,2,0,0,0-.51.06,1.59,1.59,0,0,0-.42.19,1.81,1.81,0,0,0-.41.32,1.6,1.6,0,0,0-.3.42,3.11,3.11,0,0,0-.21.57,5.12,5.12,0,0,0-.14,1c0,.42-.06,1-.08,1.67l0,1.91H178.9c0-.56.08-1.14.11-1.74l.08-1.65c0-.51,0-1,0-1.31a2.45,2.45,0,0,0-.07-.59,1.05,1.05,0,0,0-.26-.44,1.17,1.17,0,0,0-.45-.31,1.63,1.63,0,0,0-.59-.11,1.75,1.75,0,0,0-.65.12,1.87,1.87,0,0,0-.57.35,2.28,2.28,0,0,0-.44.57,3.36,3.36,0,0,0-.27.89,15.85,15.85,0,0,0-.16,1.92c0,.91-.06,1.68-.06,2.3h-1.22Z"/><path class="cls-3" d="M185.28,115.15a9.37,9.37,0,0,0-.12-1,2.32,2.32,0,0,0,.64.22,2.49,2.49,0,0,0,.5.06,1.54,1.54,0,0,0,.52-.09,1.2,1.2,0,0,0,.41-.26,2.63,2.63,0,0,0,.33-.44,7.16,7.16,0,0,0,.37-.65,6.45,6.45,0,0,0,.37-.83L186.85,108l-1.07-3h1.28c.07.32.14.56.19.73s.16.51.33,1l1,3.14c.11.35.23.74.34,1.15l.78-1.89,1.43-3.34.12-.31.18-.51h1.24c-.18.4-.61,1.35-1.3,2.83l-2.53,5.64a4.73,4.73,0,0,1-.49.86,1.82,1.82,0,0,1-.38.4,1.6,1.6,0,0,1-.37.25,2.47,2.47,0,0,1-.54.19,3,3,0,0,1-.66.07A4.91,4.91,0,0,1,185.28,115.15Z"/><path class="cls-3" d="M196.46,111.85l-.05-.5a4.75,4.75,0,0,0,0-.52,5,5,0,0,0,1.94.46,2.08,2.08,0,0,0,.79-.13,1,1,0,0,0,.48-.36.87.87,0,0,0,.16-.5,1.45,1.45,0,0,0,0-.29,1.16,1.16,0,0,0-.14-.27,2.12,2.12,0,0,0-.26-.3l-.73-.6-.83-.69a3.94,3.94,0,0,1-.49-.52,1.85,1.85,0,0,1-.29-.53,1.4,1.4,0,0,1-.1-.54,1.43,1.43,0,0,1,.28-.84,1.63,1.63,0,0,1,.8-.62,3.52,3.52,0,0,1,1.23-.2,8.44,8.44,0,0,1,1.72.19c0,.35.05.68.07,1a3.92,3.92,0,0,0-1.51-.31,2.27,2.27,0,0,0-.75.11,1,1,0,0,0-.5.31.76.76,0,0,0-.16.47,1.06,1.06,0,0,0,.05.31,1.21,1.21,0,0,0,.2.33,2.18,2.18,0,0,0,.34.34c.13.12.39.33.78.65a7.71,7.71,0,0,1,.81.69,2.7,2.7,0,0,1,.38.47,1.85,1.85,0,0,1,.23.47,1.59,1.59,0,0,1,.07.48,1.52,1.52,0,0,1-.28.89,1.77,1.77,0,0,1-.85.64,3.31,3.31,0,0,1-1.25.22l-.69,0-.68-.09Z"/><path class="cls-3" d="M202.35,112l.11-1.85.15-3.55.07-3c0-.43,0-.75,0-1h1.23c-.06.74-.13,2.16-.21,4.28s-.14,3.8-.15,5h-1.21Zm1.41-3.86,1.39-1.49c.49-.52.95-1,1.38-1.57H208l-3,3.06c.55.73,1.62,2,3.2,3.86h-1.38l-1-1.33-.63-.78-1.07-1.29Z"/><path class="cls-3" d="M209.08,112l.12-1.72.13-2.94.06-2.26h1.24c0,.71-.09,1.45-.14,2.23s-.07,1.63-.1,2.55,0,1.63,0,2.14h-1.27Zm.32-8.41c0-.43,0-.75,0-1h1.32c0,.14,0,.46-.05,1H209.4Z"/><path class="cls-3" d="M212.21,112c.09-1.4.17-3.06.26-5,.06-1.4.1-2.84.13-4.34h1.25l-.22,4-.15,4.06,0,1.25h-1.25Z"/><path class="cls-3" d="M215.34,112c.09-1.4.18-3.06.27-5,.06-1.4.1-2.84.13-4.34H217l-.21,4-.15,4.06,0,1.25h-1.25Z"/><path class="cls-3" d="M218.15,111.85l0-.5s0-.23-.05-.52a5,5,0,0,0,1.94.46,2,2,0,0,0,.78-.13,1,1,0,0,0,.49-.36,1,1,0,0,0,.16-.5,1,1,0,0,0-.05-.29,1.11,1.11,0,0,0-.13-.27,2.12,2.12,0,0,0-.26-.3l-.73-.6-.83-.69a3.94,3.94,0,0,1-.49-.52,2.17,2.17,0,0,1-.3-.53,1.61,1.61,0,0,1-.09-.54,1.43,1.43,0,0,1,.28-.84,1.63,1.63,0,0,1,.8-.62,3.43,3.43,0,0,1,1.22-.2,8.54,8.54,0,0,1,1.73.19c0,.35,0,.68.07,1a3.92,3.92,0,0,0-1.51-.31,2.27,2.27,0,0,0-.75.11,1,1,0,0,0-.51.31.83.83,0,0,0-.16.47.81.81,0,0,0,.06.31,1.45,1.45,0,0,0,.19.33,3.63,3.63,0,0,0,.34.34c.13.12.4.33.79.65a7.71,7.71,0,0,1,.81.69,3.26,3.26,0,0,1,.38.47,2.26,2.26,0,0,1,.23.47,2,2,0,0,1,.07.48,1.53,1.53,0,0,1-.29.89,1.69,1.69,0,0,1-.84.64,3.33,3.33,0,0,1-1.26.22l-.69,0-.67-.09Z"/><path class="cls-3" d="M16,135.65h1.4v9.93H16Zm.72,4.75h3.18a1.48,1.48,0,0,0,.79-.21,1.35,1.35,0,0,0,.53-.6,2.23,2.23,0,0,0,0-1.8,1.35,1.35,0,0,0-.53-.6,1.4,1.4,0,0,0-.79-.22H16.69v-1.32h3.13a3.2,3.2,0,0,1,1.57.37,2.7,2.7,0,0,1,1.05,1.07,3.64,3.64,0,0,1,0,3.2,2.61,2.61,0,0,1-1.05,1.06,3.2,3.2,0,0,1-1.57.38H16.69Z"/><path class="cls-3" d="M23.46,138.49h1.42l2.18,6.16-.77,1.52Zm6.28,0-3,8.76a2,2,0,0,1-.43.76,1.51,1.51,0,0,1-.66.41,3.3,3.3,0,0,1-1,.12h-.28V147.2h.28a1.12,1.12,0,0,0,.62-.15,1.23,1.23,0,0,0,.4-.54l2.63-8Z"/><path class="cls-3" d="M30.56,138.49h3.2v1.26h-3.2Zm1.13,6.65a2.14,2.14,0,0,1-.4-1.4v-7.32h1.4v7.33a.64.64,0,0,0,.1.4.34.34,0,0,0,.3.14h.67v1.33H33A1.56,1.56,0,0,1,31.69,145.14Z"/><path class="cls-3" d="M35.67,135.65h1.4v9.93h-1.4ZM40,141.28a1.63,1.63,0,0,0-.39-1.16,1.44,1.44,0,0,0-1.09-.41,1.46,1.46,0,0,0-1.06.36,1.31,1.31,0,0,0-.37,1l-.15-1.36a2.58,2.58,0,0,1,.86-1,2.14,2.14,0,0,1,1.18-.34,2.19,2.19,0,0,1,1.78.75,3.27,3.27,0,0,1,.64,2.14v4.3H40Z"/><path class="cls-3" d="M44.64,145.32a2.39,2.39,0,0,1-1-1,3.71,3.71,0,0,1-.34-1.67v-1.16a3.65,3.65,0,0,1,.34-1.65,2.44,2.44,0,0,1,1-1,3.72,3.72,0,0,1,3.15,0,2.44,2.44,0,0,1,1,1,3.65,3.65,0,0,1,.34,1.65v1.18a3.67,3.67,0,0,1-.34,1.66,2.41,2.41,0,0,1-1,1,3.54,3.54,0,0,1-3.15,0Zm2.71-1.42a1.9,1.9,0,0,0,.4-1.28v-1.18a1.9,1.9,0,0,0-.4-1.28,1.66,1.66,0,0,0-2.27,0,1.9,1.9,0,0,0-.4,1.28v1.18a1.9,1.9,0,0,0,.4,1.28,1.63,1.63,0,0,0,2.27,0Z"/><path class="cls-3" d="M51.12,138.49h1.4v7.09h-1.4Zm4.31,2.79a1.63,1.63,0,0,0-.39-1.16,1.44,1.44,0,0,0-1.09-.41,1.46,1.46,0,0,0-1.06.36,1.38,1.38,0,0,0-.37,1l-.15-1.36a2.54,2.54,0,0,1,.86-1,2.06,2.06,0,0,1,1.17-.35,2.21,2.21,0,0,1,1.79.75,3.27,3.27,0,0,1,.63,2.14v4.3H55.43Z"/><path class="cls-3" d="M58.7,144.12h1.47v2.22l-1.47,1.51Z"/><path class="cls-3" d="M67.64,145.55a5.14,5.14,0,0,1-1.2-.41,5,5,0,0,1-1-.68l.86-1.07a4,4,0,0,0,1.26.74,4.42,4.42,0,0,0,1.48.24,3,3,0,0,0,1.67-.39,1.3,1.3,0,0,0,.6-1.14h0A1.22,1.22,0,0,0,71,142a1.63,1.63,0,0,0-.7-.45,7.06,7.06,0,0,0-1.1-.27h-.09l-.1,0a11.94,11.94,0,0,1-1.63-.39,2.21,2.21,0,0,1-1.07-.79,2.62,2.62,0,0,1-.44-1.62h0a2.91,2.91,0,0,1,.41-1.57,2.62,2.62,0,0,1,1.21-1,4.94,4.94,0,0,1,1.91-.34,4.7,4.7,0,0,1,1,.12,5.46,5.46,0,0,1,1,.34,6.24,6.24,0,0,1,1,.58l-.79,1.11a4.76,4.76,0,0,0-1.13-.63,3.25,3.25,0,0,0-1.13-.2,2.71,2.71,0,0,0-1.59.4,1.35,1.35,0,0,0-.56,1.15h0a1.13,1.13,0,0,0,.29.81,1.73,1.73,0,0,0,.72.43,12.22,12.22,0,0,0,1.21.29h.1l.08,0h.07a7.68,7.68,0,0,1,1.51.44,2.4,2.4,0,0,1,1,.81,2.62,2.62,0,0,1,.41,1.55h0a2.69,2.69,0,0,1-.43,1.55,2.66,2.66,0,0,1-1.25,1,5.23,5.23,0,0,1-2,.34A6.6,6.6,0,0,1,67.64,145.55Z"/><path class="cls-3" d="M74,138.49h3.2v1.26H74Zm1.13,6.65a2.09,2.09,0,0,1-.4-1.4v-7.32h1.39v7.33a.64.64,0,0,0,.11.4.34.34,0,0,0,.3.14h.67v1.33h-.81A1.56,1.56,0,0,1,75.08,145.14Z"/><path class="cls-3" d="M79.06,138.49h1.4v7.09h-1.4Zm3.44,1.34a1.64,1.64,0,0,0-.65-.12,1.27,1.27,0,0,0-1.39,1.38l-.15-1.36a2.52,2.52,0,0,1,.85-1,2,2,0,0,1,1.15-.35,2.5,2.5,0,0,1,.88.14,1.88,1.88,0,0,1,.68.41L83,140.17A1.13,1.13,0,0,0,82.5,139.83Z"/><path class="cls-3" d="M86.12,145.32a2.51,2.51,0,0,1-1.06-1.08,3.84,3.84,0,0,1-.37-1.73v-.8a4.13,4.13,0,0,1,.36-1.8,2.44,2.44,0,0,1,1-1.13,3.12,3.12,0,0,1,1.61-.39,2.55,2.55,0,0,1,1.52.44,2.79,2.79,0,0,1,1,1.29,5.5,5.5,0,0,1,.33,2v.47H85.71v-1.12h3.46a2.51,2.51,0,0,0-.45-1.35,1.28,1.28,0,0,0-1-.49,1.53,1.53,0,0,0-1.23.52,2.3,2.3,0,0,0-.43,1.47v.91a1.86,1.86,0,0,0,.47,1.35,1.78,1.78,0,0,0,1.31.47,2.3,2.3,0,0,0,.85-.17,2.35,2.35,0,0,0,.74-.48l.92.92a3.89,3.89,0,0,1-1.19.78,3.4,3.4,0,0,1-1.32.28A3.65,3.65,0,0,1,86.12,145.32Z"/><path class="cls-3" d="M92.71,145.14a2,2,0,0,1-.65-1.65,2,2,0,0,1,.6-1.58,2.63,2.63,0,0,1,1.8-.52h2l.1,1.12H94.46a1.19,1.19,0,0,0-.81.24,1,1,0,0,0-.27.74.92.92,0,0,0,.36.8,1.79,1.79,0,0,0,1.09.26,3,3,0,0,0,1.19-.17.56.56,0,0,0,.39-.53l.14,1a1.56,1.56,0,0,1-.45.47,2,2,0,0,1-.63.27,2.78,2.78,0,0,1-.8.1A3,3,0,0,1,92.71,145.14Zm3.7-4A1.5,1.5,0,0,0,96,140a1.43,1.43,0,0,0-1.06-.38,2.62,2.62,0,0,0-.83.13,2.21,2.21,0,0,0-.72.36l-1-.7a2.72,2.72,0,0,1,1.07-.75,3.8,3.8,0,0,1,1.46-.27,3.33,3.33,0,0,1,1.51.31,2.15,2.15,0,0,1,1,.9,2.88,2.88,0,0,1,.33,1.43v4.55H96.41Z"/><path class="cls-3" d="M99.86,138.49h1.39v7.09H99.86Zm4.23,2.79a1.71,1.71,0,0,0-.36-1.16,1.36,1.36,0,0,0-1-.41,1.46,1.46,0,0,0-1.06.36,1.42,1.42,0,0,0-.37,1l-.14-1.36a2.46,2.46,0,0,1,.86-1,2,2,0,0,1,1.17-.35,2.27,2.27,0,0,1,1.27.34,2.06,2.06,0,0,1,.8,1,3.93,3.93,0,0,1,.28,1.57v4.3h-1.4Zm4.24,0a1.63,1.63,0,0,0-.39-1.16,1.44,1.44,0,0,0-1.09-.41,1.28,1.28,0,0,0-1,.4,1.65,1.65,0,0,0-.35,1.12l-.28-1.37a2.76,2.76,0,0,1,.88-1.09,2.15,2.15,0,0,1,1.22-.38,2.39,2.39,0,0,1,1.31.34,2,2,0,0,1,.82,1,3.93,3.93,0,0,1,.29,1.57v4.3h-1.4Z"/><path class="cls-3" d="M113.24,143.75a.64.64,0,0,0,.11.4.39.39,0,0,0,.32.14h.66v1.33h-.82a1.58,1.58,0,0,1-1.23-.49,2,2,0,0,1-.43-1.39v-8.09h1.39Z"/><path class="cls-3" d="M115.9,135.65h1.4V137h-1.4Zm0,2.84h1.4v7.09h-1.4Z"/><path class="cls-3" d="M118.87,138.49h3.2v1.26h-3.2Zm1.13,6.65a2.09,2.09,0,0,1-.4-1.4v-7.32H121v7.33a.64.64,0,0,0,.11.4.32.32,0,0,0,.3.14h.67v1.33h-.81A1.56,1.56,0,0,1,120,145.14Z"/><path class="cls-3" d="M123.74,144.12h1.46v2.22l-1.46,1.51Z"/><path class="cls-3" d="M133.76,135.65H135l3.66,9.93h-1.5l-2.76-8-2.75,8h-1.51Zm-2,6.43H137v1.32h-5.23Z"/><path class="cls-3" d="M141.37,142.8a1.63,1.63,0,0,0,.38,1.15,1.36,1.36,0,0,0,1.07.41,1.46,1.46,0,0,0,1.06-.36,1.37,1.37,0,0,0,.38-1l.09,1.48a2,2,0,0,1-1.92,1.24,2.22,2.22,0,0,1-1.81-.76,3.17,3.17,0,0,1-.64-2.13v-4.31h1.39Zm2.89-4.31h1.38v7.09h-1.38Z"/><path class="cls-3" d="M147.22,138.49h3.2v1.26h-3.2Zm1.13,6.65a2.09,2.09,0,0,1-.4-1.4v-7.32h1.39v7.33a.71.71,0,0,0,.1.4.34.34,0,0,0,.31.14h.67v1.33h-.81A1.53,1.53,0,0,1,148.35,145.14Z"/><path class="cls-3" d="M153.47,145.32a2.36,2.36,0,0,1-1-1,3.71,3.71,0,0,1-.35-1.67v-1.16a3.65,3.65,0,0,1,.35-1.65,2.42,2.42,0,0,1,1-1,3.74,3.74,0,0,1,3.16,0,2.42,2.42,0,0,1,1,1,3.65,3.65,0,0,1,.35,1.65v1.18a3.67,3.67,0,0,1-.35,1.66,2.39,2.39,0,0,1-1,1,3.56,3.56,0,0,1-3.16,0Zm2.71-1.42a1.85,1.85,0,0,0,.4-1.28v-1.18a1.85,1.85,0,0,0-.4-1.28,1.64,1.64,0,0,0-2.26,0,1.85,1.85,0,0,0-.4,1.28v1.18a1.85,1.85,0,0,0,.4,1.28,1.62,1.62,0,0,0,2.26,0Z"/><path class="cls-3" d="M167.24,135.65h1.3v9.93h-1.36v-7.44l.07.44-2.45,5.62h-1l-2.44-5.49.07-.57v7.44h-1.37v-9.93h1.31l2.92,6.56Z"/><path class="cls-3" d="M171,135.65h1.39v9.93H171Zm.69,8.61h5.69v1.32H171.7Z"/></g></g></svg>