<svg xmlns="http://www.w3.org/2000/svg" viewBox="0 0 499.22 184.79"><defs><style>.cls-1,.cls-4{fill:#fff;}.cls-2,.cls-5,.cls-6{fill:#231f20;}.cls-3{fill:none;}.cls-3,.cls-4{stroke:#231f20;}.cls-4{font-size:38px;stroke-miterlimit:10;font-family:ErasITC-Bold, Eras Bold ITC;font-weight:700;}.cls-5{font-size:23.25px;}.cls-5,.cls-6{font-family:ErasITC-Medium, Eras Medium ITC;font-weight:500;}.cls-6{font-size:74.92px;}</style></defs><g id="Layer_2" data-name="Layer 2"><g id="Layer_1-2" data-name="Layer 1"><rect class="cls-1" width="499.22" height="182.5"/><rect class="cls-2" x="85.44" y="15.33" width="126.82" height="37.84"/><path class="cls-3" d="M147.94,144.52q3.47-48.12,3.46-74.07l-.06-7.73q10.49.12,14,.12,1.62,0,12.9-.12-1.1,13.48-1.75,25.53-.84,16.78-1.2,31.37t-.36,24.9l-12.28-.12q-3.6,0-14.74.12"/><path class="cls-3" d="M188.87,144.52l1.86-26.61.6-15.28c0-2.76.06-5.57.06-8.45s0-6.53-.12-10.85q7.24.12,11.51.12c3.31,0,7.13,0,11.44-.12L214,90.11a43.22,43.22,0,0,1,3.84-3.93,19.77,19.77,0,0,1,3.42-2.34,16.39,16.39,0,0,1,4-1.55,18.41,18.41,0,0,1,4.37-.51,21.83,21.83,0,0,1,4.8.6c0,4.35.14,8,.3,10.78l.42,9.23a22.12,22.12,0,0,0-6.17-1,16.59,16.59,0,0,0-6.2,1,13,13,0,0,0-4.61,3.18A15.8,15.8,0,0,0,215,111,38.39,38.39,0,0,0,213.28,121q-.48,6.89-.48,15.76c0,2.08.08,4.65.24,7.73q-5.81-.12-11.69-.12T188.87,144.52Z"/><path class="cls-3" d="M241.31,144.52q.84-7.31,1.25-12t.81-12.11q.39-7.37.68-16.3t.48-20.74q7.8.12,12.47.12,4.26,0,12.24-.12-1,11.33-1.49,19.9t-.57,18.16q-.24,17-.24,23.13-7.12-.12-12.28-.12T241.31,144.52Zm3.78-68.86c.24-4.75.36-8.51.36-11.26q0-1.2-.06-3.24,7.25.12,12.16.12c4.52,0,8.47,0,11.87-.12q-.18,1.86-.24,3.12l-.36,7.43c-.08,1.12-.12,2.44-.12,4-4-.08-7.75-.12-11.39-.12S249.48,75.58,245.09,75.66Z"/><path class="cls-3" d="M279.49,143.38c-.16-1.76-.32-3.6-.48-5.54s-.42-4.61-.78-8l-.48-4.32a93.2,93.2,0,0,0,10,3.39,30.25,30.25,0,0,0,7.72,1.11,17.19,17.19,0,0,0,4.75-.54,5.31,5.31,0,0,0,2.66-1.56,3.08,3.08,0,0,0,.21-4,13,13,0,0,0-2.84-2.55c-3.27-2.4-6.14-4.58-8.64-6.53a37,37,0,0,1-5.61-5.22,17,17,0,0,1-2.87-4.91,15.43,15.43,0,0,1-1-5.46A16.51,16.51,0,0,1,285,90a16,16,0,0,1,8.39-6.27,41.23,41.23,0,0,1,13.51-1.94,134.16,134.16,0,0,1,21.28,2.15l1,16.78a38,38,0,0,0-14-2.87,17.68,17.68,0,0,0-6.86,1,3.16,3.16,0,0,0-2.13,3,3.36,3.36,0,0,0,.24,1.26,4.09,4.09,0,0,0,.87,1.26,12.23,12.23,0,0,0,1.56,1.35q.93.69,4.53,3.2T319,113a30.5,30.5,0,0,1,5.12,4.88,17.36,17.36,0,0,1,2.7,4.8,15.49,15.49,0,0,1,.93,5.36,15.3,15.3,0,0,1-2.07,7.82,16.44,16.44,0,0,1-6.23,6,28.86,28.86,0,0,1-9,3.33,53.1,53.1,0,0,1-10,.93,79.27,79.27,0,0,1-8.72-.6Q286.43,144.88,279.49,143.38Z"/><path class="cls-3" d="M338.87,144.52q1-8.93,1.39-14.68.84-12,1.74-28,.54-10.55.81-20.25t.27-18.88q7.6.12,12.4.12,6.47,0,12.22-.12l-1.24,14.5q-.3,3.6-.95,14.56A41.47,41.47,0,0,1,368.74,88a21,21,0,0,1,2.79-2.28A20.26,20.26,0,0,1,374.64,84a22.93,22.93,0,0,1,3.66-1.26,35.7,35.7,0,0,1,4.55-.83,43.61,43.61,0,0,1,15,.83,19.23,19.23,0,0,1,8.12,4,14.58,14.58,0,0,1,4.55,6.35,23.68,23.68,0,0,1,1.2,7.7q0,1.62-.09,4.29c-.06,1.78-.19,4-.39,6.74L409.9,132q-.24,3.76-.27,6.26c0,1.66,0,3.74,0,6.26q-6.24-.12-11.93-.12-6.42,0-13,.12,1-8,1.78-18.37t.78-15.49q0-5.62-2.37-7.91a8.66,8.66,0,0,0-6.27-2.28,12.93,12.93,0,0,0-6.18,1.44,11.73,11.73,0,0,0-4.2,3.9,19.14,19.14,0,0,0-2.58,6.41,99.23,99.23,0,0,0-1.86,15q-.35,5.52-.7,17.26-6-.12-11.32-.12T338.87,144.52Z"/><path class="cls-2" d="M145.12,140.53q3.45-48.12,3.45-74.07l-.06-7.73q10.5.12,14,.12l12.89-.12q-1.08,13.49-1.74,25.53-.85,16.78-1.21,31.37t-.36,24.9l-12.28-.12C157.46,140.41,152.54,140.45,145.12,140.53Z"/><path class="cls-2" d="M186.05,140.53l1.85-26.61.6-15.28q.06-4.12.06-8.45c0-2.91,0-6.53-.12-10.84,4.84.08,8.67.12,11.51.12,3.32,0,7.13,0,11.45-.12l-.25,6.77A43.36,43.36,0,0,1,215,82.19a19.19,19.19,0,0,1,3.42-2.33,16.42,16.42,0,0,1,4-1.56,18.5,18.5,0,0,1,4.38-.51,21.75,21.75,0,0,1,4.79.6c0,4.35.14,8,.3,10.78l.42,9.23a22.05,22.05,0,0,0-6.16-1,16.52,16.52,0,0,0-6.2,1,12.82,12.82,0,0,0-4.61,3.18,15.75,15.75,0,0,0-3.21,5.3A38.56,38.56,0,0,0,210.46,117q-.48,6.9-.48,15.76,0,3.12.24,7.73-5.82-.12-11.7-.12T186.05,140.53Z"/><path class="cls-2" d="M238.48,140.53q.84-7.31,1.26-12t.8-12.11q.39-7.36.69-16.3t.47-20.73q7.8.12,12.48.12,4.26,0,12.23-.12-1,11.33-1.48,19.89t-.58,18.16q-.24,17-.24,23.13-7.12-.12-12.27-.12T238.48,140.53Zm3.78-68.86q.36-7.12.36-11.26,0-1.2-.06-3.24,7.24.12,12.17.12,6.77,0,11.86-.12-.18,1.86-.24,3.12L266,67.72c-.08,1.12-.12,2.44-.12,4-3.95-.07-7.75-.12-11.38-.12S246.65,71.6,242.26,71.67Z"/><path class="cls-2" d="M276.66,139.39q-.24-2.62-.48-5.54c-.16-1.94-.42-4.6-.78-8l-.48-4.31a96,96,0,0,0,10,3.38,30.24,30.24,0,0,0,7.71,1.11,17.14,17.14,0,0,0,4.75-.54,5.26,5.26,0,0,0,2.66-1.56,3.28,3.28,0,0,0,.84-2.1,3.33,3.33,0,0,0-.63-1.88,12.73,12.73,0,0,0-2.84-2.55q-4.89-3.6-8.63-6.53a37.18,37.18,0,0,1-5.62-5.22,16.86,16.86,0,0,1-2.87-4.91,15.36,15.36,0,0,1-1-5.45A16.51,16.51,0,0,1,282.14,86a16,16,0,0,1,8.39-6.26,41,41,0,0,1,13.52-1.95,135.36,135.36,0,0,1,21.27,2.15l1,16.78a38,38,0,0,0-14-2.87,17.71,17.71,0,0,0-6.87,1,3.17,3.17,0,0,0-2.12,3,3.36,3.36,0,0,0,.24,1.26,4.09,4.09,0,0,0,.87,1.26,11.44,11.44,0,0,0,1.55,1.35q.93.69,4.53,3.21c2.4,1.67,4.27,3.05,5.63,4.13a31,31,0,0,1,5.13,4.88,17.58,17.58,0,0,1,2.69,4.8,15.49,15.49,0,0,1,.93,5.36,15.27,15.27,0,0,1-2.07,7.82,16.46,16.46,0,0,1-6.23,6,29,29,0,0,1-9,3.32,53,53,0,0,1-10,.93,79.43,79.43,0,0,1-8.72-.6Q283.62,140.89,276.66,139.39Z"/><path class="cls-2" d="M336.05,140.53q1-8.92,1.38-14.68.84-12,1.75-28,.54-10.55.81-20.25t.27-18.88q7.61.12,12.4.12,6.46,0,12.21-.12l-1.24,14.5q-.3,3.6-.95,14.57a40.29,40.29,0,0,1,3.24-3.75,21,21,0,0,1,5.9-4,23.49,23.49,0,0,1,3.65-1.25,34.26,34.26,0,0,1,4.55-.84,42.7,42.7,0,0,1,5.12-.3A42.23,42.23,0,0,1,395,78.75a19.24,19.24,0,0,1,8.11,4,14.55,14.55,0,0,1,4.55,6.35,23.68,23.68,0,0,1,1.2,7.7q0,1.62-.09,4.29t-.39,6.74L407.07,128q-.24,3.77-.27,6.26t0,6.26q-6.22-.12-11.93-.12-6.4,0-13,.12,1-8,1.79-18.37t.77-15.49q0-5.62-2.37-7.91a8.66,8.66,0,0,0-6.27-2.28,12.93,12.93,0,0,0-6.18,1.44,11.81,11.81,0,0,0-4.2,3.9,19.45,19.45,0,0,0-2.57,6.41,99.23,99.23,0,0,0-1.86,15q-.36,5.52-.71,17.26-6-.12-11.31-.12T336.05,140.53Z"/><text class="cls-4" transform="translate(91.22 45.34)">Hello!</text><path class="cls-2" d="M85.44,107.09l.34-7,.47-14.65L86.57,71c0-.83,0-1.67,0-2.5l0-3.12,2.34,0,2.2,0q-.4,7.64-.61,16-.36,13.32-.52,25.77L87.85,107Z"/><path class="cls-2" d="M100.22,62.09c-.46,1-1,2.13-1.48,3.27s-1,2.1-1.29,2.87l-1.75,4.1q-.83-.06-1.11-.06c-.26,0-.63,0-1.09.06Q95.14,66.06,96,62.09l2,0Z"/><path class="cls-2" d="M98.42,107.09l.25-4.43q.06-1.41.18-4.44l.54-18.62c0-1.52,0-2.69,0-3.48l2,0c.64,0,1.26,0,1.88,0l-.2,5.69a24.71,24.71,0,0,1,1.4-2.73,7.67,7.67,0,0,1,1.64-1.86,7.87,7.87,0,0,1,5-1.8,6.37,6.37,0,0,1,1.93.3,6.85,6.85,0,0,1,1.76.86,6.15,6.15,0,0,1,1.38,1.25,6.37,6.37,0,0,1,.94,1.53,15.46,15.46,0,0,1,.71,2.38,10.31,10.31,0,0,1,3.46-4.92,8.08,8.08,0,0,1,4.64-1.4,7.5,7.5,0,0,1,3.17.7,5.84,5.84,0,0,1,2.44,2,7.56,7.56,0,0,1,1.22,2.73,13.82,13.82,0,0,1,.3,2.86c0,1-.05,2.45-.16,4.4s-.22,4.94-.36,9-.21,7.34-.22,10q-1.2-.06-1.89-.06t-2.16.06q.26-4.12.43-9l.3-7.58c.07-1.84.11-3.42.11-4.74a11.17,11.17,0,0,0-.27-2.78,5.19,5.19,0,0,0-.87-1.8A4,4,0,0,0,126.5,80a4.68,4.68,0,0,0-2-.42,4.58,4.58,0,0,0-3.09,1.11,6.4,6.4,0,0,0-1.34,1.44,9,9,0,0,0-1,1.87,13.73,13.73,0,0,0-.7,2.54,34.5,34.5,0,0,0-.48,4.51q-.15,2.83-.24,7.49l-.18,8.56q-1.32-.06-2-.06t-2.07.06q.22-3.8.36-7.8l.28-7.4c.07-2.28.11-4.23.11-5.84a13.22,13.22,0,0,0-.23-2.64,5.34,5.34,0,0,0-.85-2,4.27,4.27,0,0,0-1.51-1.37,4,4,0,0,0-2-.48,4.55,4.55,0,0,0-2.16.54,6.09,6.09,0,0,0-1.88,1.57,9.11,9.11,0,0,0-1.45,2.56,17.17,17.17,0,0,0-.92,4c-.22,1.64-.4,4.5-.52,8.58s-.19,7.51-.19,10.3c-1,0-1.64-.06-2-.06S99.4,107.05,98.42,107.09Z"/><text class="cls-5" transform="translate(142.68 168.03)">I Welcome you to my City!</text><text class="cls-6" transform="translate(89.2 166.06) scale(0.75 1)">&amp;</text></g></g></svg>