<svg xmlns="http://www.w3.org/2000/svg" viewBox="0 0 285.22 158.25"><defs><style>.cls-1{fill:#fff;stroke:#231f20;stroke-miterlimit:10;stroke-width:2px;}.cls-2{fill:#231f20;}</style></defs><g id="Layer_2" data-name="Layer 2"><g id="Layer_1-2" data-name="Layer 1"><rect class="cls-1" x="1" y="1" width="283.22" height="156.25"/><path class="cls-2" d="M15.71,34.72l-.38-2.07c-.09-.49-.23-1.17-.41-2l-1.84-8.39-.66-2.83,2.29,0,2.3,0c.2,1.22.36,2.11.48,2.68l.94,4.53c.2,1,.42,2.16.66,3.56l.37-1.58,1.33-5.18.92-4,2.6,0,2.6,0,.71,4.72,1,6L29,28.48c.08-.28.16-.57.25-.86s.28-.87.57-1.74l1.36-4.31.64-2.18h4.48L32,32.44l-.7,2.28-2.94,0-2.93,0-.26-1.54-1-5.36c-.05-.32-.1-.65-.14-1s-.1-.87-.17-1.59L23.47,27c-.1.39-.2.78-.31,1.18l-1.81,6.56-2.82,0Z"/><path class="cls-2" d="M37.48,34.72c.1-.92.18-1.67.23-2.26s.1-1.35.15-2.27.09-1.94.13-3.05.07-2.42.09-3.89l2.34,0,2.29,0c-.13,1.42-.22,2.66-.28,3.73s-.09,2.2-.11,3.4c0,2.13,0,3.57,0,4.34l-2.3,0Zm.7-12.91c0-.89.07-1.59.07-2.11,0-.15,0-.35,0-.61l2.28,0q1.27,0,2.22,0c0,.24,0,.43,0,.59l-.07,1.39c0,.21,0,.46,0,.74l-2.13,0Z"/><path class="cls-2" d="M44.61,34.72c.21-1.7.38-3.58.49-5.64s.19-4,.21-5.83l2.33,0,2.18,0-.11,1.53a6.89,6.89,0,0,1,.64-.66,4,4,0,0,1,.66-.47,5,5,0,0,1,.85-.38,6.71,6.71,0,0,1,1-.23A8.09,8.09,0,0,1,54,23a7.5,7.5,0,0,1,1.58.17,4.24,4.24,0,0,1,1.29.5,3,3,0,0,1,.86.79,2.58,2.58,0,0,1,.46,1,5.35,5.35,0,0,1,.11,1.13c0,.29,0,.9-.09,1.85L58,32.49c0,.8-.06,1.54-.06,2.23l-2.12,0q-1.34,0-2.43,0c.07-.69.14-1.7.21-3s.12-2.29.12-2.84a2.57,2.57,0,0,0-.49-1.77,1.67,1.67,0,0,0-1.23-.5,2.1,2.1,0,0,0-1.24.43,2.78,2.78,0,0,0-.89,1.24,9.87,9.87,0,0,0-.44,2.68c-.09,1.24-.15,2.51-.18,3.8l-2.19,0Z"/><path class="cls-2" d="M71.47,31.32c-.1.45-.28,1.54-.56,3.26a21.45,21.45,0,0,1-2.19.34,17.78,17.78,0,0,1-1.8.09,14.46,14.46,0,0,1-2.46-.19,5.63,5.63,0,0,1-1.93-.65A4.76,4.76,0,0,1,61.16,33a5,5,0,0,1-.84-1.66,7,7,0,0,1-.28-2,7.28,7.28,0,0,1,.57-2.81,5.7,5.7,0,0,1,1.48-2.15,5.41,5.41,0,0,1,2.08-1.1A9.35,9.35,0,0,1,66.59,23a10.25,10.25,0,0,1,2.44.29,4.61,4.61,0,0,1,2,1A4.33,4.33,0,0,1,72.15,26a5.73,5.73,0,0,1,.34,2,8.5,8.5,0,0,1-.14,1.42l-7.88,0c0,.11,0,.22,0,.32a2,2,0,0,0,.87,1.78,3.74,3.74,0,0,0,2.11.57,9.19,9.19,0,0,0,1.69-.18A21,21,0,0,0,71.47,31.32ZM64.56,27.7h3.71c0-.13,0-.24,0-.33a2.2,2.2,0,0,0-.21-1,1.3,1.3,0,0,0-.59-.61,2.06,2.06,0,0,0-.87-.19,2,2,0,0,0-.65.11,1.78,1.78,0,0,0-.57.32,1.71,1.71,0,0,0-.42.47,2.29,2.29,0,0,0-.25.53C64.67,27.16,64.62,27.4,64.56,27.7Z"/><path class="cls-2" d="M83.93,34.72l-.42-1.37-2.74-7.9-2.16-6.06,2.72,0,2.29,0c.17.66.3,1.17.4,1.51s.39,1.27.77,2.44l1.65,5.32c.17.55.37,1.28.61,2.17l.52-1.3L91.48,21c.07-.16.15-.34.23-.54s.22-.54.41-1l2.62,0,2.45,0q-1.16,2.13-2.59,5l-3.88,7.68c-.37.75-.79,1.64-1.25,2.67l-2.7,0Z"/><path class="cls-2" d="M98.1,26.52c.14-.74.23-1.25.27-1.54s.09-.72.18-1.31a26,26,0,0,1,5.56-.71,9.61,9.61,0,0,1,2.42.29,3.48,3.48,0,0,1,1.72,1,2.67,2.67,0,0,1,.62,1.89c0,.42-.06,1.37-.17,2.83s-.2,3.39-.26,5.78l-2.19,0-2.24,0q.15-1.24.33-5.1c-.28.13-.5.23-.66.29s-.44.15-.85.27l-.94.3a2.14,2.14,0,0,0-.6.32,1.09,1.09,0,0,0-.36.39.93.93,0,0,0-.1.45.85.85,0,0,0,.3.65,1.42,1.42,0,0,0,1,.27,3,3,0,0,0,.5,0,4.44,4.44,0,0,0,.74-.2c-.21.58-.47,1.42-.77,2.53a11,11,0,0,1-1.83.16,6,6,0,0,1-2.32-.39A2.91,2.91,0,0,1,97,33.37a3.49,3.49,0,0,1-.5-1.73,2.81,2.81,0,0,1,.19-1,3.17,3.17,0,0,1,.58-1,3.65,3.65,0,0,1,.92-.83,6.18,6.18,0,0,1,1.44-.64,17.32,17.32,0,0,1,2.32-.58c.39-.07.74-.15,1.07-.24a4.36,4.36,0,0,0,.69-.22,1.12,1.12,0,0,0,.34-.23.7.7,0,0,0,.19-.27.93.93,0,0,0,0-.29.73.73,0,0,0-.36-.66,1.9,1.9,0,0,0-1-.23A13.74,13.74,0,0,0,98.1,26.52Z"/><path class="cls-2" d="M111,34.72l.34-5,.12-2.86c0-.52,0-1.05,0-1.59s0-1.22,0-2l2.15,0,2.15,0,0,1.27a7.44,7.44,0,0,1,.72-.74,4.49,4.49,0,0,1,.64-.44,3.42,3.42,0,0,1,.75-.29,3.75,3.75,0,0,1,.82-.09,4.4,4.4,0,0,1,.9.11c0,.82,0,1.49.06,2l.08,1.73a4.21,4.21,0,0,0-1.16-.18,3.09,3.09,0,0,0-1.16.2,2.41,2.41,0,0,0-.86.59,2.86,2.86,0,0,0-.61,1,7.57,7.57,0,0,0-.31,1.88c-.06.86-.09,1.85-.09,3,0,.39,0,.87,0,1.45-.73,0-1.46,0-2.2,0Z"/><path class="cls-2" d="M120.78,34.72c.11-.92.19-1.67.24-2.26s.1-1.35.15-2.27.09-1.94.13-3.05.06-2.42.09-3.89l2.33,0,2.3,0c-.13,1.42-.22,2.66-.28,3.73s-.09,2.2-.11,3.4c0,2.13,0,3.57,0,4.34l-2.3,0Zm.71-12.91c.05-.89.07-1.59.07-2.11,0-.15,0-.35,0-.61l2.28,0q1.26,0,2.22,0c0,.24,0,.43,0,.59l-.07,1.39c0,.21,0,.46,0,.74l-2.14,0Z"/><path class="cls-2" d="M139.14,31.32c-.09.45-.28,1.54-.56,3.26a21.45,21.45,0,0,1-2.19.34,17.73,17.73,0,0,1-1.79.09,14.46,14.46,0,0,1-2.46-.19,5.68,5.68,0,0,1-1.94-.65A4.72,4.72,0,0,1,128.84,33a4.81,4.81,0,0,1-.84-1.66,7,7,0,0,1-.29-2,7.28,7.28,0,0,1,.57-2.81,5.82,5.82,0,0,1,1.48-2.15,5.48,5.48,0,0,1,2.08-1.1,9.4,9.4,0,0,1,2.42-.32,10.19,10.19,0,0,1,2.44.29,4.56,4.56,0,0,1,2,1A4.22,4.22,0,0,1,139.82,26a5.74,5.74,0,0,1,.35,2A7.63,7.63,0,0,1,140,29.4l-7.87,0c0,.11,0,.22,0,.32a2,2,0,0,0,.86,1.78,3.76,3.76,0,0,0,2.11.57,9.11,9.11,0,0,0,1.69-.18A20,20,0,0,0,139.14,31.32Zm-6.9-3.62h3.7c0-.13,0-.24,0-.33a2.2,2.2,0,0,0-.21-1,1.31,1.31,0,0,0-.6-.61,2,2,0,0,0-1.52-.08,1.78,1.78,0,0,0-.57.32,1.89,1.89,0,0,0-.42.47,2.24,2.24,0,0,0-.24.53A4.12,4.12,0,0,0,132.24,27.7Z"/><path class="cls-2" d="M150,31.41c-.13.63-.25,1.25-.34,1.85l-.25,1.37a16.46,16.46,0,0,1-1.74.31,10,10,0,0,1-1.2.07,7.82,7.82,0,0,1-1.7-.17,2.66,2.66,0,0,1-1.24-.59,2.3,2.3,0,0,1-.67-1,3.94,3.94,0,0,1-.18-1.19c0-.08,0-.21,0-.4s0-.62.08-1.28l.25-3.88h-1.75c0-.52.07-1.2.1-2.05l0-1h1.86c.05-.35.1-1.1.17-2.26l1.92-.39c.35-.07,1.1-.24,2.25-.52-.05,1-.09,2-.11,3.17H150C150,25,150,26,150,26.51h-2.59l-.13,2.8c0,.42,0,.69,0,.81a3.25,3.25,0,0,0,.11.9.88.88,0,0,0,.42.52,1.45,1.45,0,0,0,.66.15l.56,0A9.85,9.85,0,0,0,150,31.41Z"/><path class="cls-2" d="M150.5,39.85c-.23-1.79-.39-2.9-.47-3.34a5.73,5.73,0,0,0,1.25.46,4,4,0,0,0,.94.13A2.45,2.45,0,0,0,153,37a1.74,1.74,0,0,0,.58-.27,2.91,2.91,0,0,0,.47-.5,4.45,4.45,0,0,0,.37-.58,3.71,3.71,0,0,0,.25-.69l-2.11-6.39-1.81-5.3,2.34,0,2.15,0c.14.58.41,1.57.79,3s.67,2.52.84,3.32c.1.44.19,1,.28,1.69l.24-.9c.07-.24.16-.52.26-.82s.22-.68.37-1.1l.73-2.05L160,23.25l2.12,0,2.24,0-2.16,4.9-3.92,9.08a7.23,7.23,0,0,1-.73,1.21,4.33,4.33,0,0,1-.71.71,3.61,3.61,0,0,1-.77.47,5.82,5.82,0,0,1-1.24.41,7.48,7.48,0,0,1-1.5.15,8.94,8.94,0,0,1-.93,0c-.38,0-.69-.06-.92-.1S150.89,39.94,150.5,39.85Z"/><path class="cls-2" d="M12.74,62.32,13,59.44l.29-5.61.12-4c0-.43,0-.85,0-1.28s0-.85,0-1.58l2.38,0c.58,0,1.37,0,2.37-.05s1.86,0,2.55,0a9.31,9.31,0,0,1,2.23.19,4.13,4.13,0,0,1,1.31.6,3.85,3.85,0,0,1,1,1,4.32,4.32,0,0,1,.57,1.25,5.55,5.55,0,0,1-.54,4.19A4.51,4.51,0,0,1,23.16,56a7,7,0,0,1-3,.62,8.58,8.58,0,0,1-1.4-.14c-.06-.34-.17-.85-.34-1.53s-.3-1.19-.4-1.52a4.93,4.93,0,0,0,1,.1A2.33,2.33,0,0,0,20.76,53a1.87,1.87,0,0,0,.43-2,1.07,1.07,0,0,0-.39-.48,1.45,1.45,0,0,0-.6-.25,4,4,0,0,0-.74-.06l-.84,0-.94.07c-.1,1.45-.17,3-.23,4.82-.09,3.22-.14,5.15-.14,5.8v1.46l-2.24,0Z"/><path class="cls-2" d="M27.22,62.32l.35-5,.11-2.86c0-.52,0-1,0-1.59s0-1.22,0-2l2.16,0,2.14,0,0,1.27a9,9,0,0,1,.71-.74,4.61,4.61,0,0,1,.65-.44,3.42,3.42,0,0,1,.75-.29,3.62,3.62,0,0,1,.82-.09,3.8,3.8,0,0,1,.9.11c0,.82,0,1.49.05,2l.08,1.73a4.09,4.09,0,0,0-1.15-.18,3.09,3.09,0,0,0-1.16.2,2.44,2.44,0,0,0-.87.59,3,3,0,0,0-.6,1,7.13,7.13,0,0,0-.31,1.88c-.06.86-.09,1.85-.09,3,0,.39,0,.87,0,1.45q-1.09,0-2.19,0Z"/><path class="cls-2" d="M48.23,58.92c-.09.45-.28,1.54-.56,3.26a21.45,21.45,0,0,1-2.19.34,17.73,17.73,0,0,1-1.79.09,14.46,14.46,0,0,1-2.46-.19,5.68,5.68,0,0,1-1.94-.65,4.89,4.89,0,0,1-1.37-1.18,5,5,0,0,1-.83-1.66,7,7,0,0,1-.29-2,7.28,7.28,0,0,1,.57-2.81A5.74,5.74,0,0,1,38.85,52a5.48,5.48,0,0,1,2.08-1.1,9.4,9.4,0,0,1,2.42-.32,10.19,10.19,0,0,1,2.44.29,4.56,4.56,0,0,1,2,1,4.22,4.22,0,0,1,1.15,1.68,5.74,5.74,0,0,1,.35,2A7.63,7.63,0,0,1,49.11,57H41.24c0,.12,0,.23,0,.33a2,2,0,0,0,.86,1.78,3.76,3.76,0,0,0,2.11.57,9.11,9.11,0,0,0,1.69-.18A20,20,0,0,0,48.23,58.92Zm-6.9-3.62H45c0-.13,0-.24,0-.33a2.2,2.2,0,0,0-.21-1,1.31,1.31,0,0,0-.6-.61,2,2,0,0,0-1.52-.08,2,2,0,0,0-.57.31,1.91,1.91,0,0,0-.42.48,2.37,2.37,0,0,0-.24.52A4.54,4.54,0,0,0,41.33,55.3Z"/><path class="cls-2" d="M63.38,62.32l-2,0-2.18,0,.06-1.43c-.29.28-.55.51-.76.69a4.05,4.05,0,0,1-.84.51,4.93,4.93,0,0,1-1.1.38,5.43,5.43,0,0,1-1.22.14,5,5,0,0,1-2-.4,4.43,4.43,0,0,1-1.6-1.11,4.82,4.82,0,0,1-1-1.72,6.49,6.49,0,0,1-.33-2.06,7.73,7.73,0,0,1,.6-3,6,6,0,0,1,1.56-2.28,5.69,5.69,0,0,1,2.16-1.17,9.54,9.54,0,0,1,2.62-.34,15.36,15.36,0,0,1,2.18.17c.06-.9.1-2.14.12-3.74l2.25,0,2.29,0q-.31,3.33-.57,8.14T63.38,62.32Zm-4-8.67a5,5,0,0,0-1.12-.14,3.82,3.82,0,0,0-1.86.42,2.78,2.78,0,0,0-1.18,1.32A4.21,4.21,0,0,0,54.8,57,2.8,2.8,0,0,0,55,58.18a1.75,1.75,0,0,0,.7.82,2,2,0,0,0,2.2,0,2.51,2.51,0,0,0,.83-1,5.18,5.18,0,0,0,.44-1.61C59.29,55.72,59.34,54.82,59.37,53.65Z"/><path class="cls-2" d="M65.83,62.32c.11-.92.18-1.67.24-2.26s.1-1.35.15-2.27.09-1.94.13-3,.06-2.42.09-3.89l2.33,0,2.3,0c-.13,1.41-.23,2.66-.28,3.73s-.1,2.2-.11,3.4c0,2.13-.05,3.57-.05,4.34l-2.3,0Zm.71-12.91c0-.89.07-1.59.07-2.11,0-.15,0-.35,0-.61l2.28,0q1.26,0,2.22,0c0,.24,0,.43,0,.59L71,48.67c0,.21,0,.46,0,.74l-2.13,0Z"/><path class="cls-2" d="M82.64,58.73q0,.45-.27,1.65l-.29,1.8a14.81,14.81,0,0,1-3.45.43,8.06,8.06,0,0,1-2.14-.25,4.83,4.83,0,0,1-1.95-1,4.44,4.44,0,0,1-1.3-1.81,7.47,7.47,0,0,1-.48-2.74,7.93,7.93,0,0,1,.47-2.69A5.18,5.18,0,0,1,74.63,52a4.7,4.7,0,0,1,2-1.13,10.12,10.12,0,0,1,2.48-.28,14.59,14.59,0,0,1,1.61.08,17,17,0,0,1,2,.37l0,.25c0,.27,0,.55,0,.83s0,.72.07,1.33l.07,1a8.88,8.88,0,0,0-2.84-.56,3.38,3.38,0,0,0-1.56.34,2.26,2.26,0,0,0-1,1,3.38,3.38,0,0,0-.32,1.5,3.28,3.28,0,0,0,.29,1.45,1.82,1.82,0,0,0,.92.87,3.14,3.14,0,0,0,1.38.3,6.6,6.6,0,0,0,.9-.08c.35-.06.65-.11.91-.18A7.75,7.75,0,0,0,82.64,58.73Z"/><path class="cls-2" d="M84.64,62.32c.11-.92.19-1.67.24-2.26s.1-1.35.15-2.27.09-1.94.13-3,.06-2.42.09-3.89l2.33,0,2.3,0c-.13,1.41-.23,2.66-.28,3.73s-.09,2.2-.11,3.4c0,2.13,0,3.57,0,4.34l-2.3,0Zm.71-12.91c.05-.89.07-1.59.07-2.11,0-.15,0-.35,0-.61l2.28,0q1.26,0,2.22,0c0,.24,0,.43,0,.59l-.06,1.39c0,.21,0,.46,0,.74l-2.13,0Z"/><path class="cls-2" d="M98.57,50.56a8.59,8.59,0,0,1,2.68.42,6.21,6.21,0,0,1,2.17,1.23,5,5,0,0,1,1.31,1.88,6.24,6.24,0,0,1,.42,2.31,6.9,6.9,0,0,1-.38,2.28,5.67,5.67,0,0,1-3.56,3.46,9.13,9.13,0,0,1-2.93.47,8.92,8.92,0,0,1-2.74-.42A5.78,5.78,0,0,1,93.34,61,5.11,5.11,0,0,1,92,59.07a6.36,6.36,0,0,1-.44-2.34A6.55,6.55,0,0,1,92,54.4a5.55,5.55,0,0,1,1.37-2A6.43,6.43,0,0,1,95.69,51,9,9,0,0,1,98.57,50.56Zm-.08,3.3a2.24,2.24,0,0,0-1.28.37,2.32,2.32,0,0,0-.85,1.08,4.2,4.2,0,0,0-.28,1.56,2.67,2.67,0,0,0,.61,1.89,2,2,0,0,0,1.55.66,2.21,2.21,0,0,0,2.12-1.49,4.35,4.35,0,0,0,.29-1.58,3.4,3.4,0,0,0-.23-1.26,1.87,1.87,0,0,0-.73-.89A2.11,2.11,0,0,0,98.49,53.86Z"/><path class="cls-2" d="M106.7,62.32q.31-2.55.5-5.64c.11-2,.18-4,.2-5.83l2.33,0,2.18,0-.11,1.53a8.37,8.37,0,0,1,.64-.66,3.73,3.73,0,0,1,.67-.47,4.24,4.24,0,0,1,.84-.38,6.55,6.55,0,0,1,1-.23,6.67,6.67,0,0,1,1.11-.08,7.5,7.5,0,0,1,1.58.17,4.24,4.24,0,0,1,1.29.5,3,3,0,0,1,.86.79,2.58,2.58,0,0,1,.46,1,5.29,5.29,0,0,1,.12,1.13c0,.29,0,.9-.1,1.85l-.19,4.06c0,.8-.06,1.54-.06,2.23l-2.12,0q-1.33,0-2.43,0c.07-.69.14-1.7.21-3s.12-2.29.12-2.84a2.57,2.57,0,0,0-.49-1.77,1.67,1.67,0,0,0-1.23-.5,2,2,0,0,0-1.23.43,2.67,2.67,0,0,0-.9,1.24,10.29,10.29,0,0,0-.44,2.68c-.09,1.24-.15,2.51-.18,3.8l-2.19,0Z"/><path class="cls-2" d="M14.42,95.18l1.25-2.35,3.17-6.2.37-.78H20.8L22,89.2l2.19,6H22.79c-.12-.43-.33-1.07-.61-1.9s-.53-1.5-.72-2H17.72l-1,2-.87,1.87H14.42Zm3.71-4.82H21.2l-1.27-3.61Z"/><path class="cls-2" d="M35.22,95.2l-.56,0h-.59l.08-1.47a6.24,6.24,0,0,1-.38.59,1.93,1.93,0,0,1-.37.39,2.28,2.28,0,0,1-.5.33,2.48,2.48,0,0,1-.63.23,3,3,0,0,1-.74.08,3.41,3.41,0,0,1-1.24-.23,2.73,2.73,0,0,1-1-.69,2.62,2.62,0,0,1-.58-1,4.28,4.28,0,0,1-.18-1.24,4.36,4.36,0,0,1,.34-1.69,3.48,3.48,0,0,1,2.33-2.14,6.19,6.19,0,0,1,1.64-.21,9.13,9.13,0,0,1,1.43.14c0-.5,0-.91,0-1.24s0-.85,0-1.15h1.25l-.2,3.86-.14,4.43Zm-1-6.1a5.93,5.93,0,0,0-.7-.16,5.59,5.59,0,0,0-.57,0,4,4,0,0,0-1.25.19,2.55,2.55,0,0,0-1,.62,2.67,2.67,0,0,0-.7,1.09,3.57,3.57,0,0,0-.25,1.3A3.06,3.06,0,0,0,30,93.29a1.85,1.85,0,0,0,.72.86,2.08,2.08,0,0,0,1.14.32,2.25,2.25,0,0,0,.71-.11,1.85,1.85,0,0,0,.59-.31,2.42,2.42,0,0,0,.49-.55,3,3,0,0,0,.37-.81,5.09,5.09,0,0,0,.17-1.09q0-.33.06-1.29Z"/><path class="cls-2" d="M37.5,89.36c0-.2.08-.5.13-.89a11.69,11.69,0,0,1,1.43-.29,9.46,9.46,0,0,1,1.17-.08,5.36,5.36,0,0,1,1.16.12,2.31,2.31,0,0,1,.89.36,1.22,1.22,0,0,1,.47.58,2,2,0,0,1,.12.71c0,.31,0,.84-.07,1.58s-.09,1.42-.11,2,0,1.19,0,1.68H41.42l.15-1.86.1-2.21-.36.26a1.71,1.71,0,0,1-.27.14l-.33.12-.7.2-.75.22a4.31,4.31,0,0,0-.74.3,2.09,2.09,0,0,0-.46.33,1.16,1.16,0,0,0-.26.36,1.18,1.18,0,0,0-.09.46,1,1,0,0,0,.22.64,1.17,1.17,0,0,0,.55.38,2.69,2.69,0,0,0,.8.1,4.22,4.22,0,0,0,.6,0,4.44,4.44,0,0,0,.84-.2,6.87,6.87,0,0,0-.22.81q-.49.09-.81.12c-.21,0-.41,0-.6,0a4.07,4.07,0,0,1-1.46-.21,1.64,1.64,0,0,1-.79-.67,1.93,1.93,0,0,1-.26-1,1.48,1.48,0,0,1,.1-.57,1.51,1.51,0,0,1,.25-.47,1.81,1.81,0,0,1,.44-.43,3.42,3.42,0,0,1,.61-.35c.21-.09.46-.18.74-.27L40.09,91c.2,0,.37-.09.51-.13l.37-.15a1.15,1.15,0,0,0,.29-.16,1.19,1.19,0,0,0,.23-.22,1.82,1.82,0,0,0,.15-.27.86.86,0,0,0,0-.28.84.84,0,0,0-.21-.57,1.15,1.15,0,0,0-.58-.33,2.9,2.9,0,0,0-.83-.1,5.75,5.75,0,0,0-.91.07c-.31,0-.58.11-.81.17Z"/><path class="cls-2" d="M48,94.28c-.05.23-.1.52-.16.89a7.44,7.44,0,0,1-.74.14,4.61,4.61,0,0,1-.52,0,2.69,2.69,0,0,1-1-.15,1.14,1.14,0,0,1-.57-.49,1.85,1.85,0,0,1-.2-.92s0-.14,0-.27,0-.57.07-1.33l.16-3.06h-.91c0-.19,0-.47.05-.82h.93c0-.26,0-.69.07-1.31.43-.08.79-.16,1.08-.23,0,.67-.05,1.19-.05,1.54h1.9c0,.28,0,.56,0,.82H46.2L46,93v.29a2,2,0,0,0,.11.75.74.74,0,0,0,.34.36,1.08,1.08,0,0,0,.47.11l.37,0A6.91,6.91,0,0,0,48,94.28Z"/><path class="cls-2" d="M49.44,89.36c0-.2.08-.5.13-.89A11.57,11.57,0,0,1,51,88.18a9.61,9.61,0,0,1,1.18-.08,5.27,5.27,0,0,1,1.15.12,2.19,2.19,0,0,1,.89.36,1.24,1.24,0,0,1,.48.58,2.3,2.3,0,0,1,.11.71c0,.31,0,.84-.07,1.58s-.08,1.42-.11,2,0,1.19,0,1.68H53.36l.15-1.86.1-2.21-.36.26a1.71,1.71,0,0,1-.27.14l-.33.12-.71.2-.74.22a4.31,4.31,0,0,0-.74.3,1.88,1.88,0,0,0-.46.33,1,1,0,0,0-.26.36,1.18,1.18,0,0,0-.09.46,1,1,0,0,0,.22.64,1.12,1.12,0,0,0,.55.38,2.62,2.62,0,0,0,.79.1,4.22,4.22,0,0,0,.6,0,4.69,4.69,0,0,0,.85-.2,5.33,5.33,0,0,0-.22.81c-.34.06-.61.1-.82.12s-.41,0-.59,0a4,4,0,0,1-1.46-.21,1.55,1.55,0,0,1-.79-.67,1.93,1.93,0,0,1-.26-1,1.7,1.7,0,0,1,.09-.57,1.76,1.76,0,0,1,.25-.47,2.07,2.07,0,0,1,.45-.43,3.1,3.1,0,0,1,.61-.35c.21-.09.46-.18.74-.27L52,91c.2,0,.37-.09.51-.13l.38-.15a1.35,1.35,0,0,0,.29-.16,1.14,1.14,0,0,0,.22-.22.91.91,0,0,0,.15-.27.87.87,0,0,0,0-.28.8.8,0,0,0-.22-.57,1.12,1.12,0,0,0-.57-.33,2.9,2.9,0,0,0-.83-.1,5.67,5.67,0,0,0-.91.07,8,8,0,0,0-.81.17Q49.93,89.17,49.44,89.36Z"/><path class="cls-2" d="M60.37,89.36c0-.2.09-.5.13-.89a11.69,11.69,0,0,1,1.43-.29,9.48,9.48,0,0,1,1.18-.08,5.27,5.27,0,0,1,1.15.12,2.25,2.25,0,0,1,.89.36,1.16,1.16,0,0,1,.47.58,2,2,0,0,1,.12.71c0,.31,0,.84-.07,1.58s-.09,1.42-.11,2,0,1.19,0,1.68H64.3l.14-1.86.11-2.21-.36.26a1.71,1.71,0,0,1-.27.14l-.33.12-.71.2-.74.22a4.13,4.13,0,0,0-.75.3,2.36,2.36,0,0,0-.46.33,1,1,0,0,0-.34.82,1,1,0,0,0,.21.64,1.17,1.17,0,0,0,.55.38,2.73,2.73,0,0,0,.8.1,4.22,4.22,0,0,0,.6,0,4.44,4.44,0,0,0,.84-.2c-.06.17-.13.44-.22.81q-.49.09-.81.12c-.21,0-.41,0-.59,0a4.09,4.09,0,0,1-1.47-.21,1.57,1.57,0,0,1-.78-.67,1.83,1.83,0,0,1-.26-1,1.7,1.7,0,0,1,.09-.57,1.51,1.51,0,0,1,.25-.47,1.7,1.7,0,0,1,.45-.43,2.84,2.84,0,0,1,.61-.35,7.51,7.51,0,0,1,.74-.27L63,91c.2,0,.37-.09.51-.13l.38-.15a1.08,1.08,0,0,0,.28-.16,1,1,0,0,0,.23-.22.91.91,0,0,0,.15-.27.87.87,0,0,0,0-.28.85.85,0,0,0-.22-.57,1.17,1.17,0,0,0-.57-.33,3,3,0,0,0-.83-.1,5.88,5.88,0,0,0-.92.07,7.78,7.78,0,0,0-.8.17C61,89.13,60.71,89.23,60.37,89.36Z"/><path class="cls-2" d="M67.33,95.18q.33-4.28.34-6.92h1.21l-.09,1.37.28-.44a1.87,1.87,0,0,1,.27-.33,2.67,2.67,0,0,1,.4-.32,2.13,2.13,0,0,1,.55-.24,3.5,3.5,0,0,1,.64-.15,4.74,4.74,0,0,1,.65-.05,4.22,4.22,0,0,1,1.13.15,2,2,0,0,1,.9.46,1.58,1.58,0,0,1,.47.73,3,3,0,0,1,.12.87v.34q0,.25,0,.66L74,94.18c0,.27,0,.61,0,1H72.8c0-.55.08-1.08.1-1.59L73,92c0-.55.05-1,.05-1.24a1.9,1.9,0,0,0-.21-1,1.35,1.35,0,0,0-.66-.55,2.53,2.53,0,0,0-1-.2,2.41,2.41,0,0,0-1.36.38,2.22,2.22,0,0,0-.81,1,4.62,4.62,0,0,0-.28,1.35c-.07.72-.12,1.86-.15,3.41H67.33Z"/><path class="cls-2" d="M76.25,89.36c0-.2.09-.5.13-.89a11.69,11.69,0,0,1,1.43-.29A9.48,9.48,0,0,1,79,88.1a5.27,5.27,0,0,1,1.15.12,2.25,2.25,0,0,1,.89.36,1.16,1.16,0,0,1,.47.58,2,2,0,0,1,.12.71c0,.31,0,.84-.07,1.58s-.09,1.42-.11,2,0,1.19,0,1.68H80.18l.14-1.86.11-2.21-.36.26a1.71,1.71,0,0,1-.27.14l-.34.12c-.12,0-.35.11-.7.2l-.74.22a4.13,4.13,0,0,0-.75.3,2.36,2.36,0,0,0-.46.33,1.16,1.16,0,0,0-.26.36,1.18,1.18,0,0,0-.09.46,1,1,0,0,0,.22.64,1.17,1.17,0,0,0,.55.38,2.73,2.73,0,0,0,.8.1,4.22,4.22,0,0,0,.6,0,4.44,4.44,0,0,0,.84-.2c-.06.17-.13.44-.22.81q-.5.09-.81.12c-.21,0-.41,0-.59,0a4.09,4.09,0,0,1-1.47-.21,1.57,1.57,0,0,1-.78-.67,1.83,1.83,0,0,1-.26-1,1.7,1.7,0,0,1,.09-.57,1.51,1.51,0,0,1,.25-.47,1.7,1.7,0,0,1,.45-.43,2.84,2.84,0,0,1,.61-.35,7.51,7.51,0,0,1,.74-.27L78.84,91c.2,0,.37-.09.51-.13l.38-.15a1.08,1.08,0,0,0,.28-.16,1,1,0,0,0,.23-.22.91.91,0,0,0,.15-.27.87.87,0,0,0,0-.28.85.85,0,0,0-.22-.57,1.17,1.17,0,0,0-.57-.33,3,3,0,0,0-.83-.1,5.88,5.88,0,0,0-.92.07,7.78,7.78,0,0,0-.8.17C76.87,89.13,76.59,89.23,76.25,89.36Z"/><path class="cls-2" d="M83.26,95.18c.09-1.4.18-3.06.27-5,.06-1.4.1-2.84.13-4.34H84.9l-.21,4-.15,4.06,0,1.25H83.26Z"/><path class="cls-2" d="M85.26,98.35c0-.39-.07-.71-.12-1a2.32,2.32,0,0,0,.64.22,2.49,2.49,0,0,0,.5.06,1.58,1.58,0,0,0,.52-.09,1.31,1.31,0,0,0,.41-.26,2.63,2.63,0,0,0,.33-.44c.11-.18.24-.4.37-.65a8.19,8.19,0,0,0,.37-.83l-1.46-4.15-1.06-3H87c.07.32.13.56.18.73s.16.51.33,1l1,3.14c.11.35.23.74.34,1.15l.77-1.89,1.43-3.34.12-.31c0-.11.1-.28.19-.51h1.23c-.17.4-.61,1.35-1.29,2.83l-2.53,5.64a4.73,4.73,0,0,1-.49.86A2.08,2.08,0,0,1,88,98a1.6,1.6,0,0,1-.37.25,2.38,2.38,0,0,1-.55.19,2.81,2.81,0,0,1-.65.07A4.85,4.85,0,0,1,85.26,98.35Z"/><path class="cls-2" d="M92.93,95.05l0-.5s0-.23,0-.52a5,5,0,0,0,1.94.46,2,2,0,0,0,.78-.13,1,1,0,0,0,.49-.36,1,1,0,0,0,.16-.5,1,1,0,0,0,0-.29,1.11,1.11,0,0,0-.13-.27,2.12,2.12,0,0,0-.26-.3L95,92l-.83-.69a3.94,3.94,0,0,1-.49-.52,2.17,2.17,0,0,1-.3-.53,1.61,1.61,0,0,1-.09-.54,1.43,1.43,0,0,1,.28-.84,1.63,1.63,0,0,1,.8-.62,3.47,3.47,0,0,1,1.22-.2,8.54,8.54,0,0,1,1.73.19c0,.35,0,.68.07,1A3.92,3.92,0,0,0,95.92,89a2.27,2.27,0,0,0-.75.11.92.92,0,0,0-.5.31.76.76,0,0,0-.16.47.81.81,0,0,0,0,.31,1.21,1.21,0,0,0,.2.33,2.61,2.61,0,0,0,.33.34c.13.12.4.33.79.65a7.71,7.71,0,0,1,.81.69,3.26,3.26,0,0,1,.38.47,2.26,2.26,0,0,1,.23.47,2,2,0,0,1,.07.48,1.59,1.59,0,0,1-.28.89,1.77,1.77,0,0,1-.85.64,3.33,3.33,0,0,1-1.26.22l-.69,0-.67-.09Z"/><path class="cls-2" d="M98.85,95.18,99,93.46l.14-2.94.05-2.26h1.25c-.05.71-.1,1.45-.14,2.23s-.08,1.63-.1,2.55,0,1.63,0,2.14H98.85Zm.31-8.41c0-.43,0-.75,0-1h1.32c0,.14,0,.46,0,1h-1.3Z"/><path class="cls-2" d="M101.64,95.05l0-.5s0-.23,0-.52a5,5,0,0,0,1.94.46,2,2,0,0,0,.78-.13,1,1,0,0,0,.49-.36,1,1,0,0,0,.16-.5,1,1,0,0,0,0-.29,1.11,1.11,0,0,0-.13-.27,2.12,2.12,0,0,0-.26-.3l-.73-.6-.83-.69a3.94,3.94,0,0,1-.49-.52,2.17,2.17,0,0,1-.3-.53,1.61,1.61,0,0,1-.09-.54,1.43,1.43,0,0,1,.28-.84,1.65,1.65,0,0,1,.79-.62,3.52,3.52,0,0,1,1.23-.2,8.54,8.54,0,0,1,1.73.19c0,.35,0,.68.07,1a3.92,3.92,0,0,0-1.51-.31,2.27,2.27,0,0,0-.75.11,1,1,0,0,0-.51.31.83.83,0,0,0-.16.47.81.81,0,0,0,.06.31,1.15,1.15,0,0,0,.19.33,3.63,3.63,0,0,0,.34.34c.13.12.4.33.79.65a7.71,7.71,0,0,1,.81.69,3.26,3.26,0,0,1,.38.47,2.26,2.26,0,0,1,.23.47,2,2,0,0,1,.07.48,1.53,1.53,0,0,1-.29.89,1.74,1.74,0,0,1-.84.64,3.33,3.33,0,0,1-1.26.22l-.69,0-.67-.09Z"/><path class="cls-2" d="M114.47,88.1a4.4,4.4,0,0,1,1.36.21A2.77,2.77,0,0,1,117,89a2.93,2.93,0,0,1,.72,1.12,4.25,4.25,0,0,1,.24,1.43,4.47,4.47,0,0,1-.26,1.55,3.55,3.55,0,0,1-.74,1.27,2.7,2.7,0,0,1-1.16.76,4.63,4.63,0,0,1-2.85,0,3,3,0,0,1-1.13-.69,3.17,3.17,0,0,1-.72-1.14,4.14,4.14,0,0,1-.24-1.41,4.36,4.36,0,0,1,.45-2,3,3,0,0,1,1.32-1.34A4.19,4.19,0,0,1,114.47,88.1Zm0,.87a2.43,2.43,0,0,0-1.27.35,2.07,2.07,0,0,0-.87,1.05A4,4,0,0,0,112,91.9a3.58,3.58,0,0,0,.23,1.3,2,2,0,0,0,.77.93,2.22,2.22,0,0,0,1.28.36,2.61,2.61,0,0,0,1-.18,1.88,1.88,0,0,0,.8-.58,2.34,2.34,0,0,0,.5-1,4.51,4.51,0,0,0,.17-1.23,3.77,3.77,0,0,0-.17-1.13,1.77,1.77,0,0,0-.5-.84,2,2,0,0,0-.76-.45A2.87,2.87,0,0,0,114.43,89Z"/><path class="cls-2" d="M119.24,95.18c.17-2.63.25-4.72.25-6.29v-.63h1.16l-.06,1.13a4.79,4.79,0,0,1,.45-.64,1.83,1.83,0,0,1,.44-.35,2.33,2.33,0,0,1,.56-.22,2.75,2.75,0,0,1,.65-.08,2.1,2.1,0,0,1,.56.07c0,.3,0,.64.05,1a3.17,3.17,0,0,0-.76-.11,1.81,1.81,0,0,0-.72.13,1.63,1.63,0,0,0-.58.4,2.27,2.27,0,0,0-.42.65,3.1,3.1,0,0,0-.21.78c0,.32-.08.9-.11,1.74,0,.62,0,1.27,0,2v.45h-1.22Z"/><path class="cls-2" d="M124.19,95.18l.12-1.72.13-2.94.06-2.26h1.25c-.06.71-.1,1.45-.14,2.23s-.08,1.63-.1,2.55,0,1.63,0,2.14h-1.28Zm.32-8.41c0-.43,0-.75,0-1h1.32c0,.14,0,.46,0,1h-1.3Z"/><path class="cls-2" d="M133,94.1c-.06.25-.11.57-.17,1a9.19,9.19,0,0,1-1.14.23c-.32,0-.64,0-1,0a5.2,5.2,0,0,1-1.53-.2,2.74,2.74,0,0,1-1.17-.72,2.92,2.92,0,0,1-.69-1.16A4.75,4.75,0,0,1,127.5,90a3.07,3.07,0,0,1,1.17-1.37,3.63,3.63,0,0,1,2-.5,3.9,3.9,0,0,1,1.19.18,2.41,2.41,0,0,1,.95.55,2.54,2.54,0,0,1,.58.92,3.44,3.44,0,0,1,.2,1.18,2.45,2.45,0,0,1,0,.48h-5.21q0,.38,0,.57a3,3,0,0,0,.3,1.33,2,2,0,0,0,.89.91,2.8,2.8,0,0,0,1.35.31A6.83,6.83,0,0,0,133,94.1Zm-4.61-3.26h4.07a3.81,3.81,0,0,0-.05-.67,1.72,1.72,0,0,0-.18-.49,1.37,1.37,0,0,0-.35-.45,1.58,1.58,0,0,0-.53-.28,2.15,2.15,0,0,0-.68-.1,2.29,2.29,0,0,0-.74.11,2.1,2.1,0,0,0-.62.3,2,2,0,0,0-.46.45,2.26,2.26,0,0,0-.28.49A4.88,4.88,0,0,0,128.37,90.84Z"/><path class="cls-2" d="M134.7,95.18q.33-4.28.34-6.92h1.21l-.09,1.37.27-.44a2,2,0,0,1,.28-.33,2.67,2.67,0,0,1,.4-.32,2.13,2.13,0,0,1,.55-.24,3.5,3.5,0,0,1,.64-.15,4.6,4.6,0,0,1,.64-.05,4.3,4.3,0,0,1,1.14.15,2.14,2.14,0,0,1,.9.46,1.67,1.67,0,0,1,.47.73,3,3,0,0,1,.12.87c0,.06,0,.17,0,.34s0,.39,0,.66l-.14,2.87c0,.27,0,.61,0,1h-1.21c0-.55.08-1.08.1-1.59l.09-1.59c0-.55,0-1,0-1.24a1.9,1.9,0,0,0-.2-1,1.35,1.35,0,0,0-.66-.55,2.53,2.53,0,0,0-1-.2,2.41,2.41,0,0,0-1.36.38,2.22,2.22,0,0,0-.81,1,4.62,4.62,0,0,0-.28,1.35c-.07.72-.12,1.86-.15,3.41H134.7Z"/><path class="cls-2" d="M146.68,94.28c-.05.23-.11.52-.17.89a6.94,6.94,0,0,1-.74.14,4.52,4.52,0,0,1-.51,0,2.71,2.71,0,0,1-1-.15,1.24,1.24,0,0,1-.57-.49,1.85,1.85,0,0,1-.19-.92V93.5c0-.13,0-.57.07-1.33l.17-3.06h-.91c0-.19,0-.47,0-.82h.93c0-.26.05-.69.07-1.31.43-.08.79-.16,1.09-.23,0,.67-.05,1.19-.06,1.54h1.9c0,.28,0,.56,0,.82h-1.89L144.7,93v.29a2,2,0,0,0,.11.75.79.79,0,0,0,.34.36,1.12,1.12,0,0,0,.47.11l.37,0C146.11,94.42,146.34,94.37,146.68,94.28Z"/><path class="cls-2" d="M153.35,94.1c-.06.25-.11.57-.17,1a9.45,9.45,0,0,1-1.13.23c-.32,0-.64,0-1,0a5.27,5.27,0,0,1-1.54-.2,2.65,2.65,0,0,1-1.16-.72,2.83,2.83,0,0,1-.7-1.16,4.75,4.75,0,0,1,.18-3.28A3.07,3.07,0,0,1,149,88.6a3.63,3.63,0,0,1,2-.5,3.85,3.85,0,0,1,1.19.18,2.41,2.41,0,0,1,.95.55,2.54,2.54,0,0,1,.58.92,3.21,3.21,0,0,1,.2,1.18,2.45,2.45,0,0,1,0,.48h-5.21q0,.38,0,.57a3,3,0,0,0,.3,1.33,2,2,0,0,0,.89.91,2.8,2.8,0,0,0,1.35.31A6.78,6.78,0,0,0,153.35,94.1Zm-4.61-3.26h4.08a4.85,4.85,0,0,0-.06-.67,1.72,1.72,0,0,0-.18-.49,1.37,1.37,0,0,0-.35-.45,1.49,1.49,0,0,0-.53-.28,2.11,2.11,0,0,0-.68-.1,2.29,2.29,0,0,0-.74.11,2.1,2.1,0,0,0-.62.3,2,2,0,0,0-.46.45,2.26,2.26,0,0,0-.28.49A4.88,4.88,0,0,0,148.74,90.84Z"/><path class="cls-2" d="M161.58,95.2l-.56,0h-.6l.09-1.47c-.15.25-.28.45-.38.59a2.72,2.72,0,0,1-.37.39,2.55,2.55,0,0,1-.5.33,2.48,2.48,0,0,1-.63.23,3,3,0,0,1-.74.08,3.37,3.37,0,0,1-1.24-.23,2.56,2.56,0,0,1-1-.69,2.51,2.51,0,0,1-.58-1,4.28,4.28,0,0,1-.18-1.24,4.54,4.54,0,0,1,.33-1.69,3.51,3.51,0,0,1,.95-1.38,3.61,3.61,0,0,1,1.38-.76,6.25,6.25,0,0,1,1.64-.21,9.13,9.13,0,0,1,1.43.14c0-.5,0-.91,0-1.24s0-.85,0-1.15h1.24l-.19,3.86-.14,4.43Zm-1-6.1a5.16,5.16,0,0,0-.7-.16l-.56,0a3.94,3.94,0,0,0-1.25.19,2.65,2.65,0,0,0-1.06.62,2.89,2.89,0,0,0-.7,1.09,3.77,3.77,0,0,0-.24,1.3,2.89,2.89,0,0,0,.23,1.18,1.74,1.74,0,0,0,.72.86,2.06,2.06,0,0,0,1.14.32,2.3,2.3,0,0,0,.71-.11,1.8,1.8,0,0,0,.58-.31,2.45,2.45,0,0,0,.5-.55,3.34,3.34,0,0,0,.37-.81,5.82,5.82,0,0,0,.17-1.09q0-.33.06-1.29Z"/><path class="cls-2" d="M166.77,98.27c.1-1.17.18-2.77.26-4.79s.13-3.68.14-5c.74-.16,1.34-.27,1.79-.32a10.2,10.2,0,0,1,1.35-.09,4.74,4.74,0,0,1,1.85.34,2.43,2.43,0,0,1,1.22,1.19,4.05,4.05,0,0,1,.44,1.92,5.27,5.27,0,0,1-.2,1.44,3.72,3.72,0,0,1-.63,1.24,2.77,2.77,0,0,1-1,.83,3.19,3.19,0,0,1-1.33.27,3.33,3.33,0,0,1-.84-.1,2.5,2.5,0,0,1-.7-.28,2,2,0,0,1-.5-.38,4.13,4.13,0,0,1-.49-.64L168,96.64c0,.44,0,.76,0,1v.67h-1.24Zm1.57-8.94-.05.52,0,.71c0,.37,0,.67,0,.91s0,.4,0,.49a4.21,4.21,0,0,0,.11,1,1.89,1.89,0,0,0,.42.82,2.08,2.08,0,0,0,.75.57,2.13,2.13,0,0,0,.89.19,2.09,2.09,0,0,0,1.17-.35,2.33,2.33,0,0,0,.81-1.06,3.92,3.92,0,0,0,.3-1.54,3.23,3.23,0,0,0-.31-1.45,1.92,1.92,0,0,0-.83-.88,2.49,2.49,0,0,0-1.17-.27A5.78,5.78,0,0,0,168.34,89.33Z"/><path class="cls-2" d="M175.14,95.18c.17-2.63.25-4.72.25-6.29v-.63h1.16l-.06,1.13a4.79,4.79,0,0,1,.45-.64,1.83,1.83,0,0,1,.44-.35,2.18,2.18,0,0,1,.56-.22,2.67,2.67,0,0,1,.64-.08,2.22,2.22,0,0,1,.57.07c0,.3,0,.64.05,1a3.24,3.24,0,0,0-.76-.11,1.81,1.81,0,0,0-.72.13,1.63,1.63,0,0,0-.58.4,2.27,2.27,0,0,0-.42.65,3.1,3.1,0,0,0-.21.78,15.36,15.36,0,0,0-.11,1.74c0,.62,0,1.27,0,2v.45h-1.22Z"/><path class="cls-2" d="M183.5,88.1a4.41,4.41,0,0,1,1.37.21,2.8,2.8,0,0,1,1.84,1.77,4,4,0,0,1,.25,1.43,4.71,4.71,0,0,1-.26,1.55,3.7,3.7,0,0,1-.74,1.27,2.76,2.76,0,0,1-1.16.76,4.46,4.46,0,0,1-1.48.24,4.52,4.52,0,0,1-1.38-.21,3,3,0,0,1-1.12-.69,2.92,2.92,0,0,1-.72-1.14,3.91,3.91,0,0,1-.25-1.41,4.36,4.36,0,0,1,.45-2,3,3,0,0,1,1.33-1.34A4.15,4.15,0,0,1,183.5,88.1Zm0,.87a2.49,2.49,0,0,0-1.28.35,2,2,0,0,0-.86,1.05,4,4,0,0,0-.28,1.53,3.58,3.58,0,0,0,.23,1.3,2,2,0,0,0,.76.93,2.27,2.27,0,0,0,1.29.36,2.65,2.65,0,0,0,1-.18,1.94,1.94,0,0,0,.8-.58,2.59,2.59,0,0,0,.5-1,4.51,4.51,0,0,0,.16-1.23,3.77,3.77,0,0,0-.16-1.13,1.94,1.94,0,0,0-.5-.84,2,2,0,0,0-.76-.45A2.91,2.91,0,0,0,183.47,89Z"/><path class="cls-2" d="M189.83,88.26l-.13,3-.11,3.06c0,1.22-.08,2-.13,2.28a3.18,3.18,0,0,1-.18.8,1.59,1.59,0,0,1-.26.41,1.5,1.5,0,0,1-.4.34,2.1,2.1,0,0,1-.56.24,3.73,3.73,0,0,1-.93.1,8.59,8.59,0,0,1-1.8-.21,8,8,0,0,0-.08-1,4.25,4.25,0,0,0,1.49.3,1.78,1.78,0,0,0,.7-.14,1.44,1.44,0,0,0,.46-.29,1.57,1.57,0,0,0,.26-.45,3.32,3.32,0,0,0,.18-.89c0-.5.09-1.24.13-2.2,0-.28,0-1,.08-2.09,0-1.54.06-2.44.06-2.68v-.62h1.22Zm-1.22-1.5q0-.39,0-1H190c0,.23,0,.55,0,1h-1.31Z"/><path class="cls-2" d="M197.13,94.1c-.06.25-.11.57-.17,1a9.57,9.57,0,0,1-1.14.23c-.32,0-.64,0-1,0a5.16,5.16,0,0,1-1.53-.2,2.74,2.74,0,0,1-1.17-.72,2.92,2.92,0,0,1-.69-1.16,4.26,4.26,0,0,1-.22-1.39,4.57,4.57,0,0,1,.39-1.89,3,3,0,0,1,1.18-1.37,3.63,3.63,0,0,1,2-.5,3.9,3.9,0,0,1,1.19.18,2.37,2.37,0,0,1,.94.55,2.43,2.43,0,0,1,.59.92,3.44,3.44,0,0,1,.2,1.18,2.45,2.45,0,0,1,0,.48h-5.22c0,.25,0,.44,0,.57a3,3,0,0,0,.3,1.33,2,2,0,0,0,.89.91,2.8,2.8,0,0,0,1.35.31A6.83,6.83,0,0,0,197.13,94.1Zm-4.61-3.26h4.07a3.81,3.81,0,0,0-.05-.67,1.72,1.72,0,0,0-.18-.49,1.52,1.52,0,0,0-.35-.45,1.58,1.58,0,0,0-.53-.28,2.15,2.15,0,0,0-.68-.1,2.29,2.29,0,0,0-.74.11,2.1,2.1,0,0,0-.62.3,2,2,0,0,0-.46.45,1.91,1.91,0,0,0-.28.49A4.88,4.88,0,0,0,192.52,90.84Z"/><path class="cls-2" d="M204,94.15c0,.07,0,.2-.07.4s-.07.39-.1.59a6.8,6.8,0,0,1-1,.15c-.31,0-.58,0-.81,0a4.52,4.52,0,0,1-1.36-.19,2.71,2.71,0,0,1-1.09-.66,2.79,2.79,0,0,1-.69-1.12,4.79,4.79,0,0,1-.22-1.42A5.11,5.11,0,0,1,199,90a3,3,0,0,1,1.12-1.42,3.74,3.74,0,0,1,2.09-.51,7.12,7.12,0,0,1,1.89.26c0,.39.05.71.07,1a8.49,8.49,0,0,0-1.05-.28,4.29,4.29,0,0,0-.76-.07,2.51,2.51,0,0,0-1.08.22,2.15,2.15,0,0,0-.81.62,2.55,2.55,0,0,0-.48,1,4.28,4.28,0,0,0-.15,1.13,3.54,3.54,0,0,0,.24,1.35,1.75,1.75,0,0,0,.84.9,2.82,2.82,0,0,0,1.34.32A5.52,5.52,0,0,0,204,94.15Z"/><path class="cls-2" d="M209,94.28c-.05.23-.1.52-.16.89a7.44,7.44,0,0,1-.74.14,4.61,4.61,0,0,1-.52,0,2.69,2.69,0,0,1-1-.15,1.14,1.14,0,0,1-.57-.49,1.85,1.85,0,0,1-.2-.92s0-.14,0-.27,0-.57.07-1.33l.16-3.06h-.91c0-.19,0-.47,0-.82h.93c0-.26.05-.69.07-1.31.43-.08.79-.16,1.08-.23,0,.67-.05,1.19-.05,1.54h1.9c0,.28,0,.56,0,.82H207.2L207,93v.29a2,2,0,0,0,.11.75.74.74,0,0,0,.34.36,1.08,1.08,0,0,0,.47.11l.37,0A6.91,6.91,0,0,0,209,94.28Z"/><path class="cls-2" d="M213.94,89.36c0-.2.08-.5.13-.89a11.57,11.57,0,0,1,1.42-.29,9.61,9.61,0,0,1,1.18-.08,5.27,5.27,0,0,1,1.15.12,2.19,2.19,0,0,1,.89.36,1.24,1.24,0,0,1,.48.58,2.3,2.3,0,0,1,.11.71c0,.31,0,.84-.07,1.58s-.08,1.42-.11,2,0,1.19,0,1.68h-1.22l.15-1.86.1-2.21-.36.26a1.71,1.71,0,0,1-.27.14l-.33.12-.71.2-.74.22a4.31,4.31,0,0,0-.74.3,1.88,1.88,0,0,0-.46.33,1,1,0,0,0-.26.36,1.18,1.18,0,0,0-.09.46,1,1,0,0,0,.22.64,1.12,1.12,0,0,0,.55.38,2.62,2.62,0,0,0,.79.1,4.22,4.22,0,0,0,.6,0,4.69,4.69,0,0,0,.85-.2,5.33,5.33,0,0,0-.22.81c-.34.06-.61.1-.82.12s-.41,0-.59,0a4,4,0,0,1-1.46-.21,1.55,1.55,0,0,1-.79-.67,1.93,1.93,0,0,1-.26-1,1.7,1.7,0,0,1,.09-.57,1.76,1.76,0,0,1,.25-.47,2.07,2.07,0,0,1,.45-.43,3.1,3.1,0,0,1,.61-.35c.21-.09.46-.18.74-.27l1.36-.36c.2,0,.37-.09.51-.13l.38-.15a1.35,1.35,0,0,0,.29-.16,1.14,1.14,0,0,0,.22-.22.91.91,0,0,0,.15-.27.87.87,0,0,0,.05-.28.8.8,0,0,0-.22-.57,1.12,1.12,0,0,0-.57-.33,2.9,2.9,0,0,0-.83-.1,5.67,5.67,0,0,0-.91.07,8,8,0,0,0-.81.17Q214.44,89.17,213.94,89.36Z"/><path class="cls-2" d="M221,95.18l.12-1.72.13-2.94.06-2.26h1.24c-.05.71-.1,1.45-.14,2.23s-.07,1.63-.1,2.55,0,1.63,0,2.14H221Zm.31-8.41c0-.43,0-.75,0-1h1.32c0,.14,0,.46,0,1h-1.3Z"/><path class="cls-2" d="M224.07,95.18l.08-1c0-.21,0-.54,0-1l.17-4.16v-.78h1.16l-.06,1.27a4.51,4.51,0,0,1,.42-.61,1.84,1.84,0,0,1,.49-.41,2.53,2.53,0,0,1,.71-.3,3.1,3.1,0,0,1,.81-.11,2.25,2.25,0,0,1,.58.07,2.76,2.76,0,0,1,.53.19,2.19,2.19,0,0,1,.42.28,1.44,1.44,0,0,1,.28.34,2.76,2.76,0,0,1,.21.54,2.44,2.44,0,0,1,1.05-1.1,3,3,0,0,1,1.4-.32,2.83,2.83,0,0,1,.95.16,1.62,1.62,0,0,1,.73.45,1.47,1.47,0,0,1,.37.61,2.35,2.35,0,0,1,.09.64c0,.22,0,.55,0,1s-.06,1.1-.1,2-.07,1.64-.07,2.23h-1.22c.05-.61.09-1.28.13-2l.09-1.69c0-.41,0-.76,0-1.06a1.72,1.72,0,0,0-.08-.62,1,1,0,0,0-.26-.4,1.28,1.28,0,0,0-.45-.28,1.91,1.91,0,0,0-.61-.09,2,2,0,0,0-.5.06,1.82,1.82,0,0,0-.43.19,1.76,1.76,0,0,0-.4.32,1.6,1.6,0,0,0-.3.42,2.12,2.12,0,0,0-.21.57,5.89,5.89,0,0,0-.15,1c0,.42-.05,1-.07,1.67l-.06,1.91h-1.21c0-.56.08-1.14.1-1.74l.09-1.65c0-.51,0-1,0-1.31a2,2,0,0,0-.07-.59,1,1,0,0,0-.25-.44,1.21,1.21,0,0,0-.46-.31,1.59,1.59,0,0,0-.59-.11,1.78,1.78,0,0,0-.65.12,2,2,0,0,0-.56.35,2.07,2.07,0,0,0-.44.57,3.34,3.34,0,0,0-.28.89,16.44,16.44,0,0,0-.15,1.92c0,.91-.06,1.68-.06,2.3h-1.23Z"/><path class="cls-2" d="M241.76,94.1c0,.25-.1.57-.16,1a10,10,0,0,1-1.14.23c-.32,0-.64,0-1,0a5.16,5.16,0,0,1-1.53-.2,2.68,2.68,0,0,1-1.17-.72,3.06,3.06,0,0,1-.7-1.16,4.75,4.75,0,0,1,.18-3.28,3.07,3.07,0,0,1,1.17-1.37,3.69,3.69,0,0,1,2-.5,3.9,3.9,0,0,1,1.19.18,2.37,2.37,0,0,1,.94.55,2.41,2.41,0,0,1,.58.92,3.22,3.22,0,0,1,.21,1.18,2.45,2.45,0,0,1,0,.48H237.1c0,.25,0,.44,0,.57a3,3,0,0,0,.3,1.33,2,2,0,0,0,.88.91,2.87,2.87,0,0,0,1.36.31A6.73,6.73,0,0,0,241.76,94.1Zm-4.6-3.26h4.07a3.81,3.81,0,0,0,0-.67,2.09,2.09,0,0,0-.18-.49,1.52,1.52,0,0,0-.35-.45,1.54,1.54,0,0,0-.54-.28,2,2,0,0,0-.67-.1,2.25,2.25,0,0,0-.74.11,2,2,0,0,0-.62.3,1.79,1.79,0,0,0-.46.45,1.91,1.91,0,0,0-.28.49A4.88,4.88,0,0,0,237.16,90.84Z"/><path class="cls-2" d="M250,95.2l-.57,0h-.59l.08-1.47a6.49,6.49,0,0,1-.37.59,2.33,2.33,0,0,1-.38.39,2.28,2.28,0,0,1-.5.33,2.35,2.35,0,0,1-.63.23,3,3,0,0,1-.74.08,3.41,3.41,0,0,1-1.24-.23,2.73,2.73,0,0,1-1-.69,2.62,2.62,0,0,1-.58-1,4.28,4.28,0,0,1-.18-1.24,4.36,4.36,0,0,1,.34-1.69A3.48,3.48,0,0,1,246,88.31a6.19,6.19,0,0,1,1.64-.21,9.13,9.13,0,0,1,1.43.14c0-.5,0-.91,0-1.24V85.85h1.24l-.2,3.86L250,94.14Zm-1-6.1a5.52,5.52,0,0,0-.7-.16l-.56,0a4,4,0,0,0-1.26.19,2.55,2.55,0,0,0-1.05.62,2.77,2.77,0,0,0-.7,1.09,3.57,3.57,0,0,0-.25,1.3,3.06,3.06,0,0,0,.23,1.18,1.81,1.81,0,0,0,.73.86,2,2,0,0,0,1.13.32,2.36,2.36,0,0,0,.72-.11,1.91,1.91,0,0,0,.58-.31,2.42,2.42,0,0,0,.49-.55,3,3,0,0,0,.37-.81,5.09,5.09,0,0,0,.17-1.09c0-.22,0-.65.07-1.29Z"/><path class="cls-2" d="M255.77,89.36c0-.2.09-.5.13-.89a11.69,11.69,0,0,1,1.43-.29,9.48,9.48,0,0,1,1.18-.08,5.27,5.27,0,0,1,1.15.12,2.25,2.25,0,0,1,.89.36,1.22,1.22,0,0,1,.47.58,2,2,0,0,1,.12.71c0,.31,0,.84-.07,1.58s-.09,1.42-.11,2,0,1.19,0,1.68H259.7l.14-1.86.1-2.21-.35.26a1.71,1.71,0,0,1-.27.14l-.34.12c-.12,0-.35.11-.7.2l-.74.22a4.13,4.13,0,0,0-.75.3,2.36,2.36,0,0,0-.46.33,1.16,1.16,0,0,0-.26.36,1.18,1.18,0,0,0-.09.46,1,1,0,0,0,.22.64,1.17,1.17,0,0,0,.55.38,2.69,2.69,0,0,0,.8.1,4.22,4.22,0,0,0,.6,0,4.44,4.44,0,0,0,.84-.2,6.87,6.87,0,0,0-.22.81q-.5.09-.81.12c-.21,0-.41,0-.6,0a4.07,4.07,0,0,1-1.46-.21,1.57,1.57,0,0,1-.78-.67,1.83,1.83,0,0,1-.26-1,1.7,1.7,0,0,1,.09-.57,1.51,1.51,0,0,1,.25-.47,1.7,1.7,0,0,1,.45-.43,3,3,0,0,1,.6-.35c.22-.09.46-.18.75-.27l1.36-.36c.2,0,.37-.09.51-.13l.38-.15a1.28,1.28,0,0,0,.28-.16,1.19,1.19,0,0,0,.23-.22.91.91,0,0,0,.15-.27.87.87,0,0,0,0-.28.85.85,0,0,0-.22-.57,1.17,1.17,0,0,0-.57-.33,3,3,0,0,0-.83-.1,5.88,5.88,0,0,0-.92.07,7.78,7.78,0,0,0-.8.17C256.39,89.13,256.11,89.23,255.77,89.36Z"/><path class="cls-2" d="M266.26,94.28c-.05.23-.1.52-.16.89a6.94,6.94,0,0,1-.74.14,4.61,4.61,0,0,1-.52,0,2.69,2.69,0,0,1-1-.15,1.14,1.14,0,0,1-.57-.49,1.85,1.85,0,0,1-.2-.92s0-.14,0-.27,0-.57.07-1.33l.17-3.06h-.92c0-.19,0-.47.05-.82h.93c0-.26.05-.69.07-1.31.43-.08.79-.16,1.09-.23,0,.67-.05,1.19-.06,1.54h1.9c0,.28,0,.56,0,.82h-1.89L264.29,93v.29a2,2,0,0,0,.11.75.79.79,0,0,0,.34.36,1.12,1.12,0,0,0,.47.11l.37,0A6.91,6.91,0,0,0,266.26,94.28Z"/><path class="cls-2" d="M22,112H20.88l0-1.32a4.13,4.13,0,0,1-.28.48,2.24,2.24,0,0,1-.3.33,3.18,3.18,0,0,1-.37.27,2,2,0,0,1-.44.19,3.61,3.61,0,0,1-.59.15,5.55,5.55,0,0,1-.72,0,3.62,3.62,0,0,1-1.43-.25,2,2,0,0,1-.89-.72,2.31,2.31,0,0,1-.31-1.27c0-.08,0-.22,0-.41s0-.46,0-.77l.11-2.28,0-.73c0-.17,0-.38,0-.64H17c-.07.8-.13,1.67-.18,2.62s-.09,1.55-.09,1.82a2,2,0,0,0,.19,1,1.33,1.33,0,0,0,.65.55,2.87,2.87,0,0,0,2,0,2.13,2.13,0,0,0,.68-.43,2.56,2.56,0,0,0,.49-.76A3.74,3.74,0,0,0,21,109c0-.26.06-.72.09-1.4s.06-1.65.08-2.5h1.21c-.07.82-.14,2.07-.23,3.74Q22,110.18,22,112Z"/><path class="cls-2" d="M27.35,111.08c-.05.23-.11.52-.17.89a6.84,6.84,0,0,1-.73.14,4.79,4.79,0,0,1-.52,0,2.62,2.62,0,0,1-1-.15,1.14,1.14,0,0,1-.57-.49,1.75,1.75,0,0,1-.2-.92v-.27c0-.13,0-.57.07-1.33l.17-3.06h-.91c0-.19,0-.47,0-.82h.94c0-.26,0-.69.07-1.31l1.08-.23c0,.67-.05,1.19-.05,1.54h1.9c0,.28,0,.56,0,.82H25.55l-.18,3.85v.29a1.83,1.83,0,0,0,.12.75.72.72,0,0,0,.33.36,1.12,1.12,0,0,0,.47.11l.37,0A6.91,6.91,0,0,0,27.35,111.08Z"/><path class="cls-2" d="M28.39,112l.12-1.72.13-2.94.05-2.26h1.25c-.05.71-.1,1.45-.14,2.23s-.08,1.63-.1,2.55,0,1.63,0,2.14H28.39Zm.31-8.41c0-.43,0-.75,0-1H30c0,.14,0,.46,0,1H28.7Z"/><path class="cls-2" d="M31.51,112c.09-1.4.18-3.06.27-5,.06-1.4.1-2.84.13-4.34h1.24l-.21,4-.15,4.06,0,1.25H31.51Z"/><path class="cls-2" d="M34.68,112l.12-1.72.13-2.94,0-2.26h1.25c0,.71-.1,1.45-.14,2.23s-.08,1.63-.1,2.55,0,1.63,0,2.14H34.68Zm.31-8.41c0-.43,0-.75,0-1h1.32c0,.14,0,.46,0,1H35Z"/><path class="cls-2" d="M37.32,112q0-.42,0-1l.36-.42.2-.24,3.56-4.41H40.14c-.73,0-1.52,0-2.35.07,0-.3,0-.6,0-.89h4.94a4.8,4.8,0,0,0,0,.55l0,.52-.5.6-3.59,4.41,1.29,0q1.65,0,2.58-.06c0,.24-.05.54-.06.88H37.32Z"/><path class="cls-2" d="M44,112l.12-1.72.13-2.94.06-2.26h1.24c-.05.71-.09,1.45-.14,2.23s-.07,1.63-.1,2.55,0,1.63,0,2.14H44Zm.32-8.41c0-.43,0-.75,0-1H45.7c0,.14,0,.46,0,1h-1.3Z"/><path class="cls-2" d="M47.12,112q.33-4.28.34-6.92h1.21l-.09,1.37a4.77,4.77,0,0,1,.27-.44,1.64,1.64,0,0,1,.28-.33,2.67,2.67,0,0,1,.4-.32,2,2,0,0,1,.55-.24,3.5,3.5,0,0,1,.64-.15,4.6,4.6,0,0,1,.64,0,4.3,4.3,0,0,1,1.14.15,2.14,2.14,0,0,1,.9.46,1.67,1.67,0,0,1,.47.73,3,3,0,0,1,.12.87c0,.06,0,.17,0,.34s0,.39,0,.66L53.82,111c0,.27,0,.61,0,1H52.59c0-.55.08-1.08.1-1.59l.09-1.59c0-.55,0-1,0-1.24a2,2,0,0,0-.2-1,1.35,1.35,0,0,0-.66-.55,2.53,2.53,0,0,0-1-.2,2.45,2.45,0,0,0-1.37.38,2.27,2.27,0,0,0-.8,1,4.25,4.25,0,0,0-.28,1.35c-.07.72-.12,1.86-.15,3.41H47.12Z"/><path class="cls-2" d="M56,114a13.46,13.46,0,0,0,1.51.37,7.74,7.74,0,0,0,1.11.09,3.21,3.21,0,0,0,1.05-.16,2.05,2.05,0,0,0,.69-.36,1.62,1.62,0,0,0,.37-.48,3.75,3.75,0,0,0,.25-1c0-.33.07-1,.09-1.94a4.83,4.83,0,0,1-.29.5,2.13,2.13,0,0,1-.36.39,2.25,2.25,0,0,1-.53.36,2.61,2.61,0,0,1-.7.25,3.62,3.62,0,0,1-.82.09,3.66,3.66,0,0,1-1.16-.17,2.49,2.49,0,0,1-1-.56,2.56,2.56,0,0,1-.65-1,3.71,3.71,0,0,1-.22-1.28,4.74,4.74,0,0,1,.33-1.76,3.53,3.53,0,0,1,1-1.39,3.8,3.8,0,0,1,1.44-.8,6.52,6.52,0,0,1,1.76-.23,16.06,16.06,0,0,1,2.62.28l-.08.84-.2,3.84c0,.08,0,.54,0,1.39l0,1.42a4.25,4.25,0,0,1-.12.79,2.47,2.47,0,0,1-.22.53,1.62,1.62,0,0,1-.31.43,1.76,1.76,0,0,1-.41.35,2.3,2.3,0,0,1-.52.26,4.14,4.14,0,0,1-.79.19,5.84,5.84,0,0,1-.93.08,11.38,11.38,0,0,1-1.31-.07A10.18,10.18,0,0,1,56.1,115l0-.37C56.08,114.5,56.06,114.3,56,114Zm5.26-8.07a7.48,7.48,0,0,0-1.43-.15,4.43,4.43,0,0,0-1.24.16,2.58,2.58,0,0,0-1,.57,2.92,2.92,0,0,0-.74,1.08,3.6,3.6,0,0,0-.26,1.38,3,3,0,0,0,.24,1.21,1.71,1.71,0,0,0,.75.82,2.5,2.5,0,0,0,2.13.08,2.1,2.1,0,0,0,.77-.6,2.75,2.75,0,0,0,.52-1,5.42,5.42,0,0,0,.2-1.14C61.21,108,61.25,107.16,61.29,105.92Z"/><path class="cls-2" d="M67.69,112l.13-1.9.24-5.55,0-1.08v-.8h1.64l.75,1.21L75,110.67l.28-8h1.21l-.15,2.4-.18,4.21L76.08,112H74.46l-.63-1L69.2,104q0,.39-.06,1.2L69,110.08l0,1.9H67.69Z"/><path class="cls-2" d="M78.23,112c.1-1.17.19-2.61.27-4.31s.12-3.37.14-5H80L79.77,107l-.16,4.09H83c.39,0,.77,0,1.14,0,0,.29,0,.61-.06,1h-5.8Z"/><path class="cls-2" d="M85.15,112l.12-1.55.22-5.34,0-1.15c0-.18,0-.36,0-.54v-.75l1.39,0,1,0h1a4.54,4.54,0,0,1,1.28.13,1.83,1.83,0,0,1,.74.42,2.28,2.28,0,0,1,.51.73,2.58,2.58,0,0,1,.18,1,2.86,2.86,0,0,1-.44,1.55,2.69,2.69,0,0,1-1.19,1,4,4,0,0,1-1.69.34,6.48,6.48,0,0,1-1.09-.11,7.38,7.38,0,0,0-.23-.85,6.2,6.2,0,0,0,1,.1,4.1,4.1,0,0,0,.94-.11,2,2,0,0,0,.77-.38,1.84,1.84,0,0,0,.5-.66,2.14,2.14,0,0,0,.17-.84,1.57,1.57,0,0,0-.13-.65,1.12,1.12,0,0,0-.36-.47,1.31,1.31,0,0,0-.51-.23,4.42,4.42,0,0,0-.85-.07H88l-.72,0h-.53c-.06,1-.1,1.91-.12,2.72l-.1,2.81c0,1.07,0,1.78,0,2.14V112h-1.3Z"/><path class="cls-2" d="M99.6,111.08c0,.23-.1.52-.16.89a7.44,7.44,0,0,1-.74.14,4.61,4.61,0,0,1-.52,0,2.69,2.69,0,0,1-1-.15,1.14,1.14,0,0,1-.57-.49,1.85,1.85,0,0,1-.2-.92s0-.14,0-.27,0-.57.07-1.33l.17-3.06h-.92c0-.19,0-.47,0-.82h.93c0-.26.05-.69.07-1.31.43-.08.79-.16,1.09-.23,0,.67-.05,1.19-.06,1.54h1.9c0,.28,0,.56,0,.82H97.81l-.18,3.85v.29a2,2,0,0,0,.11.75.79.79,0,0,0,.34.36,1.12,1.12,0,0,0,.47.11l.37,0A6.91,6.91,0,0,0,99.6,111.08Z"/><path class="cls-2" d="M104.05,104.9a4.41,4.41,0,0,1,1.37.21,2.84,2.84,0,0,1,1.13.65,2.93,2.93,0,0,1,.72,1.12,4.25,4.25,0,0,1,.24,1.43,4.47,4.47,0,0,1-.26,1.55,3.55,3.55,0,0,1-.74,1.27,2.7,2.7,0,0,1-1.16.76,4.63,4.63,0,0,1-2.85,0,3,3,0,0,1-1.13-.69,2.92,2.92,0,0,1-.72-1.14,4.14,4.14,0,0,1-.25-1.41,4.24,4.24,0,0,1,.46-2,3,3,0,0,1,1.32-1.34A4.15,4.15,0,0,1,104.05,104.9Zm0,.87a2.49,2.49,0,0,0-1.28.35,2.06,2.06,0,0,0-.86,1,4,4,0,0,0-.28,1.53,3.58,3.58,0,0,0,.23,1.3,2,2,0,0,0,.77.93,2.22,2.22,0,0,0,1.28.36,2.61,2.61,0,0,0,1-.18,1.94,1.94,0,0,0,.8-.58,2.46,2.46,0,0,0,.5-1,4.51,4.51,0,0,0,.17-1.23,3.77,3.77,0,0,0-.17-1.13,1.85,1.85,0,0,0-.5-.84,2,2,0,0,0-.76-.45A2.87,2.87,0,0,0,104,105.77Z"/><path class="cls-2" d="M112.21,115.07c.09-1.17.18-2.77.26-4.8s.12-3.67.13-5c.75-.16,1.35-.27,1.8-.32a10,10,0,0,1,1.35-.09,4.77,4.77,0,0,1,1.85.34,2.47,2.47,0,0,1,1.22,1.19,4.18,4.18,0,0,1,.44,1.92,4.92,4.92,0,0,1-.21,1.44,3.53,3.53,0,0,1-.62,1.24,2.72,2.72,0,0,1-1,.83,3.19,3.19,0,0,1-1.33.27,3.33,3.33,0,0,1-.84-.1,2.62,2.62,0,0,1-.7-.28,2.19,2.19,0,0,1-.5-.38,4.88,4.88,0,0,1-.49-.64l-.08,2.71q0,.66,0,1v.67h-1.23Zm1.57-8.94,0,.52,0,.71c0,.37,0,.67,0,.91s0,.4,0,.49a3.72,3.72,0,0,0,.11,1,1.89,1.89,0,0,0,.42.82,2.12,2.12,0,0,0,1.64.76,2,2,0,0,0,1.16-.36,2.27,2.27,0,0,0,.82-1,4.1,4.1,0,0,0,.29-1.54,3.1,3.1,0,0,0-.31-1.45A1.91,1.91,0,0,0,117,106a2.53,2.53,0,0,0-1.18-.27A5.72,5.72,0,0,0,113.78,106.13Z"/><path class="cls-2" d="M120.58,112c.16-2.63.24-4.72.24-6.29v-.63H122l0,1.13a4.79,4.79,0,0,1,.45-.64,1.66,1.66,0,0,1,.44-.35,2.26,2.26,0,0,1,.55-.22,2.82,2.82,0,0,1,.65-.08,2.22,2.22,0,0,1,.57.07c0,.3,0,.64,0,1a2.72,2.72,0,0,0-.75-.11,1.9,1.9,0,0,0-.73.13,1.73,1.73,0,0,0-.58.4,2.27,2.27,0,0,0-.42.65,3.1,3.1,0,0,0-.21.78c0,.32-.08.9-.11,1.74,0,.62,0,1.27,0,2V112h-1.22Z"/><path class="cls-2" d="M131.16,110.9c-.06.25-.11.57-.16.95a10,10,0,0,1-1.14.23c-.32,0-.64,0-1,0a5.27,5.27,0,0,1-1.54-.2,2.65,2.65,0,0,1-1.16-.72,2.83,2.83,0,0,1-.7-1.16,4.75,4.75,0,0,1,.18-3.28,3.07,3.07,0,0,1,1.17-1.37,3.65,3.65,0,0,1,2-.5,3.83,3.83,0,0,1,1.18.18,2.41,2.41,0,0,1,.95.55,2.54,2.54,0,0,1,.58.92,3.21,3.21,0,0,1,.2,1.18,2.45,2.45,0,0,1,0,.48H126.5q0,.38,0,.57a3,3,0,0,0,.3,1.33,2,2,0,0,0,.89.91,2.8,2.8,0,0,0,1.35.31A6.78,6.78,0,0,0,131.16,110.9Zm-4.61-3.26h4.08a4.85,4.85,0,0,0-.06-.67,1.72,1.72,0,0,0-.18-.49A1.37,1.37,0,0,0,130,106a1.49,1.49,0,0,0-.53-.28,2.09,2.09,0,0,0-.67-.1,2.35,2.35,0,0,0-.75.11,2.1,2.1,0,0,0-.62.3,2,2,0,0,0-.46.45,2.26,2.26,0,0,0-.28.49A4.88,4.88,0,0,0,126.55,107.64Z"/><path class="cls-2" d="M139.39,112l-.56,0h-.6l.09-1.47a6.24,6.24,0,0,1-.38.59,2.26,2.26,0,0,1-.37.39,2.55,2.55,0,0,1-.5.33,2.48,2.48,0,0,1-.63.23,3,3,0,0,1-.74.08,3.37,3.37,0,0,1-1.24-.23,2.64,2.64,0,0,1-1-.69,2.51,2.51,0,0,1-.58-1,4.28,4.28,0,0,1-.18-1.24,4.54,4.54,0,0,1,.33-1.69,3.53,3.53,0,0,1,2.33-2.14,6.3,6.3,0,0,1,1.64-.21,9.13,9.13,0,0,1,1.43.14c0-.5,0-.91,0-1.24s0-.86,0-1.15h1.24l-.19,3.86-.14,4.43Zm-1-6.1a5.16,5.16,0,0,0-.7-.16l-.56,0a3.94,3.94,0,0,0-1.25.19,2.65,2.65,0,0,0-1.06.62,2.89,2.89,0,0,0-.7,1.09,3.77,3.77,0,0,0-.24,1.3,2.89,2.89,0,0,0,.23,1.18,1.74,1.74,0,0,0,.72.86,2.08,2.08,0,0,0,1.14.32,2.3,2.3,0,0,0,.71-.11,1.8,1.8,0,0,0,.58-.31,2.45,2.45,0,0,0,.5-.55,3.34,3.34,0,0,0,.37-.81,5.82,5.82,0,0,0,.17-1.09q0-.33.06-1.29Z"/><path class="cls-2" d="M141.26,112l.12-1.72.13-2.94.06-2.26h1.24c-.05.71-.09,1.45-.14,2.23s-.07,1.63-.1,2.55,0,1.63,0,2.14h-1.28Zm.32-8.41c0-.43,0-.75,0-1h1.32c0,.14,0,.46,0,1h-1.3Z"/><path class="cls-2" d="M149.47,110.94c0,.08,0,.21-.07.41s-.07.39-.1.59a6.8,6.8,0,0,1-1,.15c-.31,0-.58,0-.81,0a4.52,4.52,0,0,1-1.36-.19,2.71,2.71,0,0,1-1.09-.66,2.79,2.79,0,0,1-.69-1.12,4.79,4.79,0,0,1-.22-1.42,5.11,5.11,0,0,1,.36-1.91,3,3,0,0,1,1.12-1.42,3.74,3.74,0,0,1,2.09-.51,7.12,7.12,0,0,1,1.89.26c0,.39.05.71.08,1a9,9,0,0,0-1.06-.28,4.29,4.29,0,0,0-.76-.07,2.51,2.51,0,0,0-1.08.22,2.15,2.15,0,0,0-.81.62,2.55,2.55,0,0,0-.48,1,4.28,4.28,0,0,0-.15,1.13,3.54,3.54,0,0,0,.24,1.35,1.75,1.75,0,0,0,.84.9,2.82,2.82,0,0,0,1.34.32A5.23,5.23,0,0,0,149.47,110.94Z"/><path class="cls-2" d="M154.48,111.08c0,.23-.1.52-.16.89a7.44,7.44,0,0,1-.74.14,4.61,4.61,0,0,1-.52,0,2.69,2.69,0,0,1-1-.15,1.14,1.14,0,0,1-.57-.49,1.85,1.85,0,0,1-.2-.92s0-.14,0-.27,0-.57.07-1.33l.16-3.06h-.91c0-.19,0-.47.05-.82h.93c0-.26,0-.69.07-1.31.43-.08.79-.16,1.08-.23,0,.67-.05,1.19-.05,1.54h1.9c0,.28,0,.56,0,.82h-1.89l-.19,3.85v.29a2,2,0,0,0,.11.75.74.74,0,0,0,.34.36,1.12,1.12,0,0,0,.47.11l.37,0A6.91,6.91,0,0,0,154.48,111.08Z"/><path class="cls-2" d="M154.35,115.15c0-.39-.07-.71-.11-1a2.38,2.38,0,0,0,.63.22,2.67,2.67,0,0,0,.5.06,1.54,1.54,0,0,0,.52-.09,1.11,1.11,0,0,0,.41-.26,2.17,2.17,0,0,0,.34-.44c.11-.18.24-.4.37-.65s.25-.53.37-.83L155.92,108l-1.07-3h1.29c.07.32.13.56.18.73s.16.51.33,1l1,3.14c.11.35.22.73.34,1.15l.77-1.89,1.43-3.34.12-.31.18-.51h1.24c-.18.4-.61,1.35-1.29,2.83L158,113.53a5.11,5.11,0,0,1-.49.86,2.44,2.44,0,0,1-.38.4,1.85,1.85,0,0,1-.37.25,2.38,2.38,0,0,1-.55.19,2.84,2.84,0,0,1-.66.07A5,5,0,0,1,154.35,115.15Z"/><path class="cls-2" d="M169.34,111.08c0,.23-.1.52-.16.89a6.94,6.94,0,0,1-.74.14,4.61,4.61,0,0,1-.52,0,2.69,2.69,0,0,1-1-.15,1.14,1.14,0,0,1-.57-.49,1.85,1.85,0,0,1-.2-.92s0-.14,0-.27,0-.57.07-1.33l.17-3.06h-.92c0-.19,0-.47.05-.82h.93c0-.26.05-.69.07-1.31.43-.08.79-.16,1.09-.23,0,.67,0,1.19-.06,1.54h1.9c0,.28,0,.56,0,.82h-1.89l-.18,3.85v.29a2,2,0,0,0,.11.75.79.79,0,0,0,.34.36,1.12,1.12,0,0,0,.47.11l.37,0A6.91,6.91,0,0,0,169.34,111.08Z"/><path class="cls-2" d="M170.38,112l.17-3,.16-4.05,0-2.31H172l-.15,2.38-.05,1.41c.11-.19.2-.35.28-.46a2.43,2.43,0,0,1,.31-.35,2.55,2.55,0,0,1,.39-.3,2.78,2.78,0,0,1,.46-.21,3.56,3.56,0,0,1,.61-.16,4.44,4.44,0,0,1,.74-.06,4.58,4.58,0,0,1,1.12.13,2.35,2.35,0,0,1,.9.43,1.46,1.46,0,0,1,.52.72,2.49,2.49,0,0,1,.14.85v.45c0,.28,0,.61-.06,1l-.11,2.51c0,.27,0,.61,0,1h-1.26c.05-.49.11-1.26.18-2.32s.1-1.79.1-2.2a1.87,1.87,0,0,0-.2-.9,1.27,1.27,0,0,0-.66-.55,2.54,2.54,0,0,0-1-.19,2.67,2.67,0,0,0-.95.16,1.82,1.82,0,0,0-.69.4,2,2,0,0,0-.46.63,3.63,3.63,0,0,0-.26.81,15.7,15.7,0,0,0-.16,1.81c0,.46,0,1.24-.08,2.35h-1.21Z"/><path class="cls-2" d="M184.53,110.9c-.06.25-.11.57-.17.95a9.19,9.19,0,0,1-1.14.23c-.32,0-.64,0-1,0a5.2,5.2,0,0,1-1.53-.2,2.74,2.74,0,0,1-1.17-.72,2.92,2.92,0,0,1-.69-1.16,4.75,4.75,0,0,1,.18-3.28,3,3,0,0,1,1.17-1.37,3.63,3.63,0,0,1,2-.5,3.9,3.9,0,0,1,1.19.18,2.41,2.41,0,0,1,1,.55,2.54,2.54,0,0,1,.58.92,3.44,3.44,0,0,1,.2,1.18,2.45,2.45,0,0,1,0,.48h-5.21q0,.38,0,.57a3,3,0,0,0,.3,1.33,2,2,0,0,0,.89.91,2.8,2.8,0,0,0,1.35.31A6.83,6.83,0,0,0,184.53,110.9Zm-4.61-3.26H184a3.81,3.81,0,0,0-.05-.67,1.72,1.72,0,0,0-.18-.49,1.52,1.52,0,0,0-.35-.45,1.58,1.58,0,0,0-.53-.28,2.15,2.15,0,0,0-.68-.1,2.29,2.29,0,0,0-.74.11,2.1,2.1,0,0,0-.62.3,2,2,0,0,0-.46.45,2.26,2.26,0,0,0-.28.49A4.88,4.88,0,0,0,179.92,107.64Z"/><path class="cls-2" d="M193.28,111.08c-.05.23-.1.52-.16.89a7.44,7.44,0,0,1-.74.14,4.61,4.61,0,0,1-.52,0,2.69,2.69,0,0,1-1-.15,1.14,1.14,0,0,1-.57-.49,1.85,1.85,0,0,1-.2-.92s0-.14,0-.27,0-.57.07-1.33l.17-3.06h-.92c0-.19,0-.47.05-.82h.93c0-.26.05-.69.07-1.31.43-.08.79-.16,1.09-.23,0,.67-.05,1.19-.06,1.54h1.9c0,.28,0,.56,0,.82h-1.89l-.19,3.85v.29a2,2,0,0,0,.11.75.79.79,0,0,0,.34.36,1.12,1.12,0,0,0,.47.11l.37,0A6.91,6.91,0,0,0,193.28,111.08Z"/><path class="cls-2" d="M193.15,115.15c0-.39-.07-.71-.11-1a2.38,2.38,0,0,0,.63.22,2.67,2.67,0,0,0,.5.06,1.5,1.5,0,0,0,.52-.09,1.11,1.11,0,0,0,.41-.26,2.17,2.17,0,0,0,.34-.44c.11-.18.24-.4.37-.65s.25-.53.37-.83L194.72,108l-1.07-3h1.29c.07.32.13.56.18.73s.16.51.33,1l1,3.14c.11.35.22.73.34,1.15l.77-1.89,1.43-3.34.12-.31.18-.51h1.24c-.18.4-.61,1.35-1.29,2.83l-2.53,5.64a5.11,5.11,0,0,1-.49.86,2.44,2.44,0,0,1-.38.4,1.85,1.85,0,0,1-.37.25,2.38,2.38,0,0,1-.55.19,2.84,2.84,0,0,1-.66.07A5,5,0,0,1,193.15,115.15Z"/><path class="cls-2" d="M201,115.07c.09-1.17.18-2.77.26-4.8s.12-3.67.13-5c.75-.16,1.35-.27,1.79-.32a10.2,10.2,0,0,1,1.35-.09,4.79,4.79,0,0,1,1.86.34,2.47,2.47,0,0,1,1.22,1.19,4.18,4.18,0,0,1,.44,1.92,4.92,4.92,0,0,1-.21,1.44,3.7,3.7,0,0,1-.62,1.24,2.72,2.72,0,0,1-1,.83,3.19,3.19,0,0,1-1.33.27,3.33,3.33,0,0,1-.84-.1,2.62,2.62,0,0,1-.7-.28,2,2,0,0,1-.5-.38,4.88,4.88,0,0,1-.49-.64l-.08,2.71q0,.66,0,1v.67H201Zm1.56-8.94,0,.52,0,.71c0,.37,0,.67,0,.91s0,.4,0,.49a4.22,4.22,0,0,0,.1,1,1.91,1.91,0,0,0,.43.82,2.12,2.12,0,0,0,1.63.76,2,2,0,0,0,1.17-.36,2.27,2.27,0,0,0,.82-1,4.1,4.1,0,0,0,.29-1.54,3.1,3.1,0,0,0-.31-1.45,1.91,1.91,0,0,0-.82-.88,2.53,2.53,0,0,0-1.18-.27A5.82,5.82,0,0,0,202.57,106.13Z"/><path class="cls-2" d="M215.06,110.9c-.05.25-.11.57-.16.95a10,10,0,0,1-1.14.23c-.32,0-.64,0-1,0a5.16,5.16,0,0,1-1.53-.2,2.63,2.63,0,0,1-1.17-.72,3.06,3.06,0,0,1-.7-1.16,4.75,4.75,0,0,1,.18-3.28,3.07,3.07,0,0,1,1.17-1.37,3.69,3.69,0,0,1,2-.5,3.94,3.94,0,0,1,1.19.18,2.37,2.37,0,0,1,.94.55,2.41,2.41,0,0,1,.58.92,3.22,3.22,0,0,1,.21,1.18,3.58,3.58,0,0,1,0,.48H210.4q0,.38,0,.57a3,3,0,0,0,.3,1.33,2.06,2.06,0,0,0,.89.91,2.87,2.87,0,0,0,1.36.31A6.73,6.73,0,0,0,215.06,110.9Zm-4.6-3.26h4.07a3.81,3.81,0,0,0-.05-.67,2.67,2.67,0,0,0-.18-.49A1.7,1.7,0,0,0,214,106a1.54,1.54,0,0,0-.54-.28,2,2,0,0,0-.67-.1,2.25,2.25,0,0,0-.74.11,2,2,0,0,0-.62.3,1.79,1.79,0,0,0-.46.45,1.91,1.91,0,0,0-.28.49A4.88,4.88,0,0,0,210.46,107.64Z"/><path class="cls-2" d="M223.77,104.9a4.41,4.41,0,0,1,1.37.21,2.74,2.74,0,0,1,1.12.65,2.83,2.83,0,0,1,.73,1.12,4.25,4.25,0,0,1,.24,1.43,4.71,4.71,0,0,1-.26,1.55,3.7,3.7,0,0,1-.74,1.27,2.76,2.76,0,0,1-1.16.76,4.46,4.46,0,0,1-1.48.24,4.52,4.52,0,0,1-1.38-.21,3,3,0,0,1-1.12-.69,2.92,2.92,0,0,1-.72-1.14,3.91,3.91,0,0,1-.25-1.41,4.36,4.36,0,0,1,.45-2,3,3,0,0,1,1.33-1.34A4.15,4.15,0,0,1,223.77,104.9Zm0,.87a2.49,2.49,0,0,0-1.28.35,2.06,2.06,0,0,0-.86,1,4,4,0,0,0-.28,1.53,3.58,3.58,0,0,0,.23,1.3,2.08,2.08,0,0,0,.76.93,2.27,2.27,0,0,0,1.29.36,2.65,2.65,0,0,0,1-.18,1.94,1.94,0,0,0,.8-.58,2.59,2.59,0,0,0,.5-1,4.51,4.51,0,0,0,.17-1.23,3.77,3.77,0,0,0-.17-1.13,1.94,1.94,0,0,0-.5-.84,2,2,0,0,0-.76-.45A2.91,2.91,0,0,0,223.74,105.77Z"/><path class="cls-2" d="M228.76,112l.07-1.25.18-4.81h-.85c0-.22,0-.51.06-.85h.88c0-.42,0-.75,0-1a2.71,2.71,0,0,1,.09-.61,1.3,1.3,0,0,1,.21-.46,1.33,1.33,0,0,1,.39-.34,1.76,1.76,0,0,1,.58-.23,3.51,3.51,0,0,1,.76-.07,5.68,5.68,0,0,1,1.32.17c0,.27,0,.56.07.87a3.41,3.41,0,0,0-1.18-.23,1.43,1.43,0,0,0-.48.07.83.83,0,0,0-.35.18.78.78,0,0,0-.22.3,1.35,1.35,0,0,0-.12.43,5.21,5.21,0,0,0,0,.6v.29h1.9c0,.2,0,.48-.06.85h-1.83l-.12,3.49L230,112h-1.23Z"/><path class="cls-2" d="M238.9,112l-1.08-3.43-1.95-5.9h1.33l1.21,4.08.94,3,.35,1.09q1.05-2.16,2-4.41-.6-1.94-1.26-3.78h1.34c.12.47.22.85.31,1.14s.2.67.35,1.14c.27-.57.58-1.32.94-2.28h1.35c-.61,1.24-1.2,2.51-1.77,3.8.42,1.45.89,2.92,1.4,4.39l1.81-4.07,1.32-3,.44-1.08h1.34l-2.18,4.66-1.56,3.42L245,112h-1.42c-.41-1.37-.85-2.71-1.32-4-.67,1.34-1.3,2.69-1.89,4H238.9Z"/><path class="cls-2" d="M249.79,112l.12-1.72.13-2.94.06-2.26h1.24c-.05.71-.1,1.45-.14,2.23s-.07,1.63-.1,2.55,0,1.63,0,2.14h-1.27Zm.31-8.41c0-.43,0-.75,0-1h1.31c0,.14,0,.46,0,1h-1.3Z"/><path class="cls-2" d="M252.87,112c.21-2.85.33-5.16.34-6.92h1.21l-.09,1.37a4.77,4.77,0,0,1,.27-.44,1.64,1.64,0,0,1,.28-.33,2.24,2.24,0,0,1,.4-.32,2,2,0,0,1,.55-.24,3.6,3.6,0,0,1,.63-.15,4.87,4.87,0,0,1,.65,0,4.35,4.35,0,0,1,1.14.15,2,2,0,0,1,.89.46,1.61,1.61,0,0,1,.48.73,3,3,0,0,1,.12.87c0,.06,0,.17,0,.34s0,.39,0,.66l-.13,2.87c0,.27,0,.61,0,1h-1.21c0-.55.08-1.08.1-1.59l.09-1.59c0-.55,0-1,0-1.24a1.9,1.9,0,0,0-.21-1,1.28,1.28,0,0,0-.65-.55,2.54,2.54,0,0,0-1-.2,2.44,2.44,0,0,0-1.36.38,2.36,2.36,0,0,0-.81,1,4.89,4.89,0,0,0-.28,1.35c-.07.72-.11,1.86-.14,3.41h-1.23Z"/><path class="cls-2" d="M267,110.9c-.06.25-.11.57-.17.95a9.19,9.19,0,0,1-1.14.23c-.32,0-.64,0-1,0a5.16,5.16,0,0,1-1.53-.2,2.74,2.74,0,0,1-1.17-.72,2.92,2.92,0,0,1-.69-1.16,4.26,4.26,0,0,1-.22-1.39,4.57,4.57,0,0,1,.39-1.89,3,3,0,0,1,1.18-1.37,3.63,3.63,0,0,1,2-.5,3.9,3.9,0,0,1,1.19.18,2.48,2.48,0,0,1,.95.55,2.54,2.54,0,0,1,.58.92,3.44,3.44,0,0,1,.2,1.18,2.45,2.45,0,0,1,0,.48h-5.22c0,.25,0,.44,0,.57a3,3,0,0,0,.3,1.33,2,2,0,0,0,.89.91,2.8,2.8,0,0,0,1.35.31A6.83,6.83,0,0,0,267,110.9Zm-4.61-3.26h4.07a3.81,3.81,0,0,0-.05-.67,1.72,1.72,0,0,0-.18-.49,1.52,1.52,0,0,0-.35-.45,1.58,1.58,0,0,0-.53-.28,2.15,2.15,0,0,0-.68-.1,2.29,2.29,0,0,0-.74.11,2.1,2.1,0,0,0-.62.3,2,2,0,0,0-.46.45,2.26,2.26,0,0,0-.28.49A4.88,4.88,0,0,0,262.41,107.64Z"/><path class="cls-2" d="M18.32,128.78,18,127.59,15,119.45h1.36l.21.74c0,.16.1.32.16.48l2.43,7.11,3.48-7.08c.08-.16.16-.33.23-.49s.19-.42.33-.76h1.39c-.43.78-1,1.82-1.64,3.13l-1.77,3.48c-.51,1-1,1.91-1.33,2.72H18.32Z"/><path class="cls-2" d="M25.35,123c0-.2.09-.5.13-.89a11.69,11.69,0,0,1,1.43-.29,9.48,9.48,0,0,1,1.18-.08,6,6,0,0,1,1.15.11,2.41,2.41,0,0,1,.89.37,1.16,1.16,0,0,1,.47.58,2,2,0,0,1,.12.71c0,.31,0,.84-.07,1.58s-.09,1.42-.11,2,0,1.19,0,1.68H29.28l.14-1.86.11-2.21-.36.26a1.71,1.71,0,0,1-.27.14l-.34.12c-.12,0-.35.11-.7.2l-.74.22a4.13,4.13,0,0,0-.75.3,2.36,2.36,0,0,0-.46.33,1.16,1.16,0,0,0-.26.36,1.18,1.18,0,0,0-.09.46,1,1,0,0,0,.22.64,1.17,1.17,0,0,0,.55.38,2.69,2.69,0,0,0,.8.1,4.22,4.22,0,0,0,.6,0,4.44,4.44,0,0,0,.84-.2c-.06.17-.13.44-.22.81q-.5.09-.81.12c-.21,0-.41,0-.59,0a4.09,4.09,0,0,1-1.47-.21,1.57,1.57,0,0,1-.78-.67,1.84,1.84,0,0,1-.26-1,1.69,1.69,0,0,1,.09-.56,1.51,1.51,0,0,1,.25-.47,1.7,1.7,0,0,1,.45-.43,2.84,2.84,0,0,1,.61-.35,7.51,7.51,0,0,1,.74-.27c.28-.09.73-.21,1.36-.36a3.63,3.63,0,0,0,.51-.14,2.77,2.77,0,0,0,.38-.14,1.08,1.08,0,0,0,.28-.16,1,1,0,0,0,.23-.22.91.91,0,0,0,.15-.27.87.87,0,0,0,.05-.28.85.85,0,0,0-.22-.57,1.17,1.17,0,0,0-.57-.33,3,3,0,0,0-.83-.1,5.88,5.88,0,0,0-.92.07,7.78,7.78,0,0,0-.8.17C26,122.73,25.69,122.83,25.35,123Z"/><path class="cls-2" d="M32.33,128.78c.17-2.63.25-4.72.25-6.29v-.63h1.16L33.67,123a4.79,4.79,0,0,1,.45-.64,1.83,1.83,0,0,1,.44-.35,2.18,2.18,0,0,1,.56-.22,2.74,2.74,0,0,1,.64-.08,2.17,2.17,0,0,1,.57.07c0,.3,0,.64.05,1a2.79,2.79,0,0,0-.76-.11,1.81,1.81,0,0,0-.72.13,1.63,1.63,0,0,0-.58.4,2.27,2.27,0,0,0-.42.65,3.1,3.1,0,0,0-.21.78,15.36,15.36,0,0,0-.11,1.74c0,.62,0,1.27,0,2v.45H32.33Z"/><path class="cls-2" d="M37.28,128.78l.12-1.72.13-2.94.06-2.26h1.24c0,.71-.09,1.45-.14,2.23s-.07,1.63-.1,2.55,0,1.63,0,2.14H37.28Zm.32-8.41c0-.43,0-.75,0-1h1.32c0,.14,0,.46,0,1H37.6Z"/><path class="cls-2" d="M46.07,127.7c-.06.25-.11.57-.17,1a9.57,9.57,0,0,1-1.14.23c-.32,0-.64.05-1,.05a5.16,5.16,0,0,1-1.53-.2A2.68,2.68,0,0,1,41.1,128a2.92,2.92,0,0,1-.69-1.16,4.26,4.26,0,0,1-.22-1.39,4.57,4.57,0,0,1,.39-1.89,3,3,0,0,1,1.18-1.37,3.63,3.63,0,0,1,2-.5,3.9,3.9,0,0,1,1.19.18,2.37,2.37,0,0,1,.94.55,2.43,2.43,0,0,1,.59.92,3.44,3.44,0,0,1,.2,1.18,2.45,2.45,0,0,1,0,.48H41.4c0,.25,0,.44,0,.57a3,3,0,0,0,.3,1.33,2,2,0,0,0,.89.91,2.8,2.8,0,0,0,1.35.31A6.83,6.83,0,0,0,46.07,127.7Zm-4.61-3.26h4.07a3.81,3.81,0,0,0-.05-.67,1.72,1.72,0,0,0-.18-.49,1.52,1.52,0,0,0-.35-.45,1.58,1.58,0,0,0-.53-.28,2.15,2.15,0,0,0-.68-.1,2.25,2.25,0,0,0-.74.11,2,2,0,0,0-.62.3,1.79,1.79,0,0,0-.46.45,1.91,1.91,0,0,0-.28.49A4.88,4.88,0,0,0,41.46,124.44Z"/><path class="cls-2" d="M51.32,127.88c0,.23-.1.52-.16.89a7.44,7.44,0,0,1-.74.14,4.7,4.7,0,0,1-.52,0,2.69,2.69,0,0,1-1-.15,1.14,1.14,0,0,1-.57-.49,1.85,1.85,0,0,1-.2-.92c0-.05,0-.14,0-.27s0-.57.07-1.33l.16-3.06h-.91c0-.19,0-.47.05-.82h.93c0-.26,0-.69.07-1.31.43-.08.79-.16,1.08-.23,0,.67,0,1.19,0,1.54h1.9c0,.28,0,.56,0,.82H49.53l-.19,3.85v.29a1.85,1.85,0,0,0,.11.75.74.74,0,0,0,.34.36,1.08,1.08,0,0,0,.47.11l.37,0A6.91,6.91,0,0,0,51.32,127.88Z"/><path class="cls-2" d="M51.19,132c0-.39-.07-.71-.11-1a2.71,2.71,0,0,0,1.13.28,1.54,1.54,0,0,0,.52-.09,1.11,1.11,0,0,0,.41-.26,1.86,1.86,0,0,0,.33-.44,7.16,7.16,0,0,0,.37-.65c.13-.25.26-.53.38-.83l-1.46-4.15-1.07-3H53c.07.32.13.56.18.73s.16.51.33,1l1,3.14c.12.35.23.73.35,1.14l.77-1.88,1.43-3.34.12-.31.18-.51h1.24c-.18.4-.61,1.35-1.29,2.83l-2.54,5.64a5.18,5.18,0,0,1-.48.86,2.44,2.44,0,0,1-.38.4,1.85,1.85,0,0,1-.37.25A3,3,0,0,1,53,132a2.9,2.9,0,0,1-.66.07A5,5,0,0,1,51.19,132Z"/><path class="cls-2" d="M16,135.65h1.27l4.86,7.68-.17.18v-7.86h1.39v9.93H22L17.19,138l.16-.18v7.75H16Z"/><path class="cls-2" d="M25.78,135.65h1.39v9.93H25.78Zm.69,8.61h5.69v1.32H26.47Z"/><path class="cls-2" d="M32,135.65h7V137H32Zm2.81.81h1.4v9.12h-1.4Z"/><path class="cls-2" d="M40.41,135.65H41.8v9.93H40.41Zm1.09,5.57,4.39-5.57H47.6l-6.31,7.66Zm1.65-.94,1.1-1L48,145.58H46.31Z"/><path class="cls-2" d="M49.49,144.12H51v2.22l-1.46,1.51Z"/><path class="cls-2" d="M56.85,145.37a2.9,2.9,0,0,1-1.08-.91l1.14-.82a1.28,1.28,0,0,0,.56.52,1.74,1.74,0,0,0,.84.19,1.59,1.59,0,0,0,1.26-.51,2.07,2.07,0,0,0,.45-1.42v-6.77h1.39v6.78a4,4,0,0,1-.36,1.76A2.43,2.43,0,0,1,60,145.3a3.66,3.66,0,0,1-3.14.07Z"/><path class="cls-2" d="M65.13,142.8a1.63,1.63,0,0,0,.38,1.15,1.36,1.36,0,0,0,1.07.41,1.46,1.46,0,0,0,1.06-.36,1.37,1.37,0,0,0,.38-1l.09,1.48a2,2,0,0,1-1.92,1.24,2.22,2.22,0,0,1-1.81-.76,3.17,3.17,0,0,1-.64-2.13v-4.31h1.39ZM68,138.49H69.4v7.09H68Z"/><path class="cls-2" d="M71.52,138.49h1.4v10h-1.4Zm2,6.88a1.87,1.87,0,0,1-.73-.9l.1-1.48a1.73,1.73,0,0,0,.16.78,1.19,1.19,0,0,0,.48.49,1.57,1.57,0,0,0,.75.17,1.36,1.36,0,0,0,1.07-.42,1.73,1.73,0,0,0,.38-1.19v-1.54a1.81,1.81,0,0,0-.38-1.21,1.37,1.37,0,0,0-1.07-.43,1.57,1.57,0,0,0-.75.17,1.11,1.11,0,0,0-.48.48,1.64,1.64,0,0,0-.16.76l-.15-1.36a2.48,2.48,0,0,1,.84-1,2.07,2.07,0,0,1,1.16-.34,2.34,2.34,0,0,1,1.29.34,2.1,2.1,0,0,1,.82,1,4.12,4.12,0,0,1,.28,1.57v1.54a3.83,3.83,0,0,1-.29,1.55,2.13,2.13,0,0,1-.84,1,2.55,2.55,0,0,1-1.33.34A2.07,2.07,0,0,1,73.55,145.37Z"/><path class="cls-2" d="M78.11,138.49h1.42l2.18,6.16-.77,1.52Zm6.28,0-3,8.76a2,2,0,0,1-.43.76,1.48,1.48,0,0,1-.65.41,3.3,3.3,0,0,1-1,.12h-.28V147.2h.28a1.12,1.12,0,0,0,.62-.15,1.41,1.41,0,0,0,.4-.54l2.62-8Z"/><path class="cls-2" d="M85.21,138.49h3.2v1.26h-3.2Zm1.14,6.65a2.09,2.09,0,0,1-.4-1.4v-7.32h1.39v7.33a.71.71,0,0,0,.1.4.34.34,0,0,0,.3.14h.67v1.33h-.8A1.53,1.53,0,0,1,86.35,145.14Z"/><path class="cls-2" d="M91.55,145.32a2.48,2.48,0,0,1-1.06-1.09,3.77,3.77,0,0,1-.37-1.72v-.8a4.28,4.28,0,0,1,.35-1.8,2.52,2.52,0,0,1,1-1.13,3.12,3.12,0,0,1,1.61-.39,2.55,2.55,0,0,1,1.52.44,2.79,2.79,0,0,1,1,1.29,5.5,5.5,0,0,1,.33,2v.47H91.13v-1.12h3.46a2.43,2.43,0,0,0-.44-1.35,1.28,1.28,0,0,0-1-.49,1.53,1.53,0,0,0-1.23.52,2.24,2.24,0,0,0-.43,1.47v.91a1.86,1.86,0,0,0,.46,1.35,1.79,1.79,0,0,0,1.32.47,2.21,2.21,0,0,0,.84-.17,2.29,2.29,0,0,0,.75-.48l.92.92a4,4,0,0,1-1.19.78,3.4,3.4,0,0,1-1.32.28A3.65,3.65,0,0,1,91.55,145.32Z"/><path class="cls-2" d="M97.83,138.49h1.4v7.09h-1.4Zm3.44,1.34a1.6,1.6,0,0,0-.65-.12,1.27,1.27,0,0,0-1.39,1.38l-.14-1.36a2.5,2.5,0,0,1,.84-1,2,2,0,0,1,1.15-.35,2.46,2.46,0,0,1,.88.14,2,2,0,0,1,.69.41l-.91,1.23A1.24,1.24,0,0,0,101.27,139.83Z"/><path class="cls-2" d="M107.71,135.65H109l4.86,7.68-.16.18v-7.86h1.38v9.93h-1.28L108.92,138l.17-.18v7.75h-1.38Z"/><path class="cls-2" d="M118.51,145.32a2.42,2.42,0,0,1-1-1,3.71,3.71,0,0,1-.34-1.67v-1.16a3.65,3.65,0,0,1,.34-1.65,2.42,2.42,0,0,1,1-1,3.74,3.74,0,0,1,3.16,0,2.36,2.36,0,0,1,1,1,3.65,3.65,0,0,1,.35,1.65v1.18a3.67,3.67,0,0,1-.35,1.66,2.39,2.39,0,0,1-1,1,3.56,3.56,0,0,1-3.16,0Zm2.71-1.42a1.85,1.85,0,0,0,.4-1.28v-1.18a1.85,1.85,0,0,0-.4-1.28,1.64,1.64,0,0,0-2.26,0,1.85,1.85,0,0,0-.4,1.28v1.18a1.85,1.85,0,0,0,.4,1.28,1.62,1.62,0,0,0,2.26,0Z"/><path class="cls-2" d="M124.45,138.49h3.2v1.26h-3.2Zm1.13,6.65a2.14,2.14,0,0,1-.4-1.4v-7.32h1.4v7.33a.64.64,0,0,0,.1.4.34.34,0,0,0,.3.14h.67v1.33h-.8A1.57,1.57,0,0,1,125.58,145.14Z"/><path class="cls-2" d="M130.79,145.32a2.48,2.48,0,0,1-1.06-1.09,3.64,3.64,0,0,1-.37-1.72v-.8a4.28,4.28,0,0,1,.35-1.8,2.52,2.52,0,0,1,1-1.13,3.12,3.12,0,0,1,1.61-.39,2.55,2.55,0,0,1,1.52.44,2.79,2.79,0,0,1,1,1.29,5.5,5.5,0,0,1,.33,2v.47h-4.79v-1.12h3.46a2.36,2.36,0,0,0-.45-1.35,1.25,1.25,0,0,0-1-.49,1.53,1.53,0,0,0-1.23.52,2.24,2.24,0,0,0-.43,1.47v.91a1.86,1.86,0,0,0,.46,1.35,1.79,1.79,0,0,0,1.32.47,2.38,2.38,0,0,0,1.59-.65l.91.92a3.85,3.85,0,0,1-1.18.78,3.48,3.48,0,0,1-1.32.28A3.65,3.65,0,0,1,130.79,145.32Z"/><path class="cls-2" d="M137.07,135.65h1.4v9.93h-1.4Zm2,9.72a1.87,1.87,0,0,1-.73-.9l.1-1.48a1.73,1.73,0,0,0,.16.78,1.19,1.19,0,0,0,.48.49,1.57,1.57,0,0,0,.75.17,1.36,1.36,0,0,0,1.07-.42,1.73,1.73,0,0,0,.38-1.19v-1.54a1.81,1.81,0,0,0-.38-1.21,1.37,1.37,0,0,0-1.07-.43,1.57,1.57,0,0,0-.75.17,1.11,1.11,0,0,0-.48.48,1.64,1.64,0,0,0-.16.76l-.15-1.36a2.48,2.48,0,0,1,.84-1,2.07,2.07,0,0,1,1.16-.34,2.34,2.34,0,0,1,1.29.34,2,2,0,0,1,.81,1,3.93,3.93,0,0,1,.29,1.57v1.54a3.83,3.83,0,0,1-.29,1.55,2.13,2.13,0,0,1-.84,1,2.55,2.55,0,0,1-1.33.34A2.07,2.07,0,0,1,139.1,145.37Z"/><path class="cls-2" d="M145.83,145.32a2.36,2.36,0,0,1-1-1,3.71,3.71,0,0,1-.35-1.67v-1.16a3.65,3.65,0,0,1,.35-1.65,2.36,2.36,0,0,1,1-1,3.74,3.74,0,0,1,3.16,0,2.42,2.42,0,0,1,1,1,3.65,3.65,0,0,1,.34,1.65v1.18a3.67,3.67,0,0,1-.34,1.66,2.45,2.45,0,0,1-1,1,3.56,3.56,0,0,1-3.16,0Zm2.71-1.42a1.85,1.85,0,0,0,.4-1.28v-1.18a1.85,1.85,0,0,0-.4-1.28,1.64,1.64,0,0,0-2.26,0,1.85,1.85,0,0,0-.4,1.28v1.18a1.85,1.85,0,0,0,.4,1.28,1.62,1.62,0,0,0,2.26,0Z"/><path class="cls-2" d="M153.46,145.32a2.36,2.36,0,0,1-1-1,3.71,3.71,0,0,1-.35-1.67v-1.16a3.65,3.65,0,0,1,.35-1.65,2.36,2.36,0,0,1,1-1,3.74,3.74,0,0,1,3.16,0,2.42,2.42,0,0,1,1,1,3.65,3.65,0,0,1,.34,1.65v1.18a3.67,3.67,0,0,1-.34,1.66,2.45,2.45,0,0,1-1,1,3.56,3.56,0,0,1-3.16,0Zm2.71-1.42a1.85,1.85,0,0,0,.4-1.28v-1.18a1.85,1.85,0,0,0-.4-1.28,1.45,1.45,0,0,0-1.13-.45,1.42,1.42,0,0,0-1.13.45,1.85,1.85,0,0,0-.4,1.28v1.18a1.85,1.85,0,0,0,.4,1.28,1.39,1.39,0,0,0,1.13.46A1.42,1.42,0,0,0,156.17,143.9Z"/><path class="cls-2" d="M160,135.65h1.39v9.93H160Zm.6,7.24,3.65-4.4h1.64l-5.38,6.06Zm1.64-1.4.9-.93,3.1,5h-1.52Z"/></g></g></svg>